<svg xmlns="http://www.w3.org/2000/svg" xmlns:xlink="http://www.w3.org/1999/xlink" id="body_18" preserveAspectRatio="xMinYMin meet" viewBox="0 0 793 1123"><defs><clipPath id="1"><path id="" clip-rule="evenodd" transform="matrix(1 0 0 1 0 0)" d="M0 842L0 0L0 0L595 0L595 0L595 842L595 842L0 842z" /></clipPath><clipPath id="2"><path id="" clip-rule="evenodd" transform="matrix(1 0 0 1 0 0)" d="M0 0L594.75 0L594.75 0L594.75 842.0669L594.75 842.0669L0 842.0669L0 842.0669L0 0z" /></clipPath></defs><g transform="matrix(1.333333 0 0 1.333333 0 0)"><g clip-path="url(#1)"><g clip-path="url(#2)"><path id="1" transform="matrix(1 0 0 -1 0 842)" d="M0 841.999L594.75 841.999L594.75 -0.06738281L0 -0.06738281z" stroke="none" fill="#FFFFFF" fill-rule="nonzero" /><path id="2" transform="matrix(1 0 0 -1 0 842)" d="M49.5625 768.6465L74.34375 768.6465L74.34375 742.874L49.5625 742.874z" stroke="none" fill="#9CC9F0" fill-rule="nonzero" /><path id="3" transform="matrix(1 0 0 -1 0 842)" d="M74.34375 768.6465L123.9063 768.6465L123.9063 742.874L74.34375 742.874z" stroke="none" fill="#9CC9F0" fill-rule="nonzero" /><path id="4" transform="matrix(1 0 0 -1 0 842)" d="M123.9063 768.6465L198.25 768.6465L198.25 742.874L123.9063 742.874z" stroke="none" fill="#9CC9F0" fill-rule="nonzero" /><path id="5" transform="matrix(1 0 0 -1 0 842)" d="M198.25 768.6465L247.8125 768.6465L247.8125 742.874L198.25 742.874z" stroke="none" fill="#9CC9F0" fill-rule="nonzero" /><path id="6" transform="matrix(1 0 0 -1 0 842)" d="M247.8125 768.6465L421.2813 768.6465L421.2813 742.874L247.8125 742.874z" stroke="none" fill="#9CC9F0" fill-rule="nonzero" /><path id="7" transform="matrix(1 0 0 -1 0 842)" d="M421.2813 768.6465L470.8438 768.6465L470.8438 742.874L421.2813 742.874z" stroke="none" fill="#9CC9F0" fill-rule="nonzero" /><path id="8" transform="matrix(1 0 0 -1 0 842)" d="M470.8438 768.6465L544.6919 768.6465L544.6919 742.874L470.8438 742.874z" stroke="none" fill="#9CC9F0" fill-rule="nonzero" /><path id="9" transform="matrix(1 0 0 -1 0 842)" d="M49.5625 768.6465L74.83938 768.6465L74.83938 768.1514L49.5625 768.1514z" stroke="none" fill="#000000" fill-rule="nonzero" /><path id="10" transform="matrix(1 0 0 -1 0 842)" d="M49.5625 742.874L74.83938 742.874L74.83938 742.3789L49.5625 742.3789z" stroke="none" fill="#000000" fill-rule="nonzero" /><path id="11" transform="matrix(1 0 0 -1 0 842)" d="M49.5625 768.6465L50.05813 768.6465L50.05813 742.3789L49.5625 742.3789z" stroke="none" fill="#000000" fill-rule="nonzero" /><path id="12" transform="matrix(1 0 0 -1 0 842)" d="M74.34375 768.6465L74.83938 768.6465L74.83938 742.3789L74.34375 742.3789z" stroke="none" fill="#000000" fill-rule="nonzero" /><path id="13" transform="matrix(1 0 0 -1 0 842)" d="M74.34375 768.6465L124.4019 768.6465L124.4019 768.1514L74.34375 768.1514z" stroke="none" fill="#000000" fill-rule="nonzero" /><path id="14" transform="matrix(1 0 0 -1 0 842)" d="M74.34375 742.874L124.4019 742.874L124.4019 742.3789L74.34375 742.3789z" stroke="none" fill="#000000" fill-rule="nonzero" /><path id="15" transform="matrix(1 0 0 -1 0 842)" d="M74.34375 768.6465L74.83938 768.6465L74.83938 742.3789L74.34375 742.3789z" stroke="none" fill="#000000" fill-rule="nonzero" /><path id="16" transform="matrix(1 0 0 -1 0 842)" d="M123.9063 768.6465L124.4019 768.6465L124.4019 742.3789L123.9063 742.3789z" stroke="none" fill="#000000" fill-rule="nonzero" /><path id="17" transform="matrix(1 0 0 -1 0 842)" d="M123.9063 768.6465L198.7456 768.6465L198.7456 768.1514L123.9063 768.1514z" stroke="none" fill="#000000" fill-rule="nonzero" /><path id="18" transform="matrix(1 0 0 -1 0 842)" d="M123.9063 742.874L198.7456 742.874L198.7456 742.3789L123.9063 742.3789z" stroke="none" fill="#000000" fill-rule="nonzero" /><path id="19" transform="matrix(1 0 0 -1 0 842)" d="M123.9063 768.6465L124.4019 768.6465L124.4019 742.3789L123.9063 742.3789z" stroke="none" fill="#000000" fill-rule="nonzero" /><path id="20" transform="matrix(1 0 0 -1 0 842)" d="M198.25 768.6465L198.7456 768.6465L198.7456 742.3789L198.25 742.3789z" stroke="none" fill="#000000" fill-rule="nonzero" /><path id="21" transform="matrix(1 0 0 -1 0 842)" d="M198.25 768.6465L248.3081 768.6465L248.3081 768.1514L198.25 768.1514z" stroke="none" fill="#000000" fill-rule="nonzero" /><path id="22" transform="matrix(1 0 0 -1 0 842)" d="M198.25 742.874L248.3081 742.874L248.3081 742.3789L198.25 742.3789z" stroke="none" fill="#000000" fill-rule="nonzero" /><path id="23" transform="matrix(1 0 0 -1 0 842)" d="M198.25 768.6465L198.7456 768.6465L198.7456 742.3789L198.25 742.3789z" stroke="none" fill="#000000" fill-rule="nonzero" /><path id="24" transform="matrix(1 0 0 -1 0 842)" d="M247.8125 768.6465L248.3081 768.6465L248.3081 742.3789L247.8125 742.3789z" stroke="none" fill="#000000" fill-rule="nonzero" /><path id="25" transform="matrix(1 0 0 -1 0 842)" d="M247.8125 768.6465L421.7769 768.6465L421.7769 768.1514L247.8125 768.1514z" stroke="none" fill="#000000" fill-rule="nonzero" /><path id="26" transform="matrix(1 0 0 -1 0 842)" d="M247.8125 742.874L421.7769 742.874L421.7769 742.3789L247.8125 742.3789z" stroke="none" fill="#000000" fill-rule="nonzero" /><path id="27" transform="matrix(1 0 0 -1 0 842)" d="M247.8125 768.6465L248.3081 768.6465L248.3081 742.3789L247.8125 742.3789z" stroke="none" fill="#000000" fill-rule="nonzero" /><path id="28" transform="matrix(1 0 0 -1 0 842)" d="M421.2813 768.6465L421.7769 768.6465L421.7769 742.3789L421.2813 742.3789z" stroke="none" fill="#000000" fill-rule="nonzero" /><path id="29" transform="matrix(1 0 0 -1 0 842)" d="M421.2813 768.6465L471.3394 768.6465L471.3394 768.1514L421.2813 768.1514z" stroke="none" fill="#000000" fill-rule="nonzero" /><path id="30" transform="matrix(1 0 0 -1 0 842)" d="M421.2813 742.874L471.3394 742.874L471.3394 742.3789L421.2813 742.3789z" stroke="none" fill="#000000" fill-rule="nonzero" /><path id="31" transform="matrix(1 0 0 -1 0 842)" d="M421.2813 768.6465L421.7769 768.6465L421.7769 742.3789L421.2813 742.3789z" stroke="none" fill="#000000" fill-rule="nonzero" /><path id="32" transform="matrix(1 0 0 -1 0 842)" d="M470.8438 768.6465L471.3394 768.6465L471.3394 742.3789L470.8438 742.3789z" stroke="none" fill="#000000" fill-rule="nonzero" /><path id="33" transform="matrix(1 0 0 -1 0 842)" d="M470.8438 768.6465L545.1875 768.6465L545.1875 768.1514L470.8438 768.1514z" stroke="none" fill="#000000" fill-rule="nonzero" /><path id="34" transform="matrix(1 0 0 -1 0 842)" d="M470.8438 742.874L545.1875 742.874L545.1875 742.3789L470.8438 742.3789z" stroke="none" fill="#000000" fill-rule="nonzero" /><path id="35" transform="matrix(1 0 0 -1 0 842)" d="M470.8438 768.6465L471.3394 768.6465L471.3394 742.3789L470.8438 742.3789z" stroke="none" fill="#000000" fill-rule="nonzero" /><path id="36" transform="matrix(1 0 0 -1 0 842)" d="M544.6919 768.6465L545.1875 768.6465L545.1875 742.3789L544.6919 742.3789z" stroke="none" fill="#000000" fill-rule="nonzero" /><path id="37" transform="matrix(1 0 0 -1 0 842)" d="M49.5625 742.874L74.83938 742.874L74.83938 742.3789L49.5625 742.3789z" stroke="none" fill="#000000" fill-rule="nonzero" /><path id="38" transform="matrix(1 0 0 -1 0 842)" d="M49.5625 674.4785L74.83938 674.4785L74.83938 673.9824L49.5625 673.9824z" stroke="none" fill="#000000" fill-rule="nonzero" /><path id="39" transform="matrix(1 0 0 -1 0 842)" d="M49.5625 742.874L50.05813 742.874L50.05813 673.9824L49.5625 673.9824z" stroke="none" fill="#000000" fill-rule="nonzero" /><path id="40" transform="matrix(1 0 0 -1 0 842)" d="M74.34375 742.874L74.83938 742.874L74.83938 673.9824L74.34375 673.9824z" stroke="none" fill="#000000" fill-rule="nonzero" /><path id="41" transform="matrix(1 0 0 -1 0 842)" d="M74.34375 742.874L124.4019 742.874L124.4019 742.3789L74.34375 742.3789z" stroke="none" fill="#000000" fill-rule="nonzero" /><path id="42" transform="matrix(1 0 0 -1 0 842)" d="M74.34375 674.4785L124.4019 674.4785L124.4019 673.9824L74.34375 673.9824z" stroke="none" fill="#000000" fill-rule="nonzero" /><path id="43" transform="matrix(1 0 0 -1 0 842)" d="M74.34375 742.874L74.83938 742.874L74.83938 673.9824L74.34375 673.9824z" stroke="none" fill="#000000" fill-rule="nonzero" /><path id="44" transform="matrix(1 0 0 -1 0 842)" d="M123.9063 742.874L124.4019 742.874L124.4019 673.9824L123.9063 673.9824z" stroke="none" fill="#000000" fill-rule="nonzero" /><path id="45" transform="matrix(1 0 0 -1 0 842)" d="M123.9063 742.874L198.7456 742.874L198.7456 742.3789L123.9063 742.3789z" stroke="none" fill="#000000" fill-rule="nonzero" /><path id="46" transform="matrix(1 0 0 -1 0 842)" d="M123.9063 708.6758L198.7456 708.6758L198.7456 708.1807L123.9063 708.1807z" stroke="none" fill="#000000" fill-rule="nonzero" /><path id="47" transform="matrix(1 0 0 -1 0 842)" d="M123.9063 742.874L124.4019 742.874L124.4019 708.1807L123.9063 708.1807z" stroke="none" fill="#000000" fill-rule="nonzero" /><path id="48" transform="matrix(1 0 0 -1 0 842)" d="M198.25 742.874L198.7456 742.874L198.7456 708.1807L198.25 708.1807z" stroke="none" fill="#000000" fill-rule="nonzero" /><path id="49" transform="matrix(1 0 0 -1 0 842)" d="M198.25 742.874L248.3081 742.874L248.3081 742.3789L198.25 742.3789z" stroke="none" fill="#000000" fill-rule="nonzero" /><path id="50" transform="matrix(1 0 0 -1 0 842)" d="M198.25 708.6758L248.3081 708.6758L248.3081 708.1807L198.25 708.1807z" stroke="none" fill="#000000" fill-rule="nonzero" /><path id="51" transform="matrix(1 0 0 -1 0 842)" d="M198.25 742.874L198.7456 742.874L198.7456 708.1807L198.25 708.1807z" stroke="none" fill="#000000" fill-rule="nonzero" /><path id="52" transform="matrix(1 0 0 -1 0 842)" d="M247.8125 742.874L248.3081 742.874L248.3081 708.1807L247.8125 708.1807z" stroke="none" fill="#000000" fill-rule="nonzero" /><path id="53" transform="matrix(1 0 0 -1 0 842)" d="M247.8125 742.874L421.7769 742.874L421.7769 742.3789L247.8125 742.3789z" stroke="none" fill="#000000" fill-rule="nonzero" /><path id="54" transform="matrix(1 0 0 -1 0 842)" d="M247.8125 708.6758L421.7769 708.6758L421.7769 708.1807L247.8125 708.1807z" stroke="none" fill="#000000" fill-rule="nonzero" /><path id="55" transform="matrix(1 0 0 -1 0 842)" d="M247.8125 742.874L248.3081 742.874L248.3081 708.1807L247.8125 708.1807z" stroke="none" fill="#000000" fill-rule="nonzero" /><path id="56" transform="matrix(1 0 0 -1 0 842)" d="M421.2813 742.874L421.7769 742.874L421.7769 708.1807L421.2813 708.1807z" stroke="none" fill="#000000" fill-rule="nonzero" /><path id="57" transform="matrix(1 0 0 -1 0 842)" d="M421.2813 742.874L471.3394 742.874L471.3394 742.3789L421.2813 742.3789z" stroke="none" fill="#000000" fill-rule="nonzero" /><path id="58" transform="matrix(1 0 0 -1 0 842)" d="M421.2813 708.6758L471.3394 708.6758L471.3394 708.1807L421.2813 708.1807z" stroke="none" fill="#000000" fill-rule="nonzero" /><path id="59" transform="matrix(1 0 0 -1 0 842)" d="M421.2813 742.874L421.7769 742.874L421.7769 708.1807L421.2813 708.1807z" stroke="none" fill="#000000" fill-rule="nonzero" /><path id="60" transform="matrix(1 0 0 -1 0 842)" d="M470.8438 742.874L471.3394 742.874L471.3394 708.1807L470.8438 708.1807z" stroke="none" fill="#000000" fill-rule="nonzero" /><path id="61" transform="matrix(1 0 0 -1 0 842)" d="M470.8438 742.874L545.1875 742.874L545.1875 742.3789L470.8438 742.3789z" stroke="none" fill="#000000" fill-rule="nonzero" /><path id="62" transform="matrix(1 0 0 -1 0 842)" d="M470.8438 674.4785L545.1875 674.4785L545.1875 673.9824L470.8438 673.9824z" stroke="none" fill="#000000" fill-rule="nonzero" /><path id="63" transform="matrix(1 0 0 -1 0 842)" d="M470.8438 742.874L471.3394 742.874L471.3394 673.9824L470.8438 673.9824z" stroke="none" fill="#000000" fill-rule="nonzero" /><path id="64" transform="matrix(1 0 0 -1 0 842)" d="M544.6919 742.874L545.1875 742.874L545.1875 673.9824L544.6919 673.9824z" stroke="none" fill="#000000" fill-rule="nonzero" /><path id="65" transform="matrix(1 0 0 -1 0 842)" d="M123.9063 708.6758L198.7456 708.6758L198.7456 708.1807L123.9063 708.1807z" stroke="none" fill="#000000" fill-rule="nonzero" /><path id="66" transform="matrix(1 0 0 -1 0 842)" d="M123.9063 674.4785L198.7456 674.4785L198.7456 673.9824L123.9063 673.9824z" stroke="none" fill="#000000" fill-rule="nonzero" /><path id="67" transform="matrix(1 0 0 -1 0 842)" d="M123.9063 708.6758L124.4019 708.6758L124.4019 673.9824L123.9063 673.9824z" stroke="none" fill="#000000" fill-rule="nonzero" /><path id="68" transform="matrix(1 0 0 -1 0 842)" d="M198.25 708.6758L198.7456 708.6758L198.7456 673.9824L198.25 673.9824z" stroke="none" fill="#000000" fill-rule="nonzero" /><path id="69" transform="matrix(1 0 0 -1 0 842)" d="M198.25 708.6758L248.3081 708.6758L248.3081 708.1807L198.25 708.1807z" stroke="none" fill="#000000" fill-rule="nonzero" /><path id="70" transform="matrix(1 0 0 -1 0 842)" d="M198.25 674.4785L248.3081 674.4785L248.3081 673.9824L198.25 673.9824z" stroke="none" fill="#000000" fill-rule="nonzero" /><path id="71" transform="matrix(1 0 0 -1 0 842)" d="M198.25 708.6758L198.7456 708.6758L198.7456 673.9824L198.25 673.9824z" stroke="none" fill="#000000" fill-rule="nonzero" /><path id="72" transform="matrix(1 0 0 -1 0 842)" d="M247.8125 708.6758L248.3081 708.6758L248.3081 673.9824L247.8125 673.9824z" stroke="none" fill="#000000" fill-rule="nonzero" /><path id="73" transform="matrix(1 0 0 -1 0 842)" d="M247.8125 708.6758L421.7769 708.6758L421.7769 708.1807L247.8125 708.1807z" stroke="none" fill="#000000" fill-rule="nonzero" /><path id="74" transform="matrix(1 0 0 -1 0 842)" d="M247.8125 674.4785L421.7769 674.4785L421.7769 673.9824L247.8125 673.9824z" stroke="none" fill="#000000" fill-rule="nonzero" /><path id="75" transform="matrix(1 0 0 -1 0 842)" d="M247.8125 708.6758L248.3081 708.6758L248.3081 673.9824L247.8125 673.9824z" stroke="none" fill="#000000" fill-rule="nonzero" /><path id="76" transform="matrix(1 0 0 -1 0 842)" d="M421.2813 708.6758L421.7769 708.6758L421.7769 673.9824L421.2813 673.9824z" stroke="none" fill="#000000" fill-rule="nonzero" /><path id="77" transform="matrix(1 0 0 -1 0 842)" d="M421.2813 708.6758L471.3394 708.6758L471.3394 708.1807L421.2813 708.1807z" stroke="none" fill="#000000" fill-rule="nonzero" /><path id="78" transform="matrix(1 0 0 -1 0 842)" d="M421.2813 674.4785L471.3394 674.4785L471.3394 673.9824L421.2813 673.9824z" stroke="none" fill="#000000" fill-rule="nonzero" /><path id="79" transform="matrix(1 0 0 -1 0 842)" d="M421.2813 708.6758L421.7769 708.6758L421.7769 673.9824L421.2813 673.9824z" stroke="none" fill="#000000" fill-rule="nonzero" /><path id="80" transform="matrix(1 0 0 -1 0 842)" d="M470.8438 708.6758L471.3394 708.6758L471.3394 673.9824L470.8438 673.9824z" stroke="none" fill="#000000" fill-rule="nonzero" /><path id="81" transform="matrix(1 0 0 -1 0 842)" d="M49.5625 674.4785L74.83938 674.4785L74.83938 673.9824L49.5625 673.9824z" stroke="none" fill="#000000" fill-rule="nonzero" /><path id="82" transform="matrix(1 0 0 -1 0 842)" d="M49.5625 640.2803L74.83938 640.2803L74.83938 639.7842L49.5625 639.7842z" stroke="none" fill="#000000" fill-rule="nonzero" /><path id="83" transform="matrix(1 0 0 -1 0 842)" d="M49.5625 674.4785L50.05813 674.4785L50.05813 639.7842L49.5625 639.7842z" stroke="none" fill="#000000" fill-rule="nonzero" /><path id="84" transform="matrix(1 0 0 -1 0 842)" d="M74.34375 674.4785L74.83938 674.4785L74.83938 639.7842L74.34375 639.7842z" stroke="none" fill="#000000" fill-rule="nonzero" /><path id="85" transform="matrix(1 0 0 -1 0 842)" d="M74.34375 674.4785L124.4019 674.4785L124.4019 673.9824L74.34375 673.9824z" stroke="none" fill="#000000" fill-rule="nonzero" /><path id="86" transform="matrix(1 0 0 -1 0 842)" d="M74.34375 640.2803L124.4019 640.2803L124.4019 639.7842L74.34375 639.7842z" stroke="none" fill="#000000" fill-rule="nonzero" /><path id="87" transform="matrix(1 0 0 -1 0 842)" d="M74.34375 674.4785L74.83938 674.4785L74.83938 639.7842L74.34375 639.7842z" stroke="none" fill="#000000" fill-rule="nonzero" /><path id="88" transform="matrix(1 0 0 -1 0 842)" d="M123.9063 674.4785L124.4019 674.4785L124.4019 639.7842L123.9063 639.7842z" stroke="none" fill="#000000" fill-rule="nonzero" /><path id="89" transform="matrix(1 0 0 -1 0 842)" d="M123.9063 674.4785L198.7456 674.4785L198.7456 673.9824L123.9063 673.9824z" stroke="none" fill="#000000" fill-rule="nonzero" /><path id="90" transform="matrix(1 0 0 -1 0 842)" d="M123.9063 640.2803L198.7456 640.2803L198.7456 639.7842L123.9063 639.7842z" stroke="none" fill="#000000" fill-rule="nonzero" /><path id="91" transform="matrix(1 0 0 -1 0 842)" d="M123.9063 674.4785L124.4019 674.4785L124.4019 639.7842L123.9063 639.7842z" stroke="none" fill="#000000" fill-rule="nonzero" /><path id="92" transform="matrix(1 0 0 -1 0 842)" d="M198.25 674.4785L198.7456 674.4785L198.7456 639.7842L198.25 639.7842z" stroke="none" fill="#000000" fill-rule="nonzero" /><path id="93" transform="matrix(1 0 0 -1 0 842)" d="M198.25 674.4785L248.3081 674.4785L248.3081 673.9824L198.25 673.9824z" stroke="none" fill="#000000" fill-rule="nonzero" /><path id="94" transform="matrix(1 0 0 -1 0 842)" d="M198.25 640.2803L248.3081 640.2803L248.3081 639.7842L198.25 639.7842z" stroke="none" fill="#000000" fill-rule="nonzero" /><path id="95" transform="matrix(1 0 0 -1 0 842)" d="M198.25 674.4785L198.7456 674.4785L198.7456 639.7842L198.25 639.7842z" stroke="none" fill="#000000" fill-rule="nonzero" /><path id="96" transform="matrix(1 0 0 -1 0 842)" d="M247.8125 674.4785L248.3081 674.4785L248.3081 639.7842L247.8125 639.7842z" stroke="none" fill="#000000" fill-rule="nonzero" /><path id="97" transform="matrix(1 0 0 -1 0 842)" d="M247.8125 674.4785L421.7769 674.4785L421.7769 673.9824L247.8125 673.9824z" stroke="none" fill="#000000" fill-rule="nonzero" /><path id="98" transform="matrix(1 0 0 -1 0 842)" d="M247.8125 640.2803L421.7769 640.2803L421.7769 639.7842L247.8125 639.7842z" stroke="none" fill="#000000" fill-rule="nonzero" /><path id="99" transform="matrix(1 0 0 -1 0 842)" d="M247.8125 674.4785L248.3081 674.4785L248.3081 639.7842L247.8125 639.7842z" stroke="none" fill="#000000" fill-rule="nonzero" /><path id="100" transform="matrix(1 0 0 -1 0 842)" d="M421.2813 674.4785L421.7769 674.4785L421.7769 639.7842L421.2813 639.7842z" stroke="none" fill="#000000" fill-rule="nonzero" /><path id="101" transform="matrix(1 0 0 -1 0 842)" d="M421.2813 674.4785L471.3394 674.4785L471.3394 673.9824L421.2813 673.9824z" stroke="none" fill="#000000" fill-rule="nonzero" /><path id="102" transform="matrix(1 0 0 -1 0 842)" d="M421.2813 640.2803L471.3394 640.2803L471.3394 639.7842L421.2813 639.7842z" stroke="none" fill="#000000" fill-rule="nonzero" /><path id="103" transform="matrix(1 0 0 -1 0 842)" d="M421.2813 674.4785L421.7769 674.4785L421.7769 639.7842L421.2813 639.7842z" stroke="none" fill="#000000" fill-rule="nonzero" /><path id="104" transform="matrix(1 0 0 -1 0 842)" d="M470.8438 674.4785L471.3394 674.4785L471.3394 639.7842L470.8438 639.7842z" stroke="none" fill="#000000" fill-rule="nonzero" /><path id="105" transform="matrix(1 0 0 -1 0 842)" d="M470.8438 674.4785L545.1875 674.4785L545.1875 673.9824L470.8438 673.9824z" stroke="none" fill="#000000" fill-rule="nonzero" /><path id="106" transform="matrix(1 0 0 -1 0 842)" d="M470.8438 640.2803L545.1875 640.2803L545.1875 639.7842L470.8438 639.7842z" stroke="none" fill="#000000" fill-rule="nonzero" /><path id="107" transform="matrix(1 0 0 -1 0 842)" d="M470.8438 674.4785L471.3394 674.4785L471.3394 639.7842L470.8438 639.7842z" stroke="none" fill="#000000" fill-rule="nonzero" /><path id="108" transform="matrix(1 0 0 -1 0 842)" d="M544.6919 674.4785L545.1875 674.4785L545.1875 639.7842L544.6919 639.7842z" stroke="none" fill="#000000" fill-rule="nonzero" /><path id="109" transform="matrix(1 0 0 -1 0 842)" d="M49.5625 640.2803L74.83938 640.2803L74.83938 639.7842L49.5625 639.7842z" stroke="none" fill="#000000" fill-rule="nonzero" /><path id="110" transform="matrix(1 0 0 -1 0 842)" d="M49.5625 571.8838L74.83938 571.8838L74.83938 571.3877L49.5625 571.3877z" stroke="none" fill="#000000" fill-rule="nonzero" /><path id="111" transform="matrix(1 0 0 -1 0 842)" d="M49.5625 640.2803L50.05813 640.2803L50.05813 571.3877L49.5625 571.3877z" stroke="none" fill="#000000" fill-rule="nonzero" /><path id="112" transform="matrix(1 0 0 -1 0 842)" d="M74.34375 640.2803L74.83938 640.2803L74.83938 571.3877L74.34375 571.3877z" stroke="none" fill="#000000" fill-rule="nonzero" /><path id="113" transform="matrix(1 0 0 -1 0 842)" d="M74.34375 640.2803L124.4019 640.2803L124.4019 639.7842L74.34375 639.7842z" stroke="none" fill="#000000" fill-rule="nonzero" /><path id="114" transform="matrix(1 0 0 -1 0 842)" d="M74.34375 571.8838L124.4019 571.8838L124.4019 571.3877L74.34375 571.3877z" stroke="none" fill="#000000" fill-rule="nonzero" /><path id="115" transform="matrix(1 0 0 -1 0 842)" d="M74.34375 640.2803L74.83938 640.2803L74.83938 571.3877L74.34375 571.3877z" stroke="none" fill="#000000" fill-rule="nonzero" /><path id="116" transform="matrix(1 0 0 -1 0 842)" d="M123.9063 640.2803L124.4019 640.2803L124.4019 571.3877L123.9063 571.3877z" stroke="none" fill="#000000" fill-rule="nonzero" /><path id="117" transform="matrix(1 0 0 -1 0 842)" d="M123.9063 640.2803L198.7456 640.2803L198.7456 639.7842L123.9063 639.7842z" stroke="none" fill="#000000" fill-rule="nonzero" /><path id="118" transform="matrix(1 0 0 -1 0 842)" d="M123.9063 606.082L198.7456 606.082L198.7456 605.5859L123.9063 605.5859z" stroke="none" fill="#000000" fill-rule="nonzero" /><path id="119" transform="matrix(1 0 0 -1 0 842)" d="M123.9063 640.2803L124.4019 640.2803L124.4019 605.5859L123.9063 605.5859z" stroke="none" fill="#000000" fill-rule="nonzero" /><path id="120" transform="matrix(1 0 0 -1 0 842)" d="M198.25 640.2803L198.7456 640.2803L198.7456 605.5859L198.25 605.5859z" stroke="none" fill="#000000" fill-rule="nonzero" /><path id="121" transform="matrix(1 0 0 -1 0 842)" d="M198.25 640.2803L248.3081 640.2803L248.3081 639.7842L198.25 639.7842z" stroke="none" fill="#000000" fill-rule="nonzero" /><path id="122" transform="matrix(1 0 0 -1 0 842)" d="M198.25 606.082L248.3081 606.082L248.3081 605.5859L198.25 605.5859z" stroke="none" fill="#000000" fill-rule="nonzero" /><path id="123" transform="matrix(1 0 0 -1 0 842)" d="M198.25 640.2803L198.7456 640.2803L198.7456 605.5859L198.25 605.5859z" stroke="none" fill="#000000" fill-rule="nonzero" /><path id="124" transform="matrix(1 0 0 -1 0 842)" d="M247.8125 640.2803L248.3081 640.2803L248.3081 605.5859L247.8125 605.5859z" stroke="none" fill="#000000" fill-rule="nonzero" /><path id="125" transform="matrix(1 0 0 -1 0 842)" d="M247.8125 640.2803L421.7769 640.2803L421.7769 639.7842L247.8125 639.7842z" stroke="none" fill="#000000" fill-rule="nonzero" /><path id="126" transform="matrix(1 0 0 -1 0 842)" d="M247.8125 606.082L421.7769 606.082L421.7769 605.5859L247.8125 605.5859z" stroke="none" fill="#000000" fill-rule="nonzero" /><path id="127" transform="matrix(1 0 0 -1 0 842)" d="M247.8125 640.2803L248.3081 640.2803L248.3081 605.5859L247.8125 605.5859z" stroke="none" fill="#000000" fill-rule="nonzero" /><path id="128" transform="matrix(1 0 0 -1 0 842)" d="M421.2813 640.2803L421.7769 640.2803L421.7769 605.5859L421.2813 605.5859z" stroke="none" fill="#000000" fill-rule="nonzero" /><path id="129" transform="matrix(1 0 0 -1 0 842)" d="M421.2813 640.2803L471.3394 640.2803L471.3394 639.7842L421.2813 639.7842z" stroke="none" fill="#000000" fill-rule="nonzero" /><path id="130" transform="matrix(1 0 0 -1 0 842)" d="M421.2813 606.082L471.3394 606.082L471.3394 605.5859L421.2813 605.5859z" stroke="none" fill="#000000" fill-rule="nonzero" /><path id="131" transform="matrix(1 0 0 -1 0 842)" d="M421.2813 640.2803L421.7769 640.2803L421.7769 605.5859L421.2813 605.5859z" stroke="none" fill="#000000" fill-rule="nonzero" /><path id="132" transform="matrix(1 0 0 -1 0 842)" d="M470.8438 640.2803L471.3394 640.2803L471.3394 605.5859L470.8438 605.5859z" stroke="none" fill="#000000" fill-rule="nonzero" /><path id="133" transform="matrix(1 0 0 -1 0 842)" d="M470.8438 640.2803L545.1875 640.2803L545.1875 639.7842L470.8438 639.7842z" stroke="none" fill="#000000" fill-rule="nonzero" /><path id="134" transform="matrix(1 0 0 -1 0 842)" d="M470.8438 571.8838L545.1875 571.8838L545.1875 571.3877L470.8438 571.3877z" stroke="none" fill="#000000" fill-rule="nonzero" /><path id="135" transform="matrix(1 0 0 -1 0 842)" d="M470.8438 640.2803L471.3394 640.2803L471.3394 571.3877L470.8438 571.3877z" stroke="none" fill="#000000" fill-rule="nonzero" /><path id="136" transform="matrix(1 0 0 -1 0 842)" d="M544.6919 640.2803L545.1875 640.2803L545.1875 571.3877L544.6919 571.3877z" stroke="none" fill="#000000" fill-rule="nonzero" /><path id="137" transform="matrix(1 0 0 -1 0 842)" d="M123.9063 606.082L198.7456 606.082L198.7456 605.5859L123.9063 605.5859z" stroke="none" fill="#000000" fill-rule="nonzero" /><path id="138" transform="matrix(1 0 0 -1 0 842)" d="M123.9063 571.8838L198.7456 571.8838L198.7456 571.3877L123.9063 571.3877z" stroke="none" fill="#000000" fill-rule="nonzero" /><path id="139" transform="matrix(1 0 0 -1 0 842)" d="M123.9063 606.082L124.4019 606.082L124.4019 571.3877L123.9063 571.3877z" stroke="none" fill="#000000" fill-rule="nonzero" /><path id="140" transform="matrix(1 0 0 -1 0 842)" d="M198.25 606.082L198.7456 606.082L198.7456 571.3877L198.25 571.3877z" stroke="none" fill="#000000" fill-rule="nonzero" /><path id="141" transform="matrix(1 0 0 -1 0 842)" d="M198.25 606.082L248.3081 606.082L248.3081 605.5859L198.25 605.5859z" stroke="none" fill="#000000" fill-rule="nonzero" /><path id="142" transform="matrix(1 0 0 -1 0 842)" d="M198.25 571.8838L248.3081 571.8838L248.3081 571.3877L198.25 571.3877z" stroke="none" fill="#000000" fill-rule="nonzero" /><path id="143" transform="matrix(1 0 0 -1 0 842)" d="M198.25 606.082L198.7456 606.082L198.7456 571.3877L198.25 571.3877z" stroke="none" fill="#000000" fill-rule="nonzero" /><path id="144" transform="matrix(1 0 0 -1 0 842)" d="M247.8125 606.082L248.3081 606.082L248.3081 571.3877L247.8125 571.3877z" stroke="none" fill="#000000" fill-rule="nonzero" /><path id="145" transform="matrix(1 0 0 -1 0 842)" d="M247.8125 606.082L421.7769 606.082L421.7769 605.5859L247.8125 605.5859z" stroke="none" fill="#000000" fill-rule="nonzero" /><path id="146" transform="matrix(1 0 0 -1 0 842)" d="M247.8125 571.8838L421.7769 571.8838L421.7769 571.3877L247.8125 571.3877z" stroke="none" fill="#000000" fill-rule="nonzero" /><path id="147" transform="matrix(1 0 0 -1 0 842)" d="M247.8125 606.082L248.3081 606.082L248.3081 571.3877L247.8125 571.3877z" stroke="none" fill="#000000" fill-rule="nonzero" /><path id="148" transform="matrix(1 0 0 -1 0 842)" d="M421.2813 606.082L421.7769 606.082L421.7769 571.3877L421.2813 571.3877z" stroke="none" fill="#000000" fill-rule="nonzero" /><path id="149" transform="matrix(1 0 0 -1 0 842)" d="M421.2813 606.082L471.3394 606.082L471.3394 605.5859L421.2813 605.5859z" stroke="none" fill="#000000" fill-rule="nonzero" /><path id="150" transform="matrix(1 0 0 -1 0 842)" d="M421.2813 571.8838L471.3394 571.8838L471.3394 571.3877L421.2813 571.3877z" stroke="none" fill="#000000" fill-rule="nonzero" /><path id="151" transform="matrix(1 0 0 -1 0 842)" d="M421.2813 606.082L421.7769 606.082L421.7769 571.3877L421.2813 571.3877z" stroke="none" fill="#000000" fill-rule="nonzero" /><path id="152" transform="matrix(1 0 0 -1 0 842)" d="M470.8438 606.082L471.3394 606.082L471.3394 571.3877L470.8438 571.3877z" stroke="none" fill="#000000" fill-rule="nonzero" /><path id="153" transform="matrix(1 0 0 -1 0 842)" d="M49.5625 571.8838L74.83938 571.8838L74.83938 571.3877L49.5625 571.3877z" stroke="none" fill="#000000" fill-rule="nonzero" /><path id="154" transform="matrix(1 0 0 -1 0 842)" d="M49.5625 503.4873L74.83938 503.4873L74.83938 502.9922L49.5625 502.9922z" stroke="none" fill="#000000" fill-rule="nonzero" /><path id="155" transform="matrix(1 0 0 -1 0 842)" d="M49.5625 571.8838L50.05813 571.8838L50.05813 502.9922L49.5625 502.9922z" stroke="none" fill="#000000" fill-rule="nonzero" /><path id="156" transform="matrix(1 0 0 -1 0 842)" d="M74.34375 571.8838L74.83938 571.8838L74.83938 502.9922L74.34375 502.9922z" stroke="none" fill="#000000" fill-rule="nonzero" /><path id="157" transform="matrix(1 0 0 -1 0 842)" d="M74.34375 571.8838L124.4019 571.8838L124.4019 571.3877L74.34375 571.3877z" stroke="none" fill="#000000" fill-rule="nonzero" /><path id="158" transform="matrix(1 0 0 -1 0 842)" d="M74.34375 503.4873L124.4019 503.4873L124.4019 502.9922L74.34375 502.9922z" stroke="none" fill="#000000" fill-rule="nonzero" /><path id="159" transform="matrix(1 0 0 -1 0 842)" d="M74.34375 571.8838L74.83938 571.8838L74.83938 502.9922L74.34375 502.9922z" stroke="none" fill="#000000" fill-rule="nonzero" /><path id="160" transform="matrix(1 0 0 -1 0 842)" d="M123.9063 571.8838L124.4019 571.8838L124.4019 502.9922L123.9063 502.9922z" stroke="none" fill="#000000" fill-rule="nonzero" /><path id="161" transform="matrix(1 0 0 -1 0 842)" d="M123.9063 571.8838L198.7456 571.8838L198.7456 571.3877L123.9063 571.3877z" stroke="none" fill="#000000" fill-rule="nonzero" /><path id="162" transform="matrix(1 0 0 -1 0 842)" d="M123.9063 537.6855L198.7456 537.6855L198.7456 537.1895L123.9063 537.1895z" stroke="none" fill="#000000" fill-rule="nonzero" /><path id="163" transform="matrix(1 0 0 -1 0 842)" d="M123.9063 571.8838L124.4019 571.8838L124.4019 537.1895L123.9063 537.1895z" stroke="none" fill="#000000" fill-rule="nonzero" /><path id="164" transform="matrix(1 0 0 -1 0 842)" d="M198.25 571.8838L198.7456 571.8838L198.7456 537.1895L198.25 537.1895z" stroke="none" fill="#000000" fill-rule="nonzero" /><path id="165" transform="matrix(1 0 0 -1 0 842)" d="M198.25 571.8838L248.3081 571.8838L248.3081 571.3877L198.25 571.3877z" stroke="none" fill="#000000" fill-rule="nonzero" /><path id="166" transform="matrix(1 0 0 -1 0 842)" d="M198.25 537.6855L248.3081 537.6855L248.3081 537.1895L198.25 537.1895z" stroke="none" fill="#000000" fill-rule="nonzero" /><path id="167" transform="matrix(1 0 0 -1 0 842)" d="M198.25 571.8838L198.7456 571.8838L198.7456 537.1895L198.25 537.1895z" stroke="none" fill="#000000" fill-rule="nonzero" /><path id="168" transform="matrix(1 0 0 -1 0 842)" d="M247.8125 571.8838L248.3081 571.8838L248.3081 537.1895L247.8125 537.1895z" stroke="none" fill="#000000" fill-rule="nonzero" /><path id="169" transform="matrix(1 0 0 -1 0 842)" d="M247.8125 571.8838L421.7769 571.8838L421.7769 571.3877L247.8125 571.3877z" stroke="none" fill="#000000" fill-rule="nonzero" /><path id="170" transform="matrix(1 0 0 -1 0 842)" d="M247.8125 537.6855L421.7769 537.6855L421.7769 537.1895L247.8125 537.1895z" stroke="none" fill="#000000" fill-rule="nonzero" /><path id="171" transform="matrix(1 0 0 -1 0 842)" d="M247.8125 571.8838L248.3081 571.8838L248.3081 537.1895L247.8125 537.1895z" stroke="none" fill="#000000" fill-rule="nonzero" /><path id="172" transform="matrix(1 0 0 -1 0 842)" d="M421.2813 571.8838L421.7769 571.8838L421.7769 537.1895L421.2813 537.1895z" stroke="none" fill="#000000" fill-rule="nonzero" /><path id="173" transform="matrix(1 0 0 -1 0 842)" d="M421.2813 571.8838L471.3394 571.8838L471.3394 571.3877L421.2813 571.3877z" stroke="none" fill="#000000" fill-rule="nonzero" /><path id="174" transform="matrix(1 0 0 -1 0 842)" d="M421.2813 537.6855L471.3394 537.6855L471.3394 537.1895L421.2813 537.1895z" stroke="none" fill="#000000" fill-rule="nonzero" /><path id="175" transform="matrix(1 0 0 -1 0 842)" d="M421.2813 571.8838L421.7769 571.8838L421.7769 537.1895L421.2813 537.1895z" stroke="none" fill="#000000" fill-rule="nonzero" /><path id="176" transform="matrix(1 0 0 -1 0 842)" d="M470.8438 571.8838L471.3394 571.8838L471.3394 537.1895L470.8438 537.1895z" stroke="none" fill="#000000" fill-rule="nonzero" /><path id="177" transform="matrix(1 0 0 -1 0 842)" d="M470.8438 571.8838L545.1875 571.8838L545.1875 571.3877L470.8438 571.3877z" stroke="none" fill="#000000" fill-rule="nonzero" /><path id="178" transform="matrix(1 0 0 -1 0 842)" d="M470.8438 503.4873L545.1875 503.4873L545.1875 502.9922L470.8438 502.9922z" stroke="none" fill="#000000" fill-rule="nonzero" /><path id="179" transform="matrix(1 0 0 -1 0 842)" d="M470.8438 571.8838L471.3394 571.8838L471.3394 502.9922L470.8438 502.9922z" stroke="none" fill="#000000" fill-rule="nonzero" /><path id="180" transform="matrix(1 0 0 -1 0 842)" d="M544.6919 571.8838L545.1875 571.8838L545.1875 502.9922L544.6919 502.9922z" stroke="none" fill="#000000" fill-rule="nonzero" /><path id="181" transform="matrix(1 0 0 -1 0 842)" d="M123.9063 537.6855L198.7456 537.6855L198.7456 537.1895L123.9063 537.1895z" stroke="none" fill="#000000" fill-rule="nonzero" /><path id="182" transform="matrix(1 0 0 -1 0 842)" d="M123.9063 503.4873L198.7456 503.4873L198.7456 502.9922L123.9063 502.9922z" stroke="none" fill="#000000" fill-rule="nonzero" /><path id="183" transform="matrix(1 0 0 -1 0 842)" d="M123.9063 537.6855L124.4019 537.6855L124.4019 502.9922L123.9063 502.9922z" stroke="none" fill="#000000" fill-rule="nonzero" /><path id="184" transform="matrix(1 0 0 -1 0 842)" d="M198.25 537.6855L198.7456 537.6855L198.7456 502.9922L198.25 502.9922z" stroke="none" fill="#000000" fill-rule="nonzero" /><path id="185" transform="matrix(1 0 0 -1 0 842)" d="M198.25 537.6855L248.3081 537.6855L248.3081 537.1895L198.25 537.1895z" stroke="none" fill="#000000" fill-rule="nonzero" /><path id="186" transform="matrix(1 0 0 -1 0 842)" d="M198.25 503.4873L248.3081 503.4873L248.3081 502.9922L198.25 502.9922z" stroke="none" fill="#000000" fill-rule="nonzero" /><path id="187" transform="matrix(1 0 0 -1 0 842)" d="M198.25 537.6855L198.7456 537.6855L198.7456 502.9922L198.25 502.9922z" stroke="none" fill="#000000" fill-rule="nonzero" /><path id="188" transform="matrix(1 0 0 -1 0 842)" d="M247.8125 537.6855L248.3081 537.6855L248.3081 502.9922L247.8125 502.9922z" stroke="none" fill="#000000" fill-rule="nonzero" /><path id="189" transform="matrix(1 0 0 -1 0 842)" d="M247.8125 537.6855L421.7769 537.6855L421.7769 537.1895L247.8125 537.1895z" stroke="none" fill="#000000" fill-rule="nonzero" /><path id="190" transform="matrix(1 0 0 -1 0 842)" d="M247.8125 503.4873L421.7769 503.4873L421.7769 502.9922L247.8125 502.9922z" stroke="none" fill="#000000" fill-rule="nonzero" /><path id="191" transform="matrix(1 0 0 -1 0 842)" d="M247.8125 537.6855L248.3081 537.6855L248.3081 502.9922L247.8125 502.9922z" stroke="none" fill="#000000" fill-rule="nonzero" /><path id="192" transform="matrix(1 0 0 -1 0 842)" d="M421.2813 537.6855L421.7769 537.6855L421.7769 502.9922L421.2813 502.9922z" stroke="none" fill="#000000" fill-rule="nonzero" /><path id="193" transform="matrix(1 0 0 -1 0 842)" d="M421.2813 537.6855L471.3394 537.6855L471.3394 537.1895L421.2813 537.1895z" stroke="none" fill="#000000" fill-rule="nonzero" /><path id="194" transform="matrix(1 0 0 -1 0 842)" d="M421.2813 503.4873L471.3394 503.4873L471.3394 502.9922L421.2813 502.9922z" stroke="none" fill="#000000" fill-rule="nonzero" /><path id="195" transform="matrix(1 0 0 -1 0 842)" d="M421.2813 537.6855L421.7769 537.6855L421.7769 502.9922L421.2813 502.9922z" stroke="none" fill="#000000" fill-rule="nonzero" /><path id="196" transform="matrix(1 0 0 -1 0 842)" d="M470.8438 537.6855L471.3394 537.6855L471.3394 502.9922L470.8438 502.9922z" stroke="none" fill="#000000" fill-rule="nonzero" /><path id="197" transform="matrix(1 0 0 -1 0 842)" d="M49.5625 503.4873L74.83938 503.4873L74.83938 502.9922L49.5625 502.9922z" stroke="none" fill="#000000" fill-rule="nonzero" /><path id="198" transform="matrix(1 0 0 -1 0 842)" d="M49.5625 435.0908L74.83938 435.0908L74.83938 434.5957L49.5625 434.5957z" stroke="none" fill="#000000" fill-rule="nonzero" /><path id="199" transform="matrix(1 0 0 -1 0 842)" d="M49.5625 503.4873L50.05813 503.4873L50.05813 434.5957L49.5625 434.5957z" stroke="none" fill="#000000" fill-rule="nonzero" /><path id="200" transform="matrix(1 0 0 -1 0 842)" d="M74.34375 503.4873L74.83938 503.4873L74.83938 434.5957L74.34375 434.5957z" stroke="none" fill="#000000" fill-rule="nonzero" /><path id="201" transform="matrix(1 0 0 -1 0 842)" d="M74.34375 503.4873L124.4019 503.4873L124.4019 502.9922L74.34375 502.9922z" stroke="none" fill="#000000" fill-rule="nonzero" /><path id="202" transform="matrix(1 0 0 -1 0 842)" d="M74.34375 435.0908L124.4019 435.0908L124.4019 434.5957L74.34375 434.5957z" stroke="none" fill="#000000" fill-rule="nonzero" /><path id="203" transform="matrix(1 0 0 -1 0 842)" d="M74.34375 503.4873L74.83938 503.4873L74.83938 434.5957L74.34375 434.5957z" stroke="none" fill="#000000" fill-rule="nonzero" /><path id="204" transform="matrix(1 0 0 -1 0 842)" d="M123.9063 503.4873L124.4019 503.4873L124.4019 434.5957L123.9063 434.5957z" stroke="none" fill="#000000" fill-rule="nonzero" /><path id="205" transform="matrix(1 0 0 -1 0 842)" d="M123.9063 503.4873L198.7456 503.4873L198.7456 502.9922L123.9063 502.9922z" stroke="none" fill="#000000" fill-rule="nonzero" /><path id="206" transform="matrix(1 0 0 -1 0 842)" d="M123.9063 469.2891L198.7456 469.2891L198.7456 468.7939L123.9063 468.7939z" stroke="none" fill="#000000" fill-rule="nonzero" /><path id="207" transform="matrix(1 0 0 -1 0 842)" d="M123.9063 503.4873L124.4019 503.4873L124.4019 468.7939L123.9063 468.7939z" stroke="none" fill="#000000" fill-rule="nonzero" /><path id="208" transform="matrix(1 0 0 -1 0 842)" d="M198.25 503.4873L198.7456 503.4873L198.7456 468.7939L198.25 468.7939z" stroke="none" fill="#000000" fill-rule="nonzero" /><path id="209" transform="matrix(1 0 0 -1 0 842)" d="M198.25 503.4873L248.3081 503.4873L248.3081 502.9922L198.25 502.9922z" stroke="none" fill="#000000" fill-rule="nonzero" /><path id="210" transform="matrix(1 0 0 -1 0 842)" d="M198.25 469.2891L248.3081 469.2891L248.3081 468.7939L198.25 468.7939z" stroke="none" fill="#000000" fill-rule="nonzero" /><path id="211" transform="matrix(1 0 0 -1 0 842)" d="M198.25 503.4873L198.7456 503.4873L198.7456 468.7939L198.25 468.7939z" stroke="none" fill="#000000" fill-rule="nonzero" /><path id="212" transform="matrix(1 0 0 -1 0 842)" d="M247.8125 503.4873L248.3081 503.4873L248.3081 468.7939L247.8125 468.7939z" stroke="none" fill="#000000" fill-rule="nonzero" /><path id="213" transform="matrix(1 0 0 -1 0 842)" d="M247.8125 503.4873L421.7769 503.4873L421.7769 502.9922L247.8125 502.9922z" stroke="none" fill="#000000" fill-rule="nonzero" /><path id="214" transform="matrix(1 0 0 -1 0 842)" d="M247.8125 469.2891L421.7769 469.2891L421.7769 468.7939L247.8125 468.7939z" stroke="none" fill="#000000" fill-rule="nonzero" /><path id="215" transform="matrix(1 0 0 -1 0 842)" d="M247.8125 503.4873L248.3081 503.4873L248.3081 468.7939L247.8125 468.7939z" stroke="none" fill="#000000" fill-rule="nonzero" /><path id="216" transform="matrix(1 0 0 -1 0 842)" d="M421.2813 503.4873L421.7769 503.4873L421.7769 468.7939L421.2813 468.7939z" stroke="none" fill="#000000" fill-rule="nonzero" /><path id="217" transform="matrix(1 0 0 -1 0 842)" d="M421.2813 503.4873L471.3394 503.4873L471.3394 502.9922L421.2813 502.9922z" stroke="none" fill="#000000" fill-rule="nonzero" /><path id="218" transform="matrix(1 0 0 -1 0 842)" d="M421.2813 469.2891L471.3394 469.2891L471.3394 468.7939L421.2813 468.7939z" stroke="none" fill="#000000" fill-rule="nonzero" /><path id="219" transform="matrix(1 0 0 -1 0 842)" d="M421.2813 503.4873L421.7769 503.4873L421.7769 468.7939L421.2813 468.7939z" stroke="none" fill="#000000" fill-rule="nonzero" /><path id="220" transform="matrix(1 0 0 -1 0 842)" d="M470.8438 503.4873L471.3394 503.4873L471.3394 468.7939L470.8438 468.7939z" stroke="none" fill="#000000" fill-rule="nonzero" /><path id="221" transform="matrix(1 0 0 -1 0 842)" d="M470.8438 503.4873L545.1875 503.4873L545.1875 502.9922L470.8438 502.9922z" stroke="none" fill="#000000" fill-rule="nonzero" /><path id="222" transform="matrix(1 0 0 -1 0 842)" d="M470.8438 435.0908L545.1875 435.0908L545.1875 434.5957L470.8438 434.5957z" stroke="none" fill="#000000" fill-rule="nonzero" /><path id="223" transform="matrix(1 0 0 -1 0 842)" d="M470.8438 503.4873L471.3394 503.4873L471.3394 434.5957L470.8438 434.5957z" stroke="none" fill="#000000" fill-rule="nonzero" /><path id="224" transform="matrix(1 0 0 -1 0 842)" d="M544.6919 503.4873L545.1875 503.4873L545.1875 434.5957L544.6919 434.5957z" stroke="none" fill="#000000" fill-rule="nonzero" /><path id="225" transform="matrix(1 0 0 -1 0 842)" d="M123.9063 469.2891L198.7456 469.2891L198.7456 468.7939L123.9063 468.7939z" stroke="none" fill="#000000" fill-rule="nonzero" /><path id="226" transform="matrix(1 0 0 -1 0 842)" d="M123.9063 435.0908L198.7456 435.0908L198.7456 434.5957L123.9063 434.5957z" stroke="none" fill="#000000" fill-rule="nonzero" /><path id="227" transform="matrix(1 0 0 -1 0 842)" d="M123.9063 469.2891L124.4019 469.2891L124.4019 434.5957L123.9063 434.5957z" stroke="none" fill="#000000" fill-rule="nonzero" /><path id="228" transform="matrix(1 0 0 -1 0 842)" d="M198.25 469.2891L198.7456 469.2891L198.7456 434.5957L198.25 434.5957z" stroke="none" fill="#000000" fill-rule="nonzero" /><path id="229" transform="matrix(1 0 0 -1 0 842)" d="M198.25 469.2891L248.3081 469.2891L248.3081 468.7939L198.25 468.7939z" stroke="none" fill="#000000" fill-rule="nonzero" /><path id="230" transform="matrix(1 0 0 -1 0 842)" d="M198.25 435.0908L248.3081 435.0908L248.3081 434.5957L198.25 434.5957z" stroke="none" fill="#000000" fill-rule="nonzero" /><path id="231" transform="matrix(1 0 0 -1 0 842)" d="M198.25 469.2891L198.7456 469.2891L198.7456 434.5957L198.25 434.5957z" stroke="none" fill="#000000" fill-rule="nonzero" /><path id="232" transform="matrix(1 0 0 -1 0 842)" d="M247.8125 469.2891L248.3081 469.2891L248.3081 434.5957L247.8125 434.5957z" stroke="none" fill="#000000" fill-rule="nonzero" /><path id="233" transform="matrix(1 0 0 -1 0 842)" d="M247.8125 469.2891L421.7769 469.2891L421.7769 468.7939L247.8125 468.7939z" stroke="none" fill="#000000" fill-rule="nonzero" /><path id="234" transform="matrix(1 0 0 -1 0 842)" d="M247.8125 435.0908L421.7769 435.0908L421.7769 434.5957L247.8125 434.5957z" stroke="none" fill="#000000" fill-rule="nonzero" /><path id="235" transform="matrix(1 0 0 -1 0 842)" d="M247.8125 469.2891L248.3081 469.2891L248.3081 434.5957L247.8125 434.5957z" stroke="none" fill="#000000" fill-rule="nonzero" /><path id="236" transform="matrix(1 0 0 -1 0 842)" d="M421.2813 469.2891L421.7769 469.2891L421.7769 434.5957L421.2813 434.5957z" stroke="none" fill="#000000" fill-rule="nonzero" /><path id="237" transform="matrix(1 0 0 -1 0 842)" d="M421.2813 469.2891L471.3394 469.2891L471.3394 468.7939L421.2813 468.7939z" stroke="none" fill="#000000" fill-rule="nonzero" /><path id="238" transform="matrix(1 0 0 -1 0 842)" d="M421.2813 435.0908L471.3394 435.0908L471.3394 434.5957L421.2813 434.5957z" stroke="none" fill="#000000" fill-rule="nonzero" /><path id="239" transform="matrix(1 0 0 -1 0 842)" d="M421.2813 469.2891L421.7769 469.2891L421.7769 434.5957L421.2813 434.5957z" stroke="none" fill="#000000" fill-rule="nonzero" /><path id="240" transform="matrix(1 0 0 -1 0 842)" d="M470.8438 469.2891L471.3394 469.2891L471.3394 434.5957L470.8438 434.5957z" stroke="none" fill="#000000" fill-rule="nonzero" /><path id="241" transform="matrix(1 0 0 -1 0 842)" d="M49.5625 435.0908L74.83938 435.0908L74.83938 434.5957L49.5625 434.5957z" stroke="none" fill="#000000" fill-rule="nonzero" /><path id="242" transform="matrix(1 0 0 -1 0 842)" d="M49.5625 340.9229L74.83938 340.9229L74.83938 340.4268L49.5625 340.4268z" stroke="none" fill="#000000" fill-rule="nonzero" /><path id="243" transform="matrix(1 0 0 -1 0 842)" d="M49.5625 435.0908L50.05813 435.0908L50.05813 340.4268L49.5625 340.4268z" stroke="none" fill="#000000" fill-rule="nonzero" /><path id="244" transform="matrix(1 0 0 -1 0 842)" d="M74.34375 435.0908L74.83938 435.0908L74.83938 340.4268L74.34375 340.4268z" stroke="none" fill="#000000" fill-rule="nonzero" /><path id="245" transform="matrix(1 0 0 -1 0 842)" d="M74.34375 435.0908L124.4019 435.0908L124.4019 434.5957L74.34375 434.5957z" stroke="none" fill="#000000" fill-rule="nonzero" /><path id="246" transform="matrix(1 0 0 -1 0 842)" d="M74.34375 340.9229L124.4019 340.9229L124.4019 340.4268L74.34375 340.4268z" stroke="none" fill="#000000" fill-rule="nonzero" /><path id="247" transform="matrix(1 0 0 -1 0 842)" d="M74.34375 435.0908L74.83938 435.0908L74.83938 340.4268L74.34375 340.4268z" stroke="none" fill="#000000" fill-rule="nonzero" /><path id="248" transform="matrix(1 0 0 -1 0 842)" d="M123.9063 435.0908L124.4019 435.0908L124.4019 340.4268L123.9063 340.4268z" stroke="none" fill="#000000" fill-rule="nonzero" /><path id="249" transform="matrix(1 0 0 -1 0 842)" d="M123.9063 435.0908L198.7456 435.0908L198.7456 434.5957L123.9063 434.5957z" stroke="none" fill="#000000" fill-rule="nonzero" /><path id="250" transform="matrix(1 0 0 -1 0 842)" d="M123.9063 409.3184L198.7456 409.3184L198.7456 408.8232L123.9063 408.8232z" stroke="none" fill="#000000" fill-rule="nonzero" /><path id="251" transform="matrix(1 0 0 -1 0 842)" d="M123.9063 435.0908L124.4019 435.0908L124.4019 408.8232L123.9063 408.8232z" stroke="none" fill="#000000" fill-rule="nonzero" /><path id="252" transform="matrix(1 0 0 -1 0 842)" d="M198.25 435.0908L198.7456 435.0908L198.7456 408.8232L198.25 408.8232z" stroke="none" fill="#000000" fill-rule="nonzero" /><path id="253" transform="matrix(1 0 0 -1 0 842)" d="M198.25 435.0908L248.3081 435.0908L248.3081 434.5957L198.25 434.5957z" stroke="none" fill="#000000" fill-rule="nonzero" /><path id="254" transform="matrix(1 0 0 -1 0 842)" d="M198.25 409.3184L248.3081 409.3184L248.3081 408.8232L198.25 408.8232z" stroke="none" fill="#000000" fill-rule="nonzero" /><path id="255" transform="matrix(1 0 0 -1 0 842)" d="M198.25 435.0908L198.7456 435.0908L198.7456 408.8232L198.25 408.8232z" stroke="none" fill="#000000" fill-rule="nonzero" /><path id="256" transform="matrix(1 0 0 -1 0 842)" d="M247.8125 435.0908L248.3081 435.0908L248.3081 408.8232L247.8125 408.8232z" stroke="none" fill="#000000" fill-rule="nonzero" /><path id="257" transform="matrix(1 0 0 -1 0 842)" d="M247.8125 435.0908L421.7769 435.0908L421.7769 434.5957L247.8125 434.5957z" stroke="none" fill="#000000" fill-rule="nonzero" /><path id="258" transform="matrix(1 0 0 -1 0 842)" d="M247.8125 409.3184L421.7769 409.3184L421.7769 408.8232L247.8125 408.8232z" stroke="none" fill="#000000" fill-rule="nonzero" /><path id="259" transform="matrix(1 0 0 -1 0 842)" d="M247.8125 435.0908L248.3081 435.0908L248.3081 408.8232L247.8125 408.8232z" stroke="none" fill="#000000" fill-rule="nonzero" /><path id="260" transform="matrix(1 0 0 -1 0 842)" d="M421.2813 435.0908L421.7769 435.0908L421.7769 408.8232L421.2813 408.8232z" stroke="none" fill="#000000" fill-rule="nonzero" /><path id="261" transform="matrix(1 0 0 -1 0 842)" d="M421.2813 435.0908L471.3394 435.0908L471.3394 434.5957L421.2813 434.5957z" stroke="none" fill="#000000" fill-rule="nonzero" /><path id="262" transform="matrix(1 0 0 -1 0 842)" d="M421.2813 409.3184L471.3394 409.3184L471.3394 408.8232L421.2813 408.8232z" stroke="none" fill="#000000" fill-rule="nonzero" /><path id="263" transform="matrix(1 0 0 -1 0 842)" d="M421.2813 435.0908L421.7769 435.0908L421.7769 408.8232L421.2813 408.8232z" stroke="none" fill="#000000" fill-rule="nonzero" /><path id="264" transform="matrix(1 0 0 -1 0 842)" d="M470.8438 435.0908L471.3394 435.0908L471.3394 408.8232L470.8438 408.8232z" stroke="none" fill="#000000" fill-rule="nonzero" /><path id="265" transform="matrix(1 0 0 -1 0 842)" d="M470.8438 435.0908L545.1875 435.0908L545.1875 434.5957L470.8438 434.5957z" stroke="none" fill="#000000" fill-rule="nonzero" /><path id="266" transform="matrix(1 0 0 -1 0 842)" d="M470.8438 340.9229L545.1875 340.9229L545.1875 340.4268L470.8438 340.4268z" stroke="none" fill="#000000" fill-rule="nonzero" /><path id="267" transform="matrix(1 0 0 -1 0 842)" d="M470.8438 435.0908L471.3394 435.0908L471.3394 340.4268L470.8438 340.4268z" stroke="none" fill="#000000" fill-rule="nonzero" /><path id="268" transform="matrix(1 0 0 -1 0 842)" d="M544.6919 435.0908L545.1875 435.0908L545.1875 340.4268L544.6919 340.4268z" stroke="none" fill="#000000" fill-rule="nonzero" /><path id="269" transform="matrix(1 0 0 -1 0 842)" d="M123.9063 409.3184L198.7456 409.3184L198.7456 408.8232L123.9063 408.8232z" stroke="none" fill="#000000" fill-rule="nonzero" /><path id="270" transform="matrix(1 0 0 -1 0 842)" d="M123.9063 375.1201L198.7456 375.1201L198.7456 374.625L123.9063 374.625z" stroke="none" fill="#000000" fill-rule="nonzero" /><path id="271" transform="matrix(1 0 0 -1 0 842)" d="M123.9063 409.3184L124.4019 409.3184L124.4019 374.625L123.9063 374.625z" stroke="none" fill="#000000" fill-rule="nonzero" /><path id="272" transform="matrix(1 0 0 -1 0 842)" d="M198.25 409.3184L198.7456 409.3184L198.7456 374.625L198.25 374.625z" stroke="none" fill="#000000" fill-rule="nonzero" /><path id="273" transform="matrix(1 0 0 -1 0 842)" d="M198.25 409.3184L248.3081 409.3184L248.3081 408.8232L198.25 408.8232z" stroke="none" fill="#000000" fill-rule="nonzero" /><path id="274" transform="matrix(1 0 0 -1 0 842)" d="M198.25 375.1201L248.3081 375.1201L248.3081 374.625L198.25 374.625z" stroke="none" fill="#000000" fill-rule="nonzero" /><path id="275" transform="matrix(1 0 0 -1 0 842)" d="M198.25 409.3184L198.7456 409.3184L198.7456 374.625L198.25 374.625z" stroke="none" fill="#000000" fill-rule="nonzero" /><path id="276" transform="matrix(1 0 0 -1 0 842)" d="M247.8125 409.3184L248.3081 409.3184L248.3081 374.625L247.8125 374.625z" stroke="none" fill="#000000" fill-rule="nonzero" /><path id="277" transform="matrix(1 0 0 -1 0 842)" d="M247.8125 409.3184L421.7769 409.3184L421.7769 408.8232L247.8125 408.8232z" stroke="none" fill="#000000" fill-rule="nonzero" /><path id="278" transform="matrix(1 0 0 -1 0 842)" d="M247.8125 375.1201L421.7769 375.1201L421.7769 374.625L247.8125 374.625z" stroke="none" fill="#000000" fill-rule="nonzero" /><path id="279" transform="matrix(1 0 0 -1 0 842)" d="M247.8125 409.3184L248.3081 409.3184L248.3081 374.625L247.8125 374.625z" stroke="none" fill="#000000" fill-rule="nonzero" /><path id="280" transform="matrix(1 0 0 -1 0 842)" d="M421.2813 409.3184L421.7769 409.3184L421.7769 374.625L421.2813 374.625z" stroke="none" fill="#000000" fill-rule="nonzero" /><path id="281" transform="matrix(1 0 0 -1 0 842)" d="M421.2813 409.3184L471.3394 409.3184L471.3394 408.8232L421.2813 408.8232z" stroke="none" fill="#000000" fill-rule="nonzero" /><path id="282" transform="matrix(1 0 0 -1 0 842)" d="M421.2813 375.1201L471.3394 375.1201L471.3394 374.625L421.2813 374.625z" stroke="none" fill="#000000" fill-rule="nonzero" /><path id="283" transform="matrix(1 0 0 -1 0 842)" d="M421.2813 409.3184L421.7769 409.3184L421.7769 374.625L421.2813 374.625z" stroke="none" fill="#000000" fill-rule="nonzero" /><path id="284" transform="matrix(1 0 0 -1 0 842)" d="M470.8438 409.3184L471.3394 409.3184L471.3394 374.625L470.8438 374.625z" stroke="none" fill="#000000" fill-rule="nonzero" /><path id="285" transform="matrix(1 0 0 -1 0 842)" d="M123.9063 375.1201L198.7456 375.1201L198.7456 374.625L123.9063 374.625z" stroke="none" fill="#000000" fill-rule="nonzero" /><path id="286" transform="matrix(1 0 0 -1 0 842)" d="M123.9063 340.9229L198.7456 340.9229L198.7456 340.4268L123.9063 340.4268z" stroke="none" fill="#000000" fill-rule="nonzero" /><path id="287" transform="matrix(1 0 0 -1 0 842)" d="M123.9063 375.1201L124.4019 375.1201L124.4019 340.4268L123.9063 340.4268z" stroke="none" fill="#000000" fill-rule="nonzero" /><path id="288" transform="matrix(1 0 0 -1 0 842)" d="M198.25 375.1201L198.7456 375.1201L198.7456 340.4268L198.25 340.4268z" stroke="none" fill="#000000" fill-rule="nonzero" /><path id="289" transform="matrix(1 0 0 -1 0 842)" d="M198.25 375.1201L248.3081 375.1201L248.3081 374.625L198.25 374.625z" stroke="none" fill="#000000" fill-rule="nonzero" /><path id="290" transform="matrix(1 0 0 -1 0 842)" d="M198.25 340.9229L248.3081 340.9229L248.3081 340.4268L198.25 340.4268z" stroke="none" fill="#000000" fill-rule="nonzero" /><path id="291" transform="matrix(1 0 0 -1 0 842)" d="M198.25 375.1201L198.7456 375.1201L198.7456 340.4268L198.25 340.4268z" stroke="none" fill="#000000" fill-rule="nonzero" /><path id="292" transform="matrix(1 0 0 -1 0 842)" d="M247.8125 375.1201L248.3081 375.1201L248.3081 340.4268L247.8125 340.4268z" stroke="none" fill="#000000" fill-rule="nonzero" /><path id="293" transform="matrix(1 0 0 -1 0 842)" d="M247.8125 375.1201L421.7769 375.1201L421.7769 374.625L247.8125 374.625z" stroke="none" fill="#000000" fill-rule="nonzero" /><path id="294" transform="matrix(1 0 0 -1 0 842)" d="M247.8125 340.9229L421.7769 340.9229L421.7769 340.4268L247.8125 340.4268z" stroke="none" fill="#000000" fill-rule="nonzero" /><path id="295" transform="matrix(1 0 0 -1 0 842)" d="M247.8125 375.1201L248.3081 375.1201L248.3081 340.4268L247.8125 340.4268z" stroke="none" fill="#000000" fill-rule="nonzero" /><path id="296" transform="matrix(1 0 0 -1 0 842)" d="M421.2813 375.1201L421.7769 375.1201L421.7769 340.4268L421.2813 340.4268z" stroke="none" fill="#000000" fill-rule="nonzero" /><path id="297" transform="matrix(1 0 0 -1 0 842)" d="M421.2813 375.1201L471.3394 375.1201L471.3394 374.625L421.2813 374.625z" stroke="none" fill="#000000" fill-rule="nonzero" /><path id="298" transform="matrix(1 0 0 -1 0 842)" d="M421.2813 340.9229L471.3394 340.9229L471.3394 340.4268L421.2813 340.4268z" stroke="none" fill="#000000" fill-rule="nonzero" /><path id="299" transform="matrix(1 0 0 -1 0 842)" d="M421.2813 375.1201L421.7769 375.1201L421.7769 340.4268L421.2813 340.4268z" stroke="none" fill="#000000" fill-rule="nonzero" /><path id="300" transform="matrix(1 0 0 -1 0 842)" d="M470.8438 375.1201L471.3394 375.1201L471.3394 340.4268L470.8438 340.4268z" stroke="none" fill="#000000" fill-rule="nonzero" /><path id="301" transform="matrix(1 0 0 -1 0 842)" d="M49.5625 340.9229L74.83938 340.9229L74.83938 340.4268L49.5625 340.4268z" stroke="none" fill="#000000" fill-rule="nonzero" /><path id="302" transform="matrix(1 0 0 -1 0 842)" d="M49.5625 306.7246L74.83938 306.7246L74.83938 306.2285L49.5625 306.2285z" stroke="none" fill="#000000" fill-rule="nonzero" /><path id="303" transform="matrix(1 0 0 -1 0 842)" d="M49.5625 340.9229L50.05813 340.9229L50.05813 306.2285L49.5625 306.2285z" stroke="none" fill="#000000" fill-rule="nonzero" /><path id="304" transform="matrix(1 0 0 -1 0 842)" d="M74.34375 340.9229L74.83938 340.9229L74.83938 306.2285L74.34375 306.2285z" stroke="none" fill="#000000" fill-rule="nonzero" /><path id="305" transform="matrix(1 0 0 -1 0 842)" d="M74.34375 340.9229L124.4019 340.9229L124.4019 340.4268L74.34375 340.4268z" stroke="none" fill="#000000" fill-rule="nonzero" /><path id="306" transform="matrix(1 0 0 -1 0 842)" d="M74.34375 306.7246L124.4019 306.7246L124.4019 306.2285L74.34375 306.2285z" stroke="none" fill="#000000" fill-rule="nonzero" /><path id="307" transform="matrix(1 0 0 -1 0 842)" d="M74.34375 340.9229L74.83938 340.9229L74.83938 306.2285L74.34375 306.2285z" stroke="none" fill="#000000" fill-rule="nonzero" /><path id="308" transform="matrix(1 0 0 -1 0 842)" d="M123.9063 340.9229L124.4019 340.9229L124.4019 306.2285L123.9063 306.2285z" stroke="none" fill="#000000" fill-rule="nonzero" /><path id="309" transform="matrix(1 0 0 -1 0 842)" d="M123.9063 340.9229L198.7456 340.9229L198.7456 340.4268L123.9063 340.4268z" stroke="none" fill="#000000" fill-rule="nonzero" /><path id="310" transform="matrix(1 0 0 -1 0 842)" d="M123.9063 306.7246L198.7456 306.7246L198.7456 306.2285L123.9063 306.2285z" stroke="none" fill="#000000" fill-rule="nonzero" /><path id="311" transform="matrix(1 0 0 -1 0 842)" d="M123.9063 340.9229L124.4019 340.9229L124.4019 306.2285L123.9063 306.2285z" stroke="none" fill="#000000" fill-rule="nonzero" /><path id="312" transform="matrix(1 0 0 -1 0 842)" d="M198.25 340.9229L198.7456 340.9229L198.7456 306.2285L198.25 306.2285z" stroke="none" fill="#000000" fill-rule="nonzero" /><path id="313" transform="matrix(1 0 0 -1 0 842)" d="M198.25 340.9229L248.3081 340.9229L248.3081 340.4268L198.25 340.4268z" stroke="none" fill="#000000" fill-rule="nonzero" /><path id="314" transform="matrix(1 0 0 -1 0 842)" d="M198.25 306.7246L248.3081 306.7246L248.3081 306.2285L198.25 306.2285z" stroke="none" fill="#000000" fill-rule="nonzero" /><path id="315" transform="matrix(1 0 0 -1 0 842)" d="M198.25 340.9229L198.7456 340.9229L198.7456 306.2285L198.25 306.2285z" stroke="none" fill="#000000" fill-rule="nonzero" /><path id="316" transform="matrix(1 0 0 -1 0 842)" d="M247.8125 340.9229L248.3081 340.9229L248.3081 306.2285L247.8125 306.2285z" stroke="none" fill="#000000" fill-rule="nonzero" /><path id="317" transform="matrix(1 0 0 -1 0 842)" d="M247.8125 340.9229L421.7769 340.9229L421.7769 340.4268L247.8125 340.4268z" stroke="none" fill="#000000" fill-rule="nonzero" /><path id="318" transform="matrix(1 0 0 -1 0 842)" d="M247.8125 306.7246L421.7769 306.7246L421.7769 306.2285L247.8125 306.2285z" stroke="none" fill="#000000" fill-rule="nonzero" /><path id="319" transform="matrix(1 0 0 -1 0 842)" d="M247.8125 340.9229L248.3081 340.9229L248.3081 306.2285L247.8125 306.2285z" stroke="none" fill="#000000" fill-rule="nonzero" /><path id="320" transform="matrix(1 0 0 -1 0 842)" d="M421.2813 340.9229L421.7769 340.9229L421.7769 306.2285L421.2813 306.2285z" stroke="none" fill="#000000" fill-rule="nonzero" /><path id="321" transform="matrix(1 0 0 -1 0 842)" d="M421.2813 340.9229L471.3394 340.9229L471.3394 340.4268L421.2813 340.4268z" stroke="none" fill="#000000" fill-rule="nonzero" /><path id="322" transform="matrix(1 0 0 -1 0 842)" d="M421.2813 306.7246L471.3394 306.7246L471.3394 306.2285L421.2813 306.2285z" stroke="none" fill="#000000" fill-rule="nonzero" /><path id="323" transform="matrix(1 0 0 -1 0 842)" d="M421.2813 340.9229L421.7769 340.9229L421.7769 306.2285L421.2813 306.2285z" stroke="none" fill="#000000" fill-rule="nonzero" /><path id="324" transform="matrix(1 0 0 -1 0 842)" d="M470.8438 340.9229L471.3394 340.9229L471.3394 306.2285L470.8438 306.2285z" stroke="none" fill="#000000" fill-rule="nonzero" /><path id="325" transform="matrix(1 0 0 -1 0 842)" d="M470.8438 340.9229L545.1875 340.9229L545.1875 340.4268L470.8438 340.4268z" stroke="none" fill="#000000" fill-rule="nonzero" /><path id="326" transform="matrix(1 0 0 -1 0 842)" d="M470.8438 306.7246L545.1875 306.7246L545.1875 306.2285L470.8438 306.2285z" stroke="none" fill="#000000" fill-rule="nonzero" /><path id="327" transform="matrix(1 0 0 -1 0 842)" d="M470.8438 340.9229L471.3394 340.9229L471.3394 306.2285L470.8438 306.2285z" stroke="none" fill="#000000" fill-rule="nonzero" /><path id="328" transform="matrix(1 0 0 -1 0 842)" d="M544.6919 340.9229L545.1875 340.9229L545.1875 306.2285L544.6919 306.2285z" stroke="none" fill="#000000" fill-rule="nonzero" /><path id="329" transform="matrix(1 0 0 -1 0 842)" d="M49.5625 306.7246L74.83938 306.7246L74.83938 306.2285L49.5625 306.2285z" stroke="none" fill="#000000" fill-rule="nonzero" /><path id="330" transform="matrix(1 0 0 -1 0 842)" d="M49.5625 272.5264L74.83938 272.5264L74.83938 272.0303L49.5625 272.0303z" stroke="none" fill="#000000" fill-rule="nonzero" /><path id="331" transform="matrix(1 0 0 -1 0 842)" d="M49.5625 306.7246L50.05813 306.7246L50.05813 272.0303L49.5625 272.0303z" stroke="none" fill="#000000" fill-rule="nonzero" /><path id="332" transform="matrix(1 0 0 -1 0 842)" d="M74.34375 306.7246L74.83938 306.7246L74.83938 272.0303L74.34375 272.0303z" stroke="none" fill="#000000" fill-rule="nonzero" /><path id="333" transform="matrix(1 0 0 -1 0 842)" d="M74.34375 306.7246L124.4019 306.7246L124.4019 306.2285L74.34375 306.2285z" stroke="none" fill="#000000" fill-rule="nonzero" /><path id="334" transform="matrix(1 0 0 -1 0 842)" d="M74.34375 272.5264L124.4019 272.5264L124.4019 272.0303L74.34375 272.0303z" stroke="none" fill="#000000" fill-rule="nonzero" /><path id="335" transform="matrix(1 0 0 -1 0 842)" d="M74.34375 306.7246L74.83938 306.7246L74.83938 272.0303L74.34375 272.0303z" stroke="none" fill="#000000" fill-rule="nonzero" /><path id="336" transform="matrix(1 0 0 -1 0 842)" d="M123.9063 306.7246L124.4019 306.7246L124.4019 272.0303L123.9063 272.0303z" stroke="none" fill="#000000" fill-rule="nonzero" /><path id="337" transform="matrix(1 0 0 -1 0 842)" d="M123.9063 306.7246L198.7456 306.7246L198.7456 306.2285L123.9063 306.2285z" stroke="none" fill="#000000" fill-rule="nonzero" /><path id="338" transform="matrix(1 0 0 -1 0 842)" d="M123.9063 272.5264L198.7456 272.5264L198.7456 272.0303L123.9063 272.0303z" stroke="none" fill="#000000" fill-rule="nonzero" /><path id="339" transform="matrix(1 0 0 -1 0 842)" d="M123.9063 306.7246L124.4019 306.7246L124.4019 272.0303L123.9063 272.0303z" stroke="none" fill="#000000" fill-rule="nonzero" /><path id="340" transform="matrix(1 0 0 -1 0 842)" d="M198.25 306.7246L198.7456 306.7246L198.7456 272.0303L198.25 272.0303z" stroke="none" fill="#000000" fill-rule="nonzero" /><path id="341" transform="matrix(1 0 0 -1 0 842)" d="M198.25 306.7246L248.3081 306.7246L248.3081 306.2285L198.25 306.2285z" stroke="none" fill="#000000" fill-rule="nonzero" /><path id="342" transform="matrix(1 0 0 -1 0 842)" d="M198.25 272.5264L248.3081 272.5264L248.3081 272.0303L198.25 272.0303z" stroke="none" fill="#000000" fill-rule="nonzero" /><path id="343" transform="matrix(1 0 0 -1 0 842)" d="M198.25 306.7246L198.7456 306.7246L198.7456 272.0303L198.25 272.0303z" stroke="none" fill="#000000" fill-rule="nonzero" /><path id="344" transform="matrix(1 0 0 -1 0 842)" d="M247.8125 306.7246L248.3081 306.7246L248.3081 272.0303L247.8125 272.0303z" stroke="none" fill="#000000" fill-rule="nonzero" /><path id="345" transform="matrix(1 0 0 -1 0 842)" d="M247.8125 306.7246L421.7769 306.7246L421.7769 306.2285L247.8125 306.2285z" stroke="none" fill="#000000" fill-rule="nonzero" /><path id="346" transform="matrix(1 0 0 -1 0 842)" d="M247.8125 272.5264L421.7769 272.5264L421.7769 272.0303L247.8125 272.0303z" stroke="none" fill="#000000" fill-rule="nonzero" /><path id="347" transform="matrix(1 0 0 -1 0 842)" d="M247.8125 306.7246L248.3081 306.7246L248.3081 272.0303L247.8125 272.0303z" stroke="none" fill="#000000" fill-rule="nonzero" /><path id="348" transform="matrix(1 0 0 -1 0 842)" d="M421.2813 306.7246L421.7769 306.7246L421.7769 272.0303L421.2813 272.0303z" stroke="none" fill="#000000" fill-rule="nonzero" /><path id="349" transform="matrix(1 0 0 -1 0 842)" d="M421.2813 306.7246L471.3394 306.7246L471.3394 306.2285L421.2813 306.2285z" stroke="none" fill="#000000" fill-rule="nonzero" /><path id="350" transform="matrix(1 0 0 -1 0 842)" d="M421.2813 272.5264L471.3394 272.5264L471.3394 272.0303L421.2813 272.0303z" stroke="none" fill="#000000" fill-rule="nonzero" /><path id="351" transform="matrix(1 0 0 -1 0 842)" d="M421.2813 306.7246L421.7769 306.7246L421.7769 272.0303L421.2813 272.0303z" stroke="none" fill="#000000" fill-rule="nonzero" /><path id="352" transform="matrix(1 0 0 -1 0 842)" d="M470.8438 306.7246L471.3394 306.7246L471.3394 272.0303L470.8438 272.0303z" stroke="none" fill="#000000" fill-rule="nonzero" /><path id="353" transform="matrix(1 0 0 -1 0 842)" d="M470.8438 306.7246L545.1875 306.7246L545.1875 306.2285L470.8438 306.2285z" stroke="none" fill="#000000" fill-rule="nonzero" /><path id="354" transform="matrix(1 0 0 -1 0 842)" d="M470.8438 272.5264L545.1875 272.5264L545.1875 272.0303L470.8438 272.0303z" stroke="none" fill="#000000" fill-rule="nonzero" /><path id="355" transform="matrix(1 0 0 -1 0 842)" d="M470.8438 306.7246L471.3394 306.7246L471.3394 272.0303L470.8438 272.0303z" stroke="none" fill="#000000" fill-rule="nonzero" /><path id="356" transform="matrix(1 0 0 -1 0 842)" d="M544.6919 306.7246L545.1875 306.7246L545.1875 272.0303L544.6919 272.0303z" stroke="none" fill="#000000" fill-rule="nonzero" /><path id="357" transform="matrix(1 0 0 -1 0 842)" d="M49.5625 272.5264L74.83938 272.5264L74.83938 272.0303L49.5625 272.0303z" stroke="none" fill="#000000" fill-rule="nonzero" /><path id="358" transform="matrix(1 0 0 -1 0 842)" d="M49.5625 238.3281L74.83938 238.3281L74.83938 237.832L49.5625 237.832z" stroke="none" fill="#000000" fill-rule="nonzero" /><path id="359" transform="matrix(1 0 0 -1 0 842)" d="M49.5625 272.5264L50.05813 272.5264L50.05813 237.832L49.5625 237.832z" stroke="none" fill="#000000" fill-rule="nonzero" /><path id="360" transform="matrix(1 0 0 -1 0 842)" d="M74.34375 272.5264L74.83938 272.5264L74.83938 237.832L74.34375 237.832z" stroke="none" fill="#000000" fill-rule="nonzero" /><path id="361" transform="matrix(1 0 0 -1 0 842)" d="M74.34375 272.5264L124.4019 272.5264L124.4019 272.0303L74.34375 272.0303z" stroke="none" fill="#000000" fill-rule="nonzero" /><path id="362" transform="matrix(1 0 0 -1 0 842)" d="M74.34375 238.3281L124.4019 238.3281L124.4019 237.832L74.34375 237.832z" stroke="none" fill="#000000" fill-rule="nonzero" /><path id="363" transform="matrix(1 0 0 -1 0 842)" d="M74.34375 272.5264L74.83938 272.5264L74.83938 237.832L74.34375 237.832z" stroke="none" fill="#000000" fill-rule="nonzero" /><path id="364" transform="matrix(1 0 0 -1 0 842)" d="M123.9063 272.5264L124.4019 272.5264L124.4019 237.832L123.9063 237.832z" stroke="none" fill="#000000" fill-rule="nonzero" /><path id="365" transform="matrix(1 0 0 -1 0 842)" d="M123.9063 272.5264L198.7456 272.5264L198.7456 272.0303L123.9063 272.0303z" stroke="none" fill="#000000" fill-rule="nonzero" /><path id="366" transform="matrix(1 0 0 -1 0 842)" d="M123.9063 238.3281L198.7456 238.3281L198.7456 237.832L123.9063 237.832z" stroke="none" fill="#000000" fill-rule="nonzero" /><path id="367" transform="matrix(1 0 0 -1 0 842)" d="M123.9063 272.5264L124.4019 272.5264L124.4019 237.832L123.9063 237.832z" stroke="none" fill="#000000" fill-rule="nonzero" /><path id="368" transform="matrix(1 0 0 -1 0 842)" d="M198.25 272.5264L198.7456 272.5264L198.7456 237.832L198.25 237.832z" stroke="none" fill="#000000" fill-rule="nonzero" /><path id="369" transform="matrix(1 0 0 -1 0 842)" d="M198.25 272.5264L248.3081 272.5264L248.3081 272.0303L198.25 272.0303z" stroke="none" fill="#000000" fill-rule="nonzero" /><path id="370" transform="matrix(1 0 0 -1 0 842)" d="M198.25 238.3281L248.3081 238.3281L248.3081 237.832L198.25 237.832z" stroke="none" fill="#000000" fill-rule="nonzero" /><path id="371" transform="matrix(1 0 0 -1 0 842)" d="M198.25 272.5264L198.7456 272.5264L198.7456 237.832L198.25 237.832z" stroke="none" fill="#000000" fill-rule="nonzero" /><path id="372" transform="matrix(1 0 0 -1 0 842)" d="M247.8125 272.5264L248.3081 272.5264L248.3081 237.832L247.8125 237.832z" stroke="none" fill="#000000" fill-rule="nonzero" /><path id="373" transform="matrix(1 0 0 -1 0 842)" d="M247.8125 272.5264L421.7769 272.5264L421.7769 272.0303L247.8125 272.0303z" stroke="none" fill="#000000" fill-rule="nonzero" /><path id="374" transform="matrix(1 0 0 -1 0 842)" d="M247.8125 238.3281L421.7769 238.3281L421.7769 237.832L247.8125 237.832z" stroke="none" fill="#000000" fill-rule="nonzero" /><path id="375" transform="matrix(1 0 0 -1 0 842)" d="M247.8125 272.5264L248.3081 272.5264L248.3081 237.832L247.8125 237.832z" stroke="none" fill="#000000" fill-rule="nonzero" /><path id="376" transform="matrix(1 0 0 -1 0 842)" d="M421.2813 272.5264L421.7769 272.5264L421.7769 237.832L421.2813 237.832z" stroke="none" fill="#000000" fill-rule="nonzero" /><path id="377" transform="matrix(1 0 0 -1 0 842)" d="M421.2813 272.5264L471.3394 272.5264L471.3394 272.0303L421.2813 272.0303z" stroke="none" fill="#000000" fill-rule="nonzero" /><path id="378" transform="matrix(1 0 0 -1 0 842)" d="M421.2813 238.3281L471.3394 238.3281L471.3394 237.832L421.2813 237.832z" stroke="none" fill="#000000" fill-rule="nonzero" /><path id="379" transform="matrix(1 0 0 -1 0 842)" d="M421.2813 272.5264L421.7769 272.5264L421.7769 237.832L421.2813 237.832z" stroke="none" fill="#000000" fill-rule="nonzero" /><path id="380" transform="matrix(1 0 0 -1 0 842)" d="M470.8438 272.5264L471.3394 272.5264L471.3394 237.832L470.8438 237.832z" stroke="none" fill="#000000" fill-rule="nonzero" /><path id="381" transform="matrix(1 0 0 -1 0 842)" d="M470.8438 272.5264L545.1875 272.5264L545.1875 272.0303L470.8438 272.0303z" stroke="none" fill="#000000" fill-rule="nonzero" /><path id="382" transform="matrix(1 0 0 -1 0 842)" d="M470.8438 238.3281L545.1875 238.3281L545.1875 237.832L470.8438 237.832z" stroke="none" fill="#000000" fill-rule="nonzero" /><path id="383" transform="matrix(1 0 0 -1 0 842)" d="M470.8438 272.5264L471.3394 272.5264L471.3394 237.832L470.8438 237.832z" stroke="none" fill="#000000" fill-rule="nonzero" /><path id="384" transform="matrix(1 0 0 -1 0 842)" d="M544.6919 272.5264L545.1875 272.5264L545.1875 237.832L544.6919 237.832z" stroke="none" fill="#000000" fill-rule="nonzero" /></g></g></g></svg>