<svg xmlns="http://www.w3.org/2000/svg" xmlns:xlink="http://www.w3.org/1999/xlink" id="body_11" preserveAspectRatio="xMinYMin meet" viewBox="0 0 793 1123"><defs><clipPath id="1"><path id="" clip-rule="evenodd" transform="matrix(1 0 0 1 0 0)" d="M0 842L0 0L0 0L595 0L595 0L595 842L595 842L0 842z" /></clipPath><clipPath id="2"><path id="" clip-rule="evenodd" transform="matrix(1 0 0 1 0 0)" d="M0 0L594.75 0L594.75 0L594.75 842.0669L594.75 842.0669L0 842.0669L0 842.0669L0 0z" /></clipPath></defs><g transform="matrix(1.333333 0 0 1.333333 0 0)"><g clip-path="url(#1)"><g clip-path="url(#2)"><path id="1" transform="matrix(1 0 0 -1 0 842)" d="M0 842L594.75 842L594.75 -0.06738281L0 -0.06738281z" stroke="none" fill="#FFFFFF" fill-rule="nonzero" /><path id="2" transform="matrix(1 0 0 -1 0 842)" d="M49.5625 765.6738L74.34375 765.6738L74.34375 739.9014L49.5625 739.9014z" stroke="none" fill="#9CC9F0" fill-rule="nonzero" /><path id="3" transform="matrix(1 0 0 -1 0 842)" d="M74.34375 765.6738L148.6875 765.6738L148.6875 739.9014L74.34375 739.9014z" stroke="none" fill="#9CC9F0" fill-rule="nonzero" /><path id="4" transform="matrix(1 0 0 -1 0 842)" d="M148.6875 765.6738L223.0313 765.6738L223.0313 739.9014L148.6875 739.9014z" stroke="none" fill="#9CC9F0" fill-rule="nonzero" /><path id="5" transform="matrix(1 0 0 -1 0 842)" d="M223.0313 765.6738L272.5938 765.6738L272.5938 739.9014L223.0313 739.9014z" stroke="none" fill="#9CC9F0" fill-rule="nonzero" /><path id="6" transform="matrix(1 0 0 -1 0 842)" d="M272.5938 765.6738L421.2813 765.6738L421.2813 739.9014L272.5938 739.9014z" stroke="none" fill="#9CC9F0" fill-rule="nonzero" /><path id="7" transform="matrix(1 0 0 -1 0 842)" d="M421.2813 765.6738L470.8438 765.6738L470.8438 739.9014L421.2813 739.9014z" stroke="none" fill="#9CC9F0" fill-rule="nonzero" /><path id="8" transform="matrix(1 0 0 -1 0 842)" d="M470.8438 765.6738L544.6919 765.6738L544.6919 739.9014L470.8438 739.9014z" stroke="none" fill="#9CC9F0" fill-rule="nonzero" /><path id="9" transform="matrix(1 0 0 -1 0 842)" d="M49.5625 765.6738L74.83938 765.6738L74.83938 765.1777L49.5625 765.1777z" stroke="none" fill="#000000" fill-rule="nonzero" /><path id="10" transform="matrix(1 0 0 -1 0 842)" d="M49.5625 739.9014L74.83938 739.9014L74.83938 739.4053L49.5625 739.4053z" stroke="none" fill="#000000" fill-rule="nonzero" /><path id="11" transform="matrix(1 0 0 -1 0 842)" d="M49.5625 765.6738L50.05813 765.6738L50.05813 739.4053L49.5625 739.4053z" stroke="none" fill="#000000" fill-rule="nonzero" /><path id="12" transform="matrix(1 0 0 -1 0 842)" d="M74.34375 765.6738L74.83938 765.6738L74.83938 739.4053L74.34375 739.4053z" stroke="none" fill="#000000" fill-rule="nonzero" /><path id="13" transform="matrix(1 0 0 -1 0 842)" d="M74.34375 765.6738L149.1831 765.6738L149.1831 765.1777L74.34375 765.1777z" stroke="none" fill="#000000" fill-rule="nonzero" /><path id="14" transform="matrix(1 0 0 -1 0 842)" d="M74.34375 739.9014L149.1831 739.9014L149.1831 739.4053L74.34375 739.4053z" stroke="none" fill="#000000" fill-rule="nonzero" /><path id="15" transform="matrix(1 0 0 -1 0 842)" d="M74.34375 765.6738L74.83938 765.6738L74.83938 739.4053L74.34375 739.4053z" stroke="none" fill="#000000" fill-rule="nonzero" /><path id="16" transform="matrix(1 0 0 -1 0 842)" d="M148.6875 765.6738L149.1831 765.6738L149.1831 739.4053L148.6875 739.4053z" stroke="none" fill="#000000" fill-rule="nonzero" /><path id="17" transform="matrix(1 0 0 -1 0 842)" d="M148.6875 765.6738L223.5269 765.6738L223.5269 765.1777L148.6875 765.1777z" stroke="none" fill="#000000" fill-rule="nonzero" /><path id="18" transform="matrix(1 0 0 -1 0 842)" d="M148.6875 739.9014L223.5269 739.9014L223.5269 739.4053L148.6875 739.4053z" stroke="none" fill="#000000" fill-rule="nonzero" /><path id="19" transform="matrix(1 0 0 -1 0 842)" d="M148.6875 765.6738L149.1831 765.6738L149.1831 739.4053L148.6875 739.4053z" stroke="none" fill="#000000" fill-rule="nonzero" /><path id="20" transform="matrix(1 0 0 -1 0 842)" d="M223.0313 765.6738L223.5269 765.6738L223.5269 739.4053L223.0313 739.4053z" stroke="none" fill="#000000" fill-rule="nonzero" /><path id="21" transform="matrix(1 0 0 -1 0 842)" d="M223.0313 765.6738L273.0894 765.6738L273.0894 765.1777L223.0313 765.1777z" stroke="none" fill="#000000" fill-rule="nonzero" /><path id="22" transform="matrix(1 0 0 -1 0 842)" d="M223.0313 739.9014L273.0894 739.9014L273.0894 739.4053L223.0313 739.4053z" stroke="none" fill="#000000" fill-rule="nonzero" /><path id="23" transform="matrix(1 0 0 -1 0 842)" d="M223.0313 765.6738L223.5269 765.6738L223.5269 739.4053L223.0313 739.4053z" stroke="none" fill="#000000" fill-rule="nonzero" /><path id="24" transform="matrix(1 0 0 -1 0 842)" d="M272.5938 765.6738L273.0894 765.6738L273.0894 739.4053L272.5938 739.4053z" stroke="none" fill="#000000" fill-rule="nonzero" /><path id="25" transform="matrix(1 0 0 -1 0 842)" d="M272.5938 765.6738L421.7769 765.6738L421.7769 765.1777L272.5938 765.1777z" stroke="none" fill="#000000" fill-rule="nonzero" /><path id="26" transform="matrix(1 0 0 -1 0 842)" d="M272.5938 739.9014L421.7769 739.9014L421.7769 739.4053L272.5938 739.4053z" stroke="none" fill="#000000" fill-rule="nonzero" /><path id="27" transform="matrix(1 0 0 -1 0 842)" d="M272.5938 765.6738L273.0894 765.6738L273.0894 739.4053L272.5938 739.4053z" stroke="none" fill="#000000" fill-rule="nonzero" /><path id="28" transform="matrix(1 0 0 -1 0 842)" d="M421.2813 765.6738L421.7769 765.6738L421.7769 739.4053L421.2813 739.4053z" stroke="none" fill="#000000" fill-rule="nonzero" /><path id="29" transform="matrix(1 0 0 -1 0 842)" d="M421.2813 765.6738L471.3394 765.6738L471.3394 765.1777L421.2813 765.1777z" stroke="none" fill="#000000" fill-rule="nonzero" /><path id="30" transform="matrix(1 0 0 -1 0 842)" d="M421.2813 739.9014L471.3394 739.9014L471.3394 739.4053L421.2813 739.4053z" stroke="none" fill="#000000" fill-rule="nonzero" /><path id="31" transform="matrix(1 0 0 -1 0 842)" d="M421.2813 765.6738L421.7769 765.6738L421.7769 739.4053L421.2813 739.4053z" stroke="none" fill="#000000" fill-rule="nonzero" /><path id="32" transform="matrix(1 0 0 -1 0 842)" d="M470.8438 765.6738L471.3394 765.6738L471.3394 739.4053L470.8438 739.4053z" stroke="none" fill="#000000" fill-rule="nonzero" /><path id="33" transform="matrix(1 0 0 -1 0 842)" d="M470.8438 765.6738L545.1875 765.6738L545.1875 765.1777L470.8438 765.1777z" stroke="none" fill="#000000" fill-rule="nonzero" /><path id="34" transform="matrix(1 0 0 -1 0 842)" d="M470.8438 739.9014L545.1875 739.9014L545.1875 739.4053L470.8438 739.4053z" stroke="none" fill="#000000" fill-rule="nonzero" /><path id="35" transform="matrix(1 0 0 -1 0 842)" d="M470.8438 765.6738L471.3394 765.6738L471.3394 739.4053L470.8438 739.4053z" stroke="none" fill="#000000" fill-rule="nonzero" /><path id="36" transform="matrix(1 0 0 -1 0 842)" d="M544.6919 765.6738L545.1875 765.6738L545.1875 739.4053L544.6919 739.4053z" stroke="none" fill="#000000" fill-rule="nonzero" /><path id="37" transform="matrix(1 0 0 -1 0 842)" d="M49.5625 739.9014L74.83938 739.9014L74.83938 739.4053L49.5625 739.4053z" stroke="none" fill="#000000" fill-rule="nonzero" /><path id="38" transform="matrix(1 0 0 -1 0 842)" d="M49.5625 671.5049L74.83938 671.5049L74.83938 671.0088L49.5625 671.0088z" stroke="none" fill="#000000" fill-rule="nonzero" /><path id="39" transform="matrix(1 0 0 -1 0 842)" d="M49.5625 739.9014L50.05813 739.9014L50.05813 671.0088L49.5625 671.0088z" stroke="none" fill="#000000" fill-rule="nonzero" /><path id="40" transform="matrix(1 0 0 -1 0 842)" d="M74.34375 739.9014L74.83938 739.9014L74.83938 671.0088L74.34375 671.0088z" stroke="none" fill="#000000" fill-rule="nonzero" /><path id="41" transform="matrix(1 0 0 -1 0 842)" d="M74.34375 739.9014L149.1831 739.9014L149.1831 739.4053L74.34375 739.4053z" stroke="none" fill="#000000" fill-rule="nonzero" /><path id="42" transform="matrix(1 0 0 -1 0 842)" d="M74.34375 671.5049L149.1831 671.5049L149.1831 671.0088L74.34375 671.0088z" stroke="none" fill="#000000" fill-rule="nonzero" /><path id="43" transform="matrix(1 0 0 -1 0 842)" d="M74.34375 739.9014L74.83938 739.9014L74.83938 671.0088L74.34375 671.0088z" stroke="none" fill="#000000" fill-rule="nonzero" /><path id="44" transform="matrix(1 0 0 -1 0 842)" d="M148.6875 739.9014L149.1831 739.9014L149.1831 671.0088L148.6875 671.0088z" stroke="none" fill="#000000" fill-rule="nonzero" /><path id="45" transform="matrix(1 0 0 -1 0 842)" d="M148.6875 739.9014L223.5269 739.9014L223.5269 739.4053L148.6875 739.4053z" stroke="none" fill="#000000" fill-rule="nonzero" /><path id="46" transform="matrix(1 0 0 -1 0 842)" d="M148.6875 705.7031L223.5269 705.7031L223.5269 705.207L148.6875 705.207z" stroke="none" fill="#000000" fill-rule="nonzero" /><path id="47" transform="matrix(1 0 0 -1 0 842)" d="M148.6875 739.9014L149.1831 739.9014L149.1831 705.207L148.6875 705.207z" stroke="none" fill="#000000" fill-rule="nonzero" /><path id="48" transform="matrix(1 0 0 -1 0 842)" d="M223.0313 739.9014L223.5269 739.9014L223.5269 705.207L223.0313 705.207z" stroke="none" fill="#000000" fill-rule="nonzero" /><path id="49" transform="matrix(1 0 0 -1 0 842)" d="M223.0313 739.9014L273.0894 739.9014L273.0894 739.4053L223.0313 739.4053z" stroke="none" fill="#000000" fill-rule="nonzero" /><path id="50" transform="matrix(1 0 0 -1 0 842)" d="M223.0313 705.7031L273.0894 705.7031L273.0894 705.207L223.0313 705.207z" stroke="none" fill="#000000" fill-rule="nonzero" /><path id="51" transform="matrix(1 0 0 -1 0 842)" d="M223.0313 739.9014L223.5269 739.9014L223.5269 705.207L223.0313 705.207z" stroke="none" fill="#000000" fill-rule="nonzero" /><path id="52" transform="matrix(1 0 0 -1 0 842)" d="M272.5938 739.9014L273.0894 739.9014L273.0894 705.207L272.5938 705.207z" stroke="none" fill="#000000" fill-rule="nonzero" /><path id="53" transform="matrix(1 0 0 -1 0 842)" d="M272.5938 739.9014L421.7769 739.9014L421.7769 739.4053L272.5938 739.4053z" stroke="none" fill="#000000" fill-rule="nonzero" /><path id="54" transform="matrix(1 0 0 -1 0 842)" d="M272.5938 705.7031L421.7769 705.7031L421.7769 705.207L272.5938 705.207z" stroke="none" fill="#000000" fill-rule="nonzero" /><path id="55" transform="matrix(1 0 0 -1 0 842)" d="M272.5938 739.9014L273.0894 739.9014L273.0894 705.207L272.5938 705.207z" stroke="none" fill="#000000" fill-rule="nonzero" /><path id="56" transform="matrix(1 0 0 -1 0 842)" d="M421.2813 739.9014L421.7769 739.9014L421.7769 705.207L421.2813 705.207z" stroke="none" fill="#000000" fill-rule="nonzero" /><path id="57" transform="matrix(1 0 0 -1 0 842)" d="M421.2813 739.9014L471.3394 739.9014L471.3394 739.4053L421.2813 739.4053z" stroke="none" fill="#000000" fill-rule="nonzero" /><path id="58" transform="matrix(1 0 0 -1 0 842)" d="M421.2813 705.7031L471.3394 705.7031L471.3394 705.207L421.2813 705.207z" stroke="none" fill="#000000" fill-rule="nonzero" /><path id="59" transform="matrix(1 0 0 -1 0 842)" d="M421.2813 739.9014L421.7769 739.9014L421.7769 705.207L421.2813 705.207z" stroke="none" fill="#000000" fill-rule="nonzero" /><path id="60" transform="matrix(1 0 0 -1 0 842)" d="M470.8438 739.9014L471.3394 739.9014L471.3394 705.207L470.8438 705.207z" stroke="none" fill="#000000" fill-rule="nonzero" /><path id="61" transform="matrix(1 0 0 -1 0 842)" d="M470.8438 739.9014L545.1875 739.9014L545.1875 739.4053L470.8438 739.4053z" stroke="none" fill="#000000" fill-rule="nonzero" /><path id="62" transform="matrix(1 0 0 -1 0 842)" d="M470.8438 671.5049L545.1875 671.5049L545.1875 671.0088L470.8438 671.0088z" stroke="none" fill="#000000" fill-rule="nonzero" /><path id="63" transform="matrix(1 0 0 -1 0 842)" d="M470.8438 739.9014L471.3394 739.9014L471.3394 671.0088L470.8438 671.0088z" stroke="none" fill="#000000" fill-rule="nonzero" /><path id="64" transform="matrix(1 0 0 -1 0 842)" d="M544.6919 739.9014L545.1875 739.9014L545.1875 671.0088L544.6919 671.0088z" stroke="none" fill="#000000" fill-rule="nonzero" /><path id="65" transform="matrix(1 0 0 -1 0 842)" d="M148.6875 705.7031L223.5269 705.7031L223.5269 705.207L148.6875 705.207z" stroke="none" fill="#000000" fill-rule="nonzero" /><path id="66" transform="matrix(1 0 0 -1 0 842)" d="M148.6875 671.5049L223.5269 671.5049L223.5269 671.0088L148.6875 671.0088z" stroke="none" fill="#000000" fill-rule="nonzero" /><path id="67" transform="matrix(1 0 0 -1 0 842)" d="M148.6875 705.7031L149.1831 705.7031L149.1831 671.0088L148.6875 671.0088z" stroke="none" fill="#000000" fill-rule="nonzero" /><path id="68" transform="matrix(1 0 0 -1 0 842)" d="M223.0313 705.7031L223.5269 705.7031L223.5269 671.0088L223.0313 671.0088z" stroke="none" fill="#000000" fill-rule="nonzero" /><path id="69" transform="matrix(1 0 0 -1 0 842)" d="M223.0313 705.7031L273.0894 705.7031L273.0894 705.207L223.0313 705.207z" stroke="none" fill="#000000" fill-rule="nonzero" /><path id="70" transform="matrix(1 0 0 -1 0 842)" d="M223.0313 671.5049L273.0894 671.5049L273.0894 671.0088L223.0313 671.0088z" stroke="none" fill="#000000" fill-rule="nonzero" /><path id="71" transform="matrix(1 0 0 -1 0 842)" d="M223.0313 705.7031L223.5269 705.7031L223.5269 671.0088L223.0313 671.0088z" stroke="none" fill="#000000" fill-rule="nonzero" /><path id="72" transform="matrix(1 0 0 -1 0 842)" d="M272.5938 705.7031L273.0894 705.7031L273.0894 671.0088L272.5938 671.0088z" stroke="none" fill="#000000" fill-rule="nonzero" /><path id="73" transform="matrix(1 0 0 -1 0 842)" d="M272.5938 705.7031L421.7769 705.7031L421.7769 705.207L272.5938 705.207z" stroke="none" fill="#000000" fill-rule="nonzero" /><path id="74" transform="matrix(1 0 0 -1 0 842)" d="M272.5938 671.5049L421.7769 671.5049L421.7769 671.0088L272.5938 671.0088z" stroke="none" fill="#000000" fill-rule="nonzero" /><path id="75" transform="matrix(1 0 0 -1 0 842)" d="M272.5938 705.7031L273.0894 705.7031L273.0894 671.0088L272.5938 671.0088z" stroke="none" fill="#000000" fill-rule="nonzero" /><path id="76" transform="matrix(1 0 0 -1 0 842)" d="M421.2813 705.7031L421.7769 705.7031L421.7769 671.0088L421.2813 671.0088z" stroke="none" fill="#000000" fill-rule="nonzero" /><path id="77" transform="matrix(1 0 0 -1 0 842)" d="M421.2813 705.7031L471.3394 705.7031L471.3394 705.207L421.2813 705.207z" stroke="none" fill="#000000" fill-rule="nonzero" /><path id="78" transform="matrix(1 0 0 -1 0 842)" d="M421.2813 671.5049L471.3394 671.5049L471.3394 671.0088L421.2813 671.0088z" stroke="none" fill="#000000" fill-rule="nonzero" /><path id="79" transform="matrix(1 0 0 -1 0 842)" d="M421.2813 705.7031L421.7769 705.7031L421.7769 671.0088L421.2813 671.0088z" stroke="none" fill="#000000" fill-rule="nonzero" /><path id="80" transform="matrix(1 0 0 -1 0 842)" d="M470.8438 705.7031L471.3394 705.7031L471.3394 671.0088L470.8438 671.0088z" stroke="none" fill="#000000" fill-rule="nonzero" /><path id="81" transform="matrix(1 0 0 -1 0 842)" d="M49.5625 671.5049L74.83938 671.5049L74.83938 671.0088L49.5625 671.0088z" stroke="none" fill="#000000" fill-rule="nonzero" /><path id="82" transform="matrix(1 0 0 -1 0 842)" d="M49.5625 623.9248L74.83938 623.9248L74.83938 623.4297L49.5625 623.4297z" stroke="none" fill="#000000" fill-rule="nonzero" /><path id="83" transform="matrix(1 0 0 -1 0 842)" d="M49.5625 671.5049L50.05813 671.5049L50.05813 623.4297L49.5625 623.4297z" stroke="none" fill="#000000" fill-rule="nonzero" /><path id="84" transform="matrix(1 0 0 -1 0 842)" d="M74.34375 671.5049L74.83938 671.5049L74.83938 623.4297L74.34375 623.4297z" stroke="none" fill="#000000" fill-rule="nonzero" /><path id="85" transform="matrix(1 0 0 -1 0 842)" d="M74.34375 671.5049L149.1831 671.5049L149.1831 671.0088L74.34375 671.0088z" stroke="none" fill="#000000" fill-rule="nonzero" /><path id="86" transform="matrix(1 0 0 -1 0 842)" d="M74.34375 623.9248L149.1831 623.9248L149.1831 623.4297L74.34375 623.4297z" stroke="none" fill="#000000" fill-rule="nonzero" /><path id="87" transform="matrix(1 0 0 -1 0 842)" d="M74.34375 671.5049L74.83938 671.5049L74.83938 623.4297L74.34375 623.4297z" stroke="none" fill="#000000" fill-rule="nonzero" /><path id="88" transform="matrix(1 0 0 -1 0 842)" d="M148.6875 671.5049L149.1831 671.5049L149.1831 623.4297L148.6875 623.4297z" stroke="none" fill="#000000" fill-rule="nonzero" /><path id="89" transform="matrix(1 0 0 -1 0 842)" d="M148.6875 671.5049L223.5269 671.5049L223.5269 671.0088L148.6875 671.0088z" stroke="none" fill="#000000" fill-rule="nonzero" /><path id="90" transform="matrix(1 0 0 -1 0 842)" d="M148.6875 623.9248L223.5269 623.9248L223.5269 623.4297L148.6875 623.4297z" stroke="none" fill="#000000" fill-rule="nonzero" /><path id="91" transform="matrix(1 0 0 -1 0 842)" d="M148.6875 671.5049L149.1831 671.5049L149.1831 623.4297L148.6875 623.4297z" stroke="none" fill="#000000" fill-rule="nonzero" /><path id="92" transform="matrix(1 0 0 -1 0 842)" d="M223.0313 671.5049L223.5269 671.5049L223.5269 623.4297L223.0313 623.4297z" stroke="none" fill="#000000" fill-rule="nonzero" /><path id="93" transform="matrix(1 0 0 -1 0 842)" d="M223.0313 671.5049L273.0894 671.5049L273.0894 671.0088L223.0313 671.0088z" stroke="none" fill="#000000" fill-rule="nonzero" /><path id="94" transform="matrix(1 0 0 -1 0 842)" d="M223.0313 623.9248L273.0894 623.9248L273.0894 623.4297L223.0313 623.4297z" stroke="none" fill="#000000" fill-rule="nonzero" /><path id="95" transform="matrix(1 0 0 -1 0 842)" d="M223.0313 671.5049L223.5269 671.5049L223.5269 623.4297L223.0313 623.4297z" stroke="none" fill="#000000" fill-rule="nonzero" /><path id="96" transform="matrix(1 0 0 -1 0 842)" d="M272.5938 671.5049L273.0894 671.5049L273.0894 623.4297L272.5938 623.4297z" stroke="none" fill="#000000" fill-rule="nonzero" /><path id="97" transform="matrix(1 0 0 -1 0 842)" d="M272.5938 671.5049L421.7769 671.5049L421.7769 671.0088L272.5938 671.0088z" stroke="none" fill="#000000" fill-rule="nonzero" /><path id="98" transform="matrix(1 0 0 -1 0 842)" d="M272.5938 623.9248L421.7769 623.9248L421.7769 623.4297L272.5938 623.4297z" stroke="none" fill="#000000" fill-rule="nonzero" /><path id="99" transform="matrix(1 0 0 -1 0 842)" d="M272.5938 671.5049L273.0894 671.5049L273.0894 623.4297L272.5938 623.4297z" stroke="none" fill="#000000" fill-rule="nonzero" /><path id="100" transform="matrix(1 0 0 -1 0 842)" d="M421.2813 671.5049L421.7769 671.5049L421.7769 623.4297L421.2813 623.4297z" stroke="none" fill="#000000" fill-rule="nonzero" /><path id="101" transform="matrix(1 0 0 -1 0 842)" d="M421.2813 671.5049L471.3394 671.5049L471.3394 671.0088L421.2813 671.0088z" stroke="none" fill="#000000" fill-rule="nonzero" /><path id="102" transform="matrix(1 0 0 -1 0 842)" d="M421.2813 623.9248L471.3394 623.9248L471.3394 623.4297L421.2813 623.4297z" stroke="none" fill="#000000" fill-rule="nonzero" /><path id="103" transform="matrix(1 0 0 -1 0 842)" d="M421.2813 671.5049L421.7769 671.5049L421.7769 623.4297L421.2813 623.4297z" stroke="none" fill="#000000" fill-rule="nonzero" /><path id="104" transform="matrix(1 0 0 -1 0 842)" d="M470.8438 671.5049L471.3394 671.5049L471.3394 623.4297L470.8438 623.4297z" stroke="none" fill="#000000" fill-rule="nonzero" /><path id="105" transform="matrix(1 0 0 -1 0 842)" d="M470.8438 671.5049L545.1875 671.5049L545.1875 671.0088L470.8438 671.0088z" stroke="none" fill="#000000" fill-rule="nonzero" /><path id="106" transform="matrix(1 0 0 -1 0 842)" d="M470.8438 623.9248L545.1875 623.9248L545.1875 623.4297L470.8438 623.4297z" stroke="none" fill="#000000" fill-rule="nonzero" /><path id="107" transform="matrix(1 0 0 -1 0 842)" d="M470.8438 671.5049L471.3394 671.5049L471.3394 623.4297L470.8438 623.4297z" stroke="none" fill="#000000" fill-rule="nonzero" /><path id="108" transform="matrix(1 0 0 -1 0 842)" d="M544.6919 671.5049L545.1875 671.5049L545.1875 623.4297L544.6919 623.4297z" stroke="none" fill="#000000" fill-rule="nonzero" /><path id="109" transform="matrix(1 0 0 -1 0 842)" d="M49.5625 623.9248L74.83938 623.9248L74.83938 623.4297L49.5625 623.4297z" stroke="none" fill="#000000" fill-rule="nonzero" /><path id="110" transform="matrix(1 0 0 -1 0 842)" d="M49.5625 576.3447L74.83938 576.3447L74.83938 575.8496L49.5625 575.8496z" stroke="none" fill="#000000" fill-rule="nonzero" /><path id="111" transform="matrix(1 0 0 -1 0 842)" d="M49.5625 623.9248L50.05813 623.9248L50.05813 575.8496L49.5625 575.8496z" stroke="none" fill="#000000" fill-rule="nonzero" /><path id="112" transform="matrix(1 0 0 -1 0 842)" d="M74.34375 623.9248L74.83938 623.9248L74.83938 575.8496L74.34375 575.8496z" stroke="none" fill="#000000" fill-rule="nonzero" /><path id="113" transform="matrix(1 0 0 -1 0 842)" d="M74.34375 623.9248L149.1831 623.9248L149.1831 623.4297L74.34375 623.4297z" stroke="none" fill="#000000" fill-rule="nonzero" /><path id="114" transform="matrix(1 0 0 -1 0 842)" d="M74.34375 576.3447L149.1831 576.3447L149.1831 575.8496L74.34375 575.8496z" stroke="none" fill="#000000" fill-rule="nonzero" /><path id="115" transform="matrix(1 0 0 -1 0 842)" d="M74.34375 623.9248L74.83938 623.9248L74.83938 575.8496L74.34375 575.8496z" stroke="none" fill="#000000" fill-rule="nonzero" /><path id="116" transform="matrix(1 0 0 -1 0 842)" d="M148.6875 623.9248L149.1831 623.9248L149.1831 575.8496L148.6875 575.8496z" stroke="none" fill="#000000" fill-rule="nonzero" /><path id="117" transform="matrix(1 0 0 -1 0 842)" d="M148.6875 623.9248L223.5269 623.9248L223.5269 623.4297L148.6875 623.4297z" stroke="none" fill="#000000" fill-rule="nonzero" /><path id="118" transform="matrix(1 0 0 -1 0 842)" d="M148.6875 576.3447L223.5269 576.3447L223.5269 575.8496L148.6875 575.8496z" stroke="none" fill="#000000" fill-rule="nonzero" /><path id="119" transform="matrix(1 0 0 -1 0 842)" d="M148.6875 623.9248L149.1831 623.9248L149.1831 575.8496L148.6875 575.8496z" stroke="none" fill="#000000" fill-rule="nonzero" /><path id="120" transform="matrix(1 0 0 -1 0 842)" d="M223.0313 623.9248L223.5269 623.9248L223.5269 575.8496L223.0313 575.8496z" stroke="none" fill="#000000" fill-rule="nonzero" /><path id="121" transform="matrix(1 0 0 -1 0 842)" d="M223.0313 623.9248L273.0894 623.9248L273.0894 623.4297L223.0313 623.4297z" stroke="none" fill="#000000" fill-rule="nonzero" /><path id="122" transform="matrix(1 0 0 -1 0 842)" d="M223.0313 576.3447L273.0894 576.3447L273.0894 575.8496L223.0313 575.8496z" stroke="none" fill="#000000" fill-rule="nonzero" /><path id="123" transform="matrix(1 0 0 -1 0 842)" d="M223.0313 623.9248L223.5269 623.9248L223.5269 575.8496L223.0313 575.8496z" stroke="none" fill="#000000" fill-rule="nonzero" /><path id="124" transform="matrix(1 0 0 -1 0 842)" d="M272.5938 623.9248L273.0894 623.9248L273.0894 575.8496L272.5938 575.8496z" stroke="none" fill="#000000" fill-rule="nonzero" /><path id="125" transform="matrix(1 0 0 -1 0 842)" d="M272.5938 623.9248L421.7769 623.9248L421.7769 623.4297L272.5938 623.4297z" stroke="none" fill="#000000" fill-rule="nonzero" /><path id="126" transform="matrix(1 0 0 -1 0 842)" d="M272.5938 576.3447L421.7769 576.3447L421.7769 575.8496L272.5938 575.8496z" stroke="none" fill="#000000" fill-rule="nonzero" /><path id="127" transform="matrix(1 0 0 -1 0 842)" d="M272.5938 623.9248L273.0894 623.9248L273.0894 575.8496L272.5938 575.8496z" stroke="none" fill="#000000" fill-rule="nonzero" /><path id="128" transform="matrix(1 0 0 -1 0 842)" d="M421.2813 623.9248L421.7769 623.9248L421.7769 575.8496L421.2813 575.8496z" stroke="none" fill="#000000" fill-rule="nonzero" /><path id="129" transform="matrix(1 0 0 -1 0 842)" d="M421.2813 623.9248L471.3394 623.9248L471.3394 623.4297L421.2813 623.4297z" stroke="none" fill="#000000" fill-rule="nonzero" /><path id="130" transform="matrix(1 0 0 -1 0 842)" d="M421.2813 576.3447L471.3394 576.3447L471.3394 575.8496L421.2813 575.8496z" stroke="none" fill="#000000" fill-rule="nonzero" /><path id="131" transform="matrix(1 0 0 -1 0 842)" d="M421.2813 623.9248L421.7769 623.9248L421.7769 575.8496L421.2813 575.8496z" stroke="none" fill="#000000" fill-rule="nonzero" /><path id="132" transform="matrix(1 0 0 -1 0 842)" d="M470.8438 623.9248L471.3394 623.9248L471.3394 575.8496L470.8438 575.8496z" stroke="none" fill="#000000" fill-rule="nonzero" /><path id="133" transform="matrix(1 0 0 -1 0 842)" d="M470.8438 623.9248L545.1875 623.9248L545.1875 623.4297L470.8438 623.4297z" stroke="none" fill="#000000" fill-rule="nonzero" /><path id="134" transform="matrix(1 0 0 -1 0 842)" d="M470.8438 576.3447L545.1875 576.3447L545.1875 575.8496L470.8438 575.8496z" stroke="none" fill="#000000" fill-rule="nonzero" /><path id="135" transform="matrix(1 0 0 -1 0 842)" d="M470.8438 623.9248L471.3394 623.9248L471.3394 575.8496L470.8438 575.8496z" stroke="none" fill="#000000" fill-rule="nonzero" /><path id="136" transform="matrix(1 0 0 -1 0 842)" d="M544.6919 623.9248L545.1875 623.9248L545.1875 575.8496L544.6919 575.8496z" stroke="none" fill="#000000" fill-rule="nonzero" /><path id="137" transform="matrix(1 0 0 -1 0 842)" d="M49.5625 576.3447L74.83938 576.3447L74.83938 575.8496L49.5625 575.8496z" stroke="none" fill="#000000" fill-rule="nonzero" /><path id="138" transform="matrix(1 0 0 -1 0 842)" d="M49.5625 528.7646L74.83938 528.7646L74.83938 528.2695L49.5625 528.2695z" stroke="none" fill="#000000" fill-rule="nonzero" /><path id="139" transform="matrix(1 0 0 -1 0 842)" d="M49.5625 576.3447L50.05813 576.3447L50.05813 528.2695L49.5625 528.2695z" stroke="none" fill="#000000" fill-rule="nonzero" /><path id="140" transform="matrix(1 0 0 -1 0 842)" d="M74.34375 576.3447L74.83938 576.3447L74.83938 528.2695L74.34375 528.2695z" stroke="none" fill="#000000" fill-rule="nonzero" /><path id="141" transform="matrix(1 0 0 -1 0 842)" d="M74.34375 576.3447L149.1831 576.3447L149.1831 575.8496L74.34375 575.8496z" stroke="none" fill="#000000" fill-rule="nonzero" /><path id="142" transform="matrix(1 0 0 -1 0 842)" d="M74.34375 528.7646L149.1831 528.7646L149.1831 528.2695L74.34375 528.2695z" stroke="none" fill="#000000" fill-rule="nonzero" /><path id="143" transform="matrix(1 0 0 -1 0 842)" d="M74.34375 576.3447L74.83938 576.3447L74.83938 528.2695L74.34375 528.2695z" stroke="none" fill="#000000" fill-rule="nonzero" /><path id="144" transform="matrix(1 0 0 -1 0 842)" d="M148.6875 576.3447L149.1831 576.3447L149.1831 528.2695L148.6875 528.2695z" stroke="none" fill="#000000" fill-rule="nonzero" /><path id="145" transform="matrix(1 0 0 -1 0 842)" d="M148.6875 576.3447L223.5269 576.3447L223.5269 575.8496L148.6875 575.8496z" stroke="none" fill="#000000" fill-rule="nonzero" /><path id="146" transform="matrix(1 0 0 -1 0 842)" d="M148.6875 528.7646L223.5269 528.7646L223.5269 528.2695L148.6875 528.2695z" stroke="none" fill="#000000" fill-rule="nonzero" /><path id="147" transform="matrix(1 0 0 -1 0 842)" d="M148.6875 576.3447L149.1831 576.3447L149.1831 528.2695L148.6875 528.2695z" stroke="none" fill="#000000" fill-rule="nonzero" /><path id="148" transform="matrix(1 0 0 -1 0 842)" d="M223.0313 576.3447L223.5269 576.3447L223.5269 528.2695L223.0313 528.2695z" stroke="none" fill="#000000" fill-rule="nonzero" /><path id="149" transform="matrix(1 0 0 -1 0 842)" d="M223.0313 576.3447L273.0894 576.3447L273.0894 575.8496L223.0313 575.8496z" stroke="none" fill="#000000" fill-rule="nonzero" /><path id="150" transform="matrix(1 0 0 -1 0 842)" d="M223.0313 528.7646L273.0894 528.7646L273.0894 528.2695L223.0313 528.2695z" stroke="none" fill="#000000" fill-rule="nonzero" /><path id="151" transform="matrix(1 0 0 -1 0 842)" d="M223.0313 576.3447L223.5269 576.3447L223.5269 528.2695L223.0313 528.2695z" stroke="none" fill="#000000" fill-rule="nonzero" /><path id="152" transform="matrix(1 0 0 -1 0 842)" d="M272.5938 576.3447L273.0894 576.3447L273.0894 528.2695L272.5938 528.2695z" stroke="none" fill="#000000" fill-rule="nonzero" /><path id="153" transform="matrix(1 0 0 -1 0 842)" d="M272.5938 576.3447L421.7769 576.3447L421.7769 575.8496L272.5938 575.8496z" stroke="none" fill="#000000" fill-rule="nonzero" /><path id="154" transform="matrix(1 0 0 -1 0 842)" d="M272.5938 528.7646L421.7769 528.7646L421.7769 528.2695L272.5938 528.2695z" stroke="none" fill="#000000" fill-rule="nonzero" /><path id="155" transform="matrix(1 0 0 -1 0 842)" d="M272.5938 576.3447L273.0894 576.3447L273.0894 528.2695L272.5938 528.2695z" stroke="none" fill="#000000" fill-rule="nonzero" /><path id="156" transform="matrix(1 0 0 -1 0 842)" d="M421.2813 576.3447L421.7769 576.3447L421.7769 528.2695L421.2813 528.2695z" stroke="none" fill="#000000" fill-rule="nonzero" /><path id="157" transform="matrix(1 0 0 -1 0 842)" d="M421.2813 576.3447L471.3394 576.3447L471.3394 575.8496L421.2813 575.8496z" stroke="none" fill="#000000" fill-rule="nonzero" /><path id="158" transform="matrix(1 0 0 -1 0 842)" d="M421.2813 528.7646L471.3394 528.7646L471.3394 528.2695L421.2813 528.2695z" stroke="none" fill="#000000" fill-rule="nonzero" /><path id="159" transform="matrix(1 0 0 -1 0 842)" d="M421.2813 576.3447L421.7769 576.3447L421.7769 528.2695L421.2813 528.2695z" stroke="none" fill="#000000" fill-rule="nonzero" /><path id="160" transform="matrix(1 0 0 -1 0 842)" d="M470.8438 576.3447L471.3394 576.3447L471.3394 528.2695L470.8438 528.2695z" stroke="none" fill="#000000" fill-rule="nonzero" /><path id="161" transform="matrix(1 0 0 -1 0 842)" d="M470.8438 576.3447L545.1875 576.3447L545.1875 575.8496L470.8438 575.8496z" stroke="none" fill="#000000" fill-rule="nonzero" /><path id="162" transform="matrix(1 0 0 -1 0 842)" d="M470.8438 528.7646L545.1875 528.7646L545.1875 528.2695L470.8438 528.2695z" stroke="none" fill="#000000" fill-rule="nonzero" /><path id="163" transform="matrix(1 0 0 -1 0 842)" d="M470.8438 576.3447L471.3394 576.3447L471.3394 528.2695L470.8438 528.2695z" stroke="none" fill="#000000" fill-rule="nonzero" /><path id="164" transform="matrix(1 0 0 -1 0 842)" d="M544.6919 576.3447L545.1875 576.3447L545.1875 528.2695L544.6919 528.2695z" stroke="none" fill="#000000" fill-rule="nonzero" /><path id="165" transform="matrix(1 0 0 -1 0 842)" d="M49.5625 528.7646L74.83938 528.7646L74.83938 528.2695L49.5625 528.2695z" stroke="none" fill="#000000" fill-rule="nonzero" /><path id="166" transform="matrix(1 0 0 -1 0 842)" d="M49.5625 494.5664L74.83938 494.5664L74.83938 494.0713L49.5625 494.0713z" stroke="none" fill="#000000" fill-rule="nonzero" /><path id="167" transform="matrix(1 0 0 -1 0 842)" d="M49.5625 528.7646L50.05813 528.7646L50.05813 494.0713L49.5625 494.0713z" stroke="none" fill="#000000" fill-rule="nonzero" /><path id="168" transform="matrix(1 0 0 -1 0 842)" d="M74.34375 528.7646L74.83938 528.7646L74.83938 494.0713L74.34375 494.0713z" stroke="none" fill="#000000" fill-rule="nonzero" /><path id="169" transform="matrix(1 0 0 -1 0 842)" d="M74.34375 528.7646L149.1831 528.7646L149.1831 528.2695L74.34375 528.2695z" stroke="none" fill="#000000" fill-rule="nonzero" /><path id="170" transform="matrix(1 0 0 -1 0 842)" d="M74.34375 494.5664L149.1831 494.5664L149.1831 494.0713L74.34375 494.0713z" stroke="none" fill="#000000" fill-rule="nonzero" /><path id="171" transform="matrix(1 0 0 -1 0 842)" d="M74.34375 528.7646L74.83938 528.7646L74.83938 494.0713L74.34375 494.0713z" stroke="none" fill="#000000" fill-rule="nonzero" /><path id="172" transform="matrix(1 0 0 -1 0 842)" d="M148.6875 528.7646L149.1831 528.7646L149.1831 494.0713L148.6875 494.0713z" stroke="none" fill="#000000" fill-rule="nonzero" /><path id="173" transform="matrix(1 0 0 -1 0 842)" d="M148.6875 528.7646L223.5269 528.7646L223.5269 528.2695L148.6875 528.2695z" stroke="none" fill="#000000" fill-rule="nonzero" /><path id="174" transform="matrix(1 0 0 -1 0 842)" d="M148.6875 494.5664L223.5269 494.5664L223.5269 494.0713L148.6875 494.0713z" stroke="none" fill="#000000" fill-rule="nonzero" /><path id="175" transform="matrix(1 0 0 -1 0 842)" d="M148.6875 528.7646L149.1831 528.7646L149.1831 494.0713L148.6875 494.0713z" stroke="none" fill="#000000" fill-rule="nonzero" /><path id="176" transform="matrix(1 0 0 -1 0 842)" d="M223.0313 528.7646L223.5269 528.7646L223.5269 494.0713L223.0313 494.0713z" stroke="none" fill="#000000" fill-rule="nonzero" /><path id="177" transform="matrix(1 0 0 -1 0 842)" d="M223.0313 528.7646L273.0894 528.7646L273.0894 528.2695L223.0313 528.2695z" stroke="none" fill="#000000" fill-rule="nonzero" /><path id="178" transform="matrix(1 0 0 -1 0 842)" d="M223.0313 494.5664L273.0894 494.5664L273.0894 494.0713L223.0313 494.0713z" stroke="none" fill="#000000" fill-rule="nonzero" /><path id="179" transform="matrix(1 0 0 -1 0 842)" d="M223.0313 528.7646L223.5269 528.7646L223.5269 494.0713L223.0313 494.0713z" stroke="none" fill="#000000" fill-rule="nonzero" /><path id="180" transform="matrix(1 0 0 -1 0 842)" d="M272.5938 528.7646L273.0894 528.7646L273.0894 494.0713L272.5938 494.0713z" stroke="none" fill="#000000" fill-rule="nonzero" /><path id="181" transform="matrix(1 0 0 -1 0 842)" d="M272.5938 528.7646L421.7769 528.7646L421.7769 528.2695L272.5938 528.2695z" stroke="none" fill="#000000" fill-rule="nonzero" /><path id="182" transform="matrix(1 0 0 -1 0 842)" d="M272.5938 494.5664L421.7769 494.5664L421.7769 494.0713L272.5938 494.0713z" stroke="none" fill="#000000" fill-rule="nonzero" /><path id="183" transform="matrix(1 0 0 -1 0 842)" d="M272.5938 528.7646L273.0894 528.7646L273.0894 494.0713L272.5938 494.0713z" stroke="none" fill="#000000" fill-rule="nonzero" /><path id="184" transform="matrix(1 0 0 -1 0 842)" d="M421.2813 528.7646L421.7769 528.7646L421.7769 494.0713L421.2813 494.0713z" stroke="none" fill="#000000" fill-rule="nonzero" /><path id="185" transform="matrix(1 0 0 -1 0 842)" d="M421.2813 528.7646L471.3394 528.7646L471.3394 528.2695L421.2813 528.2695z" stroke="none" fill="#000000" fill-rule="nonzero" /><path id="186" transform="matrix(1 0 0 -1 0 842)" d="M421.2813 494.5664L471.3394 494.5664L471.3394 494.0713L421.2813 494.0713z" stroke="none" fill="#000000" fill-rule="nonzero" /><path id="187" transform="matrix(1 0 0 -1 0 842)" d="M421.2813 528.7646L421.7769 528.7646L421.7769 494.0713L421.2813 494.0713z" stroke="none" fill="#000000" fill-rule="nonzero" /><path id="188" transform="matrix(1 0 0 -1 0 842)" d="M470.8438 528.7646L471.3394 528.7646L471.3394 494.0713L470.8438 494.0713z" stroke="none" fill="#000000" fill-rule="nonzero" /><path id="189" transform="matrix(1 0 0 -1 0 842)" d="M470.8438 528.7646L545.1875 528.7646L545.1875 528.2695L470.8438 528.2695z" stroke="none" fill="#000000" fill-rule="nonzero" /><path id="190" transform="matrix(1 0 0 -1 0 842)" d="M470.8438 494.5664L545.1875 494.5664L545.1875 494.0713L470.8438 494.0713z" stroke="none" fill="#000000" fill-rule="nonzero" /><path id="191" transform="matrix(1 0 0 -1 0 842)" d="M470.8438 528.7646L471.3394 528.7646L471.3394 494.0713L470.8438 494.0713z" stroke="none" fill="#000000" fill-rule="nonzero" /><path id="192" transform="matrix(1 0 0 -1 0 842)" d="M544.6919 528.7646L545.1875 528.7646L545.1875 494.0713L544.6919 494.0713z" stroke="none" fill="#000000" fill-rule="nonzero" /><path id="193" transform="matrix(1 0 0 -1 0 842)" d="M49.5625 494.5664L74.83938 494.5664L74.83938 494.0713L49.5625 494.0713z" stroke="none" fill="#000000" fill-rule="nonzero" /><path id="194" transform="matrix(1 0 0 -1 0 842)" d="M49.5625 460.3682L74.83938 460.3682L74.83938 459.873L49.5625 459.873z" stroke="none" fill="#000000" fill-rule="nonzero" /><path id="195" transform="matrix(1 0 0 -1 0 842)" d="M49.5625 494.5664L50.05813 494.5664L50.05813 459.873L49.5625 459.873z" stroke="none" fill="#000000" fill-rule="nonzero" /><path id="196" transform="matrix(1 0 0 -1 0 842)" d="M74.34375 494.5664L74.83938 494.5664L74.83938 459.873L74.34375 459.873z" stroke="none" fill="#000000" fill-rule="nonzero" /><path id="197" transform="matrix(1 0 0 -1 0 842)" d="M74.34375 494.5664L149.1831 494.5664L149.1831 494.0713L74.34375 494.0713z" stroke="none" fill="#000000" fill-rule="nonzero" /><path id="198" transform="matrix(1 0 0 -1 0 842)" d="M74.34375 460.3682L149.1831 460.3682L149.1831 459.873L74.34375 459.873z" stroke="none" fill="#000000" fill-rule="nonzero" /><path id="199" transform="matrix(1 0 0 -1 0 842)" d="M74.34375 494.5664L74.83938 494.5664L74.83938 459.873L74.34375 459.873z" stroke="none" fill="#000000" fill-rule="nonzero" /><path id="200" transform="matrix(1 0 0 -1 0 842)" d="M148.6875 494.5664L149.1831 494.5664L149.1831 459.873L148.6875 459.873z" stroke="none" fill="#000000" fill-rule="nonzero" /><path id="201" transform="matrix(1 0 0 -1 0 842)" d="M148.6875 494.5664L223.5269 494.5664L223.5269 494.0713L148.6875 494.0713z" stroke="none" fill="#000000" fill-rule="nonzero" /><path id="202" transform="matrix(1 0 0 -1 0 842)" d="M148.6875 460.3682L223.5269 460.3682L223.5269 459.873L148.6875 459.873z" stroke="none" fill="#000000" fill-rule="nonzero" /><path id="203" transform="matrix(1 0 0 -1 0 842)" d="M148.6875 494.5664L149.1831 494.5664L149.1831 459.873L148.6875 459.873z" stroke="none" fill="#000000" fill-rule="nonzero" /><path id="204" transform="matrix(1 0 0 -1 0 842)" d="M223.0313 494.5664L223.5269 494.5664L223.5269 459.873L223.0313 459.873z" stroke="none" fill="#000000" fill-rule="nonzero" /><path id="205" transform="matrix(1 0 0 -1 0 842)" d="M223.0313 494.5664L273.0894 494.5664L273.0894 494.0713L223.0313 494.0713z" stroke="none" fill="#000000" fill-rule="nonzero" /><path id="206" transform="matrix(1 0 0 -1 0 842)" d="M223.0313 460.3682L273.0894 460.3682L273.0894 459.873L223.0313 459.873z" stroke="none" fill="#000000" fill-rule="nonzero" /><path id="207" transform="matrix(1 0 0 -1 0 842)" d="M223.0313 494.5664L223.5269 494.5664L223.5269 459.873L223.0313 459.873z" stroke="none" fill="#000000" fill-rule="nonzero" /><path id="208" transform="matrix(1 0 0 -1 0 842)" d="M272.5938 494.5664L273.0894 494.5664L273.0894 459.873L272.5938 459.873z" stroke="none" fill="#000000" fill-rule="nonzero" /><path id="209" transform="matrix(1 0 0 -1 0 842)" d="M272.5938 494.5664L421.7769 494.5664L421.7769 494.0713L272.5938 494.0713z" stroke="none" fill="#000000" fill-rule="nonzero" /><path id="210" transform="matrix(1 0 0 -1 0 842)" d="M272.5938 460.3682L421.7769 460.3682L421.7769 459.873L272.5938 459.873z" stroke="none" fill="#000000" fill-rule="nonzero" /><path id="211" transform="matrix(1 0 0 -1 0 842)" d="M272.5938 494.5664L273.0894 494.5664L273.0894 459.873L272.5938 459.873z" stroke="none" fill="#000000" fill-rule="nonzero" /><path id="212" transform="matrix(1 0 0 -1 0 842)" d="M421.2813 494.5664L421.7769 494.5664L421.7769 459.873L421.2813 459.873z" stroke="none" fill="#000000" fill-rule="nonzero" /><path id="213" transform="matrix(1 0 0 -1 0 842)" d="M421.2813 494.5664L471.3394 494.5664L471.3394 494.0713L421.2813 494.0713z" stroke="none" fill="#000000" fill-rule="nonzero" /><path id="214" transform="matrix(1 0 0 -1 0 842)" d="M421.2813 460.3682L471.3394 460.3682L471.3394 459.873L421.2813 459.873z" stroke="none" fill="#000000" fill-rule="nonzero" /><path id="215" transform="matrix(1 0 0 -1 0 842)" d="M421.2813 494.5664L421.7769 494.5664L421.7769 459.873L421.2813 459.873z" stroke="none" fill="#000000" fill-rule="nonzero" /><path id="216" transform="matrix(1 0 0 -1 0 842)" d="M470.8438 494.5664L471.3394 494.5664L471.3394 459.873L470.8438 459.873z" stroke="none" fill="#000000" fill-rule="nonzero" /><path id="217" transform="matrix(1 0 0 -1 0 842)" d="M470.8438 494.5664L545.1875 494.5664L545.1875 494.0713L470.8438 494.0713z" stroke="none" fill="#000000" fill-rule="nonzero" /><path id="218" transform="matrix(1 0 0 -1 0 842)" d="M470.8438 460.3682L545.1875 460.3682L545.1875 459.873L470.8438 459.873z" stroke="none" fill="#000000" fill-rule="nonzero" /><path id="219" transform="matrix(1 0 0 -1 0 842)" d="M470.8438 494.5664L471.3394 494.5664L471.3394 459.873L470.8438 459.873z" stroke="none" fill="#000000" fill-rule="nonzero" /><path id="220" transform="matrix(1 0 0 -1 0 842)" d="M544.6919 494.5664L545.1875 494.5664L545.1875 459.873L544.6919 459.873z" stroke="none" fill="#000000" fill-rule="nonzero" /></g></g></g></svg>