<svg xmlns="http://www.w3.org/2000/svg" xmlns:xlink="http://www.w3.org/1999/xlink" id="body_3" preserveAspectRatio="xMinYMin meet" viewBox="0 0 793 1123"><defs><clipPath id="1"><path id="" clip-rule="evenodd" transform="matrix(1 0 0 1 0 0)" d="M0 842L0 0L0 0L595 0L595 0L595 842L595 842L0 842z" /></clipPath><clipPath id="2"><path id="" clip-rule="evenodd" transform="matrix(1 0 0 1 0 0)" d="M0 0L594.75 0L594.75 0L594.75 842.0669L594.75 842.0669L0 842.0669L0 842.0669L0 0z" /></clipPath></defs><g transform="matrix(1.333333 0 0 1.333333 0 0)"><g clip-path="url(#1)"><g clip-path="url(#2)"><path id="1" transform="matrix(1 0 0 -1 0 842)" d="M0 842L594.75 842L594.75 -0.06689453L0 -0.06689453z" stroke="none" fill="#FFFFFF" fill-rule="nonzero" /><path id="2" transform="matrix(1 0 0 -1 0 842)" d="M49.06688 742.875L545.6832 742.875L545.6832 739.4056L49.06688 739.4056z" stroke="none" fill="#5EACE5" fill-rule="nonzero" /><path id="3" transform="matrix(1 0 0 -1 0 842)" d="M49.06688 613.0212L545.6832 613.0212L545.6832 609.5519L49.06688 609.5519z" stroke="none" fill="#5EACE5" fill-rule="nonzero" /><path id="4" transform="matrix(1 0 0 -1 0 842)" d="M49.06688 737.4231L545.6832 737.4231L545.6832 736.9275L49.06688 736.9275z" stroke="none" fill="#5EACE5" fill-rule="nonzero" /><path id="5" transform="matrix(1 0 0 -1 0 842)" d="M49.06688 615.4994L545.6832 615.4994L545.6832 615.0037L49.06688 615.0037z" stroke="none" fill="#5EACE5" fill-rule="nonzero" /><path id="6" transform="matrix(1 0 0 -1 0 842)" d="M49.5625 442.5261L111.02 442.5261L111.02 422.7012L49.5625 422.7012z" stroke="none" fill="#E2F3FD" fill-rule="nonzero" /><path id="7" transform="matrix(1 0 0 -1 0 842)" d="M49.5625 442.5261L111.02 442.5261L111.02 422.7012L49.5625 422.7012z" stroke="none" fill="#9CC9F0" fill-rule="nonzero" /><path id="8" transform="matrix(1 0 0 -1 0 842)" d="M111.02 442.5261L209.1538 442.5261L209.1538 422.7012L111.02 422.7012z" stroke="none" fill="#E2F3FD" fill-rule="nonzero" /><path id="9" transform="matrix(1 0 0 -1 0 842)" d="M111.02 442.5261L209.1538 442.5261L209.1538 422.7012L111.02 422.7012z" stroke="none" fill="#9CC9F0" fill-rule="nonzero" /><path id="10" transform="matrix(1 0 0 -1 0 842)" d="M209.1538 442.5261L294.8969 442.5261L294.8969 422.7012L209.1538 422.7012z" stroke="none" fill="#E2F3FD" fill-rule="nonzero" /><path id="11" transform="matrix(1 0 0 -1 0 842)" d="M209.1538 442.5261L294.8969 442.5261L294.8969 422.7012L209.1538 422.7012z" stroke="none" fill="#9CC9F0" fill-rule="nonzero" /><path id="12" transform="matrix(1 0 0 -1 0 842)" d="M49.5625 422.7012L111.02 422.7012L111.02 383.0513L49.5625 383.0513z" stroke="none" fill="#FFFFFF" fill-rule="nonzero" /><path id="13" transform="matrix(1 0 0 -1 0 842)" d="M111.02 402.8762L209.1538 402.8762L209.1538 383.0513L111.02 383.0513z" stroke="none" fill="#E2F3FD" fill-rule="nonzero" /><path id="14" transform="matrix(1 0 0 -1 0 842)" d="M209.1538 402.8762L294.8969 402.8762L294.8969 383.0513L209.1538 383.0513z" stroke="none" fill="#E2F3FD" fill-rule="nonzero" /><path id="15" transform="matrix(1 0 0 -1 0 842)" d="M49.5625 383.0513L111.02 383.0513L111.02 363.2263L49.5625 363.2263z" stroke="none" fill="#FFFFFF" fill-rule="nonzero" /><path id="16" transform="matrix(1 0 0 -1 0 842)" d="M49.5625 363.2263L111.02 363.2263L111.02 343.4011L49.5625 343.4011z" stroke="none" fill="#E2F3FD" fill-rule="nonzero" /><path id="17" transform="matrix(1 0 0 -1 0 842)" d="M49.5625 363.2263L111.02 363.2263L111.02 343.4011L49.5625 343.4011z" stroke="none" fill="#FFFFFF" fill-rule="nonzero" /><path id="18" transform="matrix(1 0 0 -1 0 842)" d="M111.02 363.2263L209.1538 363.2263L209.1538 343.4011L111.02 343.4011z" stroke="none" fill="#E2F3FD" fill-rule="nonzero" /><path id="19" transform="matrix(1 0 0 -1 0 842)" d="M209.1538 363.2263L294.8969 363.2263L294.8969 343.4011L209.1538 343.4011z" stroke="none" fill="#E2F3FD" fill-rule="nonzero" /><path id="20" transform="matrix(1 0 0 -1 0 842)" d="M49.5625 343.4011L111.02 343.4011L111.02 323.5762L49.5625 323.5762z" stroke="none" fill="#FFFFFF" fill-rule="nonzero" /><path id="21" transform="matrix(1 0 0 -1 0 842)" d="M49.5625 323.5762L111.02 323.5762L111.02 303.7512L49.5625 303.7512z" stroke="none" fill="#E2F3FD" fill-rule="nonzero" /><path id="22" transform="matrix(1 0 0 -1 0 842)" d="M49.5625 323.5762L111.02 323.5762L111.02 303.7512L49.5625 303.7512z" stroke="none" fill="#FFFFFF" fill-rule="nonzero" /><path id="23" transform="matrix(1 0 0 -1 0 842)" d="M111.02 323.5762L209.1538 323.5762L209.1538 303.7512L111.02 303.7512z" stroke="none" fill="#E2F3FD" fill-rule="nonzero" /><path id="24" transform="matrix(1 0 0 -1 0 842)" d="M209.1538 323.5762L294.8969 323.5762L294.8969 303.7512L209.1538 303.7512z" stroke="none" fill="#E2F3FD" fill-rule="nonzero" /><path id="25" transform="matrix(1 0 0 -1 0 842)" d="M49.5625 303.7512L111.02 303.7512L111.02 283.9263L49.5625 283.9263z" stroke="none" fill="#FFFFFF" fill-rule="nonzero" /><path id="26" transform="matrix(1 0 0 -1 0 842)" d="M49.5625 283.9263L111.02 283.9263L111.02 264.1013L49.5625 264.1013z" stroke="none" fill="#E2F3FD" fill-rule="nonzero" /><path id="27" transform="matrix(1 0 0 -1 0 842)" d="M49.5625 283.9263L111.02 283.9263L111.02 264.1013L49.5625 264.1013z" stroke="none" fill="#FFFFFF" fill-rule="nonzero" /><path id="28" transform="matrix(1 0 0 -1 0 842)" d="M111.02 283.9263L209.1538 283.9263L209.1538 264.1013L111.02 264.1013z" stroke="none" fill="#E2F3FD" fill-rule="nonzero" /><path id="29" transform="matrix(1 0 0 -1 0 842)" d="M209.1538 283.9263L294.8969 283.9263L294.8969 264.1013L209.1538 264.1013z" stroke="none" fill="#E2F3FD" fill-rule="nonzero" /><path id="30" transform="matrix(1 0 0 -1 0 842)" d="M49.5625 264.1013L111.02 264.1013L111.02 244.2761L49.5625 244.2761z" stroke="none" fill="#FFFFFF" fill-rule="nonzero" /><path id="31" transform="matrix(1 0 0 -1 0 842)" d="M49.5625 244.2761L111.02 244.2761L111.02 224.4512L49.5625 224.4512z" stroke="none" fill="#E2F3FD" fill-rule="nonzero" /><path id="32" transform="matrix(1 0 0 -1 0 842)" d="M49.5625 244.2761L111.02 244.2761L111.02 224.4512L49.5625 224.4512z" stroke="none" fill="#FFFFFF" fill-rule="nonzero" /><path id="33" transform="matrix(1 0 0 -1 0 842)" d="M111.02 244.2761L209.1538 244.2761L209.1538 224.4512L111.02 224.4512z" stroke="none" fill="#E2F3FD" fill-rule="nonzero" /><path id="34" transform="matrix(1 0 0 -1 0 842)" d="M209.1538 244.2761L294.8969 244.2761L294.8969 224.4512L209.1538 224.4512z" stroke="none" fill="#E2F3FD" fill-rule="nonzero" /><path id="35" transform="matrix(1 0 0 -1 0 842)" d="M49.5625 224.4512L111.02 224.4512L111.02 184.8013L49.5625 184.8013z" stroke="none" fill="#FFFFFF" fill-rule="nonzero" /><path id="36" transform="matrix(1 0 0 -1 0 842)" d="M111.02 204.6262L209.1538 204.6262L209.1538 184.8013L111.02 184.8013z" stroke="none" fill="#E2F3FD" fill-rule="nonzero" /><path id="37" transform="matrix(1 0 0 -1 0 842)" d="M209.1538 204.6262L294.8969 204.6262L294.8969 184.8013L209.1538 184.8013z" stroke="none" fill="#E2F3FD" fill-rule="nonzero" /><path id="38" transform="matrix(1 0 0 -1 0 842)" d="M49.5625 184.8013L111.02 184.8013L111.02 164.9763L49.5625 164.9763z" stroke="none" fill="#FFFFFF" fill-rule="nonzero" /><path id="39" transform="matrix(1 0 0 -1 0 842)" d="M49.5625 164.9763L111.02 164.9763L111.02 145.1511L49.5625 145.1511z" stroke="none" fill="#E2F3FD" fill-rule="nonzero" /><path id="40" transform="matrix(1 0 0 -1 0 842)" d="M49.5625 164.9763L111.02 164.9763L111.02 145.1511L49.5625 145.1511z" stroke="none" fill="#FFFFFF" fill-rule="nonzero" /><path id="41" transform="matrix(1 0 0 -1 0 842)" d="M111.02 164.9763L209.1538 164.9763L209.1538 145.1511L111.02 145.1511z" stroke="none" fill="#E2F3FD" fill-rule="nonzero" /><path id="42" transform="matrix(1 0 0 -1 0 842)" d="M209.1538 164.9763L294.8969 164.9763L294.8969 145.1511L209.1538 145.1511z" stroke="none" fill="#E2F3FD" fill-rule="nonzero" /><path id="43" transform="matrix(1 0 0 -1 0 842)" d="M49.5625 145.1511L111.02 145.1511L111.02 125.3262L49.5625 125.3262z" stroke="none" fill="#FFFFFF" fill-rule="nonzero" /><path id="44" transform="matrix(1 0 0 -1 0 842)" d="M49.5625 125.3262L111.02 125.3262L111.02 105.5012L49.5625 105.5012z" stroke="none" fill="#E2F3FD" fill-rule="nonzero" /><path id="45" transform="matrix(1 0 0 -1 0 842)" d="M49.5625 125.3262L111.02 125.3262L111.02 105.5012L49.5625 105.5012z" stroke="none" fill="#FFFFFF" fill-rule="nonzero" /><path id="46" transform="matrix(1 0 0 -1 0 842)" d="M111.02 125.3262L209.1538 125.3262L209.1538 105.5012L111.02 105.5012z" stroke="none" fill="#E2F3FD" fill-rule="nonzero" /><path id="47" transform="matrix(1 0 0 -1 0 842)" d="M209.1538 125.3262L294.8969 125.3262L294.8969 105.5012L209.1538 105.5012z" stroke="none" fill="#E2F3FD" fill-rule="nonzero" /><path id="48" transform="matrix(1 0 0 -1 0 842)" d="M49.5625 105.5012L111.02 105.5012L111.02 85.67627L49.5625 85.67627z" stroke="none" fill="#FFFFFF" fill-rule="nonzero" /><path id="49" transform="matrix(1 0 0 -1 0 842)" d="M49.5625 442.5261L111.5156 442.5261L111.5156 442.0305L49.5625 442.0305z" stroke="none" fill="#000000" fill-rule="nonzero" /><path id="50" transform="matrix(1 0 0 -1 0 842)" d="M49.5625 422.7012L111.5156 422.7012L111.5156 422.2056L49.5625 422.2056z" stroke="none" fill="#000000" fill-rule="nonzero" /><path id="51" transform="matrix(1 0 0 -1 0 842)" d="M49.5625 442.5261L50.05813 442.5261L50.05813 422.2056L49.5625 422.2056z" stroke="none" fill="#000000" fill-rule="nonzero" /><path id="52" transform="matrix(1 0 0 -1 0 842)" d="M111.02 442.5261L111.5156 442.5261L111.5156 422.2056L111.02 422.2056z" stroke="none" fill="#000000" fill-rule="nonzero" /><path id="53" transform="matrix(1 0 0 -1 0 842)" d="M111.02 442.5261L209.6494 442.5261L209.6494 442.0305L111.02 442.0305z" stroke="none" fill="#000000" fill-rule="nonzero" /><path id="54" transform="matrix(1 0 0 -1 0 842)" d="M111.02 422.7012L209.6494 422.7012L209.6494 422.2056L111.02 422.2056z" stroke="none" fill="#000000" fill-rule="nonzero" /><path id="55" transform="matrix(1 0 0 -1 0 842)" d="M111.02 442.5261L111.5156 442.5261L111.5156 422.2056L111.02 422.2056z" stroke="none" fill="#000000" fill-rule="nonzero" /><path id="56" transform="matrix(1 0 0 -1 0 842)" d="M209.1538 442.5261L209.6494 442.5261L209.6494 422.2056L209.1538 422.2056z" stroke="none" fill="#000000" fill-rule="nonzero" /><path id="57" transform="matrix(1 0 0 -1 0 842)" d="M209.1538 442.5261L294.8969 442.5261L294.8969 442.0305L209.1538 442.0305z" stroke="none" fill="#000000" fill-rule="nonzero" /><path id="58" transform="matrix(1 0 0 -1 0 842)" d="M209.1538 422.7012L294.8969 422.7012L294.8969 422.2056L209.1538 422.2056z" stroke="none" fill="#000000" fill-rule="nonzero" /><path id="59" transform="matrix(1 0 0 -1 0 842)" d="M209.1538 442.5261L209.6494 442.5261L209.6494 422.2056L209.1538 422.2056z" stroke="none" fill="#000000" fill-rule="nonzero" /><path id="60" transform="matrix(1 0 0 -1 0 842)" d="M49.5625 422.7012L111.5156 422.7012L111.5156 422.2056L49.5625 422.2056z" stroke="none" fill="#000000" fill-rule="nonzero" /><path id="61" transform="matrix(1 0 0 -1 0 842)" d="M49.5625 383.0513L111.5156 383.0513L111.5156 382.5557L49.5625 382.5557z" stroke="none" fill="#000000" fill-rule="nonzero" /><path id="62" transform="matrix(1 0 0 -1 0 842)" d="M49.5625 422.7012L50.05813 422.7012L50.05813 382.5557L49.5625 382.5557z" stroke="none" fill="#000000" fill-rule="nonzero" /><path id="63" transform="matrix(1 0 0 -1 0 842)" d="M111.02 422.7012L111.5156 422.7012L111.5156 382.5557L111.02 382.5557z" stroke="none" fill="#000000" fill-rule="nonzero" /><path id="64" transform="matrix(1 0 0 -1 0 842)" d="M111.02 422.7012L209.6494 422.7012L209.6494 422.2056L111.02 422.2056z" stroke="none" fill="#000000" fill-rule="nonzero" /><path id="65" transform="matrix(1 0 0 -1 0 842)" d="M111.02 402.8762L209.6494 402.8762L209.6494 402.3806L111.02 402.3806z" stroke="none" fill="#000000" fill-rule="nonzero" /><path id="66" transform="matrix(1 0 0 -1 0 842)" d="M111.02 422.7012L111.5156 422.7012L111.5156 402.3806L111.02 402.3806z" stroke="none" fill="#000000" fill-rule="nonzero" /><path id="67" transform="matrix(1 0 0 -1 0 842)" d="M209.1538 422.7012L209.6494 422.7012L209.6494 402.3806L209.1538 402.3806z" stroke="none" fill="#000000" fill-rule="nonzero" /><path id="68" transform="matrix(1 0 0 -1 0 842)" d="M209.1538 422.7012L294.8969 422.7012L294.8969 422.2056L209.1538 422.2056z" stroke="none" fill="#000000" fill-rule="nonzero" /><path id="69" transform="matrix(1 0 0 -1 0 842)" d="M209.1538 402.8762L294.8969 402.8762L294.8969 402.3806L209.1538 402.3806z" stroke="none" fill="#000000" fill-rule="nonzero" /><path id="70" transform="matrix(1 0 0 -1 0 842)" d="M209.1538 422.7012L209.6494 422.7012L209.6494 402.3806L209.1538 402.3806z" stroke="none" fill="#000000" fill-rule="nonzero" /><path id="71" transform="matrix(1 0 0 -1 0 842)" d="M111.02 402.8762L209.6494 402.8762L209.6494 402.3806L111.02 402.3806z" stroke="none" fill="#000000" fill-rule="nonzero" /><path id="72" transform="matrix(1 0 0 -1 0 842)" d="M111.02 383.0513L209.6494 383.0513L209.6494 382.5557L111.02 382.5557z" stroke="none" fill="#000000" fill-rule="nonzero" /><path id="73" transform="matrix(1 0 0 -1 0 842)" d="M111.02 402.8762L111.5156 402.8762L111.5156 382.5557L111.02 382.5557z" stroke="none" fill="#000000" fill-rule="nonzero" /><path id="74" transform="matrix(1 0 0 -1 0 842)" d="M209.1538 402.8762L209.6494 402.8762L209.6494 382.5557L209.1538 382.5557z" stroke="none" fill="#000000" fill-rule="nonzero" /><path id="75" transform="matrix(1 0 0 -1 0 842)" d="M209.1538 402.8762L294.8969 402.8762L294.8969 402.3806L209.1538 402.3806z" stroke="none" fill="#000000" fill-rule="nonzero" /><path id="76" transform="matrix(1 0 0 -1 0 842)" d="M209.1538 383.0513L294.8969 383.0513L294.8969 382.5557L209.1538 382.5557z" stroke="none" fill="#000000" fill-rule="nonzero" /><path id="77" transform="matrix(1 0 0 -1 0 842)" d="M209.1538 402.8762L209.6494 402.8762L209.6494 382.5557L209.1538 382.5557z" stroke="none" fill="#000000" fill-rule="nonzero" /><path id="78" transform="matrix(1 0 0 -1 0 842)" d="M49.5625 383.0513L111.5156 383.0513L111.5156 382.5557L49.5625 382.5557z" stroke="none" fill="#000000" fill-rule="nonzero" /><path id="79" transform="matrix(1 0 0 -1 0 842)" d="M49.5625 363.2263L111.5156 363.2263L111.5156 362.7305L49.5625 362.7305z" stroke="none" fill="#000000" fill-rule="nonzero" /><path id="80" transform="matrix(1 0 0 -1 0 842)" d="M49.5625 383.0513L50.05813 383.0513L50.05813 362.7305L49.5625 362.7305z" stroke="none" fill="#000000" fill-rule="nonzero" /><path id="81" transform="matrix(1 0 0 -1 0 842)" d="M111.02 383.0513L111.5156 383.0513L111.5156 362.7305L111.02 362.7305z" stroke="none" fill="#000000" fill-rule="nonzero" /><path id="82" transform="matrix(1 0 0 -1 0 842)" d="M111.02 383.0513L209.6494 383.0513L209.6494 382.5557L111.02 382.5557z" stroke="none" fill="#000000" fill-rule="nonzero" /><path id="83" transform="matrix(1 0 0 -1 0 842)" d="M111.02 363.2263L209.6494 363.2263L209.6494 362.7305L111.02 362.7305z" stroke="none" fill="#000000" fill-rule="nonzero" /><path id="84" transform="matrix(1 0 0 -1 0 842)" d="M111.02 383.0513L111.5156 383.0513L111.5156 362.7305L111.02 362.7305z" stroke="none" fill="#000000" fill-rule="nonzero" /><path id="85" transform="matrix(1 0 0 -1 0 842)" d="M209.1538 383.0513L209.6494 383.0513L209.6494 362.7305L209.1538 362.7305z" stroke="none" fill="#000000" fill-rule="nonzero" /><path id="86" transform="matrix(1 0 0 -1 0 842)" d="M209.1538 383.0513L294.8969 383.0513L294.8969 382.5557L209.1538 382.5557z" stroke="none" fill="#000000" fill-rule="nonzero" /><path id="87" transform="matrix(1 0 0 -1 0 842)" d="M209.1538 363.2263L294.8969 363.2263L294.8969 362.7305L209.1538 362.7305z" stroke="none" fill="#000000" fill-rule="nonzero" /><path id="88" transform="matrix(1 0 0 -1 0 842)" d="M209.1538 383.0513L209.6494 383.0513L209.6494 362.7305L209.1538 362.7305z" stroke="none" fill="#000000" fill-rule="nonzero" /><path id="89" transform="matrix(1 0 0 -1 0 842)" d="M49.5625 363.2263L111.5156 363.2263L111.5156 362.7305L49.5625 362.7305z" stroke="none" fill="#000000" fill-rule="nonzero" /><path id="90" transform="matrix(1 0 0 -1 0 842)" d="M49.5625 343.4011L111.5156 343.4011L111.5156 342.9055L49.5625 342.9055z" stroke="none" fill="#000000" fill-rule="nonzero" /><path id="91" transform="matrix(1 0 0 -1 0 842)" d="M49.5625 363.2263L50.05813 363.2263L50.05813 342.9055L49.5625 342.9055z" stroke="none" fill="#000000" fill-rule="nonzero" /><path id="92" transform="matrix(1 0 0 -1 0 842)" d="M111.02 363.2263L111.5156 363.2263L111.5156 342.9055L111.02 342.9055z" stroke="none" fill="#000000" fill-rule="nonzero" /><path id="93" transform="matrix(1 0 0 -1 0 842)" d="M111.02 363.2263L209.6494 363.2263L209.6494 362.7305L111.02 362.7305z" stroke="none" fill="#000000" fill-rule="nonzero" /><path id="94" transform="matrix(1 0 0 -1 0 842)" d="M111.02 343.4011L209.6494 343.4011L209.6494 342.9055L111.02 342.9055z" stroke="none" fill="#000000" fill-rule="nonzero" /><path id="95" transform="matrix(1 0 0 -1 0 842)" d="M111.02 363.2263L111.5156 363.2263L111.5156 342.9055L111.02 342.9055z" stroke="none" fill="#000000" fill-rule="nonzero" /><path id="96" transform="matrix(1 0 0 -1 0 842)" d="M209.1538 363.2263L209.6494 363.2263L209.6494 342.9055L209.1538 342.9055z" stroke="none" fill="#000000" fill-rule="nonzero" /><path id="97" transform="matrix(1 0 0 -1 0 842)" d="M209.1538 363.2263L294.8969 363.2263L294.8969 362.7305L209.1538 362.7305z" stroke="none" fill="#000000" fill-rule="nonzero" /><path id="98" transform="matrix(1 0 0 -1 0 842)" d="M209.1538 343.4011L294.8969 343.4011L294.8969 342.9055L209.1538 342.9055z" stroke="none" fill="#000000" fill-rule="nonzero" /><path id="99" transform="matrix(1 0 0 -1 0 842)" d="M209.1538 363.2263L209.6494 363.2263L209.6494 342.9055L209.1538 342.9055z" stroke="none" fill="#000000" fill-rule="nonzero" /><path id="100" transform="matrix(1 0 0 -1 0 842)" d="M49.5625 343.4011L111.5156 343.4011L111.5156 342.9055L49.5625 342.9055z" stroke="none" fill="#000000" fill-rule="nonzero" /><path id="101" transform="matrix(1 0 0 -1 0 842)" d="M49.5625 323.5762L111.5156 323.5762L111.5156 323.0806L49.5625 323.0806z" stroke="none" fill="#000000" fill-rule="nonzero" /><path id="102" transform="matrix(1 0 0 -1 0 842)" d="M49.5625 343.4011L50.05813 343.4011L50.05813 323.0806L49.5625 323.0806z" stroke="none" fill="#000000" fill-rule="nonzero" /><path id="103" transform="matrix(1 0 0 -1 0 842)" d="M111.02 343.4011L111.5156 343.4011L111.5156 323.0806L111.02 323.0806z" stroke="none" fill="#000000" fill-rule="nonzero" /><path id="104" transform="matrix(1 0 0 -1 0 842)" d="M111.02 343.4011L209.6494 343.4011L209.6494 342.9055L111.02 342.9055z" stroke="none" fill="#000000" fill-rule="nonzero" /><path id="105" transform="matrix(1 0 0 -1 0 842)" d="M111.02 323.5762L209.6494 323.5762L209.6494 323.0806L111.02 323.0806z" stroke="none" fill="#000000" fill-rule="nonzero" /><path id="106" transform="matrix(1 0 0 -1 0 842)" d="M111.02 343.4011L111.5156 343.4011L111.5156 323.0806L111.02 323.0806z" stroke="none" fill="#000000" fill-rule="nonzero" /><path id="107" transform="matrix(1 0 0 -1 0 842)" d="M209.1538 343.4011L209.6494 343.4011L209.6494 323.0806L209.1538 323.0806z" stroke="none" fill="#000000" fill-rule="nonzero" /><path id="108" transform="matrix(1 0 0 -1 0 842)" d="M209.1538 343.4011L294.8969 343.4011L294.8969 342.9055L209.1538 342.9055z" stroke="none" fill="#000000" fill-rule="nonzero" /><path id="109" transform="matrix(1 0 0 -1 0 842)" d="M209.1538 323.5762L294.8969 323.5762L294.8969 323.0806L209.1538 323.0806z" stroke="none" fill="#000000" fill-rule="nonzero" /><path id="110" transform="matrix(1 0 0 -1 0 842)" d="M209.1538 343.4011L209.6494 343.4011L209.6494 323.0806L209.1538 323.0806z" stroke="none" fill="#000000" fill-rule="nonzero" /><path id="111" transform="matrix(1 0 0 -1 0 842)" d="M49.5625 323.5762L111.5156 323.5762L111.5156 323.0806L49.5625 323.0806z" stroke="none" fill="#000000" fill-rule="nonzero" /><path id="112" transform="matrix(1 0 0 -1 0 842)" d="M49.5625 303.7512L111.5156 303.7512L111.5156 303.2556L49.5625 303.2556z" stroke="none" fill="#000000" fill-rule="nonzero" /><path id="113" transform="matrix(1 0 0 -1 0 842)" d="M49.5625 323.5762L50.05813 323.5762L50.05813 303.2556L49.5625 303.2556z" stroke="none" fill="#000000" fill-rule="nonzero" /><path id="114" transform="matrix(1 0 0 -1 0 842)" d="M111.02 323.5762L111.5156 323.5762L111.5156 303.2556L111.02 303.2556z" stroke="none" fill="#000000" fill-rule="nonzero" /><path id="115" transform="matrix(1 0 0 -1 0 842)" d="M111.02 323.5762L209.6494 323.5762L209.6494 323.0806L111.02 323.0806z" stroke="none" fill="#000000" fill-rule="nonzero" /><path id="116" transform="matrix(1 0 0 -1 0 842)" d="M111.02 303.7512L209.6494 303.7512L209.6494 303.2556L111.02 303.2556z" stroke="none" fill="#000000" fill-rule="nonzero" /><path id="117" transform="matrix(1 0 0 -1 0 842)" d="M111.02 323.5762L111.5156 323.5762L111.5156 303.2556L111.02 303.2556z" stroke="none" fill="#000000" fill-rule="nonzero" /><path id="118" transform="matrix(1 0 0 -1 0 842)" d="M209.1538 323.5762L209.6494 323.5762L209.6494 303.2556L209.1538 303.2556z" stroke="none" fill="#000000" fill-rule="nonzero" /><path id="119" transform="matrix(1 0 0 -1 0 842)" d="M209.1538 323.5762L294.8969 323.5762L294.8969 323.0806L209.1538 323.0806z" stroke="none" fill="#000000" fill-rule="nonzero" /><path id="120" transform="matrix(1 0 0 -1 0 842)" d="M209.1538 303.7512L294.8969 303.7512L294.8969 303.2556L209.1538 303.2556z" stroke="none" fill="#000000" fill-rule="nonzero" /><path id="121" transform="matrix(1 0 0 -1 0 842)" d="M209.1538 323.5762L209.6494 323.5762L209.6494 303.2556L209.1538 303.2556z" stroke="none" fill="#000000" fill-rule="nonzero" /><path id="122" transform="matrix(1 0 0 -1 0 842)" d="M49.5625 303.7512L111.5156 303.7512L111.5156 303.2556L49.5625 303.2556z" stroke="none" fill="#000000" fill-rule="nonzero" /><path id="123" transform="matrix(1 0 0 -1 0 842)" d="M49.5625 283.9263L111.5156 283.9263L111.5156 283.4307L49.5625 283.4307z" stroke="none" fill="#000000" fill-rule="nonzero" /><path id="124" transform="matrix(1 0 0 -1 0 842)" d="M49.5625 303.7512L50.05813 303.7512L50.05813 283.4307L49.5625 283.4307z" stroke="none" fill="#000000" fill-rule="nonzero" /><path id="125" transform="matrix(1 0 0 -1 0 842)" d="M111.02 303.7512L111.5156 303.7512L111.5156 283.4307L111.02 283.4307z" stroke="none" fill="#000000" fill-rule="nonzero" /><path id="126" transform="matrix(1 0 0 -1 0 842)" d="M111.02 303.7512L209.6494 303.7512L209.6494 303.2556L111.02 303.2556z" stroke="none" fill="#000000" fill-rule="nonzero" /><path id="127" transform="matrix(1 0 0 -1 0 842)" d="M111.02 283.9263L209.6494 283.9263L209.6494 283.4307L111.02 283.4307z" stroke="none" fill="#000000" fill-rule="nonzero" /><path id="128" transform="matrix(1 0 0 -1 0 842)" d="M111.02 303.7512L111.5156 303.7512L111.5156 283.4307L111.02 283.4307z" stroke="none" fill="#000000" fill-rule="nonzero" /><path id="129" transform="matrix(1 0 0 -1 0 842)" d="M209.1538 303.7512L209.6494 303.7512L209.6494 283.4307L209.1538 283.4307z" stroke="none" fill="#000000" fill-rule="nonzero" /><path id="130" transform="matrix(1 0 0 -1 0 842)" d="M209.1538 303.7512L294.8969 303.7512L294.8969 303.2556L209.1538 303.2556z" stroke="none" fill="#000000" fill-rule="nonzero" /><path id="131" transform="matrix(1 0 0 -1 0 842)" d="M209.1538 283.9263L294.8969 283.9263L294.8969 283.4307L209.1538 283.4307z" stroke="none" fill="#000000" fill-rule="nonzero" /><path id="132" transform="matrix(1 0 0 -1 0 842)" d="M209.1538 303.7512L209.6494 303.7512L209.6494 283.4307L209.1538 283.4307z" stroke="none" fill="#000000" fill-rule="nonzero" /><path id="133" transform="matrix(1 0 0 -1 0 842)" d="M49.5625 283.9263L111.5156 283.9263L111.5156 283.4307L49.5625 283.4307z" stroke="none" fill="#000000" fill-rule="nonzero" /><path id="134" transform="matrix(1 0 0 -1 0 842)" d="M49.5625 264.1013L111.5156 264.1013L111.5156 263.6055L49.5625 263.6055z" stroke="none" fill="#000000" fill-rule="nonzero" /><path id="135" transform="matrix(1 0 0 -1 0 842)" d="M49.5625 283.9263L50.05813 283.9263L50.05813 263.6055L49.5625 263.6055z" stroke="none" fill="#000000" fill-rule="nonzero" /><path id="136" transform="matrix(1 0 0 -1 0 842)" d="M111.02 283.9263L111.5156 283.9263L111.5156 263.6055L111.02 263.6055z" stroke="none" fill="#000000" fill-rule="nonzero" /><path id="137" transform="matrix(1 0 0 -1 0 842)" d="M111.02 283.9263L209.6494 283.9263L209.6494 283.4307L111.02 283.4307z" stroke="none" fill="#000000" fill-rule="nonzero" /><path id="138" transform="matrix(1 0 0 -1 0 842)" d="M111.02 264.1013L209.6494 264.1013L209.6494 263.6055L111.02 263.6055z" stroke="none" fill="#000000" fill-rule="nonzero" /><path id="139" transform="matrix(1 0 0 -1 0 842)" d="M111.02 283.9263L111.5156 283.9263L111.5156 263.6055L111.02 263.6055z" stroke="none" fill="#000000" fill-rule="nonzero" /><path id="140" transform="matrix(1 0 0 -1 0 842)" d="M209.1538 283.9263L209.6494 283.9263L209.6494 263.6055L209.1538 263.6055z" stroke="none" fill="#000000" fill-rule="nonzero" /><path id="141" transform="matrix(1 0 0 -1 0 842)" d="M209.1538 283.9263L294.8969 283.9263L294.8969 283.4307L209.1538 283.4307z" stroke="none" fill="#000000" fill-rule="nonzero" /><path id="142" transform="matrix(1 0 0 -1 0 842)" d="M209.1538 264.1013L294.8969 264.1013L294.8969 263.6055L209.1538 263.6055z" stroke="none" fill="#000000" fill-rule="nonzero" /><path id="143" transform="matrix(1 0 0 -1 0 842)" d="M209.1538 283.9263L209.6494 283.9263L209.6494 263.6055L209.1538 263.6055z" stroke="none" fill="#000000" fill-rule="nonzero" /><path id="144" transform="matrix(1 0 0 -1 0 842)" d="M49.5625 264.1013L111.5156 264.1013L111.5156 263.6055L49.5625 263.6055z" stroke="none" fill="#000000" fill-rule="nonzero" /><path id="145" transform="matrix(1 0 0 -1 0 842)" d="M49.5625 244.2761L111.5156 244.2761L111.5156 243.7805L49.5625 243.7805z" stroke="none" fill="#000000" fill-rule="nonzero" /><path id="146" transform="matrix(1 0 0 -1 0 842)" d="M49.5625 264.1013L50.05813 264.1013L50.05813 243.7805L49.5625 243.7805z" stroke="none" fill="#000000" fill-rule="nonzero" /><path id="147" transform="matrix(1 0 0 -1 0 842)" d="M111.02 264.1013L111.5156 264.1013L111.5156 243.7805L111.02 243.7805z" stroke="none" fill="#000000" fill-rule="nonzero" /><path id="148" transform="matrix(1 0 0 -1 0 842)" d="M111.02 264.1013L209.6494 264.1013L209.6494 263.6055L111.02 263.6055z" stroke="none" fill="#000000" fill-rule="nonzero" /><path id="149" transform="matrix(1 0 0 -1 0 842)" d="M111.02 244.2761L209.6494 244.2761L209.6494 243.7805L111.02 243.7805z" stroke="none" fill="#000000" fill-rule="nonzero" /><path id="150" transform="matrix(1 0 0 -1 0 842)" d="M111.02 264.1013L111.5156 264.1013L111.5156 243.7805L111.02 243.7805z" stroke="none" fill="#000000" fill-rule="nonzero" /><path id="151" transform="matrix(1 0 0 -1 0 842)" d="M209.1538 264.1013L209.6494 264.1013L209.6494 243.7805L209.1538 243.7805z" stroke="none" fill="#000000" fill-rule="nonzero" /><path id="152" transform="matrix(1 0 0 -1 0 842)" d="M209.1538 264.1013L294.8969 264.1013L294.8969 263.6055L209.1538 263.6055z" stroke="none" fill="#000000" fill-rule="nonzero" /><path id="153" transform="matrix(1 0 0 -1 0 842)" d="M209.1538 244.2761L294.8969 244.2761L294.8969 243.7805L209.1538 243.7805z" stroke="none" fill="#000000" fill-rule="nonzero" /><path id="154" transform="matrix(1 0 0 -1 0 842)" d="M209.1538 264.1013L209.6494 264.1013L209.6494 243.7805L209.1538 243.7805z" stroke="none" fill="#000000" fill-rule="nonzero" /><path id="155" transform="matrix(1 0 0 -1 0 842)" d="M49.5625 244.2761L111.5156 244.2761L111.5156 243.7805L49.5625 243.7805z" stroke="none" fill="#000000" fill-rule="nonzero" /><path id="156" transform="matrix(1 0 0 -1 0 842)" d="M49.5625 224.4512L111.5156 224.4512L111.5156 223.9556L49.5625 223.9556z" stroke="none" fill="#000000" fill-rule="nonzero" /><path id="157" transform="matrix(1 0 0 -1 0 842)" d="M49.5625 244.2761L50.05813 244.2761L50.05813 223.9556L49.5625 223.9556z" stroke="none" fill="#000000" fill-rule="nonzero" /><path id="158" transform="matrix(1 0 0 -1 0 842)" d="M111.02 244.2761L111.5156 244.2761L111.5156 223.9556L111.02 223.9556z" stroke="none" fill="#000000" fill-rule="nonzero" /><path id="159" transform="matrix(1 0 0 -1 0 842)" d="M111.02 244.2761L209.6494 244.2761L209.6494 243.7805L111.02 243.7805z" stroke="none" fill="#000000" fill-rule="nonzero" /><path id="160" transform="matrix(1 0 0 -1 0 842)" d="M111.02 224.4512L209.6494 224.4512L209.6494 223.9556L111.02 223.9556z" stroke="none" fill="#000000" fill-rule="nonzero" /><path id="161" transform="matrix(1 0 0 -1 0 842)" d="M111.02 244.2761L111.5156 244.2761L111.5156 223.9556L111.02 223.9556z" stroke="none" fill="#000000" fill-rule="nonzero" /><path id="162" transform="matrix(1 0 0 -1 0 842)" d="M209.1538 244.2761L209.6494 244.2761L209.6494 223.9556L209.1538 223.9556z" stroke="none" fill="#000000" fill-rule="nonzero" /><path id="163" transform="matrix(1 0 0 -1 0 842)" d="M209.1538 244.2761L294.8969 244.2761L294.8969 243.7805L209.1538 243.7805z" stroke="none" fill="#000000" fill-rule="nonzero" /><path id="164" transform="matrix(1 0 0 -1 0 842)" d="M209.1538 224.4512L294.8969 224.4512L294.8969 223.9556L209.1538 223.9556z" stroke="none" fill="#000000" fill-rule="nonzero" /><path id="165" transform="matrix(1 0 0 -1 0 842)" d="M209.1538 244.2761L209.6494 244.2761L209.6494 223.9556L209.1538 223.9556z" stroke="none" fill="#000000" fill-rule="nonzero" /><path id="166" transform="matrix(1 0 0 -1 0 842)" d="M49.5625 224.4512L111.5156 224.4512L111.5156 223.9556L49.5625 223.9556z" stroke="none" fill="#000000" fill-rule="nonzero" /><path id="167" transform="matrix(1 0 0 -1 0 842)" d="M49.5625 184.8013L111.5156 184.8013L111.5156 184.3057L49.5625 184.3057z" stroke="none" fill="#000000" fill-rule="nonzero" /><path id="168" transform="matrix(1 0 0 -1 0 842)" d="M49.5625 224.4512L50.05813 224.4512L50.05813 184.3057L49.5625 184.3057z" stroke="none" fill="#000000" fill-rule="nonzero" /><path id="169" transform="matrix(1 0 0 -1 0 842)" d="M111.02 224.4512L111.5156 224.4512L111.5156 184.3057L111.02 184.3057z" stroke="none" fill="#000000" fill-rule="nonzero" /><path id="170" transform="matrix(1 0 0 -1 0 842)" d="M111.02 224.4512L209.6494 224.4512L209.6494 223.9556L111.02 223.9556z" stroke="none" fill="#000000" fill-rule="nonzero" /><path id="171" transform="matrix(1 0 0 -1 0 842)" d="M111.02 204.6262L209.6494 204.6262L209.6494 204.1306L111.02 204.1306z" stroke="none" fill="#000000" fill-rule="nonzero" /><path id="172" transform="matrix(1 0 0 -1 0 842)" d="M111.02 224.4512L111.5156 224.4512L111.5156 204.1306L111.02 204.1306z" stroke="none" fill="#000000" fill-rule="nonzero" /><path id="173" transform="matrix(1 0 0 -1 0 842)" d="M209.1538 224.4512L209.6494 224.4512L209.6494 204.1306L209.1538 204.1306z" stroke="none" fill="#000000" fill-rule="nonzero" /><path id="174" transform="matrix(1 0 0 -1 0 842)" d="M209.1538 224.4512L294.8969 224.4512L294.8969 223.9556L209.1538 223.9556z" stroke="none" fill="#000000" fill-rule="nonzero" /><path id="175" transform="matrix(1 0 0 -1 0 842)" d="M209.1538 204.6262L294.8969 204.6262L294.8969 204.1306L209.1538 204.1306z" stroke="none" fill="#000000" fill-rule="nonzero" /><path id="176" transform="matrix(1 0 0 -1 0 842)" d="M209.1538 224.4512L209.6494 224.4512L209.6494 204.1306L209.1538 204.1306z" stroke="none" fill="#000000" fill-rule="nonzero" /><path id="177" transform="matrix(1 0 0 -1 0 842)" d="M111.02 204.6262L209.6494 204.6262L209.6494 204.1306L111.02 204.1306z" stroke="none" fill="#000000" fill-rule="nonzero" /><path id="178" transform="matrix(1 0 0 -1 0 842)" d="M111.02 184.8013L209.6494 184.8013L209.6494 184.3057L111.02 184.3057z" stroke="none" fill="#000000" fill-rule="nonzero" /><path id="179" transform="matrix(1 0 0 -1 0 842)" d="M111.02 204.6262L111.5156 204.6262L111.5156 184.3057L111.02 184.3057z" stroke="none" fill="#000000" fill-rule="nonzero" /><path id="180" transform="matrix(1 0 0 -1 0 842)" d="M209.1538 204.6262L209.6494 204.6262L209.6494 184.3057L209.1538 184.3057z" stroke="none" fill="#000000" fill-rule="nonzero" /><path id="181" transform="matrix(1 0 0 -1 0 842)" d="M209.1538 204.6262L294.8969 204.6262L294.8969 204.1306L209.1538 204.1306z" stroke="none" fill="#000000" fill-rule="nonzero" /><path id="182" transform="matrix(1 0 0 -1 0 842)" d="M209.1538 184.8013L294.8969 184.8013L294.8969 184.3057L209.1538 184.3057z" stroke="none" fill="#000000" fill-rule="nonzero" /><path id="183" transform="matrix(1 0 0 -1 0 842)" d="M209.1538 204.6262L209.6494 204.6262L209.6494 184.3057L209.1538 184.3057z" stroke="none" fill="#000000" fill-rule="nonzero" /><path id="184" transform="matrix(1 0 0 -1 0 842)" d="M49.5625 184.8013L111.5156 184.8013L111.5156 184.3057L49.5625 184.3057z" stroke="none" fill="#000000" fill-rule="nonzero" /><path id="185" transform="matrix(1 0 0 -1 0 842)" d="M49.5625 164.9763L111.5156 164.9763L111.5156 164.4805L49.5625 164.4805z" stroke="none" fill="#000000" fill-rule="nonzero" /><path id="186" transform="matrix(1 0 0 -1 0 842)" d="M49.5625 184.8013L50.05813 184.8013L50.05813 164.4805L49.5625 164.4805z" stroke="none" fill="#000000" fill-rule="nonzero" /><path id="187" transform="matrix(1 0 0 -1 0 842)" d="M111.02 184.8013L111.5156 184.8013L111.5156 164.4805L111.02 164.4805z" stroke="none" fill="#000000" fill-rule="nonzero" /><path id="188" transform="matrix(1 0 0 -1 0 842)" d="M111.02 184.8013L209.6494 184.8013L209.6494 184.3057L111.02 184.3057z" stroke="none" fill="#000000" fill-rule="nonzero" /><path id="189" transform="matrix(1 0 0 -1 0 842)" d="M111.02 164.9763L209.6494 164.9763L209.6494 164.4805L111.02 164.4805z" stroke="none" fill="#000000" fill-rule="nonzero" /><path id="190" transform="matrix(1 0 0 -1 0 842)" d="M111.02 184.8013L111.5156 184.8013L111.5156 164.4805L111.02 164.4805z" stroke="none" fill="#000000" fill-rule="nonzero" /><path id="191" transform="matrix(1 0 0 -1 0 842)" d="M209.1538 184.8013L209.6494 184.8013L209.6494 164.4805L209.1538 164.4805z" stroke="none" fill="#000000" fill-rule="nonzero" /><path id="192" transform="matrix(1 0 0 -1 0 842)" d="M209.1538 184.8013L294.8969 184.8013L294.8969 184.3057L209.1538 184.3057z" stroke="none" fill="#000000" fill-rule="nonzero" /><path id="193" transform="matrix(1 0 0 -1 0 842)" d="M209.1538 164.9763L294.8969 164.9763L294.8969 164.4805L209.1538 164.4805z" stroke="none" fill="#000000" fill-rule="nonzero" /><path id="194" transform="matrix(1 0 0 -1 0 842)" d="M209.1538 184.8013L209.6494 184.8013L209.6494 164.4805L209.1538 164.4805z" stroke="none" fill="#000000" fill-rule="nonzero" /><path id="195" transform="matrix(1 0 0 -1 0 842)" d="M49.5625 164.9763L111.5156 164.9763L111.5156 164.4805L49.5625 164.4805z" stroke="none" fill="#000000" fill-rule="nonzero" /><path id="196" transform="matrix(1 0 0 -1 0 842)" d="M49.5625 145.1511L111.5156 145.1511L111.5156 144.6555L49.5625 144.6555z" stroke="none" fill="#000000" fill-rule="nonzero" /><path id="197" transform="matrix(1 0 0 -1 0 842)" d="M49.5625 164.9763L50.05813 164.9763L50.05813 144.6555L49.5625 144.6555z" stroke="none" fill="#000000" fill-rule="nonzero" /><path id="198" transform="matrix(1 0 0 -1 0 842)" d="M111.02 164.9763L111.5156 164.9763L111.5156 144.6555L111.02 144.6555z" stroke="none" fill="#000000" fill-rule="nonzero" /><path id="199" transform="matrix(1 0 0 -1 0 842)" d="M111.02 164.9763L209.6494 164.9763L209.6494 164.4805L111.02 164.4805z" stroke="none" fill="#000000" fill-rule="nonzero" /><path id="200" transform="matrix(1 0 0 -1 0 842)" d="M111.02 145.1511L209.6494 145.1511L209.6494 144.6555L111.02 144.6555z" stroke="none" fill="#000000" fill-rule="nonzero" /><path id="201" transform="matrix(1 0 0 -1 0 842)" d="M111.02 164.9763L111.5156 164.9763L111.5156 144.6555L111.02 144.6555z" stroke="none" fill="#000000" fill-rule="nonzero" /><path id="202" transform="matrix(1 0 0 -1 0 842)" d="M209.1538 164.9763L209.6494 164.9763L209.6494 144.6555L209.1538 144.6555z" stroke="none" fill="#000000" fill-rule="nonzero" /><path id="203" transform="matrix(1 0 0 -1 0 842)" d="M209.1538 164.9763L294.8969 164.9763L294.8969 164.4805L209.1538 164.4805z" stroke="none" fill="#000000" fill-rule="nonzero" /><path id="204" transform="matrix(1 0 0 -1 0 842)" d="M209.1538 145.1511L294.8969 145.1511L294.8969 144.6555L209.1538 144.6555z" stroke="none" fill="#000000" fill-rule="nonzero" /><path id="205" transform="matrix(1 0 0 -1 0 842)" d="M209.1538 164.9763L209.6494 164.9763L209.6494 144.6555L209.1538 144.6555z" stroke="none" fill="#000000" fill-rule="nonzero" /><path id="206" transform="matrix(1 0 0 -1 0 842)" d="M49.5625 145.1511L111.5156 145.1511L111.5156 144.6555L49.5625 144.6555z" stroke="none" fill="#000000" fill-rule="nonzero" /><path id="207" transform="matrix(1 0 0 -1 0 842)" d="M49.5625 125.3262L111.5156 125.3262L111.5156 124.8306L49.5625 124.8306z" stroke="none" fill="#000000" fill-rule="nonzero" /><path id="208" transform="matrix(1 0 0 -1 0 842)" d="M49.5625 145.1511L50.05813 145.1511L50.05813 124.8306L49.5625 124.8306z" stroke="none" fill="#000000" fill-rule="nonzero" /><path id="209" transform="matrix(1 0 0 -1 0 842)" d="M111.02 145.1511L111.5156 145.1511L111.5156 124.8306L111.02 124.8306z" stroke="none" fill="#000000" fill-rule="nonzero" /><path id="210" transform="matrix(1 0 0 -1 0 842)" d="M111.02 145.1511L209.6494 145.1511L209.6494 144.6555L111.02 144.6555z" stroke="none" fill="#000000" fill-rule="nonzero" /><path id="211" transform="matrix(1 0 0 -1 0 842)" d="M111.02 125.3262L209.6494 125.3262L209.6494 124.8306L111.02 124.8306z" stroke="none" fill="#000000" fill-rule="nonzero" /><path id="212" transform="matrix(1 0 0 -1 0 842)" d="M111.02 145.1511L111.5156 145.1511L111.5156 124.8306L111.02 124.8306z" stroke="none" fill="#000000" fill-rule="nonzero" /><path id="213" transform="matrix(1 0 0 -1 0 842)" d="M209.1538 145.1511L209.6494 145.1511L209.6494 124.8306L209.1538 124.8306z" stroke="none" fill="#000000" fill-rule="nonzero" /><path id="214" transform="matrix(1 0 0 -1 0 842)" d="M209.1538 145.1511L294.8969 145.1511L294.8969 144.6555L209.1538 144.6555z" stroke="none" fill="#000000" fill-rule="nonzero" /><path id="215" transform="matrix(1 0 0 -1 0 842)" d="M209.1538 125.3262L294.8969 125.3262L294.8969 124.8306L209.1538 124.8306z" stroke="none" fill="#000000" fill-rule="nonzero" /><path id="216" transform="matrix(1 0 0 -1 0 842)" d="M209.1538 145.1511L209.6494 145.1511L209.6494 124.8306L209.1538 124.8306z" stroke="none" fill="#000000" fill-rule="nonzero" /><path id="217" transform="matrix(1 0 0 -1 0 842)" d="M49.5625 125.3262L111.5156 125.3262L111.5156 124.8306L49.5625 124.8306z" stroke="none" fill="#000000" fill-rule="nonzero" /><path id="218" transform="matrix(1 0 0 -1 0 842)" d="M49.5625 105.5012L111.5156 105.5012L111.5156 105.0056L49.5625 105.0056z" stroke="none" fill="#000000" fill-rule="nonzero" /><path id="219" transform="matrix(1 0 0 -1 0 842)" d="M49.5625 125.3262L50.05813 125.3262L50.05813 105.0056L49.5625 105.0056z" stroke="none" fill="#000000" fill-rule="nonzero" /><path id="220" transform="matrix(1 0 0 -1 0 842)" d="M111.02 125.3262L111.5156 125.3262L111.5156 105.0056L111.02 105.0056z" stroke="none" fill="#000000" fill-rule="nonzero" /><path id="221" transform="matrix(1 0 0 -1 0 842)" d="M111.02 125.3262L209.6494 125.3262L209.6494 124.8306L111.02 124.8306z" stroke="none" fill="#000000" fill-rule="nonzero" /><path id="222" transform="matrix(1 0 0 -1 0 842)" d="M111.02 105.5012L209.6494 105.5012L209.6494 105.0056L111.02 105.0056z" stroke="none" fill="#000000" fill-rule="nonzero" /><path id="223" transform="matrix(1 0 0 -1 0 842)" d="M111.02 125.3262L111.5156 125.3262L111.5156 105.0056L111.02 105.0056z" stroke="none" fill="#000000" fill-rule="nonzero" /><path id="224" transform="matrix(1 0 0 -1 0 842)" d="M209.1538 125.3262L209.6494 125.3262L209.6494 105.0056L209.1538 105.0056z" stroke="none" fill="#000000" fill-rule="nonzero" /><path id="225" transform="matrix(1 0 0 -1 0 842)" d="M209.1538 125.3262L294.8969 125.3262L294.8969 124.8306L209.1538 124.8306z" stroke="none" fill="#000000" fill-rule="nonzero" /><path id="226" transform="matrix(1 0 0 -1 0 842)" d="M209.1538 105.5012L294.8969 105.5012L294.8969 105.0056L209.1538 105.0056z" stroke="none" fill="#000000" fill-rule="nonzero" /><path id="227" transform="matrix(1 0 0 -1 0 842)" d="M209.1538 125.3262L209.6494 125.3262L209.6494 105.0056L209.1538 105.0056z" stroke="none" fill="#000000" fill-rule="nonzero" /><path id="228" transform="matrix(1 0 0 -1 0 842)" d="M49.5625 105.5012L111.5156 105.5012L111.5156 105.0056L49.5625 105.0056z" stroke="none" fill="#000000" fill-rule="nonzero" /><path id="229" transform="matrix(1 0 0 -1 0 842)" d="M49.5625 85.67627L111.5156 85.67627L111.5156 85.18066L49.5625 85.18066z" stroke="none" fill="#000000" fill-rule="nonzero" /><path id="230" transform="matrix(1 0 0 -1 0 842)" d="M49.5625 105.5012L50.05813 105.5012L50.05813 85.18066L49.5625 85.18066z" stroke="none" fill="#000000" fill-rule="nonzero" /><path id="231" transform="matrix(1 0 0 -1 0 842)" d="M111.02 105.5012L111.5156 105.5012L111.5156 85.18066L111.02 85.18066z" stroke="none" fill="#000000" fill-rule="nonzero" /><path id="232" transform="matrix(1 0 0 -1 0 842)" d="M111.02 105.5012L209.6494 105.5012L209.6494 105.0056L111.02 105.0056z" stroke="none" fill="#000000" fill-rule="nonzero" /><path id="233" transform="matrix(1 0 0 -1 0 842)" d="M111.02 85.67627L209.6494 85.67627L209.6494 85.18066L111.02 85.18066z" stroke="none" fill="#000000" fill-rule="nonzero" /><path id="234" transform="matrix(1 0 0 -1 0 842)" d="M111.02 105.5012L111.5156 105.5012L111.5156 85.18066L111.02 85.18066z" stroke="none" fill="#000000" fill-rule="nonzero" /><path id="235" transform="matrix(1 0 0 -1 0 842)" d="M209.1538 105.5012L209.6494 105.5012L209.6494 85.18066L209.1538 85.18066z" stroke="none" fill="#000000" fill-rule="nonzero" /><path id="236" transform="matrix(1 0 0 -1 0 842)" d="M209.1538 105.5012L294.8969 105.5012L294.8969 105.0056L209.1538 105.0056z" stroke="none" fill="#000000" fill-rule="nonzero" /><path id="237" transform="matrix(1 0 0 -1 0 842)" d="M209.1538 85.67627L294.8969 85.67627L294.8969 85.18066L209.1538 85.18066z" stroke="none" fill="#000000" fill-rule="nonzero" /><path id="238" transform="matrix(1 0 0 -1 0 842)" d="M209.1538 105.5012L209.6494 105.5012L209.6494 85.18066L209.1538 85.18066z" stroke="none" fill="#000000" fill-rule="nonzero" /><path id="541" transform="matrix(1 0 0 -1 0 842)" d="M294.4013 442.5261L355.8588 442.5261L355.8588 422.7012L294.4013 422.7012z" stroke="none" fill="#E2F3FD" fill-rule="nonzero" /><path id="542" transform="matrix(1 0 0 -1 0 842)" d="M294.4013 442.5261L355.8588 442.5261L355.8588 422.7012L294.4013 422.7012z" stroke="none" fill="#9CC9F0" fill-rule="nonzero" /><path id="543" transform="matrix(1 0 0 -1 0 842)" d="M355.8588 442.5261L453.9925 442.5261L453.9925 422.7012L355.8588 422.7012z" stroke="none" fill="#E2F3FD" fill-rule="nonzero" /><path id="544" transform="matrix(1 0 0 -1 0 842)" d="M355.8588 442.5261L453.9925 442.5261L453.9925 422.7012L355.8588 422.7012z" stroke="none" fill="#9CC9F0" fill-rule="nonzero" /><path id="545" transform="matrix(1 0 0 -1 0 842)" d="M453.9925 442.5261L539.24 442.5261L539.24 422.7012L453.9925 422.7012z" stroke="none" fill="#E2F3FD" fill-rule="nonzero" /><path id="546" transform="matrix(1 0 0 -1 0 842)" d="M453.9925 442.5261L539.24 442.5261L539.24 422.7012L453.9925 422.7012z" stroke="none" fill="#9CC9F0" fill-rule="nonzero" /><path id="547" transform="matrix(1 0 0 -1 0 842)" d="M294.4013 422.7012L355.8588 422.7012L355.8588 402.8762L294.4013 402.8762z" stroke="none" fill="#FFFFFF" fill-rule="nonzero" /><path id="548" transform="matrix(1 0 0 -1 0 842)" d="M294.4013 402.8762L355.8588 402.8762L355.8588 343.4011L294.4013 343.4011z" stroke="none" fill="#E2F3FD" fill-rule="nonzero" /><path id="549" transform="matrix(1 0 0 -1 0 842)" d="M294.4013 402.8762L355.8588 402.8762L355.8588 343.4011L294.4013 343.4011z" stroke="none" fill="#FFFFFF" fill-rule="nonzero" /><path id="550" transform="matrix(1 0 0 -1 0 842)" d="M355.8588 402.8762L453.9925 402.8762L453.9925 383.0513L355.8588 383.0513z" stroke="none" fill="#E2F3FD" fill-rule="nonzero" /><path id="551" transform="matrix(1 0 0 -1 0 842)" d="M453.9925 402.8762L539.24 402.8762L539.24 383.0513L453.9925 383.0513z" stroke="none" fill="#E2F3FD" fill-rule="nonzero" /><path id="552" transform="matrix(1 0 0 -1 0 842)" d="M355.8588 363.2263L453.9925 363.2263L453.9925 343.4011L355.8588 343.4011z" stroke="none" fill="#E2F3FD" fill-rule="nonzero" /><path id="553" transform="matrix(1 0 0 -1 0 842)" d="M453.9925 363.2263L539.24 363.2263L539.24 343.4011L453.9925 343.4011z" stroke="none" fill="#E2F3FD" fill-rule="nonzero" /><path id="554" transform="matrix(1 0 0 -1 0 842)" d="M294.4013 343.4011L355.8588 343.4011L355.8588 303.7512L294.4013 303.7512z" stroke="none" fill="#FFFFFF" fill-rule="nonzero" /><path id="555" transform="matrix(1 0 0 -1 0 842)" d="M355.8588 323.5762L453.9925 323.5762L453.9925 303.7512L355.8588 303.7512z" stroke="none" fill="#E2F3FD" fill-rule="nonzero" /><path id="556" transform="matrix(1 0 0 -1 0 842)" d="M453.9925 323.5762L539.24 323.5762L539.24 303.7512L453.9925 303.7512z" stroke="none" fill="#E2F3FD" fill-rule="nonzero" /><path id="557" transform="matrix(1 0 0 -1 0 842)" d="M294.4013 303.7512L355.8588 303.7512L355.8588 85.67627L294.4013 85.67627z" stroke="none" fill="#FFFFFF" fill-rule="nonzero" /><path id="558" transform="matrix(1 0 0 -1 0 842)" d="M355.8588 283.9263L453.9925 283.9263L453.9925 264.1013L355.8588 264.1013z" stroke="none" fill="#E2F3FD" fill-rule="nonzero" /><path id="559" transform="matrix(1 0 0 -1 0 842)" d="M453.9925 283.9263L539.24 283.9263L539.24 264.1013L453.9925 264.1013z" stroke="none" fill="#E2F3FD" fill-rule="nonzero" /><path id="560" transform="matrix(1 0 0 -1 0 842)" d="M355.8588 244.2761L453.9925 244.2761L453.9925 224.4512L355.8588 224.4512z" stroke="none" fill="#E2F3FD" fill-rule="nonzero" /><path id="561" transform="matrix(1 0 0 -1 0 842)" d="M453.9925 244.2761L539.24 244.2761L539.24 224.4512L453.9925 224.4512z" stroke="none" fill="#E2F3FD" fill-rule="nonzero" /><path id="562" transform="matrix(1 0 0 -1 0 842)" d="M355.8588 204.6262L453.9925 204.6262L453.9925 184.8013L355.8588 184.8013z" stroke="none" fill="#E2F3FD" fill-rule="nonzero" /><path id="563" transform="matrix(1 0 0 -1 0 842)" d="M453.9925 204.6262L539.24 204.6262L539.24 184.8013L453.9925 184.8013z" stroke="none" fill="#E2F3FD" fill-rule="nonzero" /><path id="564" transform="matrix(1 0 0 -1 0 842)" d="M355.8588 164.9763L453.9925 164.9763L453.9925 145.1511L355.8588 145.1511z" stroke="none" fill="#E2F3FD" fill-rule="nonzero" /><path id="565" transform="matrix(1 0 0 -1 0 842)" d="M453.9925 164.9763L539.24 164.9763L539.24 145.1511L453.9925 145.1511z" stroke="none" fill="#E2F3FD" fill-rule="nonzero" /><path id="566" transform="matrix(1 0 0 -1 0 842)" d="M355.8588 125.3262L453.9925 125.3262L453.9925 105.5012L355.8588 105.5012z" stroke="none" fill="#E2F3FD" fill-rule="nonzero" /><path id="567" transform="matrix(1 0 0 -1 0 842)" d="M453.9925 125.3262L539.24 125.3262L539.24 105.5012L453.9925 105.5012z" stroke="none" fill="#E2F3FD" fill-rule="nonzero" /><path id="568" transform="matrix(1 0 0 -1 0 842)" d="M294.4013 442.5261L356.3544 442.5261L356.3544 442.0305L294.4013 442.0305z" stroke="none" fill="#000000" fill-rule="nonzero" /><path id="569" transform="matrix(1 0 0 -1 0 842)" d="M294.4013 422.7012L356.3544 422.7012L356.3544 422.2056L294.4013 422.2056z" stroke="none" fill="#000000" fill-rule="nonzero" /><path id="570" transform="matrix(1 0 0 -1 0 842)" d="M294.4013 442.5261L294.8969 442.5261L294.8969 422.2056L294.4013 422.2056z" stroke="none" fill="#000000" fill-rule="nonzero" /><path id="571" transform="matrix(1 0 0 -1 0 842)" d="M355.8588 442.5261L356.3544 442.5261L356.3544 422.2056L355.8588 422.2056z" stroke="none" fill="#000000" fill-rule="nonzero" /><path id="572" transform="matrix(1 0 0 -1 0 842)" d="M355.8588 442.5261L454.4881 442.5261L454.4881 442.0305L355.8588 442.0305z" stroke="none" fill="#000000" fill-rule="nonzero" /><path id="573" transform="matrix(1 0 0 -1 0 842)" d="M355.8588 422.7012L454.4881 422.7012L454.4881 422.2056L355.8588 422.2056z" stroke="none" fill="#000000" fill-rule="nonzero" /><path id="574" transform="matrix(1 0 0 -1 0 842)" d="M355.8588 442.5261L356.3544 442.5261L356.3544 422.2056L355.8588 422.2056z" stroke="none" fill="#000000" fill-rule="nonzero" /><path id="575" transform="matrix(1 0 0 -1 0 842)" d="M453.9925 442.5261L454.4881 442.5261L454.4881 422.2056L453.9925 422.2056z" stroke="none" fill="#000000" fill-rule="nonzero" /><path id="576" transform="matrix(1 0 0 -1 0 842)" d="M453.9925 442.5261L539.7357 442.5261L539.7357 442.0305L453.9925 442.0305z" stroke="none" fill="#000000" fill-rule="nonzero" /><path id="577" transform="matrix(1 0 0 -1 0 842)" d="M453.9925 422.7012L539.7357 422.7012L539.7357 422.2056L453.9925 422.2056z" stroke="none" fill="#000000" fill-rule="nonzero" /><path id="578" transform="matrix(1 0 0 -1 0 842)" d="M453.9925 442.5261L454.4881 442.5261L454.4881 422.2056L453.9925 422.2056z" stroke="none" fill="#000000" fill-rule="nonzero" /><path id="579" transform="matrix(1 0 0 -1 0 842)" d="M539.24 442.5261L539.7357 442.5261L539.7357 422.2056L539.24 422.2056z" stroke="none" fill="#000000" fill-rule="nonzero" /><path id="580" transform="matrix(1 0 0 -1 0 842)" d="M294.4013 422.7012L356.3544 422.7012L356.3544 422.2056L294.4013 422.2056z" stroke="none" fill="#000000" fill-rule="nonzero" /><path id="581" transform="matrix(1 0 0 -1 0 842)" d="M294.4013 402.8762L356.3544 402.8762L356.3544 402.3806L294.4013 402.3806z" stroke="none" fill="#000000" fill-rule="nonzero" /><path id="582" transform="matrix(1 0 0 -1 0 842)" d="M294.4013 422.7012L294.8969 422.7012L294.8969 402.3806L294.4013 402.3806z" stroke="none" fill="#000000" fill-rule="nonzero" /><path id="583" transform="matrix(1 0 0 -1 0 842)" d="M355.8588 422.7012L356.3544 422.7012L356.3544 402.3806L355.8588 402.3806z" stroke="none" fill="#000000" fill-rule="nonzero" /><path id="584" transform="matrix(1 0 0 -1 0 842)" d="M355.8588 422.7012L454.4881 422.7012L454.4881 422.2056L355.8588 422.2056z" stroke="none" fill="#000000" fill-rule="nonzero" /><path id="585" transform="matrix(1 0 0 -1 0 842)" d="M355.8588 402.8762L454.4881 402.8762L454.4881 402.3806L355.8588 402.3806z" stroke="none" fill="#000000" fill-rule="nonzero" /><path id="586" transform="matrix(1 0 0 -1 0 842)" d="M355.8588 422.7012L356.3544 422.7012L356.3544 402.3806L355.8588 402.3806z" stroke="none" fill="#000000" fill-rule="nonzero" /><path id="587" transform="matrix(1 0 0 -1 0 842)" d="M453.9925 422.7012L454.4881 422.7012L454.4881 402.3806L453.9925 402.3806z" stroke="none" fill="#000000" fill-rule="nonzero" /><path id="588" transform="matrix(1 0 0 -1 0 842)" d="M453.9925 422.7012L539.7357 422.7012L539.7357 422.2056L453.9925 422.2056z" stroke="none" fill="#000000" fill-rule="nonzero" /><path id="589" transform="matrix(1 0 0 -1 0 842)" d="M453.9925 402.8762L539.7357 402.8762L539.7357 402.3806L453.9925 402.3806z" stroke="none" fill="#000000" fill-rule="nonzero" /><path id="590" transform="matrix(1 0 0 -1 0 842)" d="M453.9925 422.7012L454.4881 422.7012L454.4881 402.3806L453.9925 402.3806z" stroke="none" fill="#000000" fill-rule="nonzero" /><path id="591" transform="matrix(1 0 0 -1 0 842)" d="M539.24 422.7012L539.7357 422.7012L539.7357 402.3806L539.24 402.3806z" stroke="none" fill="#000000" fill-rule="nonzero" /><path id="592" transform="matrix(1 0 0 -1 0 842)" d="M294.4013 402.8762L356.3544 402.8762L356.3544 402.3806L294.4013 402.3806z" stroke="none" fill="#000000" fill-rule="nonzero" /><path id="593" transform="matrix(1 0 0 -1 0 842)" d="M294.4013 343.4011L356.3544 343.4011L356.3544 342.9055L294.4013 342.9055z" stroke="none" fill="#000000" fill-rule="nonzero" /><path id="594" transform="matrix(1 0 0 -1 0 842)" d="M294.4013 402.8762L294.8969 402.8762L294.8969 342.9055L294.4013 342.9055z" stroke="none" fill="#000000" fill-rule="nonzero" /><path id="595" transform="matrix(1 0 0 -1 0 842)" d="M355.8588 402.8762L356.3544 402.8762L356.3544 342.9055L355.8588 342.9055z" stroke="none" fill="#000000" fill-rule="nonzero" /><path id="596" transform="matrix(1 0 0 -1 0 842)" d="M355.8588 402.8762L454.4881 402.8762L454.4881 402.3806L355.8588 402.3806z" stroke="none" fill="#000000" fill-rule="nonzero" /><path id="597" transform="matrix(1 0 0 -1 0 842)" d="M355.8588 383.0513L454.4881 383.0513L454.4881 382.5557L355.8588 382.5557z" stroke="none" fill="#000000" fill-rule="nonzero" /><path id="598" transform="matrix(1 0 0 -1 0 842)" d="M355.8588 402.8762L356.3544 402.8762L356.3544 382.5557L355.8588 382.5557z" stroke="none" fill="#000000" fill-rule="nonzero" /><path id="599" transform="matrix(1 0 0 -1 0 842)" d="M453.9925 402.8762L454.4881 402.8762L454.4881 382.5557L453.9925 382.5557z" stroke="none" fill="#000000" fill-rule="nonzero" /><path id="600" transform="matrix(1 0 0 -1 0 842)" d="M453.9925 402.8762L539.7357 402.8762L539.7357 402.3806L453.9925 402.3806z" stroke="none" fill="#000000" fill-rule="nonzero" /><path id="601" transform="matrix(1 0 0 -1 0 842)" d="M453.9925 383.0513L539.7357 383.0513L539.7357 382.5557L453.9925 382.5557z" stroke="none" fill="#000000" fill-rule="nonzero" /><path id="602" transform="matrix(1 0 0 -1 0 842)" d="M453.9925 402.8762L454.4881 402.8762L454.4881 382.5557L453.9925 382.5557z" stroke="none" fill="#000000" fill-rule="nonzero" /><path id="603" transform="matrix(1 0 0 -1 0 842)" d="M539.24 402.8762L539.7357 402.8762L539.7357 382.5557L539.24 382.5557z" stroke="none" fill="#000000" fill-rule="nonzero" /><path id="604" transform="matrix(1 0 0 -1 0 842)" d="M355.8588 383.0513L454.4881 383.0513L454.4881 382.5557L355.8588 382.5557z" stroke="none" fill="#000000" fill-rule="nonzero" /><path id="605" transform="matrix(1 0 0 -1 0 842)" d="M355.8588 363.2263L454.4881 363.2263L454.4881 362.7305L355.8588 362.7305z" stroke="none" fill="#000000" fill-rule="nonzero" /><path id="606" transform="matrix(1 0 0 -1 0 842)" d="M355.8588 383.0513L356.3544 383.0513L356.3544 362.7305L355.8588 362.7305z" stroke="none" fill="#000000" fill-rule="nonzero" /><path id="607" transform="matrix(1 0 0 -1 0 842)" d="M453.9925 383.0513L454.4881 383.0513L454.4881 362.7305L453.9925 362.7305z" stroke="none" fill="#000000" fill-rule="nonzero" /><path id="608" transform="matrix(1 0 0 -1 0 842)" d="M453.9925 383.0513L539.7357 383.0513L539.7357 382.5557L453.9925 382.5557z" stroke="none" fill="#000000" fill-rule="nonzero" /><path id="609" transform="matrix(1 0 0 -1 0 842)" d="M453.9925 363.2263L539.7357 363.2263L539.7357 362.7305L453.9925 362.7305z" stroke="none" fill="#000000" fill-rule="nonzero" /><path id="610" transform="matrix(1 0 0 -1 0 842)" d="M453.9925 383.0513L454.4881 383.0513L454.4881 362.7305L453.9925 362.7305z" stroke="none" fill="#000000" fill-rule="nonzero" /><path id="611" transform="matrix(1 0 0 -1 0 842)" d="M539.24 383.0513L539.7357 383.0513L539.7357 362.7305L539.24 362.7305z" stroke="none" fill="#000000" fill-rule="nonzero" /><path id="612" transform="matrix(1 0 0 -1 0 842)" d="M355.8588 363.2263L454.4881 363.2263L454.4881 362.7305L355.8588 362.7305z" stroke="none" fill="#000000" fill-rule="nonzero" /><path id="613" transform="matrix(1 0 0 -1 0 842)" d="M355.8588 343.4011L454.4881 343.4011L454.4881 342.9055L355.8588 342.9055z" stroke="none" fill="#000000" fill-rule="nonzero" /><path id="614" transform="matrix(1 0 0 -1 0 842)" d="M355.8588 363.2263L356.3544 363.2263L356.3544 342.9055L355.8588 342.9055z" stroke="none" fill="#000000" fill-rule="nonzero" /><path id="615" transform="matrix(1 0 0 -1 0 842)" d="M453.9925 363.2263L454.4881 363.2263L454.4881 342.9055L453.9925 342.9055z" stroke="none" fill="#000000" fill-rule="nonzero" /><path id="616" transform="matrix(1 0 0 -1 0 842)" d="M453.9925 363.2263L539.7357 363.2263L539.7357 362.7305L453.9925 362.7305z" stroke="none" fill="#000000" fill-rule="nonzero" /><path id="617" transform="matrix(1 0 0 -1 0 842)" d="M453.9925 343.4011L539.7357 343.4011L539.7357 342.9055L453.9925 342.9055z" stroke="none" fill="#000000" fill-rule="nonzero" /><path id="618" transform="matrix(1 0 0 -1 0 842)" d="M453.9925 363.2263L454.4881 363.2263L454.4881 342.9055L453.9925 342.9055z" stroke="none" fill="#000000" fill-rule="nonzero" /><path id="619" transform="matrix(1 0 0 -1 0 842)" d="M539.24 363.2263L539.7357 363.2263L539.7357 342.9055L539.24 342.9055z" stroke="none" fill="#000000" fill-rule="nonzero" /><path id="620" transform="matrix(1 0 0 -1 0 842)" d="M294.4013 343.4011L356.3544 343.4011L356.3544 342.9055L294.4013 342.9055z" stroke="none" fill="#000000" fill-rule="nonzero" /><path id="621" transform="matrix(1 0 0 -1 0 842)" d="M294.4013 303.7512L356.3544 303.7512L356.3544 303.2556L294.4013 303.2556z" stroke="none" fill="#000000" fill-rule="nonzero" /><path id="622" transform="matrix(1 0 0 -1 0 842)" d="M294.4013 343.4011L294.8969 343.4011L294.8969 303.2556L294.4013 303.2556z" stroke="none" fill="#000000" fill-rule="nonzero" /><path id="623" transform="matrix(1 0 0 -1 0 842)" d="M355.8588 343.4011L356.3544 343.4011L356.3544 303.2556L355.8588 303.2556z" stroke="none" fill="#000000" fill-rule="nonzero" /><path id="624" transform="matrix(1 0 0 -1 0 842)" d="M355.8588 343.4011L454.4881 343.4011L454.4881 342.9055L355.8588 342.9055z" stroke="none" fill="#000000" fill-rule="nonzero" /><path id="625" transform="matrix(1 0 0 -1 0 842)" d="M355.8588 323.5762L454.4881 323.5762L454.4881 323.0806L355.8588 323.0806z" stroke="none" fill="#000000" fill-rule="nonzero" /><path id="626" transform="matrix(1 0 0 -1 0 842)" d="M355.8588 343.4011L356.3544 343.4011L356.3544 323.0806L355.8588 323.0806z" stroke="none" fill="#000000" fill-rule="nonzero" /><path id="627" transform="matrix(1 0 0 -1 0 842)" d="M453.9925 343.4011L454.4881 343.4011L454.4881 323.0806L453.9925 323.0806z" stroke="none" fill="#000000" fill-rule="nonzero" /><path id="628" transform="matrix(1 0 0 -1 0 842)" d="M453.9925 343.4011L539.7357 343.4011L539.7357 342.9055L453.9925 342.9055z" stroke="none" fill="#000000" fill-rule="nonzero" /><path id="629" transform="matrix(1 0 0 -1 0 842)" d="M453.9925 323.5762L539.7357 323.5762L539.7357 323.0806L453.9925 323.0806z" stroke="none" fill="#000000" fill-rule="nonzero" /><path id="630" transform="matrix(1 0 0 -1 0 842)" d="M453.9925 343.4011L454.4881 343.4011L454.4881 323.0806L453.9925 323.0806z" stroke="none" fill="#000000" fill-rule="nonzero" /><path id="631" transform="matrix(1 0 0 -1 0 842)" d="M539.24 343.4011L539.7357 343.4011L539.7357 323.0806L539.24 323.0806z" stroke="none" fill="#000000" fill-rule="nonzero" /><path id="632" transform="matrix(1 0 0 -1 0 842)" d="M355.8588 323.5762L454.4881 323.5762L454.4881 323.0806L355.8588 323.0806z" stroke="none" fill="#000000" fill-rule="nonzero" /><path id="633" transform="matrix(1 0 0 -1 0 842)" d="M355.8588 303.7512L454.4881 303.7512L454.4881 303.2556L355.8588 303.2556z" stroke="none" fill="#000000" fill-rule="nonzero" /><path id="634" transform="matrix(1 0 0 -1 0 842)" d="M355.8588 323.5762L356.3544 323.5762L356.3544 303.2556L355.8588 303.2556z" stroke="none" fill="#000000" fill-rule="nonzero" /><path id="635" transform="matrix(1 0 0 -1 0 842)" d="M453.9925 323.5762L454.4881 323.5762L454.4881 303.2556L453.9925 303.2556z" stroke="none" fill="#000000" fill-rule="nonzero" /><path id="636" transform="matrix(1 0 0 -1 0 842)" d="M453.9925 323.5762L539.7357 323.5762L539.7357 323.0806L453.9925 323.0806z" stroke="none" fill="#000000" fill-rule="nonzero" /><path id="637" transform="matrix(1 0 0 -1 0 842)" d="M453.9925 303.7512L539.7357 303.7512L539.7357 303.2556L453.9925 303.2556z" stroke="none" fill="#000000" fill-rule="nonzero" /><path id="638" transform="matrix(1 0 0 -1 0 842)" d="M453.9925 323.5762L454.4881 323.5762L454.4881 303.2556L453.9925 303.2556z" stroke="none" fill="#000000" fill-rule="nonzero" /><path id="639" transform="matrix(1 0 0 -1 0 842)" d="M539.24 323.5762L539.7357 323.5762L539.7357 303.2556L539.24 303.2556z" stroke="none" fill="#000000" fill-rule="nonzero" /><path id="640" transform="matrix(1 0 0 -1 0 842)" d="M294.4013 303.7512L356.3544 303.7512L356.3544 303.2556L294.4013 303.2556z" stroke="none" fill="#000000" fill-rule="nonzero" /><path id="641" transform="matrix(1 0 0 -1 0 842)" d="M294.4013 85.67627L356.3544 85.67627L356.3544 85.18066L294.4013 85.18066z" stroke="none" fill="#000000" fill-rule="nonzero" /><path id="642" transform="matrix(1 0 0 -1 0 842)" d="M294.4013 303.7512L294.8969 303.7512L294.8969 85.18066L294.4013 85.18066z" stroke="none" fill="#000000" fill-rule="nonzero" /><path id="643" transform="matrix(1 0 0 -1 0 842)" d="M355.8588 303.7512L356.3544 303.7512L356.3544 85.18066L355.8588 85.18066z" stroke="none" fill="#000000" fill-rule="nonzero" /><path id="644" transform="matrix(1 0 0 -1 0 842)" d="M355.8588 303.7512L454.4881 303.7512L454.4881 303.2556L355.8588 303.2556z" stroke="none" fill="#000000" fill-rule="nonzero" /><path id="645" transform="matrix(1 0 0 -1 0 842)" d="M355.8588 283.9263L454.4881 283.9263L454.4881 283.4307L355.8588 283.4307z" stroke="none" fill="#000000" fill-rule="nonzero" /><path id="646" transform="matrix(1 0 0 -1 0 842)" d="M355.8588 303.7512L356.3544 303.7512L356.3544 283.4307L355.8588 283.4307z" stroke="none" fill="#000000" fill-rule="nonzero" /><path id="647" transform="matrix(1 0 0 -1 0 842)" d="M453.9925 303.7512L454.4881 303.7512L454.4881 283.4307L453.9925 283.4307z" stroke="none" fill="#000000" fill-rule="nonzero" /><path id="648" transform="matrix(1 0 0 -1 0 842)" d="M453.9925 303.7512L539.7357 303.7512L539.7357 303.2556L453.9925 303.2556z" stroke="none" fill="#000000" fill-rule="nonzero" /><path id="649" transform="matrix(1 0 0 -1 0 842)" d="M453.9925 283.9263L539.7357 283.9263L539.7357 283.4307L453.9925 283.4307z" stroke="none" fill="#000000" fill-rule="nonzero" /><path id="650" transform="matrix(1 0 0 -1 0 842)" d="M453.9925 303.7512L454.4881 303.7512L454.4881 283.4307L453.9925 283.4307z" stroke="none" fill="#000000" fill-rule="nonzero" /><path id="651" transform="matrix(1 0 0 -1 0 842)" d="M539.24 303.7512L539.7357 303.7512L539.7357 283.4307L539.24 283.4307z" stroke="none" fill="#000000" fill-rule="nonzero" /><path id="652" transform="matrix(1 0 0 -1 0 842)" d="M355.8588 283.9263L454.4881 283.9263L454.4881 283.4307L355.8588 283.4307z" stroke="none" fill="#000000" fill-rule="nonzero" /><path id="653" transform="matrix(1 0 0 -1 0 842)" d="M355.8588 264.1013L454.4881 264.1013L454.4881 263.6055L355.8588 263.6055z" stroke="none" fill="#000000" fill-rule="nonzero" /><path id="654" transform="matrix(1 0 0 -1 0 842)" d="M355.8588 283.9263L356.3544 283.9263L356.3544 263.6055L355.8588 263.6055z" stroke="none" fill="#000000" fill-rule="nonzero" /><path id="655" transform="matrix(1 0 0 -1 0 842)" d="M453.9925 283.9263L454.4881 283.9263L454.4881 263.6055L453.9925 263.6055z" stroke="none" fill="#000000" fill-rule="nonzero" /><path id="656" transform="matrix(1 0 0 -1 0 842)" d="M453.9925 283.9263L539.7357 283.9263L539.7357 283.4307L453.9925 283.4307z" stroke="none" fill="#000000" fill-rule="nonzero" /><path id="657" transform="matrix(1 0 0 -1 0 842)" d="M453.9925 264.1013L539.7357 264.1013L539.7357 263.6055L453.9925 263.6055z" stroke="none" fill="#000000" fill-rule="nonzero" /><path id="658" transform="matrix(1 0 0 -1 0 842)" d="M453.9925 283.9263L454.4881 283.9263L454.4881 263.6055L453.9925 263.6055z" stroke="none" fill="#000000" fill-rule="nonzero" /><path id="659" transform="matrix(1 0 0 -1 0 842)" d="M539.24 283.9263L539.7357 283.9263L539.7357 263.6055L539.24 263.6055z" stroke="none" fill="#000000" fill-rule="nonzero" /><path id="660" transform="matrix(1 0 0 -1 0 842)" d="M355.8588 264.1013L454.4881 264.1013L454.4881 263.6055L355.8588 263.6055z" stroke="none" fill="#000000" fill-rule="nonzero" /><path id="661" transform="matrix(1 0 0 -1 0 842)" d="M355.8588 244.2761L454.4881 244.2761L454.4881 243.7805L355.8588 243.7805z" stroke="none" fill="#000000" fill-rule="nonzero" /><path id="662" transform="matrix(1 0 0 -1 0 842)" d="M355.8588 264.1013L356.3544 264.1013L356.3544 243.7805L355.8588 243.7805z" stroke="none" fill="#000000" fill-rule="nonzero" /><path id="663" transform="matrix(1 0 0 -1 0 842)" d="M453.9925 264.1013L454.4881 264.1013L454.4881 243.7805L453.9925 243.7805z" stroke="none" fill="#000000" fill-rule="nonzero" /><path id="664" transform="matrix(1 0 0 -1 0 842)" d="M453.9925 264.1013L539.7357 264.1013L539.7357 263.6055L453.9925 263.6055z" stroke="none" fill="#000000" fill-rule="nonzero" /><path id="665" transform="matrix(1 0 0 -1 0 842)" d="M453.9925 244.2761L539.7357 244.2761L539.7357 243.7805L453.9925 243.7805z" stroke="none" fill="#000000" fill-rule="nonzero" /><path id="666" transform="matrix(1 0 0 -1 0 842)" d="M453.9925 264.1013L454.4881 264.1013L454.4881 243.7805L453.9925 243.7805z" stroke="none" fill="#000000" fill-rule="nonzero" /><path id="667" transform="matrix(1 0 0 -1 0 842)" d="M539.24 264.1013L539.7357 264.1013L539.7357 243.7805L539.24 243.7805z" stroke="none" fill="#000000" fill-rule="nonzero" /><path id="668" transform="matrix(1 0 0 -1 0 842)" d="M355.8588 244.2761L454.4881 244.2761L454.4881 243.7805L355.8588 243.7805z" stroke="none" fill="#000000" fill-rule="nonzero" /><path id="669" transform="matrix(1 0 0 -1 0 842)" d="M355.8588 224.4512L454.4881 224.4512L454.4881 223.9556L355.8588 223.9556z" stroke="none" fill="#000000" fill-rule="nonzero" /><path id="670" transform="matrix(1 0 0 -1 0 842)" d="M355.8588 244.2761L356.3544 244.2761L356.3544 223.9556L355.8588 223.9556z" stroke="none" fill="#000000" fill-rule="nonzero" /><path id="671" transform="matrix(1 0 0 -1 0 842)" d="M453.9925 244.2761L454.4881 244.2761L454.4881 223.9556L453.9925 223.9556z" stroke="none" fill="#000000" fill-rule="nonzero" /><path id="672" transform="matrix(1 0 0 -1 0 842)" d="M453.9925 244.2761L539.7357 244.2761L539.7357 243.7805L453.9925 243.7805z" stroke="none" fill="#000000" fill-rule="nonzero" /><path id="673" transform="matrix(1 0 0 -1 0 842)" d="M453.9925 224.4512L539.7357 224.4512L539.7357 223.9556L453.9925 223.9556z" stroke="none" fill="#000000" fill-rule="nonzero" /><path id="674" transform="matrix(1 0 0 -1 0 842)" d="M453.9925 244.2761L454.4881 244.2761L454.4881 223.9556L453.9925 223.9556z" stroke="none" fill="#000000" fill-rule="nonzero" /><path id="675" transform="matrix(1 0 0 -1 0 842)" d="M539.24 244.2761L539.7357 244.2761L539.7357 223.9556L539.24 223.9556z" stroke="none" fill="#000000" fill-rule="nonzero" /><path id="676" transform="matrix(1 0 0 -1 0 842)" d="M355.8588 224.4512L454.4881 224.4512L454.4881 223.9556L355.8588 223.9556z" stroke="none" fill="#000000" fill-rule="nonzero" /><path id="677" transform="matrix(1 0 0 -1 0 842)" d="M355.8588 204.6262L454.4881 204.6262L454.4881 204.1306L355.8588 204.1306z" stroke="none" fill="#000000" fill-rule="nonzero" /><path id="678" transform="matrix(1 0 0 -1 0 842)" d="M355.8588 224.4512L356.3544 224.4512L356.3544 204.1306L355.8588 204.1306z" stroke="none" fill="#000000" fill-rule="nonzero" /><path id="679" transform="matrix(1 0 0 -1 0 842)" d="M453.9925 224.4512L454.4881 224.4512L454.4881 204.1306L453.9925 204.1306z" stroke="none" fill="#000000" fill-rule="nonzero" /><path id="680" transform="matrix(1 0 0 -1 0 842)" d="M453.9925 224.4512L539.7357 224.4512L539.7357 223.9556L453.9925 223.9556z" stroke="none" fill="#000000" fill-rule="nonzero" /><path id="681" transform="matrix(1 0 0 -1 0 842)" d="M453.9925 204.6262L539.7357 204.6262L539.7357 204.1306L453.9925 204.1306z" stroke="none" fill="#000000" fill-rule="nonzero" /><path id="682" transform="matrix(1 0 0 -1 0 842)" d="M453.9925 224.4512L454.4881 224.4512L454.4881 204.1306L453.9925 204.1306z" stroke="none" fill="#000000" fill-rule="nonzero" /><path id="683" transform="matrix(1 0 0 -1 0 842)" d="M539.24 224.4512L539.7357 224.4512L539.7357 204.1306L539.24 204.1306z" stroke="none" fill="#000000" fill-rule="nonzero" /><path id="684" transform="matrix(1 0 0 -1 0 842)" d="M355.8588 204.6262L454.4881 204.6262L454.4881 204.1306L355.8588 204.1306z" stroke="none" fill="#000000" fill-rule="nonzero" /><path id="685" transform="matrix(1 0 0 -1 0 842)" d="M355.8588 184.8013L454.4881 184.8013L454.4881 184.3057L355.8588 184.3057z" stroke="none" fill="#000000" fill-rule="nonzero" /><path id="686" transform="matrix(1 0 0 -1 0 842)" d="M355.8588 204.6262L356.3544 204.6262L356.3544 184.3057L355.8588 184.3057z" stroke="none" fill="#000000" fill-rule="nonzero" /><path id="687" transform="matrix(1 0 0 -1 0 842)" d="M453.9925 204.6262L454.4881 204.6262L454.4881 184.3057L453.9925 184.3057z" stroke="none" fill="#000000" fill-rule="nonzero" /><path id="688" transform="matrix(1 0 0 -1 0 842)" d="M453.9925 204.6262L539.7357 204.6262L539.7357 204.1306L453.9925 204.1306z" stroke="none" fill="#000000" fill-rule="nonzero" /><path id="689" transform="matrix(1 0 0 -1 0 842)" d="M453.9925 184.8013L539.7357 184.8013L539.7357 184.3057L453.9925 184.3057z" stroke="none" fill="#000000" fill-rule="nonzero" /><path id="690" transform="matrix(1 0 0 -1 0 842)" d="M453.9925 204.6262L454.4881 204.6262L454.4881 184.3057L453.9925 184.3057z" stroke="none" fill="#000000" fill-rule="nonzero" /><path id="691" transform="matrix(1 0 0 -1 0 842)" d="M539.24 204.6262L539.7357 204.6262L539.7357 184.3057L539.24 184.3057z" stroke="none" fill="#000000" fill-rule="nonzero" /><path id="692" transform="matrix(1 0 0 -1 0 842)" d="M355.8588 184.8013L454.4881 184.8013L454.4881 184.3057L355.8588 184.3057z" stroke="none" fill="#000000" fill-rule="nonzero" /><path id="693" transform="matrix(1 0 0 -1 0 842)" d="M355.8588 164.9763L454.4881 164.9763L454.4881 164.4805L355.8588 164.4805z" stroke="none" fill="#000000" fill-rule="nonzero" /><path id="694" transform="matrix(1 0 0 -1 0 842)" d="M355.8588 184.8013L356.3544 184.8013L356.3544 164.4805L355.8588 164.4805z" stroke="none" fill="#000000" fill-rule="nonzero" /><path id="695" transform="matrix(1 0 0 -1 0 842)" d="M453.9925 184.8013L454.4881 184.8013L454.4881 164.4805L453.9925 164.4805z" stroke="none" fill="#000000" fill-rule="nonzero" /><path id="696" transform="matrix(1 0 0 -1 0 842)" d="M453.9925 184.8013L539.7357 184.8013L539.7357 184.3057L453.9925 184.3057z" stroke="none" fill="#000000" fill-rule="nonzero" /><path id="697" transform="matrix(1 0 0 -1 0 842)" d="M453.9925 164.9763L539.7357 164.9763L539.7357 164.4805L453.9925 164.4805z" stroke="none" fill="#000000" fill-rule="nonzero" /><path id="698" transform="matrix(1 0 0 -1 0 842)" d="M453.9925 184.8013L454.4881 184.8013L454.4881 164.4805L453.9925 164.4805z" stroke="none" fill="#000000" fill-rule="nonzero" /><path id="699" transform="matrix(1 0 0 -1 0 842)" d="M539.24 184.8013L539.7357 184.8013L539.7357 164.4805L539.24 164.4805z" stroke="none" fill="#000000" fill-rule="nonzero" /><path id="700" transform="matrix(1 0 0 -1 0 842)" d="M355.8588 164.9763L454.4881 164.9763L454.4881 164.4805L355.8588 164.4805z" stroke="none" fill="#000000" fill-rule="nonzero" /><path id="701" transform="matrix(1 0 0 -1 0 842)" d="M355.8588 145.1511L454.4881 145.1511L454.4881 144.6555L355.8588 144.6555z" stroke="none" fill="#000000" fill-rule="nonzero" /><path id="702" transform="matrix(1 0 0 -1 0 842)" d="M355.8588 164.9763L356.3544 164.9763L356.3544 144.6555L355.8588 144.6555z" stroke="none" fill="#000000" fill-rule="nonzero" /><path id="703" transform="matrix(1 0 0 -1 0 842)" d="M453.9925 164.9763L454.4881 164.9763L454.4881 144.6555L453.9925 144.6555z" stroke="none" fill="#000000" fill-rule="nonzero" /><path id="704" transform="matrix(1 0 0 -1 0 842)" d="M453.9925 164.9763L539.7357 164.9763L539.7357 164.4805L453.9925 164.4805z" stroke="none" fill="#000000" fill-rule="nonzero" /><path id="705" transform="matrix(1 0 0 -1 0 842)" d="M453.9925 145.1511L539.7357 145.1511L539.7357 144.6555L453.9925 144.6555z" stroke="none" fill="#000000" fill-rule="nonzero" /><path id="706" transform="matrix(1 0 0 -1 0 842)" d="M453.9925 164.9763L454.4881 164.9763L454.4881 144.6555L453.9925 144.6555z" stroke="none" fill="#000000" fill-rule="nonzero" /><path id="707" transform="matrix(1 0 0 -1 0 842)" d="M539.24 164.9763L539.7357 164.9763L539.7357 144.6555L539.24 144.6555z" stroke="none" fill="#000000" fill-rule="nonzero" /><path id="708" transform="matrix(1 0 0 -1 0 842)" d="M355.8588 145.1511L454.4881 145.1511L454.4881 144.6555L355.8588 144.6555z" stroke="none" fill="#000000" fill-rule="nonzero" /><path id="709" transform="matrix(1 0 0 -1 0 842)" d="M355.8588 125.3262L454.4881 125.3262L454.4881 124.8306L355.8588 124.8306z" stroke="none" fill="#000000" fill-rule="nonzero" /><path id="710" transform="matrix(1 0 0 -1 0 842)" d="M355.8588 145.1511L356.3544 145.1511L356.3544 124.8306L355.8588 124.8306z" stroke="none" fill="#000000" fill-rule="nonzero" /><path id="711" transform="matrix(1 0 0 -1 0 842)" d="M453.9925 145.1511L454.4881 145.1511L454.4881 124.8306L453.9925 124.8306z" stroke="none" fill="#000000" fill-rule="nonzero" /><path id="712" transform="matrix(1 0 0 -1 0 842)" d="M453.9925 145.1511L539.7357 145.1511L539.7357 144.6555L453.9925 144.6555z" stroke="none" fill="#000000" fill-rule="nonzero" /><path id="713" transform="matrix(1 0 0 -1 0 842)" d="M453.9925 125.3262L539.7357 125.3262L539.7357 124.8306L453.9925 124.8306z" stroke="none" fill="#000000" fill-rule="nonzero" /><path id="714" transform="matrix(1 0 0 -1 0 842)" d="M453.9925 145.1511L454.4881 145.1511L454.4881 124.8306L453.9925 124.8306z" stroke="none" fill="#000000" fill-rule="nonzero" /><path id="715" transform="matrix(1 0 0 -1 0 842)" d="M539.24 145.1511L539.7357 145.1511L539.7357 124.8306L539.24 124.8306z" stroke="none" fill="#000000" fill-rule="nonzero" /><path id="716" transform="matrix(1 0 0 -1 0 842)" d="M355.8588 125.3262L454.4881 125.3262L454.4881 124.8306L355.8588 124.8306z" stroke="none" fill="#000000" fill-rule="nonzero" /><path id="717" transform="matrix(1 0 0 -1 0 842)" d="M355.8588 105.5012L454.4881 105.5012L454.4881 105.0056L355.8588 105.0056z" stroke="none" fill="#000000" fill-rule="nonzero" /><path id="718" transform="matrix(1 0 0 -1 0 842)" d="M355.8588 125.3262L356.3544 125.3262L356.3544 105.0056L355.8588 105.0056z" stroke="none" fill="#000000" fill-rule="nonzero" /><path id="719" transform="matrix(1 0 0 -1 0 842)" d="M453.9925 125.3262L454.4881 125.3262L454.4881 105.0056L453.9925 105.0056z" stroke="none" fill="#000000" fill-rule="nonzero" /><path id="720" transform="matrix(1 0 0 -1 0 842)" d="M453.9925 125.3262L539.7357 125.3262L539.7357 124.8306L453.9925 124.8306z" stroke="none" fill="#000000" fill-rule="nonzero" /><path id="721" transform="matrix(1 0 0 -1 0 842)" d="M453.9925 105.5012L539.7357 105.5012L539.7357 105.0056L453.9925 105.0056z" stroke="none" fill="#000000" fill-rule="nonzero" /><path id="722" transform="matrix(1 0 0 -1 0 842)" d="M453.9925 125.3262L454.4881 125.3262L454.4881 105.0056L453.9925 105.0056z" stroke="none" fill="#000000" fill-rule="nonzero" /><path id="723" transform="matrix(1 0 0 -1 0 842)" d="M539.24 125.3262L539.7357 125.3262L539.7357 105.0056L539.24 105.0056z" stroke="none" fill="#000000" fill-rule="nonzero" /><path id="724" transform="matrix(1 0 0 -1 0 842)" d="M355.8588 105.5012L454.4881 105.5012L454.4881 105.0056L355.8588 105.0056z" stroke="none" fill="#000000" fill-rule="nonzero" /><path id="725" transform="matrix(1 0 0 -1 0 842)" d="M355.8588 85.67627L454.4881 85.67627L454.4881 85.18066L355.8588 85.18066z" stroke="none" fill="#000000" fill-rule="nonzero" /><path id="726" transform="matrix(1 0 0 -1 0 842)" d="M355.8588 105.5012L356.3544 105.5012L356.3544 85.18066L355.8588 85.18066z" stroke="none" fill="#000000" fill-rule="nonzero" /><path id="727" transform="matrix(1 0 0 -1 0 842)" d="M453.9925 105.5012L454.4881 105.5012L454.4881 85.18066L453.9925 85.18066z" stroke="none" fill="#000000" fill-rule="nonzero" /><path id="728" transform="matrix(1 0 0 -1 0 842)" d="M453.9925 105.5012L539.7357 105.5012L539.7357 105.0056L453.9925 105.0056z" stroke="none" fill="#000000" fill-rule="nonzero" /><path id="729" transform="matrix(1 0 0 -1 0 842)" d="M453.9925 85.67627L539.7357 85.67627L539.7357 85.18066L453.9925 85.18066z" stroke="none" fill="#000000" fill-rule="nonzero" /><path id="730" transform="matrix(1 0 0 -1 0 842)" d="M453.9925 105.5012L454.4881 105.5012L454.4881 85.18066L453.9925 85.18066z" stroke="none" fill="#000000" fill-rule="nonzero" /><path id="731" transform="matrix(1 0 0 -1 0 842)" d="M539.24 105.5012L539.7357 105.5012L539.7357 85.18066L539.24 85.18066z" stroke="none" fill="#000000" fill-rule="nonzero" /></g></g></g></svg>