<svg xmlns="http://www.w3.org/2000/svg" xmlns:xlink="http://www.w3.org/1999/xlink" id="body_26" preserveAspectRatio="xMinYMin meet" viewBox="0 0 793 1123"><defs><clipPath id="1"><path id="" clip-rule="evenodd" transform="matrix(1 0 0 1 0 0)" d="M0 842L0 0L0 0L595 0L595 0L595 842L595 842L0 842z" /></clipPath><clipPath id="2"><path id="" clip-rule="evenodd" transform="matrix(1 0 0 1 0 0)" d="M0 0L594.75 0L594.75 0L594.75 842.0669L594.75 842.0669L0 842.0669L0 842.0669L0 0z" /></clipPath></defs><g transform="matrix(1.333333 0 0 1.333333 0 0)"><g clip-path="url(#1)"><g clip-path="url(#2)"><path id="1" transform="matrix(1 0 0 -1 0 842)" d="M0 842L594.75 842L594.75 -0.06835938L0 -0.06835938z" stroke="none" fill="#FFFFFF" fill-rule="nonzero" /><path id="2" transform="matrix(1 0 0 -1 0 842)" d="M49.5625 724.041L74.34375 724.041L74.34375 698.2676L49.5625 698.2676z" stroke="none" fill="#9CC9F0" fill-rule="nonzero" /><path id="3" transform="matrix(1 0 0 -1 0 842)" d="M74.34375 724.041L148.6875 724.041L148.6875 698.2676L74.34375 698.2676z" stroke="none" fill="#9CC9F0" fill-rule="nonzero" /><path id="4" transform="matrix(1 0 0 -1 0 842)" d="M148.6875 724.041L223.0313 724.041L223.0313 698.2676L148.6875 698.2676z" stroke="none" fill="#9CC9F0" fill-rule="nonzero" /><path id="5" transform="matrix(1 0 0 -1 0 842)" d="M223.0313 724.041L272.5938 724.041L272.5938 698.2676L223.0313 698.2676z" stroke="none" fill="#9CC9F0" fill-rule="nonzero" /><path id="6" transform="matrix(1 0 0 -1 0 842)" d="M272.5938 724.041L421.2813 724.041L421.2813 698.2676L272.5938 698.2676z" stroke="none" fill="#9CC9F0" fill-rule="nonzero" /><path id="7" transform="matrix(1 0 0 -1 0 842)" d="M421.2813 724.041L470.8438 724.041L470.8438 698.2676L421.2813 698.2676z" stroke="none" fill="#9CC9F0" fill-rule="nonzero" /><path id="8" transform="matrix(1 0 0 -1 0 842)" d="M470.8438 724.041L544.6919 724.041L544.6919 698.2676L470.8438 698.2676z" stroke="none" fill="#9CC9F0" fill-rule="nonzero" /><path id="9" transform="matrix(1 0 0 -1 0 842)" d="M49.5625 724.041L74.83938 724.041L74.83938 723.5449L49.5625 723.5449z" stroke="none" fill="#000000" fill-rule="nonzero" /><path id="10" transform="matrix(1 0 0 -1 0 842)" d="M49.5625 698.2676L74.83938 698.2676L74.83938 697.7715L49.5625 697.7715z" stroke="none" fill="#000000" fill-rule="nonzero" /><path id="11" transform="matrix(1 0 0 -1 0 842)" d="M49.5625 724.041L50.05813 724.041L50.05813 697.7715L49.5625 697.7715z" stroke="none" fill="#000000" fill-rule="nonzero" /><path id="12" transform="matrix(1 0 0 -1 0 842)" d="M74.34375 724.041L74.83938 724.041L74.83938 697.7715L74.34375 697.7715z" stroke="none" fill="#000000" fill-rule="nonzero" /><path id="13" transform="matrix(1 0 0 -1 0 842)" d="M74.34375 724.041L149.1831 724.041L149.1831 723.5449L74.34375 723.5449z" stroke="none" fill="#000000" fill-rule="nonzero" /><path id="14" transform="matrix(1 0 0 -1 0 842)" d="M74.34375 698.2676L149.1831 698.2676L149.1831 697.7715L74.34375 697.7715z" stroke="none" fill="#000000" fill-rule="nonzero" /><path id="15" transform="matrix(1 0 0 -1 0 842)" d="M74.34375 724.041L74.83938 724.041L74.83938 697.7715L74.34375 697.7715z" stroke="none" fill="#000000" fill-rule="nonzero" /><path id="16" transform="matrix(1 0 0 -1 0 842)" d="M148.6875 724.041L149.1831 724.041L149.1831 697.7715L148.6875 697.7715z" stroke="none" fill="#000000" fill-rule="nonzero" /><path id="17" transform="matrix(1 0 0 -1 0 842)" d="M148.6875 724.041L223.5269 724.041L223.5269 723.5449L148.6875 723.5449z" stroke="none" fill="#000000" fill-rule="nonzero" /><path id="18" transform="matrix(1 0 0 -1 0 842)" d="M148.6875 698.2676L223.5269 698.2676L223.5269 697.7715L148.6875 697.7715z" stroke="none" fill="#000000" fill-rule="nonzero" /><path id="19" transform="matrix(1 0 0 -1 0 842)" d="M148.6875 724.041L149.1831 724.041L149.1831 697.7715L148.6875 697.7715z" stroke="none" fill="#000000" fill-rule="nonzero" /><path id="20" transform="matrix(1 0 0 -1 0 842)" d="M223.0313 724.041L223.5269 724.041L223.5269 697.7715L223.0313 697.7715z" stroke="none" fill="#000000" fill-rule="nonzero" /><path id="21" transform="matrix(1 0 0 -1 0 842)" d="M223.0313 724.041L273.0894 724.041L273.0894 723.5449L223.0313 723.5449z" stroke="none" fill="#000000" fill-rule="nonzero" /><path id="22" transform="matrix(1 0 0 -1 0 842)" d="M223.0313 698.2676L273.0894 698.2676L273.0894 697.7715L223.0313 697.7715z" stroke="none" fill="#000000" fill-rule="nonzero" /><path id="23" transform="matrix(1 0 0 -1 0 842)" d="M223.0313 724.041L223.5269 724.041L223.5269 697.7715L223.0313 697.7715z" stroke="none" fill="#000000" fill-rule="nonzero" /><path id="24" transform="matrix(1 0 0 -1 0 842)" d="M272.5938 724.041L273.0894 724.041L273.0894 697.7715L272.5938 697.7715z" stroke="none" fill="#000000" fill-rule="nonzero" /><path id="25" transform="matrix(1 0 0 -1 0 842)" d="M272.5938 724.041L421.7769 724.041L421.7769 723.5449L272.5938 723.5449z" stroke="none" fill="#000000" fill-rule="nonzero" /><path id="26" transform="matrix(1 0 0 -1 0 842)" d="M272.5938 698.2676L421.7769 698.2676L421.7769 697.7715L272.5938 697.7715z" stroke="none" fill="#000000" fill-rule="nonzero" /><path id="27" transform="matrix(1 0 0 -1 0 842)" d="M272.5938 724.041L273.0894 724.041L273.0894 697.7715L272.5938 697.7715z" stroke="none" fill="#000000" fill-rule="nonzero" /><path id="28" transform="matrix(1 0 0 -1 0 842)" d="M421.2813 724.041L421.7769 724.041L421.7769 697.7715L421.2813 697.7715z" stroke="none" fill="#000000" fill-rule="nonzero" /><path id="29" transform="matrix(1 0 0 -1 0 842)" d="M421.2813 724.041L471.3394 724.041L471.3394 723.5449L421.2813 723.5449z" stroke="none" fill="#000000" fill-rule="nonzero" /><path id="30" transform="matrix(1 0 0 -1 0 842)" d="M421.2813 698.2676L471.3394 698.2676L471.3394 697.7715L421.2813 697.7715z" stroke="none" fill="#000000" fill-rule="nonzero" /><path id="31" transform="matrix(1 0 0 -1 0 842)" d="M421.2813 724.041L421.7769 724.041L421.7769 697.7715L421.2813 697.7715z" stroke="none" fill="#000000" fill-rule="nonzero" /><path id="32" transform="matrix(1 0 0 -1 0 842)" d="M470.8438 724.041L471.3394 724.041L471.3394 697.7715L470.8438 697.7715z" stroke="none" fill="#000000" fill-rule="nonzero" /><path id="33" transform="matrix(1 0 0 -1 0 842)" d="M470.8438 724.041L545.1875 724.041L545.1875 723.5449L470.8438 723.5449z" stroke="none" fill="#000000" fill-rule="nonzero" /><path id="34" transform="matrix(1 0 0 -1 0 842)" d="M470.8438 698.2676L545.1875 698.2676L545.1875 697.7715L470.8438 697.7715z" stroke="none" fill="#000000" fill-rule="nonzero" /><path id="35" transform="matrix(1 0 0 -1 0 842)" d="M470.8438 724.041L471.3394 724.041L471.3394 697.7715L470.8438 697.7715z" stroke="none" fill="#000000" fill-rule="nonzero" /><path id="36" transform="matrix(1 0 0 -1 0 842)" d="M544.6919 724.041L545.1875 724.041L545.1875 697.7715L544.6919 697.7715z" stroke="none" fill="#000000" fill-rule="nonzero" /><path id="37" transform="matrix(1 0 0 -1 0 842)" d="M49.5625 698.2676L74.83938 698.2676L74.83938 697.7715L49.5625 697.7715z" stroke="none" fill="#000000" fill-rule="nonzero" /><path id="38" transform="matrix(1 0 0 -1 0 842)" d="M49.5625 664.0703L74.83938 664.0703L74.83938 663.5742L49.5625 663.5742z" stroke="none" fill="#000000" fill-rule="nonzero" /><path id="39" transform="matrix(1 0 0 -1 0 842)" d="M49.5625 698.2676L50.05813 698.2676L50.05813 663.5742L49.5625 663.5742z" stroke="none" fill="#000000" fill-rule="nonzero" /><path id="40" transform="matrix(1 0 0 -1 0 842)" d="M74.34375 698.2676L74.83938 698.2676L74.83938 663.5742L74.34375 663.5742z" stroke="none" fill="#000000" fill-rule="nonzero" /><path id="41" transform="matrix(1 0 0 -1 0 842)" d="M74.34375 698.2676L149.1831 698.2676L149.1831 697.7715L74.34375 697.7715z" stroke="none" fill="#000000" fill-rule="nonzero" /><path id="42" transform="matrix(1 0 0 -1 0 842)" d="M74.34375 664.0703L149.1831 664.0703L149.1831 663.5742L74.34375 663.5742z" stroke="none" fill="#000000" fill-rule="nonzero" /><path id="43" transform="matrix(1 0 0 -1 0 842)" d="M74.34375 698.2676L74.83938 698.2676L74.83938 663.5742L74.34375 663.5742z" stroke="none" fill="#000000" fill-rule="nonzero" /><path id="44" transform="matrix(1 0 0 -1 0 842)" d="M148.6875 698.2676L149.1831 698.2676L149.1831 663.5742L148.6875 663.5742z" stroke="none" fill="#000000" fill-rule="nonzero" /><path id="45" transform="matrix(1 0 0 -1 0 842)" d="M148.6875 698.2676L223.5269 698.2676L223.5269 697.7715L148.6875 697.7715z" stroke="none" fill="#000000" fill-rule="nonzero" /><path id="46" transform="matrix(1 0 0 -1 0 842)" d="M148.6875 664.0703L223.5269 664.0703L223.5269 663.5742L148.6875 663.5742z" stroke="none" fill="#000000" fill-rule="nonzero" /><path id="47" transform="matrix(1 0 0 -1 0 842)" d="M148.6875 698.2676L149.1831 698.2676L149.1831 663.5742L148.6875 663.5742z" stroke="none" fill="#000000" fill-rule="nonzero" /><path id="48" transform="matrix(1 0 0 -1 0 842)" d="M223.0313 698.2676L223.5269 698.2676L223.5269 663.5742L223.0313 663.5742z" stroke="none" fill="#000000" fill-rule="nonzero" /><path id="49" transform="matrix(1 0 0 -1 0 842)" d="M223.0313 698.2676L273.0894 698.2676L273.0894 697.7715L223.0313 697.7715z" stroke="none" fill="#000000" fill-rule="nonzero" /><path id="50" transform="matrix(1 0 0 -1 0 842)" d="M223.0313 664.0703L273.0894 664.0703L273.0894 663.5742L223.0313 663.5742z" stroke="none" fill="#000000" fill-rule="nonzero" /><path id="51" transform="matrix(1 0 0 -1 0 842)" d="M223.0313 698.2676L223.5269 698.2676L223.5269 663.5742L223.0313 663.5742z" stroke="none" fill="#000000" fill-rule="nonzero" /><path id="52" transform="matrix(1 0 0 -1 0 842)" d="M272.5938 698.2676L273.0894 698.2676L273.0894 663.5742L272.5938 663.5742z" stroke="none" fill="#000000" fill-rule="nonzero" /><path id="53" transform="matrix(1 0 0 -1 0 842)" d="M272.5938 698.2676L421.7769 698.2676L421.7769 697.7715L272.5938 697.7715z" stroke="none" fill="#000000" fill-rule="nonzero" /><path id="54" transform="matrix(1 0 0 -1 0 842)" d="M272.5938 664.0703L421.7769 664.0703L421.7769 663.5742L272.5938 663.5742z" stroke="none" fill="#000000" fill-rule="nonzero" /><path id="55" transform="matrix(1 0 0 -1 0 842)" d="M272.5938 698.2676L273.0894 698.2676L273.0894 663.5742L272.5938 663.5742z" stroke="none" fill="#000000" fill-rule="nonzero" /><path id="56" transform="matrix(1 0 0 -1 0 842)" d="M421.2813 698.2676L421.7769 698.2676L421.7769 663.5742L421.2813 663.5742z" stroke="none" fill="#000000" fill-rule="nonzero" /><path id="57" transform="matrix(1 0 0 -1 0 842)" d="M421.2813 698.2676L471.3394 698.2676L471.3394 697.7715L421.2813 697.7715z" stroke="none" fill="#000000" fill-rule="nonzero" /><path id="58" transform="matrix(1 0 0 -1 0 842)" d="M421.2813 664.0703L471.3394 664.0703L471.3394 663.5742L421.2813 663.5742z" stroke="none" fill="#000000" fill-rule="nonzero" /><path id="59" transform="matrix(1 0 0 -1 0 842)" d="M421.2813 698.2676L421.7769 698.2676L421.7769 663.5742L421.2813 663.5742z" stroke="none" fill="#000000" fill-rule="nonzero" /><path id="60" transform="matrix(1 0 0 -1 0 842)" d="M470.8438 698.2676L471.3394 698.2676L471.3394 663.5742L470.8438 663.5742z" stroke="none" fill="#000000" fill-rule="nonzero" /><path id="61" transform="matrix(1 0 0 -1 0 842)" d="M470.8438 698.2676L545.1875 698.2676L545.1875 697.7715L470.8438 697.7715z" stroke="none" fill="#000000" fill-rule="nonzero" /><path id="62" transform="matrix(1 0 0 -1 0 842)" d="M470.8438 664.0703L545.1875 664.0703L545.1875 663.5742L470.8438 663.5742z" stroke="none" fill="#000000" fill-rule="nonzero" /><path id="63" transform="matrix(1 0 0 -1 0 842)" d="M470.8438 698.2676L471.3394 698.2676L471.3394 663.5742L470.8438 663.5742z" stroke="none" fill="#000000" fill-rule="nonzero" /><path id="64" transform="matrix(1 0 0 -1 0 842)" d="M544.6919 698.2676L545.1875 698.2676L545.1875 663.5742L544.6919 663.5742z" stroke="none" fill="#000000" fill-rule="nonzero" /></g></g></g></svg>