<svg xmlns="http://www.w3.org/2000/svg" xmlns:xlink="http://www.w3.org/1999/xlink" id="body_10" preserveAspectRatio="xMinYMin meet" viewBox="0 0 793 1123"><defs><clipPath id="1"><path id="" clip-rule="evenodd" transform="matrix(1 0 0 1 0 0)" d="M0 842L0 0L0 0L595 0L595 0L595 842L595 842L0 842z" /></clipPath><clipPath id="2"><path id="" clip-rule="evenodd" transform="matrix(1 0 0 1 0 0)" d="M0 0L594.75 0L594.75 0L594.75 842.0669L594.75 842.0669L0 842.0669L0 842.0669L0 0z" /></clipPath></defs><g transform="matrix(1.333333 0 0 1.333333 0 0)"><g clip-path="url(#1)"><g clip-path="url(#2)"><path id="1" transform="matrix(1 0 0 -1 0 842)" d="M0 841.9995L594.75 841.9995L594.75 -0.06738281L0 -0.06738281z" stroke="none" fill="#FFFFFF" fill-rule="nonzero" /><path id="2" transform="matrix(1 0 0 -1 0 842)" d="M49.5625 727.0142L74.34375 727.0142L74.34375 701.2417L49.5625 701.2417z" stroke="none" fill="#9CC9F0" fill-rule="nonzero" /><path id="3" transform="matrix(1 0 0 -1 0 842)" d="M74.34375 727.0142L148.6875 727.0142L148.6875 701.2417L74.34375 701.2417z" stroke="none" fill="#9CC9F0" fill-rule="nonzero" /><path id="4" transform="matrix(1 0 0 -1 0 842)" d="M148.6875 727.0142L223.0313 727.0142L223.0313 701.2417L148.6875 701.2417z" stroke="none" fill="#9CC9F0" fill-rule="nonzero" /><path id="5" transform="matrix(1 0 0 -1 0 842)" d="M223.0313 727.0142L272.5938 727.0142L272.5938 701.2417L223.0313 701.2417z" stroke="none" fill="#9CC9F0" fill-rule="nonzero" /><path id="6" transform="matrix(1 0 0 -1 0 842)" d="M272.5938 727.0142L421.2813 727.0142L421.2813 701.2417L272.5938 701.2417z" stroke="none" fill="#9CC9F0" fill-rule="nonzero" /><path id="7" transform="matrix(1 0 0 -1 0 842)" d="M421.2813 727.0142L470.8438 727.0142L470.8438 701.2417L421.2813 701.2417z" stroke="none" fill="#9CC9F0" fill-rule="nonzero" /><path id="8" transform="matrix(1 0 0 -1 0 842)" d="M470.8438 727.0142L544.6919 727.0142L544.6919 701.2417L470.8438 701.2417z" stroke="none" fill="#9CC9F0" fill-rule="nonzero" /><path id="9" transform="matrix(1 0 0 -1 0 842)" d="M49.5625 727.0142L74.83938 727.0142L74.83938 726.5186L49.5625 726.5186z" stroke="none" fill="#000000" fill-rule="nonzero" /><path id="10" transform="matrix(1 0 0 -1 0 842)" d="M49.5625 701.2417L74.83938 701.2417L74.83938 700.7461L49.5625 700.7461z" stroke="none" fill="#000000" fill-rule="nonzero" /><path id="11" transform="matrix(1 0 0 -1 0 842)" d="M49.5625 727.0142L50.05813 727.0142L50.05813 700.7461L49.5625 700.7461z" stroke="none" fill="#000000" fill-rule="nonzero" /><path id="12" transform="matrix(1 0 0 -1 0 842)" d="M74.34375 727.0142L74.83938 727.0142L74.83938 700.7461L74.34375 700.7461z" stroke="none" fill="#000000" fill-rule="nonzero" /><path id="13" transform="matrix(1 0 0 -1 0 842)" d="M74.34375 727.0142L149.1831 727.0142L149.1831 726.5186L74.34375 726.5186z" stroke="none" fill="#000000" fill-rule="nonzero" /><path id="14" transform="matrix(1 0 0 -1 0 842)" d="M74.34375 701.2417L149.1831 701.2417L149.1831 700.7461L74.34375 700.7461z" stroke="none" fill="#000000" fill-rule="nonzero" /><path id="15" transform="matrix(1 0 0 -1 0 842)" d="M74.34375 727.0142L74.83938 727.0142L74.83938 700.7461L74.34375 700.7461z" stroke="none" fill="#000000" fill-rule="nonzero" /><path id="16" transform="matrix(1 0 0 -1 0 842)" d="M148.6875 727.0142L149.1831 727.0142L149.1831 700.7461L148.6875 700.7461z" stroke="none" fill="#000000" fill-rule="nonzero" /><path id="17" transform="matrix(1 0 0 -1 0 842)" d="M148.6875 727.0142L223.5269 727.0142L223.5269 726.5186L148.6875 726.5186z" stroke="none" fill="#000000" fill-rule="nonzero" /><path id="18" transform="matrix(1 0 0 -1 0 842)" d="M148.6875 701.2417L223.5269 701.2417L223.5269 700.7461L148.6875 700.7461z" stroke="none" fill="#000000" fill-rule="nonzero" /><path id="19" transform="matrix(1 0 0 -1 0 842)" d="M148.6875 727.0142L149.1831 727.0142L149.1831 700.7461L148.6875 700.7461z" stroke="none" fill="#000000" fill-rule="nonzero" /><path id="20" transform="matrix(1 0 0 -1 0 842)" d="M223.0313 727.0142L223.5269 727.0142L223.5269 700.7461L223.0313 700.7461z" stroke="none" fill="#000000" fill-rule="nonzero" /><path id="21" transform="matrix(1 0 0 -1 0 842)" d="M223.0313 727.0142L273.0894 727.0142L273.0894 726.5186L223.0313 726.5186z" stroke="none" fill="#000000" fill-rule="nonzero" /><path id="22" transform="matrix(1 0 0 -1 0 842)" d="M223.0313 701.2417L273.0894 701.2417L273.0894 700.7461L223.0313 700.7461z" stroke="none" fill="#000000" fill-rule="nonzero" /><path id="23" transform="matrix(1 0 0 -1 0 842)" d="M223.0313 727.0142L223.5269 727.0142L223.5269 700.7461L223.0313 700.7461z" stroke="none" fill="#000000" fill-rule="nonzero" /><path id="24" transform="matrix(1 0 0 -1 0 842)" d="M272.5938 727.0142L273.0894 727.0142L273.0894 700.7461L272.5938 700.7461z" stroke="none" fill="#000000" fill-rule="nonzero" /><path id="25" transform="matrix(1 0 0 -1 0 842)" d="M272.5938 727.0142L421.7769 727.0142L421.7769 726.5186L272.5938 726.5186z" stroke="none" fill="#000000" fill-rule="nonzero" /><path id="26" transform="matrix(1 0 0 -1 0 842)" d="M272.5938 701.2417L421.7769 701.2417L421.7769 700.7461L272.5938 700.7461z" stroke="none" fill="#000000" fill-rule="nonzero" /><path id="27" transform="matrix(1 0 0 -1 0 842)" d="M272.5938 727.0142L273.0894 727.0142L273.0894 700.7461L272.5938 700.7461z" stroke="none" fill="#000000" fill-rule="nonzero" /><path id="28" transform="matrix(1 0 0 -1 0 842)" d="M421.2813 727.0142L421.7769 727.0142L421.7769 700.7461L421.2813 700.7461z" stroke="none" fill="#000000" fill-rule="nonzero" /><path id="29" transform="matrix(1 0 0 -1 0 842)" d="M421.2813 727.0142L471.3394 727.0142L471.3394 726.5186L421.2813 726.5186z" stroke="none" fill="#000000" fill-rule="nonzero" /><path id="30" transform="matrix(1 0 0 -1 0 842)" d="M421.2813 701.2417L471.3394 701.2417L471.3394 700.7461L421.2813 700.7461z" stroke="none" fill="#000000" fill-rule="nonzero" /><path id="31" transform="matrix(1 0 0 -1 0 842)" d="M421.2813 727.0142L421.7769 727.0142L421.7769 700.7461L421.2813 700.7461z" stroke="none" fill="#000000" fill-rule="nonzero" /><path id="32" transform="matrix(1 0 0 -1 0 842)" d="M470.8438 727.0142L471.3394 727.0142L471.3394 700.7461L470.8438 700.7461z" stroke="none" fill="#000000" fill-rule="nonzero" /><path id="33" transform="matrix(1 0 0 -1 0 842)" d="M470.8438 727.0142L545.1875 727.0142L545.1875 726.5186L470.8438 726.5186z" stroke="none" fill="#000000" fill-rule="nonzero" /><path id="34" transform="matrix(1 0 0 -1 0 842)" d="M470.8438 701.2417L545.1875 701.2417L545.1875 700.7461L470.8438 700.7461z" stroke="none" fill="#000000" fill-rule="nonzero" /><path id="35" transform="matrix(1 0 0 -1 0 842)" d="M470.8438 727.0142L471.3394 727.0142L471.3394 700.7461L470.8438 700.7461z" stroke="none" fill="#000000" fill-rule="nonzero" /><path id="36" transform="matrix(1 0 0 -1 0 842)" d="M544.6919 727.0142L545.1875 727.0142L545.1875 700.7461L544.6919 700.7461z" stroke="none" fill="#000000" fill-rule="nonzero" /><path id="37" transform="matrix(1 0 0 -1 0 842)" d="M49.5625 701.2417L74.83938 701.2417L74.83938 700.7461L49.5625 700.7461z" stroke="none" fill="#000000" fill-rule="nonzero" /><path id="38" transform="matrix(1 0 0 -1 0 842)" d="M49.5625 667.0439L74.83938 667.0439L74.83938 666.5483L49.5625 666.5483z" stroke="none" fill="#000000" fill-rule="nonzero" /><path id="39" transform="matrix(1 0 0 -1 0 842)" d="M49.5625 701.2417L50.05813 701.2417L50.05813 666.5483L49.5625 666.5483z" stroke="none" fill="#000000" fill-rule="nonzero" /><path id="40" transform="matrix(1 0 0 -1 0 842)" d="M74.34375 701.2417L74.83938 701.2417L74.83938 666.5483L74.34375 666.5483z" stroke="none" fill="#000000" fill-rule="nonzero" /><path id="41" transform="matrix(1 0 0 -1 0 842)" d="M74.34375 701.2417L149.1831 701.2417L149.1831 700.7461L74.34375 700.7461z" stroke="none" fill="#000000" fill-rule="nonzero" /><path id="42" transform="matrix(1 0 0 -1 0 842)" d="M74.34375 667.0439L149.1831 667.0439L149.1831 666.5483L74.34375 666.5483z" stroke="none" fill="#000000" fill-rule="nonzero" /><path id="43" transform="matrix(1 0 0 -1 0 842)" d="M74.34375 701.2417L74.83938 701.2417L74.83938 666.5483L74.34375 666.5483z" stroke="none" fill="#000000" fill-rule="nonzero" /><path id="44" transform="matrix(1 0 0 -1 0 842)" d="M148.6875 701.2417L149.1831 701.2417L149.1831 666.5483L148.6875 666.5483z" stroke="none" fill="#000000" fill-rule="nonzero" /><path id="45" transform="matrix(1 0 0 -1 0 842)" d="M148.6875 701.2417L223.5269 701.2417L223.5269 700.7461L148.6875 700.7461z" stroke="none" fill="#000000" fill-rule="nonzero" /><path id="46" transform="matrix(1 0 0 -1 0 842)" d="M148.6875 667.0439L223.5269 667.0439L223.5269 666.5483L148.6875 666.5483z" stroke="none" fill="#000000" fill-rule="nonzero" /><path id="47" transform="matrix(1 0 0 -1 0 842)" d="M148.6875 701.2417L149.1831 701.2417L149.1831 666.5483L148.6875 666.5483z" stroke="none" fill="#000000" fill-rule="nonzero" /><path id="48" transform="matrix(1 0 0 -1 0 842)" d="M223.0313 701.2417L223.5269 701.2417L223.5269 666.5483L223.0313 666.5483z" stroke="none" fill="#000000" fill-rule="nonzero" /><path id="49" transform="matrix(1 0 0 -1 0 842)" d="M223.0313 701.2417L273.0894 701.2417L273.0894 700.7461L223.0313 700.7461z" stroke="none" fill="#000000" fill-rule="nonzero" /><path id="50" transform="matrix(1 0 0 -1 0 842)" d="M223.0313 667.0439L273.0894 667.0439L273.0894 666.5483L223.0313 666.5483z" stroke="none" fill="#000000" fill-rule="nonzero" /><path id="51" transform="matrix(1 0 0 -1 0 842)" d="M223.0313 701.2417L223.5269 701.2417L223.5269 666.5483L223.0313 666.5483z" stroke="none" fill="#000000" fill-rule="nonzero" /><path id="52" transform="matrix(1 0 0 -1 0 842)" d="M272.5938 701.2417L273.0894 701.2417L273.0894 666.5483L272.5938 666.5483z" stroke="none" fill="#000000" fill-rule="nonzero" /><path id="53" transform="matrix(1 0 0 -1 0 842)" d="M272.5938 701.2417L421.7769 701.2417L421.7769 700.7461L272.5938 700.7461z" stroke="none" fill="#000000" fill-rule="nonzero" /><path id="54" transform="matrix(1 0 0 -1 0 842)" d="M272.5938 667.0439L421.7769 667.0439L421.7769 666.5483L272.5938 666.5483z" stroke="none" fill="#000000" fill-rule="nonzero" /><path id="55" transform="matrix(1 0 0 -1 0 842)" d="M272.5938 701.2417L273.0894 701.2417L273.0894 666.5483L272.5938 666.5483z" stroke="none" fill="#000000" fill-rule="nonzero" /><path id="56" transform="matrix(1 0 0 -1 0 842)" d="M421.2813 701.2417L421.7769 701.2417L421.7769 666.5483L421.2813 666.5483z" stroke="none" fill="#000000" fill-rule="nonzero" /><path id="57" transform="matrix(1 0 0 -1 0 842)" d="M421.2813 701.2417L471.3394 701.2417L471.3394 700.7461L421.2813 700.7461z" stroke="none" fill="#000000" fill-rule="nonzero" /><path id="58" transform="matrix(1 0 0 -1 0 842)" d="M421.2813 667.0439L471.3394 667.0439L471.3394 666.5483L421.2813 666.5483z" stroke="none" fill="#000000" fill-rule="nonzero" /><path id="59" transform="matrix(1 0 0 -1 0 842)" d="M421.2813 701.2417L421.7769 701.2417L421.7769 666.5483L421.2813 666.5483z" stroke="none" fill="#000000" fill-rule="nonzero" /><path id="60" transform="matrix(1 0 0 -1 0 842)" d="M470.8438 701.2417L471.3394 701.2417L471.3394 666.5483L470.8438 666.5483z" stroke="none" fill="#000000" fill-rule="nonzero" /><path id="61" transform="matrix(1 0 0 -1 0 842)" d="M470.8438 701.2417L545.1875 701.2417L545.1875 700.7461L470.8438 700.7461z" stroke="none" fill="#000000" fill-rule="nonzero" /><path id="62" transform="matrix(1 0 0 -1 0 842)" d="M470.8438 667.0439L545.1875 667.0439L545.1875 666.5483L470.8438 666.5483z" stroke="none" fill="#000000" fill-rule="nonzero" /><path id="63" transform="matrix(1 0 0 -1 0 842)" d="M470.8438 701.2417L471.3394 701.2417L471.3394 666.5483L470.8438 666.5483z" stroke="none" fill="#000000" fill-rule="nonzero" /><path id="64" transform="matrix(1 0 0 -1 0 842)" d="M544.6919 701.2417L545.1875 701.2417L545.1875 666.5483L544.6919 666.5483z" stroke="none" fill="#000000" fill-rule="nonzero" /><path id="65" transform="matrix(1 0 0 -1 0 842)" d="M49.5625 667.0439L74.83938 667.0439L74.83938 666.5483L49.5625 666.5483z" stroke="none" fill="#000000" fill-rule="nonzero" /><path id="66" transform="matrix(1 0 0 -1 0 842)" d="M49.5625 598.6475L74.83938 598.6475L74.83938 598.1519L49.5625 598.1519z" stroke="none" fill="#000000" fill-rule="nonzero" /><path id="67" transform="matrix(1 0 0 -1 0 842)" d="M49.5625 667.0439L50.05813 667.0439L50.05813 598.1519L49.5625 598.1519z" stroke="none" fill="#000000" fill-rule="nonzero" /><path id="68" transform="matrix(1 0 0 -1 0 842)" d="M74.34375 667.0439L74.83938 667.0439L74.83938 598.1519L74.34375 598.1519z" stroke="none" fill="#000000" fill-rule="nonzero" /><path id="69" transform="matrix(1 0 0 -1 0 842)" d="M74.34375 667.0439L149.1831 667.0439L149.1831 666.5483L74.34375 666.5483z" stroke="none" fill="#000000" fill-rule="nonzero" /><path id="70" transform="matrix(1 0 0 -1 0 842)" d="M74.34375 598.6475L149.1831 598.6475L149.1831 598.1519L74.34375 598.1519z" stroke="none" fill="#000000" fill-rule="nonzero" /><path id="71" transform="matrix(1 0 0 -1 0 842)" d="M74.34375 667.0439L74.83938 667.0439L74.83938 598.1519L74.34375 598.1519z" stroke="none" fill="#000000" fill-rule="nonzero" /><path id="72" transform="matrix(1 0 0 -1 0 842)" d="M148.6875 667.0439L149.1831 667.0439L149.1831 598.1519L148.6875 598.1519z" stroke="none" fill="#000000" fill-rule="nonzero" /><path id="73" transform="matrix(1 0 0 -1 0 842)" d="M148.6875 667.0439L223.5269 667.0439L223.5269 666.5483L148.6875 666.5483z" stroke="none" fill="#000000" fill-rule="nonzero" /><path id="74" transform="matrix(1 0 0 -1 0 842)" d="M148.6875 632.8457L223.5269 632.8457L223.5269 632.3501L148.6875 632.3501z" stroke="none" fill="#000000" fill-rule="nonzero" /><path id="75" transform="matrix(1 0 0 -1 0 842)" d="M148.6875 667.0439L149.1831 667.0439L149.1831 632.3501L148.6875 632.3501z" stroke="none" fill="#000000" fill-rule="nonzero" /><path id="76" transform="matrix(1 0 0 -1 0 842)" d="M223.0313 667.0439L223.5269 667.0439L223.5269 632.3501L223.0313 632.3501z" stroke="none" fill="#000000" fill-rule="nonzero" /><path id="77" transform="matrix(1 0 0 -1 0 842)" d="M223.0313 667.0439L273.0894 667.0439L273.0894 666.5483L223.0313 666.5483z" stroke="none" fill="#000000" fill-rule="nonzero" /><path id="78" transform="matrix(1 0 0 -1 0 842)" d="M223.0313 632.8457L273.0894 632.8457L273.0894 632.3501L223.0313 632.3501z" stroke="none" fill="#000000" fill-rule="nonzero" /><path id="79" transform="matrix(1 0 0 -1 0 842)" d="M223.0313 667.0439L223.5269 667.0439L223.5269 632.3501L223.0313 632.3501z" stroke="none" fill="#000000" fill-rule="nonzero" /><path id="80" transform="matrix(1 0 0 -1 0 842)" d="M272.5938 667.0439L273.0894 667.0439L273.0894 632.3501L272.5938 632.3501z" stroke="none" fill="#000000" fill-rule="nonzero" /><path id="81" transform="matrix(1 0 0 -1 0 842)" d="M272.5938 667.0439L421.7769 667.0439L421.7769 666.5483L272.5938 666.5483z" stroke="none" fill="#000000" fill-rule="nonzero" /><path id="82" transform="matrix(1 0 0 -1 0 842)" d="M272.5938 632.8457L421.7769 632.8457L421.7769 632.3501L272.5938 632.3501z" stroke="none" fill="#000000" fill-rule="nonzero" /><path id="83" transform="matrix(1 0 0 -1 0 842)" d="M272.5938 667.0439L273.0894 667.0439L273.0894 632.3501L272.5938 632.3501z" stroke="none" fill="#000000" fill-rule="nonzero" /><path id="84" transform="matrix(1 0 0 -1 0 842)" d="M421.2813 667.0439L421.7769 667.0439L421.7769 632.3501L421.2813 632.3501z" stroke="none" fill="#000000" fill-rule="nonzero" /><path id="85" transform="matrix(1 0 0 -1 0 842)" d="M421.2813 667.0439L471.3394 667.0439L471.3394 666.5483L421.2813 666.5483z" stroke="none" fill="#000000" fill-rule="nonzero" /><path id="86" transform="matrix(1 0 0 -1 0 842)" d="M421.2813 632.8457L471.3394 632.8457L471.3394 632.3501L421.2813 632.3501z" stroke="none" fill="#000000" fill-rule="nonzero" /><path id="87" transform="matrix(1 0 0 -1 0 842)" d="M421.2813 667.0439L421.7769 667.0439L421.7769 632.3501L421.2813 632.3501z" stroke="none" fill="#000000" fill-rule="nonzero" /><path id="88" transform="matrix(1 0 0 -1 0 842)" d="M470.8438 667.0439L471.3394 667.0439L471.3394 632.3501L470.8438 632.3501z" stroke="none" fill="#000000" fill-rule="nonzero" /><path id="89" transform="matrix(1 0 0 -1 0 842)" d="M470.8438 667.0439L545.1875 667.0439L545.1875 666.5483L470.8438 666.5483z" stroke="none" fill="#000000" fill-rule="nonzero" /><path id="90" transform="matrix(1 0 0 -1 0 842)" d="M470.8438 598.6475L545.1875 598.6475L545.1875 598.1519L470.8438 598.1519z" stroke="none" fill="#000000" fill-rule="nonzero" /><path id="91" transform="matrix(1 0 0 -1 0 842)" d="M470.8438 667.0439L471.3394 667.0439L471.3394 598.1519L470.8438 598.1519z" stroke="none" fill="#000000" fill-rule="nonzero" /><path id="92" transform="matrix(1 0 0 -1 0 842)" d="M544.6919 667.0439L545.1875 667.0439L545.1875 598.1519L544.6919 598.1519z" stroke="none" fill="#000000" fill-rule="nonzero" /><path id="93" transform="matrix(1 0 0 -1 0 842)" d="M148.6875 632.8457L223.5269 632.8457L223.5269 632.3501L148.6875 632.3501z" stroke="none" fill="#000000" fill-rule="nonzero" /><path id="94" transform="matrix(1 0 0 -1 0 842)" d="M148.6875 598.6475L223.5269 598.6475L223.5269 598.1519L148.6875 598.1519z" stroke="none" fill="#000000" fill-rule="nonzero" /><path id="95" transform="matrix(1 0 0 -1 0 842)" d="M148.6875 632.8457L149.1831 632.8457L149.1831 598.1519L148.6875 598.1519z" stroke="none" fill="#000000" fill-rule="nonzero" /><path id="96" transform="matrix(1 0 0 -1 0 842)" d="M223.0313 632.8457L223.5269 632.8457L223.5269 598.1519L223.0313 598.1519z" stroke="none" fill="#000000" fill-rule="nonzero" /><path id="97" transform="matrix(1 0 0 -1 0 842)" d="M223.0313 632.8457L273.0894 632.8457L273.0894 632.3501L223.0313 632.3501z" stroke="none" fill="#000000" fill-rule="nonzero" /><path id="98" transform="matrix(1 0 0 -1 0 842)" d="M223.0313 598.6475L273.0894 598.6475L273.0894 598.1519L223.0313 598.1519z" stroke="none" fill="#000000" fill-rule="nonzero" /><path id="99" transform="matrix(1 0 0 -1 0 842)" d="M223.0313 632.8457L223.5269 632.8457L223.5269 598.1519L223.0313 598.1519z" stroke="none" fill="#000000" fill-rule="nonzero" /><path id="100" transform="matrix(1 0 0 -1 0 842)" d="M272.5938 632.8457L273.0894 632.8457L273.0894 598.1519L272.5938 598.1519z" stroke="none" fill="#000000" fill-rule="nonzero" /><path id="101" transform="matrix(1 0 0 -1 0 842)" d="M272.5938 632.8457L421.7769 632.8457L421.7769 632.3501L272.5938 632.3501z" stroke="none" fill="#000000" fill-rule="nonzero" /><path id="102" transform="matrix(1 0 0 -1 0 842)" d="M272.5938 598.6475L421.7769 598.6475L421.7769 598.1519L272.5938 598.1519z" stroke="none" fill="#000000" fill-rule="nonzero" /><path id="103" transform="matrix(1 0 0 -1 0 842)" d="M272.5938 632.8457L273.0894 632.8457L273.0894 598.1519L272.5938 598.1519z" stroke="none" fill="#000000" fill-rule="nonzero" /><path id="104" transform="matrix(1 0 0 -1 0 842)" d="M421.2813 632.8457L421.7769 632.8457L421.7769 598.1519L421.2813 598.1519z" stroke="none" fill="#000000" fill-rule="nonzero" /><path id="105" transform="matrix(1 0 0 -1 0 842)" d="M421.2813 632.8457L471.3394 632.8457L471.3394 632.3501L421.2813 632.3501z" stroke="none" fill="#000000" fill-rule="nonzero" /><path id="106" transform="matrix(1 0 0 -1 0 842)" d="M421.2813 598.6475L471.3394 598.6475L471.3394 598.1519L421.2813 598.1519z" stroke="none" fill="#000000" fill-rule="nonzero" /><path id="107" transform="matrix(1 0 0 -1 0 842)" d="M421.2813 632.8457L421.7769 632.8457L421.7769 598.1519L421.2813 598.1519z" stroke="none" fill="#000000" fill-rule="nonzero" /><path id="108" transform="matrix(1 0 0 -1 0 842)" d="M470.8438 632.8457L471.3394 632.8457L471.3394 598.1519L470.8438 598.1519z" stroke="none" fill="#000000" fill-rule="nonzero" /><path id="109" transform="matrix(1 0 0 -1 0 842)" d="M49.5625 598.6475L74.83938 598.6475L74.83938 598.1519L49.5625 598.1519z" stroke="none" fill="#000000" fill-rule="nonzero" /><path id="110" transform="matrix(1 0 0 -1 0 842)" d="M49.5625 530.2515L74.83938 530.2515L74.83938 529.7559L49.5625 529.7559z" stroke="none" fill="#000000" fill-rule="nonzero" /><path id="111" transform="matrix(1 0 0 -1 0 842)" d="M49.5625 598.6475L50.05813 598.6475L50.05813 529.7559L49.5625 529.7559z" stroke="none" fill="#000000" fill-rule="nonzero" /><path id="112" transform="matrix(1 0 0 -1 0 842)" d="M74.34375 598.6475L74.83938 598.6475L74.83938 529.7559L74.34375 529.7559z" stroke="none" fill="#000000" fill-rule="nonzero" /><path id="113" transform="matrix(1 0 0 -1 0 842)" d="M74.34375 598.6475L149.1831 598.6475L149.1831 598.1519L74.34375 598.1519z" stroke="none" fill="#000000" fill-rule="nonzero" /><path id="114" transform="matrix(1 0 0 -1 0 842)" d="M74.34375 530.2515L149.1831 530.2515L149.1831 529.7559L74.34375 529.7559z" stroke="none" fill="#000000" fill-rule="nonzero" /><path id="115" transform="matrix(1 0 0 -1 0 842)" d="M74.34375 598.6475L74.83938 598.6475L74.83938 529.7559L74.34375 529.7559z" stroke="none" fill="#000000" fill-rule="nonzero" /><path id="116" transform="matrix(1 0 0 -1 0 842)" d="M148.6875 598.6475L149.1831 598.6475L149.1831 529.7559L148.6875 529.7559z" stroke="none" fill="#000000" fill-rule="nonzero" /><path id="117" transform="matrix(1 0 0 -1 0 842)" d="M148.6875 598.6475L223.5269 598.6475L223.5269 598.1519L148.6875 598.1519z" stroke="none" fill="#000000" fill-rule="nonzero" /><path id="118" transform="matrix(1 0 0 -1 0 842)" d="M148.6875 564.4492L223.5269 564.4492L223.5269 563.9536L148.6875 563.9536z" stroke="none" fill="#000000" fill-rule="nonzero" /><path id="119" transform="matrix(1 0 0 -1 0 842)" d="M148.6875 598.6475L149.1831 598.6475L149.1831 563.9536L148.6875 563.9536z" stroke="none" fill="#000000" fill-rule="nonzero" /><path id="120" transform="matrix(1 0 0 -1 0 842)" d="M223.0313 598.6475L223.5269 598.6475L223.5269 563.9536L223.0313 563.9536z" stroke="none" fill="#000000" fill-rule="nonzero" /><path id="121" transform="matrix(1 0 0 -1 0 842)" d="M223.0313 598.6475L273.0894 598.6475L273.0894 598.1519L223.0313 598.1519z" stroke="none" fill="#000000" fill-rule="nonzero" /><path id="122" transform="matrix(1 0 0 -1 0 842)" d="M223.0313 564.4492L273.0894 564.4492L273.0894 563.9536L223.0313 563.9536z" stroke="none" fill="#000000" fill-rule="nonzero" /><path id="123" transform="matrix(1 0 0 -1 0 842)" d="M223.0313 598.6475L223.5269 598.6475L223.5269 563.9536L223.0313 563.9536z" stroke="none" fill="#000000" fill-rule="nonzero" /><path id="124" transform="matrix(1 0 0 -1 0 842)" d="M272.5938 598.6475L273.0894 598.6475L273.0894 563.9536L272.5938 563.9536z" stroke="none" fill="#000000" fill-rule="nonzero" /><path id="125" transform="matrix(1 0 0 -1 0 842)" d="M272.5938 598.6475L421.7769 598.6475L421.7769 598.1519L272.5938 598.1519z" stroke="none" fill="#000000" fill-rule="nonzero" /><path id="126" transform="matrix(1 0 0 -1 0 842)" d="M272.5938 564.4492L421.7769 564.4492L421.7769 563.9536L272.5938 563.9536z" stroke="none" fill="#000000" fill-rule="nonzero" /><path id="127" transform="matrix(1 0 0 -1 0 842)" d="M272.5938 598.6475L273.0894 598.6475L273.0894 563.9536L272.5938 563.9536z" stroke="none" fill="#000000" fill-rule="nonzero" /><path id="128" transform="matrix(1 0 0 -1 0 842)" d="M421.2813 598.6475L421.7769 598.6475L421.7769 563.9536L421.2813 563.9536z" stroke="none" fill="#000000" fill-rule="nonzero" /><path id="129" transform="matrix(1 0 0 -1 0 842)" d="M421.2813 598.6475L471.3394 598.6475L471.3394 598.1519L421.2813 598.1519z" stroke="none" fill="#000000" fill-rule="nonzero" /><path id="130" transform="matrix(1 0 0 -1 0 842)" d="M421.2813 564.4492L471.3394 564.4492L471.3394 563.9536L421.2813 563.9536z" stroke="none" fill="#000000" fill-rule="nonzero" /><path id="131" transform="matrix(1 0 0 -1 0 842)" d="M421.2813 598.6475L421.7769 598.6475L421.7769 563.9536L421.2813 563.9536z" stroke="none" fill="#000000" fill-rule="nonzero" /><path id="132" transform="matrix(1 0 0 -1 0 842)" d="M470.8438 598.6475L471.3394 598.6475L471.3394 563.9536L470.8438 563.9536z" stroke="none" fill="#000000" fill-rule="nonzero" /><path id="133" transform="matrix(1 0 0 -1 0 842)" d="M470.8438 598.6475L545.1875 598.6475L545.1875 598.1519L470.8438 598.1519z" stroke="none" fill="#000000" fill-rule="nonzero" /><path id="134" transform="matrix(1 0 0 -1 0 842)" d="M470.8438 530.2515L545.1875 530.2515L545.1875 529.7559L470.8438 529.7559z" stroke="none" fill="#000000" fill-rule="nonzero" /><path id="135" transform="matrix(1 0 0 -1 0 842)" d="M470.8438 598.6475L471.3394 598.6475L471.3394 529.7559L470.8438 529.7559z" stroke="none" fill="#000000" fill-rule="nonzero" /><path id="136" transform="matrix(1 0 0 -1 0 842)" d="M544.6919 598.6475L545.1875 598.6475L545.1875 529.7559L544.6919 529.7559z" stroke="none" fill="#000000" fill-rule="nonzero" /><path id="137" transform="matrix(1 0 0 -1 0 842)" d="M148.6875 564.4492L223.5269 564.4492L223.5269 563.9536L148.6875 563.9536z" stroke="none" fill="#000000" fill-rule="nonzero" /><path id="138" transform="matrix(1 0 0 -1 0 842)" d="M148.6875 530.2515L223.5269 530.2515L223.5269 529.7559L148.6875 529.7559z" stroke="none" fill="#000000" fill-rule="nonzero" /><path id="139" transform="matrix(1 0 0 -1 0 842)" d="M148.6875 564.4492L149.1831 564.4492L149.1831 529.7559L148.6875 529.7559z" stroke="none" fill="#000000" fill-rule="nonzero" /><path id="140" transform="matrix(1 0 0 -1 0 842)" d="M223.0313 564.4492L223.5269 564.4492L223.5269 529.7559L223.0313 529.7559z" stroke="none" fill="#000000" fill-rule="nonzero" /><path id="141" transform="matrix(1 0 0 -1 0 842)" d="M223.0313 564.4492L273.0894 564.4492L273.0894 563.9536L223.0313 563.9536z" stroke="none" fill="#000000" fill-rule="nonzero" /><path id="142" transform="matrix(1 0 0 -1 0 842)" d="M223.0313 530.2515L273.0894 530.2515L273.0894 529.7559L223.0313 529.7559z" stroke="none" fill="#000000" fill-rule="nonzero" /><path id="143" transform="matrix(1 0 0 -1 0 842)" d="M223.0313 564.4492L223.5269 564.4492L223.5269 529.7559L223.0313 529.7559z" stroke="none" fill="#000000" fill-rule="nonzero" /><path id="144" transform="matrix(1 0 0 -1 0 842)" d="M272.5938 564.4492L273.0894 564.4492L273.0894 529.7559L272.5938 529.7559z" stroke="none" fill="#000000" fill-rule="nonzero" /><path id="145" transform="matrix(1 0 0 -1 0 842)" d="M272.5938 564.4492L421.7769 564.4492L421.7769 563.9536L272.5938 563.9536z" stroke="none" fill="#000000" fill-rule="nonzero" /><path id="146" transform="matrix(1 0 0 -1 0 842)" d="M272.5938 530.2515L421.7769 530.2515L421.7769 529.7559L272.5938 529.7559z" stroke="none" fill="#000000" fill-rule="nonzero" /><path id="147" transform="matrix(1 0 0 -1 0 842)" d="M272.5938 564.4492L273.0894 564.4492L273.0894 529.7559L272.5938 529.7559z" stroke="none" fill="#000000" fill-rule="nonzero" /><path id="148" transform="matrix(1 0 0 -1 0 842)" d="M421.2813 564.4492L421.7769 564.4492L421.7769 529.7559L421.2813 529.7559z" stroke="none" fill="#000000" fill-rule="nonzero" /><path id="149" transform="matrix(1 0 0 -1 0 842)" d="M421.2813 564.4492L471.3394 564.4492L471.3394 563.9536L421.2813 563.9536z" stroke="none" fill="#000000" fill-rule="nonzero" /><path id="150" transform="matrix(1 0 0 -1 0 842)" d="M421.2813 530.2515L471.3394 530.2515L471.3394 529.7559L421.2813 529.7559z" stroke="none" fill="#000000" fill-rule="nonzero" /><path id="151" transform="matrix(1 0 0 -1 0 842)" d="M421.2813 564.4492L421.7769 564.4492L421.7769 529.7559L421.2813 529.7559z" stroke="none" fill="#000000" fill-rule="nonzero" /><path id="152" transform="matrix(1 0 0 -1 0 842)" d="M470.8438 564.4492L471.3394 564.4492L471.3394 529.7559L470.8438 529.7559z" stroke="none" fill="#000000" fill-rule="nonzero" /><path id="153" transform="matrix(1 0 0 -1 0 842)" d="M49.5625 530.2515L74.83938 530.2515L74.83938 529.7559L49.5625 529.7559z" stroke="none" fill="#000000" fill-rule="nonzero" /><path id="154" transform="matrix(1 0 0 -1 0 842)" d="M49.5625 461.855L74.83938 461.855L74.83938 461.3594L49.5625 461.3594z" stroke="none" fill="#000000" fill-rule="nonzero" /><path id="155" transform="matrix(1 0 0 -1 0 842)" d="M49.5625 530.2515L50.05813 530.2515L50.05813 461.3594L49.5625 461.3594z" stroke="none" fill="#000000" fill-rule="nonzero" /><path id="156" transform="matrix(1 0 0 -1 0 842)" d="M74.34375 530.2515L74.83938 530.2515L74.83938 461.3594L74.34375 461.3594z" stroke="none" fill="#000000" fill-rule="nonzero" /><path id="157" transform="matrix(1 0 0 -1 0 842)" d="M74.34375 530.2515L149.1831 530.2515L149.1831 529.7559L74.34375 529.7559z" stroke="none" fill="#000000" fill-rule="nonzero" /><path id="158" transform="matrix(1 0 0 -1 0 842)" d="M74.34375 461.855L149.1831 461.855L149.1831 461.3594L74.34375 461.3594z" stroke="none" fill="#000000" fill-rule="nonzero" /><path id="159" transform="matrix(1 0 0 -1 0 842)" d="M74.34375 530.2515L74.83938 530.2515L74.83938 461.3594L74.34375 461.3594z" stroke="none" fill="#000000" fill-rule="nonzero" /><path id="160" transform="matrix(1 0 0 -1 0 842)" d="M148.6875 530.2515L149.1831 530.2515L149.1831 461.3594L148.6875 461.3594z" stroke="none" fill="#000000" fill-rule="nonzero" /><path id="161" transform="matrix(1 0 0 -1 0 842)" d="M148.6875 530.2515L223.5269 530.2515L223.5269 529.7559L148.6875 529.7559z" stroke="none" fill="#000000" fill-rule="nonzero" /><path id="162" transform="matrix(1 0 0 -1 0 842)" d="M148.6875 496.0532L223.5269 496.0532L223.5269 495.5576L148.6875 495.5576z" stroke="none" fill="#000000" fill-rule="nonzero" /><path id="163" transform="matrix(1 0 0 -1 0 842)" d="M148.6875 530.2515L149.1831 530.2515L149.1831 495.5576L148.6875 495.5576z" stroke="none" fill="#000000" fill-rule="nonzero" /><path id="164" transform="matrix(1 0 0 -1 0 842)" d="M223.0313 530.2515L223.5269 530.2515L223.5269 495.5576L223.0313 495.5576z" stroke="none" fill="#000000" fill-rule="nonzero" /><path id="165" transform="matrix(1 0 0 -1 0 842)" d="M223.0313 530.2515L273.0894 530.2515L273.0894 529.7559L223.0313 529.7559z" stroke="none" fill="#000000" fill-rule="nonzero" /><path id="166" transform="matrix(1 0 0 -1 0 842)" d="M223.0313 496.0532L273.0894 496.0532L273.0894 495.5576L223.0313 495.5576z" stroke="none" fill="#000000" fill-rule="nonzero" /><path id="167" transform="matrix(1 0 0 -1 0 842)" d="M223.0313 530.2515L223.5269 530.2515L223.5269 495.5576L223.0313 495.5576z" stroke="none" fill="#000000" fill-rule="nonzero" /><path id="168" transform="matrix(1 0 0 -1 0 842)" d="M272.5938 530.2515L273.0894 530.2515L273.0894 495.5576L272.5938 495.5576z" stroke="none" fill="#000000" fill-rule="nonzero" /><path id="169" transform="matrix(1 0 0 -1 0 842)" d="M272.5938 530.2515L421.7769 530.2515L421.7769 529.7559L272.5938 529.7559z" stroke="none" fill="#000000" fill-rule="nonzero" /><path id="170" transform="matrix(1 0 0 -1 0 842)" d="M272.5938 496.0532L421.7769 496.0532L421.7769 495.5576L272.5938 495.5576z" stroke="none" fill="#000000" fill-rule="nonzero" /><path id="171" transform="matrix(1 0 0 -1 0 842)" d="M272.5938 530.2515L273.0894 530.2515L273.0894 495.5576L272.5938 495.5576z" stroke="none" fill="#000000" fill-rule="nonzero" /><path id="172" transform="matrix(1 0 0 -1 0 842)" d="M421.2813 530.2515L421.7769 530.2515L421.7769 495.5576L421.2813 495.5576z" stroke="none" fill="#000000" fill-rule="nonzero" /><path id="173" transform="matrix(1 0 0 -1 0 842)" d="M421.2813 530.2515L471.3394 530.2515L471.3394 529.7559L421.2813 529.7559z" stroke="none" fill="#000000" fill-rule="nonzero" /><path id="174" transform="matrix(1 0 0 -1 0 842)" d="M421.2813 496.0532L471.3394 496.0532L471.3394 495.5576L421.2813 495.5576z" stroke="none" fill="#000000" fill-rule="nonzero" /><path id="175" transform="matrix(1 0 0 -1 0 842)" d="M421.2813 530.2515L421.7769 530.2515L421.7769 495.5576L421.2813 495.5576z" stroke="none" fill="#000000" fill-rule="nonzero" /><path id="176" transform="matrix(1 0 0 -1 0 842)" d="M470.8438 530.2515L471.3394 530.2515L471.3394 495.5576L470.8438 495.5576z" stroke="none" fill="#000000" fill-rule="nonzero" /><path id="177" transform="matrix(1 0 0 -1 0 842)" d="M470.8438 530.2515L545.1875 530.2515L545.1875 529.7559L470.8438 529.7559z" stroke="none" fill="#000000" fill-rule="nonzero" /><path id="178" transform="matrix(1 0 0 -1 0 842)" d="M470.8438 461.855L545.1875 461.855L545.1875 461.3594L470.8438 461.3594z" stroke="none" fill="#000000" fill-rule="nonzero" /><path id="179" transform="matrix(1 0 0 -1 0 842)" d="M470.8438 530.2515L471.3394 530.2515L471.3394 461.3594L470.8438 461.3594z" stroke="none" fill="#000000" fill-rule="nonzero" /><path id="180" transform="matrix(1 0 0 -1 0 842)" d="M544.6919 530.2515L545.1875 530.2515L545.1875 461.3594L544.6919 461.3594z" stroke="none" fill="#000000" fill-rule="nonzero" /><path id="181" transform="matrix(1 0 0 -1 0 842)" d="M148.6875 496.0532L223.5269 496.0532L223.5269 495.5576L148.6875 495.5576z" stroke="none" fill="#000000" fill-rule="nonzero" /><path id="182" transform="matrix(1 0 0 -1 0 842)" d="M148.6875 461.855L223.5269 461.855L223.5269 461.3594L148.6875 461.3594z" stroke="none" fill="#000000" fill-rule="nonzero" /><path id="183" transform="matrix(1 0 0 -1 0 842)" d="M148.6875 496.0532L149.1831 496.0532L149.1831 461.3594L148.6875 461.3594z" stroke="none" fill="#000000" fill-rule="nonzero" /><path id="184" transform="matrix(1 0 0 -1 0 842)" d="M223.0313 496.0532L223.5269 496.0532L223.5269 461.3594L223.0313 461.3594z" stroke="none" fill="#000000" fill-rule="nonzero" /><path id="185" transform="matrix(1 0 0 -1 0 842)" d="M223.0313 496.0532L273.0894 496.0532L273.0894 495.5576L223.0313 495.5576z" stroke="none" fill="#000000" fill-rule="nonzero" /><path id="186" transform="matrix(1 0 0 -1 0 842)" d="M223.0313 461.855L273.0894 461.855L273.0894 461.3594L223.0313 461.3594z" stroke="none" fill="#000000" fill-rule="nonzero" /><path id="187" transform="matrix(1 0 0 -1 0 842)" d="M223.0313 496.0532L223.5269 496.0532L223.5269 461.3594L223.0313 461.3594z" stroke="none" fill="#000000" fill-rule="nonzero" /><path id="188" transform="matrix(1 0 0 -1 0 842)" d="M272.5938 496.0532L273.0894 496.0532L273.0894 461.3594L272.5938 461.3594z" stroke="none" fill="#000000" fill-rule="nonzero" /><path id="189" transform="matrix(1 0 0 -1 0 842)" d="M272.5938 496.0532L421.7769 496.0532L421.7769 495.5576L272.5938 495.5576z" stroke="none" fill="#000000" fill-rule="nonzero" /><path id="190" transform="matrix(1 0 0 -1 0 842)" d="M272.5938 461.855L421.7769 461.855L421.7769 461.3594L272.5938 461.3594z" stroke="none" fill="#000000" fill-rule="nonzero" /><path id="191" transform="matrix(1 0 0 -1 0 842)" d="M272.5938 496.0532L273.0894 496.0532L273.0894 461.3594L272.5938 461.3594z" stroke="none" fill="#000000" fill-rule="nonzero" /><path id="192" transform="matrix(1 0 0 -1 0 842)" d="M421.2813 496.0532L421.7769 496.0532L421.7769 461.3594L421.2813 461.3594z" stroke="none" fill="#000000" fill-rule="nonzero" /><path id="193" transform="matrix(1 0 0 -1 0 842)" d="M421.2813 496.0532L471.3394 496.0532L471.3394 495.5576L421.2813 495.5576z" stroke="none" fill="#000000" fill-rule="nonzero" /><path id="194" transform="matrix(1 0 0 -1 0 842)" d="M421.2813 461.855L471.3394 461.855L471.3394 461.3594L421.2813 461.3594z" stroke="none" fill="#000000" fill-rule="nonzero" /><path id="195" transform="matrix(1 0 0 -1 0 842)" d="M421.2813 496.0532L421.7769 496.0532L421.7769 461.3594L421.2813 461.3594z" stroke="none" fill="#000000" fill-rule="nonzero" /><path id="196" transform="matrix(1 0 0 -1 0 842)" d="M470.8438 496.0532L471.3394 496.0532L471.3394 461.3594L470.8438 461.3594z" stroke="none" fill="#000000" fill-rule="nonzero" /><path id="197" transform="matrix(1 0 0 -1 0 842)" d="M49.5625 461.855L74.83938 461.855L74.83938 461.3594L49.5625 461.3594z" stroke="none" fill="#000000" fill-rule="nonzero" /><path id="198" transform="matrix(1 0 0 -1 0 842)" d="M49.5625 393.459L74.83938 393.459L74.83938 392.9629L49.5625 392.9629z" stroke="none" fill="#000000" fill-rule="nonzero" /><path id="199" transform="matrix(1 0 0 -1 0 842)" d="M49.5625 461.855L50.05813 461.855L50.05813 392.9629L49.5625 392.9629z" stroke="none" fill="#000000" fill-rule="nonzero" /><path id="200" transform="matrix(1 0 0 -1 0 842)" d="M74.34375 461.855L74.83938 461.855L74.83938 392.9629L74.34375 392.9629z" stroke="none" fill="#000000" fill-rule="nonzero" /><path id="201" transform="matrix(1 0 0 -1 0 842)" d="M74.34375 461.855L149.1831 461.855L149.1831 461.3594L74.34375 461.3594z" stroke="none" fill="#000000" fill-rule="nonzero" /><path id="202" transform="matrix(1 0 0 -1 0 842)" d="M74.34375 393.459L149.1831 393.459L149.1831 392.9629L74.34375 392.9629z" stroke="none" fill="#000000" fill-rule="nonzero" /><path id="203" transform="matrix(1 0 0 -1 0 842)" d="M74.34375 461.855L74.83938 461.855L74.83938 392.9629L74.34375 392.9629z" stroke="none" fill="#000000" fill-rule="nonzero" /><path id="204" transform="matrix(1 0 0 -1 0 842)" d="M148.6875 461.855L149.1831 461.855L149.1831 392.9629L148.6875 392.9629z" stroke="none" fill="#000000" fill-rule="nonzero" /><path id="205" transform="matrix(1 0 0 -1 0 842)" d="M148.6875 461.855L223.5269 461.855L223.5269 461.3594L148.6875 461.3594z" stroke="none" fill="#000000" fill-rule="nonzero" /><path id="206" transform="matrix(1 0 0 -1 0 842)" d="M148.6875 427.6567L223.5269 427.6567L223.5269 427.1611L148.6875 427.1611z" stroke="none" fill="#000000" fill-rule="nonzero" /><path id="207" transform="matrix(1 0 0 -1 0 842)" d="M148.6875 461.855L149.1831 461.855L149.1831 427.1611L148.6875 427.1611z" stroke="none" fill="#000000" fill-rule="nonzero" /><path id="208" transform="matrix(1 0 0 -1 0 842)" d="M223.0313 461.855L223.5269 461.855L223.5269 427.1611L223.0313 427.1611z" stroke="none" fill="#000000" fill-rule="nonzero" /><path id="209" transform="matrix(1 0 0 -1 0 842)" d="M223.0313 461.855L273.0894 461.855L273.0894 461.3594L223.0313 461.3594z" stroke="none" fill="#000000" fill-rule="nonzero" /><path id="210" transform="matrix(1 0 0 -1 0 842)" d="M223.0313 427.6567L273.0894 427.6567L273.0894 427.1611L223.0313 427.1611z" stroke="none" fill="#000000" fill-rule="nonzero" /><path id="211" transform="matrix(1 0 0 -1 0 842)" d="M223.0313 461.855L223.5269 461.855L223.5269 427.1611L223.0313 427.1611z" stroke="none" fill="#000000" fill-rule="nonzero" /><path id="212" transform="matrix(1 0 0 -1 0 842)" d="M272.5938 461.855L273.0894 461.855L273.0894 427.1611L272.5938 427.1611z" stroke="none" fill="#000000" fill-rule="nonzero" /><path id="213" transform="matrix(1 0 0 -1 0 842)" d="M272.5938 461.855L421.7769 461.855L421.7769 461.3594L272.5938 461.3594z" stroke="none" fill="#000000" fill-rule="nonzero" /><path id="214" transform="matrix(1 0 0 -1 0 842)" d="M272.5938 427.6567L421.7769 427.6567L421.7769 427.1611L272.5938 427.1611z" stroke="none" fill="#000000" fill-rule="nonzero" /><path id="215" transform="matrix(1 0 0 -1 0 842)" d="M272.5938 461.855L273.0894 461.855L273.0894 427.1611L272.5938 427.1611z" stroke="none" fill="#000000" fill-rule="nonzero" /><path id="216" transform="matrix(1 0 0 -1 0 842)" d="M421.2813 461.855L421.7769 461.855L421.7769 427.1611L421.2813 427.1611z" stroke="none" fill="#000000" fill-rule="nonzero" /><path id="217" transform="matrix(1 0 0 -1 0 842)" d="M421.2813 461.855L471.3394 461.855L471.3394 461.3594L421.2813 461.3594z" stroke="none" fill="#000000" fill-rule="nonzero" /><path id="218" transform="matrix(1 0 0 -1 0 842)" d="M421.2813 427.6567L471.3394 427.6567L471.3394 427.1611L421.2813 427.1611z" stroke="none" fill="#000000" fill-rule="nonzero" /><path id="219" transform="matrix(1 0 0 -1 0 842)" d="M421.2813 461.855L421.7769 461.855L421.7769 427.1611L421.2813 427.1611z" stroke="none" fill="#000000" fill-rule="nonzero" /><path id="220" transform="matrix(1 0 0 -1 0 842)" d="M470.8438 461.855L471.3394 461.855L471.3394 427.1611L470.8438 427.1611z" stroke="none" fill="#000000" fill-rule="nonzero" /><path id="221" transform="matrix(1 0 0 -1 0 842)" d="M470.8438 461.855L545.1875 461.855L545.1875 461.3594L470.8438 461.3594z" stroke="none" fill="#000000" fill-rule="nonzero" /><path id="222" transform="matrix(1 0 0 -1 0 842)" d="M470.8438 393.459L545.1875 393.459L545.1875 392.9629L470.8438 392.9629z" stroke="none" fill="#000000" fill-rule="nonzero" /><path id="223" transform="matrix(1 0 0 -1 0 842)" d="M470.8438 461.855L471.3394 461.855L471.3394 392.9629L470.8438 392.9629z" stroke="none" fill="#000000" fill-rule="nonzero" /><path id="224" transform="matrix(1 0 0 -1 0 842)" d="M544.6919 461.855L545.1875 461.855L545.1875 392.9629L544.6919 392.9629z" stroke="none" fill="#000000" fill-rule="nonzero" /><path id="225" transform="matrix(1 0 0 -1 0 842)" d="M148.6875 427.6567L223.5269 427.6567L223.5269 427.1611L148.6875 427.1611z" stroke="none" fill="#000000" fill-rule="nonzero" /><path id="226" transform="matrix(1 0 0 -1 0 842)" d="M148.6875 393.459L223.5269 393.459L223.5269 392.9629L148.6875 392.9629z" stroke="none" fill="#000000" fill-rule="nonzero" /><path id="227" transform="matrix(1 0 0 -1 0 842)" d="M148.6875 427.6567L149.1831 427.6567L149.1831 392.9629L148.6875 392.9629z" stroke="none" fill="#000000" fill-rule="nonzero" /><path id="228" transform="matrix(1 0 0 -1 0 842)" d="M223.0313 427.6567L223.5269 427.6567L223.5269 392.9629L223.0313 392.9629z" stroke="none" fill="#000000" fill-rule="nonzero" /><path id="229" transform="matrix(1 0 0 -1 0 842)" d="M223.0313 427.6567L273.0894 427.6567L273.0894 427.1611L223.0313 427.1611z" stroke="none" fill="#000000" fill-rule="nonzero" /><path id="230" transform="matrix(1 0 0 -1 0 842)" d="M223.0313 393.459L273.0894 393.459L273.0894 392.9629L223.0313 392.9629z" stroke="none" fill="#000000" fill-rule="nonzero" /><path id="231" transform="matrix(1 0 0 -1 0 842)" d="M223.0313 427.6567L223.5269 427.6567L223.5269 392.9629L223.0313 392.9629z" stroke="none" fill="#000000" fill-rule="nonzero" /><path id="232" transform="matrix(1 0 0 -1 0 842)" d="M272.5938 427.6567L273.0894 427.6567L273.0894 392.9629L272.5938 392.9629z" stroke="none" fill="#000000" fill-rule="nonzero" /><path id="233" transform="matrix(1 0 0 -1 0 842)" d="M272.5938 427.6567L421.7769 427.6567L421.7769 427.1611L272.5938 427.1611z" stroke="none" fill="#000000" fill-rule="nonzero" /><path id="234" transform="matrix(1 0 0 -1 0 842)" d="M272.5938 393.459L421.7769 393.459L421.7769 392.9629L272.5938 392.9629z" stroke="none" fill="#000000" fill-rule="nonzero" /><path id="235" transform="matrix(1 0 0 -1 0 842)" d="M272.5938 427.6567L273.0894 427.6567L273.0894 392.9629L272.5938 392.9629z" stroke="none" fill="#000000" fill-rule="nonzero" /><path id="236" transform="matrix(1 0 0 -1 0 842)" d="M421.2813 427.6567L421.7769 427.6567L421.7769 392.9629L421.2813 392.9629z" stroke="none" fill="#000000" fill-rule="nonzero" /><path id="237" transform="matrix(1 0 0 -1 0 842)" d="M421.2813 427.6567L471.3394 427.6567L471.3394 427.1611L421.2813 427.1611z" stroke="none" fill="#000000" fill-rule="nonzero" /><path id="238" transform="matrix(1 0 0 -1 0 842)" d="M421.2813 393.459L471.3394 393.459L471.3394 392.9629L421.2813 392.9629z" stroke="none" fill="#000000" fill-rule="nonzero" /><path id="239" transform="matrix(1 0 0 -1 0 842)" d="M421.2813 427.6567L421.7769 427.6567L421.7769 392.9629L421.2813 392.9629z" stroke="none" fill="#000000" fill-rule="nonzero" /><path id="240" transform="matrix(1 0 0 -1 0 842)" d="M470.8438 427.6567L471.3394 427.6567L471.3394 392.9629L470.8438 392.9629z" stroke="none" fill="#000000" fill-rule="nonzero" /><path id="241" transform="matrix(1 0 0 -1 0 842)" d="M49.5625 393.459L74.83938 393.459L74.83938 392.9629L49.5625 392.9629z" stroke="none" fill="#000000" fill-rule="nonzero" /><path id="242" transform="matrix(1 0 0 -1 0 842)" d="M49.5625 290.8643L74.83938 290.8643L74.83938 290.3687L49.5625 290.3687z" stroke="none" fill="#000000" fill-rule="nonzero" /><path id="243" transform="matrix(1 0 0 -1 0 842)" d="M49.5625 393.459L50.05813 393.459L50.05813 290.3687L49.5625 290.3687z" stroke="none" fill="#000000" fill-rule="nonzero" /><path id="244" transform="matrix(1 0 0 -1 0 842)" d="M74.34375 393.459L74.83938 393.459L74.83938 290.3687L74.34375 290.3687z" stroke="none" fill="#000000" fill-rule="nonzero" /><path id="245" transform="matrix(1 0 0 -1 0 842)" d="M74.34375 393.459L149.1831 393.459L149.1831 392.9629L74.34375 392.9629z" stroke="none" fill="#000000" fill-rule="nonzero" /><path id="246" transform="matrix(1 0 0 -1 0 842)" d="M74.34375 290.8643L149.1831 290.8643L149.1831 290.3687L74.34375 290.3687z" stroke="none" fill="#000000" fill-rule="nonzero" /><path id="247" transform="matrix(1 0 0 -1 0 842)" d="M74.34375 393.459L74.83938 393.459L74.83938 290.3687L74.34375 290.3687z" stroke="none" fill="#000000" fill-rule="nonzero" /><path id="248" transform="matrix(1 0 0 -1 0 842)" d="M148.6875 393.459L149.1831 393.459L149.1831 290.3687L148.6875 290.3687z" stroke="none" fill="#000000" fill-rule="nonzero" /><path id="249" transform="matrix(1 0 0 -1 0 842)" d="M148.6875 393.459L223.5269 393.459L223.5269 392.9629L148.6875 392.9629z" stroke="none" fill="#000000" fill-rule="nonzero" /><path id="250" transform="matrix(1 0 0 -1 0 842)" d="M148.6875 359.2607L223.5269 359.2607L223.5269 358.7651L148.6875 358.7651z" stroke="none" fill="#000000" fill-rule="nonzero" /><path id="251" transform="matrix(1 0 0 -1 0 842)" d="M148.6875 393.459L149.1831 393.459L149.1831 358.7651L148.6875 358.7651z" stroke="none" fill="#000000" fill-rule="nonzero" /><path id="252" transform="matrix(1 0 0 -1 0 842)" d="M223.0313 393.459L223.5269 393.459L223.5269 358.7651L223.0313 358.7651z" stroke="none" fill="#000000" fill-rule="nonzero" /><path id="253" transform="matrix(1 0 0 -1 0 842)" d="M223.0313 393.459L273.0894 393.459L273.0894 392.9629L223.0313 392.9629z" stroke="none" fill="#000000" fill-rule="nonzero" /><path id="254" transform="matrix(1 0 0 -1 0 842)" d="M223.0313 359.2607L273.0894 359.2607L273.0894 358.7651L223.0313 358.7651z" stroke="none" fill="#000000" fill-rule="nonzero" /><path id="255" transform="matrix(1 0 0 -1 0 842)" d="M223.0313 393.459L223.5269 393.459L223.5269 358.7651L223.0313 358.7651z" stroke="none" fill="#000000" fill-rule="nonzero" /><path id="256" transform="matrix(1 0 0 -1 0 842)" d="M272.5938 393.459L273.0894 393.459L273.0894 358.7651L272.5938 358.7651z" stroke="none" fill="#000000" fill-rule="nonzero" /><path id="257" transform="matrix(1 0 0 -1 0 842)" d="M272.5938 393.459L421.7769 393.459L421.7769 392.9629L272.5938 392.9629z" stroke="none" fill="#000000" fill-rule="nonzero" /><path id="258" transform="matrix(1 0 0 -1 0 842)" d="M272.5938 359.2607L421.7769 359.2607L421.7769 358.7651L272.5938 358.7651z" stroke="none" fill="#000000" fill-rule="nonzero" /><path id="259" transform="matrix(1 0 0 -1 0 842)" d="M272.5938 393.459L273.0894 393.459L273.0894 358.7651L272.5938 358.7651z" stroke="none" fill="#000000" fill-rule="nonzero" /><path id="260" transform="matrix(1 0 0 -1 0 842)" d="M421.2813 393.459L421.7769 393.459L421.7769 358.7651L421.2813 358.7651z" stroke="none" fill="#000000" fill-rule="nonzero" /><path id="261" transform="matrix(1 0 0 -1 0 842)" d="M421.2813 393.459L471.3394 393.459L471.3394 392.9629L421.2813 392.9629z" stroke="none" fill="#000000" fill-rule="nonzero" /><path id="262" transform="matrix(1 0 0 -1 0 842)" d="M421.2813 359.2607L471.3394 359.2607L471.3394 358.7651L421.2813 358.7651z" stroke="none" fill="#000000" fill-rule="nonzero" /><path id="263" transform="matrix(1 0 0 -1 0 842)" d="M421.2813 393.459L421.7769 393.459L421.7769 358.7651L421.2813 358.7651z" stroke="none" fill="#000000" fill-rule="nonzero" /><path id="264" transform="matrix(1 0 0 -1 0 842)" d="M470.8438 393.459L471.3394 393.459L471.3394 358.7651L470.8438 358.7651z" stroke="none" fill="#000000" fill-rule="nonzero" /><path id="265" transform="matrix(1 0 0 -1 0 842)" d="M470.8438 393.459L545.1875 393.459L545.1875 392.9629L470.8438 392.9629z" stroke="none" fill="#000000" fill-rule="nonzero" /><path id="266" transform="matrix(1 0 0 -1 0 842)" d="M470.8438 290.8643L545.1875 290.8643L545.1875 290.3687L470.8438 290.3687z" stroke="none" fill="#000000" fill-rule="nonzero" /><path id="267" transform="matrix(1 0 0 -1 0 842)" d="M470.8438 393.459L471.3394 393.459L471.3394 290.3687L470.8438 290.3687z" stroke="none" fill="#000000" fill-rule="nonzero" /><path id="268" transform="matrix(1 0 0 -1 0 842)" d="M544.6919 393.459L545.1875 393.459L545.1875 290.3687L544.6919 290.3687z" stroke="none" fill="#000000" fill-rule="nonzero" /><path id="269" transform="matrix(1 0 0 -1 0 842)" d="M148.6875 359.2607L223.5269 359.2607L223.5269 358.7651L148.6875 358.7651z" stroke="none" fill="#000000" fill-rule="nonzero" /><path id="270" transform="matrix(1 0 0 -1 0 842)" d="M148.6875 325.0625L223.5269 325.0625L223.5269 324.5669L148.6875 324.5669z" stroke="none" fill="#000000" fill-rule="nonzero" /><path id="271" transform="matrix(1 0 0 -1 0 842)" d="M148.6875 359.2607L149.1831 359.2607L149.1831 324.5669L148.6875 324.5669z" stroke="none" fill="#000000" fill-rule="nonzero" /><path id="272" transform="matrix(1 0 0 -1 0 842)" d="M223.0313 359.2607L223.5269 359.2607L223.5269 324.5669L223.0313 324.5669z" stroke="none" fill="#000000" fill-rule="nonzero" /><path id="273" transform="matrix(1 0 0 -1 0 842)" d="M223.0313 359.2607L273.0894 359.2607L273.0894 358.7651L223.0313 358.7651z" stroke="none" fill="#000000" fill-rule="nonzero" /><path id="274" transform="matrix(1 0 0 -1 0 842)" d="M223.0313 325.0625L273.0894 325.0625L273.0894 324.5669L223.0313 324.5669z" stroke="none" fill="#000000" fill-rule="nonzero" /><path id="275" transform="matrix(1 0 0 -1 0 842)" d="M223.0313 359.2607L223.5269 359.2607L223.5269 324.5669L223.0313 324.5669z" stroke="none" fill="#000000" fill-rule="nonzero" /><path id="276" transform="matrix(1 0 0 -1 0 842)" d="M272.5938 359.2607L273.0894 359.2607L273.0894 324.5669L272.5938 324.5669z" stroke="none" fill="#000000" fill-rule="nonzero" /><path id="277" transform="matrix(1 0 0 -1 0 842)" d="M272.5938 359.2607L421.7769 359.2607L421.7769 358.7651L272.5938 358.7651z" stroke="none" fill="#000000" fill-rule="nonzero" /><path id="278" transform="matrix(1 0 0 -1 0 842)" d="M272.5938 325.0625L421.7769 325.0625L421.7769 324.5669L272.5938 324.5669z" stroke="none" fill="#000000" fill-rule="nonzero" /><path id="279" transform="matrix(1 0 0 -1 0 842)" d="M272.5938 359.2607L273.0894 359.2607L273.0894 324.5669L272.5938 324.5669z" stroke="none" fill="#000000" fill-rule="nonzero" /><path id="280" transform="matrix(1 0 0 -1 0 842)" d="M421.2813 359.2607L421.7769 359.2607L421.7769 324.5669L421.2813 324.5669z" stroke="none" fill="#000000" fill-rule="nonzero" /><path id="281" transform="matrix(1 0 0 -1 0 842)" d="M421.2813 359.2607L471.3394 359.2607L471.3394 358.7651L421.2813 358.7651z" stroke="none" fill="#000000" fill-rule="nonzero" /><path id="282" transform="matrix(1 0 0 -1 0 842)" d="M421.2813 325.0625L471.3394 325.0625L471.3394 324.5669L421.2813 324.5669z" stroke="none" fill="#000000" fill-rule="nonzero" /><path id="283" transform="matrix(1 0 0 -1 0 842)" d="M421.2813 359.2607L421.7769 359.2607L421.7769 324.5669L421.2813 324.5669z" stroke="none" fill="#000000" fill-rule="nonzero" /><path id="284" transform="matrix(1 0 0 -1 0 842)" d="M470.8438 359.2607L471.3394 359.2607L471.3394 324.5669L470.8438 324.5669z" stroke="none" fill="#000000" fill-rule="nonzero" /><path id="285" transform="matrix(1 0 0 -1 0 842)" d="M148.6875 325.0625L223.5269 325.0625L223.5269 324.5669L148.6875 324.5669z" stroke="none" fill="#000000" fill-rule="nonzero" /><path id="286" transform="matrix(1 0 0 -1 0 842)" d="M148.6875 290.8643L223.5269 290.8643L223.5269 290.3687L148.6875 290.3687z" stroke="none" fill="#000000" fill-rule="nonzero" /><path id="287" transform="matrix(1 0 0 -1 0 842)" d="M148.6875 325.0625L149.1831 325.0625L149.1831 290.3687L148.6875 290.3687z" stroke="none" fill="#000000" fill-rule="nonzero" /><path id="288" transform="matrix(1 0 0 -1 0 842)" d="M223.0313 325.0625L223.5269 325.0625L223.5269 290.3687L223.0313 290.3687z" stroke="none" fill="#000000" fill-rule="nonzero" /><path id="289" transform="matrix(1 0 0 -1 0 842)" d="M223.0313 325.0625L273.0894 325.0625L273.0894 324.5669L223.0313 324.5669z" stroke="none" fill="#000000" fill-rule="nonzero" /><path id="290" transform="matrix(1 0 0 -1 0 842)" d="M223.0313 290.8643L273.0894 290.8643L273.0894 290.3687L223.0313 290.3687z" stroke="none" fill="#000000" fill-rule="nonzero" /><path id="291" transform="matrix(1 0 0 -1 0 842)" d="M223.0313 325.0625L223.5269 325.0625L223.5269 290.3687L223.0313 290.3687z" stroke="none" fill="#000000" fill-rule="nonzero" /><path id="292" transform="matrix(1 0 0 -1 0 842)" d="M272.5938 325.0625L273.0894 325.0625L273.0894 290.3687L272.5938 290.3687z" stroke="none" fill="#000000" fill-rule="nonzero" /><path id="293" transform="matrix(1 0 0 -1 0 842)" d="M272.5938 325.0625L421.7769 325.0625L421.7769 324.5669L272.5938 324.5669z" stroke="none" fill="#000000" fill-rule="nonzero" /><path id="294" transform="matrix(1 0 0 -1 0 842)" d="M272.5938 290.8643L421.7769 290.8643L421.7769 290.3687L272.5938 290.3687z" stroke="none" fill="#000000" fill-rule="nonzero" /><path id="295" transform="matrix(1 0 0 -1 0 842)" d="M272.5938 325.0625L273.0894 325.0625L273.0894 290.3687L272.5938 290.3687z" stroke="none" fill="#000000" fill-rule="nonzero" /><path id="296" transform="matrix(1 0 0 -1 0 842)" d="M421.2813 325.0625L421.7769 325.0625L421.7769 290.3687L421.2813 290.3687z" stroke="none" fill="#000000" fill-rule="nonzero" /><path id="297" transform="matrix(1 0 0 -1 0 842)" d="M421.2813 325.0625L471.3394 325.0625L471.3394 324.5669L421.2813 324.5669z" stroke="none" fill="#000000" fill-rule="nonzero" /><path id="298" transform="matrix(1 0 0 -1 0 842)" d="M421.2813 290.8643L471.3394 290.8643L471.3394 290.3687L421.2813 290.3687z" stroke="none" fill="#000000" fill-rule="nonzero" /><path id="299" transform="matrix(1 0 0 -1 0 842)" d="M421.2813 325.0625L421.7769 325.0625L421.7769 290.3687L421.2813 290.3687z" stroke="none" fill="#000000" fill-rule="nonzero" /><path id="300" transform="matrix(1 0 0 -1 0 842)" d="M470.8438 325.0625L471.3394 325.0625L471.3394 290.3687L470.8438 290.3687z" stroke="none" fill="#000000" fill-rule="nonzero" /><path id="301" transform="matrix(1 0 0 -1 0 842)" d="M49.5625 290.8643L74.83938 290.8643L74.83938 290.3687L49.5625 290.3687z" stroke="none" fill="#000000" fill-rule="nonzero" /><path id="302" transform="matrix(1 0 0 -1 0 842)" d="M49.5625 256.666L74.83938 256.666L74.83938 256.1704L49.5625 256.1704z" stroke="none" fill="#000000" fill-rule="nonzero" /><path id="303" transform="matrix(1 0 0 -1 0 842)" d="M49.5625 290.8643L50.05813 290.8643L50.05813 256.1704L49.5625 256.1704z" stroke="none" fill="#000000" fill-rule="nonzero" /><path id="304" transform="matrix(1 0 0 -1 0 842)" d="M74.34375 290.8643L74.83938 290.8643L74.83938 256.1704L74.34375 256.1704z" stroke="none" fill="#000000" fill-rule="nonzero" /><path id="305" transform="matrix(1 0 0 -1 0 842)" d="M74.34375 290.8643L149.1831 290.8643L149.1831 290.3687L74.34375 290.3687z" stroke="none" fill="#000000" fill-rule="nonzero" /><path id="306" transform="matrix(1 0 0 -1 0 842)" d="M74.34375 256.666L149.1831 256.666L149.1831 256.1704L74.34375 256.1704z" stroke="none" fill="#000000" fill-rule="nonzero" /><path id="307" transform="matrix(1 0 0 -1 0 842)" d="M74.34375 290.8643L74.83938 290.8643L74.83938 256.1704L74.34375 256.1704z" stroke="none" fill="#000000" fill-rule="nonzero" /><path id="308" transform="matrix(1 0 0 -1 0 842)" d="M148.6875 290.8643L149.1831 290.8643L149.1831 256.1704L148.6875 256.1704z" stroke="none" fill="#000000" fill-rule="nonzero" /><path id="309" transform="matrix(1 0 0 -1 0 842)" d="M148.6875 290.8643L223.5269 290.8643L223.5269 290.3687L148.6875 290.3687z" stroke="none" fill="#000000" fill-rule="nonzero" /><path id="310" transform="matrix(1 0 0 -1 0 842)" d="M148.6875 256.666L223.5269 256.666L223.5269 256.1704L148.6875 256.1704z" stroke="none" fill="#000000" fill-rule="nonzero" /><path id="311" transform="matrix(1 0 0 -1 0 842)" d="M148.6875 290.8643L149.1831 290.8643L149.1831 256.1704L148.6875 256.1704z" stroke="none" fill="#000000" fill-rule="nonzero" /><path id="312" transform="matrix(1 0 0 -1 0 842)" d="M223.0313 290.8643L223.5269 290.8643L223.5269 256.1704L223.0313 256.1704z" stroke="none" fill="#000000" fill-rule="nonzero" /><path id="313" transform="matrix(1 0 0 -1 0 842)" d="M223.0313 290.8643L273.0894 290.8643L273.0894 290.3687L223.0313 290.3687z" stroke="none" fill="#000000" fill-rule="nonzero" /><path id="314" transform="matrix(1 0 0 -1 0 842)" d="M223.0313 256.666L273.0894 256.666L273.0894 256.1704L223.0313 256.1704z" stroke="none" fill="#000000" fill-rule="nonzero" /><path id="315" transform="matrix(1 0 0 -1 0 842)" d="M223.0313 290.8643L223.5269 290.8643L223.5269 256.1704L223.0313 256.1704z" stroke="none" fill="#000000" fill-rule="nonzero" /><path id="316" transform="matrix(1 0 0 -1 0 842)" d="M272.5938 290.8643L273.0894 290.8643L273.0894 256.1704L272.5938 256.1704z" stroke="none" fill="#000000" fill-rule="nonzero" /><path id="317" transform="matrix(1 0 0 -1 0 842)" d="M272.5938 290.8643L421.7769 290.8643L421.7769 290.3687L272.5938 290.3687z" stroke="none" fill="#000000" fill-rule="nonzero" /><path id="318" transform="matrix(1 0 0 -1 0 842)" d="M272.5938 256.666L421.7769 256.666L421.7769 256.1704L272.5938 256.1704z" stroke="none" fill="#000000" fill-rule="nonzero" /><path id="319" transform="matrix(1 0 0 -1 0 842)" d="M272.5938 290.8643L273.0894 290.8643L273.0894 256.1704L272.5938 256.1704z" stroke="none" fill="#000000" fill-rule="nonzero" /><path id="320" transform="matrix(1 0 0 -1 0 842)" d="M421.2813 290.8643L421.7769 290.8643L421.7769 256.1704L421.2813 256.1704z" stroke="none" fill="#000000" fill-rule="nonzero" /><path id="321" transform="matrix(1 0 0 -1 0 842)" d="M421.2813 290.8643L471.3394 290.8643L471.3394 290.3687L421.2813 290.3687z" stroke="none" fill="#000000" fill-rule="nonzero" /><path id="322" transform="matrix(1 0 0 -1 0 842)" d="M421.2813 256.666L471.3394 256.666L471.3394 256.1704L421.2813 256.1704z" stroke="none" fill="#000000" fill-rule="nonzero" /><path id="323" transform="matrix(1 0 0 -1 0 842)" d="M421.2813 290.8643L421.7769 290.8643L421.7769 256.1704L421.2813 256.1704z" stroke="none" fill="#000000" fill-rule="nonzero" /><path id="324" transform="matrix(1 0 0 -1 0 842)" d="M470.8438 290.8643L471.3394 290.8643L471.3394 256.1704L470.8438 256.1704z" stroke="none" fill="#000000" fill-rule="nonzero" /><path id="325" transform="matrix(1 0 0 -1 0 842)" d="M470.8438 290.8643L545.1875 290.8643L545.1875 290.3687L470.8438 290.3687z" stroke="none" fill="#000000" fill-rule="nonzero" /><path id="326" transform="matrix(1 0 0 -1 0 842)" d="M470.8438 256.666L545.1875 256.666L545.1875 256.1704L470.8438 256.1704z" stroke="none" fill="#000000" fill-rule="nonzero" /><path id="327" transform="matrix(1 0 0 -1 0 842)" d="M470.8438 290.8643L471.3394 290.8643L471.3394 256.1704L470.8438 256.1704z" stroke="none" fill="#000000" fill-rule="nonzero" /><path id="328" transform="matrix(1 0 0 -1 0 842)" d="M544.6919 290.8643L545.1875 290.8643L545.1875 256.1704L544.6919 256.1704z" stroke="none" fill="#000000" fill-rule="nonzero" /></g></g></g></svg>