<svg xmlns="http://www.w3.org/2000/svg" xmlns:xlink="http://www.w3.org/1999/xlink" id="body_23" preserveAspectRatio="xMinYMin meet" viewBox="0 0 793 1123"><defs><clipPath id="1"><path id="" clip-rule="evenodd" transform="matrix(1 0 0 1 0 0)" d="M0 842L0 0L0 0L595 0L595 0L595 842L595 842L0 842z" /></clipPath><clipPath id="2"><path id="" clip-rule="evenodd" transform="matrix(1 0 0 1 0 0)" d="M0 0L594.75 0L594.75 0L594.75 842.0669L594.75 842.0669L0 842.0669L0 842.0669L0 0z" /></clipPath></defs><g transform="matrix(1.333333 0 0 1.333333 0 0)"><g clip-path="url(#1)"><g clip-path="url(#2)"><path id="1" transform="matrix(1 0 0 -1 0 842)" d="M0 841.998L594.75 841.998L594.75 -0.06835938L0 -0.06835938z" stroke="none" fill="#FFFFFF" fill-rule="nonzero" /><path id="2" transform="matrix(1 0 0 -1 0 842)" d="M49.5625 735.9355L74.34375 735.9355L74.34375 710.1621L49.5625 710.1621z" stroke="none" fill="#9CC9F0" fill-rule="nonzero" /><path id="3" transform="matrix(1 0 0 -1 0 842)" d="M74.34375 735.9355L148.6875 735.9355L148.6875 710.1621L74.34375 710.1621z" stroke="none" fill="#9CC9F0" fill-rule="nonzero" /><path id="4" transform="matrix(1 0 0 -1 0 842)" d="M148.6875 735.9355L223.0313 735.9355L223.0313 710.1621L148.6875 710.1621z" stroke="none" fill="#9CC9F0" fill-rule="nonzero" /><path id="5" transform="matrix(1 0 0 -1 0 842)" d="M223.0313 735.9355L272.5938 735.9355L272.5938 710.1621L223.0313 710.1621z" stroke="none" fill="#9CC9F0" fill-rule="nonzero" /><path id="6" transform="matrix(1 0 0 -1 0 842)" d="M272.5938 735.9355L421.2813 735.9355L421.2813 710.1621L272.5938 710.1621z" stroke="none" fill="#9CC9F0" fill-rule="nonzero" /><path id="7" transform="matrix(1 0 0 -1 0 842)" d="M421.2813 735.9355L470.8438 735.9355L470.8438 710.1621L421.2813 710.1621z" stroke="none" fill="#9CC9F0" fill-rule="nonzero" /><path id="8" transform="matrix(1 0 0 -1 0 842)" d="M470.8438 735.9355L544.6919 735.9355L544.6919 710.1621L470.8438 710.1621z" stroke="none" fill="#9CC9F0" fill-rule="nonzero" /><path id="9" transform="matrix(1 0 0 -1 0 842)" d="M49.5625 735.9355L74.83938 735.9355L74.83938 735.4395L49.5625 735.4395z" stroke="none" fill="#000000" fill-rule="nonzero" /><path id="10" transform="matrix(1 0 0 -1 0 842)" d="M49.5625 710.1621L74.83938 710.1621L74.83938 709.666L49.5625 709.666z" stroke="none" fill="#000000" fill-rule="nonzero" /><path id="11" transform="matrix(1 0 0 -1 0 842)" d="M49.5625 735.9355L50.05813 735.9355L50.05813 709.666L49.5625 709.666z" stroke="none" fill="#000000" fill-rule="nonzero" /><path id="12" transform="matrix(1 0 0 -1 0 842)" d="M74.34375 735.9355L74.83938 735.9355L74.83938 709.666L74.34375 709.666z" stroke="none" fill="#000000" fill-rule="nonzero" /><path id="13" transform="matrix(1 0 0 -1 0 842)" d="M74.34375 735.9355L149.1831 735.9355L149.1831 735.4395L74.34375 735.4395z" stroke="none" fill="#000000" fill-rule="nonzero" /><path id="14" transform="matrix(1 0 0 -1 0 842)" d="M74.34375 710.1621L149.1831 710.1621L149.1831 709.666L74.34375 709.666z" stroke="none" fill="#000000" fill-rule="nonzero" /><path id="15" transform="matrix(1 0 0 -1 0 842)" d="M74.34375 735.9355L74.83938 735.9355L74.83938 709.666L74.34375 709.666z" stroke="none" fill="#000000" fill-rule="nonzero" /><path id="16" transform="matrix(1 0 0 -1 0 842)" d="M148.6875 735.9355L149.1831 735.9355L149.1831 709.666L148.6875 709.666z" stroke="none" fill="#000000" fill-rule="nonzero" /><path id="17" transform="matrix(1 0 0 -1 0 842)" d="M148.6875 735.9355L223.5269 735.9355L223.5269 735.4395L148.6875 735.4395z" stroke="none" fill="#000000" fill-rule="nonzero" /><path id="18" transform="matrix(1 0 0 -1 0 842)" d="M148.6875 710.1621L223.5269 710.1621L223.5269 709.666L148.6875 709.666z" stroke="none" fill="#000000" fill-rule="nonzero" /><path id="19" transform="matrix(1 0 0 -1 0 842)" d="M148.6875 735.9355L149.1831 735.9355L149.1831 709.666L148.6875 709.666z" stroke="none" fill="#000000" fill-rule="nonzero" /><path id="20" transform="matrix(1 0 0 -1 0 842)" d="M223.0313 735.9355L223.5269 735.9355L223.5269 709.666L223.0313 709.666z" stroke="none" fill="#000000" fill-rule="nonzero" /><path id="21" transform="matrix(1 0 0 -1 0 842)" d="M223.0313 735.9355L273.0894 735.9355L273.0894 735.4395L223.0313 735.4395z" stroke="none" fill="#000000" fill-rule="nonzero" /><path id="22" transform="matrix(1 0 0 -1 0 842)" d="M223.0313 710.1621L273.0894 710.1621L273.0894 709.666L223.0313 709.666z" stroke="none" fill="#000000" fill-rule="nonzero" /><path id="23" transform="matrix(1 0 0 -1 0 842)" d="M223.0313 735.9355L223.5269 735.9355L223.5269 709.666L223.0313 709.666z" stroke="none" fill="#000000" fill-rule="nonzero" /><path id="24" transform="matrix(1 0 0 -1 0 842)" d="M272.5938 735.9355L273.0894 735.9355L273.0894 709.666L272.5938 709.666z" stroke="none" fill="#000000" fill-rule="nonzero" /><path id="25" transform="matrix(1 0 0 -1 0 842)" d="M272.5938 735.9355L421.7769 735.9355L421.7769 735.4395L272.5938 735.4395z" stroke="none" fill="#000000" fill-rule="nonzero" /><path id="26" transform="matrix(1 0 0 -1 0 842)" d="M272.5938 710.1621L421.7769 710.1621L421.7769 709.666L272.5938 709.666z" stroke="none" fill="#000000" fill-rule="nonzero" /><path id="27" transform="matrix(1 0 0 -1 0 842)" d="M272.5938 735.9355L273.0894 735.9355L273.0894 709.666L272.5938 709.666z" stroke="none" fill="#000000" fill-rule="nonzero" /><path id="28" transform="matrix(1 0 0 -1 0 842)" d="M421.2813 735.9355L421.7769 735.9355L421.7769 709.666L421.2813 709.666z" stroke="none" fill="#000000" fill-rule="nonzero" /><path id="29" transform="matrix(1 0 0 -1 0 842)" d="M421.2813 735.9355L471.3394 735.9355L471.3394 735.4395L421.2813 735.4395z" stroke="none" fill="#000000" fill-rule="nonzero" /><path id="30" transform="matrix(1 0 0 -1 0 842)" d="M421.2813 710.1621L471.3394 710.1621L471.3394 709.666L421.2813 709.666z" stroke="none" fill="#000000" fill-rule="nonzero" /><path id="31" transform="matrix(1 0 0 -1 0 842)" d="M421.2813 735.9355L421.7769 735.9355L421.7769 709.666L421.2813 709.666z" stroke="none" fill="#000000" fill-rule="nonzero" /><path id="32" transform="matrix(1 0 0 -1 0 842)" d="M470.8438 735.9355L471.3394 735.9355L471.3394 709.666L470.8438 709.666z" stroke="none" fill="#000000" fill-rule="nonzero" /><path id="33" transform="matrix(1 0 0 -1 0 842)" d="M470.8438 735.9355L545.1875 735.9355L545.1875 735.4395L470.8438 735.4395z" stroke="none" fill="#000000" fill-rule="nonzero" /><path id="34" transform="matrix(1 0 0 -1 0 842)" d="M470.8438 710.1621L545.1875 710.1621L545.1875 709.666L470.8438 709.666z" stroke="none" fill="#000000" fill-rule="nonzero" /><path id="35" transform="matrix(1 0 0 -1 0 842)" d="M470.8438 735.9355L471.3394 735.9355L471.3394 709.666L470.8438 709.666z" stroke="none" fill="#000000" fill-rule="nonzero" /><path id="36" transform="matrix(1 0 0 -1 0 842)" d="M544.6919 735.9355L545.1875 735.9355L545.1875 709.666L544.6919 709.666z" stroke="none" fill="#000000" fill-rule="nonzero" /><path id="37" transform="matrix(1 0 0 -1 0 842)" d="M49.5625 710.1621L74.83938 710.1621L74.83938 709.666L49.5625 709.666z" stroke="none" fill="#000000" fill-rule="nonzero" /><path id="38" transform="matrix(1 0 0 -1 0 842)" d="M49.5625 607.5684L74.83938 607.5684L74.83938 607.0723L49.5625 607.0723z" stroke="none" fill="#000000" fill-rule="nonzero" /><path id="39" transform="matrix(1 0 0 -1 0 842)" d="M49.5625 710.1621L50.05813 710.1621L50.05813 607.0723L49.5625 607.0723z" stroke="none" fill="#000000" fill-rule="nonzero" /><path id="40" transform="matrix(1 0 0 -1 0 842)" d="M74.34375 710.1621L74.83938 710.1621L74.83938 607.0723L74.34375 607.0723z" stroke="none" fill="#000000" fill-rule="nonzero" /><path id="41" transform="matrix(1 0 0 -1 0 842)" d="M74.34375 710.1621L149.1831 710.1621L149.1831 709.666L74.34375 709.666z" stroke="none" fill="#000000" fill-rule="nonzero" /><path id="42" transform="matrix(1 0 0 -1 0 842)" d="M74.34375 607.5684L149.1831 607.5684L149.1831 607.0723L74.34375 607.0723z" stroke="none" fill="#000000" fill-rule="nonzero" /><path id="43" transform="matrix(1 0 0 -1 0 842)" d="M74.34375 710.1621L74.83938 710.1621L74.83938 607.0723L74.34375 607.0723z" stroke="none" fill="#000000" fill-rule="nonzero" /><path id="44" transform="matrix(1 0 0 -1 0 842)" d="M148.6875 710.1621L149.1831 710.1621L149.1831 607.0723L148.6875 607.0723z" stroke="none" fill="#000000" fill-rule="nonzero" /><path id="45" transform="matrix(1 0 0 -1 0 842)" d="M148.6875 710.1621L223.5269 710.1621L223.5269 709.666L148.6875 709.666z" stroke="none" fill="#000000" fill-rule="nonzero" /><path id="46" transform="matrix(1 0 0 -1 0 842)" d="M148.6875 675.9648L223.5269 675.9648L223.5269 675.4688L148.6875 675.4688z" stroke="none" fill="#000000" fill-rule="nonzero" /><path id="47" transform="matrix(1 0 0 -1 0 842)" d="M148.6875 710.1621L149.1831 710.1621L149.1831 675.4688L148.6875 675.4688z" stroke="none" fill="#000000" fill-rule="nonzero" /><path id="48" transform="matrix(1 0 0 -1 0 842)" d="M223.0313 710.1621L223.5269 710.1621L223.5269 675.4688L223.0313 675.4688z" stroke="none" fill="#000000" fill-rule="nonzero" /><path id="49" transform="matrix(1 0 0 -1 0 842)" d="M223.0313 710.1621L273.0894 710.1621L273.0894 709.666L223.0313 709.666z" stroke="none" fill="#000000" fill-rule="nonzero" /><path id="50" transform="matrix(1 0 0 -1 0 842)" d="M223.0313 675.9648L273.0894 675.9648L273.0894 675.4688L223.0313 675.4688z" stroke="none" fill="#000000" fill-rule="nonzero" /><path id="51" transform="matrix(1 0 0 -1 0 842)" d="M223.0313 710.1621L223.5269 710.1621L223.5269 675.4688L223.0313 675.4688z" stroke="none" fill="#000000" fill-rule="nonzero" /><path id="52" transform="matrix(1 0 0 -1 0 842)" d="M272.5938 710.1621L273.0894 710.1621L273.0894 675.4688L272.5938 675.4688z" stroke="none" fill="#000000" fill-rule="nonzero" /><path id="53" transform="matrix(1 0 0 -1 0 842)" d="M272.5938 710.1621L421.7769 710.1621L421.7769 709.666L272.5938 709.666z" stroke="none" fill="#000000" fill-rule="nonzero" /><path id="54" transform="matrix(1 0 0 -1 0 842)" d="M272.5938 675.9648L421.7769 675.9648L421.7769 675.4688L272.5938 675.4688z" stroke="none" fill="#000000" fill-rule="nonzero" /><path id="55" transform="matrix(1 0 0 -1 0 842)" d="M272.5938 710.1621L273.0894 710.1621L273.0894 675.4688L272.5938 675.4688z" stroke="none" fill="#000000" fill-rule="nonzero" /><path id="56" transform="matrix(1 0 0 -1 0 842)" d="M421.2813 710.1621L421.7769 710.1621L421.7769 675.4688L421.2813 675.4688z" stroke="none" fill="#000000" fill-rule="nonzero" /><path id="57" transform="matrix(1 0 0 -1 0 842)" d="M421.2813 710.1621L471.3394 710.1621L471.3394 709.666L421.2813 709.666z" stroke="none" fill="#000000" fill-rule="nonzero" /><path id="58" transform="matrix(1 0 0 -1 0 842)" d="M421.2813 675.9648L471.3394 675.9648L471.3394 675.4688L421.2813 675.4688z" stroke="none" fill="#000000" fill-rule="nonzero" /><path id="59" transform="matrix(1 0 0 -1 0 842)" d="M421.2813 710.1621L421.7769 710.1621L421.7769 675.4688L421.2813 675.4688z" stroke="none" fill="#000000" fill-rule="nonzero" /><path id="60" transform="matrix(1 0 0 -1 0 842)" d="M470.8438 710.1621L471.3394 710.1621L471.3394 675.4688L470.8438 675.4688z" stroke="none" fill="#000000" fill-rule="nonzero" /><path id="61" transform="matrix(1 0 0 -1 0 842)" d="M470.8438 710.1621L545.1875 710.1621L545.1875 709.666L470.8438 709.666z" stroke="none" fill="#000000" fill-rule="nonzero" /><path id="62" transform="matrix(1 0 0 -1 0 842)" d="M470.8438 607.5684L545.1875 607.5684L545.1875 607.0723L470.8438 607.0723z" stroke="none" fill="#000000" fill-rule="nonzero" /><path id="63" transform="matrix(1 0 0 -1 0 842)" d="M470.8438 710.1621L471.3394 710.1621L471.3394 607.0723L470.8438 607.0723z" stroke="none" fill="#000000" fill-rule="nonzero" /><path id="64" transform="matrix(1 0 0 -1 0 842)" d="M544.6919 710.1621L545.1875 710.1621L545.1875 607.0723L544.6919 607.0723z" stroke="none" fill="#000000" fill-rule="nonzero" /><path id="65" transform="matrix(1 0 0 -1 0 842)" d="M148.6875 675.9648L223.5269 675.9648L223.5269 675.4688L148.6875 675.4688z" stroke="none" fill="#000000" fill-rule="nonzero" /><path id="66" transform="matrix(1 0 0 -1 0 842)" d="M148.6875 641.7656L223.5269 641.7656L223.5269 641.2715L148.6875 641.2715z" stroke="none" fill="#000000" fill-rule="nonzero" /><path id="67" transform="matrix(1 0 0 -1 0 842)" d="M148.6875 675.9648L149.1831 675.9648L149.1831 641.2715L148.6875 641.2715z" stroke="none" fill="#000000" fill-rule="nonzero" /><path id="68" transform="matrix(1 0 0 -1 0 842)" d="M223.0313 675.9648L223.5269 675.9648L223.5269 641.2715L223.0313 641.2715z" stroke="none" fill="#000000" fill-rule="nonzero" /><path id="69" transform="matrix(1 0 0 -1 0 842)" d="M223.0313 675.9648L273.0894 675.9648L273.0894 675.4688L223.0313 675.4688z" stroke="none" fill="#000000" fill-rule="nonzero" /><path id="70" transform="matrix(1 0 0 -1 0 842)" d="M223.0313 641.7656L273.0894 641.7656L273.0894 641.2715L223.0313 641.2715z" stroke="none" fill="#000000" fill-rule="nonzero" /><path id="71" transform="matrix(1 0 0 -1 0 842)" d="M223.0313 675.9648L223.5269 675.9648L223.5269 641.2715L223.0313 641.2715z" stroke="none" fill="#000000" fill-rule="nonzero" /><path id="72" transform="matrix(1 0 0 -1 0 842)" d="M272.5938 675.9648L273.0894 675.9648L273.0894 641.2715L272.5938 641.2715z" stroke="none" fill="#000000" fill-rule="nonzero" /><path id="73" transform="matrix(1 0 0 -1 0 842)" d="M272.5938 675.9648L421.7769 675.9648L421.7769 675.4688L272.5938 675.4688z" stroke="none" fill="#000000" fill-rule="nonzero" /><path id="74" transform="matrix(1 0 0 -1 0 842)" d="M272.5938 641.7656L421.7769 641.7656L421.7769 641.2715L272.5938 641.2715z" stroke="none" fill="#000000" fill-rule="nonzero" /><path id="75" transform="matrix(1 0 0 -1 0 842)" d="M272.5938 675.9648L273.0894 675.9648L273.0894 641.2715L272.5938 641.2715z" stroke="none" fill="#000000" fill-rule="nonzero" /><path id="76" transform="matrix(1 0 0 -1 0 842)" d="M421.2813 675.9648L421.7769 675.9648L421.7769 641.2715L421.2813 641.2715z" stroke="none" fill="#000000" fill-rule="nonzero" /><path id="77" transform="matrix(1 0 0 -1 0 842)" d="M421.2813 675.9648L471.3394 675.9648L471.3394 675.4688L421.2813 675.4688z" stroke="none" fill="#000000" fill-rule="nonzero" /><path id="78" transform="matrix(1 0 0 -1 0 842)" d="M421.2813 641.7656L471.3394 641.7656L471.3394 641.2715L421.2813 641.2715z" stroke="none" fill="#000000" fill-rule="nonzero" /><path id="79" transform="matrix(1 0 0 -1 0 842)" d="M421.2813 675.9648L421.7769 675.9648L421.7769 641.2715L421.2813 641.2715z" stroke="none" fill="#000000" fill-rule="nonzero" /><path id="80" transform="matrix(1 0 0 -1 0 842)" d="M470.8438 675.9648L471.3394 675.9648L471.3394 641.2715L470.8438 641.2715z" stroke="none" fill="#000000" fill-rule="nonzero" /><path id="81" transform="matrix(1 0 0 -1 0 842)" d="M148.6875 641.7656L223.5269 641.7656L223.5269 641.2715L148.6875 641.2715z" stroke="none" fill="#000000" fill-rule="nonzero" /><path id="82" transform="matrix(1 0 0 -1 0 842)" d="M148.6875 607.5684L223.5269 607.5684L223.5269 607.0723L148.6875 607.0723z" stroke="none" fill="#000000" fill-rule="nonzero" /><path id="83" transform="matrix(1 0 0 -1 0 842)" d="M148.6875 641.7656L149.1831 641.7656L149.1831 607.0723L148.6875 607.0723z" stroke="none" fill="#000000" fill-rule="nonzero" /><path id="84" transform="matrix(1 0 0 -1 0 842)" d="M223.0313 641.7656L223.5269 641.7656L223.5269 607.0723L223.0313 607.0723z" stroke="none" fill="#000000" fill-rule="nonzero" /><path id="85" transform="matrix(1 0 0 -1 0 842)" d="M223.0313 641.7656L273.0894 641.7656L273.0894 641.2715L223.0313 641.2715z" stroke="none" fill="#000000" fill-rule="nonzero" /><path id="86" transform="matrix(1 0 0 -1 0 842)" d="M223.0313 607.5684L273.0894 607.5684L273.0894 607.0723L223.0313 607.0723z" stroke="none" fill="#000000" fill-rule="nonzero" /><path id="87" transform="matrix(1 0 0 -1 0 842)" d="M223.0313 641.7656L223.5269 641.7656L223.5269 607.0723L223.0313 607.0723z" stroke="none" fill="#000000" fill-rule="nonzero" /><path id="88" transform="matrix(1 0 0 -1 0 842)" d="M272.5938 641.7656L273.0894 641.7656L273.0894 607.0723L272.5938 607.0723z" stroke="none" fill="#000000" fill-rule="nonzero" /><path id="89" transform="matrix(1 0 0 -1 0 842)" d="M272.5938 641.7656L421.7769 641.7656L421.7769 641.2715L272.5938 641.2715z" stroke="none" fill="#000000" fill-rule="nonzero" /><path id="90" transform="matrix(1 0 0 -1 0 842)" d="M272.5938 607.5684L421.7769 607.5684L421.7769 607.0723L272.5938 607.0723z" stroke="none" fill="#000000" fill-rule="nonzero" /><path id="91" transform="matrix(1 0 0 -1 0 842)" d="M272.5938 641.7656L273.0894 641.7656L273.0894 607.0723L272.5938 607.0723z" stroke="none" fill="#000000" fill-rule="nonzero" /><path id="92" transform="matrix(1 0 0 -1 0 842)" d="M421.2813 641.7656L421.7769 641.7656L421.7769 607.0723L421.2813 607.0723z" stroke="none" fill="#000000" fill-rule="nonzero" /><path id="93" transform="matrix(1 0 0 -1 0 842)" d="M421.2813 641.7656L471.3394 641.7656L471.3394 641.2715L421.2813 641.2715z" stroke="none" fill="#000000" fill-rule="nonzero" /><path id="94" transform="matrix(1 0 0 -1 0 842)" d="M421.2813 607.5684L471.3394 607.5684L471.3394 607.0723L421.2813 607.0723z" stroke="none" fill="#000000" fill-rule="nonzero" /><path id="95" transform="matrix(1 0 0 -1 0 842)" d="M421.2813 641.7656L421.7769 641.7656L421.7769 607.0723L421.2813 607.0723z" stroke="none" fill="#000000" fill-rule="nonzero" /><path id="96" transform="matrix(1 0 0 -1 0 842)" d="M470.8438 641.7656L471.3394 641.7656L471.3394 607.0723L470.8438 607.0723z" stroke="none" fill="#000000" fill-rule="nonzero" /><path id="97" transform="matrix(1 0 0 -1 0 842)" d="M49.5625 607.5684L74.83938 607.5684L74.83938 607.0723L49.5625 607.0723z" stroke="none" fill="#000000" fill-rule="nonzero" /><path id="98" transform="matrix(1 0 0 -1 0 842)" d="M49.5625 559.9883L74.83938 559.9883L74.83938 559.4922L49.5625 559.4922z" stroke="none" fill="#000000" fill-rule="nonzero" /><path id="99" transform="matrix(1 0 0 -1 0 842)" d="M49.5625 607.5684L50.05813 607.5684L50.05813 559.4922L49.5625 559.4922z" stroke="none" fill="#000000" fill-rule="nonzero" /><path id="100" transform="matrix(1 0 0 -1 0 842)" d="M74.34375 607.5684L74.83938 607.5684L74.83938 559.4922L74.34375 559.4922z" stroke="none" fill="#000000" fill-rule="nonzero" /><path id="101" transform="matrix(1 0 0 -1 0 842)" d="M74.34375 607.5684L149.1831 607.5684L149.1831 607.0723L74.34375 607.0723z" stroke="none" fill="#000000" fill-rule="nonzero" /><path id="102" transform="matrix(1 0 0 -1 0 842)" d="M74.34375 559.9883L149.1831 559.9883L149.1831 559.4922L74.34375 559.4922z" stroke="none" fill="#000000" fill-rule="nonzero" /><path id="103" transform="matrix(1 0 0 -1 0 842)" d="M74.34375 607.5684L74.83938 607.5684L74.83938 559.4922L74.34375 559.4922z" stroke="none" fill="#000000" fill-rule="nonzero" /><path id="104" transform="matrix(1 0 0 -1 0 842)" d="M148.6875 607.5684L149.1831 607.5684L149.1831 559.4922L148.6875 559.4922z" stroke="none" fill="#000000" fill-rule="nonzero" /><path id="105" transform="matrix(1 0 0 -1 0 842)" d="M148.6875 607.5684L223.5269 607.5684L223.5269 607.0723L148.6875 607.0723z" stroke="none" fill="#000000" fill-rule="nonzero" /><path id="106" transform="matrix(1 0 0 -1 0 842)" d="M148.6875 559.9883L223.5269 559.9883L223.5269 559.4922L148.6875 559.4922z" stroke="none" fill="#000000" fill-rule="nonzero" /><path id="107" transform="matrix(1 0 0 -1 0 842)" d="M148.6875 607.5684L149.1831 607.5684L149.1831 559.4922L148.6875 559.4922z" stroke="none" fill="#000000" fill-rule="nonzero" /><path id="108" transform="matrix(1 0 0 -1 0 842)" d="M223.0313 607.5684L223.5269 607.5684L223.5269 559.4922L223.0313 559.4922z" stroke="none" fill="#000000" fill-rule="nonzero" /><path id="109" transform="matrix(1 0 0 -1 0 842)" d="M223.0313 607.5684L273.0894 607.5684L273.0894 607.0723L223.0313 607.0723z" stroke="none" fill="#000000" fill-rule="nonzero" /><path id="110" transform="matrix(1 0 0 -1 0 842)" d="M223.0313 559.9883L273.0894 559.9883L273.0894 559.4922L223.0313 559.4922z" stroke="none" fill="#000000" fill-rule="nonzero" /><path id="111" transform="matrix(1 0 0 -1 0 842)" d="M223.0313 607.5684L223.5269 607.5684L223.5269 559.4922L223.0313 559.4922z" stroke="none" fill="#000000" fill-rule="nonzero" /><path id="112" transform="matrix(1 0 0 -1 0 842)" d="M272.5938 607.5684L273.0894 607.5684L273.0894 559.4922L272.5938 559.4922z" stroke="none" fill="#000000" fill-rule="nonzero" /><path id="113" transform="matrix(1 0 0 -1 0 842)" d="M272.5938 607.5684L421.7769 607.5684L421.7769 607.0723L272.5938 607.0723z" stroke="none" fill="#000000" fill-rule="nonzero" /><path id="114" transform="matrix(1 0 0 -1 0 842)" d="M272.5938 559.9883L421.7769 559.9883L421.7769 559.4922L272.5938 559.4922z" stroke="none" fill="#000000" fill-rule="nonzero" /><path id="115" transform="matrix(1 0 0 -1 0 842)" d="M272.5938 607.5684L273.0894 607.5684L273.0894 559.4922L272.5938 559.4922z" stroke="none" fill="#000000" fill-rule="nonzero" /><path id="116" transform="matrix(1 0 0 -1 0 842)" d="M421.2813 607.5684L421.7769 607.5684L421.7769 559.4922L421.2813 559.4922z" stroke="none" fill="#000000" fill-rule="nonzero" /><path id="117" transform="matrix(1 0 0 -1 0 842)" d="M421.2813 607.5684L471.3394 607.5684L471.3394 607.0723L421.2813 607.0723z" stroke="none" fill="#000000" fill-rule="nonzero" /><path id="118" transform="matrix(1 0 0 -1 0 842)" d="M421.2813 559.9883L471.3394 559.9883L471.3394 559.4922L421.2813 559.4922z" stroke="none" fill="#000000" fill-rule="nonzero" /><path id="119" transform="matrix(1 0 0 -1 0 842)" d="M421.2813 607.5684L421.7769 607.5684L421.7769 559.4922L421.2813 559.4922z" stroke="none" fill="#000000" fill-rule="nonzero" /><path id="120" transform="matrix(1 0 0 -1 0 842)" d="M470.8438 607.5684L471.3394 607.5684L471.3394 559.4922L470.8438 559.4922z" stroke="none" fill="#000000" fill-rule="nonzero" /><path id="121" transform="matrix(1 0 0 -1 0 842)" d="M470.8438 607.5684L545.1875 607.5684L545.1875 607.0723L470.8438 607.0723z" stroke="none" fill="#000000" fill-rule="nonzero" /><path id="122" transform="matrix(1 0 0 -1 0 842)" d="M470.8438 559.9883L545.1875 559.9883L545.1875 559.4922L470.8438 559.4922z" stroke="none" fill="#000000" fill-rule="nonzero" /><path id="123" transform="matrix(1 0 0 -1 0 842)" d="M470.8438 607.5684L471.3394 607.5684L471.3394 559.4922L470.8438 559.4922z" stroke="none" fill="#000000" fill-rule="nonzero" /><path id="124" transform="matrix(1 0 0 -1 0 842)" d="M544.6919 607.5684L545.1875 607.5684L545.1875 559.4922L544.6919 559.4922z" stroke="none" fill="#000000" fill-rule="nonzero" /><path id="125" transform="matrix(1 0 0 -1 0 842)" d="M49.5625 514.8867L74.34375 514.8867L74.34375 489.1133L49.5625 489.1133z" stroke="none" fill="#9CC9F0" fill-rule="nonzero" /><path id="126" transform="matrix(1 0 0 -1 0 842)" d="M74.34375 514.8867L148.6875 514.8867L148.6875 489.1133L74.34375 489.1133z" stroke="none" fill="#9CC9F0" fill-rule="nonzero" /><path id="127" transform="matrix(1 0 0 -1 0 842)" d="M148.6875 514.8867L223.0313 514.8867L223.0313 489.1133L148.6875 489.1133z" stroke="none" fill="#9CC9F0" fill-rule="nonzero" /><path id="128" transform="matrix(1 0 0 -1 0 842)" d="M223.0313 514.8867L272.5938 514.8867L272.5938 489.1133L223.0313 489.1133z" stroke="none" fill="#9CC9F0" fill-rule="nonzero" /><path id="129" transform="matrix(1 0 0 -1 0 842)" d="M272.5938 514.8867L421.2813 514.8867L421.2813 489.1133L272.5938 489.1133z" stroke="none" fill="#9CC9F0" fill-rule="nonzero" /><path id="130" transform="matrix(1 0 0 -1 0 842)" d="M421.2813 514.8867L470.8438 514.8867L470.8438 489.1133L421.2813 489.1133z" stroke="none" fill="#9CC9F0" fill-rule="nonzero" /><path id="131" transform="matrix(1 0 0 -1 0 842)" d="M470.8438 514.8867L544.6919 514.8867L544.6919 489.1133L470.8438 489.1133z" stroke="none" fill="#9CC9F0" fill-rule="nonzero" /><path id="132" transform="matrix(1 0 0 -1 0 842)" d="M49.5625 514.8867L74.83938 514.8867L74.83938 514.3906L49.5625 514.3906z" stroke="none" fill="#000000" fill-rule="nonzero" /><path id="133" transform="matrix(1 0 0 -1 0 842)" d="M49.5625 489.1133L74.83938 489.1133L74.83938 488.6172L49.5625 488.6172z" stroke="none" fill="#000000" fill-rule="nonzero" /><path id="134" transform="matrix(1 0 0 -1 0 842)" d="M49.5625 514.8867L50.05813 514.8867L50.05813 488.6172L49.5625 488.6172z" stroke="none" fill="#000000" fill-rule="nonzero" /><path id="135" transform="matrix(1 0 0 -1 0 842)" d="M74.34375 514.8867L74.83938 514.8867L74.83938 488.6172L74.34375 488.6172z" stroke="none" fill="#000000" fill-rule="nonzero" /><path id="136" transform="matrix(1 0 0 -1 0 842)" d="M74.34375 514.8867L149.1831 514.8867L149.1831 514.3906L74.34375 514.3906z" stroke="none" fill="#000000" fill-rule="nonzero" /><path id="137" transform="matrix(1 0 0 -1 0 842)" d="M74.34375 489.1133L149.1831 489.1133L149.1831 488.6172L74.34375 488.6172z" stroke="none" fill="#000000" fill-rule="nonzero" /><path id="138" transform="matrix(1 0 0 -1 0 842)" d="M74.34375 514.8867L74.83938 514.8867L74.83938 488.6172L74.34375 488.6172z" stroke="none" fill="#000000" fill-rule="nonzero" /><path id="139" transform="matrix(1 0 0 -1 0 842)" d="M148.6875 514.8867L149.1831 514.8867L149.1831 488.6172L148.6875 488.6172z" stroke="none" fill="#000000" fill-rule="nonzero" /><path id="140" transform="matrix(1 0 0 -1 0 842)" d="M148.6875 514.8867L223.5269 514.8867L223.5269 514.3906L148.6875 514.3906z" stroke="none" fill="#000000" fill-rule="nonzero" /><path id="141" transform="matrix(1 0 0 -1 0 842)" d="M148.6875 489.1133L223.5269 489.1133L223.5269 488.6172L148.6875 488.6172z" stroke="none" fill="#000000" fill-rule="nonzero" /><path id="142" transform="matrix(1 0 0 -1 0 842)" d="M148.6875 514.8867L149.1831 514.8867L149.1831 488.6172L148.6875 488.6172z" stroke="none" fill="#000000" fill-rule="nonzero" /><path id="143" transform="matrix(1 0 0 -1 0 842)" d="M223.0313 514.8867L223.5269 514.8867L223.5269 488.6172L223.0313 488.6172z" stroke="none" fill="#000000" fill-rule="nonzero" /><path id="144" transform="matrix(1 0 0 -1 0 842)" d="M223.0313 514.8867L273.0894 514.8867L273.0894 514.3906L223.0313 514.3906z" stroke="none" fill="#000000" fill-rule="nonzero" /><path id="145" transform="matrix(1 0 0 -1 0 842)" d="M223.0313 489.1133L273.0894 489.1133L273.0894 488.6172L223.0313 488.6172z" stroke="none" fill="#000000" fill-rule="nonzero" /><path id="146" transform="matrix(1 0 0 -1 0 842)" d="M223.0313 514.8867L223.5269 514.8867L223.5269 488.6172L223.0313 488.6172z" stroke="none" fill="#000000" fill-rule="nonzero" /><path id="147" transform="matrix(1 0 0 -1 0 842)" d="M272.5938 514.8867L273.0894 514.8867L273.0894 488.6172L272.5938 488.6172z" stroke="none" fill="#000000" fill-rule="nonzero" /><path id="148" transform="matrix(1 0 0 -1 0 842)" d="M272.5938 514.8867L421.7769 514.8867L421.7769 514.3906L272.5938 514.3906z" stroke="none" fill="#000000" fill-rule="nonzero" /><path id="149" transform="matrix(1 0 0 -1 0 842)" d="M272.5938 489.1133L421.7769 489.1133L421.7769 488.6172L272.5938 488.6172z" stroke="none" fill="#000000" fill-rule="nonzero" /><path id="150" transform="matrix(1 0 0 -1 0 842)" d="M272.5938 514.8867L273.0894 514.8867L273.0894 488.6172L272.5938 488.6172z" stroke="none" fill="#000000" fill-rule="nonzero" /><path id="151" transform="matrix(1 0 0 -1 0 842)" d="M421.2813 514.8867L421.7769 514.8867L421.7769 488.6172L421.2813 488.6172z" stroke="none" fill="#000000" fill-rule="nonzero" /><path id="152" transform="matrix(1 0 0 -1 0 842)" d="M421.2813 514.8867L471.3394 514.8867L471.3394 514.3906L421.2813 514.3906z" stroke="none" fill="#000000" fill-rule="nonzero" /><path id="153" transform="matrix(1 0 0 -1 0 842)" d="M421.2813 489.1133L471.3394 489.1133L471.3394 488.6172L421.2813 488.6172z" stroke="none" fill="#000000" fill-rule="nonzero" /><path id="154" transform="matrix(1 0 0 -1 0 842)" d="M421.2813 514.8867L421.7769 514.8867L421.7769 488.6172L421.2813 488.6172z" stroke="none" fill="#000000" fill-rule="nonzero" /><path id="155" transform="matrix(1 0 0 -1 0 842)" d="M470.8438 514.8867L471.3394 514.8867L471.3394 488.6172L470.8438 488.6172z" stroke="none" fill="#000000" fill-rule="nonzero" /><path id="156" transform="matrix(1 0 0 -1 0 842)" d="M470.8438 514.8867L545.1875 514.8867L545.1875 514.3906L470.8438 514.3906z" stroke="none" fill="#000000" fill-rule="nonzero" /><path id="157" transform="matrix(1 0 0 -1 0 842)" d="M470.8438 489.1133L545.1875 489.1133L545.1875 488.6172L470.8438 488.6172z" stroke="none" fill="#000000" fill-rule="nonzero" /><path id="158" transform="matrix(1 0 0 -1 0 842)" d="M470.8438 514.8867L471.3394 514.8867L471.3394 488.6172L470.8438 488.6172z" stroke="none" fill="#000000" fill-rule="nonzero" /><path id="159" transform="matrix(1 0 0 -1 0 842)" d="M544.6919 514.8867L545.1875 514.8867L545.1875 488.6172L544.6919 488.6172z" stroke="none" fill="#000000" fill-rule="nonzero" /><path id="160" transform="matrix(1 0 0 -1 0 842)" d="M49.5625 489.1133L74.83938 489.1133L74.83938 488.6172L49.5625 488.6172z" stroke="none" fill="#000000" fill-rule="nonzero" /><path id="161" transform="matrix(1 0 0 -1 0 842)" d="M49.5625 394.9453L74.83938 394.9453L74.83938 394.4492L49.5625 394.4492z" stroke="none" fill="#000000" fill-rule="nonzero" /><path id="162" transform="matrix(1 0 0 -1 0 842)" d="M49.5625 489.1133L50.05813 489.1133L50.05813 394.4492L49.5625 394.4492z" stroke="none" fill="#000000" fill-rule="nonzero" /><path id="163" transform="matrix(1 0 0 -1 0 842)" d="M74.34375 489.1133L74.83938 489.1133L74.83938 394.4492L74.34375 394.4492z" stroke="none" fill="#000000" fill-rule="nonzero" /><path id="164" transform="matrix(1 0 0 -1 0 842)" d="M74.34375 489.1133L149.1831 489.1133L149.1831 488.6172L74.34375 488.6172z" stroke="none" fill="#000000" fill-rule="nonzero" /><path id="165" transform="matrix(1 0 0 -1 0 842)" d="M74.34375 394.9453L149.1831 394.9453L149.1831 394.4492L74.34375 394.4492z" stroke="none" fill="#000000" fill-rule="nonzero" /><path id="166" transform="matrix(1 0 0 -1 0 842)" d="M74.34375 489.1133L74.83938 489.1133L74.83938 394.4492L74.34375 394.4492z" stroke="none" fill="#000000" fill-rule="nonzero" /><path id="167" transform="matrix(1 0 0 -1 0 842)" d="M148.6875 489.1133L149.1831 489.1133L149.1831 394.4492L148.6875 394.4492z" stroke="none" fill="#000000" fill-rule="nonzero" /><path id="168" transform="matrix(1 0 0 -1 0 842)" d="M148.6875 489.1133L223.5269 489.1133L223.5269 488.6172L148.6875 488.6172z" stroke="none" fill="#000000" fill-rule="nonzero" /><path id="169" transform="matrix(1 0 0 -1 0 842)" d="M148.6875 463.3418L223.5269 463.3418L223.5269 462.8457L148.6875 462.8457z" stroke="none" fill="#000000" fill-rule="nonzero" /><path id="170" transform="matrix(1 0 0 -1 0 842)" d="M148.6875 489.1133L149.1831 489.1133L149.1831 462.8457L148.6875 462.8457z" stroke="none" fill="#000000" fill-rule="nonzero" /><path id="171" transform="matrix(1 0 0 -1 0 842)" d="M223.0313 489.1133L223.5269 489.1133L223.5269 462.8457L223.0313 462.8457z" stroke="none" fill="#000000" fill-rule="nonzero" /><path id="172" transform="matrix(1 0 0 -1 0 842)" d="M223.0313 489.1133L273.0894 489.1133L273.0894 488.6172L223.0313 488.6172z" stroke="none" fill="#000000" fill-rule="nonzero" /><path id="173" transform="matrix(1 0 0 -1 0 842)" d="M223.0313 463.3418L273.0894 463.3418L273.0894 462.8457L223.0313 462.8457z" stroke="none" fill="#000000" fill-rule="nonzero" /><path id="174" transform="matrix(1 0 0 -1 0 842)" d="M223.0313 489.1133L223.5269 489.1133L223.5269 462.8457L223.0313 462.8457z" stroke="none" fill="#000000" fill-rule="nonzero" /><path id="175" transform="matrix(1 0 0 -1 0 842)" d="M272.5938 489.1133L273.0894 489.1133L273.0894 462.8457L272.5938 462.8457z" stroke="none" fill="#000000" fill-rule="nonzero" /><path id="176" transform="matrix(1 0 0 -1 0 842)" d="M272.5938 489.1133L421.7769 489.1133L421.7769 488.6172L272.5938 488.6172z" stroke="none" fill="#000000" fill-rule="nonzero" /><path id="177" transform="matrix(1 0 0 -1 0 842)" d="M272.5938 463.3418L421.7769 463.3418L421.7769 462.8457L272.5938 462.8457z" stroke="none" fill="#000000" fill-rule="nonzero" /><path id="178" transform="matrix(1 0 0 -1 0 842)" d="M272.5938 489.1133L273.0894 489.1133L273.0894 462.8457L272.5938 462.8457z" stroke="none" fill="#000000" fill-rule="nonzero" /><path id="179" transform="matrix(1 0 0 -1 0 842)" d="M421.2813 489.1133L421.7769 489.1133L421.7769 462.8457L421.2813 462.8457z" stroke="none" fill="#000000" fill-rule="nonzero" /><path id="180" transform="matrix(1 0 0 -1 0 842)" d="M421.2813 489.1133L471.3394 489.1133L471.3394 488.6172L421.2813 488.6172z" stroke="none" fill="#000000" fill-rule="nonzero" /><path id="181" transform="matrix(1 0 0 -1 0 842)" d="M421.2813 463.3418L471.3394 463.3418L471.3394 462.8457L421.2813 462.8457z" stroke="none" fill="#000000" fill-rule="nonzero" /><path id="182" transform="matrix(1 0 0 -1 0 842)" d="M421.2813 489.1133L421.7769 489.1133L421.7769 462.8457L421.2813 462.8457z" stroke="none" fill="#000000" fill-rule="nonzero" /><path id="183" transform="matrix(1 0 0 -1 0 842)" d="M470.8438 489.1133L471.3394 489.1133L471.3394 462.8457L470.8438 462.8457z" stroke="none" fill="#000000" fill-rule="nonzero" /><path id="184" transform="matrix(1 0 0 -1 0 842)" d="M470.8438 489.1133L545.1875 489.1133L545.1875 488.6172L470.8438 488.6172z" stroke="none" fill="#000000" fill-rule="nonzero" /><path id="185" transform="matrix(1 0 0 -1 0 842)" d="M470.8438 394.9453L545.1875 394.9453L545.1875 394.4492L470.8438 394.4492z" stroke="none" fill="#000000" fill-rule="nonzero" /><path id="186" transform="matrix(1 0 0 -1 0 842)" d="M470.8438 489.1133L471.3394 489.1133L471.3394 394.4492L470.8438 394.4492z" stroke="none" fill="#000000" fill-rule="nonzero" /><path id="187" transform="matrix(1 0 0 -1 0 842)" d="M544.6919 489.1133L545.1875 489.1133L545.1875 394.4492L544.6919 394.4492z" stroke="none" fill="#000000" fill-rule="nonzero" /><path id="188" transform="matrix(1 0 0 -1 0 842)" d="M148.6875 463.3418L223.5269 463.3418L223.5269 462.8457L148.6875 462.8457z" stroke="none" fill="#000000" fill-rule="nonzero" /><path id="189" transform="matrix(1 0 0 -1 0 842)" d="M148.6875 429.1426L223.5269 429.1426L223.5269 428.6484L148.6875 428.6484z" stroke="none" fill="#000000" fill-rule="nonzero" /><path id="190" transform="matrix(1 0 0 -1 0 842)" d="M148.6875 463.3418L149.1831 463.3418L149.1831 428.6484L148.6875 428.6484z" stroke="none" fill="#000000" fill-rule="nonzero" /><path id="191" transform="matrix(1 0 0 -1 0 842)" d="M223.0313 463.3418L223.5269 463.3418L223.5269 428.6484L223.0313 428.6484z" stroke="none" fill="#000000" fill-rule="nonzero" /><path id="192" transform="matrix(1 0 0 -1 0 842)" d="M223.0313 463.3418L273.0894 463.3418L273.0894 462.8457L223.0313 462.8457z" stroke="none" fill="#000000" fill-rule="nonzero" /><path id="193" transform="matrix(1 0 0 -1 0 842)" d="M223.0313 429.1426L273.0894 429.1426L273.0894 428.6484L223.0313 428.6484z" stroke="none" fill="#000000" fill-rule="nonzero" /><path id="194" transform="matrix(1 0 0 -1 0 842)" d="M223.0313 463.3418L223.5269 463.3418L223.5269 428.6484L223.0313 428.6484z" stroke="none" fill="#000000" fill-rule="nonzero" /><path id="195" transform="matrix(1 0 0 -1 0 842)" d="M272.5938 463.3418L273.0894 463.3418L273.0894 428.6484L272.5938 428.6484z" stroke="none" fill="#000000" fill-rule="nonzero" /><path id="196" transform="matrix(1 0 0 -1 0 842)" d="M272.5938 463.3418L421.7769 463.3418L421.7769 462.8457L272.5938 462.8457z" stroke="none" fill="#000000" fill-rule="nonzero" /><path id="197" transform="matrix(1 0 0 -1 0 842)" d="M272.5938 429.1426L421.7769 429.1426L421.7769 428.6484L272.5938 428.6484z" stroke="none" fill="#000000" fill-rule="nonzero" /><path id="198" transform="matrix(1 0 0 -1 0 842)" d="M272.5938 463.3418L273.0894 463.3418L273.0894 428.6484L272.5938 428.6484z" stroke="none" fill="#000000" fill-rule="nonzero" /><path id="199" transform="matrix(1 0 0 -1 0 842)" d="M421.2813 463.3418L421.7769 463.3418L421.7769 428.6484L421.2813 428.6484z" stroke="none" fill="#000000" fill-rule="nonzero" /><path id="200" transform="matrix(1 0 0 -1 0 842)" d="M421.2813 463.3418L471.3394 463.3418L471.3394 462.8457L421.2813 462.8457z" stroke="none" fill="#000000" fill-rule="nonzero" /><path id="201" transform="matrix(1 0 0 -1 0 842)" d="M421.2813 429.1426L471.3394 429.1426L471.3394 428.6484L421.2813 428.6484z" stroke="none" fill="#000000" fill-rule="nonzero" /><path id="202" transform="matrix(1 0 0 -1 0 842)" d="M421.2813 463.3418L421.7769 463.3418L421.7769 428.6484L421.2813 428.6484z" stroke="none" fill="#000000" fill-rule="nonzero" /><path id="203" transform="matrix(1 0 0 -1 0 842)" d="M470.8438 463.3418L471.3394 463.3418L471.3394 428.6484L470.8438 428.6484z" stroke="none" fill="#000000" fill-rule="nonzero" /><path id="204" transform="matrix(1 0 0 -1 0 842)" d="M148.6875 429.1426L223.5269 429.1426L223.5269 428.6484L148.6875 428.6484z" stroke="none" fill="#000000" fill-rule="nonzero" /><path id="205" transform="matrix(1 0 0 -1 0 842)" d="M148.6875 394.9453L223.5269 394.9453L223.5269 394.4492L148.6875 394.4492z" stroke="none" fill="#000000" fill-rule="nonzero" /><path id="206" transform="matrix(1 0 0 -1 0 842)" d="M148.6875 429.1426L149.1831 429.1426L149.1831 394.4492L148.6875 394.4492z" stroke="none" fill="#000000" fill-rule="nonzero" /><path id="207" transform="matrix(1 0 0 -1 0 842)" d="M223.0313 429.1426L223.5269 429.1426L223.5269 394.4492L223.0313 394.4492z" stroke="none" fill="#000000" fill-rule="nonzero" /><path id="208" transform="matrix(1 0 0 -1 0 842)" d="M223.0313 429.1426L273.0894 429.1426L273.0894 428.6484L223.0313 428.6484z" stroke="none" fill="#000000" fill-rule="nonzero" /><path id="209" transform="matrix(1 0 0 -1 0 842)" d="M223.0313 394.9453L273.0894 394.9453L273.0894 394.4492L223.0313 394.4492z" stroke="none" fill="#000000" fill-rule="nonzero" /><path id="210" transform="matrix(1 0 0 -1 0 842)" d="M223.0313 429.1426L223.5269 429.1426L223.5269 394.4492L223.0313 394.4492z" stroke="none" fill="#000000" fill-rule="nonzero" /><path id="211" transform="matrix(1 0 0 -1 0 842)" d="M272.5938 429.1426L273.0894 429.1426L273.0894 394.4492L272.5938 394.4492z" stroke="none" fill="#000000" fill-rule="nonzero" /><path id="212" transform="matrix(1 0 0 -1 0 842)" d="M272.5938 429.1426L421.7769 429.1426L421.7769 428.6484L272.5938 428.6484z" stroke="none" fill="#000000" fill-rule="nonzero" /><path id="213" transform="matrix(1 0 0 -1 0 842)" d="M272.5938 394.9453L421.7769 394.9453L421.7769 394.4492L272.5938 394.4492z" stroke="none" fill="#000000" fill-rule="nonzero" /><path id="214" transform="matrix(1 0 0 -1 0 842)" d="M272.5938 429.1426L273.0894 429.1426L273.0894 394.4492L272.5938 394.4492z" stroke="none" fill="#000000" fill-rule="nonzero" /><path id="215" transform="matrix(1 0 0 -1 0 842)" d="M421.2813 429.1426L421.7769 429.1426L421.7769 394.4492L421.2813 394.4492z" stroke="none" fill="#000000" fill-rule="nonzero" /><path id="216" transform="matrix(1 0 0 -1 0 842)" d="M421.2813 429.1426L471.3394 429.1426L471.3394 428.6484L421.2813 428.6484z" stroke="none" fill="#000000" fill-rule="nonzero" /><path id="217" transform="matrix(1 0 0 -1 0 842)" d="M421.2813 394.9453L471.3394 394.9453L471.3394 394.4492L421.2813 394.4492z" stroke="none" fill="#000000" fill-rule="nonzero" /><path id="218" transform="matrix(1 0 0 -1 0 842)" d="M421.2813 429.1426L421.7769 429.1426L421.7769 394.4492L421.2813 394.4492z" stroke="none" fill="#000000" fill-rule="nonzero" /><path id="219" transform="matrix(1 0 0 -1 0 842)" d="M470.8438 429.1426L471.3394 429.1426L471.3394 394.4492L470.8438 394.4492z" stroke="none" fill="#000000" fill-rule="nonzero" /><path id="220" transform="matrix(1 0 0 -1 0 842)" d="M49.5625 314.1582L74.34375 314.1582L74.34375 288.3848L49.5625 288.3848z" stroke="none" fill="#9CC9F0" fill-rule="nonzero" /><path id="221" transform="matrix(1 0 0 -1 0 842)" d="M74.34375 314.1582L148.6875 314.1582L148.6875 288.3848L74.34375 288.3848z" stroke="none" fill="#9CC9F0" fill-rule="nonzero" /><path id="222" transform="matrix(1 0 0 -1 0 842)" d="M148.6875 314.1582L223.0313 314.1582L223.0313 288.3848L148.6875 288.3848z" stroke="none" fill="#9CC9F0" fill-rule="nonzero" /><path id="223" transform="matrix(1 0 0 -1 0 842)" d="M223.0313 314.1582L272.5938 314.1582L272.5938 288.3848L223.0313 288.3848z" stroke="none" fill="#9CC9F0" fill-rule="nonzero" /><path id="224" transform="matrix(1 0 0 -1 0 842)" d="M272.5938 314.1582L421.2813 314.1582L421.2813 288.3848L272.5938 288.3848z" stroke="none" fill="#9CC9F0" fill-rule="nonzero" /><path id="225" transform="matrix(1 0 0 -1 0 842)" d="M421.2813 314.1582L470.8438 314.1582L470.8438 288.3848L421.2813 288.3848z" stroke="none" fill="#9CC9F0" fill-rule="nonzero" /><path id="226" transform="matrix(1 0 0 -1 0 842)" d="M470.8438 314.1582L544.6919 314.1582L544.6919 288.3848L470.8438 288.3848z" stroke="none" fill="#9CC9F0" fill-rule="nonzero" /><path id="227" transform="matrix(1 0 0 -1 0 842)" d="M49.5625 314.1582L74.83938 314.1582L74.83938 313.6621L49.5625 313.6621z" stroke="none" fill="#000000" fill-rule="nonzero" /><path id="228" transform="matrix(1 0 0 -1 0 842)" d="M49.5625 288.3848L74.83938 288.3848L74.83938 287.8906L49.5625 287.8906z" stroke="none" fill="#000000" fill-rule="nonzero" /><path id="229" transform="matrix(1 0 0 -1 0 842)" d="M49.5625 314.1582L50.05813 314.1582L50.05813 287.8906L49.5625 287.8906z" stroke="none" fill="#000000" fill-rule="nonzero" /><path id="230" transform="matrix(1 0 0 -1 0 842)" d="M74.34375 314.1582L74.83938 314.1582L74.83938 287.8906L74.34375 287.8906z" stroke="none" fill="#000000" fill-rule="nonzero" /><path id="231" transform="matrix(1 0 0 -1 0 842)" d="M74.34375 314.1582L149.1831 314.1582L149.1831 313.6621L74.34375 313.6621z" stroke="none" fill="#000000" fill-rule="nonzero" /><path id="232" transform="matrix(1 0 0 -1 0 842)" d="M74.34375 288.3848L149.1831 288.3848L149.1831 287.8906L74.34375 287.8906z" stroke="none" fill="#000000" fill-rule="nonzero" /><path id="233" transform="matrix(1 0 0 -1 0 842)" d="M74.34375 314.1582L74.83938 314.1582L74.83938 287.8906L74.34375 287.8906z" stroke="none" fill="#000000" fill-rule="nonzero" /><path id="234" transform="matrix(1 0 0 -1 0 842)" d="M148.6875 314.1582L149.1831 314.1582L149.1831 287.8906L148.6875 287.8906z" stroke="none" fill="#000000" fill-rule="nonzero" /><path id="235" transform="matrix(1 0 0 -1 0 842)" d="M148.6875 314.1582L223.5269 314.1582L223.5269 313.6621L148.6875 313.6621z" stroke="none" fill="#000000" fill-rule="nonzero" /><path id="236" transform="matrix(1 0 0 -1 0 842)" d="M148.6875 288.3848L223.5269 288.3848L223.5269 287.8906L148.6875 287.8906z" stroke="none" fill="#000000" fill-rule="nonzero" /><path id="237" transform="matrix(1 0 0 -1 0 842)" d="M148.6875 314.1582L149.1831 314.1582L149.1831 287.8906L148.6875 287.8906z" stroke="none" fill="#000000" fill-rule="nonzero" /><path id="238" transform="matrix(1 0 0 -1 0 842)" d="M223.0313 314.1582L223.5269 314.1582L223.5269 287.8906L223.0313 287.8906z" stroke="none" fill="#000000" fill-rule="nonzero" /><path id="239" transform="matrix(1 0 0 -1 0 842)" d="M223.0313 314.1582L273.0894 314.1582L273.0894 313.6621L223.0313 313.6621z" stroke="none" fill="#000000" fill-rule="nonzero" /><path id="240" transform="matrix(1 0 0 -1 0 842)" d="M223.0313 288.3848L273.0894 288.3848L273.0894 287.8906L223.0313 287.8906z" stroke="none" fill="#000000" fill-rule="nonzero" /><path id="241" transform="matrix(1 0 0 -1 0 842)" d="M223.0313 314.1582L223.5269 314.1582L223.5269 287.8906L223.0313 287.8906z" stroke="none" fill="#000000" fill-rule="nonzero" /><path id="242" transform="matrix(1 0 0 -1 0 842)" d="M272.5938 314.1582L273.0894 314.1582L273.0894 287.8906L272.5938 287.8906z" stroke="none" fill="#000000" fill-rule="nonzero" /><path id="243" transform="matrix(1 0 0 -1 0 842)" d="M272.5938 314.1582L421.7769 314.1582L421.7769 313.6621L272.5938 313.6621z" stroke="none" fill="#000000" fill-rule="nonzero" /><path id="244" transform="matrix(1 0 0 -1 0 842)" d="M272.5938 288.3848L421.7769 288.3848L421.7769 287.8906L272.5938 287.8906z" stroke="none" fill="#000000" fill-rule="nonzero" /><path id="245" transform="matrix(1 0 0 -1 0 842)" d="M272.5938 314.1582L273.0894 314.1582L273.0894 287.8906L272.5938 287.8906z" stroke="none" fill="#000000" fill-rule="nonzero" /><path id="246" transform="matrix(1 0 0 -1 0 842)" d="M421.2813 314.1582L421.7769 314.1582L421.7769 287.8906L421.2813 287.8906z" stroke="none" fill="#000000" fill-rule="nonzero" /><path id="247" transform="matrix(1 0 0 -1 0 842)" d="M421.2813 314.1582L471.3394 314.1582L471.3394 313.6621L421.2813 313.6621z" stroke="none" fill="#000000" fill-rule="nonzero" /><path id="248" transform="matrix(1 0 0 -1 0 842)" d="M421.2813 288.3848L471.3394 288.3848L471.3394 287.8906L421.2813 287.8906z" stroke="none" fill="#000000" fill-rule="nonzero" /><path id="249" transform="matrix(1 0 0 -1 0 842)" d="M421.2813 314.1582L421.7769 314.1582L421.7769 287.8906L421.2813 287.8906z" stroke="none" fill="#000000" fill-rule="nonzero" /><path id="250" transform="matrix(1 0 0 -1 0 842)" d="M470.8438 314.1582L471.3394 314.1582L471.3394 287.8906L470.8438 287.8906z" stroke="none" fill="#000000" fill-rule="nonzero" /><path id="251" transform="matrix(1 0 0 -1 0 842)" d="M470.8438 314.1582L545.1875 314.1582L545.1875 313.6621L470.8438 313.6621z" stroke="none" fill="#000000" fill-rule="nonzero" /><path id="252" transform="matrix(1 0 0 -1 0 842)" d="M470.8438 288.3848L545.1875 288.3848L545.1875 287.8906L470.8438 287.8906z" stroke="none" fill="#000000" fill-rule="nonzero" /><path id="253" transform="matrix(1 0 0 -1 0 842)" d="M470.8438 314.1582L471.3394 314.1582L471.3394 287.8906L470.8438 287.8906z" stroke="none" fill="#000000" fill-rule="nonzero" /><path id="254" transform="matrix(1 0 0 -1 0 842)" d="M544.6919 314.1582L545.1875 314.1582L545.1875 287.8906L544.6919 287.8906z" stroke="none" fill="#000000" fill-rule="nonzero" /><path id="255" transform="matrix(1 0 0 -1 0 842)" d="M49.5625 288.3848L74.83938 288.3848L74.83938 287.8906L49.5625 287.8906z" stroke="none" fill="#000000" fill-rule="nonzero" /><path id="256" transform="matrix(1 0 0 -1 0 842)" d="M49.5625 236.8398L74.83938 236.8398L74.83938 236.3457L49.5625 236.3457z" stroke="none" fill="#000000" fill-rule="nonzero" /><path id="257" transform="matrix(1 0 0 -1 0 842)" d="M49.5625 288.3848L50.05813 288.3848L50.05813 236.3457L49.5625 236.3457z" stroke="none" fill="#000000" fill-rule="nonzero" /><path id="258" transform="matrix(1 0 0 -1 0 842)" d="M74.34375 288.3848L74.83938 288.3848L74.83938 236.3457L74.34375 236.3457z" stroke="none" fill="#000000" fill-rule="nonzero" /><path id="259" transform="matrix(1 0 0 -1 0 842)" d="M74.34375 288.3848L149.1831 288.3848L149.1831 287.8906L74.34375 287.8906z" stroke="none" fill="#000000" fill-rule="nonzero" /><path id="260" transform="matrix(1 0 0 -1 0 842)" d="M74.34375 236.8398L149.1831 236.8398L149.1831 236.3457L74.34375 236.3457z" stroke="none" fill="#000000" fill-rule="nonzero" /><path id="261" transform="matrix(1 0 0 -1 0 842)" d="M74.34375 288.3848L74.83938 288.3848L74.83938 236.3457L74.34375 236.3457z" stroke="none" fill="#000000" fill-rule="nonzero" /><path id="262" transform="matrix(1 0 0 -1 0 842)" d="M148.6875 288.3848L149.1831 288.3848L149.1831 236.3457L148.6875 236.3457z" stroke="none" fill="#000000" fill-rule="nonzero" /><path id="263" transform="matrix(1 0 0 -1 0 842)" d="M148.6875 288.3848L223.5269 288.3848L223.5269 287.8906L148.6875 287.8906z" stroke="none" fill="#000000" fill-rule="nonzero" /><path id="264" transform="matrix(1 0 0 -1 0 842)" d="M148.6875 262.6133L223.5269 262.6133L223.5269 262.1172L148.6875 262.1172z" stroke="none" fill="#000000" fill-rule="nonzero" /><path id="265" transform="matrix(1 0 0 -1 0 842)" d="M148.6875 288.3848L149.1831 288.3848L149.1831 262.1172L148.6875 262.1172z" stroke="none" fill="#000000" fill-rule="nonzero" /><path id="266" transform="matrix(1 0 0 -1 0 842)" d="M223.0313 288.3848L223.5269 288.3848L223.5269 262.1172L223.0313 262.1172z" stroke="none" fill="#000000" fill-rule="nonzero" /><path id="267" transform="matrix(1 0 0 -1 0 842)" d="M223.0313 288.3848L273.0894 288.3848L273.0894 287.8906L223.0313 287.8906z" stroke="none" fill="#000000" fill-rule="nonzero" /><path id="268" transform="matrix(1 0 0 -1 0 842)" d="M223.0313 262.6133L273.0894 262.6133L273.0894 262.1172L223.0313 262.1172z" stroke="none" fill="#000000" fill-rule="nonzero" /><path id="269" transform="matrix(1 0 0 -1 0 842)" d="M223.0313 288.3848L223.5269 288.3848L223.5269 262.1172L223.0313 262.1172z" stroke="none" fill="#000000" fill-rule="nonzero" /><path id="270" transform="matrix(1 0 0 -1 0 842)" d="M272.5938 288.3848L273.0894 288.3848L273.0894 262.1172L272.5938 262.1172z" stroke="none" fill="#000000" fill-rule="nonzero" /><path id="271" transform="matrix(1 0 0 -1 0 842)" d="M272.5938 288.3848L421.7769 288.3848L421.7769 287.8906L272.5938 287.8906z" stroke="none" fill="#000000" fill-rule="nonzero" /><path id="272" transform="matrix(1 0 0 -1 0 842)" d="M272.5938 262.6133L421.7769 262.6133L421.7769 262.1172L272.5938 262.1172z" stroke="none" fill="#000000" fill-rule="nonzero" /><path id="273" transform="matrix(1 0 0 -1 0 842)" d="M272.5938 288.3848L273.0894 288.3848L273.0894 262.1172L272.5938 262.1172z" stroke="none" fill="#000000" fill-rule="nonzero" /><path id="274" transform="matrix(1 0 0 -1 0 842)" d="M421.2813 288.3848L421.7769 288.3848L421.7769 262.1172L421.2813 262.1172z" stroke="none" fill="#000000" fill-rule="nonzero" /><path id="275" transform="matrix(1 0 0 -1 0 842)" d="M421.2813 288.3848L471.3394 288.3848L471.3394 287.8906L421.2813 287.8906z" stroke="none" fill="#000000" fill-rule="nonzero" /><path id="276" transform="matrix(1 0 0 -1 0 842)" d="M421.2813 262.6133L471.3394 262.6133L471.3394 262.1172L421.2813 262.1172z" stroke="none" fill="#000000" fill-rule="nonzero" /><path id="277" transform="matrix(1 0 0 -1 0 842)" d="M421.2813 288.3848L421.7769 288.3848L421.7769 262.1172L421.2813 262.1172z" stroke="none" fill="#000000" fill-rule="nonzero" /><path id="278" transform="matrix(1 0 0 -1 0 842)" d="M470.8438 288.3848L471.3394 288.3848L471.3394 262.1172L470.8438 262.1172z" stroke="none" fill="#000000" fill-rule="nonzero" /><path id="279" transform="matrix(1 0 0 -1 0 842)" d="M470.8438 288.3848L545.1875 288.3848L545.1875 287.8906L470.8438 287.8906z" stroke="none" fill="#000000" fill-rule="nonzero" /><path id="280" transform="matrix(1 0 0 -1 0 842)" d="M470.8438 236.8398L545.1875 236.8398L545.1875 236.3457L470.8438 236.3457z" stroke="none" fill="#000000" fill-rule="nonzero" /><path id="281" transform="matrix(1 0 0 -1 0 842)" d="M470.8438 288.3848L471.3394 288.3848L471.3394 236.3457L470.8438 236.3457z" stroke="none" fill="#000000" fill-rule="nonzero" /><path id="282" transform="matrix(1 0 0 -1 0 842)" d="M544.6919 288.3848L545.1875 288.3848L545.1875 236.3457L544.6919 236.3457z" stroke="none" fill="#000000" fill-rule="nonzero" /><path id="283" transform="matrix(1 0 0 -1 0 842)" d="M148.6875 262.6133L223.5269 262.6133L223.5269 262.1172L148.6875 262.1172z" stroke="none" fill="#000000" fill-rule="nonzero" /><path id="284" transform="matrix(1 0 0 -1 0 842)" d="M148.6875 236.8398L223.5269 236.8398L223.5269 236.3457L148.6875 236.3457z" stroke="none" fill="#000000" fill-rule="nonzero" /><path id="285" transform="matrix(1 0 0 -1 0 842)" d="M148.6875 262.6133L149.1831 262.6133L149.1831 236.3457L148.6875 236.3457z" stroke="none" fill="#000000" fill-rule="nonzero" /><path id="286" transform="matrix(1 0 0 -1 0 842)" d="M223.0313 262.6133L223.5269 262.6133L223.5269 236.3457L223.0313 236.3457z" stroke="none" fill="#000000" fill-rule="nonzero" /><path id="287" transform="matrix(1 0 0 -1 0 842)" d="M223.0313 262.6133L273.0894 262.6133L273.0894 262.1172L223.0313 262.1172z" stroke="none" fill="#000000" fill-rule="nonzero" /><path id="288" transform="matrix(1 0 0 -1 0 842)" d="M223.0313 236.8398L273.0894 236.8398L273.0894 236.3457L223.0313 236.3457z" stroke="none" fill="#000000" fill-rule="nonzero" /><path id="289" transform="matrix(1 0 0 -1 0 842)" d="M223.0313 262.6133L223.5269 262.6133L223.5269 236.3457L223.0313 236.3457z" stroke="none" fill="#000000" fill-rule="nonzero" /><path id="290" transform="matrix(1 0 0 -1 0 842)" d="M272.5938 262.6133L273.0894 262.6133L273.0894 236.3457L272.5938 236.3457z" stroke="none" fill="#000000" fill-rule="nonzero" /><path id="291" transform="matrix(1 0 0 -1 0 842)" d="M272.5938 262.6133L421.7769 262.6133L421.7769 262.1172L272.5938 262.1172z" stroke="none" fill="#000000" fill-rule="nonzero" /><path id="292" transform="matrix(1 0 0 -1 0 842)" d="M272.5938 236.8398L421.7769 236.8398L421.7769 236.3457L272.5938 236.3457z" stroke="none" fill="#000000" fill-rule="nonzero" /><path id="293" transform="matrix(1 0 0 -1 0 842)" d="M272.5938 262.6133L273.0894 262.6133L273.0894 236.3457L272.5938 236.3457z" stroke="none" fill="#000000" fill-rule="nonzero" /><path id="294" transform="matrix(1 0 0 -1 0 842)" d="M421.2813 262.6133L421.7769 262.6133L421.7769 236.3457L421.2813 236.3457z" stroke="none" fill="#000000" fill-rule="nonzero" /><path id="295" transform="matrix(1 0 0 -1 0 842)" d="M421.2813 262.6133L471.3394 262.6133L471.3394 262.1172L421.2813 262.1172z" stroke="none" fill="#000000" fill-rule="nonzero" /><path id="296" transform="matrix(1 0 0 -1 0 842)" d="M421.2813 236.8398L471.3394 236.8398L471.3394 236.3457L421.2813 236.3457z" stroke="none" fill="#000000" fill-rule="nonzero" /><path id="297" transform="matrix(1 0 0 -1 0 842)" d="M421.2813 262.6133L421.7769 262.6133L421.7769 236.3457L421.2813 236.3457z" stroke="none" fill="#000000" fill-rule="nonzero" /><path id="298" transform="matrix(1 0 0 -1 0 842)" d="M470.8438 262.6133L471.3394 262.6133L471.3394 236.3457L470.8438 236.3457z" stroke="none" fill="#000000" fill-rule="nonzero" /><path id="299" transform="matrix(1 0 0 -1 0 842)" d="M49.5625 236.8398L74.83938 236.8398L74.83938 236.3457L49.5625 236.3457z" stroke="none" fill="#000000" fill-rule="nonzero" /><path id="300" transform="matrix(1 0 0 -1 0 842)" d="M49.5625 211.0684L74.83938 211.0684L74.83938 210.5723L49.5625 210.5723z" stroke="none" fill="#000000" fill-rule="nonzero" /><path id="301" transform="matrix(1 0 0 -1 0 842)" d="M49.5625 236.8398L50.05813 236.8398L50.05813 210.5723L49.5625 210.5723z" stroke="none" fill="#000000" fill-rule="nonzero" /><path id="302" transform="matrix(1 0 0 -1 0 842)" d="M74.34375 236.8398L74.83938 236.8398L74.83938 210.5723L74.34375 210.5723z" stroke="none" fill="#000000" fill-rule="nonzero" /><path id="303" transform="matrix(1 0 0 -1 0 842)" d="M74.34375 236.8398L149.1831 236.8398L149.1831 236.3457L74.34375 236.3457z" stroke="none" fill="#000000" fill-rule="nonzero" /><path id="304" transform="matrix(1 0 0 -1 0 842)" d="M74.34375 211.0684L149.1831 211.0684L149.1831 210.5723L74.34375 210.5723z" stroke="none" fill="#000000" fill-rule="nonzero" /><path id="305" transform="matrix(1 0 0 -1 0 842)" d="M74.34375 236.8398L74.83938 236.8398L74.83938 210.5723L74.34375 210.5723z" stroke="none" fill="#000000" fill-rule="nonzero" /><path id="306" transform="matrix(1 0 0 -1 0 842)" d="M148.6875 236.8398L149.1831 236.8398L149.1831 210.5723L148.6875 210.5723z" stroke="none" fill="#000000" fill-rule="nonzero" /><path id="307" transform="matrix(1 0 0 -1 0 842)" d="M148.6875 236.8398L223.5269 236.8398L223.5269 236.3457L148.6875 236.3457z" stroke="none" fill="#000000" fill-rule="nonzero" /><path id="308" transform="matrix(1 0 0 -1 0 842)" d="M148.6875 211.0684L223.5269 211.0684L223.5269 210.5723L148.6875 210.5723z" stroke="none" fill="#000000" fill-rule="nonzero" /><path id="309" transform="matrix(1 0 0 -1 0 842)" d="M148.6875 236.8398L149.1831 236.8398L149.1831 210.5723L148.6875 210.5723z" stroke="none" fill="#000000" fill-rule="nonzero" /><path id="310" transform="matrix(1 0 0 -1 0 842)" d="M223.0313 236.8398L223.5269 236.8398L223.5269 210.5723L223.0313 210.5723z" stroke="none" fill="#000000" fill-rule="nonzero" /><path id="311" transform="matrix(1 0 0 -1 0 842)" d="M223.0313 236.8398L273.0894 236.8398L273.0894 236.3457L223.0313 236.3457z" stroke="none" fill="#000000" fill-rule="nonzero" /><path id="312" transform="matrix(1 0 0 -1 0 842)" d="M223.0313 211.0684L273.0894 211.0684L273.0894 210.5723L223.0313 210.5723z" stroke="none" fill="#000000" fill-rule="nonzero" /><path id="313" transform="matrix(1 0 0 -1 0 842)" d="M223.0313 236.8398L223.5269 236.8398L223.5269 210.5723L223.0313 210.5723z" stroke="none" fill="#000000" fill-rule="nonzero" /><path id="314" transform="matrix(1 0 0 -1 0 842)" d="M272.5938 236.8398L273.0894 236.8398L273.0894 210.5723L272.5938 210.5723z" stroke="none" fill="#000000" fill-rule="nonzero" /><path id="315" transform="matrix(1 0 0 -1 0 842)" d="M272.5938 236.8398L421.7769 236.8398L421.7769 236.3457L272.5938 236.3457z" stroke="none" fill="#000000" fill-rule="nonzero" /><path id="316" transform="matrix(1 0 0 -1 0 842)" d="M272.5938 211.0684L421.7769 211.0684L421.7769 210.5723L272.5938 210.5723z" stroke="none" fill="#000000" fill-rule="nonzero" /><path id="317" transform="matrix(1 0 0 -1 0 842)" d="M272.5938 236.8398L273.0894 236.8398L273.0894 210.5723L272.5938 210.5723z" stroke="none" fill="#000000" fill-rule="nonzero" /><path id="318" transform="matrix(1 0 0 -1 0 842)" d="M421.2813 236.8398L421.7769 236.8398L421.7769 210.5723L421.2813 210.5723z" stroke="none" fill="#000000" fill-rule="nonzero" /><path id="319" transform="matrix(1 0 0 -1 0 842)" d="M421.2813 236.8398L471.3394 236.8398L471.3394 236.3457L421.2813 236.3457z" stroke="none" fill="#000000" fill-rule="nonzero" /><path id="320" transform="matrix(1 0 0 -1 0 842)" d="M421.2813 211.0684L471.3394 211.0684L471.3394 210.5723L421.2813 210.5723z" stroke="none" fill="#000000" fill-rule="nonzero" /><path id="321" transform="matrix(1 0 0 -1 0 842)" d="M421.2813 236.8398L421.7769 236.8398L421.7769 210.5723L421.2813 210.5723z" stroke="none" fill="#000000" fill-rule="nonzero" /><path id="322" transform="matrix(1 0 0 -1 0 842)" d="M470.8438 236.8398L471.3394 236.8398L471.3394 210.5723L470.8438 210.5723z" stroke="none" fill="#000000" fill-rule="nonzero" /><path id="323" transform="matrix(1 0 0 -1 0 842)" d="M470.8438 236.8398L545.1875 236.8398L545.1875 236.3457L470.8438 236.3457z" stroke="none" fill="#000000" fill-rule="nonzero" /><path id="324" transform="matrix(1 0 0 -1 0 842)" d="M470.8438 211.0684L545.1875 211.0684L545.1875 210.5723L470.8438 210.5723z" stroke="none" fill="#000000" fill-rule="nonzero" /><path id="325" transform="matrix(1 0 0 -1 0 842)" d="M470.8438 236.8398L471.3394 236.8398L471.3394 210.5723L470.8438 210.5723z" stroke="none" fill="#000000" fill-rule="nonzero" /><path id="326" transform="matrix(1 0 0 -1 0 842)" d="M544.6919 236.8398L545.1875 236.8398L545.1875 210.5723L544.6919 210.5723z" stroke="none" fill="#000000" fill-rule="nonzero" /><path id="327" transform="matrix(1 0 0 -1 0 842)" d="M49.5625 211.0684L74.83938 211.0684L74.83938 210.5723L49.5625 210.5723z" stroke="none" fill="#000000" fill-rule="nonzero" /><path id="328" transform="matrix(1 0 0 -1 0 842)" d="M49.5625 185.2949L74.83938 185.2949L74.83938 184.8008L49.5625 184.8008z" stroke="none" fill="#000000" fill-rule="nonzero" /><path id="329" transform="matrix(1 0 0 -1 0 842)" d="M49.5625 211.0684L50.05813 211.0684L50.05813 184.8008L49.5625 184.8008z" stroke="none" fill="#000000" fill-rule="nonzero" /><path id="330" transform="matrix(1 0 0 -1 0 842)" d="M74.34375 211.0684L74.83938 211.0684L74.83938 184.8008L74.34375 184.8008z" stroke="none" fill="#000000" fill-rule="nonzero" /><path id="331" transform="matrix(1 0 0 -1 0 842)" d="M74.34375 211.0684L149.1831 211.0684L149.1831 210.5723L74.34375 210.5723z" stroke="none" fill="#000000" fill-rule="nonzero" /><path id="332" transform="matrix(1 0 0 -1 0 842)" d="M74.34375 185.2949L149.1831 185.2949L149.1831 184.8008L74.34375 184.8008z" stroke="none" fill="#000000" fill-rule="nonzero" /><path id="333" transform="matrix(1 0 0 -1 0 842)" d="M74.34375 211.0684L74.83938 211.0684L74.83938 184.8008L74.34375 184.8008z" stroke="none" fill="#000000" fill-rule="nonzero" /><path id="334" transform="matrix(1 0 0 -1 0 842)" d="M148.6875 211.0684L149.1831 211.0684L149.1831 184.8008L148.6875 184.8008z" stroke="none" fill="#000000" fill-rule="nonzero" /><path id="335" transform="matrix(1 0 0 -1 0 842)" d="M148.6875 211.0684L223.5269 211.0684L223.5269 210.5723L148.6875 210.5723z" stroke="none" fill="#000000" fill-rule="nonzero" /><path id="336" transform="matrix(1 0 0 -1 0 842)" d="M148.6875 185.2949L223.5269 185.2949L223.5269 184.8008L148.6875 184.8008z" stroke="none" fill="#000000" fill-rule="nonzero" /><path id="337" transform="matrix(1 0 0 -1 0 842)" d="M148.6875 211.0684L149.1831 211.0684L149.1831 184.8008L148.6875 184.8008z" stroke="none" fill="#000000" fill-rule="nonzero" /><path id="338" transform="matrix(1 0 0 -1 0 842)" d="M223.0313 211.0684L223.5269 211.0684L223.5269 184.8008L223.0313 184.8008z" stroke="none" fill="#000000" fill-rule="nonzero" /><path id="339" transform="matrix(1 0 0 -1 0 842)" d="M223.0313 211.0684L273.0894 211.0684L273.0894 210.5723L223.0313 210.5723z" stroke="none" fill="#000000" fill-rule="nonzero" /><path id="340" transform="matrix(1 0 0 -1 0 842)" d="M223.0313 185.2949L273.0894 185.2949L273.0894 184.8008L223.0313 184.8008z" stroke="none" fill="#000000" fill-rule="nonzero" /><path id="341" transform="matrix(1 0 0 -1 0 842)" d="M223.0313 211.0684L223.5269 211.0684L223.5269 184.8008L223.0313 184.8008z" stroke="none" fill="#000000" fill-rule="nonzero" /><path id="342" transform="matrix(1 0 0 -1 0 842)" d="M272.5938 211.0684L273.0894 211.0684L273.0894 184.8008L272.5938 184.8008z" stroke="none" fill="#000000" fill-rule="nonzero" /><path id="343" transform="matrix(1 0 0 -1 0 842)" d="M272.5938 211.0684L421.7769 211.0684L421.7769 210.5723L272.5938 210.5723z" stroke="none" fill="#000000" fill-rule="nonzero" /><path id="344" transform="matrix(1 0 0 -1 0 842)" d="M272.5938 185.2949L421.7769 185.2949L421.7769 184.8008L272.5938 184.8008z" stroke="none" fill="#000000" fill-rule="nonzero" /><path id="345" transform="matrix(1 0 0 -1 0 842)" d="M272.5938 211.0684L273.0894 211.0684L273.0894 184.8008L272.5938 184.8008z" stroke="none" fill="#000000" fill-rule="nonzero" /><path id="346" transform="matrix(1 0 0 -1 0 842)" d="M421.2813 211.0684L421.7769 211.0684L421.7769 184.8008L421.2813 184.8008z" stroke="none" fill="#000000" fill-rule="nonzero" /><path id="347" transform="matrix(1 0 0 -1 0 842)" d="M421.2813 211.0684L471.3394 211.0684L471.3394 210.5723L421.2813 210.5723z" stroke="none" fill="#000000" fill-rule="nonzero" /><path id="348" transform="matrix(1 0 0 -1 0 842)" d="M421.2813 185.2949L471.3394 185.2949L471.3394 184.8008L421.2813 184.8008z" stroke="none" fill="#000000" fill-rule="nonzero" /><path id="349" transform="matrix(1 0 0 -1 0 842)" d="M421.2813 211.0684L421.7769 211.0684L421.7769 184.8008L421.2813 184.8008z" stroke="none" fill="#000000" fill-rule="nonzero" /><path id="350" transform="matrix(1 0 0 -1 0 842)" d="M470.8438 211.0684L471.3394 211.0684L471.3394 184.8008L470.8438 184.8008z" stroke="none" fill="#000000" fill-rule="nonzero" /><path id="351" transform="matrix(1 0 0 -1 0 842)" d="M470.8438 211.0684L545.1875 211.0684L545.1875 210.5723L470.8438 210.5723z" stroke="none" fill="#000000" fill-rule="nonzero" /><path id="352" transform="matrix(1 0 0 -1 0 842)" d="M470.8438 185.2949L545.1875 185.2949L545.1875 184.8008L470.8438 184.8008z" stroke="none" fill="#000000" fill-rule="nonzero" /><path id="353" transform="matrix(1 0 0 -1 0 842)" d="M470.8438 211.0684L471.3394 211.0684L471.3394 184.8008L470.8438 184.8008z" stroke="none" fill="#000000" fill-rule="nonzero" /><path id="354" transform="matrix(1 0 0 -1 0 842)" d="M544.6919 211.0684L545.1875 211.0684L545.1875 184.8008L544.6919 184.8008z" stroke="none" fill="#000000" fill-rule="nonzero" /><path id="355" transform="matrix(1 0 0 -1 0 842)" d="M49.5625 185.2949L74.83938 185.2949L74.83938 184.8008L49.5625 184.8008z" stroke="none" fill="#000000" fill-rule="nonzero" /><path id="356" transform="matrix(1 0 0 -1 0 842)" d="M49.5625 159.5234L74.83938 159.5234L74.83938 159.0273L49.5625 159.0273z" stroke="none" fill="#000000" fill-rule="nonzero" /><path id="357" transform="matrix(1 0 0 -1 0 842)" d="M49.5625 185.2949L50.05813 185.2949L50.05813 159.0273L49.5625 159.0273z" stroke="none" fill="#000000" fill-rule="nonzero" /><path id="358" transform="matrix(1 0 0 -1 0 842)" d="M74.34375 185.2949L74.83938 185.2949L74.83938 159.0273L74.34375 159.0273z" stroke="none" fill="#000000" fill-rule="nonzero" /><path id="359" transform="matrix(1 0 0 -1 0 842)" d="M74.34375 185.2949L149.1831 185.2949L149.1831 184.8008L74.34375 184.8008z" stroke="none" fill="#000000" fill-rule="nonzero" /><path id="360" transform="matrix(1 0 0 -1 0 842)" d="M74.34375 159.5234L149.1831 159.5234L149.1831 159.0273L74.34375 159.0273z" stroke="none" fill="#000000" fill-rule="nonzero" /><path id="361" transform="matrix(1 0 0 -1 0 842)" d="M74.34375 185.2949L74.83938 185.2949L74.83938 159.0273L74.34375 159.0273z" stroke="none" fill="#000000" fill-rule="nonzero" /><path id="362" transform="matrix(1 0 0 -1 0 842)" d="M148.6875 185.2949L149.1831 185.2949L149.1831 159.0273L148.6875 159.0273z" stroke="none" fill="#000000" fill-rule="nonzero" /><path id="363" transform="matrix(1 0 0 -1 0 842)" d="M148.6875 185.2949L223.5269 185.2949L223.5269 184.8008L148.6875 184.8008z" stroke="none" fill="#000000" fill-rule="nonzero" /><path id="364" transform="matrix(1 0 0 -1 0 842)" d="M148.6875 159.5234L223.5269 159.5234L223.5269 159.0273L148.6875 159.0273z" stroke="none" fill="#000000" fill-rule="nonzero" /><path id="365" transform="matrix(1 0 0 -1 0 842)" d="M148.6875 185.2949L149.1831 185.2949L149.1831 159.0273L148.6875 159.0273z" stroke="none" fill="#000000" fill-rule="nonzero" /><path id="366" transform="matrix(1 0 0 -1 0 842)" d="M223.0313 185.2949L223.5269 185.2949L223.5269 159.0273L223.0313 159.0273z" stroke="none" fill="#000000" fill-rule="nonzero" /><path id="367" transform="matrix(1 0 0 -1 0 842)" d="M223.0313 185.2949L273.0894 185.2949L273.0894 184.8008L223.0313 184.8008z" stroke="none" fill="#000000" fill-rule="nonzero" /><path id="368" transform="matrix(1 0 0 -1 0 842)" d="M223.0313 159.5234L273.0894 159.5234L273.0894 159.0273L223.0313 159.0273z" stroke="none" fill="#000000" fill-rule="nonzero" /><path id="369" transform="matrix(1 0 0 -1 0 842)" d="M223.0313 185.2949L223.5269 185.2949L223.5269 159.0273L223.0313 159.0273z" stroke="none" fill="#000000" fill-rule="nonzero" /><path id="370" transform="matrix(1 0 0 -1 0 842)" d="M272.5938 185.2949L273.0894 185.2949L273.0894 159.0273L272.5938 159.0273z" stroke="none" fill="#000000" fill-rule="nonzero" /><path id="371" transform="matrix(1 0 0 -1 0 842)" d="M272.5938 185.2949L421.7769 185.2949L421.7769 184.8008L272.5938 184.8008z" stroke="none" fill="#000000" fill-rule="nonzero" /><path id="372" transform="matrix(1 0 0 -1 0 842)" d="M272.5938 159.5234L421.7769 159.5234L421.7769 159.0273L272.5938 159.0273z" stroke="none" fill="#000000" fill-rule="nonzero" /><path id="373" transform="matrix(1 0 0 -1 0 842)" d="M272.5938 185.2949L273.0894 185.2949L273.0894 159.0273L272.5938 159.0273z" stroke="none" fill="#000000" fill-rule="nonzero" /><path id="374" transform="matrix(1 0 0 -1 0 842)" d="M421.2813 185.2949L421.7769 185.2949L421.7769 159.0273L421.2813 159.0273z" stroke="none" fill="#000000" fill-rule="nonzero" /><path id="375" transform="matrix(1 0 0 -1 0 842)" d="M421.2813 185.2949L471.3394 185.2949L471.3394 184.8008L421.2813 184.8008z" stroke="none" fill="#000000" fill-rule="nonzero" /><path id="376" transform="matrix(1 0 0 -1 0 842)" d="M421.2813 159.5234L471.3394 159.5234L471.3394 159.0273L421.2813 159.0273z" stroke="none" fill="#000000" fill-rule="nonzero" /><path id="377" transform="matrix(1 0 0 -1 0 842)" d="M421.2813 185.2949L421.7769 185.2949L421.7769 159.0273L421.2813 159.0273z" stroke="none" fill="#000000" fill-rule="nonzero" /><path id="378" transform="matrix(1 0 0 -1 0 842)" d="M470.8438 185.2949L471.3394 185.2949L471.3394 159.0273L470.8438 159.0273z" stroke="none" fill="#000000" fill-rule="nonzero" /><path id="379" transform="matrix(1 0 0 -1 0 842)" d="M470.8438 185.2949L545.1875 185.2949L545.1875 184.8008L470.8438 184.8008z" stroke="none" fill="#000000" fill-rule="nonzero" /><path id="380" transform="matrix(1 0 0 -1 0 842)" d="M470.8438 159.5234L545.1875 159.5234L545.1875 159.0273L470.8438 159.0273z" stroke="none" fill="#000000" fill-rule="nonzero" /><path id="381" transform="matrix(1 0 0 -1 0 842)" d="M470.8438 185.2949L471.3394 185.2949L471.3394 159.0273L470.8438 159.0273z" stroke="none" fill="#000000" fill-rule="nonzero" /><path id="382" transform="matrix(1 0 0 -1 0 842)" d="M544.6919 185.2949L545.1875 185.2949L545.1875 159.0273L544.6919 159.0273z" stroke="none" fill="#000000" fill-rule="nonzero" /><path id="383" transform="matrix(1 0 0 -1 0 842)" d="M49.5625 159.5234L74.83938 159.5234L74.83938 159.0273L49.5625 159.0273z" stroke="none" fill="#000000" fill-rule="nonzero" /><path id="384" transform="matrix(1 0 0 -1 0 842)" d="M49.5625 107.9785L74.83938 107.9785L74.83938 107.4824L49.5625 107.4824z" stroke="none" fill="#000000" fill-rule="nonzero" /><path id="385" transform="matrix(1 0 0 -1 0 842)" d="M49.5625 159.5234L50.05813 159.5234L50.05813 107.4824L49.5625 107.4824z" stroke="none" fill="#000000" fill-rule="nonzero" /><path id="386" transform="matrix(1 0 0 -1 0 842)" d="M74.34375 159.5234L74.83938 159.5234L74.83938 107.4824L74.34375 107.4824z" stroke="none" fill="#000000" fill-rule="nonzero" /><path id="387" transform="matrix(1 0 0 -1 0 842)" d="M74.34375 159.5234L149.1831 159.5234L149.1831 159.0273L74.34375 159.0273z" stroke="none" fill="#000000" fill-rule="nonzero" /><path id="388" transform="matrix(1 0 0 -1 0 842)" d="M74.34375 107.9785L149.1831 107.9785L149.1831 107.4824L74.34375 107.4824z" stroke="none" fill="#000000" fill-rule="nonzero" /><path id="389" transform="matrix(1 0 0 -1 0 842)" d="M74.34375 159.5234L74.83938 159.5234L74.83938 107.4824L74.34375 107.4824z" stroke="none" fill="#000000" fill-rule="nonzero" /><path id="390" transform="matrix(1 0 0 -1 0 842)" d="M148.6875 159.5234L149.1831 159.5234L149.1831 107.4824L148.6875 107.4824z" stroke="none" fill="#000000" fill-rule="nonzero" /><path id="391" transform="matrix(1 0 0 -1 0 842)" d="M148.6875 159.5234L223.5269 159.5234L223.5269 159.0273L148.6875 159.0273z" stroke="none" fill="#000000" fill-rule="nonzero" /><path id="392" transform="matrix(1 0 0 -1 0 842)" d="M148.6875 133.75L223.5269 133.75L223.5269 133.2559L148.6875 133.2559z" stroke="none" fill="#000000" fill-rule="nonzero" /><path id="393" transform="matrix(1 0 0 -1 0 842)" d="M148.6875 159.5234L149.1831 159.5234L149.1831 133.2559L148.6875 133.2559z" stroke="none" fill="#000000" fill-rule="nonzero" /><path id="394" transform="matrix(1 0 0 -1 0 842)" d="M223.0313 159.5234L223.5269 159.5234L223.5269 133.2559L223.0313 133.2559z" stroke="none" fill="#000000" fill-rule="nonzero" /><path id="395" transform="matrix(1 0 0 -1 0 842)" d="M223.0313 159.5234L273.0894 159.5234L273.0894 159.0273L223.0313 159.0273z" stroke="none" fill="#000000" fill-rule="nonzero" /><path id="396" transform="matrix(1 0 0 -1 0 842)" d="M223.0313 133.75L273.0894 133.75L273.0894 133.2559L223.0313 133.2559z" stroke="none" fill="#000000" fill-rule="nonzero" /><path id="397" transform="matrix(1 0 0 -1 0 842)" d="M223.0313 159.5234L223.5269 159.5234L223.5269 133.2559L223.0313 133.2559z" stroke="none" fill="#000000" fill-rule="nonzero" /><path id="398" transform="matrix(1 0 0 -1 0 842)" d="M272.5938 159.5234L273.0894 159.5234L273.0894 133.2559L272.5938 133.2559z" stroke="none" fill="#000000" fill-rule="nonzero" /><path id="399" transform="matrix(1 0 0 -1 0 842)" d="M272.5938 159.5234L421.7769 159.5234L421.7769 159.0273L272.5938 159.0273z" stroke="none" fill="#000000" fill-rule="nonzero" /><path id="400" transform="matrix(1 0 0 -1 0 842)" d="M272.5938 133.75L421.7769 133.75L421.7769 133.2559L272.5938 133.2559z" stroke="none" fill="#000000" fill-rule="nonzero" /><path id="401" transform="matrix(1 0 0 -1 0 842)" d="M272.5938 159.5234L273.0894 159.5234L273.0894 133.2559L272.5938 133.2559z" stroke="none" fill="#000000" fill-rule="nonzero" /><path id="402" transform="matrix(1 0 0 -1 0 842)" d="M421.2813 159.5234L421.7769 159.5234L421.7769 133.2559L421.2813 133.2559z" stroke="none" fill="#000000" fill-rule="nonzero" /><path id="403" transform="matrix(1 0 0 -1 0 842)" d="M421.2813 159.5234L471.3394 159.5234L471.3394 159.0273L421.2813 159.0273z" stroke="none" fill="#000000" fill-rule="nonzero" /><path id="404" transform="matrix(1 0 0 -1 0 842)" d="M421.2813 133.75L471.3394 133.75L471.3394 133.2559L421.2813 133.2559z" stroke="none" fill="#000000" fill-rule="nonzero" /><path id="405" transform="matrix(1 0 0 -1 0 842)" d="M421.2813 159.5234L421.7769 159.5234L421.7769 133.2559L421.2813 133.2559z" stroke="none" fill="#000000" fill-rule="nonzero" /><path id="406" transform="matrix(1 0 0 -1 0 842)" d="M470.8438 159.5234L471.3394 159.5234L471.3394 133.2559L470.8438 133.2559z" stroke="none" fill="#000000" fill-rule="nonzero" /><path id="407" transform="matrix(1 0 0 -1 0 842)" d="M470.8438 159.5234L545.1875 159.5234L545.1875 159.0273L470.8438 159.0273z" stroke="none" fill="#000000" fill-rule="nonzero" /><path id="408" transform="matrix(1 0 0 -1 0 842)" d="M470.8438 107.9785L545.1875 107.9785L545.1875 107.4824L470.8438 107.4824z" stroke="none" fill="#000000" fill-rule="nonzero" /><path id="409" transform="matrix(1 0 0 -1 0 842)" d="M470.8438 159.5234L471.3394 159.5234L471.3394 107.4824L470.8438 107.4824z" stroke="none" fill="#000000" fill-rule="nonzero" /><path id="410" transform="matrix(1 0 0 -1 0 842)" d="M544.6919 159.5234L545.1875 159.5234L545.1875 107.4824L544.6919 107.4824z" stroke="none" fill="#000000" fill-rule="nonzero" /><path id="411" transform="matrix(1 0 0 -1 0 842)" d="M148.6875 133.75L223.5269 133.75L223.5269 133.2559L148.6875 133.2559z" stroke="none" fill="#000000" fill-rule="nonzero" /><path id="412" transform="matrix(1 0 0 -1 0 842)" d="M148.6875 107.9785L223.5269 107.9785L223.5269 107.4824L148.6875 107.4824z" stroke="none" fill="#000000" fill-rule="nonzero" /><path id="413" transform="matrix(1 0 0 -1 0 842)" d="M148.6875 133.75L149.1831 133.75L149.1831 107.4824L148.6875 107.4824z" stroke="none" fill="#000000" fill-rule="nonzero" /><path id="414" transform="matrix(1 0 0 -1 0 842)" d="M223.0313 133.75L223.5269 133.75L223.5269 107.4824L223.0313 107.4824z" stroke="none" fill="#000000" fill-rule="nonzero" /><path id="415" transform="matrix(1 0 0 -1 0 842)" d="M223.0313 133.75L273.0894 133.75L273.0894 133.2559L223.0313 133.2559z" stroke="none" fill="#000000" fill-rule="nonzero" /><path id="416" transform="matrix(1 0 0 -1 0 842)" d="M223.0313 107.9785L273.0894 107.9785L273.0894 107.4824L223.0313 107.4824z" stroke="none" fill="#000000" fill-rule="nonzero" /><path id="417" transform="matrix(1 0 0 -1 0 842)" d="M223.0313 133.75L223.5269 133.75L223.5269 107.4824L223.0313 107.4824z" stroke="none" fill="#000000" fill-rule="nonzero" /><path id="418" transform="matrix(1 0 0 -1 0 842)" d="M272.5938 133.75L273.0894 133.75L273.0894 107.4824L272.5938 107.4824z" stroke="none" fill="#000000" fill-rule="nonzero" /><path id="419" transform="matrix(1 0 0 -1 0 842)" d="M272.5938 133.75L421.7769 133.75L421.7769 133.2559L272.5938 133.2559z" stroke="none" fill="#000000" fill-rule="nonzero" /><path id="420" transform="matrix(1 0 0 -1 0 842)" d="M272.5938 107.9785L421.7769 107.9785L421.7769 107.4824L272.5938 107.4824z" stroke="none" fill="#000000" fill-rule="nonzero" /><path id="421" transform="matrix(1 0 0 -1 0 842)" d="M272.5938 133.75L273.0894 133.75L273.0894 107.4824L272.5938 107.4824z" stroke="none" fill="#000000" fill-rule="nonzero" /><path id="422" transform="matrix(1 0 0 -1 0 842)" d="M421.2813 133.75L421.7769 133.75L421.7769 107.4824L421.2813 107.4824z" stroke="none" fill="#000000" fill-rule="nonzero" /><path id="423" transform="matrix(1 0 0 -1 0 842)" d="M421.2813 133.75L471.3394 133.75L471.3394 133.2559L421.2813 133.2559z" stroke="none" fill="#000000" fill-rule="nonzero" /><path id="424" transform="matrix(1 0 0 -1 0 842)" d="M421.2813 107.9785L471.3394 107.9785L471.3394 107.4824L421.2813 107.4824z" stroke="none" fill="#000000" fill-rule="nonzero" /><path id="425" transform="matrix(1 0 0 -1 0 842)" d="M421.2813 133.75L421.7769 133.75L421.7769 107.4824L421.2813 107.4824z" stroke="none" fill="#000000" fill-rule="nonzero" /><path id="426" transform="matrix(1 0 0 -1 0 842)" d="M470.8438 133.75L471.3394 133.75L471.3394 107.4824L470.8438 107.4824z" stroke="none" fill="#000000" fill-rule="nonzero" /><path id="427" transform="matrix(1 0 0 -1 0 842)" d="M49.5625 107.9785L74.83938 107.9785L74.83938 107.4824L49.5625 107.4824z" stroke="none" fill="#000000" fill-rule="nonzero" /><path id="428" transform="matrix(1 0 0 -1 0 842)" d="M49.5625 82.20508L74.83938 82.20508L74.83938 81.70898L49.5625 81.70898z" stroke="none" fill="#000000" fill-rule="nonzero" /><path id="429" transform="matrix(1 0 0 -1 0 842)" d="M49.5625 107.9785L50.05813 107.9785L50.05813 81.70898L49.5625 81.70898z" stroke="none" fill="#000000" fill-rule="nonzero" /><path id="430" transform="matrix(1 0 0 -1 0 842)" d="M74.34375 107.9785L74.83938 107.9785L74.83938 81.70898L74.34375 81.70898z" stroke="none" fill="#000000" fill-rule="nonzero" /><path id="431" transform="matrix(1 0 0 -1 0 842)" d="M74.34375 107.9785L149.1831 107.9785L149.1831 107.4824L74.34375 107.4824z" stroke="none" fill="#000000" fill-rule="nonzero" /><path id="432" transform="matrix(1 0 0 -1 0 842)" d="M74.34375 82.20508L149.1831 82.20508L149.1831 81.70898L74.34375 81.70898z" stroke="none" fill="#000000" fill-rule="nonzero" /><path id="433" transform="matrix(1 0 0 -1 0 842)" d="M74.34375 107.9785L74.83938 107.9785L74.83938 81.70898L74.34375 81.70898z" stroke="none" fill="#000000" fill-rule="nonzero" /><path id="434" transform="matrix(1 0 0 -1 0 842)" d="M148.6875 107.9785L149.1831 107.9785L149.1831 81.70898L148.6875 81.70898z" stroke="none" fill="#000000" fill-rule="nonzero" /><path id="435" transform="matrix(1 0 0 -1 0 842)" d="M148.6875 107.9785L223.5269 107.9785L223.5269 107.4824L148.6875 107.4824z" stroke="none" fill="#000000" fill-rule="nonzero" /><path id="436" transform="matrix(1 0 0 -1 0 842)" d="M148.6875 82.20508L223.5269 82.20508L223.5269 81.70898L148.6875 81.70898z" stroke="none" fill="#000000" fill-rule="nonzero" /><path id="437" transform="matrix(1 0 0 -1 0 842)" d="M148.6875 107.9785L149.1831 107.9785L149.1831 81.70898L148.6875 81.70898z" stroke="none" fill="#000000" fill-rule="nonzero" /><path id="438" transform="matrix(1 0 0 -1 0 842)" d="M223.0313 107.9785L223.5269 107.9785L223.5269 81.70898L223.0313 81.70898z" stroke="none" fill="#000000" fill-rule="nonzero" /><path id="439" transform="matrix(1 0 0 -1 0 842)" d="M223.0313 107.9785L273.0894 107.9785L273.0894 107.4824L223.0313 107.4824z" stroke="none" fill="#000000" fill-rule="nonzero" /><path id="440" transform="matrix(1 0 0 -1 0 842)" d="M223.0313 82.20508L273.0894 82.20508L273.0894 81.70898L223.0313 81.70898z" stroke="none" fill="#000000" fill-rule="nonzero" /><path id="441" transform="matrix(1 0 0 -1 0 842)" d="M223.0313 107.9785L223.5269 107.9785L223.5269 81.70898L223.0313 81.70898z" stroke="none" fill="#000000" fill-rule="nonzero" /><path id="442" transform="matrix(1 0 0 -1 0 842)" d="M272.5938 107.9785L273.0894 107.9785L273.0894 81.70898L272.5938 81.70898z" stroke="none" fill="#000000" fill-rule="nonzero" /><path id="443" transform="matrix(1 0 0 -1 0 842)" d="M272.5938 107.9785L421.7769 107.9785L421.7769 107.4824L272.5938 107.4824z" stroke="none" fill="#000000" fill-rule="nonzero" /><path id="444" transform="matrix(1 0 0 -1 0 842)" d="M272.5938 82.20508L421.7769 82.20508L421.7769 81.70898L272.5938 81.70898z" stroke="none" fill="#000000" fill-rule="nonzero" /><path id="445" transform="matrix(1 0 0 -1 0 842)" d="M272.5938 107.9785L273.0894 107.9785L273.0894 81.70898L272.5938 81.70898z" stroke="none" fill="#000000" fill-rule="nonzero" /><path id="446" transform="matrix(1 0 0 -1 0 842)" d="M421.2813 107.9785L421.7769 107.9785L421.7769 81.70898L421.2813 81.70898z" stroke="none" fill="#000000" fill-rule="nonzero" /><path id="447" transform="matrix(1 0 0 -1 0 842)" d="M421.2813 107.9785L471.3394 107.9785L471.3394 107.4824L421.2813 107.4824z" stroke="none" fill="#000000" fill-rule="nonzero" /><path id="448" transform="matrix(1 0 0 -1 0 842)" d="M421.2813 82.20508L471.3394 82.20508L471.3394 81.70898L421.2813 81.70898z" stroke="none" fill="#000000" fill-rule="nonzero" /><path id="449" transform="matrix(1 0 0 -1 0 842)" d="M421.2813 107.9785L421.7769 107.9785L421.7769 81.70898L421.2813 81.70898z" stroke="none" fill="#000000" fill-rule="nonzero" /><path id="450" transform="matrix(1 0 0 -1 0 842)" d="M470.8438 107.9785L471.3394 107.9785L471.3394 81.70898L470.8438 81.70898z" stroke="none" fill="#000000" fill-rule="nonzero" /><path id="451" transform="matrix(1 0 0 -1 0 842)" d="M470.8438 107.9785L545.1875 107.9785L545.1875 107.4824L470.8438 107.4824z" stroke="none" fill="#000000" fill-rule="nonzero" /><path id="452" transform="matrix(1 0 0 -1 0 842)" d="M470.8438 82.20508L545.1875 82.20508L545.1875 81.70898L470.8438 81.70898z" stroke="none" fill="#000000" fill-rule="nonzero" /><path id="453" transform="matrix(1 0 0 -1 0 842)" d="M470.8438 107.9785L471.3394 107.9785L471.3394 81.70898L470.8438 81.70898z" stroke="none" fill="#000000" fill-rule="nonzero" /><path id="454" transform="matrix(1 0 0 -1 0 842)" d="M544.6919 107.9785L545.1875 107.9785L545.1875 81.70898L544.6919 81.70898z" stroke="none" fill="#000000" fill-rule="nonzero" /></g></g></g></svg>