<svg xmlns="http://www.w3.org/2000/svg" xmlns:xlink="http://www.w3.org/1999/xlink" id="body_25" preserveAspectRatio="xMinYMin meet" viewBox="0 0 793 1123"><defs><clipPath id="1"><path id="" clip-rule="evenodd" transform="matrix(1 0 0 1 0 0)" d="M0 842L0 0L0 0L595 0L595 0L595 842L595 842L0 842z" /></clipPath><clipPath id="2"><path id="" clip-rule="evenodd" transform="matrix(1 0 0 1 0 0)" d="M0 0L594.75 0L594.75 0L594.75 842.0669L594.75 842.0669L0 842.0669L0 842.0669L0 0z" /></clipPath></defs><g transform="matrix(1.333333 0 0 1.333333 0 0)"><g clip-path="url(#1)"><g clip-path="url(#2)"><path id="1" transform="matrix(1 0 0 -1 0 842)" d="M0 842L594.75 842L594.75 -0.06640625L0 -0.06640625z" stroke="none" fill="#FFFFFF" fill-rule="nonzero" /><path id="2" transform="matrix(1 0 0 -1 0 842)" d="M49.5625 721.0664L74.34375 721.0664L74.34375 695.2949L49.5625 695.2949z" stroke="none" fill="#9CC9F0" fill-rule="nonzero" /><path id="3" transform="matrix(1 0 0 -1 0 842)" d="M74.34375 721.0664L148.6875 721.0664L148.6875 695.2949L74.34375 695.2949z" stroke="none" fill="#9CC9F0" fill-rule="nonzero" /><path id="4" transform="matrix(1 0 0 -1 0 842)" d="M148.6875 721.0664L223.0313 721.0664L223.0313 695.2949L148.6875 695.2949z" stroke="none" fill="#9CC9F0" fill-rule="nonzero" /><path id="5" transform="matrix(1 0 0 -1 0 842)" d="M223.0313 721.0664L272.5938 721.0664L272.5938 695.2949L223.0313 695.2949z" stroke="none" fill="#9CC9F0" fill-rule="nonzero" /><path id="6" transform="matrix(1 0 0 -1 0 842)" d="M272.5938 721.0664L421.2813 721.0664L421.2813 695.2949L272.5938 695.2949z" stroke="none" fill="#9CC9F0" fill-rule="nonzero" /><path id="7" transform="matrix(1 0 0 -1 0 842)" d="M421.2813 721.0664L470.8438 721.0664L470.8438 695.2949L421.2813 695.2949z" stroke="none" fill="#9CC9F0" fill-rule="nonzero" /><path id="8" transform="matrix(1 0 0 -1 0 842)" d="M470.8438 721.0664L544.6919 721.0664L544.6919 695.2949L470.8438 695.2949z" stroke="none" fill="#9CC9F0" fill-rule="nonzero" /><path id="9" transform="matrix(1 0 0 -1 0 842)" d="M49.5625 721.0664L74.83938 721.0664L74.83938 720.5723L49.5625 720.5723z" stroke="none" fill="#000000" fill-rule="nonzero" /><path id="10" transform="matrix(1 0 0 -1 0 842)" d="M49.5625 695.2949L74.83938 695.2949L74.83938 694.7988L49.5625 694.7988z" stroke="none" fill="#000000" fill-rule="nonzero" /><path id="11" transform="matrix(1 0 0 -1 0 842)" d="M49.5625 721.0664L50.05813 721.0664L50.05813 694.7988L49.5625 694.7988z" stroke="none" fill="#000000" fill-rule="nonzero" /><path id="12" transform="matrix(1 0 0 -1 0 842)" d="M74.34375 721.0664L74.83938 721.0664L74.83938 694.7988L74.34375 694.7988z" stroke="none" fill="#000000" fill-rule="nonzero" /><path id="13" transform="matrix(1 0 0 -1 0 842)" d="M74.34375 721.0664L149.1831 721.0664L149.1831 720.5723L74.34375 720.5723z" stroke="none" fill="#000000" fill-rule="nonzero" /><path id="14" transform="matrix(1 0 0 -1 0 842)" d="M74.34375 695.2949L149.1831 695.2949L149.1831 694.7988L74.34375 694.7988z" stroke="none" fill="#000000" fill-rule="nonzero" /><path id="15" transform="matrix(1 0 0 -1 0 842)" d="M74.34375 721.0664L74.83938 721.0664L74.83938 694.7988L74.34375 694.7988z" stroke="none" fill="#000000" fill-rule="nonzero" /><path id="16" transform="matrix(1 0 0 -1 0 842)" d="M148.6875 721.0664L149.1831 721.0664L149.1831 694.7988L148.6875 694.7988z" stroke="none" fill="#000000" fill-rule="nonzero" /><path id="17" transform="matrix(1 0 0 -1 0 842)" d="M148.6875 721.0664L223.5269 721.0664L223.5269 720.5723L148.6875 720.5723z" stroke="none" fill="#000000" fill-rule="nonzero" /><path id="18" transform="matrix(1 0 0 -1 0 842)" d="M148.6875 695.2949L223.5269 695.2949L223.5269 694.7988L148.6875 694.7988z" stroke="none" fill="#000000" fill-rule="nonzero" /><path id="19" transform="matrix(1 0 0 -1 0 842)" d="M148.6875 721.0664L149.1831 721.0664L149.1831 694.7988L148.6875 694.7988z" stroke="none" fill="#000000" fill-rule="nonzero" /><path id="20" transform="matrix(1 0 0 -1 0 842)" d="M223.0313 721.0664L223.5269 721.0664L223.5269 694.7988L223.0313 694.7988z" stroke="none" fill="#000000" fill-rule="nonzero" /><path id="21" transform="matrix(1 0 0 -1 0 842)" d="M223.0313 721.0664L273.0894 721.0664L273.0894 720.5723L223.0313 720.5723z" stroke="none" fill="#000000" fill-rule="nonzero" /><path id="22" transform="matrix(1 0 0 -1 0 842)" d="M223.0313 695.2949L273.0894 695.2949L273.0894 694.7988L223.0313 694.7988z" stroke="none" fill="#000000" fill-rule="nonzero" /><path id="23" transform="matrix(1 0 0 -1 0 842)" d="M223.0313 721.0664L223.5269 721.0664L223.5269 694.7988L223.0313 694.7988z" stroke="none" fill="#000000" fill-rule="nonzero" /><path id="24" transform="matrix(1 0 0 -1 0 842)" d="M272.5938 721.0664L273.0894 721.0664L273.0894 694.7988L272.5938 694.7988z" stroke="none" fill="#000000" fill-rule="nonzero" /><path id="25" transform="matrix(1 0 0 -1 0 842)" d="M272.5938 721.0664L421.7769 721.0664L421.7769 720.5723L272.5938 720.5723z" stroke="none" fill="#000000" fill-rule="nonzero" /><path id="26" transform="matrix(1 0 0 -1 0 842)" d="M272.5938 695.2949L421.7769 695.2949L421.7769 694.7988L272.5938 694.7988z" stroke="none" fill="#000000" fill-rule="nonzero" /><path id="27" transform="matrix(1 0 0 -1 0 842)" d="M272.5938 721.0664L273.0894 721.0664L273.0894 694.7988L272.5938 694.7988z" stroke="none" fill="#000000" fill-rule="nonzero" /><path id="28" transform="matrix(1 0 0 -1 0 842)" d="M421.2813 721.0664L421.7769 721.0664L421.7769 694.7988L421.2813 694.7988z" stroke="none" fill="#000000" fill-rule="nonzero" /><path id="29" transform="matrix(1 0 0 -1 0 842)" d="M421.2813 721.0664L471.3394 721.0664L471.3394 720.5723L421.2813 720.5723z" stroke="none" fill="#000000" fill-rule="nonzero" /><path id="30" transform="matrix(1 0 0 -1 0 842)" d="M421.2813 695.2949L471.3394 695.2949L471.3394 694.7988L421.2813 694.7988z" stroke="none" fill="#000000" fill-rule="nonzero" /><path id="31" transform="matrix(1 0 0 -1 0 842)" d="M421.2813 721.0664L421.7769 721.0664L421.7769 694.7988L421.2813 694.7988z" stroke="none" fill="#000000" fill-rule="nonzero" /><path id="32" transform="matrix(1 0 0 -1 0 842)" d="M470.8438 721.0664L471.3394 721.0664L471.3394 694.7988L470.8438 694.7988z" stroke="none" fill="#000000" fill-rule="nonzero" /><path id="33" transform="matrix(1 0 0 -1 0 842)" d="M470.8438 721.0664L545.1875 721.0664L545.1875 720.5723L470.8438 720.5723z" stroke="none" fill="#000000" fill-rule="nonzero" /><path id="34" transform="matrix(1 0 0 -1 0 842)" d="M470.8438 695.2949L545.1875 695.2949L545.1875 694.7988L470.8438 694.7988z" stroke="none" fill="#000000" fill-rule="nonzero" /><path id="35" transform="matrix(1 0 0 -1 0 842)" d="M470.8438 721.0664L471.3394 721.0664L471.3394 694.7988L470.8438 694.7988z" stroke="none" fill="#000000" fill-rule="nonzero" /><path id="36" transform="matrix(1 0 0 -1 0 842)" d="M544.6919 721.0664L545.1875 721.0664L545.1875 694.7988L544.6919 694.7988z" stroke="none" fill="#000000" fill-rule="nonzero" /><path id="37" transform="matrix(1 0 0 -1 0 842)" d="M49.5625 695.2949L74.83938 695.2949L74.83938 694.7988L49.5625 694.7988z" stroke="none" fill="#000000" fill-rule="nonzero" /><path id="38" transform="matrix(1 0 0 -1 0 842)" d="M49.5625 647.7148L74.83938 647.7148L74.83938 647.2188L49.5625 647.2188z" stroke="none" fill="#000000" fill-rule="nonzero" /><path id="39" transform="matrix(1 0 0 -1 0 842)" d="M49.5625 695.2949L50.05813 695.2949L50.05813 647.2188L49.5625 647.2188z" stroke="none" fill="#000000" fill-rule="nonzero" /><path id="40" transform="matrix(1 0 0 -1 0 842)" d="M74.34375 695.2949L74.83938 695.2949L74.83938 647.2188L74.34375 647.2188z" stroke="none" fill="#000000" fill-rule="nonzero" /><path id="41" transform="matrix(1 0 0 -1 0 842)" d="M74.34375 695.2949L149.1831 695.2949L149.1831 694.7988L74.34375 694.7988z" stroke="none" fill="#000000" fill-rule="nonzero" /><path id="42" transform="matrix(1 0 0 -1 0 842)" d="M74.34375 647.7148L149.1831 647.7148L149.1831 647.2188L74.34375 647.2188z" stroke="none" fill="#000000" fill-rule="nonzero" /><path id="43" transform="matrix(1 0 0 -1 0 842)" d="M74.34375 695.2949L74.83938 695.2949L74.83938 647.2188L74.34375 647.2188z" stroke="none" fill="#000000" fill-rule="nonzero" /><path id="44" transform="matrix(1 0 0 -1 0 842)" d="M148.6875 695.2949L149.1831 695.2949L149.1831 647.2188L148.6875 647.2188z" stroke="none" fill="#000000" fill-rule="nonzero" /><path id="45" transform="matrix(1 0 0 -1 0 842)" d="M148.6875 695.2949L223.5269 695.2949L223.5269 694.7988L148.6875 694.7988z" stroke="none" fill="#000000" fill-rule="nonzero" /><path id="46" transform="matrix(1 0 0 -1 0 842)" d="M148.6875 647.7148L223.5269 647.7148L223.5269 647.2188L148.6875 647.2188z" stroke="none" fill="#000000" fill-rule="nonzero" /><path id="47" transform="matrix(1 0 0 -1 0 842)" d="M148.6875 695.2949L149.1831 695.2949L149.1831 647.2188L148.6875 647.2188z" stroke="none" fill="#000000" fill-rule="nonzero" /><path id="48" transform="matrix(1 0 0 -1 0 842)" d="M223.0313 695.2949L223.5269 695.2949L223.5269 647.2188L223.0313 647.2188z" stroke="none" fill="#000000" fill-rule="nonzero" /><path id="49" transform="matrix(1 0 0 -1 0 842)" d="M223.0313 695.2949L273.0894 695.2949L273.0894 694.7988L223.0313 694.7988z" stroke="none" fill="#000000" fill-rule="nonzero" /><path id="50" transform="matrix(1 0 0 -1 0 842)" d="M223.0313 647.7148L273.0894 647.7148L273.0894 647.2188L223.0313 647.2188z" stroke="none" fill="#000000" fill-rule="nonzero" /><path id="51" transform="matrix(1 0 0 -1 0 842)" d="M223.0313 695.2949L223.5269 695.2949L223.5269 647.2188L223.0313 647.2188z" stroke="none" fill="#000000" fill-rule="nonzero" /><path id="52" transform="matrix(1 0 0 -1 0 842)" d="M272.5938 695.2949L273.0894 695.2949L273.0894 647.2188L272.5938 647.2188z" stroke="none" fill="#000000" fill-rule="nonzero" /><path id="53" transform="matrix(1 0 0 -1 0 842)" d="M272.5938 695.2949L421.7769 695.2949L421.7769 694.7988L272.5938 694.7988z" stroke="none" fill="#000000" fill-rule="nonzero" /><path id="54" transform="matrix(1 0 0 -1 0 842)" d="M272.5938 647.7148L421.7769 647.7148L421.7769 647.2188L272.5938 647.2188z" stroke="none" fill="#000000" fill-rule="nonzero" /><path id="55" transform="matrix(1 0 0 -1 0 842)" d="M272.5938 695.2949L273.0894 695.2949L273.0894 647.2188L272.5938 647.2188z" stroke="none" fill="#000000" fill-rule="nonzero" /><path id="56" transform="matrix(1 0 0 -1 0 842)" d="M421.2813 695.2949L421.7769 695.2949L421.7769 647.2188L421.2813 647.2188z" stroke="none" fill="#000000" fill-rule="nonzero" /><path id="57" transform="matrix(1 0 0 -1 0 842)" d="M421.2813 695.2949L471.3394 695.2949L471.3394 694.7988L421.2813 694.7988z" stroke="none" fill="#000000" fill-rule="nonzero" /><path id="58" transform="matrix(1 0 0 -1 0 842)" d="M421.2813 647.7148L471.3394 647.7148L471.3394 647.2188L421.2813 647.2188z" stroke="none" fill="#000000" fill-rule="nonzero" /><path id="59" transform="matrix(1 0 0 -1 0 842)" d="M421.2813 695.2949L421.7769 695.2949L421.7769 647.2188L421.2813 647.2188z" stroke="none" fill="#000000" fill-rule="nonzero" /><path id="60" transform="matrix(1 0 0 -1 0 842)" d="M470.8438 695.2949L471.3394 695.2949L471.3394 647.2188L470.8438 647.2188z" stroke="none" fill="#000000" fill-rule="nonzero" /><path id="61" transform="matrix(1 0 0 -1 0 842)" d="M470.8438 695.2949L545.1875 695.2949L545.1875 694.7988L470.8438 694.7988z" stroke="none" fill="#000000" fill-rule="nonzero" /><path id="62" transform="matrix(1 0 0 -1 0 842)" d="M470.8438 647.7148L545.1875 647.7148L545.1875 647.2188L470.8438 647.2188z" stroke="none" fill="#000000" fill-rule="nonzero" /><path id="63" transform="matrix(1 0 0 -1 0 842)" d="M470.8438 695.2949L471.3394 695.2949L471.3394 647.2188L470.8438 647.2188z" stroke="none" fill="#000000" fill-rule="nonzero" /><path id="64" transform="matrix(1 0 0 -1 0 842)" d="M544.6919 695.2949L545.1875 695.2949L545.1875 647.2188L544.6919 647.2188z" stroke="none" fill="#000000" fill-rule="nonzero" /><path id="65" transform="matrix(1 0 0 -1 0 842)" d="M49.5625 647.7148L74.83938 647.7148L74.83938 647.2188L49.5625 647.2188z" stroke="none" fill="#000000" fill-rule="nonzero" /><path id="66" transform="matrix(1 0 0 -1 0 842)" d="M49.5625 600.1348L74.83938 600.1348L74.83938 599.6387L49.5625 599.6387z" stroke="none" fill="#000000" fill-rule="nonzero" /><path id="67" transform="matrix(1 0 0 -1 0 842)" d="M49.5625 647.7148L50.05813 647.7148L50.05813 599.6387L49.5625 599.6387z" stroke="none" fill="#000000" fill-rule="nonzero" /><path id="68" transform="matrix(1 0 0 -1 0 842)" d="M74.34375 647.7148L74.83938 647.7148L74.83938 599.6387L74.34375 599.6387z" stroke="none" fill="#000000" fill-rule="nonzero" /><path id="69" transform="matrix(1 0 0 -1 0 842)" d="M74.34375 647.7148L149.1831 647.7148L149.1831 647.2188L74.34375 647.2188z" stroke="none" fill="#000000" fill-rule="nonzero" /><path id="70" transform="matrix(1 0 0 -1 0 842)" d="M74.34375 600.1348L149.1831 600.1348L149.1831 599.6387L74.34375 599.6387z" stroke="none" fill="#000000" fill-rule="nonzero" /><path id="71" transform="matrix(1 0 0 -1 0 842)" d="M74.34375 647.7148L74.83938 647.7148L74.83938 599.6387L74.34375 599.6387z" stroke="none" fill="#000000" fill-rule="nonzero" /><path id="72" transform="matrix(1 0 0 -1 0 842)" d="M148.6875 647.7148L149.1831 647.7148L149.1831 599.6387L148.6875 599.6387z" stroke="none" fill="#000000" fill-rule="nonzero" /><path id="73" transform="matrix(1 0 0 -1 0 842)" d="M148.6875 647.7148L223.5269 647.7148L223.5269 647.2188L148.6875 647.2188z" stroke="none" fill="#000000" fill-rule="nonzero" /><path id="74" transform="matrix(1 0 0 -1 0 842)" d="M148.6875 600.1348L223.5269 600.1348L223.5269 599.6387L148.6875 599.6387z" stroke="none" fill="#000000" fill-rule="nonzero" /><path id="75" transform="matrix(1 0 0 -1 0 842)" d="M148.6875 647.7148L149.1831 647.7148L149.1831 599.6387L148.6875 599.6387z" stroke="none" fill="#000000" fill-rule="nonzero" /><path id="76" transform="matrix(1 0 0 -1 0 842)" d="M223.0313 647.7148L223.5269 647.7148L223.5269 599.6387L223.0313 599.6387z" stroke="none" fill="#000000" fill-rule="nonzero" /><path id="77" transform="matrix(1 0 0 -1 0 842)" d="M223.0313 647.7148L273.0894 647.7148L273.0894 647.2188L223.0313 647.2188z" stroke="none" fill="#000000" fill-rule="nonzero" /><path id="78" transform="matrix(1 0 0 -1 0 842)" d="M223.0313 600.1348L273.0894 600.1348L273.0894 599.6387L223.0313 599.6387z" stroke="none" fill="#000000" fill-rule="nonzero" /><path id="79" transform="matrix(1 0 0 -1 0 842)" d="M223.0313 647.7148L223.5269 647.7148L223.5269 599.6387L223.0313 599.6387z" stroke="none" fill="#000000" fill-rule="nonzero" /><path id="80" transform="matrix(1 0 0 -1 0 842)" d="M272.5938 647.7148L273.0894 647.7148L273.0894 599.6387L272.5938 599.6387z" stroke="none" fill="#000000" fill-rule="nonzero" /><path id="81" transform="matrix(1 0 0 -1 0 842)" d="M272.5938 647.7148L421.7769 647.7148L421.7769 647.2188L272.5938 647.2188z" stroke="none" fill="#000000" fill-rule="nonzero" /><path id="82" transform="matrix(1 0 0 -1 0 842)" d="M272.5938 600.1348L421.7769 600.1348L421.7769 599.6387L272.5938 599.6387z" stroke="none" fill="#000000" fill-rule="nonzero" /><path id="83" transform="matrix(1 0 0 -1 0 842)" d="M272.5938 647.7148L273.0894 647.7148L273.0894 599.6387L272.5938 599.6387z" stroke="none" fill="#000000" fill-rule="nonzero" /><path id="84" transform="matrix(1 0 0 -1 0 842)" d="M421.2813 647.7148L421.7769 647.7148L421.7769 599.6387L421.2813 599.6387z" stroke="none" fill="#000000" fill-rule="nonzero" /><path id="85" transform="matrix(1 0 0 -1 0 842)" d="M421.2813 647.7148L471.3394 647.7148L471.3394 647.2188L421.2813 647.2188z" stroke="none" fill="#000000" fill-rule="nonzero" /><path id="86" transform="matrix(1 0 0 -1 0 842)" d="M421.2813 600.1348L471.3394 600.1348L471.3394 599.6387L421.2813 599.6387z" stroke="none" fill="#000000" fill-rule="nonzero" /><path id="87" transform="matrix(1 0 0 -1 0 842)" d="M421.2813 647.7148L421.7769 647.7148L421.7769 599.6387L421.2813 599.6387z" stroke="none" fill="#000000" fill-rule="nonzero" /><path id="88" transform="matrix(1 0 0 -1 0 842)" d="M470.8438 647.7148L471.3394 647.7148L471.3394 599.6387L470.8438 599.6387z" stroke="none" fill="#000000" fill-rule="nonzero" /><path id="89" transform="matrix(1 0 0 -1 0 842)" d="M470.8438 647.7148L545.1875 647.7148L545.1875 647.2188L470.8438 647.2188z" stroke="none" fill="#000000" fill-rule="nonzero" /><path id="90" transform="matrix(1 0 0 -1 0 842)" d="M470.8438 600.1348L545.1875 600.1348L545.1875 599.6387L470.8438 599.6387z" stroke="none" fill="#000000" fill-rule="nonzero" /><path id="91" transform="matrix(1 0 0 -1 0 842)" d="M470.8438 647.7148L471.3394 647.7148L471.3394 599.6387L470.8438 599.6387z" stroke="none" fill="#000000" fill-rule="nonzero" /><path id="92" transform="matrix(1 0 0 -1 0 842)" d="M544.6919 647.7148L545.1875 647.7148L545.1875 599.6387L544.6919 599.6387z" stroke="none" fill="#000000" fill-rule="nonzero" /><path id="93" transform="matrix(1 0 0 -1 0 842)" d="M49.5625 600.1348L74.83938 600.1348L74.83938 599.6387L49.5625 599.6387z" stroke="none" fill="#000000" fill-rule="nonzero" /><path id="94" transform="matrix(1 0 0 -1 0 842)" d="M49.5625 552.5547L74.83938 552.5547L74.83938 552.0586L49.5625 552.0586z" stroke="none" fill="#000000" fill-rule="nonzero" /><path id="95" transform="matrix(1 0 0 -1 0 842)" d="M49.5625 600.1348L50.05813 600.1348L50.05813 552.0586L49.5625 552.0586z" stroke="none" fill="#000000" fill-rule="nonzero" /><path id="96" transform="matrix(1 0 0 -1 0 842)" d="M74.34375 600.1348L74.83938 600.1348L74.83938 552.0586L74.34375 552.0586z" stroke="none" fill="#000000" fill-rule="nonzero" /><path id="97" transform="matrix(1 0 0 -1 0 842)" d="M74.34375 600.1348L149.1831 600.1348L149.1831 599.6387L74.34375 599.6387z" stroke="none" fill="#000000" fill-rule="nonzero" /><path id="98" transform="matrix(1 0 0 -1 0 842)" d="M74.34375 552.5547L149.1831 552.5547L149.1831 552.0586L74.34375 552.0586z" stroke="none" fill="#000000" fill-rule="nonzero" /><path id="99" transform="matrix(1 0 0 -1 0 842)" d="M74.34375 600.1348L74.83938 600.1348L74.83938 552.0586L74.34375 552.0586z" stroke="none" fill="#000000" fill-rule="nonzero" /><path id="100" transform="matrix(1 0 0 -1 0 842)" d="M148.6875 600.1348L149.1831 600.1348L149.1831 552.0586L148.6875 552.0586z" stroke="none" fill="#000000" fill-rule="nonzero" /><path id="101" transform="matrix(1 0 0 -1 0 842)" d="M148.6875 600.1348L223.5269 600.1348L223.5269 599.6387L148.6875 599.6387z" stroke="none" fill="#000000" fill-rule="nonzero" /><path id="102" transform="matrix(1 0 0 -1 0 842)" d="M148.6875 552.5547L223.5269 552.5547L223.5269 552.0586L148.6875 552.0586z" stroke="none" fill="#000000" fill-rule="nonzero" /><path id="103" transform="matrix(1 0 0 -1 0 842)" d="M148.6875 600.1348L149.1831 600.1348L149.1831 552.0586L148.6875 552.0586z" stroke="none" fill="#000000" fill-rule="nonzero" /><path id="104" transform="matrix(1 0 0 -1 0 842)" d="M223.0313 600.1348L223.5269 600.1348L223.5269 552.0586L223.0313 552.0586z" stroke="none" fill="#000000" fill-rule="nonzero" /><path id="105" transform="matrix(1 0 0 -1 0 842)" d="M223.0313 600.1348L273.0894 600.1348L273.0894 599.6387L223.0313 599.6387z" stroke="none" fill="#000000" fill-rule="nonzero" /><path id="106" transform="matrix(1 0 0 -1 0 842)" d="M223.0313 552.5547L273.0894 552.5547L273.0894 552.0586L223.0313 552.0586z" stroke="none" fill="#000000" fill-rule="nonzero" /><path id="107" transform="matrix(1 0 0 -1 0 842)" d="M223.0313 600.1348L223.5269 600.1348L223.5269 552.0586L223.0313 552.0586z" stroke="none" fill="#000000" fill-rule="nonzero" /><path id="108" transform="matrix(1 0 0 -1 0 842)" d="M272.5938 600.1348L273.0894 600.1348L273.0894 552.0586L272.5938 552.0586z" stroke="none" fill="#000000" fill-rule="nonzero" /><path id="109" transform="matrix(1 0 0 -1 0 842)" d="M272.5938 600.1348L421.7769 600.1348L421.7769 599.6387L272.5938 599.6387z" stroke="none" fill="#000000" fill-rule="nonzero" /><path id="110" transform="matrix(1 0 0 -1 0 842)" d="M272.5938 552.5547L421.7769 552.5547L421.7769 552.0586L272.5938 552.0586z" stroke="none" fill="#000000" fill-rule="nonzero" /><path id="111" transform="matrix(1 0 0 -1 0 842)" d="M272.5938 600.1348L273.0894 600.1348L273.0894 552.0586L272.5938 552.0586z" stroke="none" fill="#000000" fill-rule="nonzero" /><path id="112" transform="matrix(1 0 0 -1 0 842)" d="M421.2813 600.1348L421.7769 600.1348L421.7769 552.0586L421.2813 552.0586z" stroke="none" fill="#000000" fill-rule="nonzero" /><path id="113" transform="matrix(1 0 0 -1 0 842)" d="M421.2813 600.1348L471.3394 600.1348L471.3394 599.6387L421.2813 599.6387z" stroke="none" fill="#000000" fill-rule="nonzero" /><path id="114" transform="matrix(1 0 0 -1 0 842)" d="M421.2813 552.5547L471.3394 552.5547L471.3394 552.0586L421.2813 552.0586z" stroke="none" fill="#000000" fill-rule="nonzero" /><path id="115" transform="matrix(1 0 0 -1 0 842)" d="M421.2813 600.1348L421.7769 600.1348L421.7769 552.0586L421.2813 552.0586z" stroke="none" fill="#000000" fill-rule="nonzero" /><path id="116" transform="matrix(1 0 0 -1 0 842)" d="M470.8438 600.1348L471.3394 600.1348L471.3394 552.0586L470.8438 552.0586z" stroke="none" fill="#000000" fill-rule="nonzero" /><path id="117" transform="matrix(1 0 0 -1 0 842)" d="M470.8438 600.1348L545.1875 600.1348L545.1875 599.6387L470.8438 599.6387z" stroke="none" fill="#000000" fill-rule="nonzero" /><path id="118" transform="matrix(1 0 0 -1 0 842)" d="M470.8438 552.5547L545.1875 552.5547L545.1875 552.0586L470.8438 552.0586z" stroke="none" fill="#000000" fill-rule="nonzero" /><path id="119" transform="matrix(1 0 0 -1 0 842)" d="M470.8438 600.1348L471.3394 600.1348L471.3394 552.0586L470.8438 552.0586z" stroke="none" fill="#000000" fill-rule="nonzero" /><path id="120" transform="matrix(1 0 0 -1 0 842)" d="M544.6919 600.1348L545.1875 600.1348L545.1875 552.0586L544.6919 552.0586z" stroke="none" fill="#000000" fill-rule="nonzero" /><path id="121" transform="matrix(1 0 0 -1 0 842)" d="M49.5625 552.5547L74.83938 552.5547L74.83938 552.0586L49.5625 552.0586z" stroke="none" fill="#000000" fill-rule="nonzero" /><path id="122" transform="matrix(1 0 0 -1 0 842)" d="M49.5625 501.0098L74.83938 501.0098L74.83938 500.5137L49.5625 500.5137z" stroke="none" fill="#000000" fill-rule="nonzero" /><path id="123" transform="matrix(1 0 0 -1 0 842)" d="M49.5625 552.5547L50.05813 552.5547L50.05813 500.5137L49.5625 500.5137z" stroke="none" fill="#000000" fill-rule="nonzero" /><path id="124" transform="matrix(1 0 0 -1 0 842)" d="M74.34375 552.5547L74.83938 552.5547L74.83938 500.5137L74.34375 500.5137z" stroke="none" fill="#000000" fill-rule="nonzero" /><path id="125" transform="matrix(1 0 0 -1 0 842)" d="M74.34375 552.5547L149.1831 552.5547L149.1831 552.0586L74.34375 552.0586z" stroke="none" fill="#000000" fill-rule="nonzero" /><path id="126" transform="matrix(1 0 0 -1 0 842)" d="M74.34375 501.0098L149.1831 501.0098L149.1831 500.5137L74.34375 500.5137z" stroke="none" fill="#000000" fill-rule="nonzero" /><path id="127" transform="matrix(1 0 0 -1 0 842)" d="M74.34375 552.5547L74.83938 552.5547L74.83938 500.5137L74.34375 500.5137z" stroke="none" fill="#000000" fill-rule="nonzero" /><path id="128" transform="matrix(1 0 0 -1 0 842)" d="M148.6875 552.5547L149.1831 552.5547L149.1831 500.5137L148.6875 500.5137z" stroke="none" fill="#000000" fill-rule="nonzero" /><path id="129" transform="matrix(1 0 0 -1 0 842)" d="M148.6875 552.5547L223.5269 552.5547L223.5269 552.0586L148.6875 552.0586z" stroke="none" fill="#000000" fill-rule="nonzero" /><path id="130" transform="matrix(1 0 0 -1 0 842)" d="M148.6875 526.7813L223.5269 526.7813L223.5269 526.2871L148.6875 526.2871z" stroke="none" fill="#000000" fill-rule="nonzero" /><path id="131" transform="matrix(1 0 0 -1 0 842)" d="M148.6875 552.5547L149.1831 552.5547L149.1831 526.2871L148.6875 526.2871z" stroke="none" fill="#000000" fill-rule="nonzero" /><path id="132" transform="matrix(1 0 0 -1 0 842)" d="M223.0313 552.5547L223.5269 552.5547L223.5269 526.2871L223.0313 526.2871z" stroke="none" fill="#000000" fill-rule="nonzero" /><path id="133" transform="matrix(1 0 0 -1 0 842)" d="M223.0313 552.5547L273.0894 552.5547L273.0894 552.0586L223.0313 552.0586z" stroke="none" fill="#000000" fill-rule="nonzero" /><path id="134" transform="matrix(1 0 0 -1 0 842)" d="M223.0313 526.7813L273.0894 526.7813L273.0894 526.2871L223.0313 526.2871z" stroke="none" fill="#000000" fill-rule="nonzero" /><path id="135" transform="matrix(1 0 0 -1 0 842)" d="M223.0313 552.5547L223.5269 552.5547L223.5269 526.2871L223.0313 526.2871z" stroke="none" fill="#000000" fill-rule="nonzero" /><path id="136" transform="matrix(1 0 0 -1 0 842)" d="M272.5938 552.5547L273.0894 552.5547L273.0894 526.2871L272.5938 526.2871z" stroke="none" fill="#000000" fill-rule="nonzero" /><path id="137" transform="matrix(1 0 0 -1 0 842)" d="M272.5938 552.5547L421.7769 552.5547L421.7769 552.0586L272.5938 552.0586z" stroke="none" fill="#000000" fill-rule="nonzero" /><path id="138" transform="matrix(1 0 0 -1 0 842)" d="M272.5938 526.7813L421.7769 526.7813L421.7769 526.2871L272.5938 526.2871z" stroke="none" fill="#000000" fill-rule="nonzero" /><path id="139" transform="matrix(1 0 0 -1 0 842)" d="M272.5938 552.5547L273.0894 552.5547L273.0894 526.2871L272.5938 526.2871z" stroke="none" fill="#000000" fill-rule="nonzero" /><path id="140" transform="matrix(1 0 0 -1 0 842)" d="M421.2813 552.5547L421.7769 552.5547L421.7769 526.2871L421.2813 526.2871z" stroke="none" fill="#000000" fill-rule="nonzero" /><path id="141" transform="matrix(1 0 0 -1 0 842)" d="M421.2813 552.5547L471.3394 552.5547L471.3394 552.0586L421.2813 552.0586z" stroke="none" fill="#000000" fill-rule="nonzero" /><path id="142" transform="matrix(1 0 0 -1 0 842)" d="M421.2813 526.7813L471.3394 526.7813L471.3394 526.2871L421.2813 526.2871z" stroke="none" fill="#000000" fill-rule="nonzero" /><path id="143" transform="matrix(1 0 0 -1 0 842)" d="M421.2813 552.5547L421.7769 552.5547L421.7769 526.2871L421.2813 526.2871z" stroke="none" fill="#000000" fill-rule="nonzero" /><path id="144" transform="matrix(1 0 0 -1 0 842)" d="M470.8438 552.5547L471.3394 552.5547L471.3394 526.2871L470.8438 526.2871z" stroke="none" fill="#000000" fill-rule="nonzero" /><path id="145" transform="matrix(1 0 0 -1 0 842)" d="M470.8438 552.5547L545.1875 552.5547L545.1875 552.0586L470.8438 552.0586z" stroke="none" fill="#000000" fill-rule="nonzero" /><path id="146" transform="matrix(1 0 0 -1 0 842)" d="M470.8438 501.0098L545.1875 501.0098L545.1875 500.5137L470.8438 500.5137z" stroke="none" fill="#000000" fill-rule="nonzero" /><path id="147" transform="matrix(1 0 0 -1 0 842)" d="M470.8438 552.5547L471.3394 552.5547L471.3394 500.5137L470.8438 500.5137z" stroke="none" fill="#000000" fill-rule="nonzero" /><path id="148" transform="matrix(1 0 0 -1 0 842)" d="M544.6919 552.5547L545.1875 552.5547L545.1875 500.5137L544.6919 500.5137z" stroke="none" fill="#000000" fill-rule="nonzero" /><path id="149" transform="matrix(1 0 0 -1 0 842)" d="M148.6875 526.7813L223.5269 526.7813L223.5269 526.2871L148.6875 526.2871z" stroke="none" fill="#000000" fill-rule="nonzero" /><path id="150" transform="matrix(1 0 0 -1 0 842)" d="M148.6875 501.0098L223.5269 501.0098L223.5269 500.5137L148.6875 500.5137z" stroke="none" fill="#000000" fill-rule="nonzero" /><path id="151" transform="matrix(1 0 0 -1 0 842)" d="M148.6875 526.7813L149.1831 526.7813L149.1831 500.5137L148.6875 500.5137z" stroke="none" fill="#000000" fill-rule="nonzero" /><path id="152" transform="matrix(1 0 0 -1 0 842)" d="M223.0313 526.7813L223.5269 526.7813L223.5269 500.5137L223.0313 500.5137z" stroke="none" fill="#000000" fill-rule="nonzero" /><path id="153" transform="matrix(1 0 0 -1 0 842)" d="M223.0313 526.7813L273.0894 526.7813L273.0894 526.2871L223.0313 526.2871z" stroke="none" fill="#000000" fill-rule="nonzero" /><path id="154" transform="matrix(1 0 0 -1 0 842)" d="M223.0313 501.0098L273.0894 501.0098L273.0894 500.5137L223.0313 500.5137z" stroke="none" fill="#000000" fill-rule="nonzero" /><path id="155" transform="matrix(1 0 0 -1 0 842)" d="M223.0313 526.7813L223.5269 526.7813L223.5269 500.5137L223.0313 500.5137z" stroke="none" fill="#000000" fill-rule="nonzero" /><path id="156" transform="matrix(1 0 0 -1 0 842)" d="M272.5938 526.7813L273.0894 526.7813L273.0894 500.5137L272.5938 500.5137z" stroke="none" fill="#000000" fill-rule="nonzero" /><path id="157" transform="matrix(1 0 0 -1 0 842)" d="M272.5938 526.7813L421.7769 526.7813L421.7769 526.2871L272.5938 526.2871z" stroke="none" fill="#000000" fill-rule="nonzero" /><path id="158" transform="matrix(1 0 0 -1 0 842)" d="M272.5938 501.0098L421.7769 501.0098L421.7769 500.5137L272.5938 500.5137z" stroke="none" fill="#000000" fill-rule="nonzero" /><path id="159" transform="matrix(1 0 0 -1 0 842)" d="M272.5938 526.7813L273.0894 526.7813L273.0894 500.5137L272.5938 500.5137z" stroke="none" fill="#000000" fill-rule="nonzero" /><path id="160" transform="matrix(1 0 0 -1 0 842)" d="M421.2813 526.7813L421.7769 526.7813L421.7769 500.5137L421.2813 500.5137z" stroke="none" fill="#000000" fill-rule="nonzero" /><path id="161" transform="matrix(1 0 0 -1 0 842)" d="M421.2813 526.7813L471.3394 526.7813L471.3394 526.2871L421.2813 526.2871z" stroke="none" fill="#000000" fill-rule="nonzero" /><path id="162" transform="matrix(1 0 0 -1 0 842)" d="M421.2813 501.0098L471.3394 501.0098L471.3394 500.5137L421.2813 500.5137z" stroke="none" fill="#000000" fill-rule="nonzero" /><path id="163" transform="matrix(1 0 0 -1 0 842)" d="M421.2813 526.7813L421.7769 526.7813L421.7769 500.5137L421.2813 500.5137z" stroke="none" fill="#000000" fill-rule="nonzero" /><path id="164" transform="matrix(1 0 0 -1 0 842)" d="M470.8438 526.7813L471.3394 526.7813L471.3394 500.5137L470.8438 500.5137z" stroke="none" fill="#000000" fill-rule="nonzero" /><path id="165" transform="matrix(1 0 0 -1 0 842)" d="M49.5625 501.0098L74.83938 501.0098L74.83938 500.5137L49.5625 500.5137z" stroke="none" fill="#000000" fill-rule="nonzero" /><path id="166" transform="matrix(1 0 0 -1 0 842)" d="M49.5625 453.4297L74.83938 453.4297L74.83938 452.9336L49.5625 452.9336z" stroke="none" fill="#000000" fill-rule="nonzero" /><path id="167" transform="matrix(1 0 0 -1 0 842)" d="M49.5625 501.0098L50.05813 501.0098L50.05813 452.9336L49.5625 452.9336z" stroke="none" fill="#000000" fill-rule="nonzero" /><path id="168" transform="matrix(1 0 0 -1 0 842)" d="M74.34375 501.0098L74.83938 501.0098L74.83938 452.9336L74.34375 452.9336z" stroke="none" fill="#000000" fill-rule="nonzero" /><path id="169" transform="matrix(1 0 0 -1 0 842)" d="M74.34375 501.0098L149.1831 501.0098L149.1831 500.5137L74.34375 500.5137z" stroke="none" fill="#000000" fill-rule="nonzero" /><path id="170" transform="matrix(1 0 0 -1 0 842)" d="M74.34375 453.4297L149.1831 453.4297L149.1831 452.9336L74.34375 452.9336z" stroke="none" fill="#000000" fill-rule="nonzero" /><path id="171" transform="matrix(1 0 0 -1 0 842)" d="M74.34375 501.0098L74.83938 501.0098L74.83938 452.9336L74.34375 452.9336z" stroke="none" fill="#000000" fill-rule="nonzero" /><path id="172" transform="matrix(1 0 0 -1 0 842)" d="M148.6875 501.0098L149.1831 501.0098L149.1831 452.9336L148.6875 452.9336z" stroke="none" fill="#000000" fill-rule="nonzero" /><path id="173" transform="matrix(1 0 0 -1 0 842)" d="M148.6875 501.0098L223.5269 501.0098L223.5269 500.5137L148.6875 500.5137z" stroke="none" fill="#000000" fill-rule="nonzero" /><path id="174" transform="matrix(1 0 0 -1 0 842)" d="M148.6875 453.4297L223.5269 453.4297L223.5269 452.9336L148.6875 452.9336z" stroke="none" fill="#000000" fill-rule="nonzero" /><path id="175" transform="matrix(1 0 0 -1 0 842)" d="M148.6875 501.0098L149.1831 501.0098L149.1831 452.9336L148.6875 452.9336z" stroke="none" fill="#000000" fill-rule="nonzero" /><path id="176" transform="matrix(1 0 0 -1 0 842)" d="M223.0313 501.0098L223.5269 501.0098L223.5269 452.9336L223.0313 452.9336z" stroke="none" fill="#000000" fill-rule="nonzero" /><path id="177" transform="matrix(1 0 0 -1 0 842)" d="M223.0313 501.0098L273.0894 501.0098L273.0894 500.5137L223.0313 500.5137z" stroke="none" fill="#000000" fill-rule="nonzero" /><path id="178" transform="matrix(1 0 0 -1 0 842)" d="M223.0313 453.4297L273.0894 453.4297L273.0894 452.9336L223.0313 452.9336z" stroke="none" fill="#000000" fill-rule="nonzero" /><path id="179" transform="matrix(1 0 0 -1 0 842)" d="M223.0313 501.0098L223.5269 501.0098L223.5269 452.9336L223.0313 452.9336z" stroke="none" fill="#000000" fill-rule="nonzero" /><path id="180" transform="matrix(1 0 0 -1 0 842)" d="M272.5938 501.0098L273.0894 501.0098L273.0894 452.9336L272.5938 452.9336z" stroke="none" fill="#000000" fill-rule="nonzero" /><path id="181" transform="matrix(1 0 0 -1 0 842)" d="M272.5938 501.0098L421.7769 501.0098L421.7769 500.5137L272.5938 500.5137z" stroke="none" fill="#000000" fill-rule="nonzero" /><path id="182" transform="matrix(1 0 0 -1 0 842)" d="M272.5938 453.4297L421.7769 453.4297L421.7769 452.9336L272.5938 452.9336z" stroke="none" fill="#000000" fill-rule="nonzero" /><path id="183" transform="matrix(1 0 0 -1 0 842)" d="M272.5938 501.0098L273.0894 501.0098L273.0894 452.9336L272.5938 452.9336z" stroke="none" fill="#000000" fill-rule="nonzero" /><path id="184" transform="matrix(1 0 0 -1 0 842)" d="M421.2813 501.0098L421.7769 501.0098L421.7769 452.9336L421.2813 452.9336z" stroke="none" fill="#000000" fill-rule="nonzero" /><path id="185" transform="matrix(1 0 0 -1 0 842)" d="M421.2813 501.0098L471.3394 501.0098L471.3394 500.5137L421.2813 500.5137z" stroke="none" fill="#000000" fill-rule="nonzero" /><path id="186" transform="matrix(1 0 0 -1 0 842)" d="M421.2813 453.4297L471.3394 453.4297L471.3394 452.9336L421.2813 452.9336z" stroke="none" fill="#000000" fill-rule="nonzero" /><path id="187" transform="matrix(1 0 0 -1 0 842)" d="M421.2813 501.0098L421.7769 501.0098L421.7769 452.9336L421.2813 452.9336z" stroke="none" fill="#000000" fill-rule="nonzero" /><path id="188" transform="matrix(1 0 0 -1 0 842)" d="M470.8438 501.0098L471.3394 501.0098L471.3394 452.9336L470.8438 452.9336z" stroke="none" fill="#000000" fill-rule="nonzero" /><path id="189" transform="matrix(1 0 0 -1 0 842)" d="M470.8438 501.0098L545.1875 501.0098L545.1875 500.5137L470.8438 500.5137z" stroke="none" fill="#000000" fill-rule="nonzero" /><path id="190" transform="matrix(1 0 0 -1 0 842)" d="M470.8438 453.4297L545.1875 453.4297L545.1875 452.9336L470.8438 452.9336z" stroke="none" fill="#000000" fill-rule="nonzero" /><path id="191" transform="matrix(1 0 0 -1 0 842)" d="M470.8438 501.0098L471.3394 501.0098L471.3394 452.9336L470.8438 452.9336z" stroke="none" fill="#000000" fill-rule="nonzero" /><path id="192" transform="matrix(1 0 0 -1 0 842)" d="M544.6919 501.0098L545.1875 501.0098L545.1875 452.9336L544.6919 452.9336z" stroke="none" fill="#000000" fill-rule="nonzero" /><path id="193" transform="matrix(1 0 0 -1 0 842)" d="M49.5625 453.4297L74.83938 453.4297L74.83938 452.9336L49.5625 452.9336z" stroke="none" fill="#000000" fill-rule="nonzero" /><path id="194" transform="matrix(1 0 0 -1 0 842)" d="M49.5625 405.8496L74.83938 405.8496L74.83938 405.3535L49.5625 405.3535z" stroke="none" fill="#000000" fill-rule="nonzero" /><path id="195" transform="matrix(1 0 0 -1 0 842)" d="M49.5625 453.4297L50.05813 453.4297L50.05813 405.3535L49.5625 405.3535z" stroke="none" fill="#000000" fill-rule="nonzero" /><path id="196" transform="matrix(1 0 0 -1 0 842)" d="M74.34375 453.4297L74.83938 453.4297L74.83938 405.3535L74.34375 405.3535z" stroke="none" fill="#000000" fill-rule="nonzero" /><path id="197" transform="matrix(1 0 0 -1 0 842)" d="M74.34375 453.4297L149.1831 453.4297L149.1831 452.9336L74.34375 452.9336z" stroke="none" fill="#000000" fill-rule="nonzero" /><path id="198" transform="matrix(1 0 0 -1 0 842)" d="M74.34375 405.8496L149.1831 405.8496L149.1831 405.3535L74.34375 405.3535z" stroke="none" fill="#000000" fill-rule="nonzero" /><path id="199" transform="matrix(1 0 0 -1 0 842)" d="M74.34375 453.4297L74.83938 453.4297L74.83938 405.3535L74.34375 405.3535z" stroke="none" fill="#000000" fill-rule="nonzero" /><path id="200" transform="matrix(1 0 0 -1 0 842)" d="M148.6875 453.4297L149.1831 453.4297L149.1831 405.3535L148.6875 405.3535z" stroke="none" fill="#000000" fill-rule="nonzero" /><path id="201" transform="matrix(1 0 0 -1 0 842)" d="M148.6875 453.4297L223.5269 453.4297L223.5269 452.9336L148.6875 452.9336z" stroke="none" fill="#000000" fill-rule="nonzero" /><path id="202" transform="matrix(1 0 0 -1 0 842)" d="M148.6875 405.8496L223.5269 405.8496L223.5269 405.3535L148.6875 405.3535z" stroke="none" fill="#000000" fill-rule="nonzero" /><path id="203" transform="matrix(1 0 0 -1 0 842)" d="M148.6875 453.4297L149.1831 453.4297L149.1831 405.3535L148.6875 405.3535z" stroke="none" fill="#000000" fill-rule="nonzero" /><path id="204" transform="matrix(1 0 0 -1 0 842)" d="M223.0313 453.4297L223.5269 453.4297L223.5269 405.3535L223.0313 405.3535z" stroke="none" fill="#000000" fill-rule="nonzero" /><path id="205" transform="matrix(1 0 0 -1 0 842)" d="M223.0313 453.4297L273.0894 453.4297L273.0894 452.9336L223.0313 452.9336z" stroke="none" fill="#000000" fill-rule="nonzero" /><path id="206" transform="matrix(1 0 0 -1 0 842)" d="M223.0313 405.8496L273.0894 405.8496L273.0894 405.3535L223.0313 405.3535z" stroke="none" fill="#000000" fill-rule="nonzero" /><path id="207" transform="matrix(1 0 0 -1 0 842)" d="M223.0313 453.4297L223.5269 453.4297L223.5269 405.3535L223.0313 405.3535z" stroke="none" fill="#000000" fill-rule="nonzero" /><path id="208" transform="matrix(1 0 0 -1 0 842)" d="M272.5938 453.4297L273.0894 453.4297L273.0894 405.3535L272.5938 405.3535z" stroke="none" fill="#000000" fill-rule="nonzero" /><path id="209" transform="matrix(1 0 0 -1 0 842)" d="M272.5938 453.4297L421.7769 453.4297L421.7769 452.9336L272.5938 452.9336z" stroke="none" fill="#000000" fill-rule="nonzero" /><path id="210" transform="matrix(1 0 0 -1 0 842)" d="M272.5938 405.8496L421.7769 405.8496L421.7769 405.3535L272.5938 405.3535z" stroke="none" fill="#000000" fill-rule="nonzero" /><path id="211" transform="matrix(1 0 0 -1 0 842)" d="M272.5938 453.4297L273.0894 453.4297L273.0894 405.3535L272.5938 405.3535z" stroke="none" fill="#000000" fill-rule="nonzero" /><path id="212" transform="matrix(1 0 0 -1 0 842)" d="M421.2813 453.4297L421.7769 453.4297L421.7769 405.3535L421.2813 405.3535z" stroke="none" fill="#000000" fill-rule="nonzero" /><path id="213" transform="matrix(1 0 0 -1 0 842)" d="M421.2813 453.4297L471.3394 453.4297L471.3394 452.9336L421.2813 452.9336z" stroke="none" fill="#000000" fill-rule="nonzero" /><path id="214" transform="matrix(1 0 0 -1 0 842)" d="M421.2813 405.8496L471.3394 405.8496L471.3394 405.3535L421.2813 405.3535z" stroke="none" fill="#000000" fill-rule="nonzero" /><path id="215" transform="matrix(1 0 0 -1 0 842)" d="M421.2813 453.4297L421.7769 453.4297L421.7769 405.3535L421.2813 405.3535z" stroke="none" fill="#000000" fill-rule="nonzero" /><path id="216" transform="matrix(1 0 0 -1 0 842)" d="M470.8438 453.4297L471.3394 453.4297L471.3394 405.3535L470.8438 405.3535z" stroke="none" fill="#000000" fill-rule="nonzero" /><path id="217" transform="matrix(1 0 0 -1 0 842)" d="M470.8438 453.4297L545.1875 453.4297L545.1875 452.9336L470.8438 452.9336z" stroke="none" fill="#000000" fill-rule="nonzero" /><path id="218" transform="matrix(1 0 0 -1 0 842)" d="M470.8438 405.8496L545.1875 405.8496L545.1875 405.3535L470.8438 405.3535z" stroke="none" fill="#000000" fill-rule="nonzero" /><path id="219" transform="matrix(1 0 0 -1 0 842)" d="M470.8438 453.4297L471.3394 453.4297L471.3394 405.3535L470.8438 405.3535z" stroke="none" fill="#000000" fill-rule="nonzero" /><path id="220" transform="matrix(1 0 0 -1 0 842)" d="M544.6919 453.4297L545.1875 453.4297L545.1875 405.3535L544.6919 405.3535z" stroke="none" fill="#000000" fill-rule="nonzero" /><path id="221" transform="matrix(1 0 0 -1 0 842)" d="M49.5625 360.748L74.34375 360.748L74.34375 334.9746L49.5625 334.9746z" stroke="none" fill="#9CC9F0" fill-rule="nonzero" /><path id="222" transform="matrix(1 0 0 -1 0 842)" d="M74.34375 360.748L148.6875 360.748L148.6875 334.9746L74.34375 334.9746z" stroke="none" fill="#9CC9F0" fill-rule="nonzero" /><path id="223" transform="matrix(1 0 0 -1 0 842)" d="M148.6875 360.748L223.0313 360.748L223.0313 334.9746L148.6875 334.9746z" stroke="none" fill="#9CC9F0" fill-rule="nonzero" /><path id="224" transform="matrix(1 0 0 -1 0 842)" d="M223.0313 360.748L272.5938 360.748L272.5938 334.9746L223.0313 334.9746z" stroke="none" fill="#9CC9F0" fill-rule="nonzero" /><path id="225" transform="matrix(1 0 0 -1 0 842)" d="M272.5938 360.748L421.2813 360.748L421.2813 334.9746L272.5938 334.9746z" stroke="none" fill="#9CC9F0" fill-rule="nonzero" /><path id="226" transform="matrix(1 0 0 -1 0 842)" d="M421.2813 360.748L470.8438 360.748L470.8438 334.9746L421.2813 334.9746z" stroke="none" fill="#9CC9F0" fill-rule="nonzero" /><path id="227" transform="matrix(1 0 0 -1 0 842)" d="M470.8438 360.748L544.6919 360.748L544.6919 334.9746L470.8438 334.9746z" stroke="none" fill="#9CC9F0" fill-rule="nonzero" /><path id="228" transform="matrix(1 0 0 -1 0 842)" d="M49.5625 360.748L74.83938 360.748L74.83938 360.252L49.5625 360.252z" stroke="none" fill="#000000" fill-rule="nonzero" /><path id="229" transform="matrix(1 0 0 -1 0 842)" d="M49.5625 334.9746L74.83938 334.9746L74.83938 334.4805L49.5625 334.4805z" stroke="none" fill="#000000" fill-rule="nonzero" /><path id="230" transform="matrix(1 0 0 -1 0 842)" d="M49.5625 360.748L50.05813 360.748L50.05813 334.4805L49.5625 334.4805z" stroke="none" fill="#000000" fill-rule="nonzero" /><path id="231" transform="matrix(1 0 0 -1 0 842)" d="M74.34375 360.748L74.83938 360.748L74.83938 334.4805L74.34375 334.4805z" stroke="none" fill="#000000" fill-rule="nonzero" /><path id="232" transform="matrix(1 0 0 -1 0 842)" d="M74.34375 360.748L149.1831 360.748L149.1831 360.252L74.34375 360.252z" stroke="none" fill="#000000" fill-rule="nonzero" /><path id="233" transform="matrix(1 0 0 -1 0 842)" d="M74.34375 334.9746L149.1831 334.9746L149.1831 334.4805L74.34375 334.4805z" stroke="none" fill="#000000" fill-rule="nonzero" /><path id="234" transform="matrix(1 0 0 -1 0 842)" d="M74.34375 360.748L74.83938 360.748L74.83938 334.4805L74.34375 334.4805z" stroke="none" fill="#000000" fill-rule="nonzero" /><path id="235" transform="matrix(1 0 0 -1 0 842)" d="M148.6875 360.748L149.1831 360.748L149.1831 334.4805L148.6875 334.4805z" stroke="none" fill="#000000" fill-rule="nonzero" /><path id="236" transform="matrix(1 0 0 -1 0 842)" d="M148.6875 360.748L223.5269 360.748L223.5269 360.252L148.6875 360.252z" stroke="none" fill="#000000" fill-rule="nonzero" /><path id="237" transform="matrix(1 0 0 -1 0 842)" d="M148.6875 334.9746L223.5269 334.9746L223.5269 334.4805L148.6875 334.4805z" stroke="none" fill="#000000" fill-rule="nonzero" /><path id="238" transform="matrix(1 0 0 -1 0 842)" d="M148.6875 360.748L149.1831 360.748L149.1831 334.4805L148.6875 334.4805z" stroke="none" fill="#000000" fill-rule="nonzero" /><path id="239" transform="matrix(1 0 0 -1 0 842)" d="M223.0313 360.748L223.5269 360.748L223.5269 334.4805L223.0313 334.4805z" stroke="none" fill="#000000" fill-rule="nonzero" /><path id="240" transform="matrix(1 0 0 -1 0 842)" d="M223.0313 360.748L273.0894 360.748L273.0894 360.252L223.0313 360.252z" stroke="none" fill="#000000" fill-rule="nonzero" /><path id="241" transform="matrix(1 0 0 -1 0 842)" d="M223.0313 334.9746L273.0894 334.9746L273.0894 334.4805L223.0313 334.4805z" stroke="none" fill="#000000" fill-rule="nonzero" /><path id="242" transform="matrix(1 0 0 -1 0 842)" d="M223.0313 360.748L223.5269 360.748L223.5269 334.4805L223.0313 334.4805z" stroke="none" fill="#000000" fill-rule="nonzero" /><path id="243" transform="matrix(1 0 0 -1 0 842)" d="M272.5938 360.748L273.0894 360.748L273.0894 334.4805L272.5938 334.4805z" stroke="none" fill="#000000" fill-rule="nonzero" /><path id="244" transform="matrix(1 0 0 -1 0 842)" d="M272.5938 360.748L421.7769 360.748L421.7769 360.252L272.5938 360.252z" stroke="none" fill="#000000" fill-rule="nonzero" /><path id="245" transform="matrix(1 0 0 -1 0 842)" d="M272.5938 334.9746L421.7769 334.9746L421.7769 334.4805L272.5938 334.4805z" stroke="none" fill="#000000" fill-rule="nonzero" /><path id="246" transform="matrix(1 0 0 -1 0 842)" d="M272.5938 360.748L273.0894 360.748L273.0894 334.4805L272.5938 334.4805z" stroke="none" fill="#000000" fill-rule="nonzero" /><path id="247" transform="matrix(1 0 0 -1 0 842)" d="M421.2813 360.748L421.7769 360.748L421.7769 334.4805L421.2813 334.4805z" stroke="none" fill="#000000" fill-rule="nonzero" /><path id="248" transform="matrix(1 0 0 -1 0 842)" d="M421.2813 360.748L471.3394 360.748L471.3394 360.252L421.2813 360.252z" stroke="none" fill="#000000" fill-rule="nonzero" /><path id="249" transform="matrix(1 0 0 -1 0 842)" d="M421.2813 334.9746L471.3394 334.9746L471.3394 334.4805L421.2813 334.4805z" stroke="none" fill="#000000" fill-rule="nonzero" /><path id="250" transform="matrix(1 0 0 -1 0 842)" d="M421.2813 360.748L421.7769 360.748L421.7769 334.4805L421.2813 334.4805z" stroke="none" fill="#000000" fill-rule="nonzero" /><path id="251" transform="matrix(1 0 0 -1 0 842)" d="M470.8438 360.748L471.3394 360.748L471.3394 334.4805L470.8438 334.4805z" stroke="none" fill="#000000" fill-rule="nonzero" /><path id="252" transform="matrix(1 0 0 -1 0 842)" d="M470.8438 360.748L545.1875 360.748L545.1875 360.252L470.8438 360.252z" stroke="none" fill="#000000" fill-rule="nonzero" /><path id="253" transform="matrix(1 0 0 -1 0 842)" d="M470.8438 334.9746L545.1875 334.9746L545.1875 334.4805L470.8438 334.4805z" stroke="none" fill="#000000" fill-rule="nonzero" /><path id="254" transform="matrix(1 0 0 -1 0 842)" d="M470.8438 360.748L471.3394 360.748L471.3394 334.4805L470.8438 334.4805z" stroke="none" fill="#000000" fill-rule="nonzero" /><path id="255" transform="matrix(1 0 0 -1 0 842)" d="M544.6919 360.748L545.1875 360.748L545.1875 334.4805L544.6919 334.4805z" stroke="none" fill="#000000" fill-rule="nonzero" /><path id="256" transform="matrix(1 0 0 -1 0 842)" d="M49.5625 334.9746L74.83938 334.9746L74.83938 334.4805L49.5625 334.4805z" stroke="none" fill="#000000" fill-rule="nonzero" /><path id="257" transform="matrix(1 0 0 -1 0 842)" d="M49.5625 287.3945L74.83938 287.3945L74.83938 286.9004L49.5625 286.9004z" stroke="none" fill="#000000" fill-rule="nonzero" /><path id="258" transform="matrix(1 0 0 -1 0 842)" d="M49.5625 334.9746L50.05813 334.9746L50.05813 286.9004L49.5625 286.9004z" stroke="none" fill="#000000" fill-rule="nonzero" /><path id="259" transform="matrix(1 0 0 -1 0 842)" d="M74.34375 334.9746L74.83938 334.9746L74.83938 286.9004L74.34375 286.9004z" stroke="none" fill="#000000" fill-rule="nonzero" /><path id="260" transform="matrix(1 0 0 -1 0 842)" d="M74.34375 334.9746L149.1831 334.9746L149.1831 334.4805L74.34375 334.4805z" stroke="none" fill="#000000" fill-rule="nonzero" /><path id="261" transform="matrix(1 0 0 -1 0 842)" d="M74.34375 287.3945L149.1831 287.3945L149.1831 286.9004L74.34375 286.9004z" stroke="none" fill="#000000" fill-rule="nonzero" /><path id="262" transform="matrix(1 0 0 -1 0 842)" d="M74.34375 334.9746L74.83938 334.9746L74.83938 286.9004L74.34375 286.9004z" stroke="none" fill="#000000" fill-rule="nonzero" /><path id="263" transform="matrix(1 0 0 -1 0 842)" d="M148.6875 334.9746L149.1831 334.9746L149.1831 286.9004L148.6875 286.9004z" stroke="none" fill="#000000" fill-rule="nonzero" /><path id="264" transform="matrix(1 0 0 -1 0 842)" d="M148.6875 334.9746L223.5269 334.9746L223.5269 334.4805L148.6875 334.4805z" stroke="none" fill="#000000" fill-rule="nonzero" /><path id="265" transform="matrix(1 0 0 -1 0 842)" d="M148.6875 287.3945L223.5269 287.3945L223.5269 286.9004L148.6875 286.9004z" stroke="none" fill="#000000" fill-rule="nonzero" /><path id="266" transform="matrix(1 0 0 -1 0 842)" d="M148.6875 334.9746L149.1831 334.9746L149.1831 286.9004L148.6875 286.9004z" stroke="none" fill="#000000" fill-rule="nonzero" /><path id="267" transform="matrix(1 0 0 -1 0 842)" d="M223.0313 334.9746L223.5269 334.9746L223.5269 286.9004L223.0313 286.9004z" stroke="none" fill="#000000" fill-rule="nonzero" /><path id="268" transform="matrix(1 0 0 -1 0 842)" d="M223.0313 334.9746L273.0894 334.9746L273.0894 334.4805L223.0313 334.4805z" stroke="none" fill="#000000" fill-rule="nonzero" /><path id="269" transform="matrix(1 0 0 -1 0 842)" d="M223.0313 287.3945L273.0894 287.3945L273.0894 286.9004L223.0313 286.9004z" stroke="none" fill="#000000" fill-rule="nonzero" /><path id="270" transform="matrix(1 0 0 -1 0 842)" d="M223.0313 334.9746L223.5269 334.9746L223.5269 286.9004L223.0313 286.9004z" stroke="none" fill="#000000" fill-rule="nonzero" /><path id="271" transform="matrix(1 0 0 -1 0 842)" d="M272.5938 334.9746L273.0894 334.9746L273.0894 286.9004L272.5938 286.9004z" stroke="none" fill="#000000" fill-rule="nonzero" /><path id="272" transform="matrix(1 0 0 -1 0 842)" d="M272.5938 334.9746L421.7769 334.9746L421.7769 334.4805L272.5938 334.4805z" stroke="none" fill="#000000" fill-rule="nonzero" /><path id="273" transform="matrix(1 0 0 -1 0 842)" d="M272.5938 287.3945L421.7769 287.3945L421.7769 286.9004L272.5938 286.9004z" stroke="none" fill="#000000" fill-rule="nonzero" /><path id="274" transform="matrix(1 0 0 -1 0 842)" d="M272.5938 334.9746L273.0894 334.9746L273.0894 286.9004L272.5938 286.9004z" stroke="none" fill="#000000" fill-rule="nonzero" /><path id="275" transform="matrix(1 0 0 -1 0 842)" d="M421.2813 334.9746L421.7769 334.9746L421.7769 286.9004L421.2813 286.9004z" stroke="none" fill="#000000" fill-rule="nonzero" /><path id="276" transform="matrix(1 0 0 -1 0 842)" d="M421.2813 334.9746L471.3394 334.9746L471.3394 334.4805L421.2813 334.4805z" stroke="none" fill="#000000" fill-rule="nonzero" /><path id="277" transform="matrix(1 0 0 -1 0 842)" d="M421.2813 287.3945L471.3394 287.3945L471.3394 286.9004L421.2813 286.9004z" stroke="none" fill="#000000" fill-rule="nonzero" /><path id="278" transform="matrix(1 0 0 -1 0 842)" d="M421.2813 334.9746L421.7769 334.9746L421.7769 286.9004L421.2813 286.9004z" stroke="none" fill="#000000" fill-rule="nonzero" /><path id="279" transform="matrix(1 0 0 -1 0 842)" d="M470.8438 334.9746L471.3394 334.9746L471.3394 286.9004L470.8438 286.9004z" stroke="none" fill="#000000" fill-rule="nonzero" /><path id="280" transform="matrix(1 0 0 -1 0 842)" d="M470.8438 334.9746L545.1875 334.9746L545.1875 334.4805L470.8438 334.4805z" stroke="none" fill="#000000" fill-rule="nonzero" /><path id="281" transform="matrix(1 0 0 -1 0 842)" d="M470.8438 287.3945L545.1875 287.3945L545.1875 286.9004L470.8438 286.9004z" stroke="none" fill="#000000" fill-rule="nonzero" /><path id="282" transform="matrix(1 0 0 -1 0 842)" d="M470.8438 334.9746L471.3394 334.9746L471.3394 286.9004L470.8438 286.9004z" stroke="none" fill="#000000" fill-rule="nonzero" /><path id="283" transform="matrix(1 0 0 -1 0 842)" d="M544.6919 334.9746L545.1875 334.9746L545.1875 286.9004L544.6919 286.9004z" stroke="none" fill="#000000" fill-rule="nonzero" /><path id="284" transform="matrix(1 0 0 -1 0 842)" d="M49.5625 242.293L74.34375 242.293L74.34375 216.5215L49.5625 216.5215z" stroke="none" fill="#9CC9F0" fill-rule="nonzero" /><path id="285" transform="matrix(1 0 0 -1 0 842)" d="M74.34375 242.293L148.6875 242.293L148.6875 216.5215L74.34375 216.5215z" stroke="none" fill="#9CC9F0" fill-rule="nonzero" /><path id="286" transform="matrix(1 0 0 -1 0 842)" d="M148.6875 242.293L223.0313 242.293L223.0313 216.5215L148.6875 216.5215z" stroke="none" fill="#9CC9F0" fill-rule="nonzero" /><path id="287" transform="matrix(1 0 0 -1 0 842)" d="M223.0313 242.293L272.5938 242.293L272.5938 216.5215L223.0313 216.5215z" stroke="none" fill="#9CC9F0" fill-rule="nonzero" /><path id="288" transform="matrix(1 0 0 -1 0 842)" d="M272.5938 242.293L421.2813 242.293L421.2813 216.5215L272.5938 216.5215z" stroke="none" fill="#9CC9F0" fill-rule="nonzero" /><path id="289" transform="matrix(1 0 0 -1 0 842)" d="M421.2813 242.293L470.8438 242.293L470.8438 216.5215L421.2813 216.5215z" stroke="none" fill="#9CC9F0" fill-rule="nonzero" /><path id="290" transform="matrix(1 0 0 -1 0 842)" d="M470.8438 242.293L544.6919 242.293L544.6919 216.5215L470.8438 216.5215z" stroke="none" fill="#9CC9F0" fill-rule="nonzero" /><path id="291" transform="matrix(1 0 0 -1 0 842)" d="M49.5625 242.293L74.83938 242.293L74.83938 241.7969L49.5625 241.7969z" stroke="none" fill="#000000" fill-rule="nonzero" /><path id="292" transform="matrix(1 0 0 -1 0 842)" d="M49.5625 216.5215L74.83938 216.5215L74.83938 216.0254L49.5625 216.0254z" stroke="none" fill="#000000" fill-rule="nonzero" /><path id="293" transform="matrix(1 0 0 -1 0 842)" d="M49.5625 242.293L50.05813 242.293L50.05813 216.0254L49.5625 216.0254z" stroke="none" fill="#000000" fill-rule="nonzero" /><path id="294" transform="matrix(1 0 0 -1 0 842)" d="M74.34375 242.293L74.83938 242.293L74.83938 216.0254L74.34375 216.0254z" stroke="none" fill="#000000" fill-rule="nonzero" /><path id="295" transform="matrix(1 0 0 -1 0 842)" d="M74.34375 242.293L149.1831 242.293L149.1831 241.7969L74.34375 241.7969z" stroke="none" fill="#000000" fill-rule="nonzero" /><path id="296" transform="matrix(1 0 0 -1 0 842)" d="M74.34375 216.5215L149.1831 216.5215L149.1831 216.0254L74.34375 216.0254z" stroke="none" fill="#000000" fill-rule="nonzero" /><path id="297" transform="matrix(1 0 0 -1 0 842)" d="M74.34375 242.293L74.83938 242.293L74.83938 216.0254L74.34375 216.0254z" stroke="none" fill="#000000" fill-rule="nonzero" /><path id="298" transform="matrix(1 0 0 -1 0 842)" d="M148.6875 242.293L149.1831 242.293L149.1831 216.0254L148.6875 216.0254z" stroke="none" fill="#000000" fill-rule="nonzero" /><path id="299" transform="matrix(1 0 0 -1 0 842)" d="M148.6875 242.293L223.5269 242.293L223.5269 241.7969L148.6875 241.7969z" stroke="none" fill="#000000" fill-rule="nonzero" /><path id="300" transform="matrix(1 0 0 -1 0 842)" d="M148.6875 216.5215L223.5269 216.5215L223.5269 216.0254L148.6875 216.0254z" stroke="none" fill="#000000" fill-rule="nonzero" /><path id="301" transform="matrix(1 0 0 -1 0 842)" d="M148.6875 242.293L149.1831 242.293L149.1831 216.0254L148.6875 216.0254z" stroke="none" fill="#000000" fill-rule="nonzero" /><path id="302" transform="matrix(1 0 0 -1 0 842)" d="M223.0313 242.293L223.5269 242.293L223.5269 216.0254L223.0313 216.0254z" stroke="none" fill="#000000" fill-rule="nonzero" /><path id="303" transform="matrix(1 0 0 -1 0 842)" d="M223.0313 242.293L273.0894 242.293L273.0894 241.7969L223.0313 241.7969z" stroke="none" fill="#000000" fill-rule="nonzero" /><path id="304" transform="matrix(1 0 0 -1 0 842)" d="M223.0313 216.5215L273.0894 216.5215L273.0894 216.0254L223.0313 216.0254z" stroke="none" fill="#000000" fill-rule="nonzero" /><path id="305" transform="matrix(1 0 0 -1 0 842)" d="M223.0313 242.293L223.5269 242.293L223.5269 216.0254L223.0313 216.0254z" stroke="none" fill="#000000" fill-rule="nonzero" /><path id="306" transform="matrix(1 0 0 -1 0 842)" d="M272.5938 242.293L273.0894 242.293L273.0894 216.0254L272.5938 216.0254z" stroke="none" fill="#000000" fill-rule="nonzero" /><path id="307" transform="matrix(1 0 0 -1 0 842)" d="M272.5938 242.293L421.7769 242.293L421.7769 241.7969L272.5938 241.7969z" stroke="none" fill="#000000" fill-rule="nonzero" /><path id="308" transform="matrix(1 0 0 -1 0 842)" d="M272.5938 216.5215L421.7769 216.5215L421.7769 216.0254L272.5938 216.0254z" stroke="none" fill="#000000" fill-rule="nonzero" /><path id="309" transform="matrix(1 0 0 -1 0 842)" d="M272.5938 242.293L273.0894 242.293L273.0894 216.0254L272.5938 216.0254z" stroke="none" fill="#000000" fill-rule="nonzero" /><path id="310" transform="matrix(1 0 0 -1 0 842)" d="M421.2813 242.293L421.7769 242.293L421.7769 216.0254L421.2813 216.0254z" stroke="none" fill="#000000" fill-rule="nonzero" /><path id="311" transform="matrix(1 0 0 -1 0 842)" d="M421.2813 242.293L471.3394 242.293L471.3394 241.7969L421.2813 241.7969z" stroke="none" fill="#000000" fill-rule="nonzero" /><path id="312" transform="matrix(1 0 0 -1 0 842)" d="M421.2813 216.5215L471.3394 216.5215L471.3394 216.0254L421.2813 216.0254z" stroke="none" fill="#000000" fill-rule="nonzero" /><path id="313" transform="matrix(1 0 0 -1 0 842)" d="M421.2813 242.293L421.7769 242.293L421.7769 216.0254L421.2813 216.0254z" stroke="none" fill="#000000" fill-rule="nonzero" /><path id="314" transform="matrix(1 0 0 -1 0 842)" d="M470.8438 242.293L471.3394 242.293L471.3394 216.0254L470.8438 216.0254z" stroke="none" fill="#000000" fill-rule="nonzero" /><path id="315" transform="matrix(1 0 0 -1 0 842)" d="M470.8438 242.293L545.1875 242.293L545.1875 241.7969L470.8438 241.7969z" stroke="none" fill="#000000" fill-rule="nonzero" /><path id="316" transform="matrix(1 0 0 -1 0 842)" d="M470.8438 216.5215L545.1875 216.5215L545.1875 216.0254L470.8438 216.0254z" stroke="none" fill="#000000" fill-rule="nonzero" /><path id="317" transform="matrix(1 0 0 -1 0 842)" d="M470.8438 242.293L471.3394 242.293L471.3394 216.0254L470.8438 216.0254z" stroke="none" fill="#000000" fill-rule="nonzero" /><path id="318" transform="matrix(1 0 0 -1 0 842)" d="M544.6919 242.293L545.1875 242.293L545.1875 216.0254L544.6919 216.0254z" stroke="none" fill="#000000" fill-rule="nonzero" /><path id="319" transform="matrix(1 0 0 -1 0 842)" d="M49.5625 216.5215L74.83938 216.5215L74.83938 216.0254L49.5625 216.0254z" stroke="none" fill="#000000" fill-rule="nonzero" /><path id="320" transform="matrix(1 0 0 -1 0 842)" d="M49.5625 155.5586L74.83938 155.5586L74.83938 155.0625L49.5625 155.0625z" stroke="none" fill="#000000" fill-rule="nonzero" /><path id="321" transform="matrix(1 0 0 -1 0 842)" d="M49.5625 216.5215L50.05813 216.5215L50.05813 155.0625L49.5625 155.0625z" stroke="none" fill="#000000" fill-rule="nonzero" /><path id="322" transform="matrix(1 0 0 -1 0 842)" d="M74.34375 216.5215L74.83938 216.5215L74.83938 155.0625L74.34375 155.0625z" stroke="none" fill="#000000" fill-rule="nonzero" /><path id="323" transform="matrix(1 0 0 -1 0 842)" d="M74.34375 216.5215L149.1831 216.5215L149.1831 216.0254L74.34375 216.0254z" stroke="none" fill="#000000" fill-rule="nonzero" /><path id="324" transform="matrix(1 0 0 -1 0 842)" d="M74.34375 155.5586L149.1831 155.5586L149.1831 155.0625L74.34375 155.0625z" stroke="none" fill="#000000" fill-rule="nonzero" /><path id="325" transform="matrix(1 0 0 -1 0 842)" d="M74.34375 216.5215L74.83938 216.5215L74.83938 155.0625L74.34375 155.0625z" stroke="none" fill="#000000" fill-rule="nonzero" /><path id="326" transform="matrix(1 0 0 -1 0 842)" d="M148.6875 216.5215L149.1831 216.5215L149.1831 155.0625L148.6875 155.0625z" stroke="none" fill="#000000" fill-rule="nonzero" /><path id="327" transform="matrix(1 0 0 -1 0 842)" d="M148.6875 216.5215L223.5269 216.5215L223.5269 216.0254L148.6875 216.0254z" stroke="none" fill="#000000" fill-rule="nonzero" /><path id="328" transform="matrix(1 0 0 -1 0 842)" d="M148.6875 155.5586L223.5269 155.5586L223.5269 155.0625L148.6875 155.0625z" stroke="none" fill="#000000" fill-rule="nonzero" /><path id="329" transform="matrix(1 0 0 -1 0 842)" d="M148.6875 216.5215L149.1831 216.5215L149.1831 155.0625L148.6875 155.0625z" stroke="none" fill="#000000" fill-rule="nonzero" /><path id="330" transform="matrix(1 0 0 -1 0 842)" d="M223.0313 216.5215L223.5269 216.5215L223.5269 155.0625L223.0313 155.0625z" stroke="none" fill="#000000" fill-rule="nonzero" /><path id="331" transform="matrix(1 0 0 -1 0 842)" d="M223.0313 216.5215L273.0894 216.5215L273.0894 216.0254L223.0313 216.0254z" stroke="none" fill="#000000" fill-rule="nonzero" /><path id="332" transform="matrix(1 0 0 -1 0 842)" d="M223.0313 155.5586L273.0894 155.5586L273.0894 155.0625L223.0313 155.0625z" stroke="none" fill="#000000" fill-rule="nonzero" /><path id="333" transform="matrix(1 0 0 -1 0 842)" d="M223.0313 216.5215L223.5269 216.5215L223.5269 155.0625L223.0313 155.0625z" stroke="none" fill="#000000" fill-rule="nonzero" /><path id="334" transform="matrix(1 0 0 -1 0 842)" d="M272.5938 216.5215L273.0894 216.5215L273.0894 155.0625L272.5938 155.0625z" stroke="none" fill="#000000" fill-rule="nonzero" /><path id="335" transform="matrix(1 0 0 -1 0 842)" d="M272.5938 216.5215L421.7769 216.5215L421.7769 216.0254L272.5938 216.0254z" stroke="none" fill="#000000" fill-rule="nonzero" /><path id="336" transform="matrix(1 0 0 -1 0 842)" d="M272.5938 155.5586L421.7769 155.5586L421.7769 155.0625L272.5938 155.0625z" stroke="none" fill="#000000" fill-rule="nonzero" /><path id="337" transform="matrix(1 0 0 -1 0 842)" d="M272.5938 216.5215L273.0894 216.5215L273.0894 155.0625L272.5938 155.0625z" stroke="none" fill="#000000" fill-rule="nonzero" /><path id="338" transform="matrix(1 0 0 -1 0 842)" d="M421.2813 216.5215L421.7769 216.5215L421.7769 155.0625L421.2813 155.0625z" stroke="none" fill="#000000" fill-rule="nonzero" /><path id="339" transform="matrix(1 0 0 -1 0 842)" d="M421.2813 216.5215L471.3394 216.5215L471.3394 216.0254L421.2813 216.0254z" stroke="none" fill="#000000" fill-rule="nonzero" /><path id="340" transform="matrix(1 0 0 -1 0 842)" d="M421.2813 155.5586L471.3394 155.5586L471.3394 155.0625L421.2813 155.0625z" stroke="none" fill="#000000" fill-rule="nonzero" /><path id="341" transform="matrix(1 0 0 -1 0 842)" d="M421.2813 216.5215L421.7769 216.5215L421.7769 155.0625L421.2813 155.0625z" stroke="none" fill="#000000" fill-rule="nonzero" /><path id="342" transform="matrix(1 0 0 -1 0 842)" d="M470.8438 216.5215L471.3394 216.5215L471.3394 155.0625L470.8438 155.0625z" stroke="none" fill="#000000" fill-rule="nonzero" /><path id="343" transform="matrix(1 0 0 -1 0 842)" d="M470.8438 216.5215L545.1875 216.5215L545.1875 216.0254L470.8438 216.0254z" stroke="none" fill="#000000" fill-rule="nonzero" /><path id="344" transform="matrix(1 0 0 -1 0 842)" d="M470.8438 155.5586L545.1875 155.5586L545.1875 155.0625L470.8438 155.0625z" stroke="none" fill="#000000" fill-rule="nonzero" /><path id="345" transform="matrix(1 0 0 -1 0 842)" d="M470.8438 216.5215L471.3394 216.5215L471.3394 155.0625L470.8438 155.0625z" stroke="none" fill="#000000" fill-rule="nonzero" /><path id="346" transform="matrix(1 0 0 -1 0 842)" d="M544.6919 216.5215L545.1875 216.5215L545.1875 155.0625L544.6919 155.0625z" stroke="none" fill="#000000" fill-rule="nonzero" /><path id="347" transform="matrix(1 0 0 -1 0 842)" d="M49.5625 155.5586L74.83938 155.5586L74.83938 155.0625L49.5625 155.0625z" stroke="none" fill="#000000" fill-rule="nonzero" /><path id="348" transform="matrix(1 0 0 -1 0 842)" d="M49.5625 118.3867L74.83938 118.3867L74.83938 117.8906L49.5625 117.8906z" stroke="none" fill="#000000" fill-rule="nonzero" /><path id="349" transform="matrix(1 0 0 -1 0 842)" d="M49.5625 155.5586L50.05813 155.5586L50.05813 117.8906L49.5625 117.8906z" stroke="none" fill="#000000" fill-rule="nonzero" /><path id="350" transform="matrix(1 0 0 -1 0 842)" d="M74.34375 155.5586L74.83938 155.5586L74.83938 117.8906L74.34375 117.8906z" stroke="none" fill="#000000" fill-rule="nonzero" /><path id="351" transform="matrix(1 0 0 -1 0 842)" d="M74.34375 155.5586L149.1831 155.5586L149.1831 155.0625L74.34375 155.0625z" stroke="none" fill="#000000" fill-rule="nonzero" /><path id="352" transform="matrix(1 0 0 -1 0 842)" d="M74.34375 118.3867L149.1831 118.3867L149.1831 117.8906L74.34375 117.8906z" stroke="none" fill="#000000" fill-rule="nonzero" /><path id="353" transform="matrix(1 0 0 -1 0 842)" d="M74.34375 155.5586L74.83938 155.5586L74.83938 117.8906L74.34375 117.8906z" stroke="none" fill="#000000" fill-rule="nonzero" /><path id="354" transform="matrix(1 0 0 -1 0 842)" d="M148.6875 155.5586L149.1831 155.5586L149.1831 117.8906L148.6875 117.8906z" stroke="none" fill="#000000" fill-rule="nonzero" /><path id="355" transform="matrix(1 0 0 -1 0 842)" d="M148.6875 155.5586L223.5269 155.5586L223.5269 155.0625L148.6875 155.0625z" stroke="none" fill="#000000" fill-rule="nonzero" /><path id="356" transform="matrix(1 0 0 -1 0 842)" d="M148.6875 118.3867L223.5269 118.3867L223.5269 117.8906L148.6875 117.8906z" stroke="none" fill="#000000" fill-rule="nonzero" /><path id="357" transform="matrix(1 0 0 -1 0 842)" d="M148.6875 155.5586L149.1831 155.5586L149.1831 117.8906L148.6875 117.8906z" stroke="none" fill="#000000" fill-rule="nonzero" /><path id="358" transform="matrix(1 0 0 -1 0 842)" d="M223.0313 155.5586L223.5269 155.5586L223.5269 117.8906L223.0313 117.8906z" stroke="none" fill="#000000" fill-rule="nonzero" /><path id="359" transform="matrix(1 0 0 -1 0 842)" d="M223.0313 155.5586L273.0894 155.5586L273.0894 155.0625L223.0313 155.0625z" stroke="none" fill="#000000" fill-rule="nonzero" /><path id="360" transform="matrix(1 0 0 -1 0 842)" d="M223.0313 118.3867L273.0894 118.3867L273.0894 117.8906L223.0313 117.8906z" stroke="none" fill="#000000" fill-rule="nonzero" /><path id="361" transform="matrix(1 0 0 -1 0 842)" d="M223.0313 155.5586L223.5269 155.5586L223.5269 117.8906L223.0313 117.8906z" stroke="none" fill="#000000" fill-rule="nonzero" /><path id="362" transform="matrix(1 0 0 -1 0 842)" d="M272.5938 155.5586L273.0894 155.5586L273.0894 117.8906L272.5938 117.8906z" stroke="none" fill="#000000" fill-rule="nonzero" /><path id="363" transform="matrix(1 0 0 -1 0 842)" d="M272.5938 155.5586L421.7769 155.5586L421.7769 155.0625L272.5938 155.0625z" stroke="none" fill="#000000" fill-rule="nonzero" /><path id="364" transform="matrix(1 0 0 -1 0 842)" d="M272.5938 118.3867L421.7769 118.3867L421.7769 117.8906L272.5938 117.8906z" stroke="none" fill="#000000" fill-rule="nonzero" /><path id="365" transform="matrix(1 0 0 -1 0 842)" d="M272.5938 155.5586L273.0894 155.5586L273.0894 117.8906L272.5938 117.8906z" stroke="none" fill="#000000" fill-rule="nonzero" /><path id="366" transform="matrix(1 0 0 -1 0 842)" d="M421.2813 155.5586L421.7769 155.5586L421.7769 117.8906L421.2813 117.8906z" stroke="none" fill="#000000" fill-rule="nonzero" /><path id="367" transform="matrix(1 0 0 -1 0 842)" d="M421.2813 155.5586L471.3394 155.5586L471.3394 155.0625L421.2813 155.0625z" stroke="none" fill="#000000" fill-rule="nonzero" /><path id="368" transform="matrix(1 0 0 -1 0 842)" d="M421.2813 118.3867L471.3394 118.3867L471.3394 117.8906L421.2813 117.8906z" stroke="none" fill="#000000" fill-rule="nonzero" /><path id="369" transform="matrix(1 0 0 -1 0 842)" d="M421.2813 155.5586L421.7769 155.5586L421.7769 117.8906L421.2813 117.8906z" stroke="none" fill="#000000" fill-rule="nonzero" /><path id="370" transform="matrix(1 0 0 -1 0 842)" d="M470.8438 155.5586L471.3394 155.5586L471.3394 117.8906L470.8438 117.8906z" stroke="none" fill="#000000" fill-rule="nonzero" /><path id="371" transform="matrix(1 0 0 -1 0 842)" d="M470.8438 155.5586L545.1875 155.5586L545.1875 155.0625L470.8438 155.0625z" stroke="none" fill="#000000" fill-rule="nonzero" /><path id="372" transform="matrix(1 0 0 -1 0 842)" d="M470.8438 118.3867L545.1875 118.3867L545.1875 117.8906L470.8438 117.8906z" stroke="none" fill="#000000" fill-rule="nonzero" /><path id="373" transform="matrix(1 0 0 -1 0 842)" d="M470.8438 155.5586L471.3394 155.5586L471.3394 117.8906L470.8438 117.8906z" stroke="none" fill="#000000" fill-rule="nonzero" /><path id="374" transform="matrix(1 0 0 -1 0 842)" d="M544.6919 155.5586L545.1875 155.5586L545.1875 117.8906L544.6919 117.8906z" stroke="none" fill="#000000" fill-rule="nonzero" /></g></g></g></svg>