<svg xmlns="http://www.w3.org/2000/svg" xmlns:xlink="http://www.w3.org/1999/xlink" id="body_24" preserveAspectRatio="xMinYMin meet" viewBox="0 0 793 1123"><defs><clipPath id="1"><path id="" clip-rule="evenodd" transform="matrix(1 0 0 1 0 0)" d="M0 842L0 0L0 0L595 0L595 0L595 842L595 842L0 842z" /></clipPath><clipPath id="2"><path id="" clip-rule="evenodd" transform="matrix(1 0 0 1 0 0)" d="M0 0L594.75 0L594.75 0L594.75 842.0669L594.75 842.0669L0 842.0669L0 842.0669L0 0z" /></clipPath></defs><g transform="matrix(1.333333 0 0 1.333333 0 0)"><g clip-path="url(#1)"><g clip-path="url(#2)"><path id="1" transform="matrix(1 0 0 -1 0 842)" d="M0 841.998L594.75 841.998L594.75 -0.06835938L0 -0.06835938z" stroke="none" fill="#FFFFFF" fill-rule="nonzero" /><path id="2" transform="matrix(1 0 0 -1 0 842)" d="M49.5625 789.4629L74.34375 789.4629L74.34375 763.6895L49.5625 763.6895z" stroke="none" fill="#9CC9F0" fill-rule="nonzero" /><path id="3" transform="matrix(1 0 0 -1 0 842)" d="M74.34375 789.4629L148.6875 789.4629L148.6875 763.6895L74.34375 763.6895z" stroke="none" fill="#9CC9F0" fill-rule="nonzero" /><path id="4" transform="matrix(1 0 0 -1 0 842)" d="M148.6875 789.4629L223.0313 789.4629L223.0313 763.6895L148.6875 763.6895z" stroke="none" fill="#9CC9F0" fill-rule="nonzero" /><path id="5" transform="matrix(1 0 0 -1 0 842)" d="M223.0313 789.4629L272.5938 789.4629L272.5938 763.6895L223.0313 763.6895z" stroke="none" fill="#9CC9F0" fill-rule="nonzero" /><path id="6" transform="matrix(1 0 0 -1 0 842)" d="M272.5938 789.4629L421.2813 789.4629L421.2813 763.6895L272.5938 763.6895z" stroke="none" fill="#9CC9F0" fill-rule="nonzero" /><path id="7" transform="matrix(1 0 0 -1 0 842)" d="M421.2813 789.4629L470.8438 789.4629L470.8438 763.6895L421.2813 763.6895z" stroke="none" fill="#9CC9F0" fill-rule="nonzero" /><path id="8" transform="matrix(1 0 0 -1 0 842)" d="M470.8438 789.4629L544.6919 789.4629L544.6919 763.6895L470.8438 763.6895z" stroke="none" fill="#9CC9F0" fill-rule="nonzero" /><path id="9" transform="matrix(1 0 0 -1 0 842)" d="M49.5625 789.4629L74.83938 789.4629L74.83938 788.9668L49.5625 788.9668z" stroke="none" fill="#000000" fill-rule="nonzero" /><path id="10" transform="matrix(1 0 0 -1 0 842)" d="M49.5625 763.6895L74.83938 763.6895L74.83938 763.1934L49.5625 763.1934z" stroke="none" fill="#000000" fill-rule="nonzero" /><path id="11" transform="matrix(1 0 0 -1 0 842)" d="M49.5625 789.4629L50.05813 789.4629L50.05813 763.1934L49.5625 763.1934z" stroke="none" fill="#000000" fill-rule="nonzero" /><path id="12" transform="matrix(1 0 0 -1 0 842)" d="M74.34375 789.4629L74.83938 789.4629L74.83938 763.1934L74.34375 763.1934z" stroke="none" fill="#000000" fill-rule="nonzero" /><path id="13" transform="matrix(1 0 0 -1 0 842)" d="M74.34375 789.4629L149.1831 789.4629L149.1831 788.9668L74.34375 788.9668z" stroke="none" fill="#000000" fill-rule="nonzero" /><path id="14" transform="matrix(1 0 0 -1 0 842)" d="M74.34375 763.6895L149.1831 763.6895L149.1831 763.1934L74.34375 763.1934z" stroke="none" fill="#000000" fill-rule="nonzero" /><path id="15" transform="matrix(1 0 0 -1 0 842)" d="M74.34375 789.4629L74.83938 789.4629L74.83938 763.1934L74.34375 763.1934z" stroke="none" fill="#000000" fill-rule="nonzero" /><path id="16" transform="matrix(1 0 0 -1 0 842)" d="M148.6875 789.4629L149.1831 789.4629L149.1831 763.1934L148.6875 763.1934z" stroke="none" fill="#000000" fill-rule="nonzero" /><path id="17" transform="matrix(1 0 0 -1 0 842)" d="M148.6875 789.4629L223.5269 789.4629L223.5269 788.9668L148.6875 788.9668z" stroke="none" fill="#000000" fill-rule="nonzero" /><path id="18" transform="matrix(1 0 0 -1 0 842)" d="M148.6875 763.6895L223.5269 763.6895L223.5269 763.1934L148.6875 763.1934z" stroke="none" fill="#000000" fill-rule="nonzero" /><path id="19" transform="matrix(1 0 0 -1 0 842)" d="M148.6875 789.4629L149.1831 789.4629L149.1831 763.1934L148.6875 763.1934z" stroke="none" fill="#000000" fill-rule="nonzero" /><path id="20" transform="matrix(1 0 0 -1 0 842)" d="M223.0313 789.4629L223.5269 789.4629L223.5269 763.1934L223.0313 763.1934z" stroke="none" fill="#000000" fill-rule="nonzero" /><path id="21" transform="matrix(1 0 0 -1 0 842)" d="M223.0313 789.4629L273.0894 789.4629L273.0894 788.9668L223.0313 788.9668z" stroke="none" fill="#000000" fill-rule="nonzero" /><path id="22" transform="matrix(1 0 0 -1 0 842)" d="M223.0313 763.6895L273.0894 763.6895L273.0894 763.1934L223.0313 763.1934z" stroke="none" fill="#000000" fill-rule="nonzero" /><path id="23" transform="matrix(1 0 0 -1 0 842)" d="M223.0313 789.4629L223.5269 789.4629L223.5269 763.1934L223.0313 763.1934z" stroke="none" fill="#000000" fill-rule="nonzero" /><path id="24" transform="matrix(1 0 0 -1 0 842)" d="M272.5938 789.4629L273.0894 789.4629L273.0894 763.1934L272.5938 763.1934z" stroke="none" fill="#000000" fill-rule="nonzero" /><path id="25" transform="matrix(1 0 0 -1 0 842)" d="M272.5938 789.4629L421.7769 789.4629L421.7769 788.9668L272.5938 788.9668z" stroke="none" fill="#000000" fill-rule="nonzero" /><path id="26" transform="matrix(1 0 0 -1 0 842)" d="M272.5938 763.6895L421.7769 763.6895L421.7769 763.1934L272.5938 763.1934z" stroke="none" fill="#000000" fill-rule="nonzero" /><path id="27" transform="matrix(1 0 0 -1 0 842)" d="M272.5938 789.4629L273.0894 789.4629L273.0894 763.1934L272.5938 763.1934z" stroke="none" fill="#000000" fill-rule="nonzero" /><path id="28" transform="matrix(1 0 0 -1 0 842)" d="M421.2813 789.4629L421.7769 789.4629L421.7769 763.1934L421.2813 763.1934z" stroke="none" fill="#000000" fill-rule="nonzero" /><path id="29" transform="matrix(1 0 0 -1 0 842)" d="M421.2813 789.4629L471.3394 789.4629L471.3394 788.9668L421.2813 788.9668z" stroke="none" fill="#000000" fill-rule="nonzero" /><path id="30" transform="matrix(1 0 0 -1 0 842)" d="M421.2813 763.6895L471.3394 763.6895L471.3394 763.1934L421.2813 763.1934z" stroke="none" fill="#000000" fill-rule="nonzero" /><path id="31" transform="matrix(1 0 0 -1 0 842)" d="M421.2813 789.4629L421.7769 789.4629L421.7769 763.1934L421.2813 763.1934z" stroke="none" fill="#000000" fill-rule="nonzero" /><path id="32" transform="matrix(1 0 0 -1 0 842)" d="M470.8438 789.4629L471.3394 789.4629L471.3394 763.1934L470.8438 763.1934z" stroke="none" fill="#000000" fill-rule="nonzero" /><path id="33" transform="matrix(1 0 0 -1 0 842)" d="M470.8438 789.4629L545.1875 789.4629L545.1875 788.9668L470.8438 788.9668z" stroke="none" fill="#000000" fill-rule="nonzero" /><path id="34" transform="matrix(1 0 0 -1 0 842)" d="M470.8438 763.6895L545.1875 763.6895L545.1875 763.1934L470.8438 763.1934z" stroke="none" fill="#000000" fill-rule="nonzero" /><path id="35" transform="matrix(1 0 0 -1 0 842)" d="M470.8438 789.4629L471.3394 789.4629L471.3394 763.1934L470.8438 763.1934z" stroke="none" fill="#000000" fill-rule="nonzero" /><path id="36" transform="matrix(1 0 0 -1 0 842)" d="M544.6919 789.4629L545.1875 789.4629L545.1875 763.1934L544.6919 763.1934z" stroke="none" fill="#000000" fill-rule="nonzero" /><path id="37" transform="matrix(1 0 0 -1 0 842)" d="M49.5625 763.6895L74.83938 763.6895L74.83938 763.1934L49.5625 763.1934z" stroke="none" fill="#000000" fill-rule="nonzero" /><path id="38" transform="matrix(1 0 0 -1 0 842)" d="M49.5625 729.4922L74.83938 729.4922L74.83938 728.9961L49.5625 728.9961z" stroke="none" fill="#000000" fill-rule="nonzero" /><path id="39" transform="matrix(1 0 0 -1 0 842)" d="M49.5625 763.6895L50.05813 763.6895L50.05813 728.9961L49.5625 728.9961z" stroke="none" fill="#000000" fill-rule="nonzero" /><path id="40" transform="matrix(1 0 0 -1 0 842)" d="M74.34375 763.6895L74.83938 763.6895L74.83938 728.9961L74.34375 728.9961z" stroke="none" fill="#000000" fill-rule="nonzero" /><path id="41" transform="matrix(1 0 0 -1 0 842)" d="M74.34375 763.6895L149.1831 763.6895L149.1831 763.1934L74.34375 763.1934z" stroke="none" fill="#000000" fill-rule="nonzero" /><path id="42" transform="matrix(1 0 0 -1 0 842)" d="M74.34375 729.4922L149.1831 729.4922L149.1831 728.9961L74.34375 728.9961z" stroke="none" fill="#000000" fill-rule="nonzero" /><path id="43" transform="matrix(1 0 0 -1 0 842)" d="M74.34375 763.6895L74.83938 763.6895L74.83938 728.9961L74.34375 728.9961z" stroke="none" fill="#000000" fill-rule="nonzero" /><path id="44" transform="matrix(1 0 0 -1 0 842)" d="M148.6875 763.6895L149.1831 763.6895L149.1831 728.9961L148.6875 728.9961z" stroke="none" fill="#000000" fill-rule="nonzero" /><path id="45" transform="matrix(1 0 0 -1 0 842)" d="M148.6875 763.6895L223.5269 763.6895L223.5269 763.1934L148.6875 763.1934z" stroke="none" fill="#000000" fill-rule="nonzero" /><path id="46" transform="matrix(1 0 0 -1 0 842)" d="M148.6875 729.4922L223.5269 729.4922L223.5269 728.9961L148.6875 728.9961z" stroke="none" fill="#000000" fill-rule="nonzero" /><path id="47" transform="matrix(1 0 0 -1 0 842)" d="M148.6875 763.6895L149.1831 763.6895L149.1831 728.9961L148.6875 728.9961z" stroke="none" fill="#000000" fill-rule="nonzero" /><path id="48" transform="matrix(1 0 0 -1 0 842)" d="M223.0313 763.6895L223.5269 763.6895L223.5269 728.9961L223.0313 728.9961z" stroke="none" fill="#000000" fill-rule="nonzero" /><path id="49" transform="matrix(1 0 0 -1 0 842)" d="M223.0313 763.6895L273.0894 763.6895L273.0894 763.1934L223.0313 763.1934z" stroke="none" fill="#000000" fill-rule="nonzero" /><path id="50" transform="matrix(1 0 0 -1 0 842)" d="M223.0313 729.4922L273.0894 729.4922L273.0894 728.9961L223.0313 728.9961z" stroke="none" fill="#000000" fill-rule="nonzero" /><path id="51" transform="matrix(1 0 0 -1 0 842)" d="M223.0313 763.6895L223.5269 763.6895L223.5269 728.9961L223.0313 728.9961z" stroke="none" fill="#000000" fill-rule="nonzero" /><path id="52" transform="matrix(1 0 0 -1 0 842)" d="M272.5938 763.6895L273.0894 763.6895L273.0894 728.9961L272.5938 728.9961z" stroke="none" fill="#000000" fill-rule="nonzero" /><path id="53" transform="matrix(1 0 0 -1 0 842)" d="M272.5938 763.6895L421.7769 763.6895L421.7769 763.1934L272.5938 763.1934z" stroke="none" fill="#000000" fill-rule="nonzero" /><path id="54" transform="matrix(1 0 0 -1 0 842)" d="M272.5938 729.4922L421.7769 729.4922L421.7769 728.9961L272.5938 728.9961z" stroke="none" fill="#000000" fill-rule="nonzero" /><path id="55" transform="matrix(1 0 0 -1 0 842)" d="M272.5938 763.6895L273.0894 763.6895L273.0894 728.9961L272.5938 728.9961z" stroke="none" fill="#000000" fill-rule="nonzero" /><path id="56" transform="matrix(1 0 0 -1 0 842)" d="M421.2813 763.6895L421.7769 763.6895L421.7769 728.9961L421.2813 728.9961z" stroke="none" fill="#000000" fill-rule="nonzero" /><path id="57" transform="matrix(1 0 0 -1 0 842)" d="M421.2813 763.6895L471.3394 763.6895L471.3394 763.1934L421.2813 763.1934z" stroke="none" fill="#000000" fill-rule="nonzero" /><path id="58" transform="matrix(1 0 0 -1 0 842)" d="M421.2813 729.4922L471.3394 729.4922L471.3394 728.9961L421.2813 728.9961z" stroke="none" fill="#000000" fill-rule="nonzero" /><path id="59" transform="matrix(1 0 0 -1 0 842)" d="M421.2813 763.6895L421.7769 763.6895L421.7769 728.9961L421.2813 728.9961z" stroke="none" fill="#000000" fill-rule="nonzero" /><path id="60" transform="matrix(1 0 0 -1 0 842)" d="M470.8438 763.6895L471.3394 763.6895L471.3394 728.9961L470.8438 728.9961z" stroke="none" fill="#000000" fill-rule="nonzero" /><path id="61" transform="matrix(1 0 0 -1 0 842)" d="M470.8438 763.6895L545.1875 763.6895L545.1875 763.1934L470.8438 763.1934z" stroke="none" fill="#000000" fill-rule="nonzero" /><path id="62" transform="matrix(1 0 0 -1 0 842)" d="M470.8438 729.4922L545.1875 729.4922L545.1875 728.9961L470.8438 728.9961z" stroke="none" fill="#000000" fill-rule="nonzero" /><path id="63" transform="matrix(1 0 0 -1 0 842)" d="M470.8438 763.6895L471.3394 763.6895L471.3394 728.9961L470.8438 728.9961z" stroke="none" fill="#000000" fill-rule="nonzero" /><path id="64" transform="matrix(1 0 0 -1 0 842)" d="M544.6919 763.6895L545.1875 763.6895L545.1875 728.9961L544.6919 728.9961z" stroke="none" fill="#000000" fill-rule="nonzero" /><path id="65" transform="matrix(1 0 0 -1 0 842)" d="M49.5625 729.4922L74.83938 729.4922L74.83938 728.9961L49.5625 728.9961z" stroke="none" fill="#000000" fill-rule="nonzero" /><path id="66" transform="matrix(1 0 0 -1 0 842)" d="M49.5625 703.7188L74.83938 703.7188L74.83938 703.2227L49.5625 703.2227z" stroke="none" fill="#000000" fill-rule="nonzero" /><path id="67" transform="matrix(1 0 0 -1 0 842)" d="M49.5625 729.4922L50.05813 729.4922L50.05813 703.2227L49.5625 703.2227z" stroke="none" fill="#000000" fill-rule="nonzero" /><path id="68" transform="matrix(1 0 0 -1 0 842)" d="M74.34375 729.4922L74.83938 729.4922L74.83938 703.2227L74.34375 703.2227z" stroke="none" fill="#000000" fill-rule="nonzero" /><path id="69" transform="matrix(1 0 0 -1 0 842)" d="M74.34375 729.4922L149.1831 729.4922L149.1831 728.9961L74.34375 728.9961z" stroke="none" fill="#000000" fill-rule="nonzero" /><path id="70" transform="matrix(1 0 0 -1 0 842)" d="M74.34375 703.7188L149.1831 703.7188L149.1831 703.2227L74.34375 703.2227z" stroke="none" fill="#000000" fill-rule="nonzero" /><path id="71" transform="matrix(1 0 0 -1 0 842)" d="M74.34375 729.4922L74.83938 729.4922L74.83938 703.2227L74.34375 703.2227z" stroke="none" fill="#000000" fill-rule="nonzero" /><path id="72" transform="matrix(1 0 0 -1 0 842)" d="M148.6875 729.4922L149.1831 729.4922L149.1831 703.2227L148.6875 703.2227z" stroke="none" fill="#000000" fill-rule="nonzero" /><path id="73" transform="matrix(1 0 0 -1 0 842)" d="M148.6875 729.4922L223.5269 729.4922L223.5269 728.9961L148.6875 728.9961z" stroke="none" fill="#000000" fill-rule="nonzero" /><path id="74" transform="matrix(1 0 0 -1 0 842)" d="M148.6875 703.7188L223.5269 703.7188L223.5269 703.2227L148.6875 703.2227z" stroke="none" fill="#000000" fill-rule="nonzero" /><path id="75" transform="matrix(1 0 0 -1 0 842)" d="M148.6875 729.4922L149.1831 729.4922L149.1831 703.2227L148.6875 703.2227z" stroke="none" fill="#000000" fill-rule="nonzero" /><path id="76" transform="matrix(1 0 0 -1 0 842)" d="M223.0313 729.4922L223.5269 729.4922L223.5269 703.2227L223.0313 703.2227z" stroke="none" fill="#000000" fill-rule="nonzero" /><path id="77" transform="matrix(1 0 0 -1 0 842)" d="M223.0313 729.4922L273.0894 729.4922L273.0894 728.9961L223.0313 728.9961z" stroke="none" fill="#000000" fill-rule="nonzero" /><path id="78" transform="matrix(1 0 0 -1 0 842)" d="M223.0313 703.7188L273.0894 703.7188L273.0894 703.2227L223.0313 703.2227z" stroke="none" fill="#000000" fill-rule="nonzero" /><path id="79" transform="matrix(1 0 0 -1 0 842)" d="M223.0313 729.4922L223.5269 729.4922L223.5269 703.2227L223.0313 703.2227z" stroke="none" fill="#000000" fill-rule="nonzero" /><path id="80" transform="matrix(1 0 0 -1 0 842)" d="M272.5938 729.4922L273.0894 729.4922L273.0894 703.2227L272.5938 703.2227z" stroke="none" fill="#000000" fill-rule="nonzero" /><path id="81" transform="matrix(1 0 0 -1 0 842)" d="M272.5938 729.4922L421.7769 729.4922L421.7769 728.9961L272.5938 728.9961z" stroke="none" fill="#000000" fill-rule="nonzero" /><path id="82" transform="matrix(1 0 0 -1 0 842)" d="M272.5938 703.7188L421.7769 703.7188L421.7769 703.2227L272.5938 703.2227z" stroke="none" fill="#000000" fill-rule="nonzero" /><path id="83" transform="matrix(1 0 0 -1 0 842)" d="M272.5938 729.4922L273.0894 729.4922L273.0894 703.2227L272.5938 703.2227z" stroke="none" fill="#000000" fill-rule="nonzero" /><path id="84" transform="matrix(1 0 0 -1 0 842)" d="M421.2813 729.4922L421.7769 729.4922L421.7769 703.2227L421.2813 703.2227z" stroke="none" fill="#000000" fill-rule="nonzero" /><path id="85" transform="matrix(1 0 0 -1 0 842)" d="M421.2813 729.4922L471.3394 729.4922L471.3394 728.9961L421.2813 728.9961z" stroke="none" fill="#000000" fill-rule="nonzero" /><path id="86" transform="matrix(1 0 0 -1 0 842)" d="M421.2813 703.7188L471.3394 703.7188L471.3394 703.2227L421.2813 703.2227z" stroke="none" fill="#000000" fill-rule="nonzero" /><path id="87" transform="matrix(1 0 0 -1 0 842)" d="M421.2813 729.4922L421.7769 729.4922L421.7769 703.2227L421.2813 703.2227z" stroke="none" fill="#000000" fill-rule="nonzero" /><path id="88" transform="matrix(1 0 0 -1 0 842)" d="M470.8438 729.4922L471.3394 729.4922L471.3394 703.2227L470.8438 703.2227z" stroke="none" fill="#000000" fill-rule="nonzero" /><path id="89" transform="matrix(1 0 0 -1 0 842)" d="M470.8438 729.4922L545.1875 729.4922L545.1875 728.9961L470.8438 728.9961z" stroke="none" fill="#000000" fill-rule="nonzero" /><path id="90" transform="matrix(1 0 0 -1 0 842)" d="M470.8438 703.7188L545.1875 703.7188L545.1875 703.2227L470.8438 703.2227z" stroke="none" fill="#000000" fill-rule="nonzero" /><path id="91" transform="matrix(1 0 0 -1 0 842)" d="M470.8438 729.4922L471.3394 729.4922L471.3394 703.2227L470.8438 703.2227z" stroke="none" fill="#000000" fill-rule="nonzero" /><path id="92" transform="matrix(1 0 0 -1 0 842)" d="M544.6919 729.4922L545.1875 729.4922L545.1875 703.2227L544.6919 703.2227z" stroke="none" fill="#000000" fill-rule="nonzero" /><path id="93" transform="matrix(1 0 0 -1 0 842)" d="M49.5625 703.7188L74.83938 703.7188L74.83938 703.2227L49.5625 703.2227z" stroke="none" fill="#000000" fill-rule="nonzero" /><path id="94" transform="matrix(1 0 0 -1 0 842)" d="M49.5625 643.748L74.83938 643.748L74.83938 643.252L49.5625 643.252z" stroke="none" fill="#000000" fill-rule="nonzero" /><path id="95" transform="matrix(1 0 0 -1 0 842)" d="M49.5625 703.7188L50.05813 703.7188L50.05813 643.252L49.5625 643.252z" stroke="none" fill="#000000" fill-rule="nonzero" /><path id="96" transform="matrix(1 0 0 -1 0 842)" d="M74.34375 703.7188L74.83938 703.7188L74.83938 643.252L74.34375 643.252z" stroke="none" fill="#000000" fill-rule="nonzero" /><path id="97" transform="matrix(1 0 0 -1 0 842)" d="M74.34375 703.7188L149.1831 703.7188L149.1831 703.2227L74.34375 703.2227z" stroke="none" fill="#000000" fill-rule="nonzero" /><path id="98" transform="matrix(1 0 0 -1 0 842)" d="M74.34375 643.748L149.1831 643.748L149.1831 643.252L74.34375 643.252z" stroke="none" fill="#000000" fill-rule="nonzero" /><path id="99" transform="matrix(1 0 0 -1 0 842)" d="M74.34375 703.7188L74.83938 703.7188L74.83938 643.252L74.34375 643.252z" stroke="none" fill="#000000" fill-rule="nonzero" /><path id="100" transform="matrix(1 0 0 -1 0 842)" d="M148.6875 703.7188L149.1831 703.7188L149.1831 643.252L148.6875 643.252z" stroke="none" fill="#000000" fill-rule="nonzero" /><path id="101" transform="matrix(1 0 0 -1 0 842)" d="M148.6875 703.7188L223.5269 703.7188L223.5269 703.2227L148.6875 703.2227z" stroke="none" fill="#000000" fill-rule="nonzero" /><path id="102" transform="matrix(1 0 0 -1 0 842)" d="M148.6875 669.5215L223.5269 669.5215L223.5269 669.0254L148.6875 669.0254z" stroke="none" fill="#000000" fill-rule="nonzero" /><path id="103" transform="matrix(1 0 0 -1 0 842)" d="M148.6875 703.7188L149.1831 703.7188L149.1831 669.0254L148.6875 669.0254z" stroke="none" fill="#000000" fill-rule="nonzero" /><path id="104" transform="matrix(1 0 0 -1 0 842)" d="M223.0313 703.7188L223.5269 703.7188L223.5269 669.0254L223.0313 669.0254z" stroke="none" fill="#000000" fill-rule="nonzero" /><path id="105" transform="matrix(1 0 0 -1 0 842)" d="M223.0313 703.7188L273.0894 703.7188L273.0894 703.2227L223.0313 703.2227z" stroke="none" fill="#000000" fill-rule="nonzero" /><path id="106" transform="matrix(1 0 0 -1 0 842)" d="M223.0313 669.5215L273.0894 669.5215L273.0894 669.0254L223.0313 669.0254z" stroke="none" fill="#000000" fill-rule="nonzero" /><path id="107" transform="matrix(1 0 0 -1 0 842)" d="M223.0313 703.7188L223.5269 703.7188L223.5269 669.0254L223.0313 669.0254z" stroke="none" fill="#000000" fill-rule="nonzero" /><path id="108" transform="matrix(1 0 0 -1 0 842)" d="M272.5938 703.7188L273.0894 703.7188L273.0894 669.0254L272.5938 669.0254z" stroke="none" fill="#000000" fill-rule="nonzero" /><path id="109" transform="matrix(1 0 0 -1 0 842)" d="M272.5938 703.7188L421.7769 703.7188L421.7769 703.2227L272.5938 703.2227z" stroke="none" fill="#000000" fill-rule="nonzero" /><path id="110" transform="matrix(1 0 0 -1 0 842)" d="M272.5938 669.5215L421.7769 669.5215L421.7769 669.0254L272.5938 669.0254z" stroke="none" fill="#000000" fill-rule="nonzero" /><path id="111" transform="matrix(1 0 0 -1 0 842)" d="M272.5938 703.7188L273.0894 703.7188L273.0894 669.0254L272.5938 669.0254z" stroke="none" fill="#000000" fill-rule="nonzero" /><path id="112" transform="matrix(1 0 0 -1 0 842)" d="M421.2813 703.7188L421.7769 703.7188L421.7769 669.0254L421.2813 669.0254z" stroke="none" fill="#000000" fill-rule="nonzero" /><path id="113" transform="matrix(1 0 0 -1 0 842)" d="M421.2813 703.7188L471.3394 703.7188L471.3394 703.2227L421.2813 703.2227z" stroke="none" fill="#000000" fill-rule="nonzero" /><path id="114" transform="matrix(1 0 0 -1 0 842)" d="M421.2813 669.5215L471.3394 669.5215L471.3394 669.0254L421.2813 669.0254z" stroke="none" fill="#000000" fill-rule="nonzero" /><path id="115" transform="matrix(1 0 0 -1 0 842)" d="M421.2813 703.7188L421.7769 703.7188L421.7769 669.0254L421.2813 669.0254z" stroke="none" fill="#000000" fill-rule="nonzero" /><path id="116" transform="matrix(1 0 0 -1 0 842)" d="M470.8438 703.7188L471.3394 703.7188L471.3394 669.0254L470.8438 669.0254z" stroke="none" fill="#000000" fill-rule="nonzero" /><path id="117" transform="matrix(1 0 0 -1 0 842)" d="M470.8438 703.7188L545.1875 703.7188L545.1875 703.2227L470.8438 703.2227z" stroke="none" fill="#000000" fill-rule="nonzero" /><path id="118" transform="matrix(1 0 0 -1 0 842)" d="M470.8438 643.748L545.1875 643.748L545.1875 643.252L470.8438 643.252z" stroke="none" fill="#000000" fill-rule="nonzero" /><path id="119" transform="matrix(1 0 0 -1 0 842)" d="M470.8438 703.7188L471.3394 703.7188L471.3394 643.252L470.8438 643.252z" stroke="none" fill="#000000" fill-rule="nonzero" /><path id="120" transform="matrix(1 0 0 -1 0 842)" d="M544.6919 703.7188L545.1875 703.7188L545.1875 643.252L544.6919 643.252z" stroke="none" fill="#000000" fill-rule="nonzero" /><path id="121" transform="matrix(1 0 0 -1 0 842)" d="M148.6875 669.5215L223.5269 669.5215L223.5269 669.0254L148.6875 669.0254z" stroke="none" fill="#000000" fill-rule="nonzero" /><path id="122" transform="matrix(1 0 0 -1 0 842)" d="M148.6875 643.748L223.5269 643.748L223.5269 643.252L148.6875 643.252z" stroke="none" fill="#000000" fill-rule="nonzero" /><path id="123" transform="matrix(1 0 0 -1 0 842)" d="M148.6875 669.5215L149.1831 669.5215L149.1831 643.252L148.6875 643.252z" stroke="none" fill="#000000" fill-rule="nonzero" /><path id="124" transform="matrix(1 0 0 -1 0 842)" d="M223.0313 669.5215L223.5269 669.5215L223.5269 643.252L223.0313 643.252z" stroke="none" fill="#000000" fill-rule="nonzero" /><path id="125" transform="matrix(1 0 0 -1 0 842)" d="M223.0313 669.5215L273.0894 669.5215L273.0894 669.0254L223.0313 669.0254z" stroke="none" fill="#000000" fill-rule="nonzero" /><path id="126" transform="matrix(1 0 0 -1 0 842)" d="M223.0313 643.748L273.0894 643.748L273.0894 643.252L223.0313 643.252z" stroke="none" fill="#000000" fill-rule="nonzero" /><path id="127" transform="matrix(1 0 0 -1 0 842)" d="M223.0313 669.5215L223.5269 669.5215L223.5269 643.252L223.0313 643.252z" stroke="none" fill="#000000" fill-rule="nonzero" /><path id="128" transform="matrix(1 0 0 -1 0 842)" d="M272.5938 669.5215L273.0894 669.5215L273.0894 643.252L272.5938 643.252z" stroke="none" fill="#000000" fill-rule="nonzero" /><path id="129" transform="matrix(1 0 0 -1 0 842)" d="M272.5938 669.5215L421.7769 669.5215L421.7769 669.0254L272.5938 669.0254z" stroke="none" fill="#000000" fill-rule="nonzero" /><path id="130" transform="matrix(1 0 0 -1 0 842)" d="M272.5938 643.748L421.7769 643.748L421.7769 643.252L272.5938 643.252z" stroke="none" fill="#000000" fill-rule="nonzero" /><path id="131" transform="matrix(1 0 0 -1 0 842)" d="M272.5938 669.5215L273.0894 669.5215L273.0894 643.252L272.5938 643.252z" stroke="none" fill="#000000" fill-rule="nonzero" /><path id="132" transform="matrix(1 0 0 -1 0 842)" d="M421.2813 669.5215L421.7769 669.5215L421.7769 643.252L421.2813 643.252z" stroke="none" fill="#000000" fill-rule="nonzero" /><path id="133" transform="matrix(1 0 0 -1 0 842)" d="M421.2813 669.5215L471.3394 669.5215L471.3394 669.0254L421.2813 669.0254z" stroke="none" fill="#000000" fill-rule="nonzero" /><path id="134" transform="matrix(1 0 0 -1 0 842)" d="M421.2813 643.748L471.3394 643.748L471.3394 643.252L421.2813 643.252z" stroke="none" fill="#000000" fill-rule="nonzero" /><path id="135" transform="matrix(1 0 0 -1 0 842)" d="M421.2813 669.5215L421.7769 669.5215L421.7769 643.252L421.2813 643.252z" stroke="none" fill="#000000" fill-rule="nonzero" /><path id="136" transform="matrix(1 0 0 -1 0 842)" d="M470.8438 669.5215L471.3394 669.5215L471.3394 643.252L470.8438 643.252z" stroke="none" fill="#000000" fill-rule="nonzero" /><path id="137" transform="matrix(1 0 0 -1 0 842)" d="M49.5625 643.748L74.83938 643.748L74.83938 643.252L49.5625 643.252z" stroke="none" fill="#000000" fill-rule="nonzero" /><path id="138" transform="matrix(1 0 0 -1 0 842)" d="M49.5625 508.4434L74.83938 508.4434L74.83938 507.9473L49.5625 507.9473z" stroke="none" fill="#000000" fill-rule="nonzero" /><path id="139" transform="matrix(1 0 0 -1 0 842)" d="M49.5625 643.748L50.05813 643.748L50.05813 507.9473L49.5625 507.9473z" stroke="none" fill="#000000" fill-rule="nonzero" /><path id="140" transform="matrix(1 0 0 -1 0 842)" d="M74.34375 643.748L74.83938 643.748L74.83938 507.9473L74.34375 507.9473z" stroke="none" fill="#000000" fill-rule="nonzero" /><path id="141" transform="matrix(1 0 0 -1 0 842)" d="M74.34375 643.748L149.1831 643.748L149.1831 643.252L74.34375 643.252z" stroke="none" fill="#000000" fill-rule="nonzero" /><path id="142" transform="matrix(1 0 0 -1 0 842)" d="M74.34375 508.4434L149.1831 508.4434L149.1831 507.9473L74.34375 507.9473z" stroke="none" fill="#000000" fill-rule="nonzero" /><path id="143" transform="matrix(1 0 0 -1 0 842)" d="M74.34375 643.748L74.83938 643.748L74.83938 507.9473L74.34375 507.9473z" stroke="none" fill="#000000" fill-rule="nonzero" /><path id="144" transform="matrix(1 0 0 -1 0 842)" d="M148.6875 643.748L149.1831 643.748L149.1831 507.9473L148.6875 507.9473z" stroke="none" fill="#000000" fill-rule="nonzero" /><path id="145" transform="matrix(1 0 0 -1 0 842)" d="M148.6875 643.748L223.5269 643.748L223.5269 643.252L148.6875 643.252z" stroke="none" fill="#000000" fill-rule="nonzero" /><path id="146" transform="matrix(1 0 0 -1 0 842)" d="M148.6875 542.6406L223.5269 542.6406L223.5269 542.1445L148.6875 542.1445z" stroke="none" fill="#000000" fill-rule="nonzero" /><path id="147" transform="matrix(1 0 0 -1 0 842)" d="M148.6875 643.748L149.1831 643.748L149.1831 542.1445L148.6875 542.1445z" stroke="none" fill="#000000" fill-rule="nonzero" /><path id="148" transform="matrix(1 0 0 -1 0 842)" d="M223.0313 643.748L223.5269 643.748L223.5269 542.1445L223.0313 542.1445z" stroke="none" fill="#000000" fill-rule="nonzero" /><path id="149" transform="matrix(1 0 0 -1 0 842)" d="M223.0313 643.748L273.0894 643.748L273.0894 643.252L223.0313 643.252z" stroke="none" fill="#000000" fill-rule="nonzero" /><path id="150" transform="matrix(1 0 0 -1 0 842)" d="M223.0313 542.6406L273.0894 542.6406L273.0894 542.1445L223.0313 542.1445z" stroke="none" fill="#000000" fill-rule="nonzero" /><path id="151" transform="matrix(1 0 0 -1 0 842)" d="M223.0313 643.748L223.5269 643.748L223.5269 542.1445L223.0313 542.1445z" stroke="none" fill="#000000" fill-rule="nonzero" /><path id="152" transform="matrix(1 0 0 -1 0 842)" d="M272.5938 643.748L273.0894 643.748L273.0894 542.1445L272.5938 542.1445z" stroke="none" fill="#000000" fill-rule="nonzero" /><path id="153" transform="matrix(1 0 0 -1 0 842)" d="M272.5938 643.748L421.7769 643.748L421.7769 643.252L272.5938 643.252z" stroke="none" fill="#000000" fill-rule="nonzero" /><path id="154" transform="matrix(1 0 0 -1 0 842)" d="M272.5938 542.6406L421.7769 542.6406L421.7769 542.1445L272.5938 542.1445z" stroke="none" fill="#000000" fill-rule="nonzero" /><path id="155" transform="matrix(1 0 0 -1 0 842)" d="M272.5938 643.748L273.0894 643.748L273.0894 542.1445L272.5938 542.1445z" stroke="none" fill="#000000" fill-rule="nonzero" /><path id="156" transform="matrix(1 0 0 -1 0 842)" d="M421.2813 643.748L421.7769 643.748L421.7769 542.1445L421.2813 542.1445z" stroke="none" fill="#000000" fill-rule="nonzero" /><path id="157" transform="matrix(1 0 0 -1 0 842)" d="M421.2813 643.748L471.3394 643.748L471.3394 643.252L421.2813 643.252z" stroke="none" fill="#000000" fill-rule="nonzero" /><path id="158" transform="matrix(1 0 0 -1 0 842)" d="M421.2813 542.6406L471.3394 542.6406L471.3394 542.1445L421.2813 542.1445z" stroke="none" fill="#000000" fill-rule="nonzero" /><path id="159" transform="matrix(1 0 0 -1 0 842)" d="M421.2813 643.748L421.7769 643.748L421.7769 542.1445L421.2813 542.1445z" stroke="none" fill="#000000" fill-rule="nonzero" /><path id="160" transform="matrix(1 0 0 -1 0 842)" d="M470.8438 643.748L471.3394 643.748L471.3394 542.1445L470.8438 542.1445z" stroke="none" fill="#000000" fill-rule="nonzero" /><path id="161" transform="matrix(1 0 0 -1 0 842)" d="M470.8438 643.748L545.1875 643.748L545.1875 643.252L470.8438 643.252z" stroke="none" fill="#000000" fill-rule="nonzero" /><path id="162" transform="matrix(1 0 0 -1 0 842)" d="M470.8438 508.4434L545.1875 508.4434L545.1875 507.9473L470.8438 507.9473z" stroke="none" fill="#000000" fill-rule="nonzero" /><path id="163" transform="matrix(1 0 0 -1 0 842)" d="M470.8438 643.748L471.3394 643.748L471.3394 507.9473L470.8438 507.9473z" stroke="none" fill="#000000" fill-rule="nonzero" /><path id="164" transform="matrix(1 0 0 -1 0 842)" d="M544.6919 643.748L545.1875 643.748L545.1875 507.9473L544.6919 507.9473z" stroke="none" fill="#000000" fill-rule="nonzero" /><path id="165" transform="matrix(1 0 0 -1 0 842)" d="M148.6875 542.6406L223.5269 542.6406L223.5269 542.1445L148.6875 542.1445z" stroke="none" fill="#000000" fill-rule="nonzero" /><path id="166" transform="matrix(1 0 0 -1 0 842)" d="M148.6875 508.4434L223.5269 508.4434L223.5269 507.9473L148.6875 507.9473z" stroke="none" fill="#000000" fill-rule="nonzero" /><path id="167" transform="matrix(1 0 0 -1 0 842)" d="M148.6875 542.6406L149.1831 542.6406L149.1831 507.9473L148.6875 507.9473z" stroke="none" fill="#000000" fill-rule="nonzero" /><path id="168" transform="matrix(1 0 0 -1 0 842)" d="M223.0313 542.6406L223.5269 542.6406L223.5269 507.9473L223.0313 507.9473z" stroke="none" fill="#000000" fill-rule="nonzero" /><path id="169" transform="matrix(1 0 0 -1 0 842)" d="M223.0313 542.6406L273.0894 542.6406L273.0894 542.1445L223.0313 542.1445z" stroke="none" fill="#000000" fill-rule="nonzero" /><path id="170" transform="matrix(1 0 0 -1 0 842)" d="M223.0313 508.4434L273.0894 508.4434L273.0894 507.9473L223.0313 507.9473z" stroke="none" fill="#000000" fill-rule="nonzero" /><path id="171" transform="matrix(1 0 0 -1 0 842)" d="M223.0313 542.6406L223.5269 542.6406L223.5269 507.9473L223.0313 507.9473z" stroke="none" fill="#000000" fill-rule="nonzero" /><path id="172" transform="matrix(1 0 0 -1 0 842)" d="M272.5938 542.6406L273.0894 542.6406L273.0894 507.9473L272.5938 507.9473z" stroke="none" fill="#000000" fill-rule="nonzero" /><path id="173" transform="matrix(1 0 0 -1 0 842)" d="M272.5938 542.6406L421.7769 542.6406L421.7769 542.1445L272.5938 542.1445z" stroke="none" fill="#000000" fill-rule="nonzero" /><path id="174" transform="matrix(1 0 0 -1 0 842)" d="M272.5938 508.4434L421.7769 508.4434L421.7769 507.9473L272.5938 507.9473z" stroke="none" fill="#000000" fill-rule="nonzero" /><path id="175" transform="matrix(1 0 0 -1 0 842)" d="M272.5938 542.6406L273.0894 542.6406L273.0894 507.9473L272.5938 507.9473z" stroke="none" fill="#000000" fill-rule="nonzero" /><path id="176" transform="matrix(1 0 0 -1 0 842)" d="M421.2813 542.6406L421.7769 542.6406L421.7769 507.9473L421.2813 507.9473z" stroke="none" fill="#000000" fill-rule="nonzero" /><path id="177" transform="matrix(1 0 0 -1 0 842)" d="M421.2813 542.6406L471.3394 542.6406L471.3394 542.1445L421.2813 542.1445z" stroke="none" fill="#000000" fill-rule="nonzero" /><path id="178" transform="matrix(1 0 0 -1 0 842)" d="M421.2813 508.4434L471.3394 508.4434L471.3394 507.9473L421.2813 507.9473z" stroke="none" fill="#000000" fill-rule="nonzero" /><path id="179" transform="matrix(1 0 0 -1 0 842)" d="M421.2813 542.6406L421.7769 542.6406L421.7769 507.9473L421.2813 507.9473z" stroke="none" fill="#000000" fill-rule="nonzero" /><path id="180" transform="matrix(1 0 0 -1 0 842)" d="M470.8438 542.6406L471.3394 542.6406L471.3394 507.9473L470.8438 507.9473z" stroke="none" fill="#000000" fill-rule="nonzero" /><path id="181" transform="matrix(1 0 0 -1 0 842)" d="M49.5625 508.4434L74.83938 508.4434L74.83938 507.9473L49.5625 507.9473z" stroke="none" fill="#000000" fill-rule="nonzero" /><path id="182" transform="matrix(1 0 0 -1 0 842)" d="M49.5625 482.6699L74.83938 482.6699L74.83938 482.1738L49.5625 482.1738z" stroke="none" fill="#000000" fill-rule="nonzero" /><path id="183" transform="matrix(1 0 0 -1 0 842)" d="M49.5625 508.4434L50.05813 508.4434L50.05813 482.1738L49.5625 482.1738z" stroke="none" fill="#000000" fill-rule="nonzero" /><path id="184" transform="matrix(1 0 0 -1 0 842)" d="M74.34375 508.4434L74.83938 508.4434L74.83938 482.1738L74.34375 482.1738z" stroke="none" fill="#000000" fill-rule="nonzero" /><path id="185" transform="matrix(1 0 0 -1 0 842)" d="M74.34375 508.4434L149.1831 508.4434L149.1831 507.9473L74.34375 507.9473z" stroke="none" fill="#000000" fill-rule="nonzero" /><path id="186" transform="matrix(1 0 0 -1 0 842)" d="M74.34375 482.6699L149.1831 482.6699L149.1831 482.1738L74.34375 482.1738z" stroke="none" fill="#000000" fill-rule="nonzero" /><path id="187" transform="matrix(1 0 0 -1 0 842)" d="M74.34375 508.4434L74.83938 508.4434L74.83938 482.1738L74.34375 482.1738z" stroke="none" fill="#000000" fill-rule="nonzero" /><path id="188" transform="matrix(1 0 0 -1 0 842)" d="M148.6875 508.4434L149.1831 508.4434L149.1831 482.1738L148.6875 482.1738z" stroke="none" fill="#000000" fill-rule="nonzero" /><path id="189" transform="matrix(1 0 0 -1 0 842)" d="M148.6875 508.4434L223.5269 508.4434L223.5269 507.9473L148.6875 507.9473z" stroke="none" fill="#000000" fill-rule="nonzero" /><path id="190" transform="matrix(1 0 0 -1 0 842)" d="M148.6875 482.6699L223.5269 482.6699L223.5269 482.1738L148.6875 482.1738z" stroke="none" fill="#000000" fill-rule="nonzero" /><path id="191" transform="matrix(1 0 0 -1 0 842)" d="M148.6875 508.4434L149.1831 508.4434L149.1831 482.1738L148.6875 482.1738z" stroke="none" fill="#000000" fill-rule="nonzero" /><path id="192" transform="matrix(1 0 0 -1 0 842)" d="M223.0313 508.4434L223.5269 508.4434L223.5269 482.1738L223.0313 482.1738z" stroke="none" fill="#000000" fill-rule="nonzero" /><path id="193" transform="matrix(1 0 0 -1 0 842)" d="M223.0313 508.4434L273.0894 508.4434L273.0894 507.9473L223.0313 507.9473z" stroke="none" fill="#000000" fill-rule="nonzero" /><path id="194" transform="matrix(1 0 0 -1 0 842)" d="M223.0313 482.6699L273.0894 482.6699L273.0894 482.1738L223.0313 482.1738z" stroke="none" fill="#000000" fill-rule="nonzero" /><path id="195" transform="matrix(1 0 0 -1 0 842)" d="M223.0313 508.4434L223.5269 508.4434L223.5269 482.1738L223.0313 482.1738z" stroke="none" fill="#000000" fill-rule="nonzero" /><path id="196" transform="matrix(1 0 0 -1 0 842)" d="M272.5938 508.4434L273.0894 508.4434L273.0894 482.1738L272.5938 482.1738z" stroke="none" fill="#000000" fill-rule="nonzero" /><path id="197" transform="matrix(1 0 0 -1 0 842)" d="M272.5938 508.4434L421.7769 508.4434L421.7769 507.9473L272.5938 507.9473z" stroke="none" fill="#000000" fill-rule="nonzero" /><path id="198" transform="matrix(1 0 0 -1 0 842)" d="M272.5938 482.6699L421.7769 482.6699L421.7769 482.1738L272.5938 482.1738z" stroke="none" fill="#000000" fill-rule="nonzero" /><path id="199" transform="matrix(1 0 0 -1 0 842)" d="M272.5938 508.4434L273.0894 508.4434L273.0894 482.1738L272.5938 482.1738z" stroke="none" fill="#000000" fill-rule="nonzero" /><path id="200" transform="matrix(1 0 0 -1 0 842)" d="M421.2813 508.4434L421.7769 508.4434L421.7769 482.1738L421.2813 482.1738z" stroke="none" fill="#000000" fill-rule="nonzero" /><path id="201" transform="matrix(1 0 0 -1 0 842)" d="M421.2813 508.4434L471.3394 508.4434L471.3394 507.9473L421.2813 507.9473z" stroke="none" fill="#000000" fill-rule="nonzero" /><path id="202" transform="matrix(1 0 0 -1 0 842)" d="M421.2813 482.6699L471.3394 482.6699L471.3394 482.1738L421.2813 482.1738z" stroke="none" fill="#000000" fill-rule="nonzero" /><path id="203" transform="matrix(1 0 0 -1 0 842)" d="M421.2813 508.4434L421.7769 508.4434L421.7769 482.1738L421.2813 482.1738z" stroke="none" fill="#000000" fill-rule="nonzero" /><path id="204" transform="matrix(1 0 0 -1 0 842)" d="M470.8438 508.4434L471.3394 508.4434L471.3394 482.1738L470.8438 482.1738z" stroke="none" fill="#000000" fill-rule="nonzero" /><path id="205" transform="matrix(1 0 0 -1 0 842)" d="M470.8438 508.4434L545.1875 508.4434L545.1875 507.9473L470.8438 507.9473z" stroke="none" fill="#000000" fill-rule="nonzero" /><path id="206" transform="matrix(1 0 0 -1 0 842)" d="M470.8438 482.6699L545.1875 482.6699L545.1875 482.1738L470.8438 482.1738z" stroke="none" fill="#000000" fill-rule="nonzero" /><path id="207" transform="matrix(1 0 0 -1 0 842)" d="M470.8438 508.4434L471.3394 508.4434L471.3394 482.1738L470.8438 482.1738z" stroke="none" fill="#000000" fill-rule="nonzero" /><path id="208" transform="matrix(1 0 0 -1 0 842)" d="M544.6919 508.4434L545.1875 508.4434L545.1875 482.1738L544.6919 482.1738z" stroke="none" fill="#000000" fill-rule="nonzero" /><path id="209" transform="matrix(1 0 0 -1 0 842)" d="M49.5625 437.5684L74.34375 437.5684L74.34375 411.7949L49.5625 411.7949z" stroke="none" fill="#9CC9F0" fill-rule="nonzero" /><path id="210" transform="matrix(1 0 0 -1 0 842)" d="M74.34375 437.5684L148.6875 437.5684L148.6875 411.7949L74.34375 411.7949z" stroke="none" fill="#9CC9F0" fill-rule="nonzero" /><path id="211" transform="matrix(1 0 0 -1 0 842)" d="M148.6875 437.5684L223.0313 437.5684L223.0313 411.7949L148.6875 411.7949z" stroke="none" fill="#9CC9F0" fill-rule="nonzero" /><path id="212" transform="matrix(1 0 0 -1 0 842)" d="M223.0313 437.5684L272.5938 437.5684L272.5938 411.7949L223.0313 411.7949z" stroke="none" fill="#9CC9F0" fill-rule="nonzero" /><path id="213" transform="matrix(1 0 0 -1 0 842)" d="M272.5938 437.5684L421.2813 437.5684L421.2813 411.7949L272.5938 411.7949z" stroke="none" fill="#9CC9F0" fill-rule="nonzero" /><path id="214" transform="matrix(1 0 0 -1 0 842)" d="M421.2813 437.5684L470.8438 437.5684L470.8438 411.7949L421.2813 411.7949z" stroke="none" fill="#9CC9F0" fill-rule="nonzero" /><path id="215" transform="matrix(1 0 0 -1 0 842)" d="M470.8438 437.5684L544.6919 437.5684L544.6919 411.7949L470.8438 411.7949z" stroke="none" fill="#9CC9F0" fill-rule="nonzero" /><path id="216" transform="matrix(1 0 0 -1 0 842)" d="M49.5625 437.5684L74.83938 437.5684L74.83938 437.0723L49.5625 437.0723z" stroke="none" fill="#000000" fill-rule="nonzero" /><path id="217" transform="matrix(1 0 0 -1 0 842)" d="M49.5625 411.7949L74.83938 411.7949L74.83938 411.3008L49.5625 411.3008z" stroke="none" fill="#000000" fill-rule="nonzero" /><path id="218" transform="matrix(1 0 0 -1 0 842)" d="M49.5625 437.5684L50.05813 437.5684L50.05813 411.3008L49.5625 411.3008z" stroke="none" fill="#000000" fill-rule="nonzero" /><path id="219" transform="matrix(1 0 0 -1 0 842)" d="M74.34375 437.5684L74.83938 437.5684L74.83938 411.3008L74.34375 411.3008z" stroke="none" fill="#000000" fill-rule="nonzero" /><path id="220" transform="matrix(1 0 0 -1 0 842)" d="M74.34375 437.5684L149.1831 437.5684L149.1831 437.0723L74.34375 437.0723z" stroke="none" fill="#000000" fill-rule="nonzero" /><path id="221" transform="matrix(1 0 0 -1 0 842)" d="M74.34375 411.7949L149.1831 411.7949L149.1831 411.3008L74.34375 411.3008z" stroke="none" fill="#000000" fill-rule="nonzero" /><path id="222" transform="matrix(1 0 0 -1 0 842)" d="M74.34375 437.5684L74.83938 437.5684L74.83938 411.3008L74.34375 411.3008z" stroke="none" fill="#000000" fill-rule="nonzero" /><path id="223" transform="matrix(1 0 0 -1 0 842)" d="M148.6875 437.5684L149.1831 437.5684L149.1831 411.3008L148.6875 411.3008z" stroke="none" fill="#000000" fill-rule="nonzero" /><path id="224" transform="matrix(1 0 0 -1 0 842)" d="M148.6875 437.5684L223.5269 437.5684L223.5269 437.0723L148.6875 437.0723z" stroke="none" fill="#000000" fill-rule="nonzero" /><path id="225" transform="matrix(1 0 0 -1 0 842)" d="M148.6875 411.7949L223.5269 411.7949L223.5269 411.3008L148.6875 411.3008z" stroke="none" fill="#000000" fill-rule="nonzero" /><path id="226" transform="matrix(1 0 0 -1 0 842)" d="M148.6875 437.5684L149.1831 437.5684L149.1831 411.3008L148.6875 411.3008z" stroke="none" fill="#000000" fill-rule="nonzero" /><path id="227" transform="matrix(1 0 0 -1 0 842)" d="M223.0313 437.5684L223.5269 437.5684L223.5269 411.3008L223.0313 411.3008z" stroke="none" fill="#000000" fill-rule="nonzero" /><path id="228" transform="matrix(1 0 0 -1 0 842)" d="M223.0313 437.5684L273.0894 437.5684L273.0894 437.0723L223.0313 437.0723z" stroke="none" fill="#000000" fill-rule="nonzero" /><path id="229" transform="matrix(1 0 0 -1 0 842)" d="M223.0313 411.7949L273.0894 411.7949L273.0894 411.3008L223.0313 411.3008z" stroke="none" fill="#000000" fill-rule="nonzero" /><path id="230" transform="matrix(1 0 0 -1 0 842)" d="M223.0313 437.5684L223.5269 437.5684L223.5269 411.3008L223.0313 411.3008z" stroke="none" fill="#000000" fill-rule="nonzero" /><path id="231" transform="matrix(1 0 0 -1 0 842)" d="M272.5938 437.5684L273.0894 437.5684L273.0894 411.3008L272.5938 411.3008z" stroke="none" fill="#000000" fill-rule="nonzero" /><path id="232" transform="matrix(1 0 0 -1 0 842)" d="M272.5938 437.5684L421.7769 437.5684L421.7769 437.0723L272.5938 437.0723z" stroke="none" fill="#000000" fill-rule="nonzero" /><path id="233" transform="matrix(1 0 0 -1 0 842)" d="M272.5938 411.7949L421.7769 411.7949L421.7769 411.3008L272.5938 411.3008z" stroke="none" fill="#000000" fill-rule="nonzero" /><path id="234" transform="matrix(1 0 0 -1 0 842)" d="M272.5938 437.5684L273.0894 437.5684L273.0894 411.3008L272.5938 411.3008z" stroke="none" fill="#000000" fill-rule="nonzero" /><path id="235" transform="matrix(1 0 0 -1 0 842)" d="M421.2813 437.5684L421.7769 437.5684L421.7769 411.3008L421.2813 411.3008z" stroke="none" fill="#000000" fill-rule="nonzero" /><path id="236" transform="matrix(1 0 0 -1 0 842)" d="M421.2813 437.5684L471.3394 437.5684L471.3394 437.0723L421.2813 437.0723z" stroke="none" fill="#000000" fill-rule="nonzero" /><path id="237" transform="matrix(1 0 0 -1 0 842)" d="M421.2813 411.7949L471.3394 411.7949L471.3394 411.3008L421.2813 411.3008z" stroke="none" fill="#000000" fill-rule="nonzero" /><path id="238" transform="matrix(1 0 0 -1 0 842)" d="M421.2813 437.5684L421.7769 437.5684L421.7769 411.3008L421.2813 411.3008z" stroke="none" fill="#000000" fill-rule="nonzero" /><path id="239" transform="matrix(1 0 0 -1 0 842)" d="M470.8438 437.5684L471.3394 437.5684L471.3394 411.3008L470.8438 411.3008z" stroke="none" fill="#000000" fill-rule="nonzero" /><path id="240" transform="matrix(1 0 0 -1 0 842)" d="M470.8438 437.5684L545.1875 437.5684L545.1875 437.0723L470.8438 437.0723z" stroke="none" fill="#000000" fill-rule="nonzero" /><path id="241" transform="matrix(1 0 0 -1 0 842)" d="M470.8438 411.7949L545.1875 411.7949L545.1875 411.3008L470.8438 411.3008z" stroke="none" fill="#000000" fill-rule="nonzero" /><path id="242" transform="matrix(1 0 0 -1 0 842)" d="M470.8438 437.5684L471.3394 437.5684L471.3394 411.3008L470.8438 411.3008z" stroke="none" fill="#000000" fill-rule="nonzero" /><path id="243" transform="matrix(1 0 0 -1 0 842)" d="M544.6919 437.5684L545.1875 437.5684L545.1875 411.3008L544.6919 411.3008z" stroke="none" fill="#000000" fill-rule="nonzero" /><path id="244" transform="matrix(1 0 0 -1 0 842)" d="M49.5625 411.7949L74.83938 411.7949L74.83938 411.3008L49.5625 411.3008z" stroke="none" fill="#000000" fill-rule="nonzero" /><path id="245" transform="matrix(1 0 0 -1 0 842)" d="M49.5625 377.5977L74.83938 377.5977L74.83938 377.1016L49.5625 377.1016z" stroke="none" fill="#000000" fill-rule="nonzero" /><path id="246" transform="matrix(1 0 0 -1 0 842)" d="M49.5625 411.7949L50.05813 411.7949L50.05813 377.1016L49.5625 377.1016z" stroke="none" fill="#000000" fill-rule="nonzero" /><path id="247" transform="matrix(1 0 0 -1 0 842)" d="M74.34375 411.7949L74.83938 411.7949L74.83938 377.1016L74.34375 377.1016z" stroke="none" fill="#000000" fill-rule="nonzero" /><path id="248" transform="matrix(1 0 0 -1 0 842)" d="M74.34375 411.7949L149.1831 411.7949L149.1831 411.3008L74.34375 411.3008z" stroke="none" fill="#000000" fill-rule="nonzero" /><path id="249" transform="matrix(1 0 0 -1 0 842)" d="M74.34375 377.5977L149.1831 377.5977L149.1831 377.1016L74.34375 377.1016z" stroke="none" fill="#000000" fill-rule="nonzero" /><path id="250" transform="matrix(1 0 0 -1 0 842)" d="M74.34375 411.7949L74.83938 411.7949L74.83938 377.1016L74.34375 377.1016z" stroke="none" fill="#000000" fill-rule="nonzero" /><path id="251" transform="matrix(1 0 0 -1 0 842)" d="M148.6875 411.7949L149.1831 411.7949L149.1831 377.1016L148.6875 377.1016z" stroke="none" fill="#000000" fill-rule="nonzero" /><path id="252" transform="matrix(1 0 0 -1 0 842)" d="M148.6875 411.7949L223.5269 411.7949L223.5269 411.3008L148.6875 411.3008z" stroke="none" fill="#000000" fill-rule="nonzero" /><path id="253" transform="matrix(1 0 0 -1 0 842)" d="M148.6875 377.5977L223.5269 377.5977L223.5269 377.1016L148.6875 377.1016z" stroke="none" fill="#000000" fill-rule="nonzero" /><path id="254" transform="matrix(1 0 0 -1 0 842)" d="M148.6875 411.7949L149.1831 411.7949L149.1831 377.1016L148.6875 377.1016z" stroke="none" fill="#000000" fill-rule="nonzero" /><path id="255" transform="matrix(1 0 0 -1 0 842)" d="M223.0313 411.7949L223.5269 411.7949L223.5269 377.1016L223.0313 377.1016z" stroke="none" fill="#000000" fill-rule="nonzero" /><path id="256" transform="matrix(1 0 0 -1 0 842)" d="M223.0313 411.7949L273.0894 411.7949L273.0894 411.3008L223.0313 411.3008z" stroke="none" fill="#000000" fill-rule="nonzero" /><path id="257" transform="matrix(1 0 0 -1 0 842)" d="M223.0313 377.5977L273.0894 377.5977L273.0894 377.1016L223.0313 377.1016z" stroke="none" fill="#000000" fill-rule="nonzero" /><path id="258" transform="matrix(1 0 0 -1 0 842)" d="M223.0313 411.7949L223.5269 411.7949L223.5269 377.1016L223.0313 377.1016z" stroke="none" fill="#000000" fill-rule="nonzero" /><path id="259" transform="matrix(1 0 0 -1 0 842)" d="M272.5938 411.7949L273.0894 411.7949L273.0894 377.1016L272.5938 377.1016z" stroke="none" fill="#000000" fill-rule="nonzero" /><path id="260" transform="matrix(1 0 0 -1 0 842)" d="M272.5938 411.7949L421.7769 411.7949L421.7769 411.3008L272.5938 411.3008z" stroke="none" fill="#000000" fill-rule="nonzero" /><path id="261" transform="matrix(1 0 0 -1 0 842)" d="M272.5938 377.5977L421.7769 377.5977L421.7769 377.1016L272.5938 377.1016z" stroke="none" fill="#000000" fill-rule="nonzero" /><path id="262" transform="matrix(1 0 0 -1 0 842)" d="M272.5938 411.7949L273.0894 411.7949L273.0894 377.1016L272.5938 377.1016z" stroke="none" fill="#000000" fill-rule="nonzero" /><path id="263" transform="matrix(1 0 0 -1 0 842)" d="M421.2813 411.7949L421.7769 411.7949L421.7769 377.1016L421.2813 377.1016z" stroke="none" fill="#000000" fill-rule="nonzero" /><path id="264" transform="matrix(1 0 0 -1 0 842)" d="M421.2813 411.7949L471.3394 411.7949L471.3394 411.3008L421.2813 411.3008z" stroke="none" fill="#000000" fill-rule="nonzero" /><path id="265" transform="matrix(1 0 0 -1 0 842)" d="M421.2813 377.5977L471.3394 377.5977L471.3394 377.1016L421.2813 377.1016z" stroke="none" fill="#000000" fill-rule="nonzero" /><path id="266" transform="matrix(1 0 0 -1 0 842)" d="M421.2813 411.7949L421.7769 411.7949L421.7769 377.1016L421.2813 377.1016z" stroke="none" fill="#000000" fill-rule="nonzero" /><path id="267" transform="matrix(1 0 0 -1 0 842)" d="M470.8438 411.7949L471.3394 411.7949L471.3394 377.1016L470.8438 377.1016z" stroke="none" fill="#000000" fill-rule="nonzero" /><path id="268" transform="matrix(1 0 0 -1 0 842)" d="M470.8438 411.7949L545.1875 411.7949L545.1875 411.3008L470.8438 411.3008z" stroke="none" fill="#000000" fill-rule="nonzero" /><path id="269" transform="matrix(1 0 0 -1 0 842)" d="M470.8438 377.5977L545.1875 377.5977L545.1875 377.1016L470.8438 377.1016z" stroke="none" fill="#000000" fill-rule="nonzero" /><path id="270" transform="matrix(1 0 0 -1 0 842)" d="M470.8438 411.7949L471.3394 411.7949L471.3394 377.1016L470.8438 377.1016z" stroke="none" fill="#000000" fill-rule="nonzero" /><path id="271" transform="matrix(1 0 0 -1 0 842)" d="M544.6919 411.7949L545.1875 411.7949L545.1875 377.1016L544.6919 377.1016z" stroke="none" fill="#000000" fill-rule="nonzero" /><path id="272" transform="matrix(1 0 0 -1 0 842)" d="M49.5625 377.5977L74.83938 377.5977L74.83938 377.1016L49.5625 377.1016z" stroke="none" fill="#000000" fill-rule="nonzero" /><path id="273" transform="matrix(1 0 0 -1 0 842)" d="M49.5625 343.4004L74.83938 343.4004L74.83938 342.9043L49.5625 342.9043z" stroke="none" fill="#000000" fill-rule="nonzero" /><path id="274" transform="matrix(1 0 0 -1 0 842)" d="M49.5625 377.5977L50.05813 377.5977L50.05813 342.9043L49.5625 342.9043z" stroke="none" fill="#000000" fill-rule="nonzero" /><path id="275" transform="matrix(1 0 0 -1 0 842)" d="M74.34375 377.5977L74.83938 377.5977L74.83938 342.9043L74.34375 342.9043z" stroke="none" fill="#000000" fill-rule="nonzero" /><path id="276" transform="matrix(1 0 0 -1 0 842)" d="M74.34375 377.5977L149.1831 377.5977L149.1831 377.1016L74.34375 377.1016z" stroke="none" fill="#000000" fill-rule="nonzero" /><path id="277" transform="matrix(1 0 0 -1 0 842)" d="M74.34375 343.4004L149.1831 343.4004L149.1831 342.9043L74.34375 342.9043z" stroke="none" fill="#000000" fill-rule="nonzero" /><path id="278" transform="matrix(1 0 0 -1 0 842)" d="M74.34375 377.5977L74.83938 377.5977L74.83938 342.9043L74.34375 342.9043z" stroke="none" fill="#000000" fill-rule="nonzero" /><path id="279" transform="matrix(1 0 0 -1 0 842)" d="M148.6875 377.5977L149.1831 377.5977L149.1831 342.9043L148.6875 342.9043z" stroke="none" fill="#000000" fill-rule="nonzero" /><path id="280" transform="matrix(1 0 0 -1 0 842)" d="M148.6875 377.5977L223.5269 377.5977L223.5269 377.1016L148.6875 377.1016z" stroke="none" fill="#000000" fill-rule="nonzero" /><path id="281" transform="matrix(1 0 0 -1 0 842)" d="M148.6875 343.4004L223.5269 343.4004L223.5269 342.9043L148.6875 342.9043z" stroke="none" fill="#000000" fill-rule="nonzero" /><path id="282" transform="matrix(1 0 0 -1 0 842)" d="M148.6875 377.5977L149.1831 377.5977L149.1831 342.9043L148.6875 342.9043z" stroke="none" fill="#000000" fill-rule="nonzero" /><path id="283" transform="matrix(1 0 0 -1 0 842)" d="M223.0313 377.5977L223.5269 377.5977L223.5269 342.9043L223.0313 342.9043z" stroke="none" fill="#000000" fill-rule="nonzero" /><path id="284" transform="matrix(1 0 0 -1 0 842)" d="M223.0313 377.5977L273.0894 377.5977L273.0894 377.1016L223.0313 377.1016z" stroke="none" fill="#000000" fill-rule="nonzero" /><path id="285" transform="matrix(1 0 0 -1 0 842)" d="M223.0313 343.4004L273.0894 343.4004L273.0894 342.9043L223.0313 342.9043z" stroke="none" fill="#000000" fill-rule="nonzero" /><path id="286" transform="matrix(1 0 0 -1 0 842)" d="M223.0313 377.5977L223.5269 377.5977L223.5269 342.9043L223.0313 342.9043z" stroke="none" fill="#000000" fill-rule="nonzero" /><path id="287" transform="matrix(1 0 0 -1 0 842)" d="M272.5938 377.5977L273.0894 377.5977L273.0894 342.9043L272.5938 342.9043z" stroke="none" fill="#000000" fill-rule="nonzero" /><path id="288" transform="matrix(1 0 0 -1 0 842)" d="M272.5938 377.5977L421.7769 377.5977L421.7769 377.1016L272.5938 377.1016z" stroke="none" fill="#000000" fill-rule="nonzero" /><path id="289" transform="matrix(1 0 0 -1 0 842)" d="M272.5938 343.4004L421.7769 343.4004L421.7769 342.9043L272.5938 342.9043z" stroke="none" fill="#000000" fill-rule="nonzero" /><path id="290" transform="matrix(1 0 0 -1 0 842)" d="M272.5938 377.5977L273.0894 377.5977L273.0894 342.9043L272.5938 342.9043z" stroke="none" fill="#000000" fill-rule="nonzero" /><path id="291" transform="matrix(1 0 0 -1 0 842)" d="M421.2813 377.5977L421.7769 377.5977L421.7769 342.9043L421.2813 342.9043z" stroke="none" fill="#000000" fill-rule="nonzero" /><path id="292" transform="matrix(1 0 0 -1 0 842)" d="M421.2813 377.5977L471.3394 377.5977L471.3394 377.1016L421.2813 377.1016z" stroke="none" fill="#000000" fill-rule="nonzero" /><path id="293" transform="matrix(1 0 0 -1 0 842)" d="M421.2813 343.4004L471.3394 343.4004L471.3394 342.9043L421.2813 342.9043z" stroke="none" fill="#000000" fill-rule="nonzero" /><path id="294" transform="matrix(1 0 0 -1 0 842)" d="M421.2813 377.5977L421.7769 377.5977L421.7769 342.9043L421.2813 342.9043z" stroke="none" fill="#000000" fill-rule="nonzero" /><path id="295" transform="matrix(1 0 0 -1 0 842)" d="M470.8438 377.5977L471.3394 377.5977L471.3394 342.9043L470.8438 342.9043z" stroke="none" fill="#000000" fill-rule="nonzero" /><path id="296" transform="matrix(1 0 0 -1 0 842)" d="M470.8438 377.5977L545.1875 377.5977L545.1875 377.1016L470.8438 377.1016z" stroke="none" fill="#000000" fill-rule="nonzero" /><path id="297" transform="matrix(1 0 0 -1 0 842)" d="M470.8438 343.4004L545.1875 343.4004L545.1875 342.9043L470.8438 342.9043z" stroke="none" fill="#000000" fill-rule="nonzero" /><path id="298" transform="matrix(1 0 0 -1 0 842)" d="M470.8438 377.5977L471.3394 377.5977L471.3394 342.9043L470.8438 342.9043z" stroke="none" fill="#000000" fill-rule="nonzero" /><path id="299" transform="matrix(1 0 0 -1 0 842)" d="M544.6919 377.5977L545.1875 377.5977L545.1875 342.9043L544.6919 342.9043z" stroke="none" fill="#000000" fill-rule="nonzero" /><path id="300" transform="matrix(1 0 0 -1 0 842)" d="M49.5625 298.2969L74.34375 298.2969L74.34375 272.5254L49.5625 272.5254z" stroke="none" fill="#9CC9F0" fill-rule="nonzero" /><path id="301" transform="matrix(1 0 0 -1 0 842)" d="M74.34375 298.2969L148.6875 298.2969L148.6875 272.5254L74.34375 272.5254z" stroke="none" fill="#9CC9F0" fill-rule="nonzero" /><path id="302" transform="matrix(1 0 0 -1 0 842)" d="M148.6875 298.2969L223.0313 298.2969L223.0313 272.5254L148.6875 272.5254z" stroke="none" fill="#9CC9F0" fill-rule="nonzero" /><path id="303" transform="matrix(1 0 0 -1 0 842)" d="M223.0313 298.2969L272.5938 298.2969L272.5938 272.5254L223.0313 272.5254z" stroke="none" fill="#9CC9F0" fill-rule="nonzero" /><path id="304" transform="matrix(1 0 0 -1 0 842)" d="M272.5938 298.2969L421.2813 298.2969L421.2813 272.5254L272.5938 272.5254z" stroke="none" fill="#9CC9F0" fill-rule="nonzero" /><path id="305" transform="matrix(1 0 0 -1 0 842)" d="M421.2813 298.2969L470.8438 298.2969L470.8438 272.5254L421.2813 272.5254z" stroke="none" fill="#9CC9F0" fill-rule="nonzero" /><path id="306" transform="matrix(1 0 0 -1 0 842)" d="M470.8438 298.2969L544.6919 298.2969L544.6919 272.5254L470.8438 272.5254z" stroke="none" fill="#9CC9F0" fill-rule="nonzero" /><path id="307" transform="matrix(1 0 0 -1 0 842)" d="M49.5625 298.2969L74.83938 298.2969L74.83938 297.8027L49.5625 297.8027z" stroke="none" fill="#000000" fill-rule="nonzero" /><path id="308" transform="matrix(1 0 0 -1 0 842)" d="M49.5625 272.5254L74.83938 272.5254L74.83938 272.0293L49.5625 272.0293z" stroke="none" fill="#000000" fill-rule="nonzero" /><path id="309" transform="matrix(1 0 0 -1 0 842)" d="M49.5625 298.2969L50.05813 298.2969L50.05813 272.0293L49.5625 272.0293z" stroke="none" fill="#000000" fill-rule="nonzero" /><path id="310" transform="matrix(1 0 0 -1 0 842)" d="M74.34375 298.2969L74.83938 298.2969L74.83938 272.0293L74.34375 272.0293z" stroke="none" fill="#000000" fill-rule="nonzero" /><path id="311" transform="matrix(1 0 0 -1 0 842)" d="M74.34375 298.2969L149.1831 298.2969L149.1831 297.8027L74.34375 297.8027z" stroke="none" fill="#000000" fill-rule="nonzero" /><path id="312" transform="matrix(1 0 0 -1 0 842)" d="M74.34375 272.5254L149.1831 272.5254L149.1831 272.0293L74.34375 272.0293z" stroke="none" fill="#000000" fill-rule="nonzero" /><path id="313" transform="matrix(1 0 0 -1 0 842)" d="M74.34375 298.2969L74.83938 298.2969L74.83938 272.0293L74.34375 272.0293z" stroke="none" fill="#000000" fill-rule="nonzero" /><path id="314" transform="matrix(1 0 0 -1 0 842)" d="M148.6875 298.2969L149.1831 298.2969L149.1831 272.0293L148.6875 272.0293z" stroke="none" fill="#000000" fill-rule="nonzero" /><path id="315" transform="matrix(1 0 0 -1 0 842)" d="M148.6875 298.2969L223.5269 298.2969L223.5269 297.8027L148.6875 297.8027z" stroke="none" fill="#000000" fill-rule="nonzero" /><path id="316" transform="matrix(1 0 0 -1 0 842)" d="M148.6875 272.5254L223.5269 272.5254L223.5269 272.0293L148.6875 272.0293z" stroke="none" fill="#000000" fill-rule="nonzero" /><path id="317" transform="matrix(1 0 0 -1 0 842)" d="M148.6875 298.2969L149.1831 298.2969L149.1831 272.0293L148.6875 272.0293z" stroke="none" fill="#000000" fill-rule="nonzero" /><path id="318" transform="matrix(1 0 0 -1 0 842)" d="M223.0313 298.2969L223.5269 298.2969L223.5269 272.0293L223.0313 272.0293z" stroke="none" fill="#000000" fill-rule="nonzero" /><path id="319" transform="matrix(1 0 0 -1 0 842)" d="M223.0313 298.2969L273.0894 298.2969L273.0894 297.8027L223.0313 297.8027z" stroke="none" fill="#000000" fill-rule="nonzero" /><path id="320" transform="matrix(1 0 0 -1 0 842)" d="M223.0313 272.5254L273.0894 272.5254L273.0894 272.0293L223.0313 272.0293z" stroke="none" fill="#000000" fill-rule="nonzero" /><path id="321" transform="matrix(1 0 0 -1 0 842)" d="M223.0313 298.2969L223.5269 298.2969L223.5269 272.0293L223.0313 272.0293z" stroke="none" fill="#000000" fill-rule="nonzero" /><path id="322" transform="matrix(1 0 0 -1 0 842)" d="M272.5938 298.2969L273.0894 298.2969L273.0894 272.0293L272.5938 272.0293z" stroke="none" fill="#000000" fill-rule="nonzero" /><path id="323" transform="matrix(1 0 0 -1 0 842)" d="M272.5938 298.2969L421.7769 298.2969L421.7769 297.8027L272.5938 297.8027z" stroke="none" fill="#000000" fill-rule="nonzero" /><path id="324" transform="matrix(1 0 0 -1 0 842)" d="M272.5938 272.5254L421.7769 272.5254L421.7769 272.0293L272.5938 272.0293z" stroke="none" fill="#000000" fill-rule="nonzero" /><path id="325" transform="matrix(1 0 0 -1 0 842)" d="M272.5938 298.2969L273.0894 298.2969L273.0894 272.0293L272.5938 272.0293z" stroke="none" fill="#000000" fill-rule="nonzero" /><path id="326" transform="matrix(1 0 0 -1 0 842)" d="M421.2813 298.2969L421.7769 298.2969L421.7769 272.0293L421.2813 272.0293z" stroke="none" fill="#000000" fill-rule="nonzero" /><path id="327" transform="matrix(1 0 0 -1 0 842)" d="M421.2813 298.2969L471.3394 298.2969L471.3394 297.8027L421.2813 297.8027z" stroke="none" fill="#000000" fill-rule="nonzero" /><path id="328" transform="matrix(1 0 0 -1 0 842)" d="M421.2813 272.5254L471.3394 272.5254L471.3394 272.0293L421.2813 272.0293z" stroke="none" fill="#000000" fill-rule="nonzero" /><path id="329" transform="matrix(1 0 0 -1 0 842)" d="M421.2813 298.2969L421.7769 298.2969L421.7769 272.0293L421.2813 272.0293z" stroke="none" fill="#000000" fill-rule="nonzero" /><path id="330" transform="matrix(1 0 0 -1 0 842)" d="M470.8438 298.2969L471.3394 298.2969L471.3394 272.0293L470.8438 272.0293z" stroke="none" fill="#000000" fill-rule="nonzero" /><path id="331" transform="matrix(1 0 0 -1 0 842)" d="M470.8438 298.2969L545.1875 298.2969L545.1875 297.8027L470.8438 297.8027z" stroke="none" fill="#000000" fill-rule="nonzero" /><path id="332" transform="matrix(1 0 0 -1 0 842)" d="M470.8438 272.5254L545.1875 272.5254L545.1875 272.0293L470.8438 272.0293z" stroke="none" fill="#000000" fill-rule="nonzero" /><path id="333" transform="matrix(1 0 0 -1 0 842)" d="M470.8438 298.2969L471.3394 298.2969L471.3394 272.0293L470.8438 272.0293z" stroke="none" fill="#000000" fill-rule="nonzero" /><path id="334" transform="matrix(1 0 0 -1 0 842)" d="M544.6919 298.2969L545.1875 298.2969L545.1875 272.0293L544.6919 272.0293z" stroke="none" fill="#000000" fill-rule="nonzero" /><path id="335" transform="matrix(1 0 0 -1 0 842)" d="M49.5625 272.5254L74.83938 272.5254L74.83938 272.0293L49.5625 272.0293z" stroke="none" fill="#000000" fill-rule="nonzero" /><path id="336" transform="matrix(1 0 0 -1 0 842)" d="M49.5625 238.3262L74.83938 238.3262L74.83938 237.832L49.5625 237.832z" stroke="none" fill="#000000" fill-rule="nonzero" /><path id="337" transform="matrix(1 0 0 -1 0 842)" d="M49.5625 272.5254L50.05813 272.5254L50.05813 237.832L49.5625 237.832z" stroke="none" fill="#000000" fill-rule="nonzero" /><path id="338" transform="matrix(1 0 0 -1 0 842)" d="M74.34375 272.5254L74.83938 272.5254L74.83938 237.832L74.34375 237.832z" stroke="none" fill="#000000" fill-rule="nonzero" /><path id="339" transform="matrix(1 0 0 -1 0 842)" d="M74.34375 272.5254L149.1831 272.5254L149.1831 272.0293L74.34375 272.0293z" stroke="none" fill="#000000" fill-rule="nonzero" /><path id="340" transform="matrix(1 0 0 -1 0 842)" d="M74.34375 238.3262L149.1831 238.3262L149.1831 237.832L74.34375 237.832z" stroke="none" fill="#000000" fill-rule="nonzero" /><path id="341" transform="matrix(1 0 0 -1 0 842)" d="M74.34375 272.5254L74.83938 272.5254L74.83938 237.832L74.34375 237.832z" stroke="none" fill="#000000" fill-rule="nonzero" /><path id="342" transform="matrix(1 0 0 -1 0 842)" d="M148.6875 272.5254L149.1831 272.5254L149.1831 237.832L148.6875 237.832z" stroke="none" fill="#000000" fill-rule="nonzero" /><path id="343" transform="matrix(1 0 0 -1 0 842)" d="M148.6875 272.5254L223.5269 272.5254L223.5269 272.0293L148.6875 272.0293z" stroke="none" fill="#000000" fill-rule="nonzero" /><path id="344" transform="matrix(1 0 0 -1 0 842)" d="M148.6875 238.3262L223.5269 238.3262L223.5269 237.832L148.6875 237.832z" stroke="none" fill="#000000" fill-rule="nonzero" /><path id="345" transform="matrix(1 0 0 -1 0 842)" d="M148.6875 272.5254L149.1831 272.5254L149.1831 237.832L148.6875 237.832z" stroke="none" fill="#000000" fill-rule="nonzero" /><path id="346" transform="matrix(1 0 0 -1 0 842)" d="M223.0313 272.5254L223.5269 272.5254L223.5269 237.832L223.0313 237.832z" stroke="none" fill="#000000" fill-rule="nonzero" /><path id="347" transform="matrix(1 0 0 -1 0 842)" d="M223.0313 272.5254L273.0894 272.5254L273.0894 272.0293L223.0313 272.0293z" stroke="none" fill="#000000" fill-rule="nonzero" /><path id="348" transform="matrix(1 0 0 -1 0 842)" d="M223.0313 238.3262L273.0894 238.3262L273.0894 237.832L223.0313 237.832z" stroke="none" fill="#000000" fill-rule="nonzero" /><path id="349" transform="matrix(1 0 0 -1 0 842)" d="M223.0313 272.5254L223.5269 272.5254L223.5269 237.832L223.0313 237.832z" stroke="none" fill="#000000" fill-rule="nonzero" /><path id="350" transform="matrix(1 0 0 -1 0 842)" d="M272.5938 272.5254L273.0894 272.5254L273.0894 237.832L272.5938 237.832z" stroke="none" fill="#000000" fill-rule="nonzero" /><path id="351" transform="matrix(1 0 0 -1 0 842)" d="M272.5938 272.5254L421.7769 272.5254L421.7769 272.0293L272.5938 272.0293z" stroke="none" fill="#000000" fill-rule="nonzero" /><path id="352" transform="matrix(1 0 0 -1 0 842)" d="M272.5938 238.3262L421.7769 238.3262L421.7769 237.832L272.5938 237.832z" stroke="none" fill="#000000" fill-rule="nonzero" /><path id="353" transform="matrix(1 0 0 -1 0 842)" d="M272.5938 272.5254L273.0894 272.5254L273.0894 237.832L272.5938 237.832z" stroke="none" fill="#000000" fill-rule="nonzero" /><path id="354" transform="matrix(1 0 0 -1 0 842)" d="M421.2813 272.5254L421.7769 272.5254L421.7769 237.832L421.2813 237.832z" stroke="none" fill="#000000" fill-rule="nonzero" /><path id="355" transform="matrix(1 0 0 -1 0 842)" d="M421.2813 272.5254L471.3394 272.5254L471.3394 272.0293L421.2813 272.0293z" stroke="none" fill="#000000" fill-rule="nonzero" /><path id="356" transform="matrix(1 0 0 -1 0 842)" d="M421.2813 238.3262L471.3394 238.3262L471.3394 237.832L421.2813 237.832z" stroke="none" fill="#000000" fill-rule="nonzero" /><path id="357" transform="matrix(1 0 0 -1 0 842)" d="M421.2813 272.5254L421.7769 272.5254L421.7769 237.832L421.2813 237.832z" stroke="none" fill="#000000" fill-rule="nonzero" /><path id="358" transform="matrix(1 0 0 -1 0 842)" d="M470.8438 272.5254L471.3394 272.5254L471.3394 237.832L470.8438 237.832z" stroke="none" fill="#000000" fill-rule="nonzero" /><path id="359" transform="matrix(1 0 0 -1 0 842)" d="M470.8438 272.5254L545.1875 272.5254L545.1875 272.0293L470.8438 272.0293z" stroke="none" fill="#000000" fill-rule="nonzero" /><path id="360" transform="matrix(1 0 0 -1 0 842)" d="M470.8438 238.3262L545.1875 238.3262L545.1875 237.832L470.8438 237.832z" stroke="none" fill="#000000" fill-rule="nonzero" /><path id="361" transform="matrix(1 0 0 -1 0 842)" d="M470.8438 272.5254L471.3394 272.5254L471.3394 237.832L470.8438 237.832z" stroke="none" fill="#000000" fill-rule="nonzero" /><path id="362" transform="matrix(1 0 0 -1 0 842)" d="M544.6919 272.5254L545.1875 272.5254L545.1875 237.832L544.6919 237.832z" stroke="none" fill="#000000" fill-rule="nonzero" /><path id="363" transform="matrix(1 0 0 -1 0 842)" d="M49.5625 238.3262L74.83938 238.3262L74.83938 237.832L49.5625 237.832z" stroke="none" fill="#000000" fill-rule="nonzero" /><path id="364" transform="matrix(1 0 0 -1 0 842)" d="M49.5625 204.1289L74.83938 204.1289L74.83938 203.6328L49.5625 203.6328z" stroke="none" fill="#000000" fill-rule="nonzero" /><path id="365" transform="matrix(1 0 0 -1 0 842)" d="M49.5625 238.3262L50.05813 238.3262L50.05813 203.6328L49.5625 203.6328z" stroke="none" fill="#000000" fill-rule="nonzero" /><path id="366" transform="matrix(1 0 0 -1 0 842)" d="M74.34375 238.3262L74.83938 238.3262L74.83938 203.6328L74.34375 203.6328z" stroke="none" fill="#000000" fill-rule="nonzero" /><path id="367" transform="matrix(1 0 0 -1 0 842)" d="M74.34375 238.3262L149.1831 238.3262L149.1831 237.832L74.34375 237.832z" stroke="none" fill="#000000" fill-rule="nonzero" /><path id="368" transform="matrix(1 0 0 -1 0 842)" d="M74.34375 204.1289L149.1831 204.1289L149.1831 203.6328L74.34375 203.6328z" stroke="none" fill="#000000" fill-rule="nonzero" /><path id="369" transform="matrix(1 0 0 -1 0 842)" d="M74.34375 238.3262L74.83938 238.3262L74.83938 203.6328L74.34375 203.6328z" stroke="none" fill="#000000" fill-rule="nonzero" /><path id="370" transform="matrix(1 0 0 -1 0 842)" d="M148.6875 238.3262L149.1831 238.3262L149.1831 203.6328L148.6875 203.6328z" stroke="none" fill="#000000" fill-rule="nonzero" /><path id="371" transform="matrix(1 0 0 -1 0 842)" d="M148.6875 238.3262L223.5269 238.3262L223.5269 237.832L148.6875 237.832z" stroke="none" fill="#000000" fill-rule="nonzero" /><path id="372" transform="matrix(1 0 0 -1 0 842)" d="M148.6875 204.1289L223.5269 204.1289L223.5269 203.6328L148.6875 203.6328z" stroke="none" fill="#000000" fill-rule="nonzero" /><path id="373" transform="matrix(1 0 0 -1 0 842)" d="M148.6875 238.3262L149.1831 238.3262L149.1831 203.6328L148.6875 203.6328z" stroke="none" fill="#000000" fill-rule="nonzero" /><path id="374" transform="matrix(1 0 0 -1 0 842)" d="M223.0313 238.3262L223.5269 238.3262L223.5269 203.6328L223.0313 203.6328z" stroke="none" fill="#000000" fill-rule="nonzero" /><path id="375" transform="matrix(1 0 0 -1 0 842)" d="M223.0313 238.3262L273.0894 238.3262L273.0894 237.832L223.0313 237.832z" stroke="none" fill="#000000" fill-rule="nonzero" /><path id="376" transform="matrix(1 0 0 -1 0 842)" d="M223.0313 204.1289L273.0894 204.1289L273.0894 203.6328L223.0313 203.6328z" stroke="none" fill="#000000" fill-rule="nonzero" /><path id="377" transform="matrix(1 0 0 -1 0 842)" d="M223.0313 238.3262L223.5269 238.3262L223.5269 203.6328L223.0313 203.6328z" stroke="none" fill="#000000" fill-rule="nonzero" /><path id="378" transform="matrix(1 0 0 -1 0 842)" d="M272.5938 238.3262L273.0894 238.3262L273.0894 203.6328L272.5938 203.6328z" stroke="none" fill="#000000" fill-rule="nonzero" /><path id="379" transform="matrix(1 0 0 -1 0 842)" d="M272.5938 238.3262L421.7769 238.3262L421.7769 237.832L272.5938 237.832z" stroke="none" fill="#000000" fill-rule="nonzero" /><path id="380" transform="matrix(1 0 0 -1 0 842)" d="M272.5938 204.1289L421.7769 204.1289L421.7769 203.6328L272.5938 203.6328z" stroke="none" fill="#000000" fill-rule="nonzero" /><path id="381" transform="matrix(1 0 0 -1 0 842)" d="M272.5938 238.3262L273.0894 238.3262L273.0894 203.6328L272.5938 203.6328z" stroke="none" fill="#000000" fill-rule="nonzero" /><path id="382" transform="matrix(1 0 0 -1 0 842)" d="M421.2813 238.3262L421.7769 238.3262L421.7769 203.6328L421.2813 203.6328z" stroke="none" fill="#000000" fill-rule="nonzero" /><path id="383" transform="matrix(1 0 0 -1 0 842)" d="M421.2813 238.3262L471.3394 238.3262L471.3394 237.832L421.2813 237.832z" stroke="none" fill="#000000" fill-rule="nonzero" /><path id="384" transform="matrix(1 0 0 -1 0 842)" d="M421.2813 204.1289L471.3394 204.1289L471.3394 203.6328L421.2813 203.6328z" stroke="none" fill="#000000" fill-rule="nonzero" /><path id="385" transform="matrix(1 0 0 -1 0 842)" d="M421.2813 238.3262L421.7769 238.3262L421.7769 203.6328L421.2813 203.6328z" stroke="none" fill="#000000" fill-rule="nonzero" /><path id="386" transform="matrix(1 0 0 -1 0 842)" d="M470.8438 238.3262L471.3394 238.3262L471.3394 203.6328L470.8438 203.6328z" stroke="none" fill="#000000" fill-rule="nonzero" /><path id="387" transform="matrix(1 0 0 -1 0 842)" d="M470.8438 238.3262L545.1875 238.3262L545.1875 237.832L470.8438 237.832z" stroke="none" fill="#000000" fill-rule="nonzero" /><path id="388" transform="matrix(1 0 0 -1 0 842)" d="M470.8438 204.1289L545.1875 204.1289L545.1875 203.6328L470.8438 203.6328z" stroke="none" fill="#000000" fill-rule="nonzero" /><path id="389" transform="matrix(1 0 0 -1 0 842)" d="M470.8438 238.3262L471.3394 238.3262L471.3394 203.6328L470.8438 203.6328z" stroke="none" fill="#000000" fill-rule="nonzero" /><path id="390" transform="matrix(1 0 0 -1 0 842)" d="M544.6919 238.3262L545.1875 238.3262L545.1875 203.6328L544.6919 203.6328z" stroke="none" fill="#000000" fill-rule="nonzero" /><path id="391" transform="matrix(1 0 0 -1 0 842)" d="M49.5625 204.1289L74.83938 204.1289L74.83938 203.6328L49.5625 203.6328z" stroke="none" fill="#000000" fill-rule="nonzero" /><path id="392" transform="matrix(1 0 0 -1 0 842)" d="M49.5625 169.9316L74.83938 169.9316L74.83938 169.4355L49.5625 169.4355z" stroke="none" fill="#000000" fill-rule="nonzero" /><path id="393" transform="matrix(1 0 0 -1 0 842)" d="M49.5625 204.1289L50.05813 204.1289L50.05813 169.4355L49.5625 169.4355z" stroke="none" fill="#000000" fill-rule="nonzero" /><path id="394" transform="matrix(1 0 0 -1 0 842)" d="M74.34375 204.1289L74.83938 204.1289L74.83938 169.4355L74.34375 169.4355z" stroke="none" fill="#000000" fill-rule="nonzero" /><path id="395" transform="matrix(1 0 0 -1 0 842)" d="M74.34375 204.1289L149.1831 204.1289L149.1831 203.6328L74.34375 203.6328z" stroke="none" fill="#000000" fill-rule="nonzero" /><path id="396" transform="matrix(1 0 0 -1 0 842)" d="M74.34375 169.9316L149.1831 169.9316L149.1831 169.4355L74.34375 169.4355z" stroke="none" fill="#000000" fill-rule="nonzero" /><path id="397" transform="matrix(1 0 0 -1 0 842)" d="M74.34375 204.1289L74.83938 204.1289L74.83938 169.4355L74.34375 169.4355z" stroke="none" fill="#000000" fill-rule="nonzero" /><path id="398" transform="matrix(1 0 0 -1 0 842)" d="M148.6875 204.1289L149.1831 204.1289L149.1831 169.4355L148.6875 169.4355z" stroke="none" fill="#000000" fill-rule="nonzero" /><path id="399" transform="matrix(1 0 0 -1 0 842)" d="M148.6875 204.1289L223.5269 204.1289L223.5269 203.6328L148.6875 203.6328z" stroke="none" fill="#000000" fill-rule="nonzero" /><path id="400" transform="matrix(1 0 0 -1 0 842)" d="M148.6875 169.9316L223.5269 169.9316L223.5269 169.4355L148.6875 169.4355z" stroke="none" fill="#000000" fill-rule="nonzero" /><path id="401" transform="matrix(1 0 0 -1 0 842)" d="M148.6875 204.1289L149.1831 204.1289L149.1831 169.4355L148.6875 169.4355z" stroke="none" fill="#000000" fill-rule="nonzero" /><path id="402" transform="matrix(1 0 0 -1 0 842)" d="M223.0313 204.1289L223.5269 204.1289L223.5269 169.4355L223.0313 169.4355z" stroke="none" fill="#000000" fill-rule="nonzero" /><path id="403" transform="matrix(1 0 0 -1 0 842)" d="M223.0313 204.1289L273.0894 204.1289L273.0894 203.6328L223.0313 203.6328z" stroke="none" fill="#000000" fill-rule="nonzero" /><path id="404" transform="matrix(1 0 0 -1 0 842)" d="M223.0313 169.9316L273.0894 169.9316L273.0894 169.4355L223.0313 169.4355z" stroke="none" fill="#000000" fill-rule="nonzero" /><path id="405" transform="matrix(1 0 0 -1 0 842)" d="M223.0313 204.1289L223.5269 204.1289L223.5269 169.4355L223.0313 169.4355z" stroke="none" fill="#000000" fill-rule="nonzero" /><path id="406" transform="matrix(1 0 0 -1 0 842)" d="M272.5938 204.1289L273.0894 204.1289L273.0894 169.4355L272.5938 169.4355z" stroke="none" fill="#000000" fill-rule="nonzero" /><path id="407" transform="matrix(1 0 0 -1 0 842)" d="M272.5938 204.1289L421.7769 204.1289L421.7769 203.6328L272.5938 203.6328z" stroke="none" fill="#000000" fill-rule="nonzero" /><path id="408" transform="matrix(1 0 0 -1 0 842)" d="M272.5938 169.9316L421.7769 169.9316L421.7769 169.4355L272.5938 169.4355z" stroke="none" fill="#000000" fill-rule="nonzero" /><path id="409" transform="matrix(1 0 0 -1 0 842)" d="M272.5938 204.1289L273.0894 204.1289L273.0894 169.4355L272.5938 169.4355z" stroke="none" fill="#000000" fill-rule="nonzero" /><path id="410" transform="matrix(1 0 0 -1 0 842)" d="M421.2813 204.1289L421.7769 204.1289L421.7769 169.4355L421.2813 169.4355z" stroke="none" fill="#000000" fill-rule="nonzero" /><path id="411" transform="matrix(1 0 0 -1 0 842)" d="M421.2813 204.1289L471.3394 204.1289L471.3394 203.6328L421.2813 203.6328z" stroke="none" fill="#000000" fill-rule="nonzero" /><path id="412" transform="matrix(1 0 0 -1 0 842)" d="M421.2813 169.9316L471.3394 169.9316L471.3394 169.4355L421.2813 169.4355z" stroke="none" fill="#000000" fill-rule="nonzero" /><path id="413" transform="matrix(1 0 0 -1 0 842)" d="M421.2813 204.1289L421.7769 204.1289L421.7769 169.4355L421.2813 169.4355z" stroke="none" fill="#000000" fill-rule="nonzero" /><path id="414" transform="matrix(1 0 0 -1 0 842)" d="M470.8438 204.1289L471.3394 204.1289L471.3394 169.4355L470.8438 169.4355z" stroke="none" fill="#000000" fill-rule="nonzero" /><path id="415" transform="matrix(1 0 0 -1 0 842)" d="M470.8438 204.1289L545.1875 204.1289L545.1875 203.6328L470.8438 203.6328z" stroke="none" fill="#000000" fill-rule="nonzero" /><path id="416" transform="matrix(1 0 0 -1 0 842)" d="M470.8438 169.9316L545.1875 169.9316L545.1875 169.4355L470.8438 169.4355z" stroke="none" fill="#000000" fill-rule="nonzero" /><path id="417" transform="matrix(1 0 0 -1 0 842)" d="M470.8438 204.1289L471.3394 204.1289L471.3394 169.4355L470.8438 169.4355z" stroke="none" fill="#000000" fill-rule="nonzero" /><path id="418" transform="matrix(1 0 0 -1 0 842)" d="M544.6919 204.1289L545.1875 204.1289L545.1875 169.4355L544.6919 169.4355z" stroke="none" fill="#000000" fill-rule="nonzero" /><path id="419" transform="matrix(1 0 0 -1 0 842)" d="M49.5625 169.9316L74.83938 169.9316L74.83938 169.4355L49.5625 169.4355z" stroke="none" fill="#000000" fill-rule="nonzero" /><path id="420" transform="matrix(1 0 0 -1 0 842)" d="M49.5625 131.7676L74.83938 131.7676L74.83938 131.2715L49.5625 131.2715z" stroke="none" fill="#000000" fill-rule="nonzero" /><path id="421" transform="matrix(1 0 0 -1 0 842)" d="M49.5625 169.9316L50.05813 169.9316L50.05813 131.2715L49.5625 131.2715z" stroke="none" fill="#000000" fill-rule="nonzero" /><path id="422" transform="matrix(1 0 0 -1 0 842)" d="M74.34375 169.9316L74.83938 169.9316L74.83938 131.2715L74.34375 131.2715z" stroke="none" fill="#000000" fill-rule="nonzero" /><path id="423" transform="matrix(1 0 0 -1 0 842)" d="M74.34375 169.9316L149.1831 169.9316L149.1831 169.4355L74.34375 169.4355z" stroke="none" fill="#000000" fill-rule="nonzero" /><path id="424" transform="matrix(1 0 0 -1 0 842)" d="M74.34375 131.7676L149.1831 131.7676L149.1831 131.2715L74.34375 131.2715z" stroke="none" fill="#000000" fill-rule="nonzero" /><path id="425" transform="matrix(1 0 0 -1 0 842)" d="M74.34375 169.9316L74.83938 169.9316L74.83938 131.2715L74.34375 131.2715z" stroke="none" fill="#000000" fill-rule="nonzero" /><path id="426" transform="matrix(1 0 0 -1 0 842)" d="M148.6875 169.9316L149.1831 169.9316L149.1831 131.2715L148.6875 131.2715z" stroke="none" fill="#000000" fill-rule="nonzero" /><path id="427" transform="matrix(1 0 0 -1 0 842)" d="M148.6875 169.9316L223.5269 169.9316L223.5269 169.4355L148.6875 169.4355z" stroke="none" fill="#000000" fill-rule="nonzero" /><path id="428" transform="matrix(1 0 0 -1 0 842)" d="M148.6875 131.7676L223.5269 131.7676L223.5269 131.2715L148.6875 131.2715z" stroke="none" fill="#000000" fill-rule="nonzero" /><path id="429" transform="matrix(1 0 0 -1 0 842)" d="M148.6875 169.9316L149.1831 169.9316L149.1831 131.2715L148.6875 131.2715z" stroke="none" fill="#000000" fill-rule="nonzero" /><path id="430" transform="matrix(1 0 0 -1 0 842)" d="M223.0313 169.9316L223.5269 169.9316L223.5269 131.2715L223.0313 131.2715z" stroke="none" fill="#000000" fill-rule="nonzero" /><path id="431" transform="matrix(1 0 0 -1 0 842)" d="M223.0313 169.9316L273.0894 169.9316L273.0894 169.4355L223.0313 169.4355z" stroke="none" fill="#000000" fill-rule="nonzero" /><path id="432" transform="matrix(1 0 0 -1 0 842)" d="M223.0313 131.7676L273.0894 131.7676L273.0894 131.2715L223.0313 131.2715z" stroke="none" fill="#000000" fill-rule="nonzero" /><path id="433" transform="matrix(1 0 0 -1 0 842)" d="M223.0313 169.9316L223.5269 169.9316L223.5269 131.2715L223.0313 131.2715z" stroke="none" fill="#000000" fill-rule="nonzero" /><path id="434" transform="matrix(1 0 0 -1 0 842)" d="M272.5938 169.9316L273.0894 169.9316L273.0894 131.2715L272.5938 131.2715z" stroke="none" fill="#000000" fill-rule="nonzero" /><path id="435" transform="matrix(1 0 0 -1 0 842)" d="M272.5938 169.9316L421.7769 169.9316L421.7769 169.4355L272.5938 169.4355z" stroke="none" fill="#000000" fill-rule="nonzero" /><path id="436" transform="matrix(1 0 0 -1 0 842)" d="M272.5938 131.7676L421.7769 131.7676L421.7769 131.2715L272.5938 131.2715z" stroke="none" fill="#000000" fill-rule="nonzero" /><path id="437" transform="matrix(1 0 0 -1 0 842)" d="M272.5938 169.9316L273.0894 169.9316L273.0894 131.2715L272.5938 131.2715z" stroke="none" fill="#000000" fill-rule="nonzero" /><path id="438" transform="matrix(1 0 0 -1 0 842)" d="M421.2813 169.9316L421.7769 169.9316L421.7769 131.2715L421.2813 131.2715z" stroke="none" fill="#000000" fill-rule="nonzero" /><path id="439" transform="matrix(1 0 0 -1 0 842)" d="M421.2813 169.9316L471.3394 169.9316L471.3394 169.4355L421.2813 169.4355z" stroke="none" fill="#000000" fill-rule="nonzero" /><path id="440" transform="matrix(1 0 0 -1 0 842)" d="M421.2813 131.7676L471.3394 131.7676L471.3394 131.2715L421.2813 131.2715z" stroke="none" fill="#000000" fill-rule="nonzero" /><path id="441" transform="matrix(1 0 0 -1 0 842)" d="M421.2813 169.9316L421.7769 169.9316L421.7769 131.2715L421.2813 131.2715z" stroke="none" fill="#000000" fill-rule="nonzero" /><path id="442" transform="matrix(1 0 0 -1 0 842)" d="M470.8438 169.9316L471.3394 169.9316L471.3394 131.2715L470.8438 131.2715z" stroke="none" fill="#000000" fill-rule="nonzero" /><path id="443" transform="matrix(1 0 0 -1 0 842)" d="M470.8438 169.9316L545.1875 169.9316L545.1875 169.4355L470.8438 169.4355z" stroke="none" fill="#000000" fill-rule="nonzero" /><path id="444" transform="matrix(1 0 0 -1 0 842)" d="M470.8438 131.7676L545.1875 131.7676L545.1875 131.2715L470.8438 131.2715z" stroke="none" fill="#000000" fill-rule="nonzero" /><path id="445" transform="matrix(1 0 0 -1 0 842)" d="M470.8438 169.9316L471.3394 169.9316L471.3394 131.2715L470.8438 131.2715z" stroke="none" fill="#000000" fill-rule="nonzero" /><path id="446" transform="matrix(1 0 0 -1 0 842)" d="M544.6919 169.9316L545.1875 169.9316L545.1875 131.2715L544.6919 131.2715z" stroke="none" fill="#000000" fill-rule="nonzero" /><path id="447" transform="matrix(1 0 0 -1 0 842)" d="M49.5625 131.7676L74.83938 131.7676L74.83938 131.2715L49.5625 131.2715z" stroke="none" fill="#000000" fill-rule="nonzero" /><path id="448" transform="matrix(1 0 0 -1 0 842)" d="M49.5625 97.57031L74.83938 97.57031L74.83938 97.07422L49.5625 97.07422z" stroke="none" fill="#000000" fill-rule="nonzero" /><path id="449" transform="matrix(1 0 0 -1 0 842)" d="M49.5625 131.7676L50.05813 131.7676L50.05813 97.07422L49.5625 97.07422z" stroke="none" fill="#000000" fill-rule="nonzero" /><path id="450" transform="matrix(1 0 0 -1 0 842)" d="M74.34375 131.7676L74.83938 131.7676L74.83938 97.07422L74.34375 97.07422z" stroke="none" fill="#000000" fill-rule="nonzero" /><path id="451" transform="matrix(1 0 0 -1 0 842)" d="M74.34375 131.7676L149.1831 131.7676L149.1831 131.2715L74.34375 131.2715z" stroke="none" fill="#000000" fill-rule="nonzero" /><path id="452" transform="matrix(1 0 0 -1 0 842)" d="M74.34375 97.57031L149.1831 97.57031L149.1831 97.07422L74.34375 97.07422z" stroke="none" fill="#000000" fill-rule="nonzero" /><path id="453" transform="matrix(1 0 0 -1 0 842)" d="M74.34375 131.7676L74.83938 131.7676L74.83938 97.07422L74.34375 97.07422z" stroke="none" fill="#000000" fill-rule="nonzero" /><path id="454" transform="matrix(1 0 0 -1 0 842)" d="M148.6875 131.7676L149.1831 131.7676L149.1831 97.07422L148.6875 97.07422z" stroke="none" fill="#000000" fill-rule="nonzero" /><path id="455" transform="matrix(1 0 0 -1 0 842)" d="M148.6875 131.7676L223.5269 131.7676L223.5269 131.2715L148.6875 131.2715z" stroke="none" fill="#000000" fill-rule="nonzero" /><path id="456" transform="matrix(1 0 0 -1 0 842)" d="M148.6875 97.57031L223.5269 97.57031L223.5269 97.07422L148.6875 97.07422z" stroke="none" fill="#000000" fill-rule="nonzero" /><path id="457" transform="matrix(1 0 0 -1 0 842)" d="M148.6875 131.7676L149.1831 131.7676L149.1831 97.07422L148.6875 97.07422z" stroke="none" fill="#000000" fill-rule="nonzero" /><path id="458" transform="matrix(1 0 0 -1 0 842)" d="M223.0313 131.7676L223.5269 131.7676L223.5269 97.07422L223.0313 97.07422z" stroke="none" fill="#000000" fill-rule="nonzero" /><path id="459" transform="matrix(1 0 0 -1 0 842)" d="M223.0313 131.7676L273.0894 131.7676L273.0894 131.2715L223.0313 131.2715z" stroke="none" fill="#000000" fill-rule="nonzero" /><path id="460" transform="matrix(1 0 0 -1 0 842)" d="M223.0313 97.57031L273.0894 97.57031L273.0894 97.07422L223.0313 97.07422z" stroke="none" fill="#000000" fill-rule="nonzero" /><path id="461" transform="matrix(1 0 0 -1 0 842)" d="M223.0313 131.7676L223.5269 131.7676L223.5269 97.07422L223.0313 97.07422z" stroke="none" fill="#000000" fill-rule="nonzero" /><path id="462" transform="matrix(1 0 0 -1 0 842)" d="M272.5938 131.7676L273.0894 131.7676L273.0894 97.07422L272.5938 97.07422z" stroke="none" fill="#000000" fill-rule="nonzero" /><path id="463" transform="matrix(1 0 0 -1 0 842)" d="M272.5938 131.7676L421.7769 131.7676L421.7769 131.2715L272.5938 131.2715z" stroke="none" fill="#000000" fill-rule="nonzero" /><path id="464" transform="matrix(1 0 0 -1 0 842)" d="M272.5938 97.57031L421.7769 97.57031L421.7769 97.07422L272.5938 97.07422z" stroke="none" fill="#000000" fill-rule="nonzero" /><path id="465" transform="matrix(1 0 0 -1 0 842)" d="M272.5938 131.7676L273.0894 131.7676L273.0894 97.07422L272.5938 97.07422z" stroke="none" fill="#000000" fill-rule="nonzero" /><path id="466" transform="matrix(1 0 0 -1 0 842)" d="M421.2813 131.7676L421.7769 131.7676L421.7769 97.07422L421.2813 97.07422z" stroke="none" fill="#000000" fill-rule="nonzero" /><path id="467" transform="matrix(1 0 0 -1 0 842)" d="M421.2813 131.7676L471.3394 131.7676L471.3394 131.2715L421.2813 131.2715z" stroke="none" fill="#000000" fill-rule="nonzero" /><path id="468" transform="matrix(1 0 0 -1 0 842)" d="M421.2813 97.57031L471.3394 97.57031L471.3394 97.07422L421.2813 97.07422z" stroke="none" fill="#000000" fill-rule="nonzero" /><path id="469" transform="matrix(1 0 0 -1 0 842)" d="M421.2813 131.7676L421.7769 131.7676L421.7769 97.07422L421.2813 97.07422z" stroke="none" fill="#000000" fill-rule="nonzero" /><path id="470" transform="matrix(1 0 0 -1 0 842)" d="M470.8438 131.7676L471.3394 131.7676L471.3394 97.07422L470.8438 97.07422z" stroke="none" fill="#000000" fill-rule="nonzero" /><path id="471" transform="matrix(1 0 0 -1 0 842)" d="M470.8438 131.7676L545.1875 131.7676L545.1875 131.2715L470.8438 131.2715z" stroke="none" fill="#000000" fill-rule="nonzero" /><path id="472" transform="matrix(1 0 0 -1 0 842)" d="M470.8438 97.57031L545.1875 97.57031L545.1875 97.07422L470.8438 97.07422z" stroke="none" fill="#000000" fill-rule="nonzero" /><path id="473" transform="matrix(1 0 0 -1 0 842)" d="M470.8438 131.7676L471.3394 131.7676L471.3394 97.07422L470.8438 97.07422z" stroke="none" fill="#000000" fill-rule="nonzero" /><path id="474" transform="matrix(1 0 0 -1 0 842)" d="M544.6919 131.7676L545.1875 131.7676L545.1875 97.07422L544.6919 97.07422z" stroke="none" fill="#000000" fill-rule="nonzero" /><path id="475" transform="matrix(1 0 0 -1 0 842)" d="M49.5625 97.57031L74.83938 97.57031L74.83938 97.07422L49.5625 97.07422z" stroke="none" fill="#000000" fill-rule="nonzero" /><path id="476" transform="matrix(1 0 0 -1 0 842)" d="M49.5625 63.37109L74.83938 63.37109L74.83938 62.875L49.5625 62.875z" stroke="none" fill="#000000" fill-rule="nonzero" /><path id="477" transform="matrix(1 0 0 -1 0 842)" d="M49.5625 97.57031L50.05813 97.57031L50.05813 62.875L49.5625 62.875z" stroke="none" fill="#000000" fill-rule="nonzero" /><path id="478" transform="matrix(1 0 0 -1 0 842)" d="M74.34375 97.57031L74.83938 97.57031L74.83938 62.875L74.34375 62.875z" stroke="none" fill="#000000" fill-rule="nonzero" /><path id="479" transform="matrix(1 0 0 -1 0 842)" d="M74.34375 97.57031L149.1831 97.57031L149.1831 97.07422L74.34375 97.07422z" stroke="none" fill="#000000" fill-rule="nonzero" /><path id="480" transform="matrix(1 0 0 -1 0 842)" d="M74.34375 63.37109L149.1831 63.37109L149.1831 62.875L74.34375 62.875z" stroke="none" fill="#000000" fill-rule="nonzero" /><path id="481" transform="matrix(1 0 0 -1 0 842)" d="M74.34375 97.57031L74.83938 97.57031L74.83938 62.875L74.34375 62.875z" stroke="none" fill="#000000" fill-rule="nonzero" /><path id="482" transform="matrix(1 0 0 -1 0 842)" d="M148.6875 97.57031L149.1831 97.57031L149.1831 62.875L148.6875 62.875z" stroke="none" fill="#000000" fill-rule="nonzero" /><path id="483" transform="matrix(1 0 0 -1 0 842)" d="M148.6875 97.57031L223.5269 97.57031L223.5269 97.07422L148.6875 97.07422z" stroke="none" fill="#000000" fill-rule="nonzero" /><path id="484" transform="matrix(1 0 0 -1 0 842)" d="M148.6875 63.37109L223.5269 63.37109L223.5269 62.875L148.6875 62.875z" stroke="none" fill="#000000" fill-rule="nonzero" /><path id="485" transform="matrix(1 0 0 -1 0 842)" d="M148.6875 97.57031L149.1831 97.57031L149.1831 62.875L148.6875 62.875z" stroke="none" fill="#000000" fill-rule="nonzero" /><path id="486" transform="matrix(1 0 0 -1 0 842)" d="M223.0313 97.57031L223.5269 97.57031L223.5269 62.875L223.0313 62.875z" stroke="none" fill="#000000" fill-rule="nonzero" /><path id="487" transform="matrix(1 0 0 -1 0 842)" d="M223.0313 97.57031L273.0894 97.57031L273.0894 97.07422L223.0313 97.07422z" stroke="none" fill="#000000" fill-rule="nonzero" /><path id="488" transform="matrix(1 0 0 -1 0 842)" d="M223.0313 63.37109L273.0894 63.37109L273.0894 62.875L223.0313 62.875z" stroke="none" fill="#000000" fill-rule="nonzero" /><path id="489" transform="matrix(1 0 0 -1 0 842)" d="M223.0313 97.57031L223.5269 97.57031L223.5269 62.875L223.0313 62.875z" stroke="none" fill="#000000" fill-rule="nonzero" /><path id="490" transform="matrix(1 0 0 -1 0 842)" d="M272.5938 97.57031L273.0894 97.57031L273.0894 62.875L272.5938 62.875z" stroke="none" fill="#000000" fill-rule="nonzero" /><path id="491" transform="matrix(1 0 0 -1 0 842)" d="M272.5938 97.57031L421.7769 97.57031L421.7769 97.07422L272.5938 97.07422z" stroke="none" fill="#000000" fill-rule="nonzero" /><path id="492" transform="matrix(1 0 0 -1 0 842)" d="M272.5938 63.37109L421.7769 63.37109L421.7769 62.875L272.5938 62.875z" stroke="none" fill="#000000" fill-rule="nonzero" /><path id="493" transform="matrix(1 0 0 -1 0 842)" d="M272.5938 97.57031L273.0894 97.57031L273.0894 62.875L272.5938 62.875z" stroke="none" fill="#000000" fill-rule="nonzero" /><path id="494" transform="matrix(1 0 0 -1 0 842)" d="M421.2813 97.57031L421.7769 97.57031L421.7769 62.875L421.2813 62.875z" stroke="none" fill="#000000" fill-rule="nonzero" /><path id="495" transform="matrix(1 0 0 -1 0 842)" d="M421.2813 97.57031L471.3394 97.57031L471.3394 97.07422L421.2813 97.07422z" stroke="none" fill="#000000" fill-rule="nonzero" /><path id="496" transform="matrix(1 0 0 -1 0 842)" d="M421.2813 63.37109L471.3394 63.37109L471.3394 62.875L421.2813 62.875z" stroke="none" fill="#000000" fill-rule="nonzero" /><path id="497" transform="matrix(1 0 0 -1 0 842)" d="M421.2813 97.57031L421.7769 97.57031L421.7769 62.875L421.2813 62.875z" stroke="none" fill="#000000" fill-rule="nonzero" /><path id="498" transform="matrix(1 0 0 -1 0 842)" d="M470.8438 97.57031L471.3394 97.57031L471.3394 62.875L470.8438 62.875z" stroke="none" fill="#000000" fill-rule="nonzero" /><path id="499" transform="matrix(1 0 0 -1 0 842)" d="M470.8438 97.57031L545.1875 97.57031L545.1875 97.07422L470.8438 97.07422z" stroke="none" fill="#000000" fill-rule="nonzero" /><path id="500" transform="matrix(1 0 0 -1 0 842)" d="M470.8438 63.37109L545.1875 63.37109L545.1875 62.875L470.8438 62.875z" stroke="none" fill="#000000" fill-rule="nonzero" /><path id="501" transform="matrix(1 0 0 -1 0 842)" d="M470.8438 97.57031L471.3394 97.57031L471.3394 62.875L470.8438 62.875z" stroke="none" fill="#000000" fill-rule="nonzero" /><path id="502" transform="matrix(1 0 0 -1 0 842)" d="M544.6919 97.57031L545.1875 97.57031L545.1875 62.875L544.6919 62.875z" stroke="none" fill="#000000" fill-rule="nonzero" /></g></g></g></svg>