<svg xmlns="http://www.w3.org/2000/svg" xmlns:xlink="http://www.w3.org/1999/xlink" id="body_22" preserveAspectRatio="xMinYMin meet" viewBox="0 0 793 1123"><defs><clipPath id="1"><path id="" clip-rule="evenodd" transform="matrix(1 0 0 1 0 0)" d="M0 842L0 0L0 0L595 0L595 0L595 842L595 842L0 842z" /></clipPath><clipPath id="2"><path id="" clip-rule="evenodd" transform="matrix(1 0 0 1 0 0)" d="M0 0L594.75 0L594.75 0L594.75 842.0669L594.75 842.0669L0 842.0669L0 842.0669L0 0z" /></clipPath></defs><g transform="matrix(1.333333 0 0 1.333333 0 0)"><g clip-path="url(#1)"><g clip-path="url(#2)"><path id="1" transform="matrix(1 0 0 -1 0 842)" d="M0 842L594.75 842L594.75 -0.06835938L0 -0.06835938z" stroke="none" fill="#FFFFFF" fill-rule="nonzero" /><path id="2" transform="matrix(1 0 0 -1 0 842)" d="M49.5625 765.6738L74.34375 765.6738L74.34375 739.9004L49.5625 739.9004z" stroke="none" fill="#9CC9F0" fill-rule="nonzero" /><path id="3" transform="matrix(1 0 0 -1 0 842)" d="M74.34375 765.6738L148.6875 765.6738L148.6875 739.9004L74.34375 739.9004z" stroke="none" fill="#9CC9F0" fill-rule="nonzero" /><path id="4" transform="matrix(1 0 0 -1 0 842)" d="M148.6875 765.6738L223.0313 765.6738L223.0313 739.9004L148.6875 739.9004z" stroke="none" fill="#9CC9F0" fill-rule="nonzero" /><path id="5" transform="matrix(1 0 0 -1 0 842)" d="M223.0313 765.6738L272.5938 765.6738L272.5938 739.9004L223.0313 739.9004z" stroke="none" fill="#9CC9F0" fill-rule="nonzero" /><path id="6" transform="matrix(1 0 0 -1 0 842)" d="M272.5938 765.6738L421.2813 765.6738L421.2813 739.9004L272.5938 739.9004z" stroke="none" fill="#9CC9F0" fill-rule="nonzero" /><path id="7" transform="matrix(1 0 0 -1 0 842)" d="M421.2813 765.6738L470.8438 765.6738L470.8438 739.9004L421.2813 739.9004z" stroke="none" fill="#9CC9F0" fill-rule="nonzero" /><path id="8" transform="matrix(1 0 0 -1 0 842)" d="M470.8438 765.6738L544.6919 765.6738L544.6919 739.9004L470.8438 739.9004z" stroke="none" fill="#9CC9F0" fill-rule="nonzero" /><path id="9" transform="matrix(1 0 0 -1 0 842)" d="M49.5625 765.6738L74.83938 765.6738L74.83938 765.1777L49.5625 765.1777z" stroke="none" fill="#000000" fill-rule="nonzero" /><path id="10" transform="matrix(1 0 0 -1 0 842)" d="M49.5625 739.9004L74.83938 739.9004L74.83938 739.4043L49.5625 739.4043z" stroke="none" fill="#000000" fill-rule="nonzero" /><path id="11" transform="matrix(1 0 0 -1 0 842)" d="M49.5625 765.6738L50.05813 765.6738L50.05813 739.4043L49.5625 739.4043z" stroke="none" fill="#000000" fill-rule="nonzero" /><path id="12" transform="matrix(1 0 0 -1 0 842)" d="M74.34375 765.6738L74.83938 765.6738L74.83938 739.4043L74.34375 739.4043z" stroke="none" fill="#000000" fill-rule="nonzero" /><path id="13" transform="matrix(1 0 0 -1 0 842)" d="M74.34375 765.6738L149.1831 765.6738L149.1831 765.1777L74.34375 765.1777z" stroke="none" fill="#000000" fill-rule="nonzero" /><path id="14" transform="matrix(1 0 0 -1 0 842)" d="M74.34375 739.9004L149.1831 739.9004L149.1831 739.4043L74.34375 739.4043z" stroke="none" fill="#000000" fill-rule="nonzero" /><path id="15" transform="matrix(1 0 0 -1 0 842)" d="M74.34375 765.6738L74.83938 765.6738L74.83938 739.4043L74.34375 739.4043z" stroke="none" fill="#000000" fill-rule="nonzero" /><path id="16" transform="matrix(1 0 0 -1 0 842)" d="M148.6875 765.6738L149.1831 765.6738L149.1831 739.4043L148.6875 739.4043z" stroke="none" fill="#000000" fill-rule="nonzero" /><path id="17" transform="matrix(1 0 0 -1 0 842)" d="M148.6875 765.6738L223.5269 765.6738L223.5269 765.1777L148.6875 765.1777z" stroke="none" fill="#000000" fill-rule="nonzero" /><path id="18" transform="matrix(1 0 0 -1 0 842)" d="M148.6875 739.9004L223.5269 739.9004L223.5269 739.4043L148.6875 739.4043z" stroke="none" fill="#000000" fill-rule="nonzero" /><path id="19" transform="matrix(1 0 0 -1 0 842)" d="M148.6875 765.6738L149.1831 765.6738L149.1831 739.4043L148.6875 739.4043z" stroke="none" fill="#000000" fill-rule="nonzero" /><path id="20" transform="matrix(1 0 0 -1 0 842)" d="M223.0313 765.6738L223.5269 765.6738L223.5269 739.4043L223.0313 739.4043z" stroke="none" fill="#000000" fill-rule="nonzero" /><path id="21" transform="matrix(1 0 0 -1 0 842)" d="M223.0313 765.6738L273.0894 765.6738L273.0894 765.1777L223.0313 765.1777z" stroke="none" fill="#000000" fill-rule="nonzero" /><path id="22" transform="matrix(1 0 0 -1 0 842)" d="M223.0313 739.9004L273.0894 739.9004L273.0894 739.4043L223.0313 739.4043z" stroke="none" fill="#000000" fill-rule="nonzero" /><path id="23" transform="matrix(1 0 0 -1 0 842)" d="M223.0313 765.6738L223.5269 765.6738L223.5269 739.4043L223.0313 739.4043z" stroke="none" fill="#000000" fill-rule="nonzero" /><path id="24" transform="matrix(1 0 0 -1 0 842)" d="M272.5938 765.6738L273.0894 765.6738L273.0894 739.4043L272.5938 739.4043z" stroke="none" fill="#000000" fill-rule="nonzero" /><path id="25" transform="matrix(1 0 0 -1 0 842)" d="M272.5938 765.6738L421.7769 765.6738L421.7769 765.1777L272.5938 765.1777z" stroke="none" fill="#000000" fill-rule="nonzero" /><path id="26" transform="matrix(1 0 0 -1 0 842)" d="M272.5938 739.9004L421.7769 739.9004L421.7769 739.4043L272.5938 739.4043z" stroke="none" fill="#000000" fill-rule="nonzero" /><path id="27" transform="matrix(1 0 0 -1 0 842)" d="M272.5938 765.6738L273.0894 765.6738L273.0894 739.4043L272.5938 739.4043z" stroke="none" fill="#000000" fill-rule="nonzero" /><path id="28" transform="matrix(1 0 0 -1 0 842)" d="M421.2813 765.6738L421.7769 765.6738L421.7769 739.4043L421.2813 739.4043z" stroke="none" fill="#000000" fill-rule="nonzero" /><path id="29" transform="matrix(1 0 0 -1 0 842)" d="M421.2813 765.6738L471.3394 765.6738L471.3394 765.1777L421.2813 765.1777z" stroke="none" fill="#000000" fill-rule="nonzero" /><path id="30" transform="matrix(1 0 0 -1 0 842)" d="M421.2813 739.9004L471.3394 739.9004L471.3394 739.4043L421.2813 739.4043z" stroke="none" fill="#000000" fill-rule="nonzero" /><path id="31" transform="matrix(1 0 0 -1 0 842)" d="M421.2813 765.6738L421.7769 765.6738L421.7769 739.4043L421.2813 739.4043z" stroke="none" fill="#000000" fill-rule="nonzero" /><path id="32" transform="matrix(1 0 0 -1 0 842)" d="M470.8438 765.6738L471.3394 765.6738L471.3394 739.4043L470.8438 739.4043z" stroke="none" fill="#000000" fill-rule="nonzero" /><path id="33" transform="matrix(1 0 0 -1 0 842)" d="M470.8438 765.6738L545.1875 765.6738L545.1875 765.1777L470.8438 765.1777z" stroke="none" fill="#000000" fill-rule="nonzero" /><path id="34" transform="matrix(1 0 0 -1 0 842)" d="M470.8438 739.9004L545.1875 739.9004L545.1875 739.4043L470.8438 739.4043z" stroke="none" fill="#000000" fill-rule="nonzero" /><path id="35" transform="matrix(1 0 0 -1 0 842)" d="M470.8438 765.6738L471.3394 765.6738L471.3394 739.4043L470.8438 739.4043z" stroke="none" fill="#000000" fill-rule="nonzero" /><path id="36" transform="matrix(1 0 0 -1 0 842)" d="M544.6919 765.6738L545.1875 765.6738L545.1875 739.4043L544.6919 739.4043z" stroke="none" fill="#000000" fill-rule="nonzero" /><path id="37" transform="matrix(1 0 0 -1 0 842)" d="M49.5625 739.9004L74.83938 739.9004L74.83938 739.4043L49.5625 739.4043z" stroke="none" fill="#000000" fill-rule="nonzero" /><path id="38" transform="matrix(1 0 0 -1 0 842)" d="M49.5625 705.7031L74.83938 705.7031L74.83938 705.207L49.5625 705.207z" stroke="none" fill="#000000" fill-rule="nonzero" /><path id="39" transform="matrix(1 0 0 -1 0 842)" d="M49.5625 739.9004L50.05813 739.9004L50.05813 705.207L49.5625 705.207z" stroke="none" fill="#000000" fill-rule="nonzero" /><path id="40" transform="matrix(1 0 0 -1 0 842)" d="M74.34375 739.9004L74.83938 739.9004L74.83938 705.207L74.34375 705.207z" stroke="none" fill="#000000" fill-rule="nonzero" /><path id="41" transform="matrix(1 0 0 -1 0 842)" d="M74.34375 739.9004L149.1831 739.9004L149.1831 739.4043L74.34375 739.4043z" stroke="none" fill="#000000" fill-rule="nonzero" /><path id="42" transform="matrix(1 0 0 -1 0 842)" d="M74.34375 705.7031L149.1831 705.7031L149.1831 705.207L74.34375 705.207z" stroke="none" fill="#000000" fill-rule="nonzero" /><path id="43" transform="matrix(1 0 0 -1 0 842)" d="M74.34375 739.9004L74.83938 739.9004L74.83938 705.207L74.34375 705.207z" stroke="none" fill="#000000" fill-rule="nonzero" /><path id="44" transform="matrix(1 0 0 -1 0 842)" d="M148.6875 739.9004L149.1831 739.9004L149.1831 705.207L148.6875 705.207z" stroke="none" fill="#000000" fill-rule="nonzero" /><path id="45" transform="matrix(1 0 0 -1 0 842)" d="M148.6875 739.9004L223.5269 739.9004L223.5269 739.4043L148.6875 739.4043z" stroke="none" fill="#000000" fill-rule="nonzero" /><path id="46" transform="matrix(1 0 0 -1 0 842)" d="M148.6875 705.7031L223.5269 705.7031L223.5269 705.207L148.6875 705.207z" stroke="none" fill="#000000" fill-rule="nonzero" /><path id="47" transform="matrix(1 0 0 -1 0 842)" d="M148.6875 739.9004L149.1831 739.9004L149.1831 705.207L148.6875 705.207z" stroke="none" fill="#000000" fill-rule="nonzero" /><path id="48" transform="matrix(1 0 0 -1 0 842)" d="M223.0313 739.9004L223.5269 739.9004L223.5269 705.207L223.0313 705.207z" stroke="none" fill="#000000" fill-rule="nonzero" /><path id="49" transform="matrix(1 0 0 -1 0 842)" d="M223.0313 739.9004L273.0894 739.9004L273.0894 739.4043L223.0313 739.4043z" stroke="none" fill="#000000" fill-rule="nonzero" /><path id="50" transform="matrix(1 0 0 -1 0 842)" d="M223.0313 705.7031L273.0894 705.7031L273.0894 705.207L223.0313 705.207z" stroke="none" fill="#000000" fill-rule="nonzero" /><path id="51" transform="matrix(1 0 0 -1 0 842)" d="M223.0313 739.9004L223.5269 739.9004L223.5269 705.207L223.0313 705.207z" stroke="none" fill="#000000" fill-rule="nonzero" /><path id="52" transform="matrix(1 0 0 -1 0 842)" d="M272.5938 739.9004L273.0894 739.9004L273.0894 705.207L272.5938 705.207z" stroke="none" fill="#000000" fill-rule="nonzero" /><path id="53" transform="matrix(1 0 0 -1 0 842)" d="M272.5938 739.9004L421.7769 739.9004L421.7769 739.4043L272.5938 739.4043z" stroke="none" fill="#000000" fill-rule="nonzero" /><path id="54" transform="matrix(1 0 0 -1 0 842)" d="M272.5938 705.7031L421.7769 705.7031L421.7769 705.207L272.5938 705.207z" stroke="none" fill="#000000" fill-rule="nonzero" /><path id="55" transform="matrix(1 0 0 -1 0 842)" d="M272.5938 739.9004L273.0894 739.9004L273.0894 705.207L272.5938 705.207z" stroke="none" fill="#000000" fill-rule="nonzero" /><path id="56" transform="matrix(1 0 0 -1 0 842)" d="M421.2813 739.9004L421.7769 739.9004L421.7769 705.207L421.2813 705.207z" stroke="none" fill="#000000" fill-rule="nonzero" /><path id="57" transform="matrix(1 0 0 -1 0 842)" d="M421.2813 739.9004L471.3394 739.9004L471.3394 739.4043L421.2813 739.4043z" stroke="none" fill="#000000" fill-rule="nonzero" /><path id="58" transform="matrix(1 0 0 -1 0 842)" d="M421.2813 705.7031L471.3394 705.7031L471.3394 705.207L421.2813 705.207z" stroke="none" fill="#000000" fill-rule="nonzero" /><path id="59" transform="matrix(1 0 0 -1 0 842)" d="M421.2813 739.9004L421.7769 739.9004L421.7769 705.207L421.2813 705.207z" stroke="none" fill="#000000" fill-rule="nonzero" /><path id="60" transform="matrix(1 0 0 -1 0 842)" d="M470.8438 739.9004L471.3394 739.9004L471.3394 705.207L470.8438 705.207z" stroke="none" fill="#000000" fill-rule="nonzero" /><path id="61" transform="matrix(1 0 0 -1 0 842)" d="M470.8438 739.9004L545.1875 739.9004L545.1875 739.4043L470.8438 739.4043z" stroke="none" fill="#000000" fill-rule="nonzero" /><path id="62" transform="matrix(1 0 0 -1 0 842)" d="M470.8438 705.7031L545.1875 705.7031L545.1875 705.207L470.8438 705.207z" stroke="none" fill="#000000" fill-rule="nonzero" /><path id="63" transform="matrix(1 0 0 -1 0 842)" d="M470.8438 739.9004L471.3394 739.9004L471.3394 705.207L470.8438 705.207z" stroke="none" fill="#000000" fill-rule="nonzero" /><path id="64" transform="matrix(1 0 0 -1 0 842)" d="M544.6919 739.9004L545.1875 739.9004L545.1875 705.207L544.6919 705.207z" stroke="none" fill="#000000" fill-rule="nonzero" /><path id="65" transform="matrix(1 0 0 -1 0 842)" d="M49.5625 705.7031L74.83938 705.7031L74.83938 705.207L49.5625 705.207z" stroke="none" fill="#000000" fill-rule="nonzero" /><path id="66" transform="matrix(1 0 0 -1 0 842)" d="M49.5625 631.3594L74.83938 631.3594L74.83938 630.8633L49.5625 630.8633z" stroke="none" fill="#000000" fill-rule="nonzero" /><path id="67" transform="matrix(1 0 0 -1 0 842)" d="M49.5625 705.7031L50.05813 705.7031L50.05813 630.8633L49.5625 630.8633z" stroke="none" fill="#000000" fill-rule="nonzero" /><path id="68" transform="matrix(1 0 0 -1 0 842)" d="M74.34375 705.7031L74.83938 705.7031L74.83938 630.8633L74.34375 630.8633z" stroke="none" fill="#000000" fill-rule="nonzero" /><path id="69" transform="matrix(1 0 0 -1 0 842)" d="M74.34375 705.7031L149.1831 705.7031L149.1831 705.207L74.34375 705.207z" stroke="none" fill="#000000" fill-rule="nonzero" /><path id="70" transform="matrix(1 0 0 -1 0 842)" d="M74.34375 631.3594L149.1831 631.3594L149.1831 630.8633L74.34375 630.8633z" stroke="none" fill="#000000" fill-rule="nonzero" /><path id="71" transform="matrix(1 0 0 -1 0 842)" d="M74.34375 705.7031L74.83938 705.7031L74.83938 630.8633L74.34375 630.8633z" stroke="none" fill="#000000" fill-rule="nonzero" /><path id="72" transform="matrix(1 0 0 -1 0 842)" d="M148.6875 705.7031L149.1831 705.7031L149.1831 630.8633L148.6875 630.8633z" stroke="none" fill="#000000" fill-rule="nonzero" /><path id="73" transform="matrix(1 0 0 -1 0 842)" d="M148.6875 705.7031L223.5269 705.7031L223.5269 705.207L148.6875 705.207z" stroke="none" fill="#000000" fill-rule="nonzero" /><path id="74" transform="matrix(1 0 0 -1 0 842)" d="M148.6875 631.3594L223.5269 631.3594L223.5269 630.8633L148.6875 630.8633z" stroke="none" fill="#000000" fill-rule="nonzero" /><path id="75" transform="matrix(1 0 0 -1 0 842)" d="M148.6875 705.7031L149.1831 705.7031L149.1831 630.8633L148.6875 630.8633z" stroke="none" fill="#000000" fill-rule="nonzero" /><path id="76" transform="matrix(1 0 0 -1 0 842)" d="M223.0313 705.7031L223.5269 705.7031L223.5269 630.8633L223.0313 630.8633z" stroke="none" fill="#000000" fill-rule="nonzero" /><path id="77" transform="matrix(1 0 0 -1 0 842)" d="M223.0313 705.7031L273.0894 705.7031L273.0894 705.207L223.0313 705.207z" stroke="none" fill="#000000" fill-rule="nonzero" /><path id="78" transform="matrix(1 0 0 -1 0 842)" d="M223.0313 631.3594L273.0894 631.3594L273.0894 630.8633L223.0313 630.8633z" stroke="none" fill="#000000" fill-rule="nonzero" /><path id="79" transform="matrix(1 0 0 -1 0 842)" d="M223.0313 705.7031L223.5269 705.7031L223.5269 630.8633L223.0313 630.8633z" stroke="none" fill="#000000" fill-rule="nonzero" /><path id="80" transform="matrix(1 0 0 -1 0 842)" d="M272.5938 705.7031L273.0894 705.7031L273.0894 630.8633L272.5938 630.8633z" stroke="none" fill="#000000" fill-rule="nonzero" /><path id="81" transform="matrix(1 0 0 -1 0 842)" d="M272.5938 705.7031L421.7769 705.7031L421.7769 705.207L272.5938 705.207z" stroke="none" fill="#000000" fill-rule="nonzero" /><path id="82" transform="matrix(1 0 0 -1 0 842)" d="M272.5938 631.3594L421.7769 631.3594L421.7769 630.8633L272.5938 630.8633z" stroke="none" fill="#000000" fill-rule="nonzero" /><path id="83" transform="matrix(1 0 0 -1 0 842)" d="M272.5938 705.7031L273.0894 705.7031L273.0894 630.8633L272.5938 630.8633z" stroke="none" fill="#000000" fill-rule="nonzero" /><path id="84" transform="matrix(1 0 0 -1 0 842)" d="M421.2813 705.7031L421.7769 705.7031L421.7769 630.8633L421.2813 630.8633z" stroke="none" fill="#000000" fill-rule="nonzero" /><path id="85" transform="matrix(1 0 0 -1 0 842)" d="M421.2813 705.7031L471.3394 705.7031L471.3394 705.207L421.2813 705.207z" stroke="none" fill="#000000" fill-rule="nonzero" /><path id="86" transform="matrix(1 0 0 -1 0 842)" d="M421.2813 631.3594L471.3394 631.3594L471.3394 630.8633L421.2813 630.8633z" stroke="none" fill="#000000" fill-rule="nonzero" /><path id="87" transform="matrix(1 0 0 -1 0 842)" d="M421.2813 705.7031L421.7769 705.7031L421.7769 630.8633L421.2813 630.8633z" stroke="none" fill="#000000" fill-rule="nonzero" /><path id="88" transform="matrix(1 0 0 -1 0 842)" d="M470.8438 705.7031L471.3394 705.7031L471.3394 630.8633L470.8438 630.8633z" stroke="none" fill="#000000" fill-rule="nonzero" /><path id="89" transform="matrix(1 0 0 -1 0 842)" d="M470.8438 705.7031L545.1875 705.7031L545.1875 705.207L470.8438 705.207z" stroke="none" fill="#000000" fill-rule="nonzero" /><path id="90" transform="matrix(1 0 0 -1 0 842)" d="M470.8438 631.3594L545.1875 631.3594L545.1875 630.8633L470.8438 630.8633z" stroke="none" fill="#000000" fill-rule="nonzero" /><path id="91" transform="matrix(1 0 0 -1 0 842)" d="M470.8438 705.7031L471.3394 705.7031L471.3394 630.8633L470.8438 630.8633z" stroke="none" fill="#000000" fill-rule="nonzero" /><path id="92" transform="matrix(1 0 0 -1 0 842)" d="M544.6919 705.7031L545.1875 705.7031L545.1875 630.8633L544.6919 630.8633z" stroke="none" fill="#000000" fill-rule="nonzero" /><path id="93" transform="matrix(1 0 0 -1 0 842)" d="M49.5625 631.3594L74.83938 631.3594L74.83938 630.8633L49.5625 630.8633z" stroke="none" fill="#000000" fill-rule="nonzero" /><path id="94" transform="matrix(1 0 0 -1 0 842)" d="M49.5625 597.1602L74.83938 597.1602L74.83938 596.6641L49.5625 596.6641z" stroke="none" fill="#000000" fill-rule="nonzero" /><path id="95" transform="matrix(1 0 0 -1 0 842)" d="M49.5625 631.3594L50.05813 631.3594L50.05813 596.6641L49.5625 596.6641z" stroke="none" fill="#000000" fill-rule="nonzero" /><path id="96" transform="matrix(1 0 0 -1 0 842)" d="M74.34375 631.3594L74.83938 631.3594L74.83938 596.6641L74.34375 596.6641z" stroke="none" fill="#000000" fill-rule="nonzero" /><path id="97" transform="matrix(1 0 0 -1 0 842)" d="M74.34375 631.3594L149.1831 631.3594L149.1831 630.8633L74.34375 630.8633z" stroke="none" fill="#000000" fill-rule="nonzero" /><path id="98" transform="matrix(1 0 0 -1 0 842)" d="M74.34375 597.1602L149.1831 597.1602L149.1831 596.6641L74.34375 596.6641z" stroke="none" fill="#000000" fill-rule="nonzero" /><path id="99" transform="matrix(1 0 0 -1 0 842)" d="M74.34375 631.3594L74.83938 631.3594L74.83938 596.6641L74.34375 596.6641z" stroke="none" fill="#000000" fill-rule="nonzero" /><path id="100" transform="matrix(1 0 0 -1 0 842)" d="M148.6875 631.3594L149.1831 631.3594L149.1831 596.6641L148.6875 596.6641z" stroke="none" fill="#000000" fill-rule="nonzero" /><path id="101" transform="matrix(1 0 0 -1 0 842)" d="M148.6875 631.3594L223.5269 631.3594L223.5269 630.8633L148.6875 630.8633z" stroke="none" fill="#000000" fill-rule="nonzero" /><path id="102" transform="matrix(1 0 0 -1 0 842)" d="M148.6875 597.1602L223.5269 597.1602L223.5269 596.6641L148.6875 596.6641z" stroke="none" fill="#000000" fill-rule="nonzero" /><path id="103" transform="matrix(1 0 0 -1 0 842)" d="M148.6875 631.3594L149.1831 631.3594L149.1831 596.6641L148.6875 596.6641z" stroke="none" fill="#000000" fill-rule="nonzero" /><path id="104" transform="matrix(1 0 0 -1 0 842)" d="M223.0313 631.3594L223.5269 631.3594L223.5269 596.6641L223.0313 596.6641z" stroke="none" fill="#000000" fill-rule="nonzero" /><path id="105" transform="matrix(1 0 0 -1 0 842)" d="M223.0313 631.3594L273.0894 631.3594L273.0894 630.8633L223.0313 630.8633z" stroke="none" fill="#000000" fill-rule="nonzero" /><path id="106" transform="matrix(1 0 0 -1 0 842)" d="M223.0313 597.1602L273.0894 597.1602L273.0894 596.6641L223.0313 596.6641z" stroke="none" fill="#000000" fill-rule="nonzero" /><path id="107" transform="matrix(1 0 0 -1 0 842)" d="M223.0313 631.3594L223.5269 631.3594L223.5269 596.6641L223.0313 596.6641z" stroke="none" fill="#000000" fill-rule="nonzero" /><path id="108" transform="matrix(1 0 0 -1 0 842)" d="M272.5938 631.3594L273.0894 631.3594L273.0894 596.6641L272.5938 596.6641z" stroke="none" fill="#000000" fill-rule="nonzero" /><path id="109" transform="matrix(1 0 0 -1 0 842)" d="M272.5938 631.3594L421.7769 631.3594L421.7769 630.8633L272.5938 630.8633z" stroke="none" fill="#000000" fill-rule="nonzero" /><path id="110" transform="matrix(1 0 0 -1 0 842)" d="M272.5938 597.1602L421.7769 597.1602L421.7769 596.6641L272.5938 596.6641z" stroke="none" fill="#000000" fill-rule="nonzero" /><path id="111" transform="matrix(1 0 0 -1 0 842)" d="M272.5938 631.3594L273.0894 631.3594L273.0894 596.6641L272.5938 596.6641z" stroke="none" fill="#000000" fill-rule="nonzero" /><path id="112" transform="matrix(1 0 0 -1 0 842)" d="M421.2813 631.3594L421.7769 631.3594L421.7769 596.6641L421.2813 596.6641z" stroke="none" fill="#000000" fill-rule="nonzero" /><path id="113" transform="matrix(1 0 0 -1 0 842)" d="M421.2813 631.3594L471.3394 631.3594L471.3394 630.8633L421.2813 630.8633z" stroke="none" fill="#000000" fill-rule="nonzero" /><path id="114" transform="matrix(1 0 0 -1 0 842)" d="M421.2813 597.1602L471.3394 597.1602L471.3394 596.6641L421.2813 596.6641z" stroke="none" fill="#000000" fill-rule="nonzero" /><path id="115" transform="matrix(1 0 0 -1 0 842)" d="M421.2813 631.3594L421.7769 631.3594L421.7769 596.6641L421.2813 596.6641z" stroke="none" fill="#000000" fill-rule="nonzero" /><path id="116" transform="matrix(1 0 0 -1 0 842)" d="M470.8438 631.3594L471.3394 631.3594L471.3394 596.6641L470.8438 596.6641z" stroke="none" fill="#000000" fill-rule="nonzero" /><path id="117" transform="matrix(1 0 0 -1 0 842)" d="M470.8438 631.3594L545.1875 631.3594L545.1875 630.8633L470.8438 630.8633z" stroke="none" fill="#000000" fill-rule="nonzero" /><path id="118" transform="matrix(1 0 0 -1 0 842)" d="M470.8438 597.1602L545.1875 597.1602L545.1875 596.6641L470.8438 596.6641z" stroke="none" fill="#000000" fill-rule="nonzero" /><path id="119" transform="matrix(1 0 0 -1 0 842)" d="M470.8438 631.3594L471.3394 631.3594L471.3394 596.6641L470.8438 596.6641z" stroke="none" fill="#000000" fill-rule="nonzero" /><path id="120" transform="matrix(1 0 0 -1 0 842)" d="M544.6919 631.3594L545.1875 631.3594L545.1875 596.6641L544.6919 596.6641z" stroke="none" fill="#000000" fill-rule="nonzero" /><path id="121" transform="matrix(1 0 0 -1 0 842)" d="M49.5625 597.1602L74.83938 597.1602L74.83938 596.6641L49.5625 596.6641z" stroke="none" fill="#000000" fill-rule="nonzero" /><path id="122" transform="matrix(1 0 0 -1 0 842)" d="M49.5625 562.9629L74.83938 562.9629L74.83938 562.4668L49.5625 562.4668z" stroke="none" fill="#000000" fill-rule="nonzero" /><path id="123" transform="matrix(1 0 0 -1 0 842)" d="M49.5625 597.1602L50.05813 597.1602L50.05813 562.4668L49.5625 562.4668z" stroke="none" fill="#000000" fill-rule="nonzero" /><path id="124" transform="matrix(1 0 0 -1 0 842)" d="M74.34375 597.1602L74.83938 597.1602L74.83938 562.4668L74.34375 562.4668z" stroke="none" fill="#000000" fill-rule="nonzero" /><path id="125" transform="matrix(1 0 0 -1 0 842)" d="M74.34375 597.1602L149.1831 597.1602L149.1831 596.6641L74.34375 596.6641z" stroke="none" fill="#000000" fill-rule="nonzero" /><path id="126" transform="matrix(1 0 0 -1 0 842)" d="M74.34375 562.9629L149.1831 562.9629L149.1831 562.4668L74.34375 562.4668z" stroke="none" fill="#000000" fill-rule="nonzero" /><path id="127" transform="matrix(1 0 0 -1 0 842)" d="M74.34375 597.1602L74.83938 597.1602L74.83938 562.4668L74.34375 562.4668z" stroke="none" fill="#000000" fill-rule="nonzero" /><path id="128" transform="matrix(1 0 0 -1 0 842)" d="M148.6875 597.1602L149.1831 597.1602L149.1831 562.4668L148.6875 562.4668z" stroke="none" fill="#000000" fill-rule="nonzero" /><path id="129" transform="matrix(1 0 0 -1 0 842)" d="M148.6875 597.1602L223.5269 597.1602L223.5269 596.6641L148.6875 596.6641z" stroke="none" fill="#000000" fill-rule="nonzero" /><path id="130" transform="matrix(1 0 0 -1 0 842)" d="M148.6875 562.9629L223.5269 562.9629L223.5269 562.4668L148.6875 562.4668z" stroke="none" fill="#000000" fill-rule="nonzero" /><path id="131" transform="matrix(1 0 0 -1 0 842)" d="M148.6875 597.1602L149.1831 597.1602L149.1831 562.4668L148.6875 562.4668z" stroke="none" fill="#000000" fill-rule="nonzero" /><path id="132" transform="matrix(1 0 0 -1 0 842)" d="M223.0313 597.1602L223.5269 597.1602L223.5269 562.4668L223.0313 562.4668z" stroke="none" fill="#000000" fill-rule="nonzero" /><path id="133" transform="matrix(1 0 0 -1 0 842)" d="M223.0313 597.1602L273.0894 597.1602L273.0894 596.6641L223.0313 596.6641z" stroke="none" fill="#000000" fill-rule="nonzero" /><path id="134" transform="matrix(1 0 0 -1 0 842)" d="M223.0313 562.9629L273.0894 562.9629L273.0894 562.4668L223.0313 562.4668z" stroke="none" fill="#000000" fill-rule="nonzero" /><path id="135" transform="matrix(1 0 0 -1 0 842)" d="M223.0313 597.1602L223.5269 597.1602L223.5269 562.4668L223.0313 562.4668z" stroke="none" fill="#000000" fill-rule="nonzero" /><path id="136" transform="matrix(1 0 0 -1 0 842)" d="M272.5938 597.1602L273.0894 597.1602L273.0894 562.4668L272.5938 562.4668z" stroke="none" fill="#000000" fill-rule="nonzero" /><path id="137" transform="matrix(1 0 0 -1 0 842)" d="M272.5938 597.1602L421.7769 597.1602L421.7769 596.6641L272.5938 596.6641z" stroke="none" fill="#000000" fill-rule="nonzero" /><path id="138" transform="matrix(1 0 0 -1 0 842)" d="M272.5938 562.9629L421.7769 562.9629L421.7769 562.4668L272.5938 562.4668z" stroke="none" fill="#000000" fill-rule="nonzero" /><path id="139" transform="matrix(1 0 0 -1 0 842)" d="M272.5938 597.1602L273.0894 597.1602L273.0894 562.4668L272.5938 562.4668z" stroke="none" fill="#000000" fill-rule="nonzero" /><path id="140" transform="matrix(1 0 0 -1 0 842)" d="M421.2813 597.1602L421.7769 597.1602L421.7769 562.4668L421.2813 562.4668z" stroke="none" fill="#000000" fill-rule="nonzero" /><path id="141" transform="matrix(1 0 0 -1 0 842)" d="M421.2813 597.1602L471.3394 597.1602L471.3394 596.6641L421.2813 596.6641z" stroke="none" fill="#000000" fill-rule="nonzero" /><path id="142" transform="matrix(1 0 0 -1 0 842)" d="M421.2813 562.9629L471.3394 562.9629L471.3394 562.4668L421.2813 562.4668z" stroke="none" fill="#000000" fill-rule="nonzero" /><path id="143" transform="matrix(1 0 0 -1 0 842)" d="M421.2813 597.1602L421.7769 597.1602L421.7769 562.4668L421.2813 562.4668z" stroke="none" fill="#000000" fill-rule="nonzero" /><path id="144" transform="matrix(1 0 0 -1 0 842)" d="M470.8438 597.1602L471.3394 597.1602L471.3394 562.4668L470.8438 562.4668z" stroke="none" fill="#000000" fill-rule="nonzero" /><path id="145" transform="matrix(1 0 0 -1 0 842)" d="M470.8438 597.1602L545.1875 597.1602L545.1875 596.6641L470.8438 596.6641z" stroke="none" fill="#000000" fill-rule="nonzero" /><path id="146" transform="matrix(1 0 0 -1 0 842)" d="M470.8438 562.9629L545.1875 562.9629L545.1875 562.4668L470.8438 562.4668z" stroke="none" fill="#000000" fill-rule="nonzero" /><path id="147" transform="matrix(1 0 0 -1 0 842)" d="M470.8438 597.1602L471.3394 597.1602L471.3394 562.4668L470.8438 562.4668z" stroke="none" fill="#000000" fill-rule="nonzero" /><path id="148" transform="matrix(1 0 0 -1 0 842)" d="M544.6919 597.1602L545.1875 597.1602L545.1875 562.4668L544.6919 562.4668z" stroke="none" fill="#000000" fill-rule="nonzero" /><path id="149" transform="matrix(1 0 0 -1 0 842)" d="M49.5625 562.9629L74.83938 562.9629L74.83938 562.4668L49.5625 562.4668z" stroke="none" fill="#000000" fill-rule="nonzero" /><path id="150" transform="matrix(1 0 0 -1 0 842)" d="M49.5625 528.7637L74.83938 528.7637L74.83938 528.2695L49.5625 528.2695z" stroke="none" fill="#000000" fill-rule="nonzero" /><path id="151" transform="matrix(1 0 0 -1 0 842)" d="M49.5625 562.9629L50.05813 562.9629L50.05813 528.2695L49.5625 528.2695z" stroke="none" fill="#000000" fill-rule="nonzero" /><path id="152" transform="matrix(1 0 0 -1 0 842)" d="M74.34375 562.9629L74.83938 562.9629L74.83938 528.2695L74.34375 528.2695z" stroke="none" fill="#000000" fill-rule="nonzero" /><path id="153" transform="matrix(1 0 0 -1 0 842)" d="M74.34375 562.9629L149.1831 562.9629L149.1831 562.4668L74.34375 562.4668z" stroke="none" fill="#000000" fill-rule="nonzero" /><path id="154" transform="matrix(1 0 0 -1 0 842)" d="M74.34375 528.7637L149.1831 528.7637L149.1831 528.2695L74.34375 528.2695z" stroke="none" fill="#000000" fill-rule="nonzero" /><path id="155" transform="matrix(1 0 0 -1 0 842)" d="M74.34375 562.9629L74.83938 562.9629L74.83938 528.2695L74.34375 528.2695z" stroke="none" fill="#000000" fill-rule="nonzero" /><path id="156" transform="matrix(1 0 0 -1 0 842)" d="M148.6875 562.9629L149.1831 562.9629L149.1831 528.2695L148.6875 528.2695z" stroke="none" fill="#000000" fill-rule="nonzero" /><path id="157" transform="matrix(1 0 0 -1 0 842)" d="M148.6875 562.9629L223.5269 562.9629L223.5269 562.4668L148.6875 562.4668z" stroke="none" fill="#000000" fill-rule="nonzero" /><path id="158" transform="matrix(1 0 0 -1 0 842)" d="M148.6875 528.7637L223.5269 528.7637L223.5269 528.2695L148.6875 528.2695z" stroke="none" fill="#000000" fill-rule="nonzero" /><path id="159" transform="matrix(1 0 0 -1 0 842)" d="M148.6875 562.9629L149.1831 562.9629L149.1831 528.2695L148.6875 528.2695z" stroke="none" fill="#000000" fill-rule="nonzero" /><path id="160" transform="matrix(1 0 0 -1 0 842)" d="M223.0313 562.9629L223.5269 562.9629L223.5269 528.2695L223.0313 528.2695z" stroke="none" fill="#000000" fill-rule="nonzero" /><path id="161" transform="matrix(1 0 0 -1 0 842)" d="M223.0313 562.9629L273.0894 562.9629L273.0894 562.4668L223.0313 562.4668z" stroke="none" fill="#000000" fill-rule="nonzero" /><path id="162" transform="matrix(1 0 0 -1 0 842)" d="M223.0313 528.7637L273.0894 528.7637L273.0894 528.2695L223.0313 528.2695z" stroke="none" fill="#000000" fill-rule="nonzero" /><path id="163" transform="matrix(1 0 0 -1 0 842)" d="M223.0313 562.9629L223.5269 562.9629L223.5269 528.2695L223.0313 528.2695z" stroke="none" fill="#000000" fill-rule="nonzero" /><path id="164" transform="matrix(1 0 0 -1 0 842)" d="M272.5938 562.9629L273.0894 562.9629L273.0894 528.2695L272.5938 528.2695z" stroke="none" fill="#000000" fill-rule="nonzero" /><path id="165" transform="matrix(1 0 0 -1 0 842)" d="M272.5938 562.9629L421.7769 562.9629L421.7769 562.4668L272.5938 562.4668z" stroke="none" fill="#000000" fill-rule="nonzero" /><path id="166" transform="matrix(1 0 0 -1 0 842)" d="M272.5938 528.7637L421.7769 528.7637L421.7769 528.2695L272.5938 528.2695z" stroke="none" fill="#000000" fill-rule="nonzero" /><path id="167" transform="matrix(1 0 0 -1 0 842)" d="M272.5938 562.9629L273.0894 562.9629L273.0894 528.2695L272.5938 528.2695z" stroke="none" fill="#000000" fill-rule="nonzero" /><path id="168" transform="matrix(1 0 0 -1 0 842)" d="M421.2813 562.9629L421.7769 562.9629L421.7769 528.2695L421.2813 528.2695z" stroke="none" fill="#000000" fill-rule="nonzero" /><path id="169" transform="matrix(1 0 0 -1 0 842)" d="M421.2813 562.9629L471.3394 562.9629L471.3394 562.4668L421.2813 562.4668z" stroke="none" fill="#000000" fill-rule="nonzero" /><path id="170" transform="matrix(1 0 0 -1 0 842)" d="M421.2813 528.7637L471.3394 528.7637L471.3394 528.2695L421.2813 528.2695z" stroke="none" fill="#000000" fill-rule="nonzero" /><path id="171" transform="matrix(1 0 0 -1 0 842)" d="M421.2813 562.9629L421.7769 562.9629L421.7769 528.2695L421.2813 528.2695z" stroke="none" fill="#000000" fill-rule="nonzero" /><path id="172" transform="matrix(1 0 0 -1 0 842)" d="M470.8438 562.9629L471.3394 562.9629L471.3394 528.2695L470.8438 528.2695z" stroke="none" fill="#000000" fill-rule="nonzero" /><path id="173" transform="matrix(1 0 0 -1 0 842)" d="M470.8438 562.9629L545.1875 562.9629L545.1875 562.4668L470.8438 562.4668z" stroke="none" fill="#000000" fill-rule="nonzero" /><path id="174" transform="matrix(1 0 0 -1 0 842)" d="M470.8438 528.7637L545.1875 528.7637L545.1875 528.2695L470.8438 528.2695z" stroke="none" fill="#000000" fill-rule="nonzero" /><path id="175" transform="matrix(1 0 0 -1 0 842)" d="M470.8438 562.9629L471.3394 562.9629L471.3394 528.2695L470.8438 528.2695z" stroke="none" fill="#000000" fill-rule="nonzero" /><path id="176" transform="matrix(1 0 0 -1 0 842)" d="M544.6919 562.9629L545.1875 562.9629L545.1875 528.2695L544.6919 528.2695z" stroke="none" fill="#000000" fill-rule="nonzero" /><path id="177" transform="matrix(1 0 0 -1 0 842)" d="M49.5625 528.7637L74.83938 528.7637L74.83938 528.2695L49.5625 528.2695z" stroke="none" fill="#000000" fill-rule="nonzero" /><path id="178" transform="matrix(1 0 0 -1 0 842)" d="M49.5625 494.5664L74.83938 494.5664L74.83938 494.0703L49.5625 494.0703z" stroke="none" fill="#000000" fill-rule="nonzero" /><path id="179" transform="matrix(1 0 0 -1 0 842)" d="M49.5625 528.7637L50.05813 528.7637L50.05813 494.0703L49.5625 494.0703z" stroke="none" fill="#000000" fill-rule="nonzero" /><path id="180" transform="matrix(1 0 0 -1 0 842)" d="M74.34375 528.7637L74.83938 528.7637L74.83938 494.0703L74.34375 494.0703z" stroke="none" fill="#000000" fill-rule="nonzero" /><path id="181" transform="matrix(1 0 0 -1 0 842)" d="M74.34375 528.7637L149.1831 528.7637L149.1831 528.2695L74.34375 528.2695z" stroke="none" fill="#000000" fill-rule="nonzero" /><path id="182" transform="matrix(1 0 0 -1 0 842)" d="M74.34375 494.5664L149.1831 494.5664L149.1831 494.0703L74.34375 494.0703z" stroke="none" fill="#000000" fill-rule="nonzero" /><path id="183" transform="matrix(1 0 0 -1 0 842)" d="M74.34375 528.7637L74.83938 528.7637L74.83938 494.0703L74.34375 494.0703z" stroke="none" fill="#000000" fill-rule="nonzero" /><path id="184" transform="matrix(1 0 0 -1 0 842)" d="M148.6875 528.7637L149.1831 528.7637L149.1831 494.0703L148.6875 494.0703z" stroke="none" fill="#000000" fill-rule="nonzero" /><path id="185" transform="matrix(1 0 0 -1 0 842)" d="M148.6875 528.7637L223.5269 528.7637L223.5269 528.2695L148.6875 528.2695z" stroke="none" fill="#000000" fill-rule="nonzero" /><path id="186" transform="matrix(1 0 0 -1 0 842)" d="M148.6875 494.5664L223.5269 494.5664L223.5269 494.0703L148.6875 494.0703z" stroke="none" fill="#000000" fill-rule="nonzero" /><path id="187" transform="matrix(1 0 0 -1 0 842)" d="M148.6875 528.7637L149.1831 528.7637L149.1831 494.0703L148.6875 494.0703z" stroke="none" fill="#000000" fill-rule="nonzero" /><path id="188" transform="matrix(1 0 0 -1 0 842)" d="M223.0313 528.7637L223.5269 528.7637L223.5269 494.0703L223.0313 494.0703z" stroke="none" fill="#000000" fill-rule="nonzero" /><path id="189" transform="matrix(1 0 0 -1 0 842)" d="M223.0313 528.7637L273.0894 528.7637L273.0894 528.2695L223.0313 528.2695z" stroke="none" fill="#000000" fill-rule="nonzero" /><path id="190" transform="matrix(1 0 0 -1 0 842)" d="M223.0313 494.5664L273.0894 494.5664L273.0894 494.0703L223.0313 494.0703z" stroke="none" fill="#000000" fill-rule="nonzero" /><path id="191" transform="matrix(1 0 0 -1 0 842)" d="M223.0313 528.7637L223.5269 528.7637L223.5269 494.0703L223.0313 494.0703z" stroke="none" fill="#000000" fill-rule="nonzero" /><path id="192" transform="matrix(1 0 0 -1 0 842)" d="M272.5938 528.7637L273.0894 528.7637L273.0894 494.0703L272.5938 494.0703z" stroke="none" fill="#000000" fill-rule="nonzero" /><path id="193" transform="matrix(1 0 0 -1 0 842)" d="M272.5938 528.7637L421.7769 528.7637L421.7769 528.2695L272.5938 528.2695z" stroke="none" fill="#000000" fill-rule="nonzero" /><path id="194" transform="matrix(1 0 0 -1 0 842)" d="M272.5938 494.5664L421.7769 494.5664L421.7769 494.0703L272.5938 494.0703z" stroke="none" fill="#000000" fill-rule="nonzero" /><path id="195" transform="matrix(1 0 0 -1 0 842)" d="M272.5938 528.7637L273.0894 528.7637L273.0894 494.0703L272.5938 494.0703z" stroke="none" fill="#000000" fill-rule="nonzero" /><path id="196" transform="matrix(1 0 0 -1 0 842)" d="M421.2813 528.7637L421.7769 528.7637L421.7769 494.0703L421.2813 494.0703z" stroke="none" fill="#000000" fill-rule="nonzero" /><path id="197" transform="matrix(1 0 0 -1 0 842)" d="M421.2813 528.7637L471.3394 528.7637L471.3394 528.2695L421.2813 528.2695z" stroke="none" fill="#000000" fill-rule="nonzero" /><path id="198" transform="matrix(1 0 0 -1 0 842)" d="M421.2813 494.5664L471.3394 494.5664L471.3394 494.0703L421.2813 494.0703z" stroke="none" fill="#000000" fill-rule="nonzero" /><path id="199" transform="matrix(1 0 0 -1 0 842)" d="M421.2813 528.7637L421.7769 528.7637L421.7769 494.0703L421.2813 494.0703z" stroke="none" fill="#000000" fill-rule="nonzero" /><path id="200" transform="matrix(1 0 0 -1 0 842)" d="M470.8438 528.7637L471.3394 528.7637L471.3394 494.0703L470.8438 494.0703z" stroke="none" fill="#000000" fill-rule="nonzero" /><path id="201" transform="matrix(1 0 0 -1 0 842)" d="M470.8438 528.7637L545.1875 528.7637L545.1875 528.2695L470.8438 528.2695z" stroke="none" fill="#000000" fill-rule="nonzero" /><path id="202" transform="matrix(1 0 0 -1 0 842)" d="M470.8438 494.5664L545.1875 494.5664L545.1875 494.0703L470.8438 494.0703z" stroke="none" fill="#000000" fill-rule="nonzero" /><path id="203" transform="matrix(1 0 0 -1 0 842)" d="M470.8438 528.7637L471.3394 528.7637L471.3394 494.0703L470.8438 494.0703z" stroke="none" fill="#000000" fill-rule="nonzero" /><path id="204" transform="matrix(1 0 0 -1 0 842)" d="M544.6919 528.7637L545.1875 528.7637L545.1875 494.0703L544.6919 494.0703z" stroke="none" fill="#000000" fill-rule="nonzero" /><path id="205" transform="matrix(1 0 0 -1 0 842)" d="M49.5625 494.5664L74.83938 494.5664L74.83938 494.0703L49.5625 494.0703z" stroke="none" fill="#000000" fill-rule="nonzero" /><path id="206" transform="matrix(1 0 0 -1 0 842)" d="M49.5625 460.3672L74.83938 460.3672L74.83938 459.873L49.5625 459.873z" stroke="none" fill="#000000" fill-rule="nonzero" /><path id="207" transform="matrix(1 0 0 -1 0 842)" d="M49.5625 494.5664L50.05813 494.5664L50.05813 459.873L49.5625 459.873z" stroke="none" fill="#000000" fill-rule="nonzero" /><path id="208" transform="matrix(1 0 0 -1 0 842)" d="M74.34375 494.5664L74.83938 494.5664L74.83938 459.873L74.34375 459.873z" stroke="none" fill="#000000" fill-rule="nonzero" /><path id="209" transform="matrix(1 0 0 -1 0 842)" d="M74.34375 494.5664L149.1831 494.5664L149.1831 494.0703L74.34375 494.0703z" stroke="none" fill="#000000" fill-rule="nonzero" /><path id="210" transform="matrix(1 0 0 -1 0 842)" d="M74.34375 460.3672L149.1831 460.3672L149.1831 459.873L74.34375 459.873z" stroke="none" fill="#000000" fill-rule="nonzero" /><path id="211" transform="matrix(1 0 0 -1 0 842)" d="M74.34375 494.5664L74.83938 494.5664L74.83938 459.873L74.34375 459.873z" stroke="none" fill="#000000" fill-rule="nonzero" /><path id="212" transform="matrix(1 0 0 -1 0 842)" d="M148.6875 494.5664L149.1831 494.5664L149.1831 459.873L148.6875 459.873z" stroke="none" fill="#000000" fill-rule="nonzero" /><path id="213" transform="matrix(1 0 0 -1 0 842)" d="M148.6875 494.5664L223.5269 494.5664L223.5269 494.0703L148.6875 494.0703z" stroke="none" fill="#000000" fill-rule="nonzero" /><path id="214" transform="matrix(1 0 0 -1 0 842)" d="M148.6875 460.3672L223.5269 460.3672L223.5269 459.873L148.6875 459.873z" stroke="none" fill="#000000" fill-rule="nonzero" /><path id="215" transform="matrix(1 0 0 -1 0 842)" d="M148.6875 494.5664L149.1831 494.5664L149.1831 459.873L148.6875 459.873z" stroke="none" fill="#000000" fill-rule="nonzero" /><path id="216" transform="matrix(1 0 0 -1 0 842)" d="M223.0313 494.5664L223.5269 494.5664L223.5269 459.873L223.0313 459.873z" stroke="none" fill="#000000" fill-rule="nonzero" /><path id="217" transform="matrix(1 0 0 -1 0 842)" d="M223.0313 494.5664L273.0894 494.5664L273.0894 494.0703L223.0313 494.0703z" stroke="none" fill="#000000" fill-rule="nonzero" /><path id="218" transform="matrix(1 0 0 -1 0 842)" d="M223.0313 460.3672L273.0894 460.3672L273.0894 459.873L223.0313 459.873z" stroke="none" fill="#000000" fill-rule="nonzero" /><path id="219" transform="matrix(1 0 0 -1 0 842)" d="M223.0313 494.5664L223.5269 494.5664L223.5269 459.873L223.0313 459.873z" stroke="none" fill="#000000" fill-rule="nonzero" /><path id="220" transform="matrix(1 0 0 -1 0 842)" d="M272.5938 494.5664L273.0894 494.5664L273.0894 459.873L272.5938 459.873z" stroke="none" fill="#000000" fill-rule="nonzero" /><path id="221" transform="matrix(1 0 0 -1 0 842)" d="M272.5938 494.5664L421.7769 494.5664L421.7769 494.0703L272.5938 494.0703z" stroke="none" fill="#000000" fill-rule="nonzero" /><path id="222" transform="matrix(1 0 0 -1 0 842)" d="M272.5938 460.3672L421.7769 460.3672L421.7769 459.873L272.5938 459.873z" stroke="none" fill="#000000" fill-rule="nonzero" /><path id="223" transform="matrix(1 0 0 -1 0 842)" d="M272.5938 494.5664L273.0894 494.5664L273.0894 459.873L272.5938 459.873z" stroke="none" fill="#000000" fill-rule="nonzero" /><path id="224" transform="matrix(1 0 0 -1 0 842)" d="M421.2813 494.5664L421.7769 494.5664L421.7769 459.873L421.2813 459.873z" stroke="none" fill="#000000" fill-rule="nonzero" /><path id="225" transform="matrix(1 0 0 -1 0 842)" d="M421.2813 494.5664L471.3394 494.5664L471.3394 494.0703L421.2813 494.0703z" stroke="none" fill="#000000" fill-rule="nonzero" /><path id="226" transform="matrix(1 0 0 -1 0 842)" d="M421.2813 460.3672L471.3394 460.3672L471.3394 459.873L421.2813 459.873z" stroke="none" fill="#000000" fill-rule="nonzero" /><path id="227" transform="matrix(1 0 0 -1 0 842)" d="M421.2813 494.5664L421.7769 494.5664L421.7769 459.873L421.2813 459.873z" stroke="none" fill="#000000" fill-rule="nonzero" /><path id="228" transform="matrix(1 0 0 -1 0 842)" d="M470.8438 494.5664L471.3394 494.5664L471.3394 459.873L470.8438 459.873z" stroke="none" fill="#000000" fill-rule="nonzero" /><path id="229" transform="matrix(1 0 0 -1 0 842)" d="M470.8438 494.5664L545.1875 494.5664L545.1875 494.0703L470.8438 494.0703z" stroke="none" fill="#000000" fill-rule="nonzero" /><path id="230" transform="matrix(1 0 0 -1 0 842)" d="M470.8438 460.3672L545.1875 460.3672L545.1875 459.873L470.8438 459.873z" stroke="none" fill="#000000" fill-rule="nonzero" /><path id="231" transform="matrix(1 0 0 -1 0 842)" d="M470.8438 494.5664L471.3394 494.5664L471.3394 459.873L470.8438 459.873z" stroke="none" fill="#000000" fill-rule="nonzero" /><path id="232" transform="matrix(1 0 0 -1 0 842)" d="M544.6919 494.5664L545.1875 494.5664L545.1875 459.873L544.6919 459.873z" stroke="none" fill="#000000" fill-rule="nonzero" /><path id="233" transform="matrix(1 0 0 -1 0 842)" d="M49.5625 460.3672L74.83938 460.3672L74.83938 459.873L49.5625 459.873z" stroke="none" fill="#000000" fill-rule="nonzero" /><path id="234" transform="matrix(1 0 0 -1 0 842)" d="M49.5625 426.1699L74.83938 426.1699L74.83938 425.6738L49.5625 425.6738z" stroke="none" fill="#000000" fill-rule="nonzero" /><path id="235" transform="matrix(1 0 0 -1 0 842)" d="M49.5625 460.3672L50.05813 460.3672L50.05813 425.6738L49.5625 425.6738z" stroke="none" fill="#000000" fill-rule="nonzero" /><path id="236" transform="matrix(1 0 0 -1 0 842)" d="M74.34375 460.3672L74.83938 460.3672L74.83938 425.6738L74.34375 425.6738z" stroke="none" fill="#000000" fill-rule="nonzero" /><path id="237" transform="matrix(1 0 0 -1 0 842)" d="M74.34375 460.3672L149.1831 460.3672L149.1831 459.873L74.34375 459.873z" stroke="none" fill="#000000" fill-rule="nonzero" /><path id="238" transform="matrix(1 0 0 -1 0 842)" d="M74.34375 426.1699L149.1831 426.1699L149.1831 425.6738L74.34375 425.6738z" stroke="none" fill="#000000" fill-rule="nonzero" /><path id="239" transform="matrix(1 0 0 -1 0 842)" d="M74.34375 460.3672L74.83938 460.3672L74.83938 425.6738L74.34375 425.6738z" stroke="none" fill="#000000" fill-rule="nonzero" /><path id="240" transform="matrix(1 0 0 -1 0 842)" d="M148.6875 460.3672L149.1831 460.3672L149.1831 425.6738L148.6875 425.6738z" stroke="none" fill="#000000" fill-rule="nonzero" /><path id="241" transform="matrix(1 0 0 -1 0 842)" d="M148.6875 460.3672L223.5269 460.3672L223.5269 459.873L148.6875 459.873z" stroke="none" fill="#000000" fill-rule="nonzero" /><path id="242" transform="matrix(1 0 0 -1 0 842)" d="M148.6875 426.1699L223.5269 426.1699L223.5269 425.6738L148.6875 425.6738z" stroke="none" fill="#000000" fill-rule="nonzero" /><path id="243" transform="matrix(1 0 0 -1 0 842)" d="M148.6875 460.3672L149.1831 460.3672L149.1831 425.6738L148.6875 425.6738z" stroke="none" fill="#000000" fill-rule="nonzero" /><path id="244" transform="matrix(1 0 0 -1 0 842)" d="M223.0313 460.3672L223.5269 460.3672L223.5269 425.6738L223.0313 425.6738z" stroke="none" fill="#000000" fill-rule="nonzero" /><path id="245" transform="matrix(1 0 0 -1 0 842)" d="M223.0313 460.3672L273.0894 460.3672L273.0894 459.873L223.0313 459.873z" stroke="none" fill="#000000" fill-rule="nonzero" /><path id="246" transform="matrix(1 0 0 -1 0 842)" d="M223.0313 426.1699L273.0894 426.1699L273.0894 425.6738L223.0313 425.6738z" stroke="none" fill="#000000" fill-rule="nonzero" /><path id="247" transform="matrix(1 0 0 -1 0 842)" d="M223.0313 460.3672L223.5269 460.3672L223.5269 425.6738L223.0313 425.6738z" stroke="none" fill="#000000" fill-rule="nonzero" /><path id="248" transform="matrix(1 0 0 -1 0 842)" d="M272.5938 460.3672L273.0894 460.3672L273.0894 425.6738L272.5938 425.6738z" stroke="none" fill="#000000" fill-rule="nonzero" /><path id="249" transform="matrix(1 0 0 -1 0 842)" d="M272.5938 460.3672L421.7769 460.3672L421.7769 459.873L272.5938 459.873z" stroke="none" fill="#000000" fill-rule="nonzero" /><path id="250" transform="matrix(1 0 0 -1 0 842)" d="M272.5938 426.1699L421.7769 426.1699L421.7769 425.6738L272.5938 425.6738z" stroke="none" fill="#000000" fill-rule="nonzero" /><path id="251" transform="matrix(1 0 0 -1 0 842)" d="M272.5938 460.3672L273.0894 460.3672L273.0894 425.6738L272.5938 425.6738z" stroke="none" fill="#000000" fill-rule="nonzero" /><path id="252" transform="matrix(1 0 0 -1 0 842)" d="M421.2813 460.3672L421.7769 460.3672L421.7769 425.6738L421.2813 425.6738z" stroke="none" fill="#000000" fill-rule="nonzero" /><path id="253" transform="matrix(1 0 0 -1 0 842)" d="M421.2813 460.3672L471.3394 460.3672L471.3394 459.873L421.2813 459.873z" stroke="none" fill="#000000" fill-rule="nonzero" /><path id="254" transform="matrix(1 0 0 -1 0 842)" d="M421.2813 426.1699L471.3394 426.1699L471.3394 425.6738L421.2813 425.6738z" stroke="none" fill="#000000" fill-rule="nonzero" /><path id="255" transform="matrix(1 0 0 -1 0 842)" d="M421.2813 460.3672L421.7769 460.3672L421.7769 425.6738L421.2813 425.6738z" stroke="none" fill="#000000" fill-rule="nonzero" /><path id="256" transform="matrix(1 0 0 -1 0 842)" d="M470.8438 460.3672L471.3394 460.3672L471.3394 425.6738L470.8438 425.6738z" stroke="none" fill="#000000" fill-rule="nonzero" /><path id="257" transform="matrix(1 0 0 -1 0 842)" d="M470.8438 460.3672L545.1875 460.3672L545.1875 459.873L470.8438 459.873z" stroke="none" fill="#000000" fill-rule="nonzero" /><path id="258" transform="matrix(1 0 0 -1 0 842)" d="M470.8438 426.1699L545.1875 426.1699L545.1875 425.6738L470.8438 425.6738z" stroke="none" fill="#000000" fill-rule="nonzero" /><path id="259" transform="matrix(1 0 0 -1 0 842)" d="M470.8438 460.3672L471.3394 460.3672L471.3394 425.6738L470.8438 425.6738z" stroke="none" fill="#000000" fill-rule="nonzero" /><path id="260" transform="matrix(1 0 0 -1 0 842)" d="M544.6919 460.3672L545.1875 460.3672L545.1875 425.6738L544.6919 425.6738z" stroke="none" fill="#000000" fill-rule="nonzero" /><path id="261" transform="matrix(1 0 0 -1 0 842)" d="M49.5625 426.1699L74.83938 426.1699L74.83938 425.6738L49.5625 425.6738z" stroke="none" fill="#000000" fill-rule="nonzero" /><path id="262" transform="matrix(1 0 0 -1 0 842)" d="M49.5625 391.9727L74.83938 391.9727L74.83938 391.4766L49.5625 391.4766z" stroke="none" fill="#000000" fill-rule="nonzero" /><path id="263" transform="matrix(1 0 0 -1 0 842)" d="M49.5625 426.1699L50.05813 426.1699L50.05813 391.4766L49.5625 391.4766z" stroke="none" fill="#000000" fill-rule="nonzero" /><path id="264" transform="matrix(1 0 0 -1 0 842)" d="M74.34375 426.1699L74.83938 426.1699L74.83938 391.4766L74.34375 391.4766z" stroke="none" fill="#000000" fill-rule="nonzero" /><path id="265" transform="matrix(1 0 0 -1 0 842)" d="M74.34375 426.1699L149.1831 426.1699L149.1831 425.6738L74.34375 425.6738z" stroke="none" fill="#000000" fill-rule="nonzero" /><path id="266" transform="matrix(1 0 0 -1 0 842)" d="M74.34375 391.9727L149.1831 391.9727L149.1831 391.4766L74.34375 391.4766z" stroke="none" fill="#000000" fill-rule="nonzero" /><path id="267" transform="matrix(1 0 0 -1 0 842)" d="M74.34375 426.1699L74.83938 426.1699L74.83938 391.4766L74.34375 391.4766z" stroke="none" fill="#000000" fill-rule="nonzero" /><path id="268" transform="matrix(1 0 0 -1 0 842)" d="M148.6875 426.1699L149.1831 426.1699L149.1831 391.4766L148.6875 391.4766z" stroke="none" fill="#000000" fill-rule="nonzero" /><path id="269" transform="matrix(1 0 0 -1 0 842)" d="M148.6875 426.1699L223.5269 426.1699L223.5269 425.6738L148.6875 425.6738z" stroke="none" fill="#000000" fill-rule="nonzero" /><path id="270" transform="matrix(1 0 0 -1 0 842)" d="M148.6875 391.9727L223.5269 391.9727L223.5269 391.4766L148.6875 391.4766z" stroke="none" fill="#000000" fill-rule="nonzero" /><path id="271" transform="matrix(1 0 0 -1 0 842)" d="M148.6875 426.1699L149.1831 426.1699L149.1831 391.4766L148.6875 391.4766z" stroke="none" fill="#000000" fill-rule="nonzero" /><path id="272" transform="matrix(1 0 0 -1 0 842)" d="M223.0313 426.1699L223.5269 426.1699L223.5269 391.4766L223.0313 391.4766z" stroke="none" fill="#000000" fill-rule="nonzero" /><path id="273" transform="matrix(1 0 0 -1 0 842)" d="M223.0313 426.1699L273.0894 426.1699L273.0894 425.6738L223.0313 425.6738z" stroke="none" fill="#000000" fill-rule="nonzero" /><path id="274" transform="matrix(1 0 0 -1 0 842)" d="M223.0313 391.9727L273.0894 391.9727L273.0894 391.4766L223.0313 391.4766z" stroke="none" fill="#000000" fill-rule="nonzero" /><path id="275" transform="matrix(1 0 0 -1 0 842)" d="M223.0313 426.1699L223.5269 426.1699L223.5269 391.4766L223.0313 391.4766z" stroke="none" fill="#000000" fill-rule="nonzero" /><path id="276" transform="matrix(1 0 0 -1 0 842)" d="M272.5938 426.1699L273.0894 426.1699L273.0894 391.4766L272.5938 391.4766z" stroke="none" fill="#000000" fill-rule="nonzero" /><path id="277" transform="matrix(1 0 0 -1 0 842)" d="M272.5938 426.1699L421.7769 426.1699L421.7769 425.6738L272.5938 425.6738z" stroke="none" fill="#000000" fill-rule="nonzero" /><path id="278" transform="matrix(1 0 0 -1 0 842)" d="M272.5938 391.9727L421.7769 391.9727L421.7769 391.4766L272.5938 391.4766z" stroke="none" fill="#000000" fill-rule="nonzero" /><path id="279" transform="matrix(1 0 0 -1 0 842)" d="M272.5938 426.1699L273.0894 426.1699L273.0894 391.4766L272.5938 391.4766z" stroke="none" fill="#000000" fill-rule="nonzero" /><path id="280" transform="matrix(1 0 0 -1 0 842)" d="M421.2813 426.1699L421.7769 426.1699L421.7769 391.4766L421.2813 391.4766z" stroke="none" fill="#000000" fill-rule="nonzero" /><path id="281" transform="matrix(1 0 0 -1 0 842)" d="M421.2813 426.1699L471.3394 426.1699L471.3394 425.6738L421.2813 425.6738z" stroke="none" fill="#000000" fill-rule="nonzero" /><path id="282" transform="matrix(1 0 0 -1 0 842)" d="M421.2813 391.9727L471.3394 391.9727L471.3394 391.4766L421.2813 391.4766z" stroke="none" fill="#000000" fill-rule="nonzero" /><path id="283" transform="matrix(1 0 0 -1 0 842)" d="M421.2813 426.1699L421.7769 426.1699L421.7769 391.4766L421.2813 391.4766z" stroke="none" fill="#000000" fill-rule="nonzero" /><path id="284" transform="matrix(1 0 0 -1 0 842)" d="M470.8438 426.1699L471.3394 426.1699L471.3394 391.4766L470.8438 391.4766z" stroke="none" fill="#000000" fill-rule="nonzero" /><path id="285" transform="matrix(1 0 0 -1 0 842)" d="M470.8438 426.1699L545.1875 426.1699L545.1875 425.6738L470.8438 425.6738z" stroke="none" fill="#000000" fill-rule="nonzero" /><path id="286" transform="matrix(1 0 0 -1 0 842)" d="M470.8438 391.9727L545.1875 391.9727L545.1875 391.4766L470.8438 391.4766z" stroke="none" fill="#000000" fill-rule="nonzero" /><path id="287" transform="matrix(1 0 0 -1 0 842)" d="M470.8438 426.1699L471.3394 426.1699L471.3394 391.4766L470.8438 391.4766z" stroke="none" fill="#000000" fill-rule="nonzero" /><path id="288" transform="matrix(1 0 0 -1 0 842)" d="M544.6919 426.1699L545.1875 426.1699L545.1875 391.4766L544.6919 391.4766z" stroke="none" fill="#000000" fill-rule="nonzero" /></g></g></g></svg>