<svg xmlns="http://www.w3.org/2000/svg" xmlns:xlink="http://www.w3.org/1999/xlink" id="body_5" preserveAspectRatio="xMinYMin meet" viewBox="0 0 793 1123"><defs><clipPath id="1"><path id="" clip-rule="evenodd" transform="matrix(1 0 0 1 0 0)" d="M0 842L0 0L0 0L595 0L595 0L595 842L595 842L0 842z" /></clipPath><clipPath id="2"><path id="" clip-rule="evenodd" transform="matrix(1 0 0 1 0 0)" d="M0 0L594.75 0L594.75 0L594.75 842.0669L594.75 842.0669L0 842.0669L0 842.0669L0 0z" /></clipPath></defs><g transform="matrix(1.333333 0 0 1.333333 0 0)"><g clip-path="url(#1)"><g clip-path="url(#2)"><path id="1" transform="matrix(1 0 0 -1 0 842)" d="M0 842L594.75 842L594.75 -0.06689453L0 -0.06689453z" stroke="none" fill="#FFFFFF" fill-rule="nonzero" /><path id="2" transform="matrix(1 0 0 -1 0 842)" d="M49.5625 735.9363L223.0313 735.9363L223.0313 716.1111L49.5625 716.1111z" stroke="none" fill="#9CC9F0" fill-rule="nonzero" /><path id="3" transform="matrix(1 0 0 -1 0 842)" d="M223.0313 735.9363L396.5 735.9363L396.5 716.1111L223.0313 716.1111z" stroke="none" fill="#9CC9F0" fill-rule="nonzero" /><path id="4" transform="matrix(1 0 0 -1 0 842)" d="M396.5 735.9363L544.6919 735.9363L544.6919 716.1111L396.5 716.1111z" stroke="none" fill="#9CC9F0" fill-rule="nonzero" /><path id="5" transform="matrix(1 0 0 -1 0 842)" d="M49.5625 735.9363L223.5269 735.9363L223.5269 735.4407L49.5625 735.4407z" stroke="none" fill="#000000" fill-rule="nonzero" /><path id="6" transform="matrix(1 0 0 -1 0 842)" d="M49.5625 716.1111L223.5269 716.1111L223.5269 715.6155L49.5625 715.6155z" stroke="none" fill="#000000" fill-rule="nonzero" /><path id="7" transform="matrix(1 0 0 -1 0 842)" d="M49.5625 735.9363L50.05813 735.9363L50.05813 715.6155L49.5625 715.6155z" stroke="none" fill="#000000" fill-rule="nonzero" /><path id="8" transform="matrix(1 0 0 -1 0 842)" d="M223.0313 735.9363L223.5269 735.9363L223.5269 715.6155L223.0313 715.6155z" stroke="none" fill="#000000" fill-rule="nonzero" /><path id="9" transform="matrix(1 0 0 -1 0 842)" d="M223.0313 735.9363L396.9956 735.9363L396.9956 735.4407L223.0313 735.4407z" stroke="none" fill="#000000" fill-rule="nonzero" /><path id="10" transform="matrix(1 0 0 -1 0 842)" d="M223.0313 716.1111L396.9956 716.1111L396.9956 715.6155L223.0313 715.6155z" stroke="none" fill="#000000" fill-rule="nonzero" /><path id="11" transform="matrix(1 0 0 -1 0 842)" d="M223.0313 735.9363L223.5269 735.9363L223.5269 715.6155L223.0313 715.6155z" stroke="none" fill="#000000" fill-rule="nonzero" /><path id="12" transform="matrix(1 0 0 -1 0 842)" d="M396.5 735.9363L396.9956 735.9363L396.9956 715.6155L396.5 715.6155z" stroke="none" fill="#000000" fill-rule="nonzero" /><path id="13" transform="matrix(1 0 0 -1 0 842)" d="M396.5 735.9363L545.1875 735.9363L545.1875 735.4407L396.5 735.4407z" stroke="none" fill="#000000" fill-rule="nonzero" /><path id="14" transform="matrix(1 0 0 -1 0 842)" d="M396.5 716.1111L545.1875 716.1111L545.1875 715.6155L396.5 715.6155z" stroke="none" fill="#000000" fill-rule="nonzero" /><path id="15" transform="matrix(1 0 0 -1 0 842)" d="M396.5 735.9363L396.9956 735.9363L396.9956 715.6155L396.5 715.6155z" stroke="none" fill="#000000" fill-rule="nonzero" /><path id="16" transform="matrix(1 0 0 -1 0 842)" d="M544.6919 735.9363L545.1875 735.9363L545.1875 715.6155L544.6919 715.6155z" stroke="none" fill="#000000" fill-rule="nonzero" /><path id="17" transform="matrix(1 0 0 -1 0 842)" d="M49.5625 716.1111L223.5269 716.1111L223.5269 715.6155L49.5625 715.6155z" stroke="none" fill="#000000" fill-rule="nonzero" /><path id="18" transform="matrix(1 0 0 -1 0 842)" d="M49.5625 451.9431L223.5269 451.9431L223.5269 451.4475L49.5625 451.4475z" stroke="none" fill="#000000" fill-rule="nonzero" /><path id="19" transform="matrix(1 0 0 -1 0 842)" d="M49.5625 716.1111L50.05813 716.1111L50.05813 451.4475L49.5625 451.4475z" stroke="none" fill="#000000" fill-rule="nonzero" /><path id="20" transform="matrix(1 0 0 -1 0 842)" d="M223.0313 716.1111L223.5269 716.1111L223.5269 451.4475L223.0313 451.4475z" stroke="none" fill="#000000" fill-rule="nonzero" /><path id="21" transform="matrix(1 0 0 -1 0 842)" d="M223.0313 716.1111L396.9956 716.1111L396.9956 715.6155L223.0313 715.6155z" stroke="none" fill="#000000" fill-rule="nonzero" /><path id="22" transform="matrix(1 0 0 -1 0 842)" d="M223.0313 695.7905L396.9956 695.7905L396.9956 695.2949L223.0313 695.2949z" stroke="none" fill="#000000" fill-rule="nonzero" /><path id="23" transform="matrix(1 0 0 -1 0 842)" d="M223.0313 716.1111L223.5269 716.1111L223.5269 695.2949L223.0313 695.2949z" stroke="none" fill="#000000" fill-rule="nonzero" /><path id="24" transform="matrix(1 0 0 -1 0 842)" d="M396.5 716.1111L396.9956 716.1111L396.9956 695.2949L396.5 695.2949z" stroke="none" fill="#000000" fill-rule="nonzero" /><path id="25" transform="matrix(1 0 0 -1 0 842)" d="M396.5 716.1111L545.1875 716.1111L545.1875 715.6155L396.5 715.6155z" stroke="none" fill="#000000" fill-rule="nonzero" /><path id="26" transform="matrix(1 0 0 -1 0 842)" d="M396.5 695.7905L545.1875 695.7905L545.1875 695.2949L396.5 695.2949z" stroke="none" fill="#000000" fill-rule="nonzero" /><path id="27" transform="matrix(1 0 0 -1 0 842)" d="M396.5 716.1111L396.9956 716.1111L396.9956 695.2949L396.5 695.2949z" stroke="none" fill="#000000" fill-rule="nonzero" /><path id="28" transform="matrix(1 0 0 -1 0 842)" d="M544.6919 716.1111L545.1875 716.1111L545.1875 695.2949L544.6919 695.2949z" stroke="none" fill="#000000" fill-rule="nonzero" /><path id="29" transform="matrix(1 0 0 -1 0 842)" d="M223.0313 695.7905L396.9956 695.7905L396.9956 695.2949L223.0313 695.2949z" stroke="none" fill="#000000" fill-rule="nonzero" /><path id="30" transform="matrix(1 0 0 -1 0 842)" d="M223.0313 675.47L396.9956 675.47L396.9956 674.9744L223.0313 674.9744z" stroke="none" fill="#000000" fill-rule="nonzero" /><path id="31" transform="matrix(1 0 0 -1 0 842)" d="M223.0313 695.7905L223.5269 695.7905L223.5269 674.9744L223.0313 674.9744z" stroke="none" fill="#000000" fill-rule="nonzero" /><path id="32" transform="matrix(1 0 0 -1 0 842)" d="M396.5 695.7905L396.9956 695.7905L396.9956 674.9744L396.5 674.9744z" stroke="none" fill="#000000" fill-rule="nonzero" /><path id="33" transform="matrix(1 0 0 -1 0 842)" d="M396.5 695.7905L545.1875 695.7905L545.1875 695.2949L396.5 695.2949z" stroke="none" fill="#000000" fill-rule="nonzero" /><path id="34" transform="matrix(1 0 0 -1 0 842)" d="M396.5 675.47L545.1875 675.47L545.1875 674.9744L396.5 674.9744z" stroke="none" fill="#000000" fill-rule="nonzero" /><path id="35" transform="matrix(1 0 0 -1 0 842)" d="M396.5 695.7905L396.9956 695.7905L396.9956 674.9744L396.5 674.9744z" stroke="none" fill="#000000" fill-rule="nonzero" /><path id="36" transform="matrix(1 0 0 -1 0 842)" d="M544.6919 695.7905L545.1875 695.7905L545.1875 674.9744L544.6919 674.9744z" stroke="none" fill="#000000" fill-rule="nonzero" /><path id="37" transform="matrix(1 0 0 -1 0 842)" d="M223.0313 675.47L396.9956 675.47L396.9956 674.9744L223.0313 674.9744z" stroke="none" fill="#000000" fill-rule="nonzero" /><path id="38" transform="matrix(1 0 0 -1 0 842)" d="M223.0313 655.1494L396.9956 655.1494L396.9956 654.6538L223.0313 654.6538z" stroke="none" fill="#000000" fill-rule="nonzero" /><path id="39" transform="matrix(1 0 0 -1 0 842)" d="M223.0313 675.47L223.5269 675.47L223.5269 654.6538L223.0313 654.6538z" stroke="none" fill="#000000" fill-rule="nonzero" /><path id="40" transform="matrix(1 0 0 -1 0 842)" d="M396.5 675.47L396.9956 675.47L396.9956 654.6538L396.5 654.6538z" stroke="none" fill="#000000" fill-rule="nonzero" /><path id="41" transform="matrix(1 0 0 -1 0 842)" d="M396.5 675.47L545.1875 675.47L545.1875 674.9744L396.5 674.9744z" stroke="none" fill="#000000" fill-rule="nonzero" /><path id="42" transform="matrix(1 0 0 -1 0 842)" d="M396.5 655.1494L545.1875 655.1494L545.1875 654.6538L396.5 654.6538z" stroke="none" fill="#000000" fill-rule="nonzero" /><path id="43" transform="matrix(1 0 0 -1 0 842)" d="M396.5 675.47L396.9956 675.47L396.9956 654.6538L396.5 654.6538z" stroke="none" fill="#000000" fill-rule="nonzero" /><path id="44" transform="matrix(1 0 0 -1 0 842)" d="M544.6919 675.47L545.1875 675.47L545.1875 654.6538L544.6919 654.6538z" stroke="none" fill="#000000" fill-rule="nonzero" /><path id="45" transform="matrix(1 0 0 -1 0 842)" d="M223.0313 655.1494L396.9956 655.1494L396.9956 654.6538L223.0313 654.6538z" stroke="none" fill="#000000" fill-rule="nonzero" /><path id="46" transform="matrix(1 0 0 -1 0 842)" d="M223.0313 634.8286L396.9956 634.8286L396.9956 634.333L223.0313 634.333z" stroke="none" fill="#000000" fill-rule="nonzero" /><path id="47" transform="matrix(1 0 0 -1 0 842)" d="M223.0313 655.1494L223.5269 655.1494L223.5269 634.333L223.0313 634.333z" stroke="none" fill="#000000" fill-rule="nonzero" /><path id="48" transform="matrix(1 0 0 -1 0 842)" d="M396.5 655.1494L396.9956 655.1494L396.9956 634.333L396.5 634.333z" stroke="none" fill="#000000" fill-rule="nonzero" /><path id="49" transform="matrix(1 0 0 -1 0 842)" d="M396.5 655.1494L545.1875 655.1494L545.1875 654.6538L396.5 654.6538z" stroke="none" fill="#000000" fill-rule="nonzero" /><path id="50" transform="matrix(1 0 0 -1 0 842)" d="M396.5 634.8286L545.1875 634.8286L545.1875 634.333L396.5 634.333z" stroke="none" fill="#000000" fill-rule="nonzero" /><path id="51" transform="matrix(1 0 0 -1 0 842)" d="M396.5 655.1494L396.9956 655.1494L396.9956 634.333L396.5 634.333z" stroke="none" fill="#000000" fill-rule="nonzero" /><path id="52" transform="matrix(1 0 0 -1 0 842)" d="M544.6919 655.1494L545.1875 655.1494L545.1875 634.333L544.6919 634.333z" stroke="none" fill="#000000" fill-rule="nonzero" /><path id="53" transform="matrix(1 0 0 -1 0 842)" d="M223.0313 634.8286L396.9956 634.8286L396.9956 634.333L223.0313 634.333z" stroke="none" fill="#000000" fill-rule="nonzero" /><path id="54" transform="matrix(1 0 0 -1 0 842)" d="M223.0313 614.5081L396.9956 614.5081L396.9956 614.0125L223.0313 614.0125z" stroke="none" fill="#000000" fill-rule="nonzero" /><path id="55" transform="matrix(1 0 0 -1 0 842)" d="M223.0313 634.8286L223.5269 634.8286L223.5269 614.0125L223.0313 614.0125z" stroke="none" fill="#000000" fill-rule="nonzero" /><path id="56" transform="matrix(1 0 0 -1 0 842)" d="M396.5 634.8286L396.9956 634.8286L396.9956 614.0125L396.5 614.0125z" stroke="none" fill="#000000" fill-rule="nonzero" /><path id="57" transform="matrix(1 0 0 -1 0 842)" d="M396.5 634.8286L545.1875 634.8286L545.1875 634.333L396.5 634.333z" stroke="none" fill="#000000" fill-rule="nonzero" /><path id="58" transform="matrix(1 0 0 -1 0 842)" d="M396.5 614.5081L545.1875 614.5081L545.1875 614.0125L396.5 614.0125z" stroke="none" fill="#000000" fill-rule="nonzero" /><path id="59" transform="matrix(1 0 0 -1 0 842)" d="M396.5 634.8286L396.9956 634.8286L396.9956 614.0125L396.5 614.0125z" stroke="none" fill="#000000" fill-rule="nonzero" /><path id="60" transform="matrix(1 0 0 -1 0 842)" d="M544.6919 634.8286L545.1875 634.8286L545.1875 614.0125L544.6919 614.0125z" stroke="none" fill="#000000" fill-rule="nonzero" /><path id="61" transform="matrix(1 0 0 -1 0 842)" d="M223.0313 614.5081L396.9956 614.5081L396.9956 614.0125L223.0313 614.0125z" stroke="none" fill="#000000" fill-rule="nonzero" /><path id="62" transform="matrix(1 0 0 -1 0 842)" d="M223.0313 594.1875L396.9956 594.1875L396.9956 593.6919L223.0313 593.6919z" stroke="none" fill="#000000" fill-rule="nonzero" /><path id="63" transform="matrix(1 0 0 -1 0 842)" d="M223.0313 614.5081L223.5269 614.5081L223.5269 593.6919L223.0313 593.6919z" stroke="none" fill="#000000" fill-rule="nonzero" /><path id="64" transform="matrix(1 0 0 -1 0 842)" d="M396.5 614.5081L396.9956 614.5081L396.9956 593.6919L396.5 593.6919z" stroke="none" fill="#000000" fill-rule="nonzero" /><path id="65" transform="matrix(1 0 0 -1 0 842)" d="M396.5 614.5081L545.1875 614.5081L545.1875 614.0125L396.5 614.0125z" stroke="none" fill="#000000" fill-rule="nonzero" /><path id="66" transform="matrix(1 0 0 -1 0 842)" d="M396.5 594.1875L545.1875 594.1875L545.1875 593.6919L396.5 593.6919z" stroke="none" fill="#000000" fill-rule="nonzero" /><path id="67" transform="matrix(1 0 0 -1 0 842)" d="M396.5 614.5081L396.9956 614.5081L396.9956 593.6919L396.5 593.6919z" stroke="none" fill="#000000" fill-rule="nonzero" /><path id="68" transform="matrix(1 0 0 -1 0 842)" d="M544.6919 614.5081L545.1875 614.5081L545.1875 593.6919L544.6919 593.6919z" stroke="none" fill="#000000" fill-rule="nonzero" /><path id="69" transform="matrix(1 0 0 -1 0 842)" d="M223.0313 594.1875L396.9956 594.1875L396.9956 593.6919L223.0313 593.6919z" stroke="none" fill="#000000" fill-rule="nonzero" /><path id="70" transform="matrix(1 0 0 -1 0 842)" d="M223.0313 573.8667L396.9956 573.8667L396.9956 573.3711L223.0313 573.3711z" stroke="none" fill="#000000" fill-rule="nonzero" /><path id="71" transform="matrix(1 0 0 -1 0 842)" d="M223.0313 594.1875L223.5269 594.1875L223.5269 573.3711L223.0313 573.3711z" stroke="none" fill="#000000" fill-rule="nonzero" /><path id="72" transform="matrix(1 0 0 -1 0 842)" d="M396.5 594.1875L396.9956 594.1875L396.9956 573.3711L396.5 573.3711z" stroke="none" fill="#000000" fill-rule="nonzero" /><path id="73" transform="matrix(1 0 0 -1 0 842)" d="M396.5 594.1875L545.1875 594.1875L545.1875 593.6919L396.5 593.6919z" stroke="none" fill="#000000" fill-rule="nonzero" /><path id="74" transform="matrix(1 0 0 -1 0 842)" d="M396.5 573.8667L545.1875 573.8667L545.1875 573.3711L396.5 573.3711z" stroke="none" fill="#000000" fill-rule="nonzero" /><path id="75" transform="matrix(1 0 0 -1 0 842)" d="M396.5 594.1875L396.9956 594.1875L396.9956 573.3711L396.5 573.3711z" stroke="none" fill="#000000" fill-rule="nonzero" /><path id="76" transform="matrix(1 0 0 -1 0 842)" d="M544.6919 594.1875L545.1875 594.1875L545.1875 573.3711L544.6919 573.3711z" stroke="none" fill="#000000" fill-rule="nonzero" /><path id="77" transform="matrix(1 0 0 -1 0 842)" d="M223.0313 573.8667L396.9956 573.8667L396.9956 573.3711L223.0313 573.3711z" stroke="none" fill="#000000" fill-rule="nonzero" /><path id="78" transform="matrix(1 0 0 -1 0 842)" d="M223.0313 553.5461L396.9956 553.5461L396.9956 553.0505L223.0313 553.0505z" stroke="none" fill="#000000" fill-rule="nonzero" /><path id="79" transform="matrix(1 0 0 -1 0 842)" d="M223.0313 573.8667L223.5269 573.8667L223.5269 553.0505L223.0313 553.0505z" stroke="none" fill="#000000" fill-rule="nonzero" /><path id="80" transform="matrix(1 0 0 -1 0 842)" d="M396.5 573.8667L396.9956 573.8667L396.9956 553.0505L396.5 553.0505z" stroke="none" fill="#000000" fill-rule="nonzero" /><path id="81" transform="matrix(1 0 0 -1 0 842)" d="M396.5 573.8667L545.1875 573.8667L545.1875 573.3711L396.5 573.3711z" stroke="none" fill="#000000" fill-rule="nonzero" /><path id="82" transform="matrix(1 0 0 -1 0 842)" d="M396.5 553.5461L545.1875 553.5461L545.1875 553.0505L396.5 553.0505z" stroke="none" fill="#000000" fill-rule="nonzero" /><path id="83" transform="matrix(1 0 0 -1 0 842)" d="M396.5 573.8667L396.9956 573.8667L396.9956 553.0505L396.5 553.0505z" stroke="none" fill="#000000" fill-rule="nonzero" /><path id="84" transform="matrix(1 0 0 -1 0 842)" d="M544.6919 573.8667L545.1875 573.8667L545.1875 553.0505L544.6919 553.0505z" stroke="none" fill="#000000" fill-rule="nonzero" /><path id="85" transform="matrix(1 0 0 -1 0 842)" d="M223.0313 553.5461L396.9956 553.5461L396.9956 553.0505L223.0313 553.0505z" stroke="none" fill="#000000" fill-rule="nonzero" /><path id="86" transform="matrix(1 0 0 -1 0 842)" d="M223.0313 533.2256L396.9956 533.2256L396.9956 532.73L223.0313 532.73z" stroke="none" fill="#000000" fill-rule="nonzero" /><path id="87" transform="matrix(1 0 0 -1 0 842)" d="M223.0313 553.5461L223.5269 553.5461L223.5269 532.73L223.0313 532.73z" stroke="none" fill="#000000" fill-rule="nonzero" /><path id="88" transform="matrix(1 0 0 -1 0 842)" d="M396.5 553.5461L396.9956 553.5461L396.9956 532.73L396.5 532.73z" stroke="none" fill="#000000" fill-rule="nonzero" /><path id="89" transform="matrix(1 0 0 -1 0 842)" d="M396.5 553.5461L545.1875 553.5461L545.1875 553.0505L396.5 553.0505z" stroke="none" fill="#000000" fill-rule="nonzero" /><path id="90" transform="matrix(1 0 0 -1 0 842)" d="M396.5 533.2256L545.1875 533.2256L545.1875 532.73L396.5 532.73z" stroke="none" fill="#000000" fill-rule="nonzero" /><path id="91" transform="matrix(1 0 0 -1 0 842)" d="M396.5 553.5461L396.9956 553.5461L396.9956 532.73L396.5 532.73z" stroke="none" fill="#000000" fill-rule="nonzero" /><path id="92" transform="matrix(1 0 0 -1 0 842)" d="M544.6919 553.5461L545.1875 553.5461L545.1875 532.73L544.6919 532.73z" stroke="none" fill="#000000" fill-rule="nonzero" /><path id="93" transform="matrix(1 0 0 -1 0 842)" d="M223.0313 533.2256L396.9956 533.2256L396.9956 532.73L223.0313 532.73z" stroke="none" fill="#000000" fill-rule="nonzero" /><path id="94" transform="matrix(1 0 0 -1 0 842)" d="M223.0313 512.905L396.9956 512.905L396.9956 512.4094L223.0313 512.4094z" stroke="none" fill="#000000" fill-rule="nonzero" /><path id="95" transform="matrix(1 0 0 -1 0 842)" d="M223.0313 533.2256L223.5269 533.2256L223.5269 512.4094L223.0313 512.4094z" stroke="none" fill="#000000" fill-rule="nonzero" /><path id="96" transform="matrix(1 0 0 -1 0 842)" d="M396.5 533.2256L396.9956 533.2256L396.9956 512.4094L396.5 512.4094z" stroke="none" fill="#000000" fill-rule="nonzero" /><path id="97" transform="matrix(1 0 0 -1 0 842)" d="M396.5 533.2256L545.1875 533.2256L545.1875 532.73L396.5 532.73z" stroke="none" fill="#000000" fill-rule="nonzero" /><path id="98" transform="matrix(1 0 0 -1 0 842)" d="M396.5 512.905L545.1875 512.905L545.1875 512.4094L396.5 512.4094z" stroke="none" fill="#000000" fill-rule="nonzero" /><path id="99" transform="matrix(1 0 0 -1 0 842)" d="M396.5 533.2256L396.9956 533.2256L396.9956 512.4094L396.5 512.4094z" stroke="none" fill="#000000" fill-rule="nonzero" /><path id="100" transform="matrix(1 0 0 -1 0 842)" d="M544.6919 533.2256L545.1875 533.2256L545.1875 512.4094L544.6919 512.4094z" stroke="none" fill="#000000" fill-rule="nonzero" /><path id="101" transform="matrix(1 0 0 -1 0 842)" d="M223.0313 512.905L396.9956 512.905L396.9956 512.4094L223.0313 512.4094z" stroke="none" fill="#000000" fill-rule="nonzero" /><path id="102" transform="matrix(1 0 0 -1 0 842)" d="M223.0313 492.5842L396.9956 492.5842L396.9956 492.0886L223.0313 492.0886z" stroke="none" fill="#000000" fill-rule="nonzero" /><path id="103" transform="matrix(1 0 0 -1 0 842)" d="M223.0313 512.905L223.5269 512.905L223.5269 492.0886L223.0313 492.0886z" stroke="none" fill="#000000" fill-rule="nonzero" /><path id="104" transform="matrix(1 0 0 -1 0 842)" d="M396.5 512.905L396.9956 512.905L396.9956 492.0886L396.5 492.0886z" stroke="none" fill="#000000" fill-rule="nonzero" /><path id="105" transform="matrix(1 0 0 -1 0 842)" d="M396.5 512.905L545.1875 512.905L545.1875 512.4094L396.5 512.4094z" stroke="none" fill="#000000" fill-rule="nonzero" /><path id="106" transform="matrix(1 0 0 -1 0 842)" d="M396.5 492.5842L545.1875 492.5842L545.1875 492.0886L396.5 492.0886z" stroke="none" fill="#000000" fill-rule="nonzero" /><path id="107" transform="matrix(1 0 0 -1 0 842)" d="M396.5 512.905L396.9956 512.905L396.9956 492.0886L396.5 492.0886z" stroke="none" fill="#000000" fill-rule="nonzero" /><path id="108" transform="matrix(1 0 0 -1 0 842)" d="M544.6919 512.905L545.1875 512.905L545.1875 492.0886L544.6919 492.0886z" stroke="none" fill="#000000" fill-rule="nonzero" /><path id="109" transform="matrix(1 0 0 -1 0 842)" d="M223.0313 492.5842L396.9956 492.5842L396.9956 492.0886L223.0313 492.0886z" stroke="none" fill="#000000" fill-rule="nonzero" /><path id="110" transform="matrix(1 0 0 -1 0 842)" d="M223.0313 472.2637L396.9956 472.2637L396.9956 471.7681L223.0313 471.7681z" stroke="none" fill="#000000" fill-rule="nonzero" /><path id="111" transform="matrix(1 0 0 -1 0 842)" d="M223.0313 492.5842L223.5269 492.5842L223.5269 471.7681L223.0313 471.7681z" stroke="none" fill="#000000" fill-rule="nonzero" /><path id="112" transform="matrix(1 0 0 -1 0 842)" d="M396.5 492.5842L396.9956 492.5842L396.9956 471.7681L396.5 471.7681z" stroke="none" fill="#000000" fill-rule="nonzero" /><path id="113" transform="matrix(1 0 0 -1 0 842)" d="M396.5 492.5842L545.1875 492.5842L545.1875 492.0886L396.5 492.0886z" stroke="none" fill="#000000" fill-rule="nonzero" /><path id="114" transform="matrix(1 0 0 -1 0 842)" d="M396.5 472.2637L545.1875 472.2637L545.1875 471.7681L396.5 471.7681z" stroke="none" fill="#000000" fill-rule="nonzero" /><path id="115" transform="matrix(1 0 0 -1 0 842)" d="M396.5 492.5842L396.9956 492.5842L396.9956 471.7681L396.5 471.7681z" stroke="none" fill="#000000" fill-rule="nonzero" /><path id="116" transform="matrix(1 0 0 -1 0 842)" d="M544.6919 492.5842L545.1875 492.5842L545.1875 471.7681L544.6919 471.7681z" stroke="none" fill="#000000" fill-rule="nonzero" /><path id="117" transform="matrix(1 0 0 -1 0 842)" d="M223.0313 472.2637L396.9956 472.2637L396.9956 471.7681L223.0313 471.7681z" stroke="none" fill="#000000" fill-rule="nonzero" /><path id="118" transform="matrix(1 0 0 -1 0 842)" d="M223.0313 451.9431L396.9956 451.9431L396.9956 451.4475L223.0313 451.4475z" stroke="none" fill="#000000" fill-rule="nonzero" /><path id="119" transform="matrix(1 0 0 -1 0 842)" d="M223.0313 472.2637L223.5269 472.2637L223.5269 451.4475L223.0313 451.4475z" stroke="none" fill="#000000" fill-rule="nonzero" /><path id="120" transform="matrix(1 0 0 -1 0 842)" d="M396.5 472.2637L396.9956 472.2637L396.9956 451.4475L396.5 451.4475z" stroke="none" fill="#000000" fill-rule="nonzero" /><path id="121" transform="matrix(1 0 0 -1 0 842)" d="M396.5 472.2637L545.1875 472.2637L545.1875 471.7681L396.5 471.7681z" stroke="none" fill="#000000" fill-rule="nonzero" /><path id="122" transform="matrix(1 0 0 -1 0 842)" d="M396.5 451.9431L545.1875 451.9431L545.1875 451.4475L396.5 451.4475z" stroke="none" fill="#000000" fill-rule="nonzero" /><path id="123" transform="matrix(1 0 0 -1 0 842)" d="M396.5 472.2637L396.9956 472.2637L396.9956 451.4475L396.5 451.4475z" stroke="none" fill="#000000" fill-rule="nonzero" /><path id="124" transform="matrix(1 0 0 -1 0 842)" d="M544.6919 472.2637L545.1875 472.2637L545.1875 451.4475L544.6919 451.4475z" stroke="none" fill="#000000" fill-rule="nonzero" /><path id="125" transform="matrix(1 0 0 -1 0 842)" d="M49.5625 451.9431L131.3406 451.9431L131.3406 451.4475L49.5625 451.4475z" stroke="none" fill="#000000" fill-rule="nonzero" /><path id="126" transform="matrix(1 0 0 -1 0 842)" d="M49.5625 65.85107L131.3406 65.85107L131.3406 65.35547L49.5625 65.35547z" stroke="none" fill="#000000" fill-rule="nonzero" /><path id="127" transform="matrix(1 0 0 -1 0 842)" d="M49.5625 451.9431L50.05813 451.9431L50.05813 65.35547L49.5625 65.35547z" stroke="none" fill="#000000" fill-rule="nonzero" /><path id="128" transform="matrix(1 0 0 -1 0 842)" d="M130.845 451.9431L131.3406 451.9431L131.3406 65.35547L130.845 65.35547z" stroke="none" fill="#000000" fill-rule="nonzero" /><path id="129" transform="matrix(1 0 0 -1 0 842)" d="M130.845 451.9431L223.5269 451.9431L223.5269 451.4475L130.845 451.4475z" stroke="none" fill="#000000" fill-rule="nonzero" /><path id="130" transform="matrix(1 0 0 -1 0 842)" d="M130.845 370.6606L223.5269 370.6606L223.5269 370.165L130.845 370.165z" stroke="none" fill="#000000" fill-rule="nonzero" /><path id="131" transform="matrix(1 0 0 -1 0 842)" d="M130.845 451.9431L131.3406 451.9431L131.3406 370.165L130.845 370.165z" stroke="none" fill="#000000" fill-rule="nonzero" /><path id="132" transform="matrix(1 0 0 -1 0 842)" d="M223.0313 451.9431L223.5269 451.9431L223.5269 370.165L223.0313 370.165z" stroke="none" fill="#000000" fill-rule="nonzero" /><path id="133" transform="matrix(1 0 0 -1 0 842)" d="M223.0313 451.9431L396.9956 451.9431L396.9956 451.4475L223.0313 451.4475z" stroke="none" fill="#000000" fill-rule="nonzero" /><path id="134" transform="matrix(1 0 0 -1 0 842)" d="M223.0313 431.6223L396.9956 431.6223L396.9956 431.1267L223.0313 431.1267z" stroke="none" fill="#000000" fill-rule="nonzero" /><path id="135" transform="matrix(1 0 0 -1 0 842)" d="M223.0313 451.9431L223.5269 451.9431L223.5269 431.1267L223.0313 431.1267z" stroke="none" fill="#000000" fill-rule="nonzero" /><path id="136" transform="matrix(1 0 0 -1 0 842)" d="M396.5 451.9431L396.9956 451.9431L396.9956 431.1267L396.5 431.1267z" stroke="none" fill="#000000" fill-rule="nonzero" /><path id="137" transform="matrix(1 0 0 -1 0 842)" d="M396.5 451.9431L545.1875 451.9431L545.1875 451.4475L396.5 451.4475z" stroke="none" fill="#000000" fill-rule="nonzero" /><path id="138" transform="matrix(1 0 0 -1 0 842)" d="M396.5 431.6223L545.1875 431.6223L545.1875 431.1267L396.5 431.1267z" stroke="none" fill="#000000" fill-rule="nonzero" /><path id="139" transform="matrix(1 0 0 -1 0 842)" d="M396.5 451.9431L396.9956 451.9431L396.9956 431.1267L396.5 431.1267z" stroke="none" fill="#000000" fill-rule="nonzero" /><path id="140" transform="matrix(1 0 0 -1 0 842)" d="M544.6919 451.9431L545.1875 451.9431L545.1875 431.1267L544.6919 431.1267z" stroke="none" fill="#000000" fill-rule="nonzero" /><path id="141" transform="matrix(1 0 0 -1 0 842)" d="M223.0313 431.6223L396.9956 431.6223L396.9956 431.1267L223.0313 431.1267z" stroke="none" fill="#000000" fill-rule="nonzero" /><path id="142" transform="matrix(1 0 0 -1 0 842)" d="M223.0313 411.3018L396.9956 411.3018L396.9956 410.8062L223.0313 410.8062z" stroke="none" fill="#000000" fill-rule="nonzero" /><path id="143" transform="matrix(1 0 0 -1 0 842)" d="M223.0313 431.6223L223.5269 431.6223L223.5269 410.8062L223.0313 410.8062z" stroke="none" fill="#000000" fill-rule="nonzero" /><path id="144" transform="matrix(1 0 0 -1 0 842)" d="M396.5 431.6223L396.9956 431.6223L396.9956 410.8062L396.5 410.8062z" stroke="none" fill="#000000" fill-rule="nonzero" /><path id="145" transform="matrix(1 0 0 -1 0 842)" d="M396.5 431.6223L545.1875 431.6223L545.1875 431.1267L396.5 431.1267z" stroke="none" fill="#000000" fill-rule="nonzero" /><path id="146" transform="matrix(1 0 0 -1 0 842)" d="M396.5 411.3018L545.1875 411.3018L545.1875 410.8062L396.5 410.8062z" stroke="none" fill="#000000" fill-rule="nonzero" /><path id="147" transform="matrix(1 0 0 -1 0 842)" d="M396.5 431.6223L396.9956 431.6223L396.9956 410.8062L396.5 410.8062z" stroke="none" fill="#000000" fill-rule="nonzero" /><path id="148" transform="matrix(1 0 0 -1 0 842)" d="M544.6919 431.6223L545.1875 431.6223L545.1875 410.8062L544.6919 410.8062z" stroke="none" fill="#000000" fill-rule="nonzero" /><path id="149" transform="matrix(1 0 0 -1 0 842)" d="M223.0313 411.3018L396.9956 411.3018L396.9956 410.8062L223.0313 410.8062z" stroke="none" fill="#000000" fill-rule="nonzero" /><path id="150" transform="matrix(1 0 0 -1 0 842)" d="M223.0313 390.9812L396.9956 390.9812L396.9956 390.4856L223.0313 390.4856z" stroke="none" fill="#000000" fill-rule="nonzero" /><path id="151" transform="matrix(1 0 0 -1 0 842)" d="M223.0313 411.3018L223.5269 411.3018L223.5269 390.4856L223.0313 390.4856z" stroke="none" fill="#000000" fill-rule="nonzero" /><path id="152" transform="matrix(1 0 0 -1 0 842)" d="M396.5 411.3018L396.9956 411.3018L396.9956 390.4856L396.5 390.4856z" stroke="none" fill="#000000" fill-rule="nonzero" /><path id="153" transform="matrix(1 0 0 -1 0 842)" d="M396.5 411.3018L545.1875 411.3018L545.1875 410.8062L396.5 410.8062z" stroke="none" fill="#000000" fill-rule="nonzero" /><path id="154" transform="matrix(1 0 0 -1 0 842)" d="M396.5 390.9812L545.1875 390.9812L545.1875 390.4856L396.5 390.4856z" stroke="none" fill="#000000" fill-rule="nonzero" /><path id="155" transform="matrix(1 0 0 -1 0 842)" d="M396.5 411.3018L396.9956 411.3018L396.9956 390.4856L396.5 390.4856z" stroke="none" fill="#000000" fill-rule="nonzero" /><path id="156" transform="matrix(1 0 0 -1 0 842)" d="M544.6919 411.3018L545.1875 411.3018L545.1875 390.4856L544.6919 390.4856z" stroke="none" fill="#000000" fill-rule="nonzero" /><path id="157" transform="matrix(1 0 0 -1 0 842)" d="M223.0313 390.9812L396.9956 390.9812L396.9956 390.4856L223.0313 390.4856z" stroke="none" fill="#000000" fill-rule="nonzero" /><path id="158" transform="matrix(1 0 0 -1 0 842)" d="M223.0313 370.6606L396.9956 370.6606L396.9956 370.165L223.0313 370.165z" stroke="none" fill="#000000" fill-rule="nonzero" /><path id="159" transform="matrix(1 0 0 -1 0 842)" d="M223.0313 390.9812L223.5269 390.9812L223.5269 370.165L223.0313 370.165z" stroke="none" fill="#000000" fill-rule="nonzero" /><path id="160" transform="matrix(1 0 0 -1 0 842)" d="M396.5 390.9812L396.9956 390.9812L396.9956 370.165L396.5 370.165z" stroke="none" fill="#000000" fill-rule="nonzero" /><path id="161" transform="matrix(1 0 0 -1 0 842)" d="M396.5 390.9812L545.1875 390.9812L545.1875 390.4856L396.5 390.4856z" stroke="none" fill="#000000" fill-rule="nonzero" /><path id="162" transform="matrix(1 0 0 -1 0 842)" d="M396.5 370.6606L545.1875 370.6606L545.1875 370.165L396.5 370.165z" stroke="none" fill="#000000" fill-rule="nonzero" /><path id="163" transform="matrix(1 0 0 -1 0 842)" d="M396.5 390.9812L396.9956 390.9812L396.9956 370.165L396.5 370.165z" stroke="none" fill="#000000" fill-rule="nonzero" /><path id="164" transform="matrix(1 0 0 -1 0 842)" d="M544.6919 390.9812L545.1875 390.9812L545.1875 370.165L544.6919 370.165z" stroke="none" fill="#000000" fill-rule="nonzero" /><path id="165" transform="matrix(1 0 0 -1 0 842)" d="M130.845 370.6606L223.5269 370.6606L223.5269 370.165L130.845 370.165z" stroke="none" fill="#000000" fill-rule="nonzero" /><path id="166" transform="matrix(1 0 0 -1 0 842)" d="M130.845 289.3782L223.5269 289.3782L223.5269 288.8823L130.845 288.8823z" stroke="none" fill="#000000" fill-rule="nonzero" /><path id="167" transform="matrix(1 0 0 -1 0 842)" d="M130.845 370.6606L131.3406 370.6606L131.3406 288.8823L130.845 288.8823z" stroke="none" fill="#000000" fill-rule="nonzero" /><path id="168" transform="matrix(1 0 0 -1 0 842)" d="M223.0313 370.6606L223.5269 370.6606L223.5269 288.8823L223.0313 288.8823z" stroke="none" fill="#000000" fill-rule="nonzero" /><path id="169" transform="matrix(1 0 0 -1 0 842)" d="M223.0313 370.6606L396.9956 370.6606L396.9956 370.165L223.0313 370.165z" stroke="none" fill="#000000" fill-rule="nonzero" /><path id="170" transform="matrix(1 0 0 -1 0 842)" d="M223.0313 350.3398L396.9956 350.3398L396.9956 349.8442L223.0313 349.8442z" stroke="none" fill="#000000" fill-rule="nonzero" /><path id="171" transform="matrix(1 0 0 -1 0 842)" d="M223.0313 370.6606L223.5269 370.6606L223.5269 349.8442L223.0313 349.8442z" stroke="none" fill="#000000" fill-rule="nonzero" /><path id="172" transform="matrix(1 0 0 -1 0 842)" d="M396.5 370.6606L396.9956 370.6606L396.9956 349.8442L396.5 349.8442z" stroke="none" fill="#000000" fill-rule="nonzero" /><path id="173" transform="matrix(1 0 0 -1 0 842)" d="M396.5 370.6606L545.1875 370.6606L545.1875 370.165L396.5 370.165z" stroke="none" fill="#000000" fill-rule="nonzero" /><path id="174" transform="matrix(1 0 0 -1 0 842)" d="M396.5 350.3398L545.1875 350.3398L545.1875 349.8442L396.5 349.8442z" stroke="none" fill="#000000" fill-rule="nonzero" /><path id="175" transform="matrix(1 0 0 -1 0 842)" d="M396.5 370.6606L396.9956 370.6606L396.9956 349.8442L396.5 349.8442z" stroke="none" fill="#000000" fill-rule="nonzero" /><path id="176" transform="matrix(1 0 0 -1 0 842)" d="M544.6919 370.6606L545.1875 370.6606L545.1875 349.8442L544.6919 349.8442z" stroke="none" fill="#000000" fill-rule="nonzero" /><path id="177" transform="matrix(1 0 0 -1 0 842)" d="M223.0313 350.3398L396.9956 350.3398L396.9956 349.8442L223.0313 349.8442z" stroke="none" fill="#000000" fill-rule="nonzero" /><path id="178" transform="matrix(1 0 0 -1 0 842)" d="M223.0313 330.0193L396.9956 330.0193L396.9956 329.5237L223.0313 329.5237z" stroke="none" fill="#000000" fill-rule="nonzero" /><path id="179" transform="matrix(1 0 0 -1 0 842)" d="M223.0313 350.3398L223.5269 350.3398L223.5269 329.5237L223.0313 329.5237z" stroke="none" fill="#000000" fill-rule="nonzero" /><path id="180" transform="matrix(1 0 0 -1 0 842)" d="M396.5 350.3398L396.9956 350.3398L396.9956 329.5237L396.5 329.5237z" stroke="none" fill="#000000" fill-rule="nonzero" /><path id="181" transform="matrix(1 0 0 -1 0 842)" d="M396.5 350.3398L545.1875 350.3398L545.1875 349.8442L396.5 349.8442z" stroke="none" fill="#000000" fill-rule="nonzero" /><path id="182" transform="matrix(1 0 0 -1 0 842)" d="M396.5 330.0193L545.1875 330.0193L545.1875 329.5237L396.5 329.5237z" stroke="none" fill="#000000" fill-rule="nonzero" /><path id="183" transform="matrix(1 0 0 -1 0 842)" d="M396.5 350.3398L396.9956 350.3398L396.9956 329.5237L396.5 329.5237z" stroke="none" fill="#000000" fill-rule="nonzero" /><path id="184" transform="matrix(1 0 0 -1 0 842)" d="M544.6919 350.3398L545.1875 350.3398L545.1875 329.5237L544.6919 329.5237z" stroke="none" fill="#000000" fill-rule="nonzero" /><path id="185" transform="matrix(1 0 0 -1 0 842)" d="M223.0313 330.0193L396.9956 330.0193L396.9956 329.5237L223.0313 329.5237z" stroke="none" fill="#000000" fill-rule="nonzero" /><path id="186" transform="matrix(1 0 0 -1 0 842)" d="M223.0313 309.6987L396.9956 309.6987L396.9956 309.2031L223.0313 309.2031z" stroke="none" fill="#000000" fill-rule="nonzero" /><path id="187" transform="matrix(1 0 0 -1 0 842)" d="M223.0313 330.0193L223.5269 330.0193L223.5269 309.2031L223.0313 309.2031z" stroke="none" fill="#000000" fill-rule="nonzero" /><path id="188" transform="matrix(1 0 0 -1 0 842)" d="M396.5 330.0193L396.9956 330.0193L396.9956 309.2031L396.5 309.2031z" stroke="none" fill="#000000" fill-rule="nonzero" /><path id="189" transform="matrix(1 0 0 -1 0 842)" d="M396.5 330.0193L545.1875 330.0193L545.1875 329.5237L396.5 329.5237z" stroke="none" fill="#000000" fill-rule="nonzero" /><path id="190" transform="matrix(1 0 0 -1 0 842)" d="M396.5 309.6987L545.1875 309.6987L545.1875 309.2031L396.5 309.2031z" stroke="none" fill="#000000" fill-rule="nonzero" /><path id="191" transform="matrix(1 0 0 -1 0 842)" d="M396.5 330.0193L396.9956 330.0193L396.9956 309.2031L396.5 309.2031z" stroke="none" fill="#000000" fill-rule="nonzero" /><path id="192" transform="matrix(1 0 0 -1 0 842)" d="M544.6919 330.0193L545.1875 330.0193L545.1875 309.2031L544.6919 309.2031z" stroke="none" fill="#000000" fill-rule="nonzero" /><path id="193" transform="matrix(1 0 0 -1 0 842)" d="M223.0313 309.6987L396.9956 309.6987L396.9956 309.2031L223.0313 309.2031z" stroke="none" fill="#000000" fill-rule="nonzero" /><path id="194" transform="matrix(1 0 0 -1 0 842)" d="M223.0313 289.3782L396.9956 289.3782L396.9956 288.8823L223.0313 288.8823z" stroke="none" fill="#000000" fill-rule="nonzero" /><path id="195" transform="matrix(1 0 0 -1 0 842)" d="M223.0313 309.6987L223.5269 309.6987L223.5269 288.8823L223.0313 288.8823z" stroke="none" fill="#000000" fill-rule="nonzero" /><path id="196" transform="matrix(1 0 0 -1 0 842)" d="M396.5 309.6987L396.9956 309.6987L396.9956 288.8823L396.5 288.8823z" stroke="none" fill="#000000" fill-rule="nonzero" /><path id="197" transform="matrix(1 0 0 -1 0 842)" d="M396.5 309.6987L545.1875 309.6987L545.1875 309.2031L396.5 309.2031z" stroke="none" fill="#000000" fill-rule="nonzero" /><path id="198" transform="matrix(1 0 0 -1 0 842)" d="M396.5 289.3782L545.1875 289.3782L545.1875 288.8823L396.5 288.8823z" stroke="none" fill="#000000" fill-rule="nonzero" /><path id="199" transform="matrix(1 0 0 -1 0 842)" d="M396.5 309.6987L396.9956 309.6987L396.9956 288.8823L396.5 288.8823z" stroke="none" fill="#000000" fill-rule="nonzero" /><path id="200" transform="matrix(1 0 0 -1 0 842)" d="M544.6919 309.6987L545.1875 309.6987L545.1875 288.8823L544.6919 288.8823z" stroke="none" fill="#000000" fill-rule="nonzero" /><path id="201" transform="matrix(1 0 0 -1 0 842)" d="M130.845 289.3782L223.5269 289.3782L223.5269 288.8823L130.845 288.8823z" stroke="none" fill="#000000" fill-rule="nonzero" /><path id="202" transform="matrix(1 0 0 -1 0 842)" d="M130.845 269.0574L223.5269 269.0574L223.5269 268.5618L130.845 268.5618z" stroke="none" fill="#000000" fill-rule="nonzero" /><path id="203" transform="matrix(1 0 0 -1 0 842)" d="M130.845 289.3782L131.3406 289.3782L131.3406 268.5618L130.845 268.5618z" stroke="none" fill="#000000" fill-rule="nonzero" /><path id="204" transform="matrix(1 0 0 -1 0 842)" d="M223.0313 289.3782L223.5269 289.3782L223.5269 268.5618L223.0313 268.5618z" stroke="none" fill="#000000" fill-rule="nonzero" /><path id="205" transform="matrix(1 0 0 -1 0 842)" d="M223.0313 289.3782L396.9956 289.3782L396.9956 288.8823L223.0313 288.8823z" stroke="none" fill="#000000" fill-rule="nonzero" /><path id="206" transform="matrix(1 0 0 -1 0 842)" d="M223.0313 269.0574L396.9956 269.0574L396.9956 268.5618L223.0313 268.5618z" stroke="none" fill="#000000" fill-rule="nonzero" /><path id="207" transform="matrix(1 0 0 -1 0 842)" d="M223.0313 289.3782L223.5269 289.3782L223.5269 268.5618L223.0313 268.5618z" stroke="none" fill="#000000" fill-rule="nonzero" /><path id="208" transform="matrix(1 0 0 -1 0 842)" d="M396.5 289.3782L396.9956 289.3782L396.9956 268.5618L396.5 268.5618z" stroke="none" fill="#000000" fill-rule="nonzero" /><path id="209" transform="matrix(1 0 0 -1 0 842)" d="M396.5 289.3782L545.1875 289.3782L545.1875 288.8823L396.5 288.8823z" stroke="none" fill="#000000" fill-rule="nonzero" /><path id="210" transform="matrix(1 0 0 -1 0 842)" d="M396.5 269.0574L545.1875 269.0574L545.1875 268.5618L396.5 268.5618z" stroke="none" fill="#000000" fill-rule="nonzero" /><path id="211" transform="matrix(1 0 0 -1 0 842)" d="M396.5 289.3782L396.9956 289.3782L396.9956 268.5618L396.5 268.5618z" stroke="none" fill="#000000" fill-rule="nonzero" /><path id="212" transform="matrix(1 0 0 -1 0 842)" d="M544.6919 289.3782L545.1875 289.3782L545.1875 268.5618L544.6919 268.5618z" stroke="none" fill="#000000" fill-rule="nonzero" /><path id="213" transform="matrix(1 0 0 -1 0 842)" d="M130.845 269.0574L223.5269 269.0574L223.5269 268.5618L130.845 268.5618z" stroke="none" fill="#000000" fill-rule="nonzero" /><path id="214" transform="matrix(1 0 0 -1 0 842)" d="M130.845 228.4163L223.5269 228.4163L223.5269 227.9207L130.845 227.9207z" stroke="none" fill="#000000" fill-rule="nonzero" /><path id="215" transform="matrix(1 0 0 -1 0 842)" d="M130.845 269.0574L131.3406 269.0574L131.3406 227.9207L130.845 227.9207z" stroke="none" fill="#000000" fill-rule="nonzero" /><path id="216" transform="matrix(1 0 0 -1 0 842)" d="M223.0313 269.0574L223.5269 269.0574L223.5269 227.9207L223.0313 227.9207z" stroke="none" fill="#000000" fill-rule="nonzero" /><path id="217" transform="matrix(1 0 0 -1 0 842)" d="M223.0313 269.0574L396.9956 269.0574L396.9956 268.5618L223.0313 268.5618z" stroke="none" fill="#000000" fill-rule="nonzero" /><path id="218" transform="matrix(1 0 0 -1 0 842)" d="M223.0313 248.7368L396.9956 248.7368L396.9956 248.2412L223.0313 248.2412z" stroke="none" fill="#000000" fill-rule="nonzero" /><path id="219" transform="matrix(1 0 0 -1 0 842)" d="M223.0313 269.0574L223.5269 269.0574L223.5269 248.2412L223.0313 248.2412z" stroke="none" fill="#000000" fill-rule="nonzero" /><path id="220" transform="matrix(1 0 0 -1 0 842)" d="M396.5 269.0574L396.9956 269.0574L396.9956 248.2412L396.5 248.2412z" stroke="none" fill="#000000" fill-rule="nonzero" /><path id="221" transform="matrix(1 0 0 -1 0 842)" d="M396.5 269.0574L545.1875 269.0574L545.1875 268.5618L396.5 268.5618z" stroke="none" fill="#000000" fill-rule="nonzero" /><path id="222" transform="matrix(1 0 0 -1 0 842)" d="M396.5 248.7368L545.1875 248.7368L545.1875 248.2412L396.5 248.2412z" stroke="none" fill="#000000" fill-rule="nonzero" /><path id="223" transform="matrix(1 0 0 -1 0 842)" d="M396.5 269.0574L396.9956 269.0574L396.9956 248.2412L396.5 248.2412z" stroke="none" fill="#000000" fill-rule="nonzero" /><path id="224" transform="matrix(1 0 0 -1 0 842)" d="M544.6919 269.0574L545.1875 269.0574L545.1875 248.2412L544.6919 248.2412z" stroke="none" fill="#000000" fill-rule="nonzero" /><path id="225" transform="matrix(1 0 0 -1 0 842)" d="M223.0313 248.7368L396.9956 248.7368L396.9956 248.2412L223.0313 248.2412z" stroke="none" fill="#000000" fill-rule="nonzero" /><path id="226" transform="matrix(1 0 0 -1 0 842)" d="M223.0313 228.4163L396.9956 228.4163L396.9956 227.9207L223.0313 227.9207z" stroke="none" fill="#000000" fill-rule="nonzero" /><path id="227" transform="matrix(1 0 0 -1 0 842)" d="M223.0313 248.7368L223.5269 248.7368L223.5269 227.9207L223.0313 227.9207z" stroke="none" fill="#000000" fill-rule="nonzero" /><path id="228" transform="matrix(1 0 0 -1 0 842)" d="M396.5 248.7368L396.9956 248.7368L396.9956 227.9207L396.5 227.9207z" stroke="none" fill="#000000" fill-rule="nonzero" /><path id="229" transform="matrix(1 0 0 -1 0 842)" d="M396.5 248.7368L545.1875 248.7368L545.1875 248.2412L396.5 248.2412z" stroke="none" fill="#000000" fill-rule="nonzero" /><path id="230" transform="matrix(1 0 0 -1 0 842)" d="M396.5 228.4163L545.1875 228.4163L545.1875 227.9207L396.5 227.9207z" stroke="none" fill="#000000" fill-rule="nonzero" /><path id="231" transform="matrix(1 0 0 -1 0 842)" d="M396.5 248.7368L396.9956 248.7368L396.9956 227.9207L396.5 227.9207z" stroke="none" fill="#000000" fill-rule="nonzero" /><path id="232" transform="matrix(1 0 0 -1 0 842)" d="M544.6919 248.7368L545.1875 248.7368L545.1875 227.9207L544.6919 227.9207z" stroke="none" fill="#000000" fill-rule="nonzero" /><path id="233" transform="matrix(1 0 0 -1 0 842)" d="M130.845 228.4163L223.5269 228.4163L223.5269 227.9207L130.845 227.9207z" stroke="none" fill="#000000" fill-rule="nonzero" /><path id="234" transform="matrix(1 0 0 -1 0 842)" d="M130.845 147.1338L223.5269 147.1338L223.5269 146.6379L130.845 146.6379z" stroke="none" fill="#000000" fill-rule="nonzero" /><path id="235" transform="matrix(1 0 0 -1 0 842)" d="M130.845 228.4163L131.3406 228.4163L131.3406 146.6379L130.845 146.6379z" stroke="none" fill="#000000" fill-rule="nonzero" /><path id="236" transform="matrix(1 0 0 -1 0 842)" d="M223.0313 228.4163L223.5269 228.4163L223.5269 146.6379L223.0313 146.6379z" stroke="none" fill="#000000" fill-rule="nonzero" /><path id="237" transform="matrix(1 0 0 -1 0 842)" d="M223.0313 228.4163L396.9956 228.4163L396.9956 227.9207L223.0313 227.9207z" stroke="none" fill="#000000" fill-rule="nonzero" /><path id="238" transform="matrix(1 0 0 -1 0 842)" d="M223.0313 208.0955L396.9956 208.0955L396.9956 207.5999L223.0313 207.5999z" stroke="none" fill="#000000" fill-rule="nonzero" /><path id="239" transform="matrix(1 0 0 -1 0 842)" d="M223.0313 228.4163L223.5269 228.4163L223.5269 207.5999L223.0313 207.5999z" stroke="none" fill="#000000" fill-rule="nonzero" /><path id="240" transform="matrix(1 0 0 -1 0 842)" d="M396.5 228.4163L396.9956 228.4163L396.9956 207.5999L396.5 207.5999z" stroke="none" fill="#000000" fill-rule="nonzero" /><path id="241" transform="matrix(1 0 0 -1 0 842)" d="M396.5 228.4163L545.1875 228.4163L545.1875 227.9207L396.5 227.9207z" stroke="none" fill="#000000" fill-rule="nonzero" /><path id="242" transform="matrix(1 0 0 -1 0 842)" d="M396.5 208.0955L545.1875 208.0955L545.1875 207.5999L396.5 207.5999z" stroke="none" fill="#000000" fill-rule="nonzero" /><path id="243" transform="matrix(1 0 0 -1 0 842)" d="M396.5 228.4163L396.9956 228.4163L396.9956 207.5999L396.5 207.5999z" stroke="none" fill="#000000" fill-rule="nonzero" /><path id="244" transform="matrix(1 0 0 -1 0 842)" d="M544.6919 228.4163L545.1875 228.4163L545.1875 207.5999L544.6919 207.5999z" stroke="none" fill="#000000" fill-rule="nonzero" /><path id="245" transform="matrix(1 0 0 -1 0 842)" d="M223.0313 208.0955L396.9956 208.0955L396.9956 207.5999L223.0313 207.5999z" stroke="none" fill="#000000" fill-rule="nonzero" /><path id="246" transform="matrix(1 0 0 -1 0 842)" d="M223.0313 187.7749L396.9956 187.7749L396.9956 187.2793L223.0313 187.2793z" stroke="none" fill="#000000" fill-rule="nonzero" /><path id="247" transform="matrix(1 0 0 -1 0 842)" d="M223.0313 208.0955L223.5269 208.0955L223.5269 187.2793L223.0313 187.2793z" stroke="none" fill="#000000" fill-rule="nonzero" /><path id="248" transform="matrix(1 0 0 -1 0 842)" d="M396.5 208.0955L396.9956 208.0955L396.9956 187.2793L396.5 187.2793z" stroke="none" fill="#000000" fill-rule="nonzero" /><path id="249" transform="matrix(1 0 0 -1 0 842)" d="M396.5 208.0955L545.1875 208.0955L545.1875 207.5999L396.5 207.5999z" stroke="none" fill="#000000" fill-rule="nonzero" /><path id="250" transform="matrix(1 0 0 -1 0 842)" d="M396.5 187.7749L545.1875 187.7749L545.1875 187.2793L396.5 187.2793z" stroke="none" fill="#000000" fill-rule="nonzero" /><path id="251" transform="matrix(1 0 0 -1 0 842)" d="M396.5 208.0955L396.9956 208.0955L396.9956 187.2793L396.5 187.2793z" stroke="none" fill="#000000" fill-rule="nonzero" /><path id="252" transform="matrix(1 0 0 -1 0 842)" d="M544.6919 208.0955L545.1875 208.0955L545.1875 187.2793L544.6919 187.2793z" stroke="none" fill="#000000" fill-rule="nonzero" /><path id="253" transform="matrix(1 0 0 -1 0 842)" d="M223.0313 187.7749L396.9956 187.7749L396.9956 187.2793L223.0313 187.2793z" stroke="none" fill="#000000" fill-rule="nonzero" /><path id="254" transform="matrix(1 0 0 -1 0 842)" d="M223.0313 167.4543L396.9956 167.4543L396.9956 166.9587L223.0313 166.9587z" stroke="none" fill="#000000" fill-rule="nonzero" /><path id="255" transform="matrix(1 0 0 -1 0 842)" d="M223.0313 187.7749L223.5269 187.7749L223.5269 166.9587L223.0313 166.9587z" stroke="none" fill="#000000" fill-rule="nonzero" /><path id="256" transform="matrix(1 0 0 -1 0 842)" d="M396.5 187.7749L396.9956 187.7749L396.9956 166.9587L396.5 166.9587z" stroke="none" fill="#000000" fill-rule="nonzero" /><path id="257" transform="matrix(1 0 0 -1 0 842)" d="M396.5 187.7749L545.1875 187.7749L545.1875 187.2793L396.5 187.2793z" stroke="none" fill="#000000" fill-rule="nonzero" /><path id="258" transform="matrix(1 0 0 -1 0 842)" d="M396.5 167.4543L545.1875 167.4543L545.1875 166.9587L396.5 166.9587z" stroke="none" fill="#000000" fill-rule="nonzero" /><path id="259" transform="matrix(1 0 0 -1 0 842)" d="M396.5 187.7749L396.9956 187.7749L396.9956 166.9587L396.5 166.9587z" stroke="none" fill="#000000" fill-rule="nonzero" /><path id="260" transform="matrix(1 0 0 -1 0 842)" d="M544.6919 187.7749L545.1875 187.7749L545.1875 166.9587L544.6919 166.9587z" stroke="none" fill="#000000" fill-rule="nonzero" /><path id="261" transform="matrix(1 0 0 -1 0 842)" d="M223.0313 167.4543L396.9956 167.4543L396.9956 166.9587L223.0313 166.9587z" stroke="none" fill="#000000" fill-rule="nonzero" /><path id="262" transform="matrix(1 0 0 -1 0 842)" d="M223.0313 147.1338L396.9956 147.1338L396.9956 146.6379L223.0313 146.6379z" stroke="none" fill="#000000" fill-rule="nonzero" /><path id="263" transform="matrix(1 0 0 -1 0 842)" d="M223.0313 167.4543L223.5269 167.4543L223.5269 146.6379L223.0313 146.6379z" stroke="none" fill="#000000" fill-rule="nonzero" /><path id="264" transform="matrix(1 0 0 -1 0 842)" d="M396.5 167.4543L396.9956 167.4543L396.9956 146.6379L396.5 146.6379z" stroke="none" fill="#000000" fill-rule="nonzero" /><path id="265" transform="matrix(1 0 0 -1 0 842)" d="M396.5 167.4543L545.1875 167.4543L545.1875 166.9587L396.5 166.9587z" stroke="none" fill="#000000" fill-rule="nonzero" /><path id="266" transform="matrix(1 0 0 -1 0 842)" d="M396.5 147.1338L545.1875 147.1338L545.1875 146.6379L396.5 146.6379z" stroke="none" fill="#000000" fill-rule="nonzero" /><path id="267" transform="matrix(1 0 0 -1 0 842)" d="M396.5 167.4543L396.9956 167.4543L396.9956 146.6379L396.5 146.6379z" stroke="none" fill="#000000" fill-rule="nonzero" /><path id="268" transform="matrix(1 0 0 -1 0 842)" d="M544.6919 167.4543L545.1875 167.4543L545.1875 146.6379L544.6919 146.6379z" stroke="none" fill="#000000" fill-rule="nonzero" /><path id="269" transform="matrix(1 0 0 -1 0 842)" d="M130.845 147.1338L223.5269 147.1338L223.5269 146.6379L130.845 146.6379z" stroke="none" fill="#000000" fill-rule="nonzero" /><path id="270" transform="matrix(1 0 0 -1 0 842)" d="M130.845 126.813L223.5269 126.813L223.5269 126.3174L130.845 126.3174z" stroke="none" fill="#000000" fill-rule="nonzero" /><path id="271" transform="matrix(1 0 0 -1 0 842)" d="M130.845 147.1338L131.3406 147.1338L131.3406 126.3174L130.845 126.3174z" stroke="none" fill="#000000" fill-rule="nonzero" /><path id="272" transform="matrix(1 0 0 -1 0 842)" d="M223.0313 147.1338L223.5269 147.1338L223.5269 126.3174L223.0313 126.3174z" stroke="none" fill="#000000" fill-rule="nonzero" /><path id="273" transform="matrix(1 0 0 -1 0 842)" d="M223.0313 147.1338L396.9956 147.1338L396.9956 146.6379L223.0313 146.6379z" stroke="none" fill="#000000" fill-rule="nonzero" /><path id="274" transform="matrix(1 0 0 -1 0 842)" d="M223.0313 126.813L396.9956 126.813L396.9956 126.3174L223.0313 126.3174z" stroke="none" fill="#000000" fill-rule="nonzero" /><path id="275" transform="matrix(1 0 0 -1 0 842)" d="M223.0313 147.1338L223.5269 147.1338L223.5269 126.3174L223.0313 126.3174z" stroke="none" fill="#000000" fill-rule="nonzero" /><path id="276" transform="matrix(1 0 0 -1 0 842)" d="M396.5 147.1338L396.9956 147.1338L396.9956 126.3174L396.5 126.3174z" stroke="none" fill="#000000" fill-rule="nonzero" /><path id="277" transform="matrix(1 0 0 -1 0 842)" d="M396.5 147.1338L545.1875 147.1338L545.1875 146.6379L396.5 146.6379z" stroke="none" fill="#000000" fill-rule="nonzero" /><path id="278" transform="matrix(1 0 0 -1 0 842)" d="M396.5 126.813L545.1875 126.813L545.1875 126.3174L396.5 126.3174z" stroke="none" fill="#000000" fill-rule="nonzero" /><path id="279" transform="matrix(1 0 0 -1 0 842)" d="M396.5 147.1338L396.9956 147.1338L396.9956 126.3174L396.5 126.3174z" stroke="none" fill="#000000" fill-rule="nonzero" /><path id="280" transform="matrix(1 0 0 -1 0 842)" d="M544.6919 147.1338L545.1875 147.1338L545.1875 126.3174L544.6919 126.3174z" stroke="none" fill="#000000" fill-rule="nonzero" /><path id="281" transform="matrix(1 0 0 -1 0 842)" d="M130.845 126.813L223.5269 126.813L223.5269 126.3174L130.845 126.3174z" stroke="none" fill="#000000" fill-rule="nonzero" /><path id="282" transform="matrix(1 0 0 -1 0 842)" d="M130.845 65.85107L223.5269 65.85107L223.5269 65.35547L130.845 65.35547z" stroke="none" fill="#000000" fill-rule="nonzero" /><path id="283" transform="matrix(1 0 0 -1 0 842)" d="M130.845 126.813L131.3406 126.813L131.3406 65.35547L130.845 65.35547z" stroke="none" fill="#000000" fill-rule="nonzero" /><path id="284" transform="matrix(1 0 0 -1 0 842)" d="M223.0313 126.813L223.5269 126.813L223.5269 65.35547L223.0313 65.35547z" stroke="none" fill="#000000" fill-rule="nonzero" /><path id="285" transform="matrix(1 0 0 -1 0 842)" d="M223.0313 126.813L396.9956 126.813L396.9956 126.3174L223.0313 126.3174z" stroke="none" fill="#000000" fill-rule="nonzero" /><path id="286" transform="matrix(1 0 0 -1 0 842)" d="M223.0313 106.4922L396.9956 106.4922L396.9956 105.9966L223.0313 105.9966z" stroke="none" fill="#000000" fill-rule="nonzero" /><path id="287" transform="matrix(1 0 0 -1 0 842)" d="M223.0313 126.813L223.5269 126.813L223.5269 105.9966L223.0313 105.9966z" stroke="none" fill="#000000" fill-rule="nonzero" /><path id="288" transform="matrix(1 0 0 -1 0 842)" d="M396.5 126.813L396.9956 126.813L396.9956 105.9966L396.5 105.9966z" stroke="none" fill="#000000" fill-rule="nonzero" /><path id="289" transform="matrix(1 0 0 -1 0 842)" d="M396.5 126.813L545.1875 126.813L545.1875 126.3174L396.5 126.3174z" stroke="none" fill="#000000" fill-rule="nonzero" /><path id="290" transform="matrix(1 0 0 -1 0 842)" d="M396.5 106.4922L545.1875 106.4922L545.1875 105.9966L396.5 105.9966z" stroke="none" fill="#000000" fill-rule="nonzero" /><path id="291" transform="matrix(1 0 0 -1 0 842)" d="M396.5 126.813L396.9956 126.813L396.9956 105.9966L396.5 105.9966z" stroke="none" fill="#000000" fill-rule="nonzero" /><path id="292" transform="matrix(1 0 0 -1 0 842)" d="M544.6919 126.813L545.1875 126.813L545.1875 105.9966L544.6919 105.9966z" stroke="none" fill="#000000" fill-rule="nonzero" /><path id="293" transform="matrix(1 0 0 -1 0 842)" d="M223.0313 106.4922L396.9956 106.4922L396.9956 105.9966L223.0313 105.9966z" stroke="none" fill="#000000" fill-rule="nonzero" /><path id="294" transform="matrix(1 0 0 -1 0 842)" d="M223.0313 86.17188L396.9956 86.17188L396.9956 85.67627L223.0313 85.67627z" stroke="none" fill="#000000" fill-rule="nonzero" /><path id="295" transform="matrix(1 0 0 -1 0 842)" d="M223.0313 106.4922L223.5269 106.4922L223.5269 85.67627L223.0313 85.67627z" stroke="none" fill="#000000" fill-rule="nonzero" /><path id="296" transform="matrix(1 0 0 -1 0 842)" d="M396.5 106.4922L396.9956 106.4922L396.9956 85.67627L396.5 85.67627z" stroke="none" fill="#000000" fill-rule="nonzero" /><path id="297" transform="matrix(1 0 0 -1 0 842)" d="M396.5 106.4922L545.1875 106.4922L545.1875 105.9966L396.5 105.9966z" stroke="none" fill="#000000" fill-rule="nonzero" /><path id="298" transform="matrix(1 0 0 -1 0 842)" d="M396.5 86.17188L545.1875 86.17188L545.1875 85.67627L396.5 85.67627z" stroke="none" fill="#000000" fill-rule="nonzero" /><path id="299" transform="matrix(1 0 0 -1 0 842)" d="M396.5 106.4922L396.9956 106.4922L396.9956 85.67627L396.5 85.67627z" stroke="none" fill="#000000" fill-rule="nonzero" /><path id="300" transform="matrix(1 0 0 -1 0 842)" d="M544.6919 106.4922L545.1875 106.4922L545.1875 85.67627L544.6919 85.67627z" stroke="none" fill="#000000" fill-rule="nonzero" /><path id="301" transform="matrix(1 0 0 -1 0 842)" d="M223.0313 86.17188L396.9956 86.17188L396.9956 85.67627L223.0313 85.67627z" stroke="none" fill="#000000" fill-rule="nonzero" /><path id="302" transform="matrix(1 0 0 -1 0 842)" d="M223.0313 65.85107L396.9956 65.85107L396.9956 65.35547L223.0313 65.35547z" stroke="none" fill="#000000" fill-rule="nonzero" /><path id="303" transform="matrix(1 0 0 -1 0 842)" d="M223.0313 86.17188L223.5269 86.17188L223.5269 65.35547L223.0313 65.35547z" stroke="none" fill="#000000" fill-rule="nonzero" /><path id="304" transform="matrix(1 0 0 -1 0 842)" d="M396.5 86.17188L396.9956 86.17188L396.9956 65.35547L396.5 65.35547z" stroke="none" fill="#000000" fill-rule="nonzero" /><path id="305" transform="matrix(1 0 0 -1 0 842)" d="M396.5 86.17188L545.1875 86.17188L545.1875 85.67627L396.5 85.67627z" stroke="none" fill="#000000" fill-rule="nonzero" /><path id="306" transform="matrix(1 0 0 -1 0 842)" d="M396.5 65.85107L545.1875 65.85107L545.1875 65.35547L396.5 65.35547z" stroke="none" fill="#000000" fill-rule="nonzero" /><path id="307" transform="matrix(1 0 0 -1 0 842)" d="M396.5 86.17188L396.9956 86.17188L396.9956 65.35547L396.5 65.35547z" stroke="none" fill="#000000" fill-rule="nonzero" /><path id="308" transform="matrix(1 0 0 -1 0 842)" d="M544.6919 86.17188L545.1875 86.17188L545.1875 65.35547L544.6919 65.35547z" stroke="none" fill="#000000" fill-rule="nonzero" /></g></g></g></svg>