<svg xmlns="http://www.w3.org/2000/svg" xmlns:xlink="http://www.w3.org/1999/xlink" id="body_27" preserveAspectRatio="xMinYMin meet" viewBox="0 0 793 1123"><defs><clipPath id="1"><path id="" clip-rule="evenodd" transform="matrix(1 0 0 1 0 0)" d="M0 842L0 0L0 0L595 0L595 0L595 842L595 842L0 842z" /></clipPath><clipPath id="2"><path id="" clip-rule="evenodd" transform="matrix(1 0 0 1 0 0)" d="M0 0L594.75 0L594.75 0L594.75 842.0669L594.75 842.0669L0 842.0669L0 842.0669L0 0z" /></clipPath></defs><g transform="matrix(1.333333 0 0 1.333333 0 0)"><g clip-path="url(#1)"><g clip-path="url(#2)"><path id="1" transform="matrix(1 0 0 -1 0 842)" d="M0 841.998L594.75 841.998L594.75 -0.06835938L0 -0.06835938z" stroke="none" fill="#FFFFFF" fill-rule="nonzero" /><path id="2" transform="matrix(1 0 0 -1 0 842)" d="M49.5625 709.1719L74.34375 709.1719L74.34375 683.3984L49.5625 683.3984z" stroke="none" fill="#9CC9F0" fill-rule="nonzero" /><path id="3" transform="matrix(1 0 0 -1 0 842)" d="M74.34375 709.1719L148.6875 709.1719L148.6875 683.3984L74.34375 683.3984z" stroke="none" fill="#9CC9F0" fill-rule="nonzero" /><path id="4" transform="matrix(1 0 0 -1 0 842)" d="M148.6875 709.1719L223.0313 709.1719L223.0313 683.3984L148.6875 683.3984z" stroke="none" fill="#9CC9F0" fill-rule="nonzero" /><path id="5" transform="matrix(1 0 0 -1 0 842)" d="M223.0313 709.1719L272.5938 709.1719L272.5938 683.3984L223.0313 683.3984z" stroke="none" fill="#9CC9F0" fill-rule="nonzero" /><path id="6" transform="matrix(1 0 0 -1 0 842)" d="M272.5938 709.1719L421.2813 709.1719L421.2813 683.3984L272.5938 683.3984z" stroke="none" fill="#9CC9F0" fill-rule="nonzero" /><path id="7" transform="matrix(1 0 0 -1 0 842)" d="M421.2813 709.1719L470.8438 709.1719L470.8438 683.3984L421.2813 683.3984z" stroke="none" fill="#9CC9F0" fill-rule="nonzero" /><path id="8" transform="matrix(1 0 0 -1 0 842)" d="M470.8438 709.1719L544.6919 709.1719L544.6919 683.3984L470.8438 683.3984z" stroke="none" fill="#9CC9F0" fill-rule="nonzero" /><path id="9" transform="matrix(1 0 0 -1 0 842)" d="M49.5625 709.1719L74.83938 709.1719L74.83938 708.6758L49.5625 708.6758z" stroke="none" fill="#000000" fill-rule="nonzero" /><path id="10" transform="matrix(1 0 0 -1 0 842)" d="M49.5625 683.3984L74.83938 683.3984L74.83938 682.9023L49.5625 682.9023z" stroke="none" fill="#000000" fill-rule="nonzero" /><path id="11" transform="matrix(1 0 0 -1 0 842)" d="M49.5625 709.1719L50.05813 709.1719L50.05813 682.9023L49.5625 682.9023z" stroke="none" fill="#000000" fill-rule="nonzero" /><path id="12" transform="matrix(1 0 0 -1 0 842)" d="M74.34375 709.1719L74.83938 709.1719L74.83938 682.9023L74.34375 682.9023z" stroke="none" fill="#000000" fill-rule="nonzero" /><path id="13" transform="matrix(1 0 0 -1 0 842)" d="M74.34375 709.1719L149.1831 709.1719L149.1831 708.6758L74.34375 708.6758z" stroke="none" fill="#000000" fill-rule="nonzero" /><path id="14" transform="matrix(1 0 0 -1 0 842)" d="M74.34375 683.3984L149.1831 683.3984L149.1831 682.9023L74.34375 682.9023z" stroke="none" fill="#000000" fill-rule="nonzero" /><path id="15" transform="matrix(1 0 0 -1 0 842)" d="M74.34375 709.1719L74.83938 709.1719L74.83938 682.9023L74.34375 682.9023z" stroke="none" fill="#000000" fill-rule="nonzero" /><path id="16" transform="matrix(1 0 0 -1 0 842)" d="M148.6875 709.1719L149.1831 709.1719L149.1831 682.9023L148.6875 682.9023z" stroke="none" fill="#000000" fill-rule="nonzero" /><path id="17" transform="matrix(1 0 0 -1 0 842)" d="M148.6875 709.1719L223.5269 709.1719L223.5269 708.6758L148.6875 708.6758z" stroke="none" fill="#000000" fill-rule="nonzero" /><path id="18" transform="matrix(1 0 0 -1 0 842)" d="M148.6875 683.3984L223.5269 683.3984L223.5269 682.9023L148.6875 682.9023z" stroke="none" fill="#000000" fill-rule="nonzero" /><path id="19" transform="matrix(1 0 0 -1 0 842)" d="M148.6875 709.1719L149.1831 709.1719L149.1831 682.9023L148.6875 682.9023z" stroke="none" fill="#000000" fill-rule="nonzero" /><path id="20" transform="matrix(1 0 0 -1 0 842)" d="M223.0313 709.1719L223.5269 709.1719L223.5269 682.9023L223.0313 682.9023z" stroke="none" fill="#000000" fill-rule="nonzero" /><path id="21" transform="matrix(1 0 0 -1 0 842)" d="M223.0313 709.1719L273.0894 709.1719L273.0894 708.6758L223.0313 708.6758z" stroke="none" fill="#000000" fill-rule="nonzero" /><path id="22" transform="matrix(1 0 0 -1 0 842)" d="M223.0313 683.3984L273.0894 683.3984L273.0894 682.9023L223.0313 682.9023z" stroke="none" fill="#000000" fill-rule="nonzero" /><path id="23" transform="matrix(1 0 0 -1 0 842)" d="M223.0313 709.1719L223.5269 709.1719L223.5269 682.9023L223.0313 682.9023z" stroke="none" fill="#000000" fill-rule="nonzero" /><path id="24" transform="matrix(1 0 0 -1 0 842)" d="M272.5938 709.1719L273.0894 709.1719L273.0894 682.9023L272.5938 682.9023z" stroke="none" fill="#000000" fill-rule="nonzero" /><path id="25" transform="matrix(1 0 0 -1 0 842)" d="M272.5938 709.1719L421.7769 709.1719L421.7769 708.6758L272.5938 708.6758z" stroke="none" fill="#000000" fill-rule="nonzero" /><path id="26" transform="matrix(1 0 0 -1 0 842)" d="M272.5938 683.3984L421.7769 683.3984L421.7769 682.9023L272.5938 682.9023z" stroke="none" fill="#000000" fill-rule="nonzero" /><path id="27" transform="matrix(1 0 0 -1 0 842)" d="M272.5938 709.1719L273.0894 709.1719L273.0894 682.9023L272.5938 682.9023z" stroke="none" fill="#000000" fill-rule="nonzero" /><path id="28" transform="matrix(1 0 0 -1 0 842)" d="M421.2813 709.1719L421.7769 709.1719L421.7769 682.9023L421.2813 682.9023z" stroke="none" fill="#000000" fill-rule="nonzero" /><path id="29" transform="matrix(1 0 0 -1 0 842)" d="M421.2813 709.1719L471.3394 709.1719L471.3394 708.6758L421.2813 708.6758z" stroke="none" fill="#000000" fill-rule="nonzero" /><path id="30" transform="matrix(1 0 0 -1 0 842)" d="M421.2813 683.3984L471.3394 683.3984L471.3394 682.9023L421.2813 682.9023z" stroke="none" fill="#000000" fill-rule="nonzero" /><path id="31" transform="matrix(1 0 0 -1 0 842)" d="M421.2813 709.1719L421.7769 709.1719L421.7769 682.9023L421.2813 682.9023z" stroke="none" fill="#000000" fill-rule="nonzero" /><path id="32" transform="matrix(1 0 0 -1 0 842)" d="M470.8438 709.1719L471.3394 709.1719L471.3394 682.9023L470.8438 682.9023z" stroke="none" fill="#000000" fill-rule="nonzero" /><path id="33" transform="matrix(1 0 0 -1 0 842)" d="M470.8438 709.1719L545.1875 709.1719L545.1875 708.6758L470.8438 708.6758z" stroke="none" fill="#000000" fill-rule="nonzero" /><path id="34" transform="matrix(1 0 0 -1 0 842)" d="M470.8438 683.3984L545.1875 683.3984L545.1875 682.9023L470.8438 682.9023z" stroke="none" fill="#000000" fill-rule="nonzero" /><path id="35" transform="matrix(1 0 0 -1 0 842)" d="M470.8438 709.1719L471.3394 709.1719L471.3394 682.9023L470.8438 682.9023z" stroke="none" fill="#000000" fill-rule="nonzero" /><path id="36" transform="matrix(1 0 0 -1 0 842)" d="M544.6919 709.1719L545.1875 709.1719L545.1875 682.9023L544.6919 682.9023z" stroke="none" fill="#000000" fill-rule="nonzero" /><path id="37" transform="matrix(1 0 0 -1 0 842)" d="M49.5625 683.3984L74.83938 683.3984L74.83938 682.9023L49.5625 682.9023z" stroke="none" fill="#000000" fill-rule="nonzero" /><path id="38" transform="matrix(1 0 0 -1 0 842)" d="M49.5625 635.8184L74.83938 635.8184L74.83938 635.3223L49.5625 635.3223z" stroke="none" fill="#000000" fill-rule="nonzero" /><path id="39" transform="matrix(1 0 0 -1 0 842)" d="M49.5625 683.3984L50.05813 683.3984L50.05813 635.3223L49.5625 635.3223z" stroke="none" fill="#000000" fill-rule="nonzero" /><path id="40" transform="matrix(1 0 0 -1 0 842)" d="M74.34375 683.3984L74.83938 683.3984L74.83938 635.3223L74.34375 635.3223z" stroke="none" fill="#000000" fill-rule="nonzero" /><path id="41" transform="matrix(1 0 0 -1 0 842)" d="M74.34375 683.3984L149.1831 683.3984L149.1831 682.9023L74.34375 682.9023z" stroke="none" fill="#000000" fill-rule="nonzero" /><path id="42" transform="matrix(1 0 0 -1 0 842)" d="M74.34375 635.8184L149.1831 635.8184L149.1831 635.3223L74.34375 635.3223z" stroke="none" fill="#000000" fill-rule="nonzero" /><path id="43" transform="matrix(1 0 0 -1 0 842)" d="M74.34375 683.3984L74.83938 683.3984L74.83938 635.3223L74.34375 635.3223z" stroke="none" fill="#000000" fill-rule="nonzero" /><path id="44" transform="matrix(1 0 0 -1 0 842)" d="M148.6875 683.3984L149.1831 683.3984L149.1831 635.3223L148.6875 635.3223z" stroke="none" fill="#000000" fill-rule="nonzero" /><path id="45" transform="matrix(1 0 0 -1 0 842)" d="M148.6875 683.3984L223.5269 683.3984L223.5269 682.9023L148.6875 682.9023z" stroke="none" fill="#000000" fill-rule="nonzero" /><path id="46" transform="matrix(1 0 0 -1 0 842)" d="M148.6875 635.8184L223.5269 635.8184L223.5269 635.3223L148.6875 635.3223z" stroke="none" fill="#000000" fill-rule="nonzero" /><path id="47" transform="matrix(1 0 0 -1 0 842)" d="M148.6875 683.3984L149.1831 683.3984L149.1831 635.3223L148.6875 635.3223z" stroke="none" fill="#000000" fill-rule="nonzero" /><path id="48" transform="matrix(1 0 0 -1 0 842)" d="M223.0313 683.3984L223.5269 683.3984L223.5269 635.3223L223.0313 635.3223z" stroke="none" fill="#000000" fill-rule="nonzero" /><path id="49" transform="matrix(1 0 0 -1 0 842)" d="M223.0313 683.3984L273.0894 683.3984L273.0894 682.9023L223.0313 682.9023z" stroke="none" fill="#000000" fill-rule="nonzero" /><path id="50" transform="matrix(1 0 0 -1 0 842)" d="M223.0313 635.8184L273.0894 635.8184L273.0894 635.3223L223.0313 635.3223z" stroke="none" fill="#000000" fill-rule="nonzero" /><path id="51" transform="matrix(1 0 0 -1 0 842)" d="M223.0313 683.3984L223.5269 683.3984L223.5269 635.3223L223.0313 635.3223z" stroke="none" fill="#000000" fill-rule="nonzero" /><path id="52" transform="matrix(1 0 0 -1 0 842)" d="M272.5938 683.3984L273.0894 683.3984L273.0894 635.3223L272.5938 635.3223z" stroke="none" fill="#000000" fill-rule="nonzero" /><path id="53" transform="matrix(1 0 0 -1 0 842)" d="M272.5938 683.3984L421.7769 683.3984L421.7769 682.9023L272.5938 682.9023z" stroke="none" fill="#000000" fill-rule="nonzero" /><path id="54" transform="matrix(1 0 0 -1 0 842)" d="M272.5938 635.8184L421.7769 635.8184L421.7769 635.3223L272.5938 635.3223z" stroke="none" fill="#000000" fill-rule="nonzero" /><path id="55" transform="matrix(1 0 0 -1 0 842)" d="M272.5938 683.3984L273.0894 683.3984L273.0894 635.3223L272.5938 635.3223z" stroke="none" fill="#000000" fill-rule="nonzero" /><path id="56" transform="matrix(1 0 0 -1 0 842)" d="M421.2813 683.3984L421.7769 683.3984L421.7769 635.3223L421.2813 635.3223z" stroke="none" fill="#000000" fill-rule="nonzero" /><path id="57" transform="matrix(1 0 0 -1 0 842)" d="M421.2813 683.3984L471.3394 683.3984L471.3394 682.9023L421.2813 682.9023z" stroke="none" fill="#000000" fill-rule="nonzero" /><path id="58" transform="matrix(1 0 0 -1 0 842)" d="M421.2813 635.8184L471.3394 635.8184L471.3394 635.3223L421.2813 635.3223z" stroke="none" fill="#000000" fill-rule="nonzero" /><path id="59" transform="matrix(1 0 0 -1 0 842)" d="M421.2813 683.3984L421.7769 683.3984L421.7769 635.3223L421.2813 635.3223z" stroke="none" fill="#000000" fill-rule="nonzero" /><path id="60" transform="matrix(1 0 0 -1 0 842)" d="M470.8438 683.3984L471.3394 683.3984L471.3394 635.3223L470.8438 635.3223z" stroke="none" fill="#000000" fill-rule="nonzero" /><path id="61" transform="matrix(1 0 0 -1 0 842)" d="M470.8438 683.3984L545.1875 683.3984L545.1875 682.9023L470.8438 682.9023z" stroke="none" fill="#000000" fill-rule="nonzero" /><path id="62" transform="matrix(1 0 0 -1 0 842)" d="M470.8438 635.8184L545.1875 635.8184L545.1875 635.3223L470.8438 635.3223z" stroke="none" fill="#000000" fill-rule="nonzero" /><path id="63" transform="matrix(1 0 0 -1 0 842)" d="M470.8438 683.3984L471.3394 683.3984L471.3394 635.3223L470.8438 635.3223z" stroke="none" fill="#000000" fill-rule="nonzero" /><path id="64" transform="matrix(1 0 0 -1 0 842)" d="M544.6919 683.3984L545.1875 683.3984L545.1875 635.3223L544.6919 635.3223z" stroke="none" fill="#000000" fill-rule="nonzero" /><path id="65" transform="matrix(1 0 0 -1 0 842)" d="M49.5625 635.8184L74.83938 635.8184L74.83938 635.3223L49.5625 635.3223z" stroke="none" fill="#000000" fill-rule="nonzero" /><path id="66" transform="matrix(1 0 0 -1 0 842)" d="M49.5625 610.0469L74.83938 610.0469L74.83938 609.5508L49.5625 609.5508z" stroke="none" fill="#000000" fill-rule="nonzero" /><path id="67" transform="matrix(1 0 0 -1 0 842)" d="M49.5625 635.8184L50.05813 635.8184L50.05813 609.5508L49.5625 609.5508z" stroke="none" fill="#000000" fill-rule="nonzero" /><path id="68" transform="matrix(1 0 0 -1 0 842)" d="M74.34375 635.8184L74.83938 635.8184L74.83938 609.5508L74.34375 609.5508z" stroke="none" fill="#000000" fill-rule="nonzero" /><path id="69" transform="matrix(1 0 0 -1 0 842)" d="M74.34375 635.8184L149.1831 635.8184L149.1831 635.3223L74.34375 635.3223z" stroke="none" fill="#000000" fill-rule="nonzero" /><path id="70" transform="matrix(1 0 0 -1 0 842)" d="M74.34375 610.0469L149.1831 610.0469L149.1831 609.5508L74.34375 609.5508z" stroke="none" fill="#000000" fill-rule="nonzero" /><path id="71" transform="matrix(1 0 0 -1 0 842)" d="M74.34375 635.8184L74.83938 635.8184L74.83938 609.5508L74.34375 609.5508z" stroke="none" fill="#000000" fill-rule="nonzero" /><path id="72" transform="matrix(1 0 0 -1 0 842)" d="M148.6875 635.8184L149.1831 635.8184L149.1831 609.5508L148.6875 609.5508z" stroke="none" fill="#000000" fill-rule="nonzero" /><path id="73" transform="matrix(1 0 0 -1 0 842)" d="M148.6875 635.8184L223.5269 635.8184L223.5269 635.3223L148.6875 635.3223z" stroke="none" fill="#000000" fill-rule="nonzero" /><path id="74" transform="matrix(1 0 0 -1 0 842)" d="M148.6875 610.0469L223.5269 610.0469L223.5269 609.5508L148.6875 609.5508z" stroke="none" fill="#000000" fill-rule="nonzero" /><path id="75" transform="matrix(1 0 0 -1 0 842)" d="M148.6875 635.8184L149.1831 635.8184L149.1831 609.5508L148.6875 609.5508z" stroke="none" fill="#000000" fill-rule="nonzero" /><path id="76" transform="matrix(1 0 0 -1 0 842)" d="M223.0313 635.8184L223.5269 635.8184L223.5269 609.5508L223.0313 609.5508z" stroke="none" fill="#000000" fill-rule="nonzero" /><path id="77" transform="matrix(1 0 0 -1 0 842)" d="M223.0313 635.8184L273.0894 635.8184L273.0894 635.3223L223.0313 635.3223z" stroke="none" fill="#000000" fill-rule="nonzero" /><path id="78" transform="matrix(1 0 0 -1 0 842)" d="M223.0313 610.0469L273.0894 610.0469L273.0894 609.5508L223.0313 609.5508z" stroke="none" fill="#000000" fill-rule="nonzero" /><path id="79" transform="matrix(1 0 0 -1 0 842)" d="M223.0313 635.8184L223.5269 635.8184L223.5269 609.5508L223.0313 609.5508z" stroke="none" fill="#000000" fill-rule="nonzero" /><path id="80" transform="matrix(1 0 0 -1 0 842)" d="M272.5938 635.8184L273.0894 635.8184L273.0894 609.5508L272.5938 609.5508z" stroke="none" fill="#000000" fill-rule="nonzero" /><path id="81" transform="matrix(1 0 0 -1 0 842)" d="M272.5938 635.8184L421.7769 635.8184L421.7769 635.3223L272.5938 635.3223z" stroke="none" fill="#000000" fill-rule="nonzero" /><path id="82" transform="matrix(1 0 0 -1 0 842)" d="M272.5938 610.0469L421.7769 610.0469L421.7769 609.5508L272.5938 609.5508z" stroke="none" fill="#000000" fill-rule="nonzero" /><path id="83" transform="matrix(1 0 0 -1 0 842)" d="M272.5938 635.8184L273.0894 635.8184L273.0894 609.5508L272.5938 609.5508z" stroke="none" fill="#000000" fill-rule="nonzero" /><path id="84" transform="matrix(1 0 0 -1 0 842)" d="M421.2813 635.8184L421.7769 635.8184L421.7769 609.5508L421.2813 609.5508z" stroke="none" fill="#000000" fill-rule="nonzero" /><path id="85" transform="matrix(1 0 0 -1 0 842)" d="M421.2813 635.8184L471.3394 635.8184L471.3394 635.3223L421.2813 635.3223z" stroke="none" fill="#000000" fill-rule="nonzero" /><path id="86" transform="matrix(1 0 0 -1 0 842)" d="M421.2813 610.0469L471.3394 610.0469L471.3394 609.5508L421.2813 609.5508z" stroke="none" fill="#000000" fill-rule="nonzero" /><path id="87" transform="matrix(1 0 0 -1 0 842)" d="M421.2813 635.8184L421.7769 635.8184L421.7769 609.5508L421.2813 609.5508z" stroke="none" fill="#000000" fill-rule="nonzero" /><path id="88" transform="matrix(1 0 0 -1 0 842)" d="M470.8438 635.8184L471.3394 635.8184L471.3394 609.5508L470.8438 609.5508z" stroke="none" fill="#000000" fill-rule="nonzero" /><path id="89" transform="matrix(1 0 0 -1 0 842)" d="M470.8438 635.8184L545.1875 635.8184L545.1875 635.3223L470.8438 635.3223z" stroke="none" fill="#000000" fill-rule="nonzero" /><path id="90" transform="matrix(1 0 0 -1 0 842)" d="M470.8438 610.0469L545.1875 610.0469L545.1875 609.5508L470.8438 609.5508z" stroke="none" fill="#000000" fill-rule="nonzero" /><path id="91" transform="matrix(1 0 0 -1 0 842)" d="M470.8438 635.8184L471.3394 635.8184L471.3394 609.5508L470.8438 609.5508z" stroke="none" fill="#000000" fill-rule="nonzero" /><path id="92" transform="matrix(1 0 0 -1 0 842)" d="M544.6919 635.8184L545.1875 635.8184L545.1875 609.5508L544.6919 609.5508z" stroke="none" fill="#000000" fill-rule="nonzero" /><path id="93" transform="matrix(1 0 0 -1 0 842)" d="M49.5625 610.0469L74.83938 610.0469L74.83938 609.5508L49.5625 609.5508z" stroke="none" fill="#000000" fill-rule="nonzero" /><path id="94" transform="matrix(1 0 0 -1 0 842)" d="M49.5625 541.6504L74.83938 541.6504L74.83938 541.1543L49.5625 541.1543z" stroke="none" fill="#000000" fill-rule="nonzero" /><path id="95" transform="matrix(1 0 0 -1 0 842)" d="M49.5625 610.0469L50.05813 610.0469L50.05813 541.1543L49.5625 541.1543z" stroke="none" fill="#000000" fill-rule="nonzero" /><path id="96" transform="matrix(1 0 0 -1 0 842)" d="M74.34375 610.0469L74.83938 610.0469L74.83938 541.1543L74.34375 541.1543z" stroke="none" fill="#000000" fill-rule="nonzero" /><path id="97" transform="matrix(1 0 0 -1 0 842)" d="M74.34375 610.0469L149.1831 610.0469L149.1831 609.5508L74.34375 609.5508z" stroke="none" fill="#000000" fill-rule="nonzero" /><path id="98" transform="matrix(1 0 0 -1 0 842)" d="M74.34375 541.6504L149.1831 541.6504L149.1831 541.1543L74.34375 541.1543z" stroke="none" fill="#000000" fill-rule="nonzero" /><path id="99" transform="matrix(1 0 0 -1 0 842)" d="M74.34375 610.0469L74.83938 610.0469L74.83938 541.1543L74.34375 541.1543z" stroke="none" fill="#000000" fill-rule="nonzero" /><path id="100" transform="matrix(1 0 0 -1 0 842)" d="M148.6875 610.0469L149.1831 610.0469L149.1831 541.1543L148.6875 541.1543z" stroke="none" fill="#000000" fill-rule="nonzero" /><path id="101" transform="matrix(1 0 0 -1 0 842)" d="M148.6875 610.0469L223.5269 610.0469L223.5269 609.5508L148.6875 609.5508z" stroke="none" fill="#000000" fill-rule="nonzero" /><path id="102" transform="matrix(1 0 0 -1 0 842)" d="M148.6875 575.8477L223.5269 575.8477L223.5269 575.3516L148.6875 575.3516z" stroke="none" fill="#000000" fill-rule="nonzero" /><path id="103" transform="matrix(1 0 0 -1 0 842)" d="M148.6875 610.0469L149.1831 610.0469L149.1831 575.3516L148.6875 575.3516z" stroke="none" fill="#000000" fill-rule="nonzero" /><path id="104" transform="matrix(1 0 0 -1 0 842)" d="M223.0313 610.0469L223.5269 610.0469L223.5269 575.3516L223.0313 575.3516z" stroke="none" fill="#000000" fill-rule="nonzero" /><path id="105" transform="matrix(1 0 0 -1 0 842)" d="M223.0313 610.0469L273.0894 610.0469L273.0894 609.5508L223.0313 609.5508z" stroke="none" fill="#000000" fill-rule="nonzero" /><path id="106" transform="matrix(1 0 0 -1 0 842)" d="M223.0313 575.8477L273.0894 575.8477L273.0894 575.3516L223.0313 575.3516z" stroke="none" fill="#000000" fill-rule="nonzero" /><path id="107" transform="matrix(1 0 0 -1 0 842)" d="M223.0313 610.0469L223.5269 610.0469L223.5269 575.3516L223.0313 575.3516z" stroke="none" fill="#000000" fill-rule="nonzero" /><path id="108" transform="matrix(1 0 0 -1 0 842)" d="M272.5938 610.0469L273.0894 610.0469L273.0894 575.3516L272.5938 575.3516z" stroke="none" fill="#000000" fill-rule="nonzero" /><path id="109" transform="matrix(1 0 0 -1 0 842)" d="M272.5938 610.0469L421.7769 610.0469L421.7769 609.5508L272.5938 609.5508z" stroke="none" fill="#000000" fill-rule="nonzero" /><path id="110" transform="matrix(1 0 0 -1 0 842)" d="M272.5938 575.8477L421.7769 575.8477L421.7769 575.3516L272.5938 575.3516z" stroke="none" fill="#000000" fill-rule="nonzero" /><path id="111" transform="matrix(1 0 0 -1 0 842)" d="M272.5938 610.0469L273.0894 610.0469L273.0894 575.3516L272.5938 575.3516z" stroke="none" fill="#000000" fill-rule="nonzero" /><path id="112" transform="matrix(1 0 0 -1 0 842)" d="M421.2813 610.0469L421.7769 610.0469L421.7769 575.3516L421.2813 575.3516z" stroke="none" fill="#000000" fill-rule="nonzero" /><path id="113" transform="matrix(1 0 0 -1 0 842)" d="M421.2813 610.0469L471.3394 610.0469L471.3394 609.5508L421.2813 609.5508z" stroke="none" fill="#000000" fill-rule="nonzero" /><path id="114" transform="matrix(1 0 0 -1 0 842)" d="M421.2813 575.8477L471.3394 575.8477L471.3394 575.3516L421.2813 575.3516z" stroke="none" fill="#000000" fill-rule="nonzero" /><path id="115" transform="matrix(1 0 0 -1 0 842)" d="M421.2813 610.0469L421.7769 610.0469L421.7769 575.3516L421.2813 575.3516z" stroke="none" fill="#000000" fill-rule="nonzero" /><path id="116" transform="matrix(1 0 0 -1 0 842)" d="M470.8438 610.0469L471.3394 610.0469L471.3394 575.3516L470.8438 575.3516z" stroke="none" fill="#000000" fill-rule="nonzero" /><path id="117" transform="matrix(1 0 0 -1 0 842)" d="M470.8438 610.0469L545.1875 610.0469L545.1875 609.5508L470.8438 609.5508z" stroke="none" fill="#000000" fill-rule="nonzero" /><path id="118" transform="matrix(1 0 0 -1 0 842)" d="M470.8438 541.6504L545.1875 541.6504L545.1875 541.1543L470.8438 541.1543z" stroke="none" fill="#000000" fill-rule="nonzero" /><path id="119" transform="matrix(1 0 0 -1 0 842)" d="M470.8438 610.0469L471.3394 610.0469L471.3394 541.1543L470.8438 541.1543z" stroke="none" fill="#000000" fill-rule="nonzero" /><path id="120" transform="matrix(1 0 0 -1 0 842)" d="M544.6919 610.0469L545.1875 610.0469L545.1875 541.1543L544.6919 541.1543z" stroke="none" fill="#000000" fill-rule="nonzero" /><path id="121" transform="matrix(1 0 0 -1 0 842)" d="M148.6875 575.8477L223.5269 575.8477L223.5269 575.3516L148.6875 575.3516z" stroke="none" fill="#000000" fill-rule="nonzero" /><path id="122" transform="matrix(1 0 0 -1 0 842)" d="M148.6875 541.6504L223.5269 541.6504L223.5269 541.1543L148.6875 541.1543z" stroke="none" fill="#000000" fill-rule="nonzero" /><path id="123" transform="matrix(1 0 0 -1 0 842)" d="M148.6875 575.8477L149.1831 575.8477L149.1831 541.1543L148.6875 541.1543z" stroke="none" fill="#000000" fill-rule="nonzero" /><path id="124" transform="matrix(1 0 0 -1 0 842)" d="M223.0313 575.8477L223.5269 575.8477L223.5269 541.1543L223.0313 541.1543z" stroke="none" fill="#000000" fill-rule="nonzero" /><path id="125" transform="matrix(1 0 0 -1 0 842)" d="M223.0313 575.8477L273.0894 575.8477L273.0894 575.3516L223.0313 575.3516z" stroke="none" fill="#000000" fill-rule="nonzero" /><path id="126" transform="matrix(1 0 0 -1 0 842)" d="M223.0313 541.6504L273.0894 541.6504L273.0894 541.1543L223.0313 541.1543z" stroke="none" fill="#000000" fill-rule="nonzero" /><path id="127" transform="matrix(1 0 0 -1 0 842)" d="M223.0313 575.8477L223.5269 575.8477L223.5269 541.1543L223.0313 541.1543z" stroke="none" fill="#000000" fill-rule="nonzero" /><path id="128" transform="matrix(1 0 0 -1 0 842)" d="M272.5938 575.8477L273.0894 575.8477L273.0894 541.1543L272.5938 541.1543z" stroke="none" fill="#000000" fill-rule="nonzero" /><path id="129" transform="matrix(1 0 0 -1 0 842)" d="M272.5938 575.8477L421.7769 575.8477L421.7769 575.3516L272.5938 575.3516z" stroke="none" fill="#000000" fill-rule="nonzero" /><path id="130" transform="matrix(1 0 0 -1 0 842)" d="M272.5938 541.6504L421.7769 541.6504L421.7769 541.1543L272.5938 541.1543z" stroke="none" fill="#000000" fill-rule="nonzero" /><path id="131" transform="matrix(1 0 0 -1 0 842)" d="M272.5938 575.8477L273.0894 575.8477L273.0894 541.1543L272.5938 541.1543z" stroke="none" fill="#000000" fill-rule="nonzero" /><path id="132" transform="matrix(1 0 0 -1 0 842)" d="M421.2813 575.8477L421.7769 575.8477L421.7769 541.1543L421.2813 541.1543z" stroke="none" fill="#000000" fill-rule="nonzero" /><path id="133" transform="matrix(1 0 0 -1 0 842)" d="M421.2813 575.8477L471.3394 575.8477L471.3394 575.3516L421.2813 575.3516z" stroke="none" fill="#000000" fill-rule="nonzero" /><path id="134" transform="matrix(1 0 0 -1 0 842)" d="M421.2813 541.6504L471.3394 541.6504L471.3394 541.1543L421.2813 541.1543z" stroke="none" fill="#000000" fill-rule="nonzero" /><path id="135" transform="matrix(1 0 0 -1 0 842)" d="M421.2813 575.8477L421.7769 575.8477L421.7769 541.1543L421.2813 541.1543z" stroke="none" fill="#000000" fill-rule="nonzero" /><path id="136" transform="matrix(1 0 0 -1 0 842)" d="M470.8438 575.8477L471.3394 575.8477L471.3394 541.1543L470.8438 541.1543z" stroke="none" fill="#000000" fill-rule="nonzero" /><path id="137" transform="matrix(1 0 0 -1 0 842)" d="M49.5625 541.6504L74.83938 541.6504L74.83938 541.1543L49.5625 541.1543z" stroke="none" fill="#000000" fill-rule="nonzero" /><path id="138" transform="matrix(1 0 0 -1 0 842)" d="M49.5625 494.0703L74.83938 494.0703L74.83938 493.5742L49.5625 493.5742z" stroke="none" fill="#000000" fill-rule="nonzero" /><path id="139" transform="matrix(1 0 0 -1 0 842)" d="M49.5625 541.6504L50.05813 541.6504L50.05813 493.5742L49.5625 493.5742z" stroke="none" fill="#000000" fill-rule="nonzero" /><path id="140" transform="matrix(1 0 0 -1 0 842)" d="M74.34375 541.6504L74.83938 541.6504L74.83938 493.5742L74.34375 493.5742z" stroke="none" fill="#000000" fill-rule="nonzero" /><path id="141" transform="matrix(1 0 0 -1 0 842)" d="M74.34375 541.6504L149.1831 541.6504L149.1831 541.1543L74.34375 541.1543z" stroke="none" fill="#000000" fill-rule="nonzero" /><path id="142" transform="matrix(1 0 0 -1 0 842)" d="M74.34375 494.0703L149.1831 494.0703L149.1831 493.5742L74.34375 493.5742z" stroke="none" fill="#000000" fill-rule="nonzero" /><path id="143" transform="matrix(1 0 0 -1 0 842)" d="M74.34375 541.6504L74.83938 541.6504L74.83938 493.5742L74.34375 493.5742z" stroke="none" fill="#000000" fill-rule="nonzero" /><path id="144" transform="matrix(1 0 0 -1 0 842)" d="M148.6875 541.6504L149.1831 541.6504L149.1831 493.5742L148.6875 493.5742z" stroke="none" fill="#000000" fill-rule="nonzero" /><path id="145" transform="matrix(1 0 0 -1 0 842)" d="M148.6875 541.6504L223.5269 541.6504L223.5269 541.1543L148.6875 541.1543z" stroke="none" fill="#000000" fill-rule="nonzero" /><path id="146" transform="matrix(1 0 0 -1 0 842)" d="M148.6875 494.0703L223.5269 494.0703L223.5269 493.5742L148.6875 493.5742z" stroke="none" fill="#000000" fill-rule="nonzero" /><path id="147" transform="matrix(1 0 0 -1 0 842)" d="M148.6875 541.6504L149.1831 541.6504L149.1831 493.5742L148.6875 493.5742z" stroke="none" fill="#000000" fill-rule="nonzero" /><path id="148" transform="matrix(1 0 0 -1 0 842)" d="M223.0313 541.6504L223.5269 541.6504L223.5269 493.5742L223.0313 493.5742z" stroke="none" fill="#000000" fill-rule="nonzero" /><path id="149" transform="matrix(1 0 0 -1 0 842)" d="M223.0313 541.6504L273.0894 541.6504L273.0894 541.1543L223.0313 541.1543z" stroke="none" fill="#000000" fill-rule="nonzero" /><path id="150" transform="matrix(1 0 0 -1 0 842)" d="M223.0313 494.0703L273.0894 494.0703L273.0894 493.5742L223.0313 493.5742z" stroke="none" fill="#000000" fill-rule="nonzero" /><path id="151" transform="matrix(1 0 0 -1 0 842)" d="M223.0313 541.6504L223.5269 541.6504L223.5269 493.5742L223.0313 493.5742z" stroke="none" fill="#000000" fill-rule="nonzero" /><path id="152" transform="matrix(1 0 0 -1 0 842)" d="M272.5938 541.6504L273.0894 541.6504L273.0894 493.5742L272.5938 493.5742z" stroke="none" fill="#000000" fill-rule="nonzero" /><path id="153" transform="matrix(1 0 0 -1 0 842)" d="M272.5938 541.6504L421.7769 541.6504L421.7769 541.1543L272.5938 541.1543z" stroke="none" fill="#000000" fill-rule="nonzero" /><path id="154" transform="matrix(1 0 0 -1 0 842)" d="M272.5938 494.0703L421.7769 494.0703L421.7769 493.5742L272.5938 493.5742z" stroke="none" fill="#000000" fill-rule="nonzero" /><path id="155" transform="matrix(1 0 0 -1 0 842)" d="M272.5938 541.6504L273.0894 541.6504L273.0894 493.5742L272.5938 493.5742z" stroke="none" fill="#000000" fill-rule="nonzero" /><path id="156" transform="matrix(1 0 0 -1 0 842)" d="M421.2813 541.6504L421.7769 541.6504L421.7769 493.5742L421.2813 493.5742z" stroke="none" fill="#000000" fill-rule="nonzero" /><path id="157" transform="matrix(1 0 0 -1 0 842)" d="M421.2813 541.6504L471.3394 541.6504L471.3394 541.1543L421.2813 541.1543z" stroke="none" fill="#000000" fill-rule="nonzero" /><path id="158" transform="matrix(1 0 0 -1 0 842)" d="M421.2813 494.0703L471.3394 494.0703L471.3394 493.5742L421.2813 493.5742z" stroke="none" fill="#000000" fill-rule="nonzero" /><path id="159" transform="matrix(1 0 0 -1 0 842)" d="M421.2813 541.6504L421.7769 541.6504L421.7769 493.5742L421.2813 493.5742z" stroke="none" fill="#000000" fill-rule="nonzero" /><path id="160" transform="matrix(1 0 0 -1 0 842)" d="M470.8438 541.6504L471.3394 541.6504L471.3394 493.5742L470.8438 493.5742z" stroke="none" fill="#000000" fill-rule="nonzero" /><path id="161" transform="matrix(1 0 0 -1 0 842)" d="M470.8438 541.6504L545.1875 541.6504L545.1875 541.1543L470.8438 541.1543z" stroke="none" fill="#000000" fill-rule="nonzero" /><path id="162" transform="matrix(1 0 0 -1 0 842)" d="M470.8438 494.0703L545.1875 494.0703L545.1875 493.5742L470.8438 493.5742z" stroke="none" fill="#000000" fill-rule="nonzero" /><path id="163" transform="matrix(1 0 0 -1 0 842)" d="M470.8438 541.6504L471.3394 541.6504L471.3394 493.5742L470.8438 493.5742z" stroke="none" fill="#000000" fill-rule="nonzero" /><path id="164" transform="matrix(1 0 0 -1 0 842)" d="M544.6919 541.6504L545.1875 541.6504L545.1875 493.5742L544.6919 493.5742z" stroke="none" fill="#000000" fill-rule="nonzero" /><path id="165" transform="matrix(1 0 0 -1 0 842)" d="M49.5625 494.0703L74.83938 494.0703L74.83938 493.5742L49.5625 493.5742z" stroke="none" fill="#000000" fill-rule="nonzero" /><path id="166" transform="matrix(1 0 0 -1 0 842)" d="M49.5625 419.7266L74.83938 419.7266L74.83938 419.2305L49.5625 419.2305z" stroke="none" fill="#000000" fill-rule="nonzero" /><path id="167" transform="matrix(1 0 0 -1 0 842)" d="M49.5625 494.0703L50.05813 494.0703L50.05813 419.2305L49.5625 419.2305z" stroke="none" fill="#000000" fill-rule="nonzero" /><path id="168" transform="matrix(1 0 0 -1 0 842)" d="M74.34375 494.0703L74.83938 494.0703L74.83938 419.2305L74.34375 419.2305z" stroke="none" fill="#000000" fill-rule="nonzero" /><path id="169" transform="matrix(1 0 0 -1 0 842)" d="M74.34375 494.0703L149.1831 494.0703L149.1831 493.5742L74.34375 493.5742z" stroke="none" fill="#000000" fill-rule="nonzero" /><path id="170" transform="matrix(1 0 0 -1 0 842)" d="M74.34375 419.7266L149.1831 419.7266L149.1831 419.2305L74.34375 419.2305z" stroke="none" fill="#000000" fill-rule="nonzero" /><path id="171" transform="matrix(1 0 0 -1 0 842)" d="M74.34375 494.0703L74.83938 494.0703L74.83938 419.2305L74.34375 419.2305z" stroke="none" fill="#000000" fill-rule="nonzero" /><path id="172" transform="matrix(1 0 0 -1 0 842)" d="M148.6875 494.0703L149.1831 494.0703L149.1831 419.2305L148.6875 419.2305z" stroke="none" fill="#000000" fill-rule="nonzero" /><path id="173" transform="matrix(1 0 0 -1 0 842)" d="M148.6875 494.0703L223.5269 494.0703L223.5269 493.5742L148.6875 493.5742z" stroke="none" fill="#000000" fill-rule="nonzero" /><path id="174" transform="matrix(1 0 0 -1 0 842)" d="M148.6875 419.7266L223.5269 419.7266L223.5269 419.2305L148.6875 419.2305z" stroke="none" fill="#000000" fill-rule="nonzero" /><path id="175" transform="matrix(1 0 0 -1 0 842)" d="M148.6875 494.0703L149.1831 494.0703L149.1831 419.2305L148.6875 419.2305z" stroke="none" fill="#000000" fill-rule="nonzero" /><path id="176" transform="matrix(1 0 0 -1 0 842)" d="M223.0313 494.0703L223.5269 494.0703L223.5269 419.2305L223.0313 419.2305z" stroke="none" fill="#000000" fill-rule="nonzero" /><path id="177" transform="matrix(1 0 0 -1 0 842)" d="M223.0313 494.0703L273.0894 494.0703L273.0894 493.5742L223.0313 493.5742z" stroke="none" fill="#000000" fill-rule="nonzero" /><path id="178" transform="matrix(1 0 0 -1 0 842)" d="M223.0313 419.7266L273.0894 419.7266L273.0894 419.2305L223.0313 419.2305z" stroke="none" fill="#000000" fill-rule="nonzero" /><path id="179" transform="matrix(1 0 0 -1 0 842)" d="M223.0313 494.0703L223.5269 494.0703L223.5269 419.2305L223.0313 419.2305z" stroke="none" fill="#000000" fill-rule="nonzero" /><path id="180" transform="matrix(1 0 0 -1 0 842)" d="M272.5938 494.0703L273.0894 494.0703L273.0894 419.2305L272.5938 419.2305z" stroke="none" fill="#000000" fill-rule="nonzero" /><path id="181" transform="matrix(1 0 0 -1 0 842)" d="M272.5938 494.0703L421.7769 494.0703L421.7769 493.5742L272.5938 493.5742z" stroke="none" fill="#000000" fill-rule="nonzero" /><path id="182" transform="matrix(1 0 0 -1 0 842)" d="M272.5938 419.7266L421.7769 419.7266L421.7769 419.2305L272.5938 419.2305z" stroke="none" fill="#000000" fill-rule="nonzero" /><path id="183" transform="matrix(1 0 0 -1 0 842)" d="M272.5938 494.0703L273.0894 494.0703L273.0894 419.2305L272.5938 419.2305z" stroke="none" fill="#000000" fill-rule="nonzero" /><path id="184" transform="matrix(1 0 0 -1 0 842)" d="M421.2813 494.0703L421.7769 494.0703L421.7769 419.2305L421.2813 419.2305z" stroke="none" fill="#000000" fill-rule="nonzero" /><path id="185" transform="matrix(1 0 0 -1 0 842)" d="M421.2813 494.0703L471.3394 494.0703L471.3394 493.5742L421.2813 493.5742z" stroke="none" fill="#000000" fill-rule="nonzero" /><path id="186" transform="matrix(1 0 0 -1 0 842)" d="M421.2813 419.7266L471.3394 419.7266L471.3394 419.2305L421.2813 419.2305z" stroke="none" fill="#000000" fill-rule="nonzero" /><path id="187" transform="matrix(1 0 0 -1 0 842)" d="M421.2813 494.0703L421.7769 494.0703L421.7769 419.2305L421.2813 419.2305z" stroke="none" fill="#000000" fill-rule="nonzero" /><path id="188" transform="matrix(1 0 0 -1 0 842)" d="M470.8438 494.0703L471.3394 494.0703L471.3394 419.2305L470.8438 419.2305z" stroke="none" fill="#000000" fill-rule="nonzero" /><path id="189" transform="matrix(1 0 0 -1 0 842)" d="M470.8438 494.0703L545.1875 494.0703L545.1875 493.5742L470.8438 493.5742z" stroke="none" fill="#000000" fill-rule="nonzero" /><path id="190" transform="matrix(1 0 0 -1 0 842)" d="M470.8438 419.7266L545.1875 419.7266L545.1875 419.2305L470.8438 419.2305z" stroke="none" fill="#000000" fill-rule="nonzero" /><path id="191" transform="matrix(1 0 0 -1 0 842)" d="M470.8438 494.0703L471.3394 494.0703L471.3394 419.2305L470.8438 419.2305z" stroke="none" fill="#000000" fill-rule="nonzero" /><path id="192" transform="matrix(1 0 0 -1 0 842)" d="M544.6919 494.0703L545.1875 494.0703L545.1875 419.2305L544.6919 419.2305z" stroke="none" fill="#000000" fill-rule="nonzero" /></g></g></g></svg>