<svg xmlns="http://www.w3.org/2000/svg" xmlns:xlink="http://www.w3.org/1999/xlink" id="body_20" preserveAspectRatio="xMinYMin meet" viewBox="0 0 793 1123"><defs><clipPath id="1"><path id="" clip-rule="evenodd" transform="matrix(1 0 0 1 0 0)" d="M0 842L0 0L0 0L595 0L595 0L595 842L595 842L0 842z" /></clipPath><clipPath id="2"><path id="" clip-rule="evenodd" transform="matrix(1 0 0 1 0 0)" d="M0 0L594.75 0L594.75 0L594.75 842.0669L594.75 842.0669L0 842.0669L0 842.0669L0 0z" /></clipPath></defs><g transform="matrix(1.333333 0 0 1.333333 0 0)"><g clip-path="url(#1)"><g clip-path="url(#2)"><path id="1" transform="matrix(1 0 0 -1 0 842)" d="M0 841.998L594.75 841.998L594.75 -0.06835938L0 -0.06835938z" stroke="none" fill="#FFFFFF" fill-rule="nonzero" /><path id="2" transform="matrix(1 0 0 -1 0 842)" d="M49.5625 724.0391L74.34375 724.0391L74.34375 698.2666L49.5625 698.2666z" stroke="none" fill="#9CC9F0" fill-rule="nonzero" /><path id="3" transform="matrix(1 0 0 -1 0 842)" d="M74.34375 724.0391L148.6875 724.0391L148.6875 698.2666L74.34375 698.2666z" stroke="none" fill="#9CC9F0" fill-rule="nonzero" /><path id="4" transform="matrix(1 0 0 -1 0 842)" d="M148.6875 724.0391L223.0313 724.0391L223.0313 698.2666L148.6875 698.2666z" stroke="none" fill="#9CC9F0" fill-rule="nonzero" /><path id="5" transform="matrix(1 0 0 -1 0 842)" d="M223.0313 724.0391L272.5938 724.0391L272.5938 698.2666L223.0313 698.2666z" stroke="none" fill="#9CC9F0" fill-rule="nonzero" /><path id="6" transform="matrix(1 0 0 -1 0 842)" d="M272.5938 724.0391L421.2813 724.0391L421.2813 698.2666L272.5938 698.2666z" stroke="none" fill="#9CC9F0" fill-rule="nonzero" /><path id="7" transform="matrix(1 0 0 -1 0 842)" d="M421.2813 724.0391L470.8438 724.0391L470.8438 698.2666L421.2813 698.2666z" stroke="none" fill="#9CC9F0" fill-rule="nonzero" /><path id="8" transform="matrix(1 0 0 -1 0 842)" d="M470.8438 724.0391L544.6919 724.0391L544.6919 698.2666L470.8438 698.2666z" stroke="none" fill="#9CC9F0" fill-rule="nonzero" /><path id="9" transform="matrix(1 0 0 -1 0 842)" d="M49.5625 724.0391L74.83938 724.0391L74.83938 723.5439L49.5625 723.5439z" stroke="none" fill="#000000" fill-rule="nonzero" /><path id="10" transform="matrix(1 0 0 -1 0 842)" d="M49.5625 698.2666L74.83938 698.2666L74.83938 697.7715L49.5625 697.7715z" stroke="none" fill="#000000" fill-rule="nonzero" /><path id="11" transform="matrix(1 0 0 -1 0 842)" d="M49.5625 724.0391L50.05813 724.0391L50.05813 697.7715L49.5625 697.7715z" stroke="none" fill="#000000" fill-rule="nonzero" /><path id="12" transform="matrix(1 0 0 -1 0 842)" d="M74.34375 724.0391L74.83938 724.0391L74.83938 697.7715L74.34375 697.7715z" stroke="none" fill="#000000" fill-rule="nonzero" /><path id="13" transform="matrix(1 0 0 -1 0 842)" d="M74.34375 724.0391L149.1831 724.0391L149.1831 723.5439L74.34375 723.5439z" stroke="none" fill="#000000" fill-rule="nonzero" /><path id="14" transform="matrix(1 0 0 -1 0 842)" d="M74.34375 698.2666L149.1831 698.2666L149.1831 697.7715L74.34375 697.7715z" stroke="none" fill="#000000" fill-rule="nonzero" /><path id="15" transform="matrix(1 0 0 -1 0 842)" d="M74.34375 724.0391L74.83938 724.0391L74.83938 697.7715L74.34375 697.7715z" stroke="none" fill="#000000" fill-rule="nonzero" /><path id="16" transform="matrix(1 0 0 -1 0 842)" d="M148.6875 724.0391L149.1831 724.0391L149.1831 697.7715L148.6875 697.7715z" stroke="none" fill="#000000" fill-rule="nonzero" /><path id="17" transform="matrix(1 0 0 -1 0 842)" d="M148.6875 724.0391L223.5269 724.0391L223.5269 723.5439L148.6875 723.5439z" stroke="none" fill="#000000" fill-rule="nonzero" /><path id="18" transform="matrix(1 0 0 -1 0 842)" d="M148.6875 698.2666L223.5269 698.2666L223.5269 697.7715L148.6875 697.7715z" stroke="none" fill="#000000" fill-rule="nonzero" /><path id="19" transform="matrix(1 0 0 -1 0 842)" d="M148.6875 724.0391L149.1831 724.0391L149.1831 697.7715L148.6875 697.7715z" stroke="none" fill="#000000" fill-rule="nonzero" /><path id="20" transform="matrix(1 0 0 -1 0 842)" d="M223.0313 724.0391L223.5269 724.0391L223.5269 697.7715L223.0313 697.7715z" stroke="none" fill="#000000" fill-rule="nonzero" /><path id="21" transform="matrix(1 0 0 -1 0 842)" d="M223.0313 724.0391L273.0894 724.0391L273.0894 723.5439L223.0313 723.5439z" stroke="none" fill="#000000" fill-rule="nonzero" /><path id="22" transform="matrix(1 0 0 -1 0 842)" d="M223.0313 698.2666L273.0894 698.2666L273.0894 697.7715L223.0313 697.7715z" stroke="none" fill="#000000" fill-rule="nonzero" /><path id="23" transform="matrix(1 0 0 -1 0 842)" d="M223.0313 724.0391L223.5269 724.0391L223.5269 697.7715L223.0313 697.7715z" stroke="none" fill="#000000" fill-rule="nonzero" /><path id="24" transform="matrix(1 0 0 -1 0 842)" d="M272.5938 724.0391L273.0894 724.0391L273.0894 697.7715L272.5938 697.7715z" stroke="none" fill="#000000" fill-rule="nonzero" /><path id="25" transform="matrix(1 0 0 -1 0 842)" d="M272.5938 724.0391L421.7769 724.0391L421.7769 723.5439L272.5938 723.5439z" stroke="none" fill="#000000" fill-rule="nonzero" /><path id="26" transform="matrix(1 0 0 -1 0 842)" d="M272.5938 698.2666L421.7769 698.2666L421.7769 697.7715L272.5938 697.7715z" stroke="none" fill="#000000" fill-rule="nonzero" /><path id="27" transform="matrix(1 0 0 -1 0 842)" d="M272.5938 724.0391L273.0894 724.0391L273.0894 697.7715L272.5938 697.7715z" stroke="none" fill="#000000" fill-rule="nonzero" /><path id="28" transform="matrix(1 0 0 -1 0 842)" d="M421.2813 724.0391L421.7769 724.0391L421.7769 697.7715L421.2813 697.7715z" stroke="none" fill="#000000" fill-rule="nonzero" /><path id="29" transform="matrix(1 0 0 -1 0 842)" d="M421.2813 724.0391L471.3394 724.0391L471.3394 723.5439L421.2813 723.5439z" stroke="none" fill="#000000" fill-rule="nonzero" /><path id="30" transform="matrix(1 0 0 -1 0 842)" d="M421.2813 698.2666L471.3394 698.2666L471.3394 697.7715L421.2813 697.7715z" stroke="none" fill="#000000" fill-rule="nonzero" /><path id="31" transform="matrix(1 0 0 -1 0 842)" d="M421.2813 724.0391L421.7769 724.0391L421.7769 697.7715L421.2813 697.7715z" stroke="none" fill="#000000" fill-rule="nonzero" /><path id="32" transform="matrix(1 0 0 -1 0 842)" d="M470.8438 724.0391L471.3394 724.0391L471.3394 697.7715L470.8438 697.7715z" stroke="none" fill="#000000" fill-rule="nonzero" /><path id="33" transform="matrix(1 0 0 -1 0 842)" d="M470.8438 724.0391L545.1875 724.0391L545.1875 723.5439L470.8438 723.5439z" stroke="none" fill="#000000" fill-rule="nonzero" /><path id="34" transform="matrix(1 0 0 -1 0 842)" d="M470.8438 698.2666L545.1875 698.2666L545.1875 697.7715L470.8438 697.7715z" stroke="none" fill="#000000" fill-rule="nonzero" /><path id="35" transform="matrix(1 0 0 -1 0 842)" d="M470.8438 724.0391L471.3394 724.0391L471.3394 697.7715L470.8438 697.7715z" stroke="none" fill="#000000" fill-rule="nonzero" /><path id="36" transform="matrix(1 0 0 -1 0 842)" d="M544.6919 724.0391L545.1875 724.0391L545.1875 697.7715L544.6919 697.7715z" stroke="none" fill="#000000" fill-rule="nonzero" /><path id="37" transform="matrix(1 0 0 -1 0 842)" d="M49.5625 698.2666L74.83938 698.2666L74.83938 697.7715L49.5625 697.7715z" stroke="none" fill="#000000" fill-rule="nonzero" /><path id="38" transform="matrix(1 0 0 -1 0 842)" d="M49.5625 664.0693L74.83938 664.0693L74.83938 663.5732L49.5625 663.5732z" stroke="none" fill="#000000" fill-rule="nonzero" /><path id="39" transform="matrix(1 0 0 -1 0 842)" d="M49.5625 698.2666L50.05813 698.2666L50.05813 663.5732L49.5625 663.5732z" stroke="none" fill="#000000" fill-rule="nonzero" /><path id="40" transform="matrix(1 0 0 -1 0 842)" d="M74.34375 698.2666L74.83938 698.2666L74.83938 663.5732L74.34375 663.5732z" stroke="none" fill="#000000" fill-rule="nonzero" /><path id="41" transform="matrix(1 0 0 -1 0 842)" d="M74.34375 698.2666L149.1831 698.2666L149.1831 697.7715L74.34375 697.7715z" stroke="none" fill="#000000" fill-rule="nonzero" /><path id="42" transform="matrix(1 0 0 -1 0 842)" d="M74.34375 664.0693L149.1831 664.0693L149.1831 663.5732L74.34375 663.5732z" stroke="none" fill="#000000" fill-rule="nonzero" /><path id="43" transform="matrix(1 0 0 -1 0 842)" d="M74.34375 698.2666L74.83938 698.2666L74.83938 663.5732L74.34375 663.5732z" stroke="none" fill="#000000" fill-rule="nonzero" /><path id="44" transform="matrix(1 0 0 -1 0 842)" d="M148.6875 698.2666L149.1831 698.2666L149.1831 663.5732L148.6875 663.5732z" stroke="none" fill="#000000" fill-rule="nonzero" /><path id="45" transform="matrix(1 0 0 -1 0 842)" d="M148.6875 698.2666L223.5269 698.2666L223.5269 697.7715L148.6875 697.7715z" stroke="none" fill="#000000" fill-rule="nonzero" /><path id="46" transform="matrix(1 0 0 -1 0 842)" d="M148.6875 664.0693L223.5269 664.0693L223.5269 663.5732L148.6875 663.5732z" stroke="none" fill="#000000" fill-rule="nonzero" /><path id="47" transform="matrix(1 0 0 -1 0 842)" d="M148.6875 698.2666L149.1831 698.2666L149.1831 663.5732L148.6875 663.5732z" stroke="none" fill="#000000" fill-rule="nonzero" /><path id="48" transform="matrix(1 0 0 -1 0 842)" d="M223.0313 698.2666L223.5269 698.2666L223.5269 663.5732L223.0313 663.5732z" stroke="none" fill="#000000" fill-rule="nonzero" /><path id="49" transform="matrix(1 0 0 -1 0 842)" d="M223.0313 698.2666L273.0894 698.2666L273.0894 697.7715L223.0313 697.7715z" stroke="none" fill="#000000" fill-rule="nonzero" /><path id="50" transform="matrix(1 0 0 -1 0 842)" d="M223.0313 664.0693L273.0894 664.0693L273.0894 663.5732L223.0313 663.5732z" stroke="none" fill="#000000" fill-rule="nonzero" /><path id="51" transform="matrix(1 0 0 -1 0 842)" d="M223.0313 698.2666L223.5269 698.2666L223.5269 663.5732L223.0313 663.5732z" stroke="none" fill="#000000" fill-rule="nonzero" /><path id="52" transform="matrix(1 0 0 -1 0 842)" d="M272.5938 698.2666L273.0894 698.2666L273.0894 663.5732L272.5938 663.5732z" stroke="none" fill="#000000" fill-rule="nonzero" /><path id="53" transform="matrix(1 0 0 -1 0 842)" d="M272.5938 698.2666L421.7769 698.2666L421.7769 697.7715L272.5938 697.7715z" stroke="none" fill="#000000" fill-rule="nonzero" /><path id="54" transform="matrix(1 0 0 -1 0 842)" d="M272.5938 664.0693L421.7769 664.0693L421.7769 663.5732L272.5938 663.5732z" stroke="none" fill="#000000" fill-rule="nonzero" /><path id="55" transform="matrix(1 0 0 -1 0 842)" d="M272.5938 698.2666L273.0894 698.2666L273.0894 663.5732L272.5938 663.5732z" stroke="none" fill="#000000" fill-rule="nonzero" /><path id="56" transform="matrix(1 0 0 -1 0 842)" d="M421.2813 698.2666L421.7769 698.2666L421.7769 663.5732L421.2813 663.5732z" stroke="none" fill="#000000" fill-rule="nonzero" /><path id="57" transform="matrix(1 0 0 -1 0 842)" d="M421.2813 698.2666L471.3394 698.2666L471.3394 697.7715L421.2813 697.7715z" stroke="none" fill="#000000" fill-rule="nonzero" /><path id="58" transform="matrix(1 0 0 -1 0 842)" d="M421.2813 664.0693L471.3394 664.0693L471.3394 663.5732L421.2813 663.5732z" stroke="none" fill="#000000" fill-rule="nonzero" /><path id="59" transform="matrix(1 0 0 -1 0 842)" d="M421.2813 698.2666L421.7769 698.2666L421.7769 663.5732L421.2813 663.5732z" stroke="none" fill="#000000" fill-rule="nonzero" /><path id="60" transform="matrix(1 0 0 -1 0 842)" d="M470.8438 698.2666L471.3394 698.2666L471.3394 663.5732L470.8438 663.5732z" stroke="none" fill="#000000" fill-rule="nonzero" /><path id="61" transform="matrix(1 0 0 -1 0 842)" d="M470.8438 698.2666L545.1875 698.2666L545.1875 697.7715L470.8438 697.7715z" stroke="none" fill="#000000" fill-rule="nonzero" /><path id="62" transform="matrix(1 0 0 -1 0 842)" d="M470.8438 664.0693L545.1875 664.0693L545.1875 663.5732L470.8438 663.5732z" stroke="none" fill="#000000" fill-rule="nonzero" /><path id="63" transform="matrix(1 0 0 -1 0 842)" d="M470.8438 698.2666L471.3394 698.2666L471.3394 663.5732L470.8438 663.5732z" stroke="none" fill="#000000" fill-rule="nonzero" /><path id="64" transform="matrix(1 0 0 -1 0 842)" d="M544.6919 698.2666L545.1875 698.2666L545.1875 663.5732L544.6919 663.5732z" stroke="none" fill="#000000" fill-rule="nonzero" /><path id="65" transform="matrix(1 0 0 -1 0 842)" d="M49.5625 664.0693L74.83938 664.0693L74.83938 663.5732L49.5625 663.5732z" stroke="none" fill="#000000" fill-rule="nonzero" /><path id="66" transform="matrix(1 0 0 -1 0 842)" d="M49.5625 629.8711L74.83938 629.8711L74.83938 629.375L49.5625 629.375z" stroke="none" fill="#000000" fill-rule="nonzero" /><path id="67" transform="matrix(1 0 0 -1 0 842)" d="M49.5625 664.0693L50.05813 664.0693L50.05813 629.375L49.5625 629.375z" stroke="none" fill="#000000" fill-rule="nonzero" /><path id="68" transform="matrix(1 0 0 -1 0 842)" d="M74.34375 664.0693L74.83938 664.0693L74.83938 629.375L74.34375 629.375z" stroke="none" fill="#000000" fill-rule="nonzero" /><path id="69" transform="matrix(1 0 0 -1 0 842)" d="M74.34375 664.0693L149.1831 664.0693L149.1831 663.5732L74.34375 663.5732z" stroke="none" fill="#000000" fill-rule="nonzero" /><path id="70" transform="matrix(1 0 0 -1 0 842)" d="M74.34375 629.8711L149.1831 629.8711L149.1831 629.375L74.34375 629.375z" stroke="none" fill="#000000" fill-rule="nonzero" /><path id="71" transform="matrix(1 0 0 -1 0 842)" d="M74.34375 664.0693L74.83938 664.0693L74.83938 629.375L74.34375 629.375z" stroke="none" fill="#000000" fill-rule="nonzero" /><path id="72" transform="matrix(1 0 0 -1 0 842)" d="M148.6875 664.0693L149.1831 664.0693L149.1831 629.375L148.6875 629.375z" stroke="none" fill="#000000" fill-rule="nonzero" /><path id="73" transform="matrix(1 0 0 -1 0 842)" d="M148.6875 664.0693L223.5269 664.0693L223.5269 663.5732L148.6875 663.5732z" stroke="none" fill="#000000" fill-rule="nonzero" /><path id="74" transform="matrix(1 0 0 -1 0 842)" d="M148.6875 629.8711L223.5269 629.8711L223.5269 629.375L148.6875 629.375z" stroke="none" fill="#000000" fill-rule="nonzero" /><path id="75" transform="matrix(1 0 0 -1 0 842)" d="M148.6875 664.0693L149.1831 664.0693L149.1831 629.375L148.6875 629.375z" stroke="none" fill="#000000" fill-rule="nonzero" /><path id="76" transform="matrix(1 0 0 -1 0 842)" d="M223.0313 664.0693L223.5269 664.0693L223.5269 629.375L223.0313 629.375z" stroke="none" fill="#000000" fill-rule="nonzero" /><path id="77" transform="matrix(1 0 0 -1 0 842)" d="M223.0313 664.0693L273.0894 664.0693L273.0894 663.5732L223.0313 663.5732z" stroke="none" fill="#000000" fill-rule="nonzero" /><path id="78" transform="matrix(1 0 0 -1 0 842)" d="M223.0313 629.8711L273.0894 629.8711L273.0894 629.375L223.0313 629.375z" stroke="none" fill="#000000" fill-rule="nonzero" /><path id="79" transform="matrix(1 0 0 -1 0 842)" d="M223.0313 664.0693L223.5269 664.0693L223.5269 629.375L223.0313 629.375z" stroke="none" fill="#000000" fill-rule="nonzero" /><path id="80" transform="matrix(1 0 0 -1 0 842)" d="M272.5938 664.0693L273.0894 664.0693L273.0894 629.375L272.5938 629.375z" stroke="none" fill="#000000" fill-rule="nonzero" /><path id="81" transform="matrix(1 0 0 -1 0 842)" d="M272.5938 664.0693L421.7769 664.0693L421.7769 663.5732L272.5938 663.5732z" stroke="none" fill="#000000" fill-rule="nonzero" /><path id="82" transform="matrix(1 0 0 -1 0 842)" d="M272.5938 629.8711L421.7769 629.8711L421.7769 629.375L272.5938 629.375z" stroke="none" fill="#000000" fill-rule="nonzero" /><path id="83" transform="matrix(1 0 0 -1 0 842)" d="M272.5938 664.0693L273.0894 664.0693L273.0894 629.375L272.5938 629.375z" stroke="none" fill="#000000" fill-rule="nonzero" /><path id="84" transform="matrix(1 0 0 -1 0 842)" d="M421.2813 664.0693L421.7769 664.0693L421.7769 629.375L421.2813 629.375z" stroke="none" fill="#000000" fill-rule="nonzero" /><path id="85" transform="matrix(1 0 0 -1 0 842)" d="M421.2813 664.0693L471.3394 664.0693L471.3394 663.5732L421.2813 663.5732z" stroke="none" fill="#000000" fill-rule="nonzero" /><path id="86" transform="matrix(1 0 0 -1 0 842)" d="M421.2813 629.8711L471.3394 629.8711L471.3394 629.375L421.2813 629.375z" stroke="none" fill="#000000" fill-rule="nonzero" /><path id="87" transform="matrix(1 0 0 -1 0 842)" d="M421.2813 664.0693L421.7769 664.0693L421.7769 629.375L421.2813 629.375z" stroke="none" fill="#000000" fill-rule="nonzero" /><path id="88" transform="matrix(1 0 0 -1 0 842)" d="M470.8438 664.0693L471.3394 664.0693L471.3394 629.375L470.8438 629.375z" stroke="none" fill="#000000" fill-rule="nonzero" /><path id="89" transform="matrix(1 0 0 -1 0 842)" d="M470.8438 664.0693L545.1875 664.0693L545.1875 663.5732L470.8438 663.5732z" stroke="none" fill="#000000" fill-rule="nonzero" /><path id="90" transform="matrix(1 0 0 -1 0 842)" d="M470.8438 629.8711L545.1875 629.8711L545.1875 629.375L470.8438 629.375z" stroke="none" fill="#000000" fill-rule="nonzero" /><path id="91" transform="matrix(1 0 0 -1 0 842)" d="M470.8438 664.0693L471.3394 664.0693L471.3394 629.375L470.8438 629.375z" stroke="none" fill="#000000" fill-rule="nonzero" /><path id="92" transform="matrix(1 0 0 -1 0 842)" d="M544.6919 664.0693L545.1875 664.0693L545.1875 629.375L544.6919 629.375z" stroke="none" fill="#000000" fill-rule="nonzero" /><path id="93" transform="matrix(1 0 0 -1 0 842)" d="M49.5625 629.8711L74.83938 629.8711L74.83938 629.375L49.5625 629.375z" stroke="none" fill="#000000" fill-rule="nonzero" /><path id="94" transform="matrix(1 0 0 -1 0 842)" d="M49.5625 604.0986L74.83938 604.0986L74.83938 603.6025L49.5625 603.6025z" stroke="none" fill="#000000" fill-rule="nonzero" /><path id="95" transform="matrix(1 0 0 -1 0 842)" d="M49.5625 629.8711L50.05813 629.8711L50.05813 603.6025L49.5625 603.6025z" stroke="none" fill="#000000" fill-rule="nonzero" /><path id="96" transform="matrix(1 0 0 -1 0 842)" d="M74.34375 629.8711L74.83938 629.8711L74.83938 603.6025L74.34375 603.6025z" stroke="none" fill="#000000" fill-rule="nonzero" /><path id="97" transform="matrix(1 0 0 -1 0 842)" d="M74.34375 629.8711L149.1831 629.8711L149.1831 629.375L74.34375 629.375z" stroke="none" fill="#000000" fill-rule="nonzero" /><path id="98" transform="matrix(1 0 0 -1 0 842)" d="M74.34375 604.0986L149.1831 604.0986L149.1831 603.6025L74.34375 603.6025z" stroke="none" fill="#000000" fill-rule="nonzero" /><path id="99" transform="matrix(1 0 0 -1 0 842)" d="M74.34375 629.8711L74.83938 629.8711L74.83938 603.6025L74.34375 603.6025z" stroke="none" fill="#000000" fill-rule="nonzero" /><path id="100" transform="matrix(1 0 0 -1 0 842)" d="M148.6875 629.8711L149.1831 629.8711L149.1831 603.6025L148.6875 603.6025z" stroke="none" fill="#000000" fill-rule="nonzero" /><path id="101" transform="matrix(1 0 0 -1 0 842)" d="M148.6875 629.8711L223.5269 629.8711L223.5269 629.375L148.6875 629.375z" stroke="none" fill="#000000" fill-rule="nonzero" /><path id="102" transform="matrix(1 0 0 -1 0 842)" d="M148.6875 604.0986L223.5269 604.0986L223.5269 603.6025L148.6875 603.6025z" stroke="none" fill="#000000" fill-rule="nonzero" /><path id="103" transform="matrix(1 0 0 -1 0 842)" d="M148.6875 629.8711L149.1831 629.8711L149.1831 603.6025L148.6875 603.6025z" stroke="none" fill="#000000" fill-rule="nonzero" /><path id="104" transform="matrix(1 0 0 -1 0 842)" d="M223.0313 629.8711L223.5269 629.8711L223.5269 603.6025L223.0313 603.6025z" stroke="none" fill="#000000" fill-rule="nonzero" /><path id="105" transform="matrix(1 0 0 -1 0 842)" d="M223.0313 629.8711L273.0894 629.8711L273.0894 629.375L223.0313 629.375z" stroke="none" fill="#000000" fill-rule="nonzero" /><path id="106" transform="matrix(1 0 0 -1 0 842)" d="M223.0313 604.0986L273.0894 604.0986L273.0894 603.6025L223.0313 603.6025z" stroke="none" fill="#000000" fill-rule="nonzero" /><path id="107" transform="matrix(1 0 0 -1 0 842)" d="M223.0313 629.8711L223.5269 629.8711L223.5269 603.6025L223.0313 603.6025z" stroke="none" fill="#000000" fill-rule="nonzero" /><path id="108" transform="matrix(1 0 0 -1 0 842)" d="M272.5938 629.8711L273.0894 629.8711L273.0894 603.6025L272.5938 603.6025z" stroke="none" fill="#000000" fill-rule="nonzero" /><path id="109" transform="matrix(1 0 0 -1 0 842)" d="M272.5938 629.8711L421.7769 629.8711L421.7769 629.375L272.5938 629.375z" stroke="none" fill="#000000" fill-rule="nonzero" /><path id="110" transform="matrix(1 0 0 -1 0 842)" d="M272.5938 604.0986L421.7769 604.0986L421.7769 603.6025L272.5938 603.6025z" stroke="none" fill="#000000" fill-rule="nonzero" /><path id="111" transform="matrix(1 0 0 -1 0 842)" d="M272.5938 629.8711L273.0894 629.8711L273.0894 603.6025L272.5938 603.6025z" stroke="none" fill="#000000" fill-rule="nonzero" /><path id="112" transform="matrix(1 0 0 -1 0 842)" d="M421.2813 629.8711L421.7769 629.8711L421.7769 603.6025L421.2813 603.6025z" stroke="none" fill="#000000" fill-rule="nonzero" /><path id="113" transform="matrix(1 0 0 -1 0 842)" d="M421.2813 629.8711L471.3394 629.8711L471.3394 629.375L421.2813 629.375z" stroke="none" fill="#000000" fill-rule="nonzero" /><path id="114" transform="matrix(1 0 0 -1 0 842)" d="M421.2813 604.0986L471.3394 604.0986L471.3394 603.6025L421.2813 603.6025z" stroke="none" fill="#000000" fill-rule="nonzero" /><path id="115" transform="matrix(1 0 0 -1 0 842)" d="M421.2813 629.8711L421.7769 629.8711L421.7769 603.6025L421.2813 603.6025z" stroke="none" fill="#000000" fill-rule="nonzero" /><path id="116" transform="matrix(1 0 0 -1 0 842)" d="M470.8438 629.8711L471.3394 629.8711L471.3394 603.6025L470.8438 603.6025z" stroke="none" fill="#000000" fill-rule="nonzero" /><path id="117" transform="matrix(1 0 0 -1 0 842)" d="M470.8438 629.8711L545.1875 629.8711L545.1875 629.375L470.8438 629.375z" stroke="none" fill="#000000" fill-rule="nonzero" /><path id="118" transform="matrix(1 0 0 -1 0 842)" d="M470.8438 604.0986L545.1875 604.0986L545.1875 603.6025L470.8438 603.6025z" stroke="none" fill="#000000" fill-rule="nonzero" /><path id="119" transform="matrix(1 0 0 -1 0 842)" d="M470.8438 629.8711L471.3394 629.8711L471.3394 603.6025L470.8438 603.6025z" stroke="none" fill="#000000" fill-rule="nonzero" /><path id="120" transform="matrix(1 0 0 -1 0 842)" d="M544.6919 629.8711L545.1875 629.8711L545.1875 603.6025L544.6919 603.6025z" stroke="none" fill="#000000" fill-rule="nonzero" /><path id="121" transform="matrix(1 0 0 -1 0 842)" d="M49.5625 604.0986L74.83938 604.0986L74.83938 603.6025L49.5625 603.6025z" stroke="none" fill="#000000" fill-rule="nonzero" /><path id="122" transform="matrix(1 0 0 -1 0 842)" d="M49.5625 508.9385L74.83938 508.9385L74.83938 508.4424L49.5625 508.4424z" stroke="none" fill="#000000" fill-rule="nonzero" /><path id="123" transform="matrix(1 0 0 -1 0 842)" d="M49.5625 604.0986L50.05813 604.0986L50.05813 508.4424L49.5625 508.4424z" stroke="none" fill="#000000" fill-rule="nonzero" /><path id="124" transform="matrix(1 0 0 -1 0 842)" d="M74.34375 604.0986L74.83938 604.0986L74.83938 508.4424L74.34375 508.4424z" stroke="none" fill="#000000" fill-rule="nonzero" /><path id="125" transform="matrix(1 0 0 -1 0 842)" d="M74.34375 604.0986L149.1831 604.0986L149.1831 603.6025L74.34375 603.6025z" stroke="none" fill="#000000" fill-rule="nonzero" /><path id="126" transform="matrix(1 0 0 -1 0 842)" d="M74.34375 508.9385L149.1831 508.9385L149.1831 508.4424L74.34375 508.4424z" stroke="none" fill="#000000" fill-rule="nonzero" /><path id="127" transform="matrix(1 0 0 -1 0 842)" d="M74.34375 604.0986L74.83938 604.0986L74.83938 508.4424L74.34375 508.4424z" stroke="none" fill="#000000" fill-rule="nonzero" /><path id="128" transform="matrix(1 0 0 -1 0 842)" d="M148.6875 604.0986L149.1831 604.0986L149.1831 508.4424L148.6875 508.4424z" stroke="none" fill="#000000" fill-rule="nonzero" /><path id="129" transform="matrix(1 0 0 -1 0 842)" d="M148.6875 604.0986L223.5269 604.0986L223.5269 603.6025L148.6875 603.6025z" stroke="none" fill="#000000" fill-rule="nonzero" /><path id="130" transform="matrix(1 0 0 -1 0 842)" d="M148.6875 556.5186L223.5269 556.5186L223.5269 556.0225L148.6875 556.0225z" stroke="none" fill="#000000" fill-rule="nonzero" /><path id="131" transform="matrix(1 0 0 -1 0 842)" d="M148.6875 604.0986L149.1831 604.0986L149.1831 556.0225L148.6875 556.0225z" stroke="none" fill="#000000" fill-rule="nonzero" /><path id="132" transform="matrix(1 0 0 -1 0 842)" d="M223.0313 604.0986L223.5269 604.0986L223.5269 556.0225L223.0313 556.0225z" stroke="none" fill="#000000" fill-rule="nonzero" /><path id="133" transform="matrix(1 0 0 -1 0 842)" d="M223.0313 604.0986L273.0894 604.0986L273.0894 603.6025L223.0313 603.6025z" stroke="none" fill="#000000" fill-rule="nonzero" /><path id="134" transform="matrix(1 0 0 -1 0 842)" d="M223.0313 556.5186L273.0894 556.5186L273.0894 556.0225L223.0313 556.0225z" stroke="none" fill="#000000" fill-rule="nonzero" /><path id="135" transform="matrix(1 0 0 -1 0 842)" d="M223.0313 604.0986L223.5269 604.0986L223.5269 556.0225L223.0313 556.0225z" stroke="none" fill="#000000" fill-rule="nonzero" /><path id="136" transform="matrix(1 0 0 -1 0 842)" d="M272.5938 604.0986L273.0894 604.0986L273.0894 556.0225L272.5938 556.0225z" stroke="none" fill="#000000" fill-rule="nonzero" /><path id="137" transform="matrix(1 0 0 -1 0 842)" d="M272.5938 604.0986L421.7769 604.0986L421.7769 603.6025L272.5938 603.6025z" stroke="none" fill="#000000" fill-rule="nonzero" /><path id="138" transform="matrix(1 0 0 -1 0 842)" d="M272.5938 556.5186L421.7769 556.5186L421.7769 556.0225L272.5938 556.0225z" stroke="none" fill="#000000" fill-rule="nonzero" /><path id="139" transform="matrix(1 0 0 -1 0 842)" d="M272.5938 604.0986L273.0894 604.0986L273.0894 556.0225L272.5938 556.0225z" stroke="none" fill="#000000" fill-rule="nonzero" /><path id="140" transform="matrix(1 0 0 -1 0 842)" d="M421.2813 604.0986L421.7769 604.0986L421.7769 556.0225L421.2813 556.0225z" stroke="none" fill="#000000" fill-rule="nonzero" /><path id="141" transform="matrix(1 0 0 -1 0 842)" d="M421.2813 604.0986L471.3394 604.0986L471.3394 603.6025L421.2813 603.6025z" stroke="none" fill="#000000" fill-rule="nonzero" /><path id="142" transform="matrix(1 0 0 -1 0 842)" d="M421.2813 556.5186L471.3394 556.5186L471.3394 556.0225L421.2813 556.0225z" stroke="none" fill="#000000" fill-rule="nonzero" /><path id="143" transform="matrix(1 0 0 -1 0 842)" d="M421.2813 604.0986L421.7769 604.0986L421.7769 556.0225L421.2813 556.0225z" stroke="none" fill="#000000" fill-rule="nonzero" /><path id="144" transform="matrix(1 0 0 -1 0 842)" d="M470.8438 604.0986L471.3394 604.0986L471.3394 556.0225L470.8438 556.0225z" stroke="none" fill="#000000" fill-rule="nonzero" /><path id="145" transform="matrix(1 0 0 -1 0 842)" d="M470.8438 604.0986L545.1875 604.0986L545.1875 603.6025L470.8438 603.6025z" stroke="none" fill="#000000" fill-rule="nonzero" /><path id="146" transform="matrix(1 0 0 -1 0 842)" d="M470.8438 508.9385L545.1875 508.9385L545.1875 508.4424L470.8438 508.4424z" stroke="none" fill="#000000" fill-rule="nonzero" /><path id="147" transform="matrix(1 0 0 -1 0 842)" d="M470.8438 604.0986L471.3394 604.0986L471.3394 508.4424L470.8438 508.4424z" stroke="none" fill="#000000" fill-rule="nonzero" /><path id="148" transform="matrix(1 0 0 -1 0 842)" d="M544.6919 604.0986L545.1875 604.0986L545.1875 508.4424L544.6919 508.4424z" stroke="none" fill="#000000" fill-rule="nonzero" /><path id="149" transform="matrix(1 0 0 -1 0 842)" d="M148.6875 556.5186L223.5269 556.5186L223.5269 556.0225L148.6875 556.0225z" stroke="none" fill="#000000" fill-rule="nonzero" /><path id="150" transform="matrix(1 0 0 -1 0 842)" d="M148.6875 508.9385L223.5269 508.9385L223.5269 508.4424L148.6875 508.4424z" stroke="none" fill="#000000" fill-rule="nonzero" /><path id="151" transform="matrix(1 0 0 -1 0 842)" d="M148.6875 556.5186L149.1831 556.5186L149.1831 508.4424L148.6875 508.4424z" stroke="none" fill="#000000" fill-rule="nonzero" /><path id="152" transform="matrix(1 0 0 -1 0 842)" d="M223.0313 556.5186L223.5269 556.5186L223.5269 508.4424L223.0313 508.4424z" stroke="none" fill="#000000" fill-rule="nonzero" /><path id="153" transform="matrix(1 0 0 -1 0 842)" d="M223.0313 556.5186L273.0894 556.5186L273.0894 556.0225L223.0313 556.0225z" stroke="none" fill="#000000" fill-rule="nonzero" /><path id="154" transform="matrix(1 0 0 -1 0 842)" d="M223.0313 508.9385L273.0894 508.9385L273.0894 508.4424L223.0313 508.4424z" stroke="none" fill="#000000" fill-rule="nonzero" /><path id="155" transform="matrix(1 0 0 -1 0 842)" d="M223.0313 556.5186L223.5269 556.5186L223.5269 508.4424L223.0313 508.4424z" stroke="none" fill="#000000" fill-rule="nonzero" /><path id="156" transform="matrix(1 0 0 -1 0 842)" d="M272.5938 556.5186L273.0894 556.5186L273.0894 508.4424L272.5938 508.4424z" stroke="none" fill="#000000" fill-rule="nonzero" /><path id="157" transform="matrix(1 0 0 -1 0 842)" d="M272.5938 556.5186L421.7769 556.5186L421.7769 556.0225L272.5938 556.0225z" stroke="none" fill="#000000" fill-rule="nonzero" /><path id="158" transform="matrix(1 0 0 -1 0 842)" d="M272.5938 508.9385L421.7769 508.9385L421.7769 508.4424L272.5938 508.4424z" stroke="none" fill="#000000" fill-rule="nonzero" /><path id="159" transform="matrix(1 0 0 -1 0 842)" d="M272.5938 556.5186L273.0894 556.5186L273.0894 508.4424L272.5938 508.4424z" stroke="none" fill="#000000" fill-rule="nonzero" /><path id="160" transform="matrix(1 0 0 -1 0 842)" d="M421.2813 556.5186L421.7769 556.5186L421.7769 508.4424L421.2813 508.4424z" stroke="none" fill="#000000" fill-rule="nonzero" /><path id="161" transform="matrix(1 0 0 -1 0 842)" d="M421.2813 556.5186L471.3394 556.5186L471.3394 556.0225L421.2813 556.0225z" stroke="none" fill="#000000" fill-rule="nonzero" /><path id="162" transform="matrix(1 0 0 -1 0 842)" d="M421.2813 508.9385L471.3394 508.9385L471.3394 508.4424L421.2813 508.4424z" stroke="none" fill="#000000" fill-rule="nonzero" /><path id="163" transform="matrix(1 0 0 -1 0 842)" d="M421.2813 556.5186L421.7769 556.5186L421.7769 508.4424L421.2813 508.4424z" stroke="none" fill="#000000" fill-rule="nonzero" /><path id="164" transform="matrix(1 0 0 -1 0 842)" d="M470.8438 556.5186L471.3394 556.5186L471.3394 508.4424L470.8438 508.4424z" stroke="none" fill="#000000" fill-rule="nonzero" /><path id="165" transform="matrix(1 0 0 -1 0 842)" d="M49.5625 508.9385L74.83938 508.9385L74.83938 508.4424L49.5625 508.4424z" stroke="none" fill="#000000" fill-rule="nonzero" /><path id="166" transform="matrix(1 0 0 -1 0 842)" d="M49.5625 413.7773L74.83938 413.7773L74.83938 413.2832L49.5625 413.2832z" stroke="none" fill="#000000" fill-rule="nonzero" /><path id="167" transform="matrix(1 0 0 -1 0 842)" d="M49.5625 508.9385L50.05813 508.9385L50.05813 413.2832L49.5625 413.2832z" stroke="none" fill="#000000" fill-rule="nonzero" /><path id="168" transform="matrix(1 0 0 -1 0 842)" d="M74.34375 508.9385L74.83938 508.9385L74.83938 413.2832L74.34375 413.2832z" stroke="none" fill="#000000" fill-rule="nonzero" /><path id="169" transform="matrix(1 0 0 -1 0 842)" d="M74.34375 508.9385L149.1831 508.9385L149.1831 508.4424L74.34375 508.4424z" stroke="none" fill="#000000" fill-rule="nonzero" /><path id="170" transform="matrix(1 0 0 -1 0 842)" d="M74.34375 413.7773L149.1831 413.7773L149.1831 413.2832L74.34375 413.2832z" stroke="none" fill="#000000" fill-rule="nonzero" /><path id="171" transform="matrix(1 0 0 -1 0 842)" d="M74.34375 508.9385L74.83938 508.9385L74.83938 413.2832L74.34375 413.2832z" stroke="none" fill="#000000" fill-rule="nonzero" /><path id="172" transform="matrix(1 0 0 -1 0 842)" d="M148.6875 508.9385L149.1831 508.9385L149.1831 413.2832L148.6875 413.2832z" stroke="none" fill="#000000" fill-rule="nonzero" /><path id="173" transform="matrix(1 0 0 -1 0 842)" d="M148.6875 508.9385L223.5269 508.9385L223.5269 508.4424L148.6875 508.4424z" stroke="none" fill="#000000" fill-rule="nonzero" /><path id="174" transform="matrix(1 0 0 -1 0 842)" d="M148.6875 461.3584L223.5269 461.3584L223.5269 460.8623L148.6875 460.8623z" stroke="none" fill="#000000" fill-rule="nonzero" /><path id="175" transform="matrix(1 0 0 -1 0 842)" d="M148.6875 508.9385L149.1831 508.9385L149.1831 460.8623L148.6875 460.8623z" stroke="none" fill="#000000" fill-rule="nonzero" /><path id="176" transform="matrix(1 0 0 -1 0 842)" d="M223.0313 508.9385L223.5269 508.9385L223.5269 460.8623L223.0313 460.8623z" stroke="none" fill="#000000" fill-rule="nonzero" /><path id="177" transform="matrix(1 0 0 -1 0 842)" d="M223.0313 508.9385L273.0894 508.9385L273.0894 508.4424L223.0313 508.4424z" stroke="none" fill="#000000" fill-rule="nonzero" /><path id="178" transform="matrix(1 0 0 -1 0 842)" d="M223.0313 461.3584L273.0894 461.3584L273.0894 460.8623L223.0313 460.8623z" stroke="none" fill="#000000" fill-rule="nonzero" /><path id="179" transform="matrix(1 0 0 -1 0 842)" d="M223.0313 508.9385L223.5269 508.9385L223.5269 460.8623L223.0313 460.8623z" stroke="none" fill="#000000" fill-rule="nonzero" /><path id="180" transform="matrix(1 0 0 -1 0 842)" d="M272.5938 508.9385L273.0894 508.9385L273.0894 460.8623L272.5938 460.8623z" stroke="none" fill="#000000" fill-rule="nonzero" /><path id="181" transform="matrix(1 0 0 -1 0 842)" d="M272.5938 508.9385L421.7769 508.9385L421.7769 508.4424L272.5938 508.4424z" stroke="none" fill="#000000" fill-rule="nonzero" /><path id="182" transform="matrix(1 0 0 -1 0 842)" d="M272.5938 461.3584L421.7769 461.3584L421.7769 460.8623L272.5938 460.8623z" stroke="none" fill="#000000" fill-rule="nonzero" /><path id="183" transform="matrix(1 0 0 -1 0 842)" d="M272.5938 508.9385L273.0894 508.9385L273.0894 460.8623L272.5938 460.8623z" stroke="none" fill="#000000" fill-rule="nonzero" /><path id="184" transform="matrix(1 0 0 -1 0 842)" d="M421.2813 508.9385L421.7769 508.9385L421.7769 460.8623L421.2813 460.8623z" stroke="none" fill="#000000" fill-rule="nonzero" /><path id="185" transform="matrix(1 0 0 -1 0 842)" d="M421.2813 508.9385L471.3394 508.9385L471.3394 508.4424L421.2813 508.4424z" stroke="none" fill="#000000" fill-rule="nonzero" /><path id="186" transform="matrix(1 0 0 -1 0 842)" d="M421.2813 461.3584L471.3394 461.3584L471.3394 460.8623L421.2813 460.8623z" stroke="none" fill="#000000" fill-rule="nonzero" /><path id="187" transform="matrix(1 0 0 -1 0 842)" d="M421.2813 508.9385L421.7769 508.9385L421.7769 460.8623L421.2813 460.8623z" stroke="none" fill="#000000" fill-rule="nonzero" /><path id="188" transform="matrix(1 0 0 -1 0 842)" d="M470.8438 508.9385L471.3394 508.9385L471.3394 460.8623L470.8438 460.8623z" stroke="none" fill="#000000" fill-rule="nonzero" /><path id="189" transform="matrix(1 0 0 -1 0 842)" d="M470.8438 508.9385L545.1875 508.9385L545.1875 508.4424L470.8438 508.4424z" stroke="none" fill="#000000" fill-rule="nonzero" /><path id="190" transform="matrix(1 0 0 -1 0 842)" d="M470.8438 413.7773L545.1875 413.7773L545.1875 413.2832L470.8438 413.2832z" stroke="none" fill="#000000" fill-rule="nonzero" /><path id="191" transform="matrix(1 0 0 -1 0 842)" d="M470.8438 508.9385L471.3394 508.9385L471.3394 413.2832L470.8438 413.2832z" stroke="none" fill="#000000" fill-rule="nonzero" /><path id="192" transform="matrix(1 0 0 -1 0 842)" d="M544.6919 508.9385L545.1875 508.9385L545.1875 413.2832L544.6919 413.2832z" stroke="none" fill="#000000" fill-rule="nonzero" /><path id="193" transform="matrix(1 0 0 -1 0 842)" d="M148.6875 461.3584L223.5269 461.3584L223.5269 460.8623L148.6875 460.8623z" stroke="none" fill="#000000" fill-rule="nonzero" /><path id="194" transform="matrix(1 0 0 -1 0 842)" d="M148.6875 413.7773L223.5269 413.7773L223.5269 413.2832L148.6875 413.2832z" stroke="none" fill="#000000" fill-rule="nonzero" /><path id="195" transform="matrix(1 0 0 -1 0 842)" d="M148.6875 461.3584L149.1831 461.3584L149.1831 413.2832L148.6875 413.2832z" stroke="none" fill="#000000" fill-rule="nonzero" /><path id="196" transform="matrix(1 0 0 -1 0 842)" d="M223.0313 461.3584L223.5269 461.3584L223.5269 413.2832L223.0313 413.2832z" stroke="none" fill="#000000" fill-rule="nonzero" /><path id="197" transform="matrix(1 0 0 -1 0 842)" d="M223.0313 461.3584L273.0894 461.3584L273.0894 460.8623L223.0313 460.8623z" stroke="none" fill="#000000" fill-rule="nonzero" /><path id="198" transform="matrix(1 0 0 -1 0 842)" d="M223.0313 413.7773L273.0894 413.7773L273.0894 413.2832L223.0313 413.2832z" stroke="none" fill="#000000" fill-rule="nonzero" /><path id="199" transform="matrix(1 0 0 -1 0 842)" d="M223.0313 461.3584L223.5269 461.3584L223.5269 413.2832L223.0313 413.2832z" stroke="none" fill="#000000" fill-rule="nonzero" /><path id="200" transform="matrix(1 0 0 -1 0 842)" d="M272.5938 461.3584L273.0894 461.3584L273.0894 413.2832L272.5938 413.2832z" stroke="none" fill="#000000" fill-rule="nonzero" /><path id="201" transform="matrix(1 0 0 -1 0 842)" d="M272.5938 461.3584L421.7769 461.3584L421.7769 460.8623L272.5938 460.8623z" stroke="none" fill="#000000" fill-rule="nonzero" /><path id="202" transform="matrix(1 0 0 -1 0 842)" d="M272.5938 413.7773L421.7769 413.7773L421.7769 413.2832L272.5938 413.2832z" stroke="none" fill="#000000" fill-rule="nonzero" /><path id="203" transform="matrix(1 0 0 -1 0 842)" d="M272.5938 461.3584L273.0894 461.3584L273.0894 413.2832L272.5938 413.2832z" stroke="none" fill="#000000" fill-rule="nonzero" /><path id="204" transform="matrix(1 0 0 -1 0 842)" d="M421.2813 461.3584L421.7769 461.3584L421.7769 413.2832L421.2813 413.2832z" stroke="none" fill="#000000" fill-rule="nonzero" /><path id="205" transform="matrix(1 0 0 -1 0 842)" d="M421.2813 461.3584L471.3394 461.3584L471.3394 460.8623L421.2813 460.8623z" stroke="none" fill="#000000" fill-rule="nonzero" /><path id="206" transform="matrix(1 0 0 -1 0 842)" d="M421.2813 413.7773L471.3394 413.7773L471.3394 413.2832L421.2813 413.2832z" stroke="none" fill="#000000" fill-rule="nonzero" /><path id="207" transform="matrix(1 0 0 -1 0 842)" d="M421.2813 461.3584L421.7769 461.3584L421.7769 413.2832L421.2813 413.2832z" stroke="none" fill="#000000" fill-rule="nonzero" /><path id="208" transform="matrix(1 0 0 -1 0 842)" d="M470.8438 461.3584L471.3394 461.3584L471.3394 413.2832L470.8438 413.2832z" stroke="none" fill="#000000" fill-rule="nonzero" /><path id="209" transform="matrix(1 0 0 -1 0 842)" d="M49.5625 413.7773L74.83938 413.7773L74.83938 413.2832L49.5625 413.2832z" stroke="none" fill="#000000" fill-rule="nonzero" /><path id="210" transform="matrix(1 0 0 -1 0 842)" d="M49.5625 318.6191L74.83938 318.6191L74.83938 318.123L49.5625 318.123z" stroke="none" fill="#000000" fill-rule="nonzero" /><path id="211" transform="matrix(1 0 0 -1 0 842)" d="M49.5625 413.7773L50.05813 413.7773L50.05813 318.123L49.5625 318.123z" stroke="none" fill="#000000" fill-rule="nonzero" /><path id="212" transform="matrix(1 0 0 -1 0 842)" d="M74.34375 413.7773L74.83938 413.7773L74.83938 318.123L74.34375 318.123z" stroke="none" fill="#000000" fill-rule="nonzero" /><path id="213" transform="matrix(1 0 0 -1 0 842)" d="M74.34375 413.7773L149.1831 413.7773L149.1831 413.2832L74.34375 413.2832z" stroke="none" fill="#000000" fill-rule="nonzero" /><path id="214" transform="matrix(1 0 0 -1 0 842)" d="M74.34375 318.6191L149.1831 318.6191L149.1831 318.123L74.34375 318.123z" stroke="none" fill="#000000" fill-rule="nonzero" /><path id="215" transform="matrix(1 0 0 -1 0 842)" d="M74.34375 413.7773L74.83938 413.7773L74.83938 318.123L74.34375 318.123z" stroke="none" fill="#000000" fill-rule="nonzero" /><path id="216" transform="matrix(1 0 0 -1 0 842)" d="M148.6875 413.7773L149.1831 413.7773L149.1831 318.123L148.6875 318.123z" stroke="none" fill="#000000" fill-rule="nonzero" /><path id="217" transform="matrix(1 0 0 -1 0 842)" d="M148.6875 413.7773L223.5269 413.7773L223.5269 413.2832L148.6875 413.2832z" stroke="none" fill="#000000" fill-rule="nonzero" /><path id="218" transform="matrix(1 0 0 -1 0 842)" d="M148.6875 366.1992L223.5269 366.1992L223.5269 365.7031L148.6875 365.7031z" stroke="none" fill="#000000" fill-rule="nonzero" /><path id="219" transform="matrix(1 0 0 -1 0 842)" d="M148.6875 413.7773L149.1831 413.7773L149.1831 365.7031L148.6875 365.7031z" stroke="none" fill="#000000" fill-rule="nonzero" /><path id="220" transform="matrix(1 0 0 -1 0 842)" d="M223.0313 413.7773L223.5269 413.7773L223.5269 365.7031L223.0313 365.7031z" stroke="none" fill="#000000" fill-rule="nonzero" /><path id="221" transform="matrix(1 0 0 -1 0 842)" d="M223.0313 413.7773L273.0894 413.7773L273.0894 413.2832L223.0313 413.2832z" stroke="none" fill="#000000" fill-rule="nonzero" /><path id="222" transform="matrix(1 0 0 -1 0 842)" d="M223.0313 366.1992L273.0894 366.1992L273.0894 365.7031L223.0313 365.7031z" stroke="none" fill="#000000" fill-rule="nonzero" /><path id="223" transform="matrix(1 0 0 -1 0 842)" d="M223.0313 413.7773L223.5269 413.7773L223.5269 365.7031L223.0313 365.7031z" stroke="none" fill="#000000" fill-rule="nonzero" /><path id="224" transform="matrix(1 0 0 -1 0 842)" d="M272.5938 413.7773L273.0894 413.7773L273.0894 365.7031L272.5938 365.7031z" stroke="none" fill="#000000" fill-rule="nonzero" /><path id="225" transform="matrix(1 0 0 -1 0 842)" d="M272.5938 413.7773L421.7769 413.7773L421.7769 413.2832L272.5938 413.2832z" stroke="none" fill="#000000" fill-rule="nonzero" /><path id="226" transform="matrix(1 0 0 -1 0 842)" d="M272.5938 366.1992L421.7769 366.1992L421.7769 365.7031L272.5938 365.7031z" stroke="none" fill="#000000" fill-rule="nonzero" /><path id="227" transform="matrix(1 0 0 -1 0 842)" d="M272.5938 413.7773L273.0894 413.7773L273.0894 365.7031L272.5938 365.7031z" stroke="none" fill="#000000" fill-rule="nonzero" /><path id="228" transform="matrix(1 0 0 -1 0 842)" d="M421.2813 413.7773L421.7769 413.7773L421.7769 365.7031L421.2813 365.7031z" stroke="none" fill="#000000" fill-rule="nonzero" /><path id="229" transform="matrix(1 0 0 -1 0 842)" d="M421.2813 413.7773L471.3394 413.7773L471.3394 413.2832L421.2813 413.2832z" stroke="none" fill="#000000" fill-rule="nonzero" /><path id="230" transform="matrix(1 0 0 -1 0 842)" d="M421.2813 366.1992L471.3394 366.1992L471.3394 365.7031L421.2813 365.7031z" stroke="none" fill="#000000" fill-rule="nonzero" /><path id="231" transform="matrix(1 0 0 -1 0 842)" d="M421.2813 413.7773L421.7769 413.7773L421.7769 365.7031L421.2813 365.7031z" stroke="none" fill="#000000" fill-rule="nonzero" /><path id="232" transform="matrix(1 0 0 -1 0 842)" d="M470.8438 413.7773L471.3394 413.7773L471.3394 365.7031L470.8438 365.7031z" stroke="none" fill="#000000" fill-rule="nonzero" /><path id="233" transform="matrix(1 0 0 -1 0 842)" d="M470.8438 413.7773L545.1875 413.7773L545.1875 413.2832L470.8438 413.2832z" stroke="none" fill="#000000" fill-rule="nonzero" /><path id="234" transform="matrix(1 0 0 -1 0 842)" d="M470.8438 318.6191L545.1875 318.6191L545.1875 318.123L470.8438 318.123z" stroke="none" fill="#000000" fill-rule="nonzero" /><path id="235" transform="matrix(1 0 0 -1 0 842)" d="M470.8438 413.7773L471.3394 413.7773L471.3394 318.123L470.8438 318.123z" stroke="none" fill="#000000" fill-rule="nonzero" /><path id="236" transform="matrix(1 0 0 -1 0 842)" d="M544.6919 413.7773L545.1875 413.7773L545.1875 318.123L544.6919 318.123z" stroke="none" fill="#000000" fill-rule="nonzero" /><path id="237" transform="matrix(1 0 0 -1 0 842)" d="M148.6875 366.1992L223.5269 366.1992L223.5269 365.7031L148.6875 365.7031z" stroke="none" fill="#000000" fill-rule="nonzero" /><path id="238" transform="matrix(1 0 0 -1 0 842)" d="M148.6875 318.6191L223.5269 318.6191L223.5269 318.123L148.6875 318.123z" stroke="none" fill="#000000" fill-rule="nonzero" /><path id="239" transform="matrix(1 0 0 -1 0 842)" d="M148.6875 366.1992L149.1831 366.1992L149.1831 318.123L148.6875 318.123z" stroke="none" fill="#000000" fill-rule="nonzero" /><path id="240" transform="matrix(1 0 0 -1 0 842)" d="M223.0313 366.1992L223.5269 366.1992L223.5269 318.123L223.0313 318.123z" stroke="none" fill="#000000" fill-rule="nonzero" /><path id="241" transform="matrix(1 0 0 -1 0 842)" d="M223.0313 366.1992L273.0894 366.1992L273.0894 365.7031L223.0313 365.7031z" stroke="none" fill="#000000" fill-rule="nonzero" /><path id="242" transform="matrix(1 0 0 -1 0 842)" d="M223.0313 318.6191L273.0894 318.6191L273.0894 318.123L223.0313 318.123z" stroke="none" fill="#000000" fill-rule="nonzero" /><path id="243" transform="matrix(1 0 0 -1 0 842)" d="M223.0313 366.1992L223.5269 366.1992L223.5269 318.123L223.0313 318.123z" stroke="none" fill="#000000" fill-rule="nonzero" /><path id="244" transform="matrix(1 0 0 -1 0 842)" d="M272.5938 366.1992L273.0894 366.1992L273.0894 318.123L272.5938 318.123z" stroke="none" fill="#000000" fill-rule="nonzero" /><path id="245" transform="matrix(1 0 0 -1 0 842)" d="M272.5938 366.1992L421.7769 366.1992L421.7769 365.7031L272.5938 365.7031z" stroke="none" fill="#000000" fill-rule="nonzero" /><path id="246" transform="matrix(1 0 0 -1 0 842)" d="M272.5938 318.6191L421.7769 318.6191L421.7769 318.123L272.5938 318.123z" stroke="none" fill="#000000" fill-rule="nonzero" /><path id="247" transform="matrix(1 0 0 -1 0 842)" d="M272.5938 366.1992L273.0894 366.1992L273.0894 318.123L272.5938 318.123z" stroke="none" fill="#000000" fill-rule="nonzero" /><path id="248" transform="matrix(1 0 0 -1 0 842)" d="M421.2813 366.1992L421.7769 366.1992L421.7769 318.123L421.2813 318.123z" stroke="none" fill="#000000" fill-rule="nonzero" /><path id="249" transform="matrix(1 0 0 -1 0 842)" d="M421.2813 366.1992L471.3394 366.1992L471.3394 365.7031L421.2813 365.7031z" stroke="none" fill="#000000" fill-rule="nonzero" /><path id="250" transform="matrix(1 0 0 -1 0 842)" d="M421.2813 318.6191L471.3394 318.6191L471.3394 318.123L421.2813 318.123z" stroke="none" fill="#000000" fill-rule="nonzero" /><path id="251" transform="matrix(1 0 0 -1 0 842)" d="M421.2813 366.1992L421.7769 366.1992L421.7769 318.123L421.2813 318.123z" stroke="none" fill="#000000" fill-rule="nonzero" /><path id="252" transform="matrix(1 0 0 -1 0 842)" d="M470.8438 366.1992L471.3394 366.1992L471.3394 318.123L470.8438 318.123z" stroke="none" fill="#000000" fill-rule="nonzero" /></g></g></g></svg>