<svg xmlns="http://www.w3.org/2000/svg" xmlns:xlink="http://www.w3.org/1999/xlink" id="body_9" preserveAspectRatio="xMinYMin meet" viewBox="0 0 793 1123"><defs><clipPath id="1"><path id="" clip-rule="evenodd" transform="matrix(1 0 0 1 0 0)" d="M0 842L0 0L0 0L595 0L595 0L595 842L595 842L0 842z" /></clipPath><clipPath id="2"><path id="" clip-rule="evenodd" transform="matrix(1 0 0 1 0 0)" d="M0 0L594.75 0L594.75 0L594.75 842.0669L594.75 842.0669L0 842.0669L0 842.0669L0 0z" /></clipPath><clipPath id="3"><path id="" clip-rule="evenodd" transform="matrix(1 0 0 1 0 0)" d="M300 772L410 772L410 772L410 662L410 662L300 662z" /></clipPath><clipPath id="4"><path id="" clip-rule="evenodd" transform="matrix(1 0 0 1 0 0)" d="M300 772L410 772L410 772L410 662L410 662L300 662z" /></clipPath><clipPath id="5"><path id="" clip-rule="evenodd" transform="matrix(1 0 0 1 0 0)" d="M300 772L400 772L400 772L400 672L400 672L300 672z" /></clipPath><clipPath id="6"><path id="" clip-rule="evenodd" transform="matrix(1 0 0 1 0 0)" d="M300 772L410 772L410 772L410 662L410 662L300 662z" /></clipPath></defs><g transform="matrix(1.333333 0 0 1.333333 0 0)"><g clip-path="url(#1)"><g transform="matrix(0.7284768 0 0 0.7284768 300 662)"><g transform="matrix(1 0 0 1 0 0)"><image x="0" y="0" xlink:href="img_10.png" width="151" height="151" /></g></g><g clip-path="url(#2)"><path id="2" transform="matrix(1 0 0 -1 0 842)" d="M0 842L594.75 842L594.75 -0.06689453L0 -0.06689453z" stroke="none" fill="#FFFFFF" fill-rule="nonzero" /><path id="3" transform="matrix(1 0 0 -1 0 842)" d="M74.34375 376.1123L114.4894 376.1123L114.4894 375.6167L74.34375 375.6167z" stroke="none" fill="#000000" fill-rule="nonzero" /><path id="4" transform="matrix(1 0 0 -1 0 842)" d="M74.34375 350.3398L114.4894 350.3398L114.4894 349.8442L74.34375 349.8442z" stroke="none" fill="#000000" fill-rule="nonzero" /><path id="5" transform="matrix(1 0 0 -1 0 842)" d="M74.34375 376.1123L74.83938 376.1123L74.83938 349.8442L74.34375 349.8442z" stroke="none" fill="#000000" fill-rule="nonzero" /><path id="6" transform="matrix(1 0 0 -1 0 842)" d="M113.9938 376.1123L114.4894 376.1123L114.4894 349.8442L113.9938 349.8442z" stroke="none" fill="#000000" fill-rule="nonzero" /><path id="7" transform="matrix(1 0 0 -1 0 842)" d="M113.9938 376.1123L440.115 376.1123L440.115 375.6167L113.9938 375.6167z" stroke="none" fill="#000000" fill-rule="nonzero" /><path id="8" transform="matrix(1 0 0 -1 0 842)" d="M113.9938 350.3398L440.115 350.3398L440.115 349.8442L113.9938 349.8442z" stroke="none" fill="#000000" fill-rule="nonzero" /><path id="9" transform="matrix(1 0 0 -1 0 842)" d="M113.9938 376.1123L114.4894 376.1123L114.4894 349.8442L113.9938 349.8442z" stroke="none" fill="#000000" fill-rule="nonzero" /><path id="10" transform="matrix(1 0 0 -1 0 842)" d="M439.6194 376.1123L440.115 376.1123L440.115 349.8442L439.6194 349.8442z" stroke="none" fill="#000000" fill-rule="nonzero" /><path id="11" transform="matrix(1 0 0 -1 0 842)" d="M439.6194 376.1123L520.4063 376.1123L520.4063 375.6167L439.6194 375.6167z" stroke="none" fill="#000000" fill-rule="nonzero" /><path id="12" transform="matrix(1 0 0 -1 0 842)" d="M439.6194 350.3398L520.4063 350.3398L520.4063 349.8442L439.6194 349.8442z" stroke="none" fill="#000000" fill-rule="nonzero" /><path id="13" transform="matrix(1 0 0 -1 0 842)" d="M439.6194 376.1123L440.115 376.1123L440.115 349.8442L439.6194 349.8442z" stroke="none" fill="#000000" fill-rule="nonzero" /><path id="14" transform="matrix(1 0 0 -1 0 842)" d="M519.9106 376.1123L520.4063 376.1123L520.4063 349.8442L519.9106 349.8442z" stroke="none" fill="#000000" fill-rule="nonzero" /><path id="15" transform="matrix(1 0 0 -1 0 842)" d="M74.34375 350.3398L114.4894 350.3398L114.4894 349.8442L74.34375 349.8442z" stroke="none" fill="#000000" fill-rule="nonzero" /><path id="16" transform="matrix(1 0 0 -1 0 842)" d="M74.34375 324.5674L114.4894 324.5674L114.4894 324.0718L74.34375 324.0718z" stroke="none" fill="#000000" fill-rule="nonzero" /><path id="17" transform="matrix(1 0 0 -1 0 842)" d="M74.34375 350.3398L74.83938 350.3398L74.83938 324.0718L74.34375 324.0718z" stroke="none" fill="#000000" fill-rule="nonzero" /><path id="18" transform="matrix(1 0 0 -1 0 842)" d="M113.9938 350.3398L114.4894 350.3398L114.4894 324.0718L113.9938 324.0718z" stroke="none" fill="#000000" fill-rule="nonzero" /><path id="19" transform="matrix(1 0 0 -1 0 842)" d="M113.9938 350.3398L440.115 350.3398L440.115 349.8442L113.9938 349.8442z" stroke="none" fill="#000000" fill-rule="nonzero" /><path id="20" transform="matrix(1 0 0 -1 0 842)" d="M113.9938 324.5674L440.115 324.5674L440.115 324.0718L113.9938 324.0718z" stroke="none" fill="#000000" fill-rule="nonzero" /><path id="21" transform="matrix(1 0 0 -1 0 842)" d="M113.9938 350.3398L114.4894 350.3398L114.4894 324.0718L113.9938 324.0718z" stroke="none" fill="#000000" fill-rule="nonzero" /><path id="22" transform="matrix(1 0 0 -1 0 842)" d="M439.6194 350.3398L440.115 350.3398L440.115 324.0718L439.6194 324.0718z" stroke="none" fill="#000000" fill-rule="nonzero" /><path id="23" transform="matrix(1 0 0 -1 0 842)" d="M439.6194 350.3398L520.4063 350.3398L520.4063 349.8442L439.6194 349.8442z" stroke="none" fill="#000000" fill-rule="nonzero" /><path id="24" transform="matrix(1 0 0 -1 0 842)" d="M439.6194 324.5674L520.4063 324.5674L520.4063 324.0718L439.6194 324.0718z" stroke="none" fill="#000000" fill-rule="nonzero" /><path id="25" transform="matrix(1 0 0 -1 0 842)" d="M439.6194 350.3398L440.115 350.3398L440.115 324.0718L439.6194 324.0718z" stroke="none" fill="#000000" fill-rule="nonzero" /><path id="26" transform="matrix(1 0 0 -1 0 842)" d="M519.9106 350.3398L520.4063 350.3398L520.4063 324.0718L519.9106 324.0718z" stroke="none" fill="#000000" fill-rule="nonzero" /><path id="27" transform="matrix(1 0 0 -1 0 842)" d="M74.34375 324.5674L114.4894 324.5674L114.4894 324.0718L74.34375 324.0718z" stroke="none" fill="#000000" fill-rule="nonzero" /><path id="28" transform="matrix(1 0 0 -1 0 842)" d="M74.34375 298.7949L114.4894 298.7949L114.4894 298.2993L74.34375 298.2993z" stroke="none" fill="#000000" fill-rule="nonzero" /><path id="29" transform="matrix(1 0 0 -1 0 842)" d="M74.34375 324.5674L74.83938 324.5674L74.83938 298.2993L74.34375 298.2993z" stroke="none" fill="#000000" fill-rule="nonzero" /><path id="30" transform="matrix(1 0 0 -1 0 842)" d="M113.9938 324.5674L114.4894 324.5674L114.4894 298.2993L113.9938 298.2993z" stroke="none" fill="#000000" fill-rule="nonzero" /><path id="31" transform="matrix(1 0 0 -1 0 842)" d="M113.9938 324.5674L440.115 324.5674L440.115 324.0718L113.9938 324.0718z" stroke="none" fill="#000000" fill-rule="nonzero" /><path id="32" transform="matrix(1 0 0 -1 0 842)" d="M113.9938 298.7949L440.115 298.7949L440.115 298.2993L113.9938 298.2993z" stroke="none" fill="#000000" fill-rule="nonzero" /><path id="33" transform="matrix(1 0 0 -1 0 842)" d="M113.9938 324.5674L114.4894 324.5674L114.4894 298.2993L113.9938 298.2993z" stroke="none" fill="#000000" fill-rule="nonzero" /><path id="34" transform="matrix(1 0 0 -1 0 842)" d="M439.6194 324.5674L440.115 324.5674L440.115 298.2993L439.6194 298.2993z" stroke="none" fill="#000000" fill-rule="nonzero" /><path id="35" transform="matrix(1 0 0 -1 0 842)" d="M439.6194 324.5674L520.4063 324.5674L520.4063 324.0718L439.6194 324.0718z" stroke="none" fill="#000000" fill-rule="nonzero" /><path id="36" transform="matrix(1 0 0 -1 0 842)" d="M439.6194 298.7949L520.4063 298.7949L520.4063 298.2993L439.6194 298.2993z" stroke="none" fill="#000000" fill-rule="nonzero" /><path id="37" transform="matrix(1 0 0 -1 0 842)" d="M439.6194 324.5674L440.115 324.5674L440.115 298.2993L439.6194 298.2993z" stroke="none" fill="#000000" fill-rule="nonzero" /><path id="38" transform="matrix(1 0 0 -1 0 842)" d="M519.9106 324.5674L520.4063 324.5674L520.4063 298.2993L519.9106 298.2993z" stroke="none" fill="#000000" fill-rule="nonzero" /><path id="39" transform="matrix(1 0 0 -1 0 842)" d="M74.34375 298.7949L114.4894 298.7949L114.4894 298.2993L74.34375 298.2993z" stroke="none" fill="#000000" fill-rule="nonzero" /><path id="40" transform="matrix(1 0 0 -1 0 842)" d="M74.34375 251.2148L114.4894 251.2148L114.4894 250.7192L74.34375 250.7192z" stroke="none" fill="#000000" fill-rule="nonzero" /><path id="41" transform="matrix(1 0 0 -1 0 842)" d="M74.34375 298.7949L74.83938 298.7949L74.83938 250.7192L74.34375 250.7192z" stroke="none" fill="#000000" fill-rule="nonzero" /><path id="42" transform="matrix(1 0 0 -1 0 842)" d="M113.9938 298.7949L114.4894 298.7949L114.4894 250.7192L113.9938 250.7192z" stroke="none" fill="#000000" fill-rule="nonzero" /><path id="43" transform="matrix(1 0 0 -1 0 842)" d="M113.9938 298.7949L440.115 298.7949L440.115 298.2993L113.9938 298.2993z" stroke="none" fill="#000000" fill-rule="nonzero" /><path id="44" transform="matrix(1 0 0 -1 0 842)" d="M113.9938 251.2148L440.115 251.2148L440.115 250.7192L113.9938 250.7192z" stroke="none" fill="#000000" fill-rule="nonzero" /><path id="45" transform="matrix(1 0 0 -1 0 842)" d="M113.9938 298.7949L114.4894 298.7949L114.4894 250.7192L113.9938 250.7192z" stroke="none" fill="#000000" fill-rule="nonzero" /><path id="46" transform="matrix(1 0 0 -1 0 842)" d="M439.6194 298.7949L440.115 298.7949L440.115 250.7192L439.6194 250.7192z" stroke="none" fill="#000000" fill-rule="nonzero" /><path id="47" transform="matrix(1 0 0 -1 0 842)" d="M439.6194 298.7949L520.4063 298.7949L520.4063 298.2993L439.6194 298.2993z" stroke="none" fill="#000000" fill-rule="nonzero" /><path id="48" transform="matrix(1 0 0 -1 0 842)" d="M439.6194 251.2148L520.4063 251.2148L520.4063 250.7192L439.6194 250.7192z" stroke="none" fill="#000000" fill-rule="nonzero" /><path id="49" transform="matrix(1 0 0 -1 0 842)" d="M439.6194 298.7949L440.115 298.7949L440.115 250.7192L439.6194 250.7192z" stroke="none" fill="#000000" fill-rule="nonzero" /><path id="50" transform="matrix(1 0 0 -1 0 842)" d="M519.9106 298.7949L520.4063 298.7949L520.4063 250.7192L519.9106 250.7192z" stroke="none" fill="#000000" fill-rule="nonzero" /><path id="51" transform="matrix(1 0 0 -1 0 842)" d="M74.34375 251.2148L114.4894 251.2148L114.4894 250.7192L74.34375 250.7192z" stroke="none" fill="#000000" fill-rule="nonzero" /><path id="52" transform="matrix(1 0 0 -1 0 842)" d="M74.34375 225.4424L114.4894 225.4424L114.4894 224.9468L74.34375 224.9468z" stroke="none" fill="#000000" fill-rule="nonzero" /><path id="53" transform="matrix(1 0 0 -1 0 842)" d="M74.34375 251.2148L74.83938 251.2148L74.83938 224.9468L74.34375 224.9468z" stroke="none" fill="#000000" fill-rule="nonzero" /><path id="54" transform="matrix(1 0 0 -1 0 842)" d="M113.9938 251.2148L114.4894 251.2148L114.4894 224.9468L113.9938 224.9468z" stroke="none" fill="#000000" fill-rule="nonzero" /><path id="55" transform="matrix(1 0 0 -1 0 842)" d="M113.9938 251.2148L440.115 251.2148L440.115 250.7192L113.9938 250.7192z" stroke="none" fill="#000000" fill-rule="nonzero" /><path id="56" transform="matrix(1 0 0 -1 0 842)" d="M113.9938 225.4424L440.115 225.4424L440.115 224.9468L113.9938 224.9468z" stroke="none" fill="#000000" fill-rule="nonzero" /><path id="57" transform="matrix(1 0 0 -1 0 842)" d="M113.9938 251.2148L114.4894 251.2148L114.4894 224.9468L113.9938 224.9468z" stroke="none" fill="#000000" fill-rule="nonzero" /><path id="58" transform="matrix(1 0 0 -1 0 842)" d="M439.6194 251.2148L440.115 251.2148L440.115 224.9468L439.6194 224.9468z" stroke="none" fill="#000000" fill-rule="nonzero" /><path id="59" transform="matrix(1 0 0 -1 0 842)" d="M439.6194 251.2148L520.4063 251.2148L520.4063 250.7192L439.6194 250.7192z" stroke="none" fill="#000000" fill-rule="nonzero" /><path id="60" transform="matrix(1 0 0 -1 0 842)" d="M439.6194 225.4424L520.4063 225.4424L520.4063 224.9468L439.6194 224.9468z" stroke="none" fill="#000000" fill-rule="nonzero" /><path id="61" transform="matrix(1 0 0 -1 0 842)" d="M439.6194 251.2148L440.115 251.2148L440.115 224.9468L439.6194 224.9468z" stroke="none" fill="#000000" fill-rule="nonzero" /><path id="62" transform="matrix(1 0 0 -1 0 842)" d="M519.9106 251.2148L520.4063 251.2148L520.4063 224.9468L519.9106 224.9468z" stroke="none" fill="#000000" fill-rule="nonzero" /><path id="63" transform="matrix(1 0 0 -1 0 842)" d="M74.34375 225.4424L114.4894 225.4424L114.4894 224.9468L74.34375 224.9468z" stroke="none" fill="#000000" fill-rule="nonzero" /><path id="64" transform="matrix(1 0 0 -1 0 842)" d="M74.34375 191.2441L114.4894 191.2441L114.4894 190.7485L74.34375 190.7485z" stroke="none" fill="#000000" fill-rule="nonzero" /><path id="65" transform="matrix(1 0 0 -1 0 842)" d="M74.34375 225.4424L74.83938 225.4424L74.83938 190.7485L74.34375 190.7485z" stroke="none" fill="#000000" fill-rule="nonzero" /><path id="66" transform="matrix(1 0 0 -1 0 842)" d="M113.9938 225.4424L114.4894 225.4424L114.4894 190.7485L113.9938 190.7485z" stroke="none" fill="#000000" fill-rule="nonzero" /><path id="67" transform="matrix(1 0 0 -1 0 842)" d="M113.9938 225.4424L440.115 225.4424L440.115 224.9468L113.9938 224.9468z" stroke="none" fill="#000000" fill-rule="nonzero" /><path id="68" transform="matrix(1 0 0 -1 0 842)" d="M113.9938 191.2441L440.115 191.2441L440.115 190.7485L113.9938 190.7485z" stroke="none" fill="#000000" fill-rule="nonzero" /><path id="69" transform="matrix(1 0 0 -1 0 842)" d="M113.9938 225.4424L114.4894 225.4424L114.4894 190.7485L113.9938 190.7485z" stroke="none" fill="#000000" fill-rule="nonzero" /><path id="70" transform="matrix(1 0 0 -1 0 842)" d="M439.6194 225.4424L440.115 225.4424L440.115 190.7485L439.6194 190.7485z" stroke="none" fill="#000000" fill-rule="nonzero" /><path id="71" transform="matrix(1 0 0 -1 0 842)" d="M439.6194 225.4424L520.4063 225.4424L520.4063 224.9468L439.6194 224.9468z" stroke="none" fill="#000000" fill-rule="nonzero" /><path id="72" transform="matrix(1 0 0 -1 0 842)" d="M439.6194 191.2441L520.4063 191.2441L520.4063 190.7485L439.6194 190.7485z" stroke="none" fill="#000000" fill-rule="nonzero" /><path id="73" transform="matrix(1 0 0 -1 0 842)" d="M439.6194 225.4424L440.115 225.4424L440.115 190.7485L439.6194 190.7485z" stroke="none" fill="#000000" fill-rule="nonzero" /><path id="74" transform="matrix(1 0 0 -1 0 842)" d="M519.9106 225.4424L520.4063 225.4424L520.4063 190.7485L519.9106 190.7485z" stroke="none" fill="#000000" fill-rule="nonzero" /><path id="75" transform="matrix(1 0 0 -1 0 842)" d="M74.34375 191.2441L114.4894 191.2441L114.4894 190.7485L74.34375 190.7485z" stroke="none" fill="#000000" fill-rule="nonzero" /><path id="76" transform="matrix(1 0 0 -1 0 842)" d="M74.34375 157.0459L114.4894 157.0459L114.4894 156.5503L74.34375 156.5503z" stroke="none" fill="#000000" fill-rule="nonzero" /><path id="77" transform="matrix(1 0 0 -1 0 842)" d="M74.34375 191.2441L74.83938 191.2441L74.83938 156.5503L74.34375 156.5503z" stroke="none" fill="#000000" fill-rule="nonzero" /><path id="78" transform="matrix(1 0 0 -1 0 842)" d="M113.9938 191.2441L114.4894 191.2441L114.4894 156.5503L113.9938 156.5503z" stroke="none" fill="#000000" fill-rule="nonzero" /><path id="79" transform="matrix(1 0 0 -1 0 842)" d="M113.9938 191.2441L440.115 191.2441L440.115 190.7485L113.9938 190.7485z" stroke="none" fill="#000000" fill-rule="nonzero" /><path id="80" transform="matrix(1 0 0 -1 0 842)" d="M113.9938 157.0459L440.115 157.0459L440.115 156.5503L113.9938 156.5503z" stroke="none" fill="#000000" fill-rule="nonzero" /><path id="81" transform="matrix(1 0 0 -1 0 842)" d="M113.9938 191.2441L114.4894 191.2441L114.4894 156.5503L113.9938 156.5503z" stroke="none" fill="#000000" fill-rule="nonzero" /><path id="82" transform="matrix(1 0 0 -1 0 842)" d="M439.6194 191.2441L440.115 191.2441L440.115 156.5503L439.6194 156.5503z" stroke="none" fill="#000000" fill-rule="nonzero" /><path id="83" transform="matrix(1 0 0 -1 0 842)" d="M439.6194 191.2441L520.4063 191.2441L520.4063 190.7485L439.6194 190.7485z" stroke="none" fill="#000000" fill-rule="nonzero" /><path id="84" transform="matrix(1 0 0 -1 0 842)" d="M439.6194 157.0459L520.4063 157.0459L520.4063 156.5503L439.6194 156.5503z" stroke="none" fill="#000000" fill-rule="nonzero" /><path id="85" transform="matrix(1 0 0 -1 0 842)" d="M439.6194 191.2441L440.115 191.2441L440.115 156.5503L439.6194 156.5503z" stroke="none" fill="#000000" fill-rule="nonzero" /><path id="86" transform="matrix(1 0 0 -1 0 842)" d="M519.9106 191.2441L520.4063 191.2441L520.4063 156.5503L519.9106 156.5503z" stroke="none" fill="#000000" fill-rule="nonzero" /><g transform="matrix(0.1449703 0 0 0.1351705 87.23 740.9594)"><g transform="matrix(1 0 0 1 0 0)"><image x="0" y="0" xlink:href="img_11.png" width="400" height="176" /></g></g><g transform="matrix(0.1486875 0 0 0.1464347 282.0106 739.9681)"><g transform="matrix(1 0 0 1 0 0)"><image x="0" y="0" xlink:href="img_12.png" width="400" height="176" /></g></g></g><g clip-path="url(#3)"><g clip-path="url(#4)"><g clip-path="url(#5)"></g><g clip-path="url(#6)"><g transform="matrix(0.1365979 0 0 0.1365979 302 664)"><g transform="matrix(1 0 0 1 0 0)"><image x="0" y="0" xlink:href="img_13.png" width="776" height="776" /></g></g></g></g></g></g></g></svg>