<svg xmlns="http://www.w3.org/2000/svg" xmlns:xlink="http://www.w3.org/1999/xlink" id="body_8" preserveAspectRatio="xMinYMin meet" viewBox="0 0 793 1123"><defs><clipPath id="1"><path id="" clip-rule="evenodd" transform="matrix(1 0 0 1 0 0)" d="M0 842L0 0L0 0L595 0L595 0L595 842L595 842L0 842z" /></clipPath><clipPath id="2"><path id="" clip-rule="evenodd" transform="matrix(1 0 0 1 0 0)" d="M0 0L594.75 0L594.75 0L594.75 842.0669L594.75 842.0669L0 842.0669L0 842.0669L0 0z" /></clipPath></defs><g transform="matrix(1.333333 0 0 1.333333 0 0)"><g clip-path="url(#1)"><g clip-path="url(#2)"><path id="1" transform="matrix(1 0 0 -1 0 842)" d="M0 842L594.75 842L594.75 -0.06689453L0 -0.06689453z" stroke="none" fill="#FFFFFF" fill-rule="nonzero" /><path id="2" transform="matrix(1 0 0 -1 0 842)" d="M49.5625 789.4639L223.5269 789.4639L223.5269 769.6387L49.5625 769.6387z" stroke="none" fill="#9CC9F0" fill-rule="nonzero" /><path id="3" transform="matrix(1 0 0 -1 0 842)" d="M223.5269 789.4639L396.5 789.4639L396.5 769.6387L223.5269 769.6387z" stroke="none" fill="#9CC9F0" fill-rule="nonzero" /><path id="4" transform="matrix(1 0 0 -1 0 842)" d="M396.5 789.4639L544.6919 789.4639L544.6919 769.6387L396.5 769.6387z" stroke="none" fill="#9CC9F0" fill-rule="nonzero" /><path id="5" transform="matrix(1 0 0 -1 0 842)" d="M49.5625 789.4639L224.0225 789.4639L224.0225 788.9683L49.5625 788.9683z" stroke="none" fill="#000000" fill-rule="nonzero" /><path id="6" transform="matrix(1 0 0 -1 0 842)" d="M49.5625 769.6387L224.0225 769.6387L224.0225 769.1431L49.5625 769.1431z" stroke="none" fill="#000000" fill-rule="nonzero" /><path id="7" transform="matrix(1 0 0 -1 0 842)" d="M49.5625 789.4639L50.05813 789.4639L50.05813 769.1431L49.5625 769.1431z" stroke="none" fill="#000000" fill-rule="nonzero" /><path id="8" transform="matrix(1 0 0 -1 0 842)" d="M223.5269 789.4639L224.0225 789.4639L224.0225 769.1431L223.5269 769.1431z" stroke="none" fill="#000000" fill-rule="nonzero" /><path id="9" transform="matrix(1 0 0 -1 0 842)" d="M223.5269 789.4639L396.9956 789.4639L396.9956 788.9683L223.5269 788.9683z" stroke="none" fill="#000000" fill-rule="nonzero" /><path id="10" transform="matrix(1 0 0 -1 0 842)" d="M223.5269 769.6387L396.9956 769.6387L396.9956 769.1431L223.5269 769.1431z" stroke="none" fill="#000000" fill-rule="nonzero" /><path id="11" transform="matrix(1 0 0 -1 0 842)" d="M223.5269 789.4639L224.0225 789.4639L224.0225 769.1431L223.5269 769.1431z" stroke="none" fill="#000000" fill-rule="nonzero" /><path id="12" transform="matrix(1 0 0 -1 0 842)" d="M396.5 789.4639L396.9956 789.4639L396.9956 769.1431L396.5 769.1431z" stroke="none" fill="#000000" fill-rule="nonzero" /><path id="13" transform="matrix(1 0 0 -1 0 842)" d="M396.5 789.4639L545.1875 789.4639L545.1875 788.9683L396.5 788.9683z" stroke="none" fill="#000000" fill-rule="nonzero" /><path id="14" transform="matrix(1 0 0 -1 0 842)" d="M396.5 769.6387L545.1875 769.6387L545.1875 769.1431L396.5 769.1431z" stroke="none" fill="#000000" fill-rule="nonzero" /><path id="15" transform="matrix(1 0 0 -1 0 842)" d="M396.5 789.4639L396.9956 789.4639L396.9956 769.1431L396.5 769.1431z" stroke="none" fill="#000000" fill-rule="nonzero" /><path id="16" transform="matrix(1 0 0 -1 0 842)" d="M544.6919 789.4639L545.1875 789.4639L545.1875 769.1431L544.6919 769.1431z" stroke="none" fill="#000000" fill-rule="nonzero" /><path id="17" transform="matrix(1 0 0 -1 0 842)" d="M49.5625 769.6387L157.6087 769.6387L157.6087 769.1431L49.5625 769.1431z" stroke="none" fill="#000000" fill-rule="nonzero" /><path id="18" transform="matrix(1 0 0 -1 0 842)" d="M49.5625 274.0137L157.6087 274.0137L157.6087 273.5181L49.5625 273.5181z" stroke="none" fill="#000000" fill-rule="nonzero" /><path id="19" transform="matrix(1 0 0 -1 0 842)" d="M49.5625 769.6387L50.05813 769.6387L50.05813 273.5181L49.5625 273.5181z" stroke="none" fill="#000000" fill-rule="nonzero" /><path id="20" transform="matrix(1 0 0 -1 0 842)" d="M157.1131 769.6387L157.6087 769.6387L157.6087 273.5181L157.1131 273.5181z" stroke="none" fill="#000000" fill-rule="nonzero" /><path id="21" transform="matrix(1 0 0 -1 0 842)" d="M157.1131 769.6387L224.0225 769.6387L224.0225 769.1431L157.1131 769.1431z" stroke="none" fill="#000000" fill-rule="nonzero" /><path id="22" transform="matrix(1 0 0 -1 0 842)" d="M157.1131 611.0386L224.0225 611.0386L224.0225 610.543L157.1131 610.543z" stroke="none" fill="#000000" fill-rule="nonzero" /><path id="23" transform="matrix(1 0 0 -1 0 842)" d="M157.1131 769.6387L157.6087 769.6387L157.6087 610.543L157.1131 610.543z" stroke="none" fill="#000000" fill-rule="nonzero" /><path id="24" transform="matrix(1 0 0 -1 0 842)" d="M223.5269 769.6387L224.0225 769.6387L224.0225 610.543L223.5269 610.543z" stroke="none" fill="#000000" fill-rule="nonzero" /><path id="25" transform="matrix(1 0 0 -1 0 842)" d="M223.5269 769.6387L396.9956 769.6387L396.9956 769.1431L223.5269 769.1431z" stroke="none" fill="#000000" fill-rule="nonzero" /><path id="26" transform="matrix(1 0 0 -1 0 842)" d="M223.5269 749.8135L396.9956 749.8135L396.9956 749.3179L223.5269 749.3179z" stroke="none" fill="#000000" fill-rule="nonzero" /><path id="27" transform="matrix(1 0 0 -1 0 842)" d="M223.5269 769.6387L224.0225 769.6387L224.0225 749.3179L223.5269 749.3179z" stroke="none" fill="#000000" fill-rule="nonzero" /><path id="28" transform="matrix(1 0 0 -1 0 842)" d="M396.5 769.6387L396.9956 769.6387L396.9956 749.3179L396.5 749.3179z" stroke="none" fill="#000000" fill-rule="nonzero" /><path id="29" transform="matrix(1 0 0 -1 0 842)" d="M396.5 769.6387L545.1875 769.6387L545.1875 769.1431L396.5 769.1431z" stroke="none" fill="#000000" fill-rule="nonzero" /><path id="30" transform="matrix(1 0 0 -1 0 842)" d="M396.5 749.8135L545.1875 749.8135L545.1875 749.3179L396.5 749.3179z" stroke="none" fill="#000000" fill-rule="nonzero" /><path id="31" transform="matrix(1 0 0 -1 0 842)" d="M396.5 769.6387L396.9956 769.6387L396.9956 749.3179L396.5 749.3179z" stroke="none" fill="#000000" fill-rule="nonzero" /><path id="32" transform="matrix(1 0 0 -1 0 842)" d="M544.6919 769.6387L545.1875 769.6387L545.1875 749.3179L544.6919 749.3179z" stroke="none" fill="#000000" fill-rule="nonzero" /><path id="33" transform="matrix(1 0 0 -1 0 842)" d="M223.5269 749.8135L396.9956 749.8135L396.9956 749.3179L223.5269 749.3179z" stroke="none" fill="#000000" fill-rule="nonzero" /><path id="34" transform="matrix(1 0 0 -1 0 842)" d="M223.5269 729.9888L396.9956 729.9888L396.9956 729.4932L223.5269 729.4932z" stroke="none" fill="#000000" fill-rule="nonzero" /><path id="35" transform="matrix(1 0 0 -1 0 842)" d="M223.5269 749.8135L224.0225 749.8135L224.0225 729.4932L223.5269 729.4932z" stroke="none" fill="#000000" fill-rule="nonzero" /><path id="36" transform="matrix(1 0 0 -1 0 842)" d="M396.5 749.8135L396.9956 749.8135L396.9956 729.4932L396.5 729.4932z" stroke="none" fill="#000000" fill-rule="nonzero" /><path id="37" transform="matrix(1 0 0 -1 0 842)" d="M396.5 749.8135L545.1875 749.8135L545.1875 749.3179L396.5 749.3179z" stroke="none" fill="#000000" fill-rule="nonzero" /><path id="38" transform="matrix(1 0 0 -1 0 842)" d="M396.5 729.9888L545.1875 729.9888L545.1875 729.4932L396.5 729.4932z" stroke="none" fill="#000000" fill-rule="nonzero" /><path id="39" transform="matrix(1 0 0 -1 0 842)" d="M396.5 749.8135L396.9956 749.8135L396.9956 729.4932L396.5 729.4932z" stroke="none" fill="#000000" fill-rule="nonzero" /><path id="40" transform="matrix(1 0 0 -1 0 842)" d="M544.6919 749.8135L545.1875 749.8135L545.1875 729.4932L544.6919 729.4932z" stroke="none" fill="#000000" fill-rule="nonzero" /><path id="41" transform="matrix(1 0 0 -1 0 842)" d="M223.5269 729.9888L396.9956 729.9888L396.9956 729.4932L223.5269 729.4932z" stroke="none" fill="#000000" fill-rule="nonzero" /><path id="42" transform="matrix(1 0 0 -1 0 842)" d="M223.5269 710.1636L396.9956 710.1636L396.9956 709.668L223.5269 709.668z" stroke="none" fill="#000000" fill-rule="nonzero" /><path id="43" transform="matrix(1 0 0 -1 0 842)" d="M223.5269 729.9888L224.0225 729.9888L224.0225 709.668L223.5269 709.668z" stroke="none" fill="#000000" fill-rule="nonzero" /><path id="44" transform="matrix(1 0 0 -1 0 842)" d="M396.5 729.9888L396.9956 729.9888L396.9956 709.668L396.5 709.668z" stroke="none" fill="#000000" fill-rule="nonzero" /><path id="45" transform="matrix(1 0 0 -1 0 842)" d="M396.5 729.9888L545.1875 729.9888L545.1875 729.4932L396.5 729.4932z" stroke="none" fill="#000000" fill-rule="nonzero" /><path id="46" transform="matrix(1 0 0 -1 0 842)" d="M396.5 710.1636L545.1875 710.1636L545.1875 709.668L396.5 709.668z" stroke="none" fill="#000000" fill-rule="nonzero" /><path id="47" transform="matrix(1 0 0 -1 0 842)" d="M396.5 729.9888L396.9956 729.9888L396.9956 709.668L396.5 709.668z" stroke="none" fill="#000000" fill-rule="nonzero" /><path id="48" transform="matrix(1 0 0 -1 0 842)" d="M544.6919 729.9888L545.1875 729.9888L545.1875 709.668L544.6919 709.668z" stroke="none" fill="#000000" fill-rule="nonzero" /><path id="49" transform="matrix(1 0 0 -1 0 842)" d="M223.5269 710.1636L396.9956 710.1636L396.9956 709.668L223.5269 709.668z" stroke="none" fill="#000000" fill-rule="nonzero" /><path id="50" transform="matrix(1 0 0 -1 0 842)" d="M223.5269 690.3389L396.9956 690.3389L396.9956 689.8433L223.5269 689.8433z" stroke="none" fill="#000000" fill-rule="nonzero" /><path id="51" transform="matrix(1 0 0 -1 0 842)" d="M223.5269 710.1636L224.0225 710.1636L224.0225 689.8433L223.5269 689.8433z" stroke="none" fill="#000000" fill-rule="nonzero" /><path id="52" transform="matrix(1 0 0 -1 0 842)" d="M396.5 710.1636L396.9956 710.1636L396.9956 689.8433L396.5 689.8433z" stroke="none" fill="#000000" fill-rule="nonzero" /><path id="53" transform="matrix(1 0 0 -1 0 842)" d="M396.5 710.1636L545.1875 710.1636L545.1875 709.668L396.5 709.668z" stroke="none" fill="#000000" fill-rule="nonzero" /><path id="54" transform="matrix(1 0 0 -1 0 842)" d="M396.5 690.3389L545.1875 690.3389L545.1875 689.8433L396.5 689.8433z" stroke="none" fill="#000000" fill-rule="nonzero" /><path id="55" transform="matrix(1 0 0 -1 0 842)" d="M396.5 710.1636L396.9956 710.1636L396.9956 689.8433L396.5 689.8433z" stroke="none" fill="#000000" fill-rule="nonzero" /><path id="56" transform="matrix(1 0 0 -1 0 842)" d="M544.6919 710.1636L545.1875 710.1636L545.1875 689.8433L544.6919 689.8433z" stroke="none" fill="#000000" fill-rule="nonzero" /><path id="57" transform="matrix(1 0 0 -1 0 842)" d="M223.5269 690.3389L396.9956 690.3389L396.9956 689.8433L223.5269 689.8433z" stroke="none" fill="#000000" fill-rule="nonzero" /><path id="58" transform="matrix(1 0 0 -1 0 842)" d="M223.5269 670.5137L396.9956 670.5137L396.9956 670.0181L223.5269 670.0181z" stroke="none" fill="#000000" fill-rule="nonzero" /><path id="59" transform="matrix(1 0 0 -1 0 842)" d="M223.5269 690.3389L224.0225 690.3389L224.0225 670.0181L223.5269 670.0181z" stroke="none" fill="#000000" fill-rule="nonzero" /><path id="60" transform="matrix(1 0 0 -1 0 842)" d="M396.5 690.3389L396.9956 690.3389L396.9956 670.0181L396.5 670.0181z" stroke="none" fill="#000000" fill-rule="nonzero" /><path id="61" transform="matrix(1 0 0 -1 0 842)" d="M396.5 690.3389L545.1875 690.3389L545.1875 689.8433L396.5 689.8433z" stroke="none" fill="#000000" fill-rule="nonzero" /><path id="62" transform="matrix(1 0 0 -1 0 842)" d="M396.5 670.5137L545.1875 670.5137L545.1875 670.0181L396.5 670.0181z" stroke="none" fill="#000000" fill-rule="nonzero" /><path id="63" transform="matrix(1 0 0 -1 0 842)" d="M396.5 690.3389L396.9956 690.3389L396.9956 670.0181L396.5 670.0181z" stroke="none" fill="#000000" fill-rule="nonzero" /><path id="64" transform="matrix(1 0 0 -1 0 842)" d="M544.6919 690.3389L545.1875 690.3389L545.1875 670.0181L544.6919 670.0181z" stroke="none" fill="#000000" fill-rule="nonzero" /><path id="65" transform="matrix(1 0 0 -1 0 842)" d="M223.5269 670.5137L396.9956 670.5137L396.9956 670.0181L223.5269 670.0181z" stroke="none" fill="#000000" fill-rule="nonzero" /><path id="66" transform="matrix(1 0 0 -1 0 842)" d="M223.5269 650.6885L396.9956 650.6885L396.9956 650.1929L223.5269 650.1929z" stroke="none" fill="#000000" fill-rule="nonzero" /><path id="67" transform="matrix(1 0 0 -1 0 842)" d="M223.5269 670.5137L224.0225 670.5137L224.0225 650.1929L223.5269 650.1929z" stroke="none" fill="#000000" fill-rule="nonzero" /><path id="68" transform="matrix(1 0 0 -1 0 842)" d="M396.5 670.5137L396.9956 670.5137L396.9956 650.1929L396.5 650.1929z" stroke="none" fill="#000000" fill-rule="nonzero" /><path id="69" transform="matrix(1 0 0 -1 0 842)" d="M396.5 670.5137L545.1875 670.5137L545.1875 670.0181L396.5 670.0181z" stroke="none" fill="#000000" fill-rule="nonzero" /><path id="70" transform="matrix(1 0 0 -1 0 842)" d="M396.5 650.6885L545.1875 650.6885L545.1875 650.1929L396.5 650.1929z" stroke="none" fill="#000000" fill-rule="nonzero" /><path id="71" transform="matrix(1 0 0 -1 0 842)" d="M396.5 670.5137L396.9956 670.5137L396.9956 650.1929L396.5 650.1929z" stroke="none" fill="#000000" fill-rule="nonzero" /><path id="72" transform="matrix(1 0 0 -1 0 842)" d="M544.6919 670.5137L545.1875 670.5137L545.1875 650.1929L544.6919 650.1929z" stroke="none" fill="#000000" fill-rule="nonzero" /><path id="73" transform="matrix(1 0 0 -1 0 842)" d="M223.5269 650.6885L396.9956 650.6885L396.9956 650.1929L223.5269 650.1929z" stroke="none" fill="#000000" fill-rule="nonzero" /><path id="74" transform="matrix(1 0 0 -1 0 842)" d="M223.5269 630.8638L396.9956 630.8638L396.9956 630.3682L223.5269 630.3682z" stroke="none" fill="#000000" fill-rule="nonzero" /><path id="75" transform="matrix(1 0 0 -1 0 842)" d="M223.5269 650.6885L224.0225 650.6885L224.0225 630.3682L223.5269 630.3682z" stroke="none" fill="#000000" fill-rule="nonzero" /><path id="76" transform="matrix(1 0 0 -1 0 842)" d="M396.5 650.6885L396.9956 650.6885L396.9956 630.3682L396.5 630.3682z" stroke="none" fill="#000000" fill-rule="nonzero" /><path id="77" transform="matrix(1 0 0 -1 0 842)" d="M396.5 650.6885L545.1875 650.6885L545.1875 650.1929L396.5 650.1929z" stroke="none" fill="#000000" fill-rule="nonzero" /><path id="78" transform="matrix(1 0 0 -1 0 842)" d="M396.5 630.8638L545.1875 630.8638L545.1875 630.3682L396.5 630.3682z" stroke="none" fill="#000000" fill-rule="nonzero" /><path id="79" transform="matrix(1 0 0 -1 0 842)" d="M396.5 650.6885L396.9956 650.6885L396.9956 630.3682L396.5 630.3682z" stroke="none" fill="#000000" fill-rule="nonzero" /><path id="80" transform="matrix(1 0 0 -1 0 842)" d="M544.6919 650.6885L545.1875 650.6885L545.1875 630.3682L544.6919 630.3682z" stroke="none" fill="#000000" fill-rule="nonzero" /><path id="81" transform="matrix(1 0 0 -1 0 842)" d="M223.5269 630.8638L396.9956 630.8638L396.9956 630.3682L223.5269 630.3682z" stroke="none" fill="#000000" fill-rule="nonzero" /><path id="82" transform="matrix(1 0 0 -1 0 842)" d="M223.5269 611.0386L396.9956 611.0386L396.9956 610.543L223.5269 610.543z" stroke="none" fill="#000000" fill-rule="nonzero" /><path id="83" transform="matrix(1 0 0 -1 0 842)" d="M223.5269 630.8638L224.0225 630.8638L224.0225 610.543L223.5269 610.543z" stroke="none" fill="#000000" fill-rule="nonzero" /><path id="84" transform="matrix(1 0 0 -1 0 842)" d="M396.5 630.8638L396.9956 630.8638L396.9956 610.543L396.5 610.543z" stroke="none" fill="#000000" fill-rule="nonzero" /><path id="85" transform="matrix(1 0 0 -1 0 842)" d="M396.5 630.8638L545.1875 630.8638L545.1875 630.3682L396.5 630.3682z" stroke="none" fill="#000000" fill-rule="nonzero" /><path id="86" transform="matrix(1 0 0 -1 0 842)" d="M396.5 611.0386L545.1875 611.0386L545.1875 610.543L396.5 610.543z" stroke="none" fill="#000000" fill-rule="nonzero" /><path id="87" transform="matrix(1 0 0 -1 0 842)" d="M396.5 630.8638L396.9956 630.8638L396.9956 610.543L396.5 610.543z" stroke="none" fill="#000000" fill-rule="nonzero" /><path id="88" transform="matrix(1 0 0 -1 0 842)" d="M544.6919 630.8638L545.1875 630.8638L545.1875 610.543L544.6919 610.543z" stroke="none" fill="#000000" fill-rule="nonzero" /><path id="89" transform="matrix(1 0 0 -1 0 842)" d="M157.1131 611.0386L224.0225 611.0386L224.0225 610.543L157.1131 610.543z" stroke="none" fill="#000000" fill-rule="nonzero" /><path id="90" transform="matrix(1 0 0 -1 0 842)" d="M157.1131 571.3887L224.0225 571.3887L224.0225 570.8931L157.1131 570.8931z" stroke="none" fill="#000000" fill-rule="nonzero" /><path id="91" transform="matrix(1 0 0 -1 0 842)" d="M157.1131 611.0386L157.6087 611.0386L157.6087 570.8931L157.1131 570.8931z" stroke="none" fill="#000000" fill-rule="nonzero" /><path id="92" transform="matrix(1 0 0 -1 0 842)" d="M223.5269 611.0386L224.0225 611.0386L224.0225 570.8931L223.5269 570.8931z" stroke="none" fill="#000000" fill-rule="nonzero" /><path id="93" transform="matrix(1 0 0 -1 0 842)" d="M223.5269 611.0386L396.9956 611.0386L396.9956 610.543L223.5269 610.543z" stroke="none" fill="#000000" fill-rule="nonzero" /><path id="94" transform="matrix(1 0 0 -1 0 842)" d="M223.5269 591.2139L396.9956 591.2139L396.9956 590.7183L223.5269 590.7183z" stroke="none" fill="#000000" fill-rule="nonzero" /><path id="95" transform="matrix(1 0 0 -1 0 842)" d="M223.5269 611.0386L224.0225 611.0386L224.0225 590.7183L223.5269 590.7183z" stroke="none" fill="#000000" fill-rule="nonzero" /><path id="96" transform="matrix(1 0 0 -1 0 842)" d="M396.5 611.0386L396.9956 611.0386L396.9956 590.7183L396.5 590.7183z" stroke="none" fill="#000000" fill-rule="nonzero" /><path id="97" transform="matrix(1 0 0 -1 0 842)" d="M396.5 611.0386L545.1875 611.0386L545.1875 610.543L396.5 610.543z" stroke="none" fill="#000000" fill-rule="nonzero" /><path id="98" transform="matrix(1 0 0 -1 0 842)" d="M396.5 591.2139L545.1875 591.2139L545.1875 590.7183L396.5 590.7183z" stroke="none" fill="#000000" fill-rule="nonzero" /><path id="99" transform="matrix(1 0 0 -1 0 842)" d="M396.5 611.0386L396.9956 611.0386L396.9956 590.7183L396.5 590.7183z" stroke="none" fill="#000000" fill-rule="nonzero" /><path id="100" transform="matrix(1 0 0 -1 0 842)" d="M544.6919 611.0386L545.1875 611.0386L545.1875 590.7183L544.6919 590.7183z" stroke="none" fill="#000000" fill-rule="nonzero" /><path id="101" transform="matrix(1 0 0 -1 0 842)" d="M223.5269 591.2139L396.9956 591.2139L396.9956 590.7183L223.5269 590.7183z" stroke="none" fill="#000000" fill-rule="nonzero" /><path id="102" transform="matrix(1 0 0 -1 0 842)" d="M223.5269 571.3887L396.9956 571.3887L396.9956 570.8931L223.5269 570.8931z" stroke="none" fill="#000000" fill-rule="nonzero" /><path id="103" transform="matrix(1 0 0 -1 0 842)" d="M223.5269 591.2139L224.0225 591.2139L224.0225 570.8931L223.5269 570.8931z" stroke="none" fill="#000000" fill-rule="nonzero" /><path id="104" transform="matrix(1 0 0 -1 0 842)" d="M396.5 591.2139L396.9956 591.2139L396.9956 570.8931L396.5 570.8931z" stroke="none" fill="#000000" fill-rule="nonzero" /><path id="105" transform="matrix(1 0 0 -1 0 842)" d="M396.5 591.2139L545.1875 591.2139L545.1875 590.7183L396.5 590.7183z" stroke="none" fill="#000000" fill-rule="nonzero" /><path id="106" transform="matrix(1 0 0 -1 0 842)" d="M396.5 571.3887L545.1875 571.3887L545.1875 570.8931L396.5 570.8931z" stroke="none" fill="#000000" fill-rule="nonzero" /><path id="107" transform="matrix(1 0 0 -1 0 842)" d="M396.5 591.2139L396.9956 591.2139L396.9956 570.8931L396.5 570.8931z" stroke="none" fill="#000000" fill-rule="nonzero" /><path id="108" transform="matrix(1 0 0 -1 0 842)" d="M544.6919 591.2139L545.1875 591.2139L545.1875 570.8931L544.6919 570.8931z" stroke="none" fill="#000000" fill-rule="nonzero" /><path id="109" transform="matrix(1 0 0 -1 0 842)" d="M157.1131 571.3887L224.0225 571.3887L224.0225 570.8931L157.1131 570.8931z" stroke="none" fill="#000000" fill-rule="nonzero" /><path id="110" transform="matrix(1 0 0 -1 0 842)" d="M157.1131 452.4385L224.0225 452.4385L224.0225 451.9429L157.1131 451.9429z" stroke="none" fill="#000000" fill-rule="nonzero" /><path id="111" transform="matrix(1 0 0 -1 0 842)" d="M157.1131 571.3887L157.6087 571.3887L157.6087 451.9429L157.1131 451.9429z" stroke="none" fill="#000000" fill-rule="nonzero" /><path id="112" transform="matrix(1 0 0 -1 0 842)" d="M223.5269 571.3887L224.0225 571.3887L224.0225 451.9429L223.5269 451.9429z" stroke="none" fill="#000000" fill-rule="nonzero" /><path id="113" transform="matrix(1 0 0 -1 0 842)" d="M223.5269 571.3887L396.9956 571.3887L396.9956 570.8931L223.5269 570.8931z" stroke="none" fill="#000000" fill-rule="nonzero" /><path id="114" transform="matrix(1 0 0 -1 0 842)" d="M223.5269 551.5635L396.9956 551.5635L396.9956 551.0679L223.5269 551.0679z" stroke="none" fill="#000000" fill-rule="nonzero" /><path id="115" transform="matrix(1 0 0 -1 0 842)" d="M223.5269 571.3887L224.0225 571.3887L224.0225 551.0679L223.5269 551.0679z" stroke="none" fill="#000000" fill-rule="nonzero" /><path id="116" transform="matrix(1 0 0 -1 0 842)" d="M396.5 571.3887L396.9956 571.3887L396.9956 551.0679L396.5 551.0679z" stroke="none" fill="#000000" fill-rule="nonzero" /><path id="117" transform="matrix(1 0 0 -1 0 842)" d="M396.5 571.3887L545.1875 571.3887L545.1875 570.8931L396.5 570.8931z" stroke="none" fill="#000000" fill-rule="nonzero" /><path id="118" transform="matrix(1 0 0 -1 0 842)" d="M396.5 551.5635L545.1875 551.5635L545.1875 551.0679L396.5 551.0679z" stroke="none" fill="#000000" fill-rule="nonzero" /><path id="119" transform="matrix(1 0 0 -1 0 842)" d="M396.5 571.3887L396.9956 571.3887L396.9956 551.0679L396.5 551.0679z" stroke="none" fill="#000000" fill-rule="nonzero" /><path id="120" transform="matrix(1 0 0 -1 0 842)" d="M544.6919 571.3887L545.1875 571.3887L545.1875 551.0679L544.6919 551.0679z" stroke="none" fill="#000000" fill-rule="nonzero" /><path id="121" transform="matrix(1 0 0 -1 0 842)" d="M223.5269 551.5635L396.9956 551.5635L396.9956 551.0679L223.5269 551.0679z" stroke="none" fill="#000000" fill-rule="nonzero" /><path id="122" transform="matrix(1 0 0 -1 0 842)" d="M223.5269 531.7388L396.9956 531.7388L396.9956 531.2432L223.5269 531.2432z" stroke="none" fill="#000000" fill-rule="nonzero" /><path id="123" transform="matrix(1 0 0 -1 0 842)" d="M223.5269 551.5635L224.0225 551.5635L224.0225 531.2432L223.5269 531.2432z" stroke="none" fill="#000000" fill-rule="nonzero" /><path id="124" transform="matrix(1 0 0 -1 0 842)" d="M396.5 551.5635L396.9956 551.5635L396.9956 531.2432L396.5 531.2432z" stroke="none" fill="#000000" fill-rule="nonzero" /><path id="125" transform="matrix(1 0 0 -1 0 842)" d="M396.5 551.5635L545.1875 551.5635L545.1875 551.0679L396.5 551.0679z" stroke="none" fill="#000000" fill-rule="nonzero" /><path id="126" transform="matrix(1 0 0 -1 0 842)" d="M396.5 531.7388L545.1875 531.7388L545.1875 531.2432L396.5 531.2432z" stroke="none" fill="#000000" fill-rule="nonzero" /><path id="127" transform="matrix(1 0 0 -1 0 842)" d="M396.5 551.5635L396.9956 551.5635L396.9956 531.2432L396.5 531.2432z" stroke="none" fill="#000000" fill-rule="nonzero" /><path id="128" transform="matrix(1 0 0 -1 0 842)" d="M544.6919 551.5635L545.1875 551.5635L545.1875 531.2432L544.6919 531.2432z" stroke="none" fill="#000000" fill-rule="nonzero" /><path id="129" transform="matrix(1 0 0 -1 0 842)" d="M223.5269 531.7388L396.9956 531.7388L396.9956 531.2432L223.5269 531.2432z" stroke="none" fill="#000000" fill-rule="nonzero" /><path id="130" transform="matrix(1 0 0 -1 0 842)" d="M223.5269 511.9136L396.9956 511.9136L396.9956 511.418L223.5269 511.418z" stroke="none" fill="#000000" fill-rule="nonzero" /><path id="131" transform="matrix(1 0 0 -1 0 842)" d="M223.5269 531.7388L224.0225 531.7388L224.0225 511.418L223.5269 511.418z" stroke="none" fill="#000000" fill-rule="nonzero" /><path id="132" transform="matrix(1 0 0 -1 0 842)" d="M396.5 531.7388L396.9956 531.7388L396.9956 511.418L396.5 511.418z" stroke="none" fill="#000000" fill-rule="nonzero" /><path id="133" transform="matrix(1 0 0 -1 0 842)" d="M396.5 531.7388L545.1875 531.7388L545.1875 531.2432L396.5 531.2432z" stroke="none" fill="#000000" fill-rule="nonzero" /><path id="134" transform="matrix(1 0 0 -1 0 842)" d="M396.5 511.9136L545.1875 511.9136L545.1875 511.418L396.5 511.418z" stroke="none" fill="#000000" fill-rule="nonzero" /><path id="135" transform="matrix(1 0 0 -1 0 842)" d="M396.5 531.7388L396.9956 531.7388L396.9956 511.418L396.5 511.418z" stroke="none" fill="#000000" fill-rule="nonzero" /><path id="136" transform="matrix(1 0 0 -1 0 842)" d="M544.6919 531.7388L545.1875 531.7388L545.1875 511.418L544.6919 511.418z" stroke="none" fill="#000000" fill-rule="nonzero" /><path id="137" transform="matrix(1 0 0 -1 0 842)" d="M223.5269 511.9136L396.9956 511.9136L396.9956 511.418L223.5269 511.418z" stroke="none" fill="#000000" fill-rule="nonzero" /><path id="138" transform="matrix(1 0 0 -1 0 842)" d="M223.5269 492.0889L396.9956 492.0889L396.9956 491.5933L223.5269 491.5933z" stroke="none" fill="#000000" fill-rule="nonzero" /><path id="139" transform="matrix(1 0 0 -1 0 842)" d="M223.5269 511.9136L224.0225 511.9136L224.0225 491.5933L223.5269 491.5933z" stroke="none" fill="#000000" fill-rule="nonzero" /><path id="140" transform="matrix(1 0 0 -1 0 842)" d="M396.5 511.9136L396.9956 511.9136L396.9956 491.5933L396.5 491.5933z" stroke="none" fill="#000000" fill-rule="nonzero" /><path id="141" transform="matrix(1 0 0 -1 0 842)" d="M396.5 511.9136L545.1875 511.9136L545.1875 511.418L396.5 511.418z" stroke="none" fill="#000000" fill-rule="nonzero" /><path id="142" transform="matrix(1 0 0 -1 0 842)" d="M396.5 492.0889L545.1875 492.0889L545.1875 491.5933L396.5 491.5933z" stroke="none" fill="#000000" fill-rule="nonzero" /><path id="143" transform="matrix(1 0 0 -1 0 842)" d="M396.5 511.9136L396.9956 511.9136L396.9956 491.5933L396.5 491.5933z" stroke="none" fill="#000000" fill-rule="nonzero" /><path id="144" transform="matrix(1 0 0 -1 0 842)" d="M544.6919 511.9136L545.1875 511.9136L545.1875 491.5933L544.6919 491.5933z" stroke="none" fill="#000000" fill-rule="nonzero" /><path id="145" transform="matrix(1 0 0 -1 0 842)" d="M223.5269 492.0889L396.9956 492.0889L396.9956 491.5933L223.5269 491.5933z" stroke="none" fill="#000000" fill-rule="nonzero" /><path id="146" transform="matrix(1 0 0 -1 0 842)" d="M223.5269 472.2637L396.9956 472.2637L396.9956 471.7681L223.5269 471.7681z" stroke="none" fill="#000000" fill-rule="nonzero" /><path id="147" transform="matrix(1 0 0 -1 0 842)" d="M223.5269 492.0889L224.0225 492.0889L224.0225 471.7681L223.5269 471.7681z" stroke="none" fill="#000000" fill-rule="nonzero" /><path id="148" transform="matrix(1 0 0 -1 0 842)" d="M396.5 492.0889L396.9956 492.0889L396.9956 471.7681L396.5 471.7681z" stroke="none" fill="#000000" fill-rule="nonzero" /><path id="149" transform="matrix(1 0 0 -1 0 842)" d="M396.5 492.0889L545.1875 492.0889L545.1875 491.5933L396.5 491.5933z" stroke="none" fill="#000000" fill-rule="nonzero" /><path id="150" transform="matrix(1 0 0 -1 0 842)" d="M396.5 472.2637L545.1875 472.2637L545.1875 471.7681L396.5 471.7681z" stroke="none" fill="#000000" fill-rule="nonzero" /><path id="151" transform="matrix(1 0 0 -1 0 842)" d="M396.5 492.0889L396.9956 492.0889L396.9956 471.7681L396.5 471.7681z" stroke="none" fill="#000000" fill-rule="nonzero" /><path id="152" transform="matrix(1 0 0 -1 0 842)" d="M544.6919 492.0889L545.1875 492.0889L545.1875 471.7681L544.6919 471.7681z" stroke="none" fill="#000000" fill-rule="nonzero" /><path id="153" transform="matrix(1 0 0 -1 0 842)" d="M223.5269 472.2637L396.9956 472.2637L396.9956 471.7681L223.5269 471.7681z" stroke="none" fill="#000000" fill-rule="nonzero" /><path id="154" transform="matrix(1 0 0 -1 0 842)" d="M223.5269 452.4385L396.9956 452.4385L396.9956 451.9429L223.5269 451.9429z" stroke="none" fill="#000000" fill-rule="nonzero" /><path id="155" transform="matrix(1 0 0 -1 0 842)" d="M223.5269 472.2637L224.0225 472.2637L224.0225 451.9429L223.5269 451.9429z" stroke="none" fill="#000000" fill-rule="nonzero" /><path id="156" transform="matrix(1 0 0 -1 0 842)" d="M396.5 472.2637L396.9956 472.2637L396.9956 451.9429L396.5 451.9429z" stroke="none" fill="#000000" fill-rule="nonzero" /><path id="157" transform="matrix(1 0 0 -1 0 842)" d="M396.5 472.2637L545.1875 472.2637L545.1875 471.7681L396.5 471.7681z" stroke="none" fill="#000000" fill-rule="nonzero" /><path id="158" transform="matrix(1 0 0 -1 0 842)" d="M396.5 452.4385L545.1875 452.4385L545.1875 451.9429L396.5 451.9429z" stroke="none" fill="#000000" fill-rule="nonzero" /><path id="159" transform="matrix(1 0 0 -1 0 842)" d="M396.5 472.2637L396.9956 472.2637L396.9956 451.9429L396.5 451.9429z" stroke="none" fill="#000000" fill-rule="nonzero" /><path id="160" transform="matrix(1 0 0 -1 0 842)" d="M544.6919 472.2637L545.1875 472.2637L545.1875 451.9429L544.6919 451.9429z" stroke="none" fill="#000000" fill-rule="nonzero" /><path id="161" transform="matrix(1 0 0 -1 0 842)" d="M157.1131 452.4385L224.0225 452.4385L224.0225 451.9429L157.1131 451.9429z" stroke="none" fill="#000000" fill-rule="nonzero" /><path id="162" transform="matrix(1 0 0 -1 0 842)" d="M157.1131 333.4888L224.0225 333.4888L224.0225 332.9932L157.1131 332.9932z" stroke="none" fill="#000000" fill-rule="nonzero" /><path id="163" transform="matrix(1 0 0 -1 0 842)" d="M157.1131 452.4385L157.6087 452.4385L157.6087 332.9932L157.1131 332.9932z" stroke="none" fill="#000000" fill-rule="nonzero" /><path id="164" transform="matrix(1 0 0 -1 0 842)" d="M223.5269 452.4385L224.0225 452.4385L224.0225 332.9932L223.5269 332.9932z" stroke="none" fill="#000000" fill-rule="nonzero" /><path id="165" transform="matrix(1 0 0 -1 0 842)" d="M223.5269 452.4385L396.9956 452.4385L396.9956 451.9429L223.5269 451.9429z" stroke="none" fill="#000000" fill-rule="nonzero" /><path id="166" transform="matrix(1 0 0 -1 0 842)" d="M223.5269 432.6138L396.9956 432.6138L396.9956 432.1182L223.5269 432.1182z" stroke="none" fill="#000000" fill-rule="nonzero" /><path id="167" transform="matrix(1 0 0 -1 0 842)" d="M223.5269 452.4385L224.0225 452.4385L224.0225 432.1182L223.5269 432.1182z" stroke="none" fill="#000000" fill-rule="nonzero" /><path id="168" transform="matrix(1 0 0 -1 0 842)" d="M396.5 452.4385L396.9956 452.4385L396.9956 432.1182L396.5 432.1182z" stroke="none" fill="#000000" fill-rule="nonzero" /><path id="169" transform="matrix(1 0 0 -1 0 842)" d="M396.5 452.4385L545.1875 452.4385L545.1875 451.9429L396.5 451.9429z" stroke="none" fill="#000000" fill-rule="nonzero" /><path id="170" transform="matrix(1 0 0 -1 0 842)" d="M396.5 432.6138L545.1875 432.6138L545.1875 432.1182L396.5 432.1182z" stroke="none" fill="#000000" fill-rule="nonzero" /><path id="171" transform="matrix(1 0 0 -1 0 842)" d="M396.5 452.4385L396.9956 452.4385L396.9956 432.1182L396.5 432.1182z" stroke="none" fill="#000000" fill-rule="nonzero" /><path id="172" transform="matrix(1 0 0 -1 0 842)" d="M544.6919 452.4385L545.1875 452.4385L545.1875 432.1182L544.6919 432.1182z" stroke="none" fill="#000000" fill-rule="nonzero" /><path id="173" transform="matrix(1 0 0 -1 0 842)" d="M223.5269 432.6138L396.9956 432.6138L396.9956 432.1182L223.5269 432.1182z" stroke="none" fill="#000000" fill-rule="nonzero" /><path id="174" transform="matrix(1 0 0 -1 0 842)" d="M223.5269 412.7886L396.9956 412.7886L396.9956 412.293L223.5269 412.293z" stroke="none" fill="#000000" fill-rule="nonzero" /><path id="175" transform="matrix(1 0 0 -1 0 842)" d="M223.5269 432.6138L224.0225 432.6138L224.0225 412.293L223.5269 412.293z" stroke="none" fill="#000000" fill-rule="nonzero" /><path id="176" transform="matrix(1 0 0 -1 0 842)" d="M396.5 432.6138L396.9956 432.6138L396.9956 412.293L396.5 412.293z" stroke="none" fill="#000000" fill-rule="nonzero" /><path id="177" transform="matrix(1 0 0 -1 0 842)" d="M396.5 432.6138L545.1875 432.6138L545.1875 432.1182L396.5 432.1182z" stroke="none" fill="#000000" fill-rule="nonzero" /><path id="178" transform="matrix(1 0 0 -1 0 842)" d="M396.5 412.7886L545.1875 412.7886L545.1875 412.293L396.5 412.293z" stroke="none" fill="#000000" fill-rule="nonzero" /><path id="179" transform="matrix(1 0 0 -1 0 842)" d="M396.5 432.6138L396.9956 432.6138L396.9956 412.293L396.5 412.293z" stroke="none" fill="#000000" fill-rule="nonzero" /><path id="180" transform="matrix(1 0 0 -1 0 842)" d="M544.6919 432.6138L545.1875 432.6138L545.1875 412.293L544.6919 412.293z" stroke="none" fill="#000000" fill-rule="nonzero" /><path id="181" transform="matrix(1 0 0 -1 0 842)" d="M223.5269 412.7886L396.9956 412.7886L396.9956 412.293L223.5269 412.293z" stroke="none" fill="#000000" fill-rule="nonzero" /><path id="182" transform="matrix(1 0 0 -1 0 842)" d="M223.5269 392.9639L396.9956 392.9639L396.9956 392.4683L223.5269 392.4683z" stroke="none" fill="#000000" fill-rule="nonzero" /><path id="183" transform="matrix(1 0 0 -1 0 842)" d="M223.5269 412.7886L224.0225 412.7886L224.0225 392.4683L223.5269 392.4683z" stroke="none" fill="#000000" fill-rule="nonzero" /><path id="184" transform="matrix(1 0 0 -1 0 842)" d="M396.5 412.7886L396.9956 412.7886L396.9956 392.4683L396.5 392.4683z" stroke="none" fill="#000000" fill-rule="nonzero" /><path id="185" transform="matrix(1 0 0 -1 0 842)" d="M396.5 412.7886L545.1875 412.7886L545.1875 412.293L396.5 412.293z" stroke="none" fill="#000000" fill-rule="nonzero" /><path id="186" transform="matrix(1 0 0 -1 0 842)" d="M396.5 392.9639L545.1875 392.9639L545.1875 392.4683L396.5 392.4683z" stroke="none" fill="#000000" fill-rule="nonzero" /><path id="187" transform="matrix(1 0 0 -1 0 842)" d="M396.5 412.7886L396.9956 412.7886L396.9956 392.4683L396.5 392.4683z" stroke="none" fill="#000000" fill-rule="nonzero" /><path id="188" transform="matrix(1 0 0 -1 0 842)" d="M544.6919 412.7886L545.1875 412.7886L545.1875 392.4683L544.6919 392.4683z" stroke="none" fill="#000000" fill-rule="nonzero" /><path id="189" transform="matrix(1 0 0 -1 0 842)" d="M223.5269 392.9639L396.9956 392.9639L396.9956 392.4683L223.5269 392.4683z" stroke="none" fill="#000000" fill-rule="nonzero" /><path id="190" transform="matrix(1 0 0 -1 0 842)" d="M223.5269 373.1387L396.9956 373.1387L396.9956 372.6431L223.5269 372.6431z" stroke="none" fill="#000000" fill-rule="nonzero" /><path id="191" transform="matrix(1 0 0 -1 0 842)" d="M223.5269 392.9639L224.0225 392.9639L224.0225 372.6431L223.5269 372.6431z" stroke="none" fill="#000000" fill-rule="nonzero" /><path id="192" transform="matrix(1 0 0 -1 0 842)" d="M396.5 392.9639L396.9956 392.9639L396.9956 372.6431L396.5 372.6431z" stroke="none" fill="#000000" fill-rule="nonzero" /><path id="193" transform="matrix(1 0 0 -1 0 842)" d="M396.5 392.9639L545.1875 392.9639L545.1875 392.4683L396.5 392.4683z" stroke="none" fill="#000000" fill-rule="nonzero" /><path id="194" transform="matrix(1 0 0 -1 0 842)" d="M396.5 373.1387L545.1875 373.1387L545.1875 372.6431L396.5 372.6431z" stroke="none" fill="#000000" fill-rule="nonzero" /><path id="195" transform="matrix(1 0 0 -1 0 842)" d="M396.5 392.9639L396.9956 392.9639L396.9956 372.6431L396.5 372.6431z" stroke="none" fill="#000000" fill-rule="nonzero" /><path id="196" transform="matrix(1 0 0 -1 0 842)" d="M544.6919 392.9639L545.1875 392.9639L545.1875 372.6431L544.6919 372.6431z" stroke="none" fill="#000000" fill-rule="nonzero" /><path id="197" transform="matrix(1 0 0 -1 0 842)" d="M223.5269 373.1387L396.9956 373.1387L396.9956 372.6431L223.5269 372.6431z" stroke="none" fill="#000000" fill-rule="nonzero" /><path id="198" transform="matrix(1 0 0 -1 0 842)" d="M223.5269 353.3135L396.9956 353.3135L396.9956 352.8179L223.5269 352.8179z" stroke="none" fill="#000000" fill-rule="nonzero" /><path id="199" transform="matrix(1 0 0 -1 0 842)" d="M223.5269 373.1387L224.0225 373.1387L224.0225 352.8179L223.5269 352.8179z" stroke="none" fill="#000000" fill-rule="nonzero" /><path id="200" transform="matrix(1 0 0 -1 0 842)" d="M396.5 373.1387L396.9956 373.1387L396.9956 352.8179L396.5 352.8179z" stroke="none" fill="#000000" fill-rule="nonzero" /><path id="201" transform="matrix(1 0 0 -1 0 842)" d="M396.5 373.1387L545.1875 373.1387L545.1875 372.6431L396.5 372.6431z" stroke="none" fill="#000000" fill-rule="nonzero" /><path id="202" transform="matrix(1 0 0 -1 0 842)" d="M396.5 353.3135L545.1875 353.3135L545.1875 352.8179L396.5 352.8179z" stroke="none" fill="#000000" fill-rule="nonzero" /><path id="203" transform="matrix(1 0 0 -1 0 842)" d="M396.5 373.1387L396.9956 373.1387L396.9956 352.8179L396.5 352.8179z" stroke="none" fill="#000000" fill-rule="nonzero" /><path id="204" transform="matrix(1 0 0 -1 0 842)" d="M544.6919 373.1387L545.1875 373.1387L545.1875 352.8179L544.6919 352.8179z" stroke="none" fill="#000000" fill-rule="nonzero" /><path id="205" transform="matrix(1 0 0 -1 0 842)" d="M223.5269 353.3135L396.9956 353.3135L396.9956 352.8179L223.5269 352.8179z" stroke="none" fill="#000000" fill-rule="nonzero" /><path id="206" transform="matrix(1 0 0 -1 0 842)" d="M223.5269 333.4888L396.9956 333.4888L396.9956 332.9932L223.5269 332.9932z" stroke="none" fill="#000000" fill-rule="nonzero" /><path id="207" transform="matrix(1 0 0 -1 0 842)" d="M223.5269 353.3135L224.0225 353.3135L224.0225 332.9932L223.5269 332.9932z" stroke="none" fill="#000000" fill-rule="nonzero" /><path id="208" transform="matrix(1 0 0 -1 0 842)" d="M396.5 353.3135L396.9956 353.3135L396.9956 332.9932L396.5 332.9932z" stroke="none" fill="#000000" fill-rule="nonzero" /><path id="209" transform="matrix(1 0 0 -1 0 842)" d="M396.5 353.3135L545.1875 353.3135L545.1875 352.8179L396.5 352.8179z" stroke="none" fill="#000000" fill-rule="nonzero" /><path id="210" transform="matrix(1 0 0 -1 0 842)" d="M396.5 333.4888L545.1875 333.4888L545.1875 332.9932L396.5 332.9932z" stroke="none" fill="#000000" fill-rule="nonzero" /><path id="211" transform="matrix(1 0 0 -1 0 842)" d="M396.5 353.3135L396.9956 353.3135L396.9956 332.9932L396.5 332.9932z" stroke="none" fill="#000000" fill-rule="nonzero" /><path id="212" transform="matrix(1 0 0 -1 0 842)" d="M544.6919 353.3135L545.1875 353.3135L545.1875 332.9932L544.6919 332.9932z" stroke="none" fill="#000000" fill-rule="nonzero" /><path id="213" transform="matrix(1 0 0 -1 0 842)" d="M157.1131 333.4888L224.0225 333.4888L224.0225 332.9932L157.1131 332.9932z" stroke="none" fill="#000000" fill-rule="nonzero" /><path id="214" transform="matrix(1 0 0 -1 0 842)" d="M157.1131 313.6636L224.0225 313.6636L224.0225 313.168L157.1131 313.168z" stroke="none" fill="#000000" fill-rule="nonzero" /><path id="215" transform="matrix(1 0 0 -1 0 842)" d="M157.1131 333.4888L157.6087 333.4888L157.6087 313.168L157.1131 313.168z" stroke="none" fill="#000000" fill-rule="nonzero" /><path id="216" transform="matrix(1 0 0 -1 0 842)" d="M223.5269 333.4888L224.0225 333.4888L224.0225 313.168L223.5269 313.168z" stroke="none" fill="#000000" fill-rule="nonzero" /><path id="217" transform="matrix(1 0 0 -1 0 842)" d="M223.5269 333.4888L396.9956 333.4888L396.9956 332.9932L223.5269 332.9932z" stroke="none" fill="#000000" fill-rule="nonzero" /><path id="218" transform="matrix(1 0 0 -1 0 842)" d="M223.5269 313.6636L396.9956 313.6636L396.9956 313.168L223.5269 313.168z" stroke="none" fill="#000000" fill-rule="nonzero" /><path id="219" transform="matrix(1 0 0 -1 0 842)" d="M223.5269 333.4888L224.0225 333.4888L224.0225 313.168L223.5269 313.168z" stroke="none" fill="#000000" fill-rule="nonzero" /><path id="220" transform="matrix(1 0 0 -1 0 842)" d="M396.5 333.4888L396.9956 333.4888L396.9956 313.168L396.5 313.168z" stroke="none" fill="#000000" fill-rule="nonzero" /><path id="221" transform="matrix(1 0 0 -1 0 842)" d="M396.5 333.4888L545.1875 333.4888L545.1875 332.9932L396.5 332.9932z" stroke="none" fill="#000000" fill-rule="nonzero" /><path id="222" transform="matrix(1 0 0 -1 0 842)" d="M396.5 313.6636L545.1875 313.6636L545.1875 313.168L396.5 313.168z" stroke="none" fill="#000000" fill-rule="nonzero" /><path id="223" transform="matrix(1 0 0 -1 0 842)" d="M396.5 333.4888L396.9956 333.4888L396.9956 313.168L396.5 313.168z" stroke="none" fill="#000000" fill-rule="nonzero" /><path id="224" transform="matrix(1 0 0 -1 0 842)" d="M544.6919 333.4888L545.1875 333.4888L545.1875 313.168L544.6919 313.168z" stroke="none" fill="#000000" fill-rule="nonzero" /><path id="225" transform="matrix(1 0 0 -1 0 842)" d="M157.1131 313.6636L224.0225 313.6636L224.0225 313.168L157.1131 313.168z" stroke="none" fill="#000000" fill-rule="nonzero" /><path id="226" transform="matrix(1 0 0 -1 0 842)" d="M157.1131 274.0137L224.0225 274.0137L224.0225 273.5181L157.1131 273.5181z" stroke="none" fill="#000000" fill-rule="nonzero" /><path id="227" transform="matrix(1 0 0 -1 0 842)" d="M157.1131 313.6636L157.6087 313.6636L157.6087 273.5181L157.1131 273.5181z" stroke="none" fill="#000000" fill-rule="nonzero" /><path id="228" transform="matrix(1 0 0 -1 0 842)" d="M223.5269 313.6636L224.0225 313.6636L224.0225 273.5181L223.5269 273.5181z" stroke="none" fill="#000000" fill-rule="nonzero" /><path id="229" transform="matrix(1 0 0 -1 0 842)" d="M223.5269 313.6636L396.9956 313.6636L396.9956 313.168L223.5269 313.168z" stroke="none" fill="#000000" fill-rule="nonzero" /><path id="230" transform="matrix(1 0 0 -1 0 842)" d="M223.5269 293.8389L396.9956 293.8389L396.9956 293.3428L223.5269 293.3428z" stroke="none" fill="#000000" fill-rule="nonzero" /><path id="231" transform="matrix(1 0 0 -1 0 842)" d="M223.5269 313.6636L224.0225 313.6636L224.0225 293.3428L223.5269 293.3428z" stroke="none" fill="#000000" fill-rule="nonzero" /><path id="232" transform="matrix(1 0 0 -1 0 842)" d="M396.5 313.6636L396.9956 313.6636L396.9956 293.3428L396.5 293.3428z" stroke="none" fill="#000000" fill-rule="nonzero" /><path id="233" transform="matrix(1 0 0 -1 0 842)" d="M396.5 313.6636L545.1875 313.6636L545.1875 313.168L396.5 313.168z" stroke="none" fill="#000000" fill-rule="nonzero" /><path id="234" transform="matrix(1 0 0 -1 0 842)" d="M396.5 293.8389L545.1875 293.8389L545.1875 293.3428L396.5 293.3428z" stroke="none" fill="#000000" fill-rule="nonzero" /><path id="235" transform="matrix(1 0 0 -1 0 842)" d="M396.5 313.6636L396.9956 313.6636L396.9956 293.3428L396.5 293.3428z" stroke="none" fill="#000000" fill-rule="nonzero" /><path id="236" transform="matrix(1 0 0 -1 0 842)" d="M544.6919 313.6636L545.1875 313.6636L545.1875 293.3428L544.6919 293.3428z" stroke="none" fill="#000000" fill-rule="nonzero" /><path id="237" transform="matrix(1 0 0 -1 0 842)" d="M223.5269 293.8389L396.9956 293.8389L396.9956 293.3428L223.5269 293.3428z" stroke="none" fill="#000000" fill-rule="nonzero" /><path id="238" transform="matrix(1 0 0 -1 0 842)" d="M223.5269 274.0137L396.9956 274.0137L396.9956 273.5181L223.5269 273.5181z" stroke="none" fill="#000000" fill-rule="nonzero" /><path id="239" transform="matrix(1 0 0 -1 0 842)" d="M223.5269 293.8389L224.0225 293.8389L224.0225 273.5181L223.5269 273.5181z" stroke="none" fill="#000000" fill-rule="nonzero" /><path id="240" transform="matrix(1 0 0 -1 0 842)" d="M396.5 293.8389L396.9956 293.8389L396.9956 273.5181L396.5 273.5181z" stroke="none" fill="#000000" fill-rule="nonzero" /><path id="241" transform="matrix(1 0 0 -1 0 842)" d="M396.5 293.8389L545.1875 293.8389L545.1875 293.3428L396.5 293.3428z" stroke="none" fill="#000000" fill-rule="nonzero" /><path id="242" transform="matrix(1 0 0 -1 0 842)" d="M396.5 274.0137L545.1875 274.0137L545.1875 273.5181L396.5 273.5181z" stroke="none" fill="#000000" fill-rule="nonzero" /><path id="243" transform="matrix(1 0 0 -1 0 842)" d="M396.5 293.8389L396.9956 293.8389L396.9956 273.5181L396.5 273.5181z" stroke="none" fill="#000000" fill-rule="nonzero" /><path id="244" transform="matrix(1 0 0 -1 0 842)" d="M544.6919 293.8389L545.1875 293.8389L545.1875 273.5181L544.6919 273.5181z" stroke="none" fill="#000000" fill-rule="nonzero" /><path id="245" transform="matrix(1 0 0 -1 0 842)" d="M49.5625 274.0137L224.0225 274.0137L224.0225 273.5181L49.5625 273.5181z" stroke="none" fill="#000000" fill-rule="nonzero" /><path id="246" transform="matrix(1 0 0 -1 0 842)" d="M49.5625 254.1885L224.0225 254.1885L224.0225 253.6929L49.5625 253.6929z" stroke="none" fill="#000000" fill-rule="nonzero" /><path id="247" transform="matrix(1 0 0 -1 0 842)" d="M49.5625 274.0137L50.05813 274.0137L50.05813 253.6929L49.5625 253.6929z" stroke="none" fill="#000000" fill-rule="nonzero" /><path id="248" transform="matrix(1 0 0 -1 0 842)" d="M223.5269 274.0137L224.0225 274.0137L224.0225 253.6929L223.5269 253.6929z" stroke="none" fill="#000000" fill-rule="nonzero" /><path id="249" transform="matrix(1 0 0 -1 0 842)" d="M223.5269 274.0137L396.9956 274.0137L396.9956 273.5181L223.5269 273.5181z" stroke="none" fill="#000000" fill-rule="nonzero" /><path id="250" transform="matrix(1 0 0 -1 0 842)" d="M223.5269 254.1885L396.9956 254.1885L396.9956 253.6929L223.5269 253.6929z" stroke="none" fill="#000000" fill-rule="nonzero" /><path id="251" transform="matrix(1 0 0 -1 0 842)" d="M223.5269 274.0137L224.0225 274.0137L224.0225 253.6929L223.5269 253.6929z" stroke="none" fill="#000000" fill-rule="nonzero" /><path id="252" transform="matrix(1 0 0 -1 0 842)" d="M396.5 274.0137L396.9956 274.0137L396.9956 253.6929L396.5 253.6929z" stroke="none" fill="#000000" fill-rule="nonzero" /><path id="253" transform="matrix(1 0 0 -1 0 842)" d="M396.5 274.0137L545.1875 274.0137L545.1875 273.5181L396.5 273.5181z" stroke="none" fill="#000000" fill-rule="nonzero" /><path id="254" transform="matrix(1 0 0 -1 0 842)" d="M396.5 254.1885L545.1875 254.1885L545.1875 253.6929L396.5 253.6929z" stroke="none" fill="#000000" fill-rule="nonzero" /><path id="255" transform="matrix(1 0 0 -1 0 842)" d="M396.5 274.0137L396.9956 274.0137L396.9956 253.6929L396.5 253.6929z" stroke="none" fill="#000000" fill-rule="nonzero" /><path id="256" transform="matrix(1 0 0 -1 0 842)" d="M544.6919 274.0137L545.1875 274.0137L545.1875 253.6929L544.6919 253.6929z" stroke="none" fill="#000000" fill-rule="nonzero" /><path id="257" transform="matrix(1 0 0 -1 0 842)" d="M49.5625 254.1885L224.0225 254.1885L224.0225 253.6929L49.5625 253.6929z" stroke="none" fill="#000000" fill-rule="nonzero" /><path id="258" transform="matrix(1 0 0 -1 0 842)" d="M49.5625 155.0635L224.0225 155.0635L224.0225 154.5679L49.5625 154.5679z" stroke="none" fill="#000000" fill-rule="nonzero" /><path id="259" transform="matrix(1 0 0 -1 0 842)" d="M49.5625 254.1885L50.05813 254.1885L50.05813 154.5679L49.5625 154.5679z" stroke="none" fill="#000000" fill-rule="nonzero" /><path id="260" transform="matrix(1 0 0 -1 0 842)" d="M223.5269 254.1885L224.0225 254.1885L224.0225 154.5679L223.5269 154.5679z" stroke="none" fill="#000000" fill-rule="nonzero" /><path id="261" transform="matrix(1 0 0 -1 0 842)" d="M223.5269 254.1885L396.9956 254.1885L396.9956 253.6929L223.5269 253.6929z" stroke="none" fill="#000000" fill-rule="nonzero" /><path id="262" transform="matrix(1 0 0 -1 0 842)" d="M223.5269 234.3638L396.9956 234.3638L396.9956 233.8682L223.5269 233.8682z" stroke="none" fill="#000000" fill-rule="nonzero" /><path id="263" transform="matrix(1 0 0 -1 0 842)" d="M223.5269 254.1885L224.0225 254.1885L224.0225 233.8682L223.5269 233.8682z" stroke="none" fill="#000000" fill-rule="nonzero" /><path id="264" transform="matrix(1 0 0 -1 0 842)" d="M396.5 254.1885L396.9956 254.1885L396.9956 233.8682L396.5 233.8682z" stroke="none" fill="#000000" fill-rule="nonzero" /><path id="265" transform="matrix(1 0 0 -1 0 842)" d="M396.5 254.1885L545.1875 254.1885L545.1875 253.6929L396.5 253.6929z" stroke="none" fill="#000000" fill-rule="nonzero" /><path id="266" transform="matrix(1 0 0 -1 0 842)" d="M396.5 234.3638L545.1875 234.3638L545.1875 233.8682L396.5 233.8682z" stroke="none" fill="#000000" fill-rule="nonzero" /><path id="267" transform="matrix(1 0 0 -1 0 842)" d="M396.5 254.1885L396.9956 254.1885L396.9956 233.8682L396.5 233.8682z" stroke="none" fill="#000000" fill-rule="nonzero" /><path id="268" transform="matrix(1 0 0 -1 0 842)" d="M544.6919 254.1885L545.1875 254.1885L545.1875 233.8682L544.6919 233.8682z" stroke="none" fill="#000000" fill-rule="nonzero" /><path id="269" transform="matrix(1 0 0 -1 0 842)" d="M223.5269 234.3638L396.9956 234.3638L396.9956 233.8682L223.5269 233.8682z" stroke="none" fill="#000000" fill-rule="nonzero" /><path id="270" transform="matrix(1 0 0 -1 0 842)" d="M223.5269 214.5386L396.9956 214.5386L396.9956 214.043L223.5269 214.043z" stroke="none" fill="#000000" fill-rule="nonzero" /><path id="271" transform="matrix(1 0 0 -1 0 842)" d="M223.5269 234.3638L224.0225 234.3638L224.0225 214.043L223.5269 214.043z" stroke="none" fill="#000000" fill-rule="nonzero" /><path id="272" transform="matrix(1 0 0 -1 0 842)" d="M396.5 234.3638L396.9956 234.3638L396.9956 214.043L396.5 214.043z" stroke="none" fill="#000000" fill-rule="nonzero" /><path id="273" transform="matrix(1 0 0 -1 0 842)" d="M396.5 234.3638L545.1875 234.3638L545.1875 233.8682L396.5 233.8682z" stroke="none" fill="#000000" fill-rule="nonzero" /><path id="274" transform="matrix(1 0 0 -1 0 842)" d="M396.5 214.5386L545.1875 214.5386L545.1875 214.043L396.5 214.043z" stroke="none" fill="#000000" fill-rule="nonzero" /><path id="275" transform="matrix(1 0 0 -1 0 842)" d="M396.5 234.3638L396.9956 234.3638L396.9956 214.043L396.5 214.043z" stroke="none" fill="#000000" fill-rule="nonzero" /><path id="276" transform="matrix(1 0 0 -1 0 842)" d="M544.6919 234.3638L545.1875 234.3638L545.1875 214.043L544.6919 214.043z" stroke="none" fill="#000000" fill-rule="nonzero" /><path id="277" transform="matrix(1 0 0 -1 0 842)" d="M223.5269 214.5386L396.9956 214.5386L396.9956 214.043L223.5269 214.043z" stroke="none" fill="#000000" fill-rule="nonzero" /><path id="278" transform="matrix(1 0 0 -1 0 842)" d="M223.5269 194.7139L396.9956 194.7139L396.9956 194.2178L223.5269 194.2178z" stroke="none" fill="#000000" fill-rule="nonzero" /><path id="279" transform="matrix(1 0 0 -1 0 842)" d="M223.5269 214.5386L224.0225 214.5386L224.0225 194.2178L223.5269 194.2178z" stroke="none" fill="#000000" fill-rule="nonzero" /><path id="280" transform="matrix(1 0 0 -1 0 842)" d="M396.5 214.5386L396.9956 214.5386L396.9956 194.2178L396.5 194.2178z" stroke="none" fill="#000000" fill-rule="nonzero" /><path id="281" transform="matrix(1 0 0 -1 0 842)" d="M396.5 214.5386L545.1875 214.5386L545.1875 214.043L396.5 214.043z" stroke="none" fill="#000000" fill-rule="nonzero" /><path id="282" transform="matrix(1 0 0 -1 0 842)" d="M396.5 194.7139L545.1875 194.7139L545.1875 194.2178L396.5 194.2178z" stroke="none" fill="#000000" fill-rule="nonzero" /><path id="283" transform="matrix(1 0 0 -1 0 842)" d="M396.5 214.5386L396.9956 214.5386L396.9956 194.2178L396.5 194.2178z" stroke="none" fill="#000000" fill-rule="nonzero" /><path id="284" transform="matrix(1 0 0 -1 0 842)" d="M544.6919 214.5386L545.1875 214.5386L545.1875 194.2178L544.6919 194.2178z" stroke="none" fill="#000000" fill-rule="nonzero" /><path id="285" transform="matrix(1 0 0 -1 0 842)" d="M223.5269 194.7139L396.9956 194.7139L396.9956 194.2178L223.5269 194.2178z" stroke="none" fill="#000000" fill-rule="nonzero" /><path id="286" transform="matrix(1 0 0 -1 0 842)" d="M223.5269 174.8887L396.9956 174.8887L396.9956 174.3931L223.5269 174.3931z" stroke="none" fill="#000000" fill-rule="nonzero" /><path id="287" transform="matrix(1 0 0 -1 0 842)" d="M223.5269 194.7139L224.0225 194.7139L224.0225 174.3931L223.5269 174.3931z" stroke="none" fill="#000000" fill-rule="nonzero" /><path id="288" transform="matrix(1 0 0 -1 0 842)" d="M396.5 194.7139L396.9956 194.7139L396.9956 174.3931L396.5 174.3931z" stroke="none" fill="#000000" fill-rule="nonzero" /><path id="289" transform="matrix(1 0 0 -1 0 842)" d="M396.5 194.7139L545.1875 194.7139L545.1875 194.2178L396.5 194.2178z" stroke="none" fill="#000000" fill-rule="nonzero" /><path id="290" transform="matrix(1 0 0 -1 0 842)" d="M396.5 174.8887L545.1875 174.8887L545.1875 174.3931L396.5 174.3931z" stroke="none" fill="#000000" fill-rule="nonzero" /><path id="291" transform="matrix(1 0 0 -1 0 842)" d="M396.5 194.7139L396.9956 194.7139L396.9956 174.3931L396.5 174.3931z" stroke="none" fill="#000000" fill-rule="nonzero" /><path id="292" transform="matrix(1 0 0 -1 0 842)" d="M544.6919 194.7139L545.1875 194.7139L545.1875 174.3931L544.6919 174.3931z" stroke="none" fill="#000000" fill-rule="nonzero" /><path id="293" transform="matrix(1 0 0 -1 0 842)" d="M223.5269 174.8887L396.9956 174.8887L396.9956 174.3931L223.5269 174.3931z" stroke="none" fill="#000000" fill-rule="nonzero" /><path id="294" transform="matrix(1 0 0 -1 0 842)" d="M223.5269 155.0635L396.9956 155.0635L396.9956 154.5679L223.5269 154.5679z" stroke="none" fill="#000000" fill-rule="nonzero" /><path id="295" transform="matrix(1 0 0 -1 0 842)" d="M223.5269 174.8887L224.0225 174.8887L224.0225 154.5679L223.5269 154.5679z" stroke="none" fill="#000000" fill-rule="nonzero" /><path id="296" transform="matrix(1 0 0 -1 0 842)" d="M396.5 174.8887L396.9956 174.8887L396.9956 154.5679L396.5 154.5679z" stroke="none" fill="#000000" fill-rule="nonzero" /><path id="297" transform="matrix(1 0 0 -1 0 842)" d="M396.5 174.8887L545.1875 174.8887L545.1875 174.3931L396.5 174.3931z" stroke="none" fill="#000000" fill-rule="nonzero" /><path id="298" transform="matrix(1 0 0 -1 0 842)" d="M396.5 155.0635L545.1875 155.0635L545.1875 154.5679L396.5 154.5679z" stroke="none" fill="#000000" fill-rule="nonzero" /><path id="299" transform="matrix(1 0 0 -1 0 842)" d="M396.5 174.8887L396.9956 174.8887L396.9956 154.5679L396.5 154.5679z" stroke="none" fill="#000000" fill-rule="nonzero" /><path id="300" transform="matrix(1 0 0 -1 0 842)" d="M544.6919 174.8887L545.1875 174.8887L545.1875 154.5679L544.6919 154.5679z" stroke="none" fill="#000000" fill-rule="nonzero" /><path id="301" transform="matrix(1 0 0 -1 0 842)" d="M49.5625 155.0635L224.0225 155.0635L224.0225 154.5679L49.5625 154.5679z" stroke="none" fill="#000000" fill-rule="nonzero" /><path id="302" transform="matrix(1 0 0 -1 0 842)" d="M49.5625 115.4136L224.0225 115.4136L224.0225 114.918L49.5625 114.918z" stroke="none" fill="#000000" fill-rule="nonzero" /><path id="303" transform="matrix(1 0 0 -1 0 842)" d="M49.5625 155.0635L50.05813 155.0635L50.05813 114.918L49.5625 114.918z" stroke="none" fill="#000000" fill-rule="nonzero" /><path id="304" transform="matrix(1 0 0 -1 0 842)" d="M223.5269 155.0635L224.0225 155.0635L224.0225 114.918L223.5269 114.918z" stroke="none" fill="#000000" fill-rule="nonzero" /><path id="305" transform="matrix(1 0 0 -1 0 842)" d="M223.5269 155.0635L396.9956 155.0635L396.9956 154.5679L223.5269 154.5679z" stroke="none" fill="#000000" fill-rule="nonzero" /><path id="306" transform="matrix(1 0 0 -1 0 842)" d="M223.5269 135.2388L396.9956 135.2388L396.9956 134.7432L223.5269 134.7432z" stroke="none" fill="#000000" fill-rule="nonzero" /><path id="307" transform="matrix(1 0 0 -1 0 842)" d="M223.5269 155.0635L224.0225 155.0635L224.0225 134.7432L223.5269 134.7432z" stroke="none" fill="#000000" fill-rule="nonzero" /><path id="308" transform="matrix(1 0 0 -1 0 842)" d="M396.5 155.0635L396.9956 155.0635L396.9956 134.7432L396.5 134.7432z" stroke="none" fill="#000000" fill-rule="nonzero" /><path id="309" transform="matrix(1 0 0 -1 0 842)" d="M396.5 155.0635L545.1875 155.0635L545.1875 154.5679L396.5 154.5679z" stroke="none" fill="#000000" fill-rule="nonzero" /><path id="310" transform="matrix(1 0 0 -1 0 842)" d="M396.5 135.2388L545.1875 135.2388L545.1875 134.7432L396.5 134.7432z" stroke="none" fill="#000000" fill-rule="nonzero" /><path id="311" transform="matrix(1 0 0 -1 0 842)" d="M396.5 155.0635L396.9956 155.0635L396.9956 134.7432L396.5 134.7432z" stroke="none" fill="#000000" fill-rule="nonzero" /><path id="312" transform="matrix(1 0 0 -1 0 842)" d="M544.6919 155.0635L545.1875 155.0635L545.1875 134.7432L544.6919 134.7432z" stroke="none" fill="#000000" fill-rule="nonzero" /><path id="313" transform="matrix(1 0 0 -1 0 842)" d="M223.5269 135.2388L396.9956 135.2388L396.9956 134.7432L223.5269 134.7432z" stroke="none" fill="#000000" fill-rule="nonzero" /><path id="314" transform="matrix(1 0 0 -1 0 842)" d="M223.5269 115.4136L396.9956 115.4136L396.9956 114.918L223.5269 114.918z" stroke="none" fill="#000000" fill-rule="nonzero" /><path id="315" transform="matrix(1 0 0 -1 0 842)" d="M223.5269 135.2388L224.0225 135.2388L224.0225 114.918L223.5269 114.918z" stroke="none" fill="#000000" fill-rule="nonzero" /><path id="316" transform="matrix(1 0 0 -1 0 842)" d="M396.5 135.2388L396.9956 135.2388L396.9956 114.918L396.5 114.918z" stroke="none" fill="#000000" fill-rule="nonzero" /><path id="317" transform="matrix(1 0 0 -1 0 842)" d="M396.5 135.2388L545.1875 135.2388L545.1875 134.7432L396.5 134.7432z" stroke="none" fill="#000000" fill-rule="nonzero" /><path id="318" transform="matrix(1 0 0 -1 0 842)" d="M396.5 115.4136L545.1875 115.4136L545.1875 114.918L396.5 114.918z" stroke="none" fill="#000000" fill-rule="nonzero" /><path id="319" transform="matrix(1 0 0 -1 0 842)" d="M396.5 135.2388L396.9956 135.2388L396.9956 114.918L396.5 114.918z" stroke="none" fill="#000000" fill-rule="nonzero" /><path id="320" transform="matrix(1 0 0 -1 0 842)" d="M544.6919 135.2388L545.1875 135.2388L545.1875 114.918L544.6919 114.918z" stroke="none" fill="#000000" fill-rule="nonzero" /></g></g></g></svg>