<svg xmlns="http://www.w3.org/2000/svg" xmlns:xlink="http://www.w3.org/1999/xlink" id="body_28" preserveAspectRatio="xMinYMin meet" viewBox="0 0 793 1123"><defs><clipPath id="1"><path id="" clip-rule="evenodd" transform="matrix(1 0 0 1 0 0)" d="M0 842L0 0L0 0L595 0L595 0L595 842L595 842L0 842z" /></clipPath><clipPath id="2"><path id="" clip-rule="evenodd" transform="matrix(1 0 0 1 0 0)" d="M0 0L594.75 0L594.75 0L594.75 842.0669L594.75 842.0669L0 842.0669L0 842.0669L0 0z" /></clipPath></defs><g transform="matrix(1.333333 0 0 1.333333 0 0)"><g clip-path="url(#1)"><g clip-path="url(#2)"><path id="1" transform="matrix(1 0 0 -1 0 842)" d="M0 841.998L594.75 841.998L594.75 -0.06835938L0 -0.06835938z" stroke="none" fill="#FFFFFF" fill-rule="nonzero" /><path id="2" transform="matrix(1 0 0 -1 0 842)" d="M49.5625 709.1699L74.34375 709.1699L74.34375 683.3984L49.5625 683.3984z" stroke="none" fill="#9CC9F0" fill-rule="nonzero" /><path id="3" transform="matrix(1 0 0 -1 0 842)" d="M74.34375 709.1699L148.6875 709.1699L148.6875 683.3984L74.34375 683.3984z" stroke="none" fill="#9CC9F0" fill-rule="nonzero" /><path id="4" transform="matrix(1 0 0 -1 0 842)" d="M148.6875 709.1699L223.0313 709.1699L223.0313 683.3984L148.6875 683.3984z" stroke="none" fill="#9CC9F0" fill-rule="nonzero" /><path id="5" transform="matrix(1 0 0 -1 0 842)" d="M223.0313 709.1699L272.5938 709.1699L272.5938 683.3984L223.0313 683.3984z" stroke="none" fill="#9CC9F0" fill-rule="nonzero" /><path id="6" transform="matrix(1 0 0 -1 0 842)" d="M272.5938 709.1699L421.2813 709.1699L421.2813 683.3984L272.5938 683.3984z" stroke="none" fill="#9CC9F0" fill-rule="nonzero" /><path id="7" transform="matrix(1 0 0 -1 0 842)" d="M421.2813 709.1699L470.8438 709.1699L470.8438 683.3984L421.2813 683.3984z" stroke="none" fill="#9CC9F0" fill-rule="nonzero" /><path id="8" transform="matrix(1 0 0 -1 0 842)" d="M470.8438 709.1699L544.6919 709.1699L544.6919 683.3984L470.8438 683.3984z" stroke="none" fill="#9CC9F0" fill-rule="nonzero" /><path id="9" transform="matrix(1 0 0 -1 0 842)" d="M49.5625 709.1699L74.83938 709.1699L74.83938 708.6758L49.5625 708.6758z" stroke="none" fill="#000000" fill-rule="nonzero" /><path id="10" transform="matrix(1 0 0 -1 0 842)" d="M49.5625 683.3984L74.83938 683.3984L74.83938 682.9023L49.5625 682.9023z" stroke="none" fill="#000000" fill-rule="nonzero" /><path id="11" transform="matrix(1 0 0 -1 0 842)" d="M49.5625 709.1699L50.05813 709.1699L50.05813 682.9023L49.5625 682.9023z" stroke="none" fill="#000000" fill-rule="nonzero" /><path id="12" transform="matrix(1 0 0 -1 0 842)" d="M74.34375 709.1699L74.83938 709.1699L74.83938 682.9023L74.34375 682.9023z" stroke="none" fill="#000000" fill-rule="nonzero" /><path id="13" transform="matrix(1 0 0 -1 0 842)" d="M74.34375 709.1699L149.1831 709.1699L149.1831 708.6758L74.34375 708.6758z" stroke="none" fill="#000000" fill-rule="nonzero" /><path id="14" transform="matrix(1 0 0 -1 0 842)" d="M74.34375 683.3984L149.1831 683.3984L149.1831 682.9023L74.34375 682.9023z" stroke="none" fill="#000000" fill-rule="nonzero" /><path id="15" transform="matrix(1 0 0 -1 0 842)" d="M74.34375 709.1699L74.83938 709.1699L74.83938 682.9023L74.34375 682.9023z" stroke="none" fill="#000000" fill-rule="nonzero" /><path id="16" transform="matrix(1 0 0 -1 0 842)" d="M148.6875 709.1699L149.1831 709.1699L149.1831 682.9023L148.6875 682.9023z" stroke="none" fill="#000000" fill-rule="nonzero" /><path id="17" transform="matrix(1 0 0 -1 0 842)" d="M148.6875 709.1699L223.5269 709.1699L223.5269 708.6758L148.6875 708.6758z" stroke="none" fill="#000000" fill-rule="nonzero" /><path id="18" transform="matrix(1 0 0 -1 0 842)" d="M148.6875 683.3984L223.5269 683.3984L223.5269 682.9023L148.6875 682.9023z" stroke="none" fill="#000000" fill-rule="nonzero" /><path id="19" transform="matrix(1 0 0 -1 0 842)" d="M148.6875 709.1699L149.1831 709.1699L149.1831 682.9023L148.6875 682.9023z" stroke="none" fill="#000000" fill-rule="nonzero" /><path id="20" transform="matrix(1 0 0 -1 0 842)" d="M223.0313 709.1699L223.5269 709.1699L223.5269 682.9023L223.0313 682.9023z" stroke="none" fill="#000000" fill-rule="nonzero" /><path id="21" transform="matrix(1 0 0 -1 0 842)" d="M223.0313 709.1699L273.0894 709.1699L273.0894 708.6758L223.0313 708.6758z" stroke="none" fill="#000000" fill-rule="nonzero" /><path id="22" transform="matrix(1 0 0 -1 0 842)" d="M223.0313 683.3984L273.0894 683.3984L273.0894 682.9023L223.0313 682.9023z" stroke="none" fill="#000000" fill-rule="nonzero" /><path id="23" transform="matrix(1 0 0 -1 0 842)" d="M223.0313 709.1699L223.5269 709.1699L223.5269 682.9023L223.0313 682.9023z" stroke="none" fill="#000000" fill-rule="nonzero" /><path id="24" transform="matrix(1 0 0 -1 0 842)" d="M272.5938 709.1699L273.0894 709.1699L273.0894 682.9023L272.5938 682.9023z" stroke="none" fill="#000000" fill-rule="nonzero" /><path id="25" transform="matrix(1 0 0 -1 0 842)" d="M272.5938 709.1699L421.7769 709.1699L421.7769 708.6758L272.5938 708.6758z" stroke="none" fill="#000000" fill-rule="nonzero" /><path id="26" transform="matrix(1 0 0 -1 0 842)" d="M272.5938 683.3984L421.7769 683.3984L421.7769 682.9023L272.5938 682.9023z" stroke="none" fill="#000000" fill-rule="nonzero" /><path id="27" transform="matrix(1 0 0 -1 0 842)" d="M272.5938 709.1699L273.0894 709.1699L273.0894 682.9023L272.5938 682.9023z" stroke="none" fill="#000000" fill-rule="nonzero" /><path id="28" transform="matrix(1 0 0 -1 0 842)" d="M421.2813 709.1699L421.7769 709.1699L421.7769 682.9023L421.2813 682.9023z" stroke="none" fill="#000000" fill-rule="nonzero" /><path id="29" transform="matrix(1 0 0 -1 0 842)" d="M421.2813 709.1699L471.3394 709.1699L471.3394 708.6758L421.2813 708.6758z" stroke="none" fill="#000000" fill-rule="nonzero" /><path id="30" transform="matrix(1 0 0 -1 0 842)" d="M421.2813 683.3984L471.3394 683.3984L471.3394 682.9023L421.2813 682.9023z" stroke="none" fill="#000000" fill-rule="nonzero" /><path id="31" transform="matrix(1 0 0 -1 0 842)" d="M421.2813 709.1699L421.7769 709.1699L421.7769 682.9023L421.2813 682.9023z" stroke="none" fill="#000000" fill-rule="nonzero" /><path id="32" transform="matrix(1 0 0 -1 0 842)" d="M470.8438 709.1699L471.3394 709.1699L471.3394 682.9023L470.8438 682.9023z" stroke="none" fill="#000000" fill-rule="nonzero" /><path id="33" transform="matrix(1 0 0 -1 0 842)" d="M470.8438 709.1699L545.1875 709.1699L545.1875 708.6758L470.8438 708.6758z" stroke="none" fill="#000000" fill-rule="nonzero" /><path id="34" transform="matrix(1 0 0 -1 0 842)" d="M470.8438 683.3984L545.1875 683.3984L545.1875 682.9023L470.8438 682.9023z" stroke="none" fill="#000000" fill-rule="nonzero" /><path id="35" transform="matrix(1 0 0 -1 0 842)" d="M470.8438 709.1699L471.3394 709.1699L471.3394 682.9023L470.8438 682.9023z" stroke="none" fill="#000000" fill-rule="nonzero" /><path id="36" transform="matrix(1 0 0 -1 0 842)" d="M544.6919 709.1699L545.1875 709.1699L545.1875 682.9023L544.6919 682.9023z" stroke="none" fill="#000000" fill-rule="nonzero" /><path id="37" transform="matrix(1 0 0 -1 0 842)" d="M49.5625 683.3984L74.83938 683.3984L74.83938 682.9023L49.5625 682.9023z" stroke="none" fill="#000000" fill-rule="nonzero" /><path id="38" transform="matrix(1 0 0 -1 0 842)" d="M49.5625 649.1992L74.83938 649.1992L74.83938 648.7051L49.5625 648.7051z" stroke="none" fill="#000000" fill-rule="nonzero" /><path id="39" transform="matrix(1 0 0 -1 0 842)" d="M49.5625 683.3984L50.05813 683.3984L50.05813 648.7051L49.5625 648.7051z" stroke="none" fill="#000000" fill-rule="nonzero" /><path id="40" transform="matrix(1 0 0 -1 0 842)" d="M74.34375 683.3984L74.83938 683.3984L74.83938 648.7051L74.34375 648.7051z" stroke="none" fill="#000000" fill-rule="nonzero" /><path id="41" transform="matrix(1 0 0 -1 0 842)" d="M74.34375 683.3984L149.1831 683.3984L149.1831 682.9023L74.34375 682.9023z" stroke="none" fill="#000000" fill-rule="nonzero" /><path id="42" transform="matrix(1 0 0 -1 0 842)" d="M74.34375 649.1992L149.1831 649.1992L149.1831 648.7051L74.34375 648.7051z" stroke="none" fill="#000000" fill-rule="nonzero" /><path id="43" transform="matrix(1 0 0 -1 0 842)" d="M74.34375 683.3984L74.83938 683.3984L74.83938 648.7051L74.34375 648.7051z" stroke="none" fill="#000000" fill-rule="nonzero" /><path id="44" transform="matrix(1 0 0 -1 0 842)" d="M148.6875 683.3984L149.1831 683.3984L149.1831 648.7051L148.6875 648.7051z" stroke="none" fill="#000000" fill-rule="nonzero" /><path id="45" transform="matrix(1 0 0 -1 0 842)" d="M148.6875 683.3984L223.5269 683.3984L223.5269 682.9023L148.6875 682.9023z" stroke="none" fill="#000000" fill-rule="nonzero" /><path id="46" transform="matrix(1 0 0 -1 0 842)" d="M148.6875 649.1992L223.5269 649.1992L223.5269 648.7051L148.6875 648.7051z" stroke="none" fill="#000000" fill-rule="nonzero" /><path id="47" transform="matrix(1 0 0 -1 0 842)" d="M148.6875 683.3984L149.1831 683.3984L149.1831 648.7051L148.6875 648.7051z" stroke="none" fill="#000000" fill-rule="nonzero" /><path id="48" transform="matrix(1 0 0 -1 0 842)" d="M223.0313 683.3984L223.5269 683.3984L223.5269 648.7051L223.0313 648.7051z" stroke="none" fill="#000000" fill-rule="nonzero" /><path id="49" transform="matrix(1 0 0 -1 0 842)" d="M223.0313 683.3984L273.0894 683.3984L273.0894 682.9023L223.0313 682.9023z" stroke="none" fill="#000000" fill-rule="nonzero" /><path id="50" transform="matrix(1 0 0 -1 0 842)" d="M223.0313 649.1992L273.0894 649.1992L273.0894 648.7051L223.0313 648.7051z" stroke="none" fill="#000000" fill-rule="nonzero" /><path id="51" transform="matrix(1 0 0 -1 0 842)" d="M223.0313 683.3984L223.5269 683.3984L223.5269 648.7051L223.0313 648.7051z" stroke="none" fill="#000000" fill-rule="nonzero" /><path id="52" transform="matrix(1 0 0 -1 0 842)" d="M272.5938 683.3984L273.0894 683.3984L273.0894 648.7051L272.5938 648.7051z" stroke="none" fill="#000000" fill-rule="nonzero" /><path id="53" transform="matrix(1 0 0 -1 0 842)" d="M272.5938 683.3984L421.7769 683.3984L421.7769 682.9023L272.5938 682.9023z" stroke="none" fill="#000000" fill-rule="nonzero" /><path id="54" transform="matrix(1 0 0 -1 0 842)" d="M272.5938 649.1992L421.7769 649.1992L421.7769 648.7051L272.5938 648.7051z" stroke="none" fill="#000000" fill-rule="nonzero" /><path id="55" transform="matrix(1 0 0 -1 0 842)" d="M272.5938 683.3984L273.0894 683.3984L273.0894 648.7051L272.5938 648.7051z" stroke="none" fill="#000000" fill-rule="nonzero" /><path id="56" transform="matrix(1 0 0 -1 0 842)" d="M421.2813 683.3984L421.7769 683.3984L421.7769 648.7051L421.2813 648.7051z" stroke="none" fill="#000000" fill-rule="nonzero" /><path id="57" transform="matrix(1 0 0 -1 0 842)" d="M421.2813 683.3984L471.3394 683.3984L471.3394 682.9023L421.2813 682.9023z" stroke="none" fill="#000000" fill-rule="nonzero" /><path id="58" transform="matrix(1 0 0 -1 0 842)" d="M421.2813 649.1992L471.3394 649.1992L471.3394 648.7051L421.2813 648.7051z" stroke="none" fill="#000000" fill-rule="nonzero" /><path id="59" transform="matrix(1 0 0 -1 0 842)" d="M421.2813 683.3984L421.7769 683.3984L421.7769 648.7051L421.2813 648.7051z" stroke="none" fill="#000000" fill-rule="nonzero" /><path id="60" transform="matrix(1 0 0 -1 0 842)" d="M470.8438 683.3984L471.3394 683.3984L471.3394 648.7051L470.8438 648.7051z" stroke="none" fill="#000000" fill-rule="nonzero" /><path id="61" transform="matrix(1 0 0 -1 0 842)" d="M470.8438 683.3984L545.1875 683.3984L545.1875 682.9023L470.8438 682.9023z" stroke="none" fill="#000000" fill-rule="nonzero" /><path id="62" transform="matrix(1 0 0 -1 0 842)" d="M470.8438 649.1992L545.1875 649.1992L545.1875 648.7051L470.8438 648.7051z" stroke="none" fill="#000000" fill-rule="nonzero" /><path id="63" transform="matrix(1 0 0 -1 0 842)" d="M470.8438 683.3984L471.3394 683.3984L471.3394 648.7051L470.8438 648.7051z" stroke="none" fill="#000000" fill-rule="nonzero" /><path id="64" transform="matrix(1 0 0 -1 0 842)" d="M544.6919 683.3984L545.1875 683.3984L545.1875 648.7051L544.6919 648.7051z" stroke="none" fill="#000000" fill-rule="nonzero" /><path id="65" transform="matrix(1 0 0 -1 0 842)" d="M49.5625 649.1992L74.83938 649.1992L74.83938 648.7051L49.5625 648.7051z" stroke="none" fill="#000000" fill-rule="nonzero" /><path id="66" transform="matrix(1 0 0 -1 0 842)" d="M49.5625 615.002L74.83938 615.002L74.83938 614.5059L49.5625 614.5059z" stroke="none" fill="#000000" fill-rule="nonzero" /><path id="67" transform="matrix(1 0 0 -1 0 842)" d="M49.5625 649.1992L50.05813 649.1992L50.05813 614.5059L49.5625 614.5059z" stroke="none" fill="#000000" fill-rule="nonzero" /><path id="68" transform="matrix(1 0 0 -1 0 842)" d="M74.34375 649.1992L74.83938 649.1992L74.83938 614.5059L74.34375 614.5059z" stroke="none" fill="#000000" fill-rule="nonzero" /><path id="69" transform="matrix(1 0 0 -1 0 842)" d="M74.34375 649.1992L149.1831 649.1992L149.1831 648.7051L74.34375 648.7051z" stroke="none" fill="#000000" fill-rule="nonzero" /><path id="70" transform="matrix(1 0 0 -1 0 842)" d="M74.34375 615.002L149.1831 615.002L149.1831 614.5059L74.34375 614.5059z" stroke="none" fill="#000000" fill-rule="nonzero" /><path id="71" transform="matrix(1 0 0 -1 0 842)" d="M74.34375 649.1992L74.83938 649.1992L74.83938 614.5059L74.34375 614.5059z" stroke="none" fill="#000000" fill-rule="nonzero" /><path id="72" transform="matrix(1 0 0 -1 0 842)" d="M148.6875 649.1992L149.1831 649.1992L149.1831 614.5059L148.6875 614.5059z" stroke="none" fill="#000000" fill-rule="nonzero" /><path id="73" transform="matrix(1 0 0 -1 0 842)" d="M148.6875 649.1992L223.5269 649.1992L223.5269 648.7051L148.6875 648.7051z" stroke="none" fill="#000000" fill-rule="nonzero" /><path id="74" transform="matrix(1 0 0 -1 0 842)" d="M148.6875 615.002L223.5269 615.002L223.5269 614.5059L148.6875 614.5059z" stroke="none" fill="#000000" fill-rule="nonzero" /><path id="75" transform="matrix(1 0 0 -1 0 842)" d="M148.6875 649.1992L149.1831 649.1992L149.1831 614.5059L148.6875 614.5059z" stroke="none" fill="#000000" fill-rule="nonzero" /><path id="76" transform="matrix(1 0 0 -1 0 842)" d="M223.0313 649.1992L223.5269 649.1992L223.5269 614.5059L223.0313 614.5059z" stroke="none" fill="#000000" fill-rule="nonzero" /><path id="77" transform="matrix(1 0 0 -1 0 842)" d="M223.0313 649.1992L273.0894 649.1992L273.0894 648.7051L223.0313 648.7051z" stroke="none" fill="#000000" fill-rule="nonzero" /><path id="78" transform="matrix(1 0 0 -1 0 842)" d="M223.0313 615.002L273.0894 615.002L273.0894 614.5059L223.0313 614.5059z" stroke="none" fill="#000000" fill-rule="nonzero" /><path id="79" transform="matrix(1 0 0 -1 0 842)" d="M223.0313 649.1992L223.5269 649.1992L223.5269 614.5059L223.0313 614.5059z" stroke="none" fill="#000000" fill-rule="nonzero" /><path id="80" transform="matrix(1 0 0 -1 0 842)" d="M272.5938 649.1992L273.0894 649.1992L273.0894 614.5059L272.5938 614.5059z" stroke="none" fill="#000000" fill-rule="nonzero" /><path id="81" transform="matrix(1 0 0 -1 0 842)" d="M272.5938 649.1992L421.7769 649.1992L421.7769 648.7051L272.5938 648.7051z" stroke="none" fill="#000000" fill-rule="nonzero" /><path id="82" transform="matrix(1 0 0 -1 0 842)" d="M272.5938 615.002L421.7769 615.002L421.7769 614.5059L272.5938 614.5059z" stroke="none" fill="#000000" fill-rule="nonzero" /><path id="83" transform="matrix(1 0 0 -1 0 842)" d="M272.5938 649.1992L273.0894 649.1992L273.0894 614.5059L272.5938 614.5059z" stroke="none" fill="#000000" fill-rule="nonzero" /><path id="84" transform="matrix(1 0 0 -1 0 842)" d="M421.2813 649.1992L421.7769 649.1992L421.7769 614.5059L421.2813 614.5059z" stroke="none" fill="#000000" fill-rule="nonzero" /><path id="85" transform="matrix(1 0 0 -1 0 842)" d="M421.2813 649.1992L471.3394 649.1992L471.3394 648.7051L421.2813 648.7051z" stroke="none" fill="#000000" fill-rule="nonzero" /><path id="86" transform="matrix(1 0 0 -1 0 842)" d="M421.2813 615.002L471.3394 615.002L471.3394 614.5059L421.2813 614.5059z" stroke="none" fill="#000000" fill-rule="nonzero" /><path id="87" transform="matrix(1 0 0 -1 0 842)" d="M421.2813 649.1992L421.7769 649.1992L421.7769 614.5059L421.2813 614.5059z" stroke="none" fill="#000000" fill-rule="nonzero" /><path id="88" transform="matrix(1 0 0 -1 0 842)" d="M470.8438 649.1992L471.3394 649.1992L471.3394 614.5059L470.8438 614.5059z" stroke="none" fill="#000000" fill-rule="nonzero" /><path id="89" transform="matrix(1 0 0 -1 0 842)" d="M470.8438 649.1992L545.1875 649.1992L545.1875 648.7051L470.8438 648.7051z" stroke="none" fill="#000000" fill-rule="nonzero" /><path id="90" transform="matrix(1 0 0 -1 0 842)" d="M470.8438 615.002L545.1875 615.002L545.1875 614.5059L470.8438 614.5059z" stroke="none" fill="#000000" fill-rule="nonzero" /><path id="91" transform="matrix(1 0 0 -1 0 842)" d="M470.8438 649.1992L471.3394 649.1992L471.3394 614.5059L470.8438 614.5059z" stroke="none" fill="#000000" fill-rule="nonzero" /><path id="92" transform="matrix(1 0 0 -1 0 842)" d="M544.6919 649.1992L545.1875 649.1992L545.1875 614.5059L544.6919 614.5059z" stroke="none" fill="#000000" fill-rule="nonzero" /></g></g></g></svg>