<svg xmlns="http://www.w3.org/2000/svg" xmlns:xlink="http://www.w3.org/1999/xlink" id="body_21" preserveAspectRatio="xMinYMin meet" viewBox="0 0 793 1123"><defs><clipPath id="1"><path id="" clip-rule="evenodd" transform="matrix(1 0 0 1 0 0)" d="M0 842L0 0L0 0L595 0L595 0L595 842L595 842L0 842z" /></clipPath><clipPath id="2"><path id="" clip-rule="evenodd" transform="matrix(1 0 0 1 0 0)" d="M0 0L594.75 0L594.75 0L594.75 842.0669L594.75 842.0669L0 842.0669L0 842.0669L0 0z" /></clipPath></defs><g transform="matrix(1.333333 0 0 1.333333 0 0)"><g clip-path="url(#1)"><g clip-path="url(#2)"><path id="1" transform="matrix(1 0 0 -1 0 842)" d="M0 842L594.75 842L594.75 -0.06640625L0 -0.06640625z" stroke="none" fill="#FFFFFF" fill-rule="nonzero" /><path id="2" transform="matrix(1 0 0 -1 0 842)" d="M49.5625 747.8301L74.34375 747.8301L74.34375 722.0586L49.5625 722.0586z" stroke="none" fill="#9CC9F0" fill-rule="nonzero" /><path id="3" transform="matrix(1 0 0 -1 0 842)" d="M74.34375 747.8301L148.6875 747.8301L148.6875 722.0586L74.34375 722.0586z" stroke="none" fill="#9CC9F0" fill-rule="nonzero" /><path id="4" transform="matrix(1 0 0 -1 0 842)" d="M148.6875 747.8301L223.0313 747.8301L223.0313 722.0586L148.6875 722.0586z" stroke="none" fill="#9CC9F0" fill-rule="nonzero" /><path id="5" transform="matrix(1 0 0 -1 0 842)" d="M223.0313 747.8301L272.5938 747.8301L272.5938 722.0586L223.0313 722.0586z" stroke="none" fill="#9CC9F0" fill-rule="nonzero" /><path id="6" transform="matrix(1 0 0 -1 0 842)" d="M272.5938 747.8301L421.2813 747.8301L421.2813 722.0586L272.5938 722.0586z" stroke="none" fill="#9CC9F0" fill-rule="nonzero" /><path id="7" transform="matrix(1 0 0 -1 0 842)" d="M421.2813 747.8301L470.8438 747.8301L470.8438 722.0586L421.2813 722.0586z" stroke="none" fill="#9CC9F0" fill-rule="nonzero" /><path id="8" transform="matrix(1 0 0 -1 0 842)" d="M470.8438 747.8301L544.6919 747.8301L544.6919 722.0586L470.8438 722.0586z" stroke="none" fill="#9CC9F0" fill-rule="nonzero" /><path id="9" transform="matrix(1 0 0 -1 0 842)" d="M49.5625 747.8301L74.83938 747.8301L74.83938 747.3359L49.5625 747.3359z" stroke="none" fill="#000000" fill-rule="nonzero" /><path id="10" transform="matrix(1 0 0 -1 0 842)" d="M49.5625 722.0586L74.83938 722.0586L74.83938 721.5625L49.5625 721.5625z" stroke="none" fill="#000000" fill-rule="nonzero" /><path id="11" transform="matrix(1 0 0 -1 0 842)" d="M49.5625 747.8301L50.05813 747.8301L50.05813 721.5625L49.5625 721.5625z" stroke="none" fill="#000000" fill-rule="nonzero" /><path id="12" transform="matrix(1 0 0 -1 0 842)" d="M74.34375 747.8301L74.83938 747.8301L74.83938 721.5625L74.34375 721.5625z" stroke="none" fill="#000000" fill-rule="nonzero" /><path id="13" transform="matrix(1 0 0 -1 0 842)" d="M74.34375 747.8301L149.1831 747.8301L149.1831 747.3359L74.34375 747.3359z" stroke="none" fill="#000000" fill-rule="nonzero" /><path id="14" transform="matrix(1 0 0 -1 0 842)" d="M74.34375 722.0586L149.1831 722.0586L149.1831 721.5625L74.34375 721.5625z" stroke="none" fill="#000000" fill-rule="nonzero" /><path id="15" transform="matrix(1 0 0 -1 0 842)" d="M74.34375 747.8301L74.83938 747.8301L74.83938 721.5625L74.34375 721.5625z" stroke="none" fill="#000000" fill-rule="nonzero" /><path id="16" transform="matrix(1 0 0 -1 0 842)" d="M148.6875 747.8301L149.1831 747.8301L149.1831 721.5625L148.6875 721.5625z" stroke="none" fill="#000000" fill-rule="nonzero" /><path id="17" transform="matrix(1 0 0 -1 0 842)" d="M148.6875 747.8301L223.5269 747.8301L223.5269 747.3359L148.6875 747.3359z" stroke="none" fill="#000000" fill-rule="nonzero" /><path id="18" transform="matrix(1 0 0 -1 0 842)" d="M148.6875 722.0586L223.5269 722.0586L223.5269 721.5625L148.6875 721.5625z" stroke="none" fill="#000000" fill-rule="nonzero" /><path id="19" transform="matrix(1 0 0 -1 0 842)" d="M148.6875 747.8301L149.1831 747.8301L149.1831 721.5625L148.6875 721.5625z" stroke="none" fill="#000000" fill-rule="nonzero" /><path id="20" transform="matrix(1 0 0 -1 0 842)" d="M223.0313 747.8301L223.5269 747.8301L223.5269 721.5625L223.0313 721.5625z" stroke="none" fill="#000000" fill-rule="nonzero" /><path id="21" transform="matrix(1 0 0 -1 0 842)" d="M223.0313 747.8301L273.0894 747.8301L273.0894 747.3359L223.0313 747.3359z" stroke="none" fill="#000000" fill-rule="nonzero" /><path id="22" transform="matrix(1 0 0 -1 0 842)" d="M223.0313 722.0586L273.0894 722.0586L273.0894 721.5625L223.0313 721.5625z" stroke="none" fill="#000000" fill-rule="nonzero" /><path id="23" transform="matrix(1 0 0 -1 0 842)" d="M223.0313 747.8301L223.5269 747.8301L223.5269 721.5625L223.0313 721.5625z" stroke="none" fill="#000000" fill-rule="nonzero" /><path id="24" transform="matrix(1 0 0 -1 0 842)" d="M272.5938 747.8301L273.0894 747.8301L273.0894 721.5625L272.5938 721.5625z" stroke="none" fill="#000000" fill-rule="nonzero" /><path id="25" transform="matrix(1 0 0 -1 0 842)" d="M272.5938 747.8301L421.7769 747.8301L421.7769 747.3359L272.5938 747.3359z" stroke="none" fill="#000000" fill-rule="nonzero" /><path id="26" transform="matrix(1 0 0 -1 0 842)" d="M272.5938 722.0586L421.7769 722.0586L421.7769 721.5625L272.5938 721.5625z" stroke="none" fill="#000000" fill-rule="nonzero" /><path id="27" transform="matrix(1 0 0 -1 0 842)" d="M272.5938 747.8301L273.0894 747.8301L273.0894 721.5625L272.5938 721.5625z" stroke="none" fill="#000000" fill-rule="nonzero" /><path id="28" transform="matrix(1 0 0 -1 0 842)" d="M421.2813 747.8301L421.7769 747.8301L421.7769 721.5625L421.2813 721.5625z" stroke="none" fill="#000000" fill-rule="nonzero" /><path id="29" transform="matrix(1 0 0 -1 0 842)" d="M421.2813 747.8301L471.3394 747.8301L471.3394 747.3359L421.2813 747.3359z" stroke="none" fill="#000000" fill-rule="nonzero" /><path id="30" transform="matrix(1 0 0 -1 0 842)" d="M421.2813 722.0586L471.3394 722.0586L471.3394 721.5625L421.2813 721.5625z" stroke="none" fill="#000000" fill-rule="nonzero" /><path id="31" transform="matrix(1 0 0 -1 0 842)" d="M421.2813 747.8301L421.7769 747.8301L421.7769 721.5625L421.2813 721.5625z" stroke="none" fill="#000000" fill-rule="nonzero" /><path id="32" transform="matrix(1 0 0 -1 0 842)" d="M470.8438 747.8301L471.3394 747.8301L471.3394 721.5625L470.8438 721.5625z" stroke="none" fill="#000000" fill-rule="nonzero" /><path id="33" transform="matrix(1 0 0 -1 0 842)" d="M470.8438 747.8301L545.1875 747.8301L545.1875 747.3359L470.8438 747.3359z" stroke="none" fill="#000000" fill-rule="nonzero" /><path id="34" transform="matrix(1 0 0 -1 0 842)" d="M470.8438 722.0586L545.1875 722.0586L545.1875 721.5625L470.8438 721.5625z" stroke="none" fill="#000000" fill-rule="nonzero" /><path id="35" transform="matrix(1 0 0 -1 0 842)" d="M470.8438 747.8301L471.3394 747.8301L471.3394 721.5625L470.8438 721.5625z" stroke="none" fill="#000000" fill-rule="nonzero" /><path id="36" transform="matrix(1 0 0 -1 0 842)" d="M544.6919 747.8301L545.1875 747.8301L545.1875 721.5625L544.6919 721.5625z" stroke="none" fill="#000000" fill-rule="nonzero" /><path id="37" transform="matrix(1 0 0 -1 0 842)" d="M49.5625 722.0586L74.83938 722.0586L74.83938 721.5625L49.5625 721.5625z" stroke="none" fill="#000000" fill-rule="nonzero" /><path id="38" transform="matrix(1 0 0 -1 0 842)" d="M49.5625 626.8984L74.83938 626.8984L74.83938 626.4023L49.5625 626.4023z" stroke="none" fill="#000000" fill-rule="nonzero" /><path id="39" transform="matrix(1 0 0 -1 0 842)" d="M49.5625 722.0586L50.05813 722.0586L50.05813 626.4023L49.5625 626.4023z" stroke="none" fill="#000000" fill-rule="nonzero" /><path id="40" transform="matrix(1 0 0 -1 0 842)" d="M74.34375 722.0586L74.83938 722.0586L74.83938 626.4023L74.34375 626.4023z" stroke="none" fill="#000000" fill-rule="nonzero" /><path id="41" transform="matrix(1 0 0 -1 0 842)" d="M74.34375 722.0586L149.1831 722.0586L149.1831 721.5625L74.34375 721.5625z" stroke="none" fill="#000000" fill-rule="nonzero" /><path id="42" transform="matrix(1 0 0 -1 0 842)" d="M74.34375 626.8984L149.1831 626.8984L149.1831 626.4023L74.34375 626.4023z" stroke="none" fill="#000000" fill-rule="nonzero" /><path id="43" transform="matrix(1 0 0 -1 0 842)" d="M74.34375 722.0586L74.83938 722.0586L74.83938 626.4023L74.34375 626.4023z" stroke="none" fill="#000000" fill-rule="nonzero" /><path id="44" transform="matrix(1 0 0 -1 0 842)" d="M148.6875 722.0586L149.1831 722.0586L149.1831 626.4023L148.6875 626.4023z" stroke="none" fill="#000000" fill-rule="nonzero" /><path id="45" transform="matrix(1 0 0 -1 0 842)" d="M148.6875 722.0586L223.5269 722.0586L223.5269 721.5625L148.6875 721.5625z" stroke="none" fill="#000000" fill-rule="nonzero" /><path id="46" transform="matrix(1 0 0 -1 0 842)" d="M148.6875 661.0957L223.5269 661.0957L223.5269 660.6016L148.6875 660.6016z" stroke="none" fill="#000000" fill-rule="nonzero" /><path id="47" transform="matrix(1 0 0 -1 0 842)" d="M148.6875 722.0586L149.1831 722.0586L149.1831 660.6016L148.6875 660.6016z" stroke="none" fill="#000000" fill-rule="nonzero" /><path id="48" transform="matrix(1 0 0 -1 0 842)" d="M223.0313 722.0586L223.5269 722.0586L223.5269 660.6016L223.0313 660.6016z" stroke="none" fill="#000000" fill-rule="nonzero" /><path id="49" transform="matrix(1 0 0 -1 0 842)" d="M223.0313 722.0586L273.0894 722.0586L273.0894 721.5625L223.0313 721.5625z" stroke="none" fill="#000000" fill-rule="nonzero" /><path id="50" transform="matrix(1 0 0 -1 0 842)" d="M223.0313 661.0957L273.0894 661.0957L273.0894 660.6016L223.0313 660.6016z" stroke="none" fill="#000000" fill-rule="nonzero" /><path id="51" transform="matrix(1 0 0 -1 0 842)" d="M223.0313 722.0586L223.5269 722.0586L223.5269 660.6016L223.0313 660.6016z" stroke="none" fill="#000000" fill-rule="nonzero" /><path id="52" transform="matrix(1 0 0 -1 0 842)" d="M272.5938 722.0586L273.0894 722.0586L273.0894 660.6016L272.5938 660.6016z" stroke="none" fill="#000000" fill-rule="nonzero" /><path id="53" transform="matrix(1 0 0 -1 0 842)" d="M272.5938 722.0586L421.7769 722.0586L421.7769 721.5625L272.5938 721.5625z" stroke="none" fill="#000000" fill-rule="nonzero" /><path id="54" transform="matrix(1 0 0 -1 0 842)" d="M272.5938 661.0957L421.7769 661.0957L421.7769 660.6016L272.5938 660.6016z" stroke="none" fill="#000000" fill-rule="nonzero" /><path id="55" transform="matrix(1 0 0 -1 0 842)" d="M272.5938 722.0586L273.0894 722.0586L273.0894 660.6016L272.5938 660.6016z" stroke="none" fill="#000000" fill-rule="nonzero" /><path id="56" transform="matrix(1 0 0 -1 0 842)" d="M421.2813 722.0586L421.7769 722.0586L421.7769 660.6016L421.2813 660.6016z" stroke="none" fill="#000000" fill-rule="nonzero" /><path id="57" transform="matrix(1 0 0 -1 0 842)" d="M421.2813 722.0586L471.3394 722.0586L471.3394 721.5625L421.2813 721.5625z" stroke="none" fill="#000000" fill-rule="nonzero" /><path id="58" transform="matrix(1 0 0 -1 0 842)" d="M421.2813 661.0957L471.3394 661.0957L471.3394 660.6016L421.2813 660.6016z" stroke="none" fill="#000000" fill-rule="nonzero" /><path id="59" transform="matrix(1 0 0 -1 0 842)" d="M421.2813 722.0586L421.7769 722.0586L421.7769 660.6016L421.2813 660.6016z" stroke="none" fill="#000000" fill-rule="nonzero" /><path id="60" transform="matrix(1 0 0 -1 0 842)" d="M470.8438 722.0586L471.3394 722.0586L471.3394 660.6016L470.8438 660.6016z" stroke="none" fill="#000000" fill-rule="nonzero" /><path id="61" transform="matrix(1 0 0 -1 0 842)" d="M470.8438 722.0586L545.1875 722.0586L545.1875 721.5625L470.8438 721.5625z" stroke="none" fill="#000000" fill-rule="nonzero" /><path id="62" transform="matrix(1 0 0 -1 0 842)" d="M470.8438 626.8984L545.1875 626.8984L545.1875 626.4023L470.8438 626.4023z" stroke="none" fill="#000000" fill-rule="nonzero" /><path id="63" transform="matrix(1 0 0 -1 0 842)" d="M470.8438 722.0586L471.3394 722.0586L471.3394 626.4023L470.8438 626.4023z" stroke="none" fill="#000000" fill-rule="nonzero" /><path id="64" transform="matrix(1 0 0 -1 0 842)" d="M544.6919 722.0586L545.1875 722.0586L545.1875 626.4023L544.6919 626.4023z" stroke="none" fill="#000000" fill-rule="nonzero" /><path id="65" transform="matrix(1 0 0 -1 0 842)" d="M148.6875 661.0957L223.5269 661.0957L223.5269 660.6016L148.6875 660.6016z" stroke="none" fill="#000000" fill-rule="nonzero" /><path id="66" transform="matrix(1 0 0 -1 0 842)" d="M148.6875 626.8984L223.5269 626.8984L223.5269 626.4023L148.6875 626.4023z" stroke="none" fill="#000000" fill-rule="nonzero" /><path id="67" transform="matrix(1 0 0 -1 0 842)" d="M148.6875 661.0957L149.1831 661.0957L149.1831 626.4023L148.6875 626.4023z" stroke="none" fill="#000000" fill-rule="nonzero" /><path id="68" transform="matrix(1 0 0 -1 0 842)" d="M223.0313 661.0957L223.5269 661.0957L223.5269 626.4023L223.0313 626.4023z" stroke="none" fill="#000000" fill-rule="nonzero" /><path id="69" transform="matrix(1 0 0 -1 0 842)" d="M223.0313 661.0957L273.0894 661.0957L273.0894 660.6016L223.0313 660.6016z" stroke="none" fill="#000000" fill-rule="nonzero" /><path id="70" transform="matrix(1 0 0 -1 0 842)" d="M223.0313 626.8984L273.0894 626.8984L273.0894 626.4023L223.0313 626.4023z" stroke="none" fill="#000000" fill-rule="nonzero" /><path id="71" transform="matrix(1 0 0 -1 0 842)" d="M223.0313 661.0957L223.5269 661.0957L223.5269 626.4023L223.0313 626.4023z" stroke="none" fill="#000000" fill-rule="nonzero" /><path id="72" transform="matrix(1 0 0 -1 0 842)" d="M272.5938 661.0957L273.0894 661.0957L273.0894 626.4023L272.5938 626.4023z" stroke="none" fill="#000000" fill-rule="nonzero" /><path id="73" transform="matrix(1 0 0 -1 0 842)" d="M272.5938 661.0957L421.7769 661.0957L421.7769 660.6016L272.5938 660.6016z" stroke="none" fill="#000000" fill-rule="nonzero" /><path id="74" transform="matrix(1 0 0 -1 0 842)" d="M272.5938 626.8984L421.7769 626.8984L421.7769 626.4023L272.5938 626.4023z" stroke="none" fill="#000000" fill-rule="nonzero" /><path id="75" transform="matrix(1 0 0 -1 0 842)" d="M272.5938 661.0957L273.0894 661.0957L273.0894 626.4023L272.5938 626.4023z" stroke="none" fill="#000000" fill-rule="nonzero" /><path id="76" transform="matrix(1 0 0 -1 0 842)" d="M421.2813 661.0957L421.7769 661.0957L421.7769 626.4023L421.2813 626.4023z" stroke="none" fill="#000000" fill-rule="nonzero" /><path id="77" transform="matrix(1 0 0 -1 0 842)" d="M421.2813 661.0957L471.3394 661.0957L471.3394 660.6016L421.2813 660.6016z" stroke="none" fill="#000000" fill-rule="nonzero" /><path id="78" transform="matrix(1 0 0 -1 0 842)" d="M421.2813 626.8984L471.3394 626.8984L471.3394 626.4023L421.2813 626.4023z" stroke="none" fill="#000000" fill-rule="nonzero" /><path id="79" transform="matrix(1 0 0 -1 0 842)" d="M421.2813 661.0957L421.7769 661.0957L421.7769 626.4023L421.2813 626.4023z" stroke="none" fill="#000000" fill-rule="nonzero" /><path id="80" transform="matrix(1 0 0 -1 0 842)" d="M470.8438 661.0957L471.3394 661.0957L471.3394 626.4023L470.8438 626.4023z" stroke="none" fill="#000000" fill-rule="nonzero" /><path id="81" transform="matrix(1 0 0 -1 0 842)" d="M49.5625 626.8984L74.83938 626.8984L74.83938 626.4023L49.5625 626.4023z" stroke="none" fill="#000000" fill-rule="nonzero" /><path id="82" transform="matrix(1 0 0 -1 0 842)" d="M49.5625 565.9375L74.83938 565.9375L74.83938 565.4414L49.5625 565.4414z" stroke="none" fill="#000000" fill-rule="nonzero" /><path id="83" transform="matrix(1 0 0 -1 0 842)" d="M49.5625 626.8984L50.05813 626.8984L50.05813 565.4414L49.5625 565.4414z" stroke="none" fill="#000000" fill-rule="nonzero" /><path id="84" transform="matrix(1 0 0 -1 0 842)" d="M74.34375 626.8984L74.83938 626.8984L74.83938 565.4414L74.34375 565.4414z" stroke="none" fill="#000000" fill-rule="nonzero" /><path id="85" transform="matrix(1 0 0 -1 0 842)" d="M74.34375 626.8984L149.1831 626.8984L149.1831 626.4023L74.34375 626.4023z" stroke="none" fill="#000000" fill-rule="nonzero" /><path id="86" transform="matrix(1 0 0 -1 0 842)" d="M74.34375 565.9375L149.1831 565.9375L149.1831 565.4414L74.34375 565.4414z" stroke="none" fill="#000000" fill-rule="nonzero" /><path id="87" transform="matrix(1 0 0 -1 0 842)" d="M74.34375 626.8984L74.83938 626.8984L74.83938 565.4414L74.34375 565.4414z" stroke="none" fill="#000000" fill-rule="nonzero" /><path id="88" transform="matrix(1 0 0 -1 0 842)" d="M148.6875 626.8984L149.1831 626.8984L149.1831 565.4414L148.6875 565.4414z" stroke="none" fill="#000000" fill-rule="nonzero" /><path id="89" transform="matrix(1 0 0 -1 0 842)" d="M148.6875 626.8984L223.5269 626.8984L223.5269 626.4023L148.6875 626.4023z" stroke="none" fill="#000000" fill-rule="nonzero" /><path id="90" transform="matrix(1 0 0 -1 0 842)" d="M148.6875 565.9375L223.5269 565.9375L223.5269 565.4414L148.6875 565.4414z" stroke="none" fill="#000000" fill-rule="nonzero" /><path id="91" transform="matrix(1 0 0 -1 0 842)" d="M148.6875 626.8984L149.1831 626.8984L149.1831 565.4414L148.6875 565.4414z" stroke="none" fill="#000000" fill-rule="nonzero" /><path id="92" transform="matrix(1 0 0 -1 0 842)" d="M223.0313 626.8984L223.5269 626.8984L223.5269 565.4414L223.0313 565.4414z" stroke="none" fill="#000000" fill-rule="nonzero" /><path id="93" transform="matrix(1 0 0 -1 0 842)" d="M223.0313 626.8984L273.0894 626.8984L273.0894 626.4023L223.0313 626.4023z" stroke="none" fill="#000000" fill-rule="nonzero" /><path id="94" transform="matrix(1 0 0 -1 0 842)" d="M223.0313 565.9375L273.0894 565.9375L273.0894 565.4414L223.0313 565.4414z" stroke="none" fill="#000000" fill-rule="nonzero" /><path id="95" transform="matrix(1 0 0 -1 0 842)" d="M223.0313 626.8984L223.5269 626.8984L223.5269 565.4414L223.0313 565.4414z" stroke="none" fill="#000000" fill-rule="nonzero" /><path id="96" transform="matrix(1 0 0 -1 0 842)" d="M272.5938 626.8984L273.0894 626.8984L273.0894 565.4414L272.5938 565.4414z" stroke="none" fill="#000000" fill-rule="nonzero" /><path id="97" transform="matrix(1 0 0 -1 0 842)" d="M272.5938 626.8984L421.7769 626.8984L421.7769 626.4023L272.5938 626.4023z" stroke="none" fill="#000000" fill-rule="nonzero" /><path id="98" transform="matrix(1 0 0 -1 0 842)" d="M272.5938 565.9375L421.7769 565.9375L421.7769 565.4414L272.5938 565.4414z" stroke="none" fill="#000000" fill-rule="nonzero" /><path id="99" transform="matrix(1 0 0 -1 0 842)" d="M272.5938 626.8984L273.0894 626.8984L273.0894 565.4414L272.5938 565.4414z" stroke="none" fill="#000000" fill-rule="nonzero" /><path id="100" transform="matrix(1 0 0 -1 0 842)" d="M421.2813 626.8984L421.7769 626.8984L421.7769 565.4414L421.2813 565.4414z" stroke="none" fill="#000000" fill-rule="nonzero" /><path id="101" transform="matrix(1 0 0 -1 0 842)" d="M421.2813 626.8984L471.3394 626.8984L471.3394 626.4023L421.2813 626.4023z" stroke="none" fill="#000000" fill-rule="nonzero" /><path id="102" transform="matrix(1 0 0 -1 0 842)" d="M421.2813 565.9375L471.3394 565.9375L471.3394 565.4414L421.2813 565.4414z" stroke="none" fill="#000000" fill-rule="nonzero" /><path id="103" transform="matrix(1 0 0 -1 0 842)" d="M421.2813 626.8984L421.7769 626.8984L421.7769 565.4414L421.2813 565.4414z" stroke="none" fill="#000000" fill-rule="nonzero" /><path id="104" transform="matrix(1 0 0 -1 0 842)" d="M470.8438 626.8984L471.3394 626.8984L471.3394 565.4414L470.8438 565.4414z" stroke="none" fill="#000000" fill-rule="nonzero" /><path id="105" transform="matrix(1 0 0 -1 0 842)" d="M470.8438 626.8984L545.1875 626.8984L545.1875 626.4023L470.8438 626.4023z" stroke="none" fill="#000000" fill-rule="nonzero" /><path id="106" transform="matrix(1 0 0 -1 0 842)" d="M470.8438 565.9375L545.1875 565.9375L545.1875 565.4414L470.8438 565.4414z" stroke="none" fill="#000000" fill-rule="nonzero" /><path id="107" transform="matrix(1 0 0 -1 0 842)" d="M470.8438 626.8984L471.3394 626.8984L471.3394 565.4414L470.8438 565.4414z" stroke="none" fill="#000000" fill-rule="nonzero" /><path id="108" transform="matrix(1 0 0 -1 0 842)" d="M544.6919 626.8984L545.1875 626.8984L545.1875 565.4414L544.6919 565.4414z" stroke="none" fill="#000000" fill-rule="nonzero" /><path id="109" transform="matrix(1 0 0 -1 0 842)" d="M49.5625 565.9375L74.83938 565.9375L74.83938 565.4414L49.5625 565.4414z" stroke="none" fill="#000000" fill-rule="nonzero" /><path id="110" transform="matrix(1 0 0 -1 0 842)" d="M49.5625 457.3945L74.83938 457.3945L74.83938 456.8984L49.5625 456.8984z" stroke="none" fill="#000000" fill-rule="nonzero" /><path id="111" transform="matrix(1 0 0 -1 0 842)" d="M49.5625 565.9375L50.05813 565.9375L50.05813 456.8984L49.5625 456.8984z" stroke="none" fill="#000000" fill-rule="nonzero" /><path id="112" transform="matrix(1 0 0 -1 0 842)" d="M74.34375 565.9375L74.83938 565.9375L74.83938 456.8984L74.34375 456.8984z" stroke="none" fill="#000000" fill-rule="nonzero" /><path id="113" transform="matrix(1 0 0 -1 0 842)" d="M74.34375 565.9375L149.1831 565.9375L149.1831 565.4414L74.34375 565.4414z" stroke="none" fill="#000000" fill-rule="nonzero" /><path id="114" transform="matrix(1 0 0 -1 0 842)" d="M74.34375 457.3945L149.1831 457.3945L149.1831 456.8984L74.34375 456.8984z" stroke="none" fill="#000000" fill-rule="nonzero" /><path id="115" transform="matrix(1 0 0 -1 0 842)" d="M74.34375 565.9375L74.83938 565.9375L74.83938 456.8984L74.34375 456.8984z" stroke="none" fill="#000000" fill-rule="nonzero" /><path id="116" transform="matrix(1 0 0 -1 0 842)" d="M148.6875 565.9375L149.1831 565.9375L149.1831 456.8984L148.6875 456.8984z" stroke="none" fill="#000000" fill-rule="nonzero" /><path id="117" transform="matrix(1 0 0 -1 0 842)" d="M148.6875 565.9375L223.5269 565.9375L223.5269 565.4414L148.6875 565.4414z" stroke="none" fill="#000000" fill-rule="nonzero" /><path id="118" transform="matrix(1 0 0 -1 0 842)" d="M148.6875 491.5938L223.5269 491.5938L223.5269 491.0977L148.6875 491.0977z" stroke="none" fill="#000000" fill-rule="nonzero" /><path id="119" transform="matrix(1 0 0 -1 0 842)" d="M148.6875 565.9375L149.1831 565.9375L149.1831 491.0977L148.6875 491.0977z" stroke="none" fill="#000000" fill-rule="nonzero" /><path id="120" transform="matrix(1 0 0 -1 0 842)" d="M223.0313 565.9375L223.5269 565.9375L223.5269 491.0977L223.0313 491.0977z" stroke="none" fill="#000000" fill-rule="nonzero" /><path id="121" transform="matrix(1 0 0 -1 0 842)" d="M223.0313 565.9375L273.0894 565.9375L273.0894 565.4414L223.0313 565.4414z" stroke="none" fill="#000000" fill-rule="nonzero" /><path id="122" transform="matrix(1 0 0 -1 0 842)" d="M223.0313 491.5938L273.0894 491.5938L273.0894 491.0977L223.0313 491.0977z" stroke="none" fill="#000000" fill-rule="nonzero" /><path id="123" transform="matrix(1 0 0 -1 0 842)" d="M223.0313 565.9375L223.5269 565.9375L223.5269 491.0977L223.0313 491.0977z" stroke="none" fill="#000000" fill-rule="nonzero" /><path id="124" transform="matrix(1 0 0 -1 0 842)" d="M272.5938 565.9375L273.0894 565.9375L273.0894 491.0977L272.5938 491.0977z" stroke="none" fill="#000000" fill-rule="nonzero" /><path id="125" transform="matrix(1 0 0 -1 0 842)" d="M272.5938 565.9375L421.7769 565.9375L421.7769 565.4414L272.5938 565.4414z" stroke="none" fill="#000000" fill-rule="nonzero" /><path id="126" transform="matrix(1 0 0 -1 0 842)" d="M272.5938 491.5938L421.7769 491.5938L421.7769 491.0977L272.5938 491.0977z" stroke="none" fill="#000000" fill-rule="nonzero" /><path id="127" transform="matrix(1 0 0 -1 0 842)" d="M272.5938 565.9375L273.0894 565.9375L273.0894 491.0977L272.5938 491.0977z" stroke="none" fill="#000000" fill-rule="nonzero" /><path id="128" transform="matrix(1 0 0 -1 0 842)" d="M421.2813 565.9375L421.7769 565.9375L421.7769 491.0977L421.2813 491.0977z" stroke="none" fill="#000000" fill-rule="nonzero" /><path id="129" transform="matrix(1 0 0 -1 0 842)" d="M421.2813 565.9375L471.3394 565.9375L471.3394 565.4414L421.2813 565.4414z" stroke="none" fill="#000000" fill-rule="nonzero" /><path id="130" transform="matrix(1 0 0 -1 0 842)" d="M421.2813 491.5938L471.3394 491.5938L471.3394 491.0977L421.2813 491.0977z" stroke="none" fill="#000000" fill-rule="nonzero" /><path id="131" transform="matrix(1 0 0 -1 0 842)" d="M421.2813 565.9375L421.7769 565.9375L421.7769 491.0977L421.2813 491.0977z" stroke="none" fill="#000000" fill-rule="nonzero" /><path id="132" transform="matrix(1 0 0 -1 0 842)" d="M470.8438 565.9375L471.3394 565.9375L471.3394 491.0977L470.8438 491.0977z" stroke="none" fill="#000000" fill-rule="nonzero" /><path id="133" transform="matrix(1 0 0 -1 0 842)" d="M470.8438 565.9375L545.1875 565.9375L545.1875 565.4414L470.8438 565.4414z" stroke="none" fill="#000000" fill-rule="nonzero" /><path id="134" transform="matrix(1 0 0 -1 0 842)" d="M470.8438 457.3945L545.1875 457.3945L545.1875 456.8984L470.8438 456.8984z" stroke="none" fill="#000000" fill-rule="nonzero" /><path id="135" transform="matrix(1 0 0 -1 0 842)" d="M470.8438 565.9375L471.3394 565.9375L471.3394 456.8984L470.8438 456.8984z" stroke="none" fill="#000000" fill-rule="nonzero" /><path id="136" transform="matrix(1 0 0 -1 0 842)" d="M544.6919 565.9375L545.1875 565.9375L545.1875 456.8984L544.6919 456.8984z" stroke="none" fill="#000000" fill-rule="nonzero" /><path id="137" transform="matrix(1 0 0 -1 0 842)" d="M148.6875 491.5938L223.5269 491.5938L223.5269 491.0977L148.6875 491.0977z" stroke="none" fill="#000000" fill-rule="nonzero" /><path id="138" transform="matrix(1 0 0 -1 0 842)" d="M148.6875 457.3945L223.5269 457.3945L223.5269 456.8984L148.6875 456.8984z" stroke="none" fill="#000000" fill-rule="nonzero" /><path id="139" transform="matrix(1 0 0 -1 0 842)" d="M148.6875 491.5938L149.1831 491.5938L149.1831 456.8984L148.6875 456.8984z" stroke="none" fill="#000000" fill-rule="nonzero" /><path id="140" transform="matrix(1 0 0 -1 0 842)" d="M223.0313 491.5938L223.5269 491.5938L223.5269 456.8984L223.0313 456.8984z" stroke="none" fill="#000000" fill-rule="nonzero" /><path id="141" transform="matrix(1 0 0 -1 0 842)" d="M223.0313 491.5938L273.0894 491.5938L273.0894 491.0977L223.0313 491.0977z" stroke="none" fill="#000000" fill-rule="nonzero" /><path id="142" transform="matrix(1 0 0 -1 0 842)" d="M223.0313 457.3945L273.0894 457.3945L273.0894 456.8984L223.0313 456.8984z" stroke="none" fill="#000000" fill-rule="nonzero" /><path id="143" transform="matrix(1 0 0 -1 0 842)" d="M223.0313 491.5938L223.5269 491.5938L223.5269 456.8984L223.0313 456.8984z" stroke="none" fill="#000000" fill-rule="nonzero" /><path id="144" transform="matrix(1 0 0 -1 0 842)" d="M272.5938 491.5938L273.0894 491.5938L273.0894 456.8984L272.5938 456.8984z" stroke="none" fill="#000000" fill-rule="nonzero" /><path id="145" transform="matrix(1 0 0 -1 0 842)" d="M272.5938 491.5938L421.7769 491.5938L421.7769 491.0977L272.5938 491.0977z" stroke="none" fill="#000000" fill-rule="nonzero" /><path id="146" transform="matrix(1 0 0 -1 0 842)" d="M272.5938 457.3945L421.7769 457.3945L421.7769 456.8984L272.5938 456.8984z" stroke="none" fill="#000000" fill-rule="nonzero" /><path id="147" transform="matrix(1 0 0 -1 0 842)" d="M272.5938 491.5938L273.0894 491.5938L273.0894 456.8984L272.5938 456.8984z" stroke="none" fill="#000000" fill-rule="nonzero" /><path id="148" transform="matrix(1 0 0 -1 0 842)" d="M421.2813 491.5938L421.7769 491.5938L421.7769 456.8984L421.2813 456.8984z" stroke="none" fill="#000000" fill-rule="nonzero" /><path id="149" transform="matrix(1 0 0 -1 0 842)" d="M421.2813 491.5938L471.3394 491.5938L471.3394 491.0977L421.2813 491.0977z" stroke="none" fill="#000000" fill-rule="nonzero" /><path id="150" transform="matrix(1 0 0 -1 0 842)" d="M421.2813 457.3945L471.3394 457.3945L471.3394 456.8984L421.2813 456.8984z" stroke="none" fill="#000000" fill-rule="nonzero" /><path id="151" transform="matrix(1 0 0 -1 0 842)" d="M421.2813 491.5938L421.7769 491.5938L421.7769 456.8984L421.2813 456.8984z" stroke="none" fill="#000000" fill-rule="nonzero" /><path id="152" transform="matrix(1 0 0 -1 0 842)" d="M470.8438 491.5938L471.3394 491.5938L471.3394 456.8984L470.8438 456.8984z" stroke="none" fill="#000000" fill-rule="nonzero" /><path id="153" transform="matrix(1 0 0 -1 0 842)" d="M49.5625 457.3945L74.83938 457.3945L74.83938 456.8984L49.5625 456.8984z" stroke="none" fill="#000000" fill-rule="nonzero" /><path id="154" transform="matrix(1 0 0 -1 0 842)" d="M49.5625 409.8145L74.83938 409.8145L74.83938 409.3184L49.5625 409.3184z" stroke="none" fill="#000000" fill-rule="nonzero" /><path id="155" transform="matrix(1 0 0 -1 0 842)" d="M49.5625 457.3945L50.05813 457.3945L50.05813 409.3184L49.5625 409.3184z" stroke="none" fill="#000000" fill-rule="nonzero" /><path id="156" transform="matrix(1 0 0 -1 0 842)" d="M74.34375 457.3945L74.83938 457.3945L74.83938 409.3184L74.34375 409.3184z" stroke="none" fill="#000000" fill-rule="nonzero" /><path id="157" transform="matrix(1 0 0 -1 0 842)" d="M74.34375 457.3945L149.1831 457.3945L149.1831 456.8984L74.34375 456.8984z" stroke="none" fill="#000000" fill-rule="nonzero" /><path id="158" transform="matrix(1 0 0 -1 0 842)" d="M74.34375 409.8145L149.1831 409.8145L149.1831 409.3184L74.34375 409.3184z" stroke="none" fill="#000000" fill-rule="nonzero" /><path id="159" transform="matrix(1 0 0 -1 0 842)" d="M74.34375 457.3945L74.83938 457.3945L74.83938 409.3184L74.34375 409.3184z" stroke="none" fill="#000000" fill-rule="nonzero" /><path id="160" transform="matrix(1 0 0 -1 0 842)" d="M148.6875 457.3945L149.1831 457.3945L149.1831 409.3184L148.6875 409.3184z" stroke="none" fill="#000000" fill-rule="nonzero" /><path id="161" transform="matrix(1 0 0 -1 0 842)" d="M148.6875 457.3945L223.5269 457.3945L223.5269 456.8984L148.6875 456.8984z" stroke="none" fill="#000000" fill-rule="nonzero" /><path id="162" transform="matrix(1 0 0 -1 0 842)" d="M148.6875 409.8145L223.5269 409.8145L223.5269 409.3184L148.6875 409.3184z" stroke="none" fill="#000000" fill-rule="nonzero" /><path id="163" transform="matrix(1 0 0 -1 0 842)" d="M148.6875 457.3945L149.1831 457.3945L149.1831 409.3184L148.6875 409.3184z" stroke="none" fill="#000000" fill-rule="nonzero" /><path id="164" transform="matrix(1 0 0 -1 0 842)" d="M223.0313 457.3945L223.5269 457.3945L223.5269 409.3184L223.0313 409.3184z" stroke="none" fill="#000000" fill-rule="nonzero" /><path id="165" transform="matrix(1 0 0 -1 0 842)" d="M223.0313 457.3945L273.0894 457.3945L273.0894 456.8984L223.0313 456.8984z" stroke="none" fill="#000000" fill-rule="nonzero" /><path id="166" transform="matrix(1 0 0 -1 0 842)" d="M223.0313 409.8145L273.0894 409.8145L273.0894 409.3184L223.0313 409.3184z" stroke="none" fill="#000000" fill-rule="nonzero" /><path id="167" transform="matrix(1 0 0 -1 0 842)" d="M223.0313 457.3945L223.5269 457.3945L223.5269 409.3184L223.0313 409.3184z" stroke="none" fill="#000000" fill-rule="nonzero" /><path id="168" transform="matrix(1 0 0 -1 0 842)" d="M272.5938 457.3945L273.0894 457.3945L273.0894 409.3184L272.5938 409.3184z" stroke="none" fill="#000000" fill-rule="nonzero" /><path id="169" transform="matrix(1 0 0 -1 0 842)" d="M272.5938 457.3945L421.7769 457.3945L421.7769 456.8984L272.5938 456.8984z" stroke="none" fill="#000000" fill-rule="nonzero" /><path id="170" transform="matrix(1 0 0 -1 0 842)" d="M272.5938 409.8145L421.7769 409.8145L421.7769 409.3184L272.5938 409.3184z" stroke="none" fill="#000000" fill-rule="nonzero" /><path id="171" transform="matrix(1 0 0 -1 0 842)" d="M272.5938 457.3945L273.0894 457.3945L273.0894 409.3184L272.5938 409.3184z" stroke="none" fill="#000000" fill-rule="nonzero" /><path id="172" transform="matrix(1 0 0 -1 0 842)" d="M421.2813 457.3945L421.7769 457.3945L421.7769 409.3184L421.2813 409.3184z" stroke="none" fill="#000000" fill-rule="nonzero" /><path id="173" transform="matrix(1 0 0 -1 0 842)" d="M421.2813 457.3945L471.3394 457.3945L471.3394 456.8984L421.2813 456.8984z" stroke="none" fill="#000000" fill-rule="nonzero" /><path id="174" transform="matrix(1 0 0 -1 0 842)" d="M421.2813 409.8145L471.3394 409.8145L471.3394 409.3184L421.2813 409.3184z" stroke="none" fill="#000000" fill-rule="nonzero" /><path id="175" transform="matrix(1 0 0 -1 0 842)" d="M421.2813 457.3945L421.7769 457.3945L421.7769 409.3184L421.2813 409.3184z" stroke="none" fill="#000000" fill-rule="nonzero" /><path id="176" transform="matrix(1 0 0 -1 0 842)" d="M470.8438 457.3945L471.3394 457.3945L471.3394 409.3184L470.8438 409.3184z" stroke="none" fill="#000000" fill-rule="nonzero" /><path id="177" transform="matrix(1 0 0 -1 0 842)" d="M470.8438 457.3945L545.1875 457.3945L545.1875 456.8984L470.8438 456.8984z" stroke="none" fill="#000000" fill-rule="nonzero" /><path id="178" transform="matrix(1 0 0 -1 0 842)" d="M470.8438 409.8145L545.1875 409.8145L545.1875 409.3184L470.8438 409.3184z" stroke="none" fill="#000000" fill-rule="nonzero" /><path id="179" transform="matrix(1 0 0 -1 0 842)" d="M470.8438 457.3945L471.3394 457.3945L471.3394 409.3184L470.8438 409.3184z" stroke="none" fill="#000000" fill-rule="nonzero" /><path id="180" transform="matrix(1 0 0 -1 0 842)" d="M544.6919 457.3945L545.1875 457.3945L545.1875 409.3184L544.6919 409.3184z" stroke="none" fill="#000000" fill-rule="nonzero" /><path id="181" transform="matrix(1 0 0 -1 0 842)" d="M49.5625 409.8145L74.83938 409.8145L74.83938 409.3184L49.5625 409.3184z" stroke="none" fill="#000000" fill-rule="nonzero" /><path id="182" transform="matrix(1 0 0 -1 0 842)" d="M49.5625 375.6172L74.83938 375.6172L74.83938 375.1211L49.5625 375.1211z" stroke="none" fill="#000000" fill-rule="nonzero" /><path id="183" transform="matrix(1 0 0 -1 0 842)" d="M49.5625 409.8145L50.05813 409.8145L50.05813 375.1211L49.5625 375.1211z" stroke="none" fill="#000000" fill-rule="nonzero" /><path id="184" transform="matrix(1 0 0 -1 0 842)" d="M74.34375 409.8145L74.83938 409.8145L74.83938 375.1211L74.34375 375.1211z" stroke="none" fill="#000000" fill-rule="nonzero" /><path id="185" transform="matrix(1 0 0 -1 0 842)" d="M74.34375 409.8145L149.1831 409.8145L149.1831 409.3184L74.34375 409.3184z" stroke="none" fill="#000000" fill-rule="nonzero" /><path id="186" transform="matrix(1 0 0 -1 0 842)" d="M74.34375 375.6172L149.1831 375.6172L149.1831 375.1211L74.34375 375.1211z" stroke="none" fill="#000000" fill-rule="nonzero" /><path id="187" transform="matrix(1 0 0 -1 0 842)" d="M74.34375 409.8145L74.83938 409.8145L74.83938 375.1211L74.34375 375.1211z" stroke="none" fill="#000000" fill-rule="nonzero" /><path id="188" transform="matrix(1 0 0 -1 0 842)" d="M148.6875 409.8145L149.1831 409.8145L149.1831 375.1211L148.6875 375.1211z" stroke="none" fill="#000000" fill-rule="nonzero" /><path id="189" transform="matrix(1 0 0 -1 0 842)" d="M148.6875 409.8145L223.5269 409.8145L223.5269 409.3184L148.6875 409.3184z" stroke="none" fill="#000000" fill-rule="nonzero" /><path id="190" transform="matrix(1 0 0 -1 0 842)" d="M148.6875 375.6172L223.5269 375.6172L223.5269 375.1211L148.6875 375.1211z" stroke="none" fill="#000000" fill-rule="nonzero" /><path id="191" transform="matrix(1 0 0 -1 0 842)" d="M148.6875 409.8145L149.1831 409.8145L149.1831 375.1211L148.6875 375.1211z" stroke="none" fill="#000000" fill-rule="nonzero" /><path id="192" transform="matrix(1 0 0 -1 0 842)" d="M223.0313 409.8145L223.5269 409.8145L223.5269 375.1211L223.0313 375.1211z" stroke="none" fill="#000000" fill-rule="nonzero" /><path id="193" transform="matrix(1 0 0 -1 0 842)" d="M223.0313 409.8145L273.0894 409.8145L273.0894 409.3184L223.0313 409.3184z" stroke="none" fill="#000000" fill-rule="nonzero" /><path id="194" transform="matrix(1 0 0 -1 0 842)" d="M223.0313 375.6172L273.0894 375.6172L273.0894 375.1211L223.0313 375.1211z" stroke="none" fill="#000000" fill-rule="nonzero" /><path id="195" transform="matrix(1 0 0 -1 0 842)" d="M223.0313 409.8145L223.5269 409.8145L223.5269 375.1211L223.0313 375.1211z" stroke="none" fill="#000000" fill-rule="nonzero" /><path id="196" transform="matrix(1 0 0 -1 0 842)" d="M272.5938 409.8145L273.0894 409.8145L273.0894 375.1211L272.5938 375.1211z" stroke="none" fill="#000000" fill-rule="nonzero" /><path id="197" transform="matrix(1 0 0 -1 0 842)" d="M272.5938 409.8145L421.7769 409.8145L421.7769 409.3184L272.5938 409.3184z" stroke="none" fill="#000000" fill-rule="nonzero" /><path id="198" transform="matrix(1 0 0 -1 0 842)" d="M272.5938 375.6172L421.7769 375.6172L421.7769 375.1211L272.5938 375.1211z" stroke="none" fill="#000000" fill-rule="nonzero" /><path id="199" transform="matrix(1 0 0 -1 0 842)" d="M272.5938 409.8145L273.0894 409.8145L273.0894 375.1211L272.5938 375.1211z" stroke="none" fill="#000000" fill-rule="nonzero" /><path id="200" transform="matrix(1 0 0 -1 0 842)" d="M421.2813 409.8145L421.7769 409.8145L421.7769 375.1211L421.2813 375.1211z" stroke="none" fill="#000000" fill-rule="nonzero" /><path id="201" transform="matrix(1 0 0 -1 0 842)" d="M421.2813 409.8145L471.3394 409.8145L471.3394 409.3184L421.2813 409.3184z" stroke="none" fill="#000000" fill-rule="nonzero" /><path id="202" transform="matrix(1 0 0 -1 0 842)" d="M421.2813 375.6172L471.3394 375.6172L471.3394 375.1211L421.2813 375.1211z" stroke="none" fill="#000000" fill-rule="nonzero" /><path id="203" transform="matrix(1 0 0 -1 0 842)" d="M421.2813 409.8145L421.7769 409.8145L421.7769 375.1211L421.2813 375.1211z" stroke="none" fill="#000000" fill-rule="nonzero" /><path id="204" transform="matrix(1 0 0 -1 0 842)" d="M470.8438 409.8145L471.3394 409.8145L471.3394 375.1211L470.8438 375.1211z" stroke="none" fill="#000000" fill-rule="nonzero" /><path id="205" transform="matrix(1 0 0 -1 0 842)" d="M470.8438 409.8145L545.1875 409.8145L545.1875 409.3184L470.8438 409.3184z" stroke="none" fill="#000000" fill-rule="nonzero" /><path id="206" transform="matrix(1 0 0 -1 0 842)" d="M470.8438 375.6172L545.1875 375.6172L545.1875 375.1211L470.8438 375.1211z" stroke="none" fill="#000000" fill-rule="nonzero" /><path id="207" transform="matrix(1 0 0 -1 0 842)" d="M470.8438 409.8145L471.3394 409.8145L471.3394 375.1211L470.8438 375.1211z" stroke="none" fill="#000000" fill-rule="nonzero" /><path id="208" transform="matrix(1 0 0 -1 0 842)" d="M544.6919 409.8145L545.1875 409.8145L545.1875 375.1211L544.6919 375.1211z" stroke="none" fill="#000000" fill-rule="nonzero" /><path id="209" transform="matrix(1 0 0 -1 0 842)" d="M49.5625 375.6172L74.83938 375.6172L74.83938 375.1211L49.5625 375.1211z" stroke="none" fill="#000000" fill-rule="nonzero" /><path id="210" transform="matrix(1 0 0 -1 0 842)" d="M49.5625 226.9297L74.83938 226.9297L74.83938 226.4336L49.5625 226.4336z" stroke="none" fill="#000000" fill-rule="nonzero" /><path id="211" transform="matrix(1 0 0 -1 0 842)" d="M49.5625 375.6172L50.05813 375.6172L50.05813 226.4336L49.5625 226.4336z" stroke="none" fill="#000000" fill-rule="nonzero" /><path id="212" transform="matrix(1 0 0 -1 0 842)" d="M74.34375 375.6172L74.83938 375.6172L74.83938 226.4336L74.34375 226.4336z" stroke="none" fill="#000000" fill-rule="nonzero" /><path id="213" transform="matrix(1 0 0 -1 0 842)" d="M74.34375 375.6172L149.1831 375.6172L149.1831 375.1211L74.34375 375.1211z" stroke="none" fill="#000000" fill-rule="nonzero" /><path id="214" transform="matrix(1 0 0 -1 0 842)" d="M74.34375 226.9297L149.1831 226.9297L149.1831 226.4336L74.34375 226.4336z" stroke="none" fill="#000000" fill-rule="nonzero" /><path id="215" transform="matrix(1 0 0 -1 0 842)" d="M74.34375 375.6172L74.83938 375.6172L74.83938 226.4336L74.34375 226.4336z" stroke="none" fill="#000000" fill-rule="nonzero" /><path id="216" transform="matrix(1 0 0 -1 0 842)" d="M148.6875 375.6172L149.1831 375.6172L149.1831 226.4336L148.6875 226.4336z" stroke="none" fill="#000000" fill-rule="nonzero" /><path id="217" transform="matrix(1 0 0 -1 0 842)" d="M148.6875 375.6172L223.5269 375.6172L223.5269 375.1211L148.6875 375.1211z" stroke="none" fill="#000000" fill-rule="nonzero" /><path id="218" transform="matrix(1 0 0 -1 0 842)" d="M148.6875 314.6543L223.5269 314.6543L223.5269 314.1582L148.6875 314.1582z" stroke="none" fill="#000000" fill-rule="nonzero" /><path id="219" transform="matrix(1 0 0 -1 0 842)" d="M148.6875 375.6172L149.1831 375.6172L149.1831 314.1582L148.6875 314.1582z" stroke="none" fill="#000000" fill-rule="nonzero" /><path id="220" transform="matrix(1 0 0 -1 0 842)" d="M223.0313 375.6172L223.5269 375.6172L223.5269 314.1582L223.0313 314.1582z" stroke="none" fill="#000000" fill-rule="nonzero" /><path id="221" transform="matrix(1 0 0 -1 0 842)" d="M223.0313 375.6172L273.0894 375.6172L273.0894 375.1211L223.0313 375.1211z" stroke="none" fill="#000000" fill-rule="nonzero" /><path id="222" transform="matrix(1 0 0 -1 0 842)" d="M223.0313 314.6543L273.0894 314.6543L273.0894 314.1582L223.0313 314.1582z" stroke="none" fill="#000000" fill-rule="nonzero" /><path id="223" transform="matrix(1 0 0 -1 0 842)" d="M223.0313 375.6172L223.5269 375.6172L223.5269 314.1582L223.0313 314.1582z" stroke="none" fill="#000000" fill-rule="nonzero" /><path id="224" transform="matrix(1 0 0 -1 0 842)" d="M272.5938 375.6172L273.0894 375.6172L273.0894 314.1582L272.5938 314.1582z" stroke="none" fill="#000000" fill-rule="nonzero" /><path id="225" transform="matrix(1 0 0 -1 0 842)" d="M272.5938 375.6172L421.7769 375.6172L421.7769 375.1211L272.5938 375.1211z" stroke="none" fill="#000000" fill-rule="nonzero" /><path id="226" transform="matrix(1 0 0 -1 0 842)" d="M272.5938 314.6543L421.7769 314.6543L421.7769 314.1582L272.5938 314.1582z" stroke="none" fill="#000000" fill-rule="nonzero" /><path id="227" transform="matrix(1 0 0 -1 0 842)" d="M272.5938 375.6172L273.0894 375.6172L273.0894 314.1582L272.5938 314.1582z" stroke="none" fill="#000000" fill-rule="nonzero" /><path id="228" transform="matrix(1 0 0 -1 0 842)" d="M421.2813 375.6172L421.7769 375.6172L421.7769 314.1582L421.2813 314.1582z" stroke="none" fill="#000000" fill-rule="nonzero" /><path id="229" transform="matrix(1 0 0 -1 0 842)" d="M421.2813 375.6172L471.3394 375.6172L471.3394 375.1211L421.2813 375.1211z" stroke="none" fill="#000000" fill-rule="nonzero" /><path id="230" transform="matrix(1 0 0 -1 0 842)" d="M421.2813 314.6543L471.3394 314.6543L471.3394 314.1582L421.2813 314.1582z" stroke="none" fill="#000000" fill-rule="nonzero" /><path id="231" transform="matrix(1 0 0 -1 0 842)" d="M421.2813 375.6172L421.7769 375.6172L421.7769 314.1582L421.2813 314.1582z" stroke="none" fill="#000000" fill-rule="nonzero" /><path id="232" transform="matrix(1 0 0 -1 0 842)" d="M470.8438 375.6172L471.3394 375.6172L471.3394 314.1582L470.8438 314.1582z" stroke="none" fill="#000000" fill-rule="nonzero" /><path id="233" transform="matrix(1 0 0 -1 0 842)" d="M470.8438 375.6172L545.1875 375.6172L545.1875 375.1211L470.8438 375.1211z" stroke="none" fill="#000000" fill-rule="nonzero" /><path id="234" transform="matrix(1 0 0 -1 0 842)" d="M470.8438 226.9297L545.1875 226.9297L545.1875 226.4336L470.8438 226.4336z" stroke="none" fill="#000000" fill-rule="nonzero" /><path id="235" transform="matrix(1 0 0 -1 0 842)" d="M470.8438 375.6172L471.3394 375.6172L471.3394 226.4336L470.8438 226.4336z" stroke="none" fill="#000000" fill-rule="nonzero" /><path id="236" transform="matrix(1 0 0 -1 0 842)" d="M544.6919 375.6172L545.1875 375.6172L545.1875 226.4336L544.6919 226.4336z" stroke="none" fill="#000000" fill-rule="nonzero" /><path id="237" transform="matrix(1 0 0 -1 0 842)" d="M148.6875 314.6543L223.5269 314.6543L223.5269 314.1582L148.6875 314.1582z" stroke="none" fill="#000000" fill-rule="nonzero" /><path id="238" transform="matrix(1 0 0 -1 0 842)" d="M148.6875 226.9297L223.5269 226.9297L223.5269 226.4336L148.6875 226.4336z" stroke="none" fill="#000000" fill-rule="nonzero" /><path id="239" transform="matrix(1 0 0 -1 0 842)" d="M148.6875 314.6543L149.1831 314.6543L149.1831 226.4336L148.6875 226.4336z" stroke="none" fill="#000000" fill-rule="nonzero" /><path id="240" transform="matrix(1 0 0 -1 0 842)" d="M223.0313 314.6543L223.5269 314.6543L223.5269 226.4336L223.0313 226.4336z" stroke="none" fill="#000000" fill-rule="nonzero" /><path id="241" transform="matrix(1 0 0 -1 0 842)" d="M223.0313 314.6543L273.0894 314.6543L273.0894 314.1582L223.0313 314.1582z" stroke="none" fill="#000000" fill-rule="nonzero" /><path id="242" transform="matrix(1 0 0 -1 0 842)" d="M223.0313 226.9297L273.0894 226.9297L273.0894 226.4336L223.0313 226.4336z" stroke="none" fill="#000000" fill-rule="nonzero" /><path id="243" transform="matrix(1 0 0 -1 0 842)" d="M223.0313 314.6543L223.5269 314.6543L223.5269 226.4336L223.0313 226.4336z" stroke="none" fill="#000000" fill-rule="nonzero" /><path id="244" transform="matrix(1 0 0 -1 0 842)" d="M272.5938 314.6543L273.0894 314.6543L273.0894 226.4336L272.5938 226.4336z" stroke="none" fill="#000000" fill-rule="nonzero" /><path id="245" transform="matrix(1 0 0 -1 0 842)" d="M272.5938 314.6543L421.7769 314.6543L421.7769 314.1582L272.5938 314.1582z" stroke="none" fill="#000000" fill-rule="nonzero" /><path id="246" transform="matrix(1 0 0 -1 0 842)" d="M272.5938 226.9297L421.7769 226.9297L421.7769 226.4336L272.5938 226.4336z" stroke="none" fill="#000000" fill-rule="nonzero" /><path id="247" transform="matrix(1 0 0 -1 0 842)" d="M272.5938 314.6543L273.0894 314.6543L273.0894 226.4336L272.5938 226.4336z" stroke="none" fill="#000000" fill-rule="nonzero" /><path id="248" transform="matrix(1 0 0 -1 0 842)" d="M421.2813 314.6543L421.7769 314.6543L421.7769 226.4336L421.2813 226.4336z" stroke="none" fill="#000000" fill-rule="nonzero" /><path id="249" transform="matrix(1 0 0 -1 0 842)" d="M421.2813 314.6543L471.3394 314.6543L471.3394 314.1582L421.2813 314.1582z" stroke="none" fill="#000000" fill-rule="nonzero" /><path id="250" transform="matrix(1 0 0 -1 0 842)" d="M421.2813 226.9297L471.3394 226.9297L471.3394 226.4336L421.2813 226.4336z" stroke="none" fill="#000000" fill-rule="nonzero" /><path id="251" transform="matrix(1 0 0 -1 0 842)" d="M421.2813 314.6543L421.7769 314.6543L421.7769 226.4336L421.2813 226.4336z" stroke="none" fill="#000000" fill-rule="nonzero" /><path id="252" transform="matrix(1 0 0 -1 0 842)" d="M470.8438 314.6543L471.3394 314.6543L471.3394 226.4336L470.8438 226.4336z" stroke="none" fill="#000000" fill-rule="nonzero" /><path id="253" transform="matrix(1 0 0 -1 0 842)" d="M49.5625 226.9297L74.83938 226.9297L74.83938 226.4336L49.5625 226.4336z" stroke="none" fill="#000000" fill-rule="nonzero" /><path id="254" transform="matrix(1 0 0 -1 0 842)" d="M49.5625 105.0059L74.83938 105.0059L74.83938 104.5098L49.5625 104.5098z" stroke="none" fill="#000000" fill-rule="nonzero" /><path id="255" transform="matrix(1 0 0 -1 0 842)" d="M49.5625 226.9297L50.05813 226.9297L50.05813 104.5098L49.5625 104.5098z" stroke="none" fill="#000000" fill-rule="nonzero" /><path id="256" transform="matrix(1 0 0 -1 0 842)" d="M74.34375 226.9297L74.83938 226.9297L74.83938 104.5098L74.34375 104.5098z" stroke="none" fill="#000000" fill-rule="nonzero" /><path id="257" transform="matrix(1 0 0 -1 0 842)" d="M74.34375 226.9297L149.1831 226.9297L149.1831 226.4336L74.34375 226.4336z" stroke="none" fill="#000000" fill-rule="nonzero" /><path id="258" transform="matrix(1 0 0 -1 0 842)" d="M74.34375 105.0059L149.1831 105.0059L149.1831 104.5098L74.34375 104.5098z" stroke="none" fill="#000000" fill-rule="nonzero" /><path id="259" transform="matrix(1 0 0 -1 0 842)" d="M74.34375 226.9297L74.83938 226.9297L74.83938 104.5098L74.34375 104.5098z" stroke="none" fill="#000000" fill-rule="nonzero" /><path id="260" transform="matrix(1 0 0 -1 0 842)" d="M148.6875 226.9297L149.1831 226.9297L149.1831 104.5098L148.6875 104.5098z" stroke="none" fill="#000000" fill-rule="nonzero" /><path id="261" transform="matrix(1 0 0 -1 0 842)" d="M148.6875 226.9297L223.5269 226.9297L223.5269 226.4336L148.6875 226.4336z" stroke="none" fill="#000000" fill-rule="nonzero" /><path id="262" transform="matrix(1 0 0 -1 0 842)" d="M148.6875 179.3496L223.5269 179.3496L223.5269 178.8535L148.6875 178.8535z" stroke="none" fill="#000000" fill-rule="nonzero" /><path id="263" transform="matrix(1 0 0 -1 0 842)" d="M148.6875 226.9297L149.1831 226.9297L149.1831 178.8535L148.6875 178.8535z" stroke="none" fill="#000000" fill-rule="nonzero" /><path id="264" transform="matrix(1 0 0 -1 0 842)" d="M223.0313 226.9297L223.5269 226.9297L223.5269 178.8535L223.0313 178.8535z" stroke="none" fill="#000000" fill-rule="nonzero" /><path id="265" transform="matrix(1 0 0 -1 0 842)" d="M223.0313 226.9297L273.0894 226.9297L273.0894 226.4336L223.0313 226.4336z" stroke="none" fill="#000000" fill-rule="nonzero" /><path id="266" transform="matrix(1 0 0 -1 0 842)" d="M223.0313 179.3496L273.0894 179.3496L273.0894 178.8535L223.0313 178.8535z" stroke="none" fill="#000000" fill-rule="nonzero" /><path id="267" transform="matrix(1 0 0 -1 0 842)" d="M223.0313 226.9297L223.5269 226.9297L223.5269 178.8535L223.0313 178.8535z" stroke="none" fill="#000000" fill-rule="nonzero" /><path id="268" transform="matrix(1 0 0 -1 0 842)" d="M272.5938 226.9297L273.0894 226.9297L273.0894 178.8535L272.5938 178.8535z" stroke="none" fill="#000000" fill-rule="nonzero" /><path id="269" transform="matrix(1 0 0 -1 0 842)" d="M272.5938 226.9297L421.7769 226.9297L421.7769 226.4336L272.5938 226.4336z" stroke="none" fill="#000000" fill-rule="nonzero" /><path id="270" transform="matrix(1 0 0 -1 0 842)" d="M272.5938 179.3496L421.7769 179.3496L421.7769 178.8535L272.5938 178.8535z" stroke="none" fill="#000000" fill-rule="nonzero" /><path id="271" transform="matrix(1 0 0 -1 0 842)" d="M272.5938 226.9297L273.0894 226.9297L273.0894 178.8535L272.5938 178.8535z" stroke="none" fill="#000000" fill-rule="nonzero" /><path id="272" transform="matrix(1 0 0 -1 0 842)" d="M421.2813 226.9297L421.7769 226.9297L421.7769 178.8535L421.2813 178.8535z" stroke="none" fill="#000000" fill-rule="nonzero" /><path id="273" transform="matrix(1 0 0 -1 0 842)" d="M421.2813 226.9297L471.3394 226.9297L471.3394 226.4336L421.2813 226.4336z" stroke="none" fill="#000000" fill-rule="nonzero" /><path id="274" transform="matrix(1 0 0 -1 0 842)" d="M421.2813 179.3496L471.3394 179.3496L471.3394 178.8535L421.2813 178.8535z" stroke="none" fill="#000000" fill-rule="nonzero" /><path id="275" transform="matrix(1 0 0 -1 0 842)" d="M421.2813 226.9297L421.7769 226.9297L421.7769 178.8535L421.2813 178.8535z" stroke="none" fill="#000000" fill-rule="nonzero" /><path id="276" transform="matrix(1 0 0 -1 0 842)" d="M470.8438 226.9297L471.3394 226.9297L471.3394 178.8535L470.8438 178.8535z" stroke="none" fill="#000000" fill-rule="nonzero" /><path id="277" transform="matrix(1 0 0 -1 0 842)" d="M470.8438 226.9297L545.1875 226.9297L545.1875 226.4336L470.8438 226.4336z" stroke="none" fill="#000000" fill-rule="nonzero" /><path id="278" transform="matrix(1 0 0 -1 0 842)" d="M470.8438 105.0059L545.1875 105.0059L545.1875 104.5098L470.8438 104.5098z" stroke="none" fill="#000000" fill-rule="nonzero" /><path id="279" transform="matrix(1 0 0 -1 0 842)" d="M470.8438 226.9297L471.3394 226.9297L471.3394 104.5098L470.8438 104.5098z" stroke="none" fill="#000000" fill-rule="nonzero" /><path id="280" transform="matrix(1 0 0 -1 0 842)" d="M544.6919 226.9297L545.1875 226.9297L545.1875 104.5098L544.6919 104.5098z" stroke="none" fill="#000000" fill-rule="nonzero" /><path id="281" transform="matrix(1 0 0 -1 0 842)" d="M148.6875 179.3496L223.5269 179.3496L223.5269 178.8535L148.6875 178.8535z" stroke="none" fill="#000000" fill-rule="nonzero" /><path id="282" transform="matrix(1 0 0 -1 0 842)" d="M148.6875 105.0059L223.5269 105.0059L223.5269 104.5098L148.6875 104.5098z" stroke="none" fill="#000000" fill-rule="nonzero" /><path id="283" transform="matrix(1 0 0 -1 0 842)" d="M148.6875 179.3496L149.1831 179.3496L149.1831 104.5098L148.6875 104.5098z" stroke="none" fill="#000000" fill-rule="nonzero" /><path id="284" transform="matrix(1 0 0 -1 0 842)" d="M223.0313 179.3496L223.5269 179.3496L223.5269 104.5098L223.0313 104.5098z" stroke="none" fill="#000000" fill-rule="nonzero" /><path id="285" transform="matrix(1 0 0 -1 0 842)" d="M223.0313 179.3496L273.0894 179.3496L273.0894 178.8535L223.0313 178.8535z" stroke="none" fill="#000000" fill-rule="nonzero" /><path id="286" transform="matrix(1 0 0 -1 0 842)" d="M223.0313 105.0059L273.0894 105.0059L273.0894 104.5098L223.0313 104.5098z" stroke="none" fill="#000000" fill-rule="nonzero" /><path id="287" transform="matrix(1 0 0 -1 0 842)" d="M223.0313 179.3496L223.5269 179.3496L223.5269 104.5098L223.0313 104.5098z" stroke="none" fill="#000000" fill-rule="nonzero" /><path id="288" transform="matrix(1 0 0 -1 0 842)" d="M272.5938 179.3496L273.0894 179.3496L273.0894 104.5098L272.5938 104.5098z" stroke="none" fill="#000000" fill-rule="nonzero" /><path id="289" transform="matrix(1 0 0 -1 0 842)" d="M272.5938 179.3496L421.7769 179.3496L421.7769 178.8535L272.5938 178.8535z" stroke="none" fill="#000000" fill-rule="nonzero" /><path id="290" transform="matrix(1 0 0 -1 0 842)" d="M272.5938 105.0059L421.7769 105.0059L421.7769 104.5098L272.5938 104.5098z" stroke="none" fill="#000000" fill-rule="nonzero" /><path id="291" transform="matrix(1 0 0 -1 0 842)" d="M272.5938 179.3496L273.0894 179.3496L273.0894 104.5098L272.5938 104.5098z" stroke="none" fill="#000000" fill-rule="nonzero" /><path id="292" transform="matrix(1 0 0 -1 0 842)" d="M421.2813 179.3496L421.7769 179.3496L421.7769 104.5098L421.2813 104.5098z" stroke="none" fill="#000000" fill-rule="nonzero" /><path id="293" transform="matrix(1 0 0 -1 0 842)" d="M421.2813 179.3496L471.3394 179.3496L471.3394 178.8535L421.2813 178.8535z" stroke="none" fill="#000000" fill-rule="nonzero" /><path id="294" transform="matrix(1 0 0 -1 0 842)" d="M421.2813 105.0059L471.3394 105.0059L471.3394 104.5098L421.2813 104.5098z" stroke="none" fill="#000000" fill-rule="nonzero" /><path id="295" transform="matrix(1 0 0 -1 0 842)" d="M421.2813 179.3496L421.7769 179.3496L421.7769 104.5098L421.2813 104.5098z" stroke="none" fill="#000000" fill-rule="nonzero" /><path id="296" transform="matrix(1 0 0 -1 0 842)" d="M470.8438 179.3496L471.3394 179.3496L471.3394 104.5098L470.8438 104.5098z" stroke="none" fill="#000000" fill-rule="nonzero" /></g></g></g></svg>