<svg xmlns="http://www.w3.org/2000/svg" xmlns:xlink="http://www.w3.org/1999/xlink" id="body_19" preserveAspectRatio="xMinYMin meet" viewBox="0 0 793 1123"><defs><clipPath id="1"><path id="" clip-rule="evenodd" transform="matrix(1 0 0 1 0 0)" d="M0 842L0 0L0 0L595 0L595 0L595 842L595 842L0 842z" /></clipPath><clipPath id="2"><path id="" clip-rule="evenodd" transform="matrix(1 0 0 1 0 0)" d="M0 0L594.75 0L594.75 0L594.75 842.0669L594.75 842.0669L0 842.0669L0 842.0669L0 0z" /></clipPath></defs><g transform="matrix(1.333333 0 0 1.333333 0 0)"><g clip-path="url(#1)"><g clip-path="url(#2)"><path id="1" transform="matrix(1 0 0 -1 0 842)" d="M0 842L594.75 842L594.75 -0.06738281L0 -0.06738281z" stroke="none" fill="#FFFFFF" fill-rule="nonzero" /><path id="2" transform="matrix(1 0 0 -1 0 842)" d="M49.5625 724.041L74.34375 724.041L74.34375 698.2686L49.5625 698.2686z" stroke="none" fill="#9CC9F0" fill-rule="nonzero" /><path id="3" transform="matrix(1 0 0 -1 0 842)" d="M74.34375 724.041L148.6875 724.041L148.6875 698.2686L74.34375 698.2686z" stroke="none" fill="#9CC9F0" fill-rule="nonzero" /><path id="4" transform="matrix(1 0 0 -1 0 842)" d="M148.6875 724.041L223.0313 724.041L223.0313 698.2686L148.6875 698.2686z" stroke="none" fill="#9CC9F0" fill-rule="nonzero" /><path id="5" transform="matrix(1 0 0 -1 0 842)" d="M223.0313 724.041L272.5938 724.041L272.5938 698.2686L223.0313 698.2686z" stroke="none" fill="#9CC9F0" fill-rule="nonzero" /><path id="6" transform="matrix(1 0 0 -1 0 842)" d="M272.5938 724.041L421.2813 724.041L421.2813 698.2686L272.5938 698.2686z" stroke="none" fill="#9CC9F0" fill-rule="nonzero" /><path id="7" transform="matrix(1 0 0 -1 0 842)" d="M421.2813 724.041L470.8438 724.041L470.8438 698.2686L421.2813 698.2686z" stroke="none" fill="#9CC9F0" fill-rule="nonzero" /><path id="8" transform="matrix(1 0 0 -1 0 842)" d="M470.8438 724.041L544.6919 724.041L544.6919 698.2686L470.8438 698.2686z" stroke="none" fill="#9CC9F0" fill-rule="nonzero" /><path id="9" transform="matrix(1 0 0 -1 0 842)" d="M49.5625 724.041L74.83938 724.041L74.83938 723.5449L49.5625 723.5449z" stroke="none" fill="#000000" fill-rule="nonzero" /><path id="10" transform="matrix(1 0 0 -1 0 842)" d="M49.5625 698.2686L74.83938 698.2686L74.83938 697.7725L49.5625 697.7725z" stroke="none" fill="#000000" fill-rule="nonzero" /><path id="11" transform="matrix(1 0 0 -1 0 842)" d="M49.5625 724.041L50.05813 724.041L50.05813 697.7725L49.5625 697.7725z" stroke="none" fill="#000000" fill-rule="nonzero" /><path id="12" transform="matrix(1 0 0 -1 0 842)" d="M74.34375 724.041L74.83938 724.041L74.83938 697.7725L74.34375 697.7725z" stroke="none" fill="#000000" fill-rule="nonzero" /><path id="13" transform="matrix(1 0 0 -1 0 842)" d="M74.34375 724.041L149.1831 724.041L149.1831 723.5449L74.34375 723.5449z" stroke="none" fill="#000000" fill-rule="nonzero" /><path id="14" transform="matrix(1 0 0 -1 0 842)" d="M74.34375 698.2686L149.1831 698.2686L149.1831 697.7725L74.34375 697.7725z" stroke="none" fill="#000000" fill-rule="nonzero" /><path id="15" transform="matrix(1 0 0 -1 0 842)" d="M74.34375 724.041L74.83938 724.041L74.83938 697.7725L74.34375 697.7725z" stroke="none" fill="#000000" fill-rule="nonzero" /><path id="16" transform="matrix(1 0 0 -1 0 842)" d="M148.6875 724.041L149.1831 724.041L149.1831 697.7725L148.6875 697.7725z" stroke="none" fill="#000000" fill-rule="nonzero" /><path id="17" transform="matrix(1 0 0 -1 0 842)" d="M148.6875 724.041L223.5269 724.041L223.5269 723.5449L148.6875 723.5449z" stroke="none" fill="#000000" fill-rule="nonzero" /><path id="18" transform="matrix(1 0 0 -1 0 842)" d="M148.6875 698.2686L223.5269 698.2686L223.5269 697.7725L148.6875 697.7725z" stroke="none" fill="#000000" fill-rule="nonzero" /><path id="19" transform="matrix(1 0 0 -1 0 842)" d="M148.6875 724.041L149.1831 724.041L149.1831 697.7725L148.6875 697.7725z" stroke="none" fill="#000000" fill-rule="nonzero" /><path id="20" transform="matrix(1 0 0 -1 0 842)" d="M223.0313 724.041L223.5269 724.041L223.5269 697.7725L223.0313 697.7725z" stroke="none" fill="#000000" fill-rule="nonzero" /><path id="21" transform="matrix(1 0 0 -1 0 842)" d="M223.0313 724.041L273.0894 724.041L273.0894 723.5449L223.0313 723.5449z" stroke="none" fill="#000000" fill-rule="nonzero" /><path id="22" transform="matrix(1 0 0 -1 0 842)" d="M223.0313 698.2686L273.0894 698.2686L273.0894 697.7725L223.0313 697.7725z" stroke="none" fill="#000000" fill-rule="nonzero" /><path id="23" transform="matrix(1 0 0 -1 0 842)" d="M223.0313 724.041L223.5269 724.041L223.5269 697.7725L223.0313 697.7725z" stroke="none" fill="#000000" fill-rule="nonzero" /><path id="24" transform="matrix(1 0 0 -1 0 842)" d="M272.5938 724.041L273.0894 724.041L273.0894 697.7725L272.5938 697.7725z" stroke="none" fill="#000000" fill-rule="nonzero" /><path id="25" transform="matrix(1 0 0 -1 0 842)" d="M272.5938 724.041L421.7769 724.041L421.7769 723.5449L272.5938 723.5449z" stroke="none" fill="#000000" fill-rule="nonzero" /><path id="26" transform="matrix(1 0 0 -1 0 842)" d="M272.5938 698.2686L421.7769 698.2686L421.7769 697.7725L272.5938 697.7725z" stroke="none" fill="#000000" fill-rule="nonzero" /><path id="27" transform="matrix(1 0 0 -1 0 842)" d="M272.5938 724.041L273.0894 724.041L273.0894 697.7725L272.5938 697.7725z" stroke="none" fill="#000000" fill-rule="nonzero" /><path id="28" transform="matrix(1 0 0 -1 0 842)" d="M421.2813 724.041L421.7769 724.041L421.7769 697.7725L421.2813 697.7725z" stroke="none" fill="#000000" fill-rule="nonzero" /><path id="29" transform="matrix(1 0 0 -1 0 842)" d="M421.2813 724.041L471.3394 724.041L471.3394 723.5449L421.2813 723.5449z" stroke="none" fill="#000000" fill-rule="nonzero" /><path id="30" transform="matrix(1 0 0 -1 0 842)" d="M421.2813 698.2686L471.3394 698.2686L471.3394 697.7725L421.2813 697.7725z" stroke="none" fill="#000000" fill-rule="nonzero" /><path id="31" transform="matrix(1 0 0 -1 0 842)" d="M421.2813 724.041L421.7769 724.041L421.7769 697.7725L421.2813 697.7725z" stroke="none" fill="#000000" fill-rule="nonzero" /><path id="32" transform="matrix(1 0 0 -1 0 842)" d="M470.8438 724.041L471.3394 724.041L471.3394 697.7725L470.8438 697.7725z" stroke="none" fill="#000000" fill-rule="nonzero" /><path id="33" transform="matrix(1 0 0 -1 0 842)" d="M470.8438 724.041L545.1875 724.041L545.1875 723.5449L470.8438 723.5449z" stroke="none" fill="#000000" fill-rule="nonzero" /><path id="34" transform="matrix(1 0 0 -1 0 842)" d="M470.8438 698.2686L545.1875 698.2686L545.1875 697.7725L470.8438 697.7725z" stroke="none" fill="#000000" fill-rule="nonzero" /><path id="35" transform="matrix(1 0 0 -1 0 842)" d="M470.8438 724.041L471.3394 724.041L471.3394 697.7725L470.8438 697.7725z" stroke="none" fill="#000000" fill-rule="nonzero" /><path id="36" transform="matrix(1 0 0 -1 0 842)" d="M544.6919 724.041L545.1875 724.041L545.1875 697.7725L544.6919 697.7725z" stroke="none" fill="#000000" fill-rule="nonzero" /><path id="37" transform="matrix(1 0 0 -1 0 842)" d="M49.5625 698.2686L74.83938 698.2686L74.83938 697.7725L49.5625 697.7725z" stroke="none" fill="#000000" fill-rule="nonzero" /><path id="38" transform="matrix(1 0 0 -1 0 842)" d="M49.5625 561.4756L74.83938 561.4756L74.83938 560.9805L49.5625 560.9805z" stroke="none" fill="#000000" fill-rule="nonzero" /><path id="39" transform="matrix(1 0 0 -1 0 842)" d="M49.5625 698.2686L50.05813 698.2686L50.05813 560.9805L49.5625 560.9805z" stroke="none" fill="#000000" fill-rule="nonzero" /><path id="40" transform="matrix(1 0 0 -1 0 842)" d="M74.34375 698.2686L74.83938 698.2686L74.83938 560.9805L74.34375 560.9805z" stroke="none" fill="#000000" fill-rule="nonzero" /><path id="41" transform="matrix(1 0 0 -1 0 842)" d="M74.34375 698.2686L149.1831 698.2686L149.1831 697.7725L74.34375 697.7725z" stroke="none" fill="#000000" fill-rule="nonzero" /><path id="42" transform="matrix(1 0 0 -1 0 842)" d="M74.34375 561.4756L149.1831 561.4756L149.1831 560.9805L74.34375 560.9805z" stroke="none" fill="#000000" fill-rule="nonzero" /><path id="43" transform="matrix(1 0 0 -1 0 842)" d="M74.34375 698.2686L74.83938 698.2686L74.83938 560.9805L74.34375 560.9805z" stroke="none" fill="#000000" fill-rule="nonzero" /><path id="44" transform="matrix(1 0 0 -1 0 842)" d="M148.6875 698.2686L149.1831 698.2686L149.1831 560.9805L148.6875 560.9805z" stroke="none" fill="#000000" fill-rule="nonzero" /><path id="45" transform="matrix(1 0 0 -1 0 842)" d="M148.6875 698.2686L223.5269 698.2686L223.5269 697.7725L148.6875 697.7725z" stroke="none" fill="#000000" fill-rule="nonzero" /><path id="46" transform="matrix(1 0 0 -1 0 842)" d="M148.6875 664.0703L223.5269 664.0703L223.5269 663.5752L148.6875 663.5752z" stroke="none" fill="#000000" fill-rule="nonzero" /><path id="47" transform="matrix(1 0 0 -1 0 842)" d="M148.6875 698.2686L149.1831 698.2686L149.1831 663.5752L148.6875 663.5752z" stroke="none" fill="#000000" fill-rule="nonzero" /><path id="48" transform="matrix(1 0 0 -1 0 842)" d="M223.0313 698.2686L223.5269 698.2686L223.5269 663.5752L223.0313 663.5752z" stroke="none" fill="#000000" fill-rule="nonzero" /><path id="49" transform="matrix(1 0 0 -1 0 842)" d="M223.0313 698.2686L273.0894 698.2686L273.0894 697.7725L223.0313 697.7725z" stroke="none" fill="#000000" fill-rule="nonzero" /><path id="50" transform="matrix(1 0 0 -1 0 842)" d="M223.0313 664.0703L273.0894 664.0703L273.0894 663.5752L223.0313 663.5752z" stroke="none" fill="#000000" fill-rule="nonzero" /><path id="51" transform="matrix(1 0 0 -1 0 842)" d="M223.0313 698.2686L223.5269 698.2686L223.5269 663.5752L223.0313 663.5752z" stroke="none" fill="#000000" fill-rule="nonzero" /><path id="52" transform="matrix(1 0 0 -1 0 842)" d="M272.5938 698.2686L273.0894 698.2686L273.0894 663.5752L272.5938 663.5752z" stroke="none" fill="#000000" fill-rule="nonzero" /><path id="53" transform="matrix(1 0 0 -1 0 842)" d="M272.5938 698.2686L421.7769 698.2686L421.7769 697.7725L272.5938 697.7725z" stroke="none" fill="#000000" fill-rule="nonzero" /><path id="54" transform="matrix(1 0 0 -1 0 842)" d="M272.5938 664.0703L421.7769 664.0703L421.7769 663.5752L272.5938 663.5752z" stroke="none" fill="#000000" fill-rule="nonzero" /><path id="55" transform="matrix(1 0 0 -1 0 842)" d="M272.5938 698.2686L273.0894 698.2686L273.0894 663.5752L272.5938 663.5752z" stroke="none" fill="#000000" fill-rule="nonzero" /><path id="56" transform="matrix(1 0 0 -1 0 842)" d="M421.2813 698.2686L421.7769 698.2686L421.7769 663.5752L421.2813 663.5752z" stroke="none" fill="#000000" fill-rule="nonzero" /><path id="57" transform="matrix(1 0 0 -1 0 842)" d="M421.2813 698.2686L471.3394 698.2686L471.3394 697.7725L421.2813 697.7725z" stroke="none" fill="#000000" fill-rule="nonzero" /><path id="58" transform="matrix(1 0 0 -1 0 842)" d="M421.2813 664.0703L471.3394 664.0703L471.3394 663.5752L421.2813 663.5752z" stroke="none" fill="#000000" fill-rule="nonzero" /><path id="59" transform="matrix(1 0 0 -1 0 842)" d="M421.2813 698.2686L421.7769 698.2686L421.7769 663.5752L421.2813 663.5752z" stroke="none" fill="#000000" fill-rule="nonzero" /><path id="60" transform="matrix(1 0 0 -1 0 842)" d="M470.8438 698.2686L471.3394 698.2686L471.3394 663.5752L470.8438 663.5752z" stroke="none" fill="#000000" fill-rule="nonzero" /><path id="61" transform="matrix(1 0 0 -1 0 842)" d="M470.8438 698.2686L545.1875 698.2686L545.1875 697.7725L470.8438 697.7725z" stroke="none" fill="#000000" fill-rule="nonzero" /><path id="62" transform="matrix(1 0 0 -1 0 842)" d="M470.8438 561.4756L545.1875 561.4756L545.1875 560.9805L470.8438 560.9805z" stroke="none" fill="#000000" fill-rule="nonzero" /><path id="63" transform="matrix(1 0 0 -1 0 842)" d="M470.8438 698.2686L471.3394 698.2686L471.3394 560.9805L470.8438 560.9805z" stroke="none" fill="#000000" fill-rule="nonzero" /><path id="64" transform="matrix(1 0 0 -1 0 842)" d="M544.6919 698.2686L545.1875 698.2686L545.1875 560.9805L544.6919 560.9805z" stroke="none" fill="#000000" fill-rule="nonzero" /><path id="65" transform="matrix(1 0 0 -1 0 842)" d="M148.6875 664.0703L223.5269 664.0703L223.5269 663.5752L148.6875 663.5752z" stroke="none" fill="#000000" fill-rule="nonzero" /><path id="66" transform="matrix(1 0 0 -1 0 842)" d="M148.6875 629.8721L223.5269 629.8721L223.5269 629.377L148.6875 629.377z" stroke="none" fill="#000000" fill-rule="nonzero" /><path id="67" transform="matrix(1 0 0 -1 0 842)" d="M148.6875 664.0703L149.1831 664.0703L149.1831 629.377L148.6875 629.377z" stroke="none" fill="#000000" fill-rule="nonzero" /><path id="68" transform="matrix(1 0 0 -1 0 842)" d="M223.0313 664.0703L223.5269 664.0703L223.5269 629.377L223.0313 629.377z" stroke="none" fill="#000000" fill-rule="nonzero" /><path id="69" transform="matrix(1 0 0 -1 0 842)" d="M223.0313 664.0703L273.0894 664.0703L273.0894 663.5752L223.0313 663.5752z" stroke="none" fill="#000000" fill-rule="nonzero" /><path id="70" transform="matrix(1 0 0 -1 0 842)" d="M223.0313 629.8721L273.0894 629.8721L273.0894 629.377L223.0313 629.377z" stroke="none" fill="#000000" fill-rule="nonzero" /><path id="71" transform="matrix(1 0 0 -1 0 842)" d="M223.0313 664.0703L223.5269 664.0703L223.5269 629.377L223.0313 629.377z" stroke="none" fill="#000000" fill-rule="nonzero" /><path id="72" transform="matrix(1 0 0 -1 0 842)" d="M272.5938 664.0703L273.0894 664.0703L273.0894 629.377L272.5938 629.377z" stroke="none" fill="#000000" fill-rule="nonzero" /><path id="73" transform="matrix(1 0 0 -1 0 842)" d="M272.5938 664.0703L421.7769 664.0703L421.7769 663.5752L272.5938 663.5752z" stroke="none" fill="#000000" fill-rule="nonzero" /><path id="74" transform="matrix(1 0 0 -1 0 842)" d="M272.5938 629.8721L421.7769 629.8721L421.7769 629.377L272.5938 629.377z" stroke="none" fill="#000000" fill-rule="nonzero" /><path id="75" transform="matrix(1 0 0 -1 0 842)" d="M272.5938 664.0703L273.0894 664.0703L273.0894 629.377L272.5938 629.377z" stroke="none" fill="#000000" fill-rule="nonzero" /><path id="76" transform="matrix(1 0 0 -1 0 842)" d="M421.2813 664.0703L421.7769 664.0703L421.7769 629.377L421.2813 629.377z" stroke="none" fill="#000000" fill-rule="nonzero" /><path id="77" transform="matrix(1 0 0 -1 0 842)" d="M421.2813 664.0703L471.3394 664.0703L471.3394 663.5752L421.2813 663.5752z" stroke="none" fill="#000000" fill-rule="nonzero" /><path id="78" transform="matrix(1 0 0 -1 0 842)" d="M421.2813 629.8721L471.3394 629.8721L471.3394 629.377L421.2813 629.377z" stroke="none" fill="#000000" fill-rule="nonzero" /><path id="79" transform="matrix(1 0 0 -1 0 842)" d="M421.2813 664.0703L421.7769 664.0703L421.7769 629.377L421.2813 629.377z" stroke="none" fill="#000000" fill-rule="nonzero" /><path id="80" transform="matrix(1 0 0 -1 0 842)" d="M470.8438 664.0703L471.3394 664.0703L471.3394 629.377L470.8438 629.377z" stroke="none" fill="#000000" fill-rule="nonzero" /><path id="81" transform="matrix(1 0 0 -1 0 842)" d="M148.6875 629.8721L223.5269 629.8721L223.5269 629.377L148.6875 629.377z" stroke="none" fill="#000000" fill-rule="nonzero" /><path id="82" transform="matrix(1 0 0 -1 0 842)" d="M148.6875 595.6738L223.5269 595.6738L223.5269 595.1787L148.6875 595.1787z" stroke="none" fill="#000000" fill-rule="nonzero" /><path id="83" transform="matrix(1 0 0 -1 0 842)" d="M148.6875 629.8721L149.1831 629.8721L149.1831 595.1787L148.6875 595.1787z" stroke="none" fill="#000000" fill-rule="nonzero" /><path id="84" transform="matrix(1 0 0 -1 0 842)" d="M223.0313 629.8721L223.5269 629.8721L223.5269 595.1787L223.0313 595.1787z" stroke="none" fill="#000000" fill-rule="nonzero" /><path id="85" transform="matrix(1 0 0 -1 0 842)" d="M223.0313 629.8721L273.0894 629.8721L273.0894 629.377L223.0313 629.377z" stroke="none" fill="#000000" fill-rule="nonzero" /><path id="86" transform="matrix(1 0 0 -1 0 842)" d="M223.0313 595.6738L273.0894 595.6738L273.0894 595.1787L223.0313 595.1787z" stroke="none" fill="#000000" fill-rule="nonzero" /><path id="87" transform="matrix(1 0 0 -1 0 842)" d="M223.0313 629.8721L223.5269 629.8721L223.5269 595.1787L223.0313 595.1787z" stroke="none" fill="#000000" fill-rule="nonzero" /><path id="88" transform="matrix(1 0 0 -1 0 842)" d="M272.5938 629.8721L273.0894 629.8721L273.0894 595.1787L272.5938 595.1787z" stroke="none" fill="#000000" fill-rule="nonzero" /><path id="89" transform="matrix(1 0 0 -1 0 842)" d="M272.5938 629.8721L421.7769 629.8721L421.7769 629.377L272.5938 629.377z" stroke="none" fill="#000000" fill-rule="nonzero" /><path id="90" transform="matrix(1 0 0 -1 0 842)" d="M272.5938 595.6738L421.7769 595.6738L421.7769 595.1787L272.5938 595.1787z" stroke="none" fill="#000000" fill-rule="nonzero" /><path id="91" transform="matrix(1 0 0 -1 0 842)" d="M272.5938 629.8721L273.0894 629.8721L273.0894 595.1787L272.5938 595.1787z" stroke="none" fill="#000000" fill-rule="nonzero" /><path id="92" transform="matrix(1 0 0 -1 0 842)" d="M421.2813 629.8721L421.7769 629.8721L421.7769 595.1787L421.2813 595.1787z" stroke="none" fill="#000000" fill-rule="nonzero" /><path id="93" transform="matrix(1 0 0 -1 0 842)" d="M421.2813 629.8721L471.3394 629.8721L471.3394 629.377L421.2813 629.377z" stroke="none" fill="#000000" fill-rule="nonzero" /><path id="94" transform="matrix(1 0 0 -1 0 842)" d="M421.2813 595.6738L471.3394 595.6738L471.3394 595.1787L421.2813 595.1787z" stroke="none" fill="#000000" fill-rule="nonzero" /><path id="95" transform="matrix(1 0 0 -1 0 842)" d="M421.2813 629.8721L421.7769 629.8721L421.7769 595.1787L421.2813 595.1787z" stroke="none" fill="#000000" fill-rule="nonzero" /><path id="96" transform="matrix(1 0 0 -1 0 842)" d="M470.8438 629.8721L471.3394 629.8721L471.3394 595.1787L470.8438 595.1787z" stroke="none" fill="#000000" fill-rule="nonzero" /><path id="97" transform="matrix(1 0 0 -1 0 842)" d="M148.6875 595.6738L223.5269 595.6738L223.5269 595.1787L148.6875 595.1787z" stroke="none" fill="#000000" fill-rule="nonzero" /><path id="98" transform="matrix(1 0 0 -1 0 842)" d="M148.6875 561.4756L223.5269 561.4756L223.5269 560.9805L148.6875 560.9805z" stroke="none" fill="#000000" fill-rule="nonzero" /><path id="99" transform="matrix(1 0 0 -1 0 842)" d="M148.6875 595.6738L149.1831 595.6738L149.1831 560.9805L148.6875 560.9805z" stroke="none" fill="#000000" fill-rule="nonzero" /><path id="100" transform="matrix(1 0 0 -1 0 842)" d="M223.0313 595.6738L223.5269 595.6738L223.5269 560.9805L223.0313 560.9805z" stroke="none" fill="#000000" fill-rule="nonzero" /><path id="101" transform="matrix(1 0 0 -1 0 842)" d="M223.0313 595.6738L273.0894 595.6738L273.0894 595.1787L223.0313 595.1787z" stroke="none" fill="#000000" fill-rule="nonzero" /><path id="102" transform="matrix(1 0 0 -1 0 842)" d="M223.0313 561.4756L273.0894 561.4756L273.0894 560.9805L223.0313 560.9805z" stroke="none" fill="#000000" fill-rule="nonzero" /><path id="103" transform="matrix(1 0 0 -1 0 842)" d="M223.0313 595.6738L223.5269 595.6738L223.5269 560.9805L223.0313 560.9805z" stroke="none" fill="#000000" fill-rule="nonzero" /><path id="104" transform="matrix(1 0 0 -1 0 842)" d="M272.5938 595.6738L273.0894 595.6738L273.0894 560.9805L272.5938 560.9805z" stroke="none" fill="#000000" fill-rule="nonzero" /><path id="105" transform="matrix(1 0 0 -1 0 842)" d="M272.5938 595.6738L421.7769 595.6738L421.7769 595.1787L272.5938 595.1787z" stroke="none" fill="#000000" fill-rule="nonzero" /><path id="106" transform="matrix(1 0 0 -1 0 842)" d="M272.5938 561.4756L421.7769 561.4756L421.7769 560.9805L272.5938 560.9805z" stroke="none" fill="#000000" fill-rule="nonzero" /><path id="107" transform="matrix(1 0 0 -1 0 842)" d="M272.5938 595.6738L273.0894 595.6738L273.0894 560.9805L272.5938 560.9805z" stroke="none" fill="#000000" fill-rule="nonzero" /><path id="108" transform="matrix(1 0 0 -1 0 842)" d="M421.2813 595.6738L421.7769 595.6738L421.7769 560.9805L421.2813 560.9805z" stroke="none" fill="#000000" fill-rule="nonzero" /><path id="109" transform="matrix(1 0 0 -1 0 842)" d="M421.2813 595.6738L471.3394 595.6738L471.3394 595.1787L421.2813 595.1787z" stroke="none" fill="#000000" fill-rule="nonzero" /><path id="110" transform="matrix(1 0 0 -1 0 842)" d="M421.2813 561.4756L471.3394 561.4756L471.3394 560.9805L421.2813 560.9805z" stroke="none" fill="#000000" fill-rule="nonzero" /><path id="111" transform="matrix(1 0 0 -1 0 842)" d="M421.2813 595.6738L421.7769 595.6738L421.7769 560.9805L421.2813 560.9805z" stroke="none" fill="#000000" fill-rule="nonzero" /><path id="112" transform="matrix(1 0 0 -1 0 842)" d="M470.8438 595.6738L471.3394 595.6738L471.3394 560.9805L470.8438 560.9805z" stroke="none" fill="#000000" fill-rule="nonzero" /><path id="113" transform="matrix(1 0 0 -1 0 842)" d="M49.5625 561.4756L74.83938 561.4756L74.83938 560.9805L49.5625 560.9805z" stroke="none" fill="#000000" fill-rule="nonzero" /><path id="114" transform="matrix(1 0 0 -1 0 842)" d="M49.5625 501.5059L74.83938 501.5059L74.83938 501.0098L49.5625 501.0098z" stroke="none" fill="#000000" fill-rule="nonzero" /><path id="115" transform="matrix(1 0 0 -1 0 842)" d="M49.5625 561.4756L50.05813 561.4756L50.05813 501.0098L49.5625 501.0098z" stroke="none" fill="#000000" fill-rule="nonzero" /><path id="116" transform="matrix(1 0 0 -1 0 842)" d="M74.34375 561.4756L74.83938 561.4756L74.83938 501.0098L74.34375 501.0098z" stroke="none" fill="#000000" fill-rule="nonzero" /><path id="117" transform="matrix(1 0 0 -1 0 842)" d="M74.34375 561.4756L149.1831 561.4756L149.1831 560.9805L74.34375 560.9805z" stroke="none" fill="#000000" fill-rule="nonzero" /><path id="118" transform="matrix(1 0 0 -1 0 842)" d="M74.34375 501.5059L149.1831 501.5059L149.1831 501.0098L74.34375 501.0098z" stroke="none" fill="#000000" fill-rule="nonzero" /><path id="119" transform="matrix(1 0 0 -1 0 842)" d="M74.34375 561.4756L74.83938 561.4756L74.83938 501.0098L74.34375 501.0098z" stroke="none" fill="#000000" fill-rule="nonzero" /><path id="120" transform="matrix(1 0 0 -1 0 842)" d="M148.6875 561.4756L149.1831 561.4756L149.1831 501.0098L148.6875 501.0098z" stroke="none" fill="#000000" fill-rule="nonzero" /><path id="121" transform="matrix(1 0 0 -1 0 842)" d="M148.6875 561.4756L223.5269 561.4756L223.5269 560.9805L148.6875 560.9805z" stroke="none" fill="#000000" fill-rule="nonzero" /><path id="122" transform="matrix(1 0 0 -1 0 842)" d="M148.6875 535.7031L223.5269 535.7031L223.5269 535.208L148.6875 535.208z" stroke="none" fill="#000000" fill-rule="nonzero" /><path id="123" transform="matrix(1 0 0 -1 0 842)" d="M148.6875 561.4756L149.1831 561.4756L149.1831 535.208L148.6875 535.208z" stroke="none" fill="#000000" fill-rule="nonzero" /><path id="124" transform="matrix(1 0 0 -1 0 842)" d="M223.0313 561.4756L223.5269 561.4756L223.5269 535.208L223.0313 535.208z" stroke="none" fill="#000000" fill-rule="nonzero" /><path id="125" transform="matrix(1 0 0 -1 0 842)" d="M223.0313 561.4756L273.0894 561.4756L273.0894 560.9805L223.0313 560.9805z" stroke="none" fill="#000000" fill-rule="nonzero" /><path id="126" transform="matrix(1 0 0 -1 0 842)" d="M223.0313 535.7031L273.0894 535.7031L273.0894 535.208L223.0313 535.208z" stroke="none" fill="#000000" fill-rule="nonzero" /><path id="127" transform="matrix(1 0 0 -1 0 842)" d="M223.0313 561.4756L223.5269 561.4756L223.5269 535.208L223.0313 535.208z" stroke="none" fill="#000000" fill-rule="nonzero" /><path id="128" transform="matrix(1 0 0 -1 0 842)" d="M272.5938 561.4756L273.0894 561.4756L273.0894 535.208L272.5938 535.208z" stroke="none" fill="#000000" fill-rule="nonzero" /><path id="129" transform="matrix(1 0 0 -1 0 842)" d="M272.5938 561.4756L421.7769 561.4756L421.7769 560.9805L272.5938 560.9805z" stroke="none" fill="#000000" fill-rule="nonzero" /><path id="130" transform="matrix(1 0 0 -1 0 842)" d="M272.5938 535.7031L421.7769 535.7031L421.7769 535.208L272.5938 535.208z" stroke="none" fill="#000000" fill-rule="nonzero" /><path id="131" transform="matrix(1 0 0 -1 0 842)" d="M272.5938 561.4756L273.0894 561.4756L273.0894 535.208L272.5938 535.208z" stroke="none" fill="#000000" fill-rule="nonzero" /><path id="132" transform="matrix(1 0 0 -1 0 842)" d="M421.2813 561.4756L421.7769 561.4756L421.7769 535.208L421.2813 535.208z" stroke="none" fill="#000000" fill-rule="nonzero" /><path id="133" transform="matrix(1 0 0 -1 0 842)" d="M421.2813 561.4756L471.3394 561.4756L471.3394 560.9805L421.2813 560.9805z" stroke="none" fill="#000000" fill-rule="nonzero" /><path id="134" transform="matrix(1 0 0 -1 0 842)" d="M421.2813 535.7031L471.3394 535.7031L471.3394 535.208L421.2813 535.208z" stroke="none" fill="#000000" fill-rule="nonzero" /><path id="135" transform="matrix(1 0 0 -1 0 842)" d="M421.2813 561.4756L421.7769 561.4756L421.7769 535.208L421.2813 535.208z" stroke="none" fill="#000000" fill-rule="nonzero" /><path id="136" transform="matrix(1 0 0 -1 0 842)" d="M470.8438 561.4756L471.3394 561.4756L471.3394 535.208L470.8438 535.208z" stroke="none" fill="#000000" fill-rule="nonzero" /><path id="137" transform="matrix(1 0 0 -1 0 842)" d="M470.8438 561.4756L545.1875 561.4756L545.1875 560.9805L470.8438 560.9805z" stroke="none" fill="#000000" fill-rule="nonzero" /><path id="138" transform="matrix(1 0 0 -1 0 842)" d="M470.8438 501.5059L545.1875 501.5059L545.1875 501.0098L470.8438 501.0098z" stroke="none" fill="#000000" fill-rule="nonzero" /><path id="139" transform="matrix(1 0 0 -1 0 842)" d="M470.8438 561.4756L471.3394 561.4756L471.3394 501.0098L470.8438 501.0098z" stroke="none" fill="#000000" fill-rule="nonzero" /><path id="140" transform="matrix(1 0 0 -1 0 842)" d="M544.6919 561.4756L545.1875 561.4756L545.1875 501.0098L544.6919 501.0098z" stroke="none" fill="#000000" fill-rule="nonzero" /><path id="141" transform="matrix(1 0 0 -1 0 842)" d="M148.6875 535.7031L223.5269 535.7031L223.5269 535.208L148.6875 535.208z" stroke="none" fill="#000000" fill-rule="nonzero" /><path id="142" transform="matrix(1 0 0 -1 0 842)" d="M148.6875 501.5059L223.5269 501.5059L223.5269 501.0098L148.6875 501.0098z" stroke="none" fill="#000000" fill-rule="nonzero" /><path id="143" transform="matrix(1 0 0 -1 0 842)" d="M148.6875 535.7031L149.1831 535.7031L149.1831 501.0098L148.6875 501.0098z" stroke="none" fill="#000000" fill-rule="nonzero" /><path id="144" transform="matrix(1 0 0 -1 0 842)" d="M223.0313 535.7031L223.5269 535.7031L223.5269 501.0098L223.0313 501.0098z" stroke="none" fill="#000000" fill-rule="nonzero" /><path id="145" transform="matrix(1 0 0 -1 0 842)" d="M223.0313 535.7031L273.0894 535.7031L273.0894 535.208L223.0313 535.208z" stroke="none" fill="#000000" fill-rule="nonzero" /><path id="146" transform="matrix(1 0 0 -1 0 842)" d="M223.0313 501.5059L273.0894 501.5059L273.0894 501.0098L223.0313 501.0098z" stroke="none" fill="#000000" fill-rule="nonzero" /><path id="147" transform="matrix(1 0 0 -1 0 842)" d="M223.0313 535.7031L223.5269 535.7031L223.5269 501.0098L223.0313 501.0098z" stroke="none" fill="#000000" fill-rule="nonzero" /><path id="148" transform="matrix(1 0 0 -1 0 842)" d="M272.5938 535.7031L273.0894 535.7031L273.0894 501.0098L272.5938 501.0098z" stroke="none" fill="#000000" fill-rule="nonzero" /><path id="149" transform="matrix(1 0 0 -1 0 842)" d="M272.5938 535.7031L421.7769 535.7031L421.7769 535.208L272.5938 535.208z" stroke="none" fill="#000000" fill-rule="nonzero" /><path id="150" transform="matrix(1 0 0 -1 0 842)" d="M272.5938 501.5059L421.7769 501.5059L421.7769 501.0098L272.5938 501.0098z" stroke="none" fill="#000000" fill-rule="nonzero" /><path id="151" transform="matrix(1 0 0 -1 0 842)" d="M272.5938 535.7031L273.0894 535.7031L273.0894 501.0098L272.5938 501.0098z" stroke="none" fill="#000000" fill-rule="nonzero" /><path id="152" transform="matrix(1 0 0 -1 0 842)" d="M421.2813 535.7031L421.7769 535.7031L421.7769 501.0098L421.2813 501.0098z" stroke="none" fill="#000000" fill-rule="nonzero" /><path id="153" transform="matrix(1 0 0 -1 0 842)" d="M421.2813 535.7031L471.3394 535.7031L471.3394 535.208L421.2813 535.208z" stroke="none" fill="#000000" fill-rule="nonzero" /><path id="154" transform="matrix(1 0 0 -1 0 842)" d="M421.2813 501.5059L471.3394 501.5059L471.3394 501.0098L421.2813 501.0098z" stroke="none" fill="#000000" fill-rule="nonzero" /><path id="155" transform="matrix(1 0 0 -1 0 842)" d="M421.2813 535.7031L421.7769 535.7031L421.7769 501.0098L421.2813 501.0098z" stroke="none" fill="#000000" fill-rule="nonzero" /><path id="156" transform="matrix(1 0 0 -1 0 842)" d="M470.8438 535.7031L471.3394 535.7031L471.3394 501.0098L470.8438 501.0098z" stroke="none" fill="#000000" fill-rule="nonzero" /><path id="157" transform="matrix(1 0 0 -1 0 842)" d="M49.5625 501.5059L74.83938 501.5059L74.83938 501.0098L49.5625 501.0098z" stroke="none" fill="#000000" fill-rule="nonzero" /><path id="158" transform="matrix(1 0 0 -1 0 842)" d="M49.5625 441.5352L74.83938 441.5352L74.83938 441.0391L49.5625 441.0391z" stroke="none" fill="#000000" fill-rule="nonzero" /><path id="159" transform="matrix(1 0 0 -1 0 842)" d="M49.5625 501.5059L50.05813 501.5059L50.05813 441.0391L49.5625 441.0391z" stroke="none" fill="#000000" fill-rule="nonzero" /><path id="160" transform="matrix(1 0 0 -1 0 842)" d="M74.34375 501.5059L74.83938 501.5059L74.83938 441.0391L74.34375 441.0391z" stroke="none" fill="#000000" fill-rule="nonzero" /><path id="161" transform="matrix(1 0 0 -1 0 842)" d="M74.34375 501.5059L149.1831 501.5059L149.1831 501.0098L74.34375 501.0098z" stroke="none" fill="#000000" fill-rule="nonzero" /><path id="162" transform="matrix(1 0 0 -1 0 842)" d="M74.34375 441.5352L149.1831 441.5352L149.1831 441.0391L74.34375 441.0391z" stroke="none" fill="#000000" fill-rule="nonzero" /><path id="163" transform="matrix(1 0 0 -1 0 842)" d="M74.34375 501.5059L74.83938 501.5059L74.83938 441.0391L74.34375 441.0391z" stroke="none" fill="#000000" fill-rule="nonzero" /><path id="164" transform="matrix(1 0 0 -1 0 842)" d="M148.6875 501.5059L149.1831 501.5059L149.1831 441.0391L148.6875 441.0391z" stroke="none" fill="#000000" fill-rule="nonzero" /><path id="165" transform="matrix(1 0 0 -1 0 842)" d="M148.6875 501.5059L223.5269 501.5059L223.5269 501.0098L148.6875 501.0098z" stroke="none" fill="#000000" fill-rule="nonzero" /><path id="166" transform="matrix(1 0 0 -1 0 842)" d="M148.6875 475.7324L223.5269 475.7324L223.5269 475.2373L148.6875 475.2373z" stroke="none" fill="#000000" fill-rule="nonzero" /><path id="167" transform="matrix(1 0 0 -1 0 842)" d="M148.6875 501.5059L149.1831 501.5059L149.1831 475.2373L148.6875 475.2373z" stroke="none" fill="#000000" fill-rule="nonzero" /><path id="168" transform="matrix(1 0 0 -1 0 842)" d="M223.0313 501.5059L223.5269 501.5059L223.5269 475.2373L223.0313 475.2373z" stroke="none" fill="#000000" fill-rule="nonzero" /><path id="169" transform="matrix(1 0 0 -1 0 842)" d="M223.0313 501.5059L273.0894 501.5059L273.0894 501.0098L223.0313 501.0098z" stroke="none" fill="#000000" fill-rule="nonzero" /><path id="170" transform="matrix(1 0 0 -1 0 842)" d="M223.0313 475.7324L273.0894 475.7324L273.0894 475.2373L223.0313 475.2373z" stroke="none" fill="#000000" fill-rule="nonzero" /><path id="171" transform="matrix(1 0 0 -1 0 842)" d="M223.0313 501.5059L223.5269 501.5059L223.5269 475.2373L223.0313 475.2373z" stroke="none" fill="#000000" fill-rule="nonzero" /><path id="172" transform="matrix(1 0 0 -1 0 842)" d="M272.5938 501.5059L273.0894 501.5059L273.0894 475.2373L272.5938 475.2373z" stroke="none" fill="#000000" fill-rule="nonzero" /><path id="173" transform="matrix(1 0 0 -1 0 842)" d="M272.5938 501.5059L421.7769 501.5059L421.7769 501.0098L272.5938 501.0098z" stroke="none" fill="#000000" fill-rule="nonzero" /><path id="174" transform="matrix(1 0 0 -1 0 842)" d="M272.5938 475.7324L421.7769 475.7324L421.7769 475.2373L272.5938 475.2373z" stroke="none" fill="#000000" fill-rule="nonzero" /><path id="175" transform="matrix(1 0 0 -1 0 842)" d="M272.5938 501.5059L273.0894 501.5059L273.0894 475.2373L272.5938 475.2373z" stroke="none" fill="#000000" fill-rule="nonzero" /><path id="176" transform="matrix(1 0 0 -1 0 842)" d="M421.2813 501.5059L421.7769 501.5059L421.7769 475.2373L421.2813 475.2373z" stroke="none" fill="#000000" fill-rule="nonzero" /><path id="177" transform="matrix(1 0 0 -1 0 842)" d="M421.2813 501.5059L471.3394 501.5059L471.3394 501.0098L421.2813 501.0098z" stroke="none" fill="#000000" fill-rule="nonzero" /><path id="178" transform="matrix(1 0 0 -1 0 842)" d="M421.2813 475.7324L471.3394 475.7324L471.3394 475.2373L421.2813 475.2373z" stroke="none" fill="#000000" fill-rule="nonzero" /><path id="179" transform="matrix(1 0 0 -1 0 842)" d="M421.2813 501.5059L421.7769 501.5059L421.7769 475.2373L421.2813 475.2373z" stroke="none" fill="#000000" fill-rule="nonzero" /><path id="180" transform="matrix(1 0 0 -1 0 842)" d="M470.8438 501.5059L471.3394 501.5059L471.3394 475.2373L470.8438 475.2373z" stroke="none" fill="#000000" fill-rule="nonzero" /><path id="181" transform="matrix(1 0 0 -1 0 842)" d="M470.8438 501.5059L545.1875 501.5059L545.1875 501.0098L470.8438 501.0098z" stroke="none" fill="#000000" fill-rule="nonzero" /><path id="182" transform="matrix(1 0 0 -1 0 842)" d="M470.8438 441.5352L545.1875 441.5352L545.1875 441.0391L470.8438 441.0391z" stroke="none" fill="#000000" fill-rule="nonzero" /><path id="183" transform="matrix(1 0 0 -1 0 842)" d="M470.8438 501.5059L471.3394 501.5059L471.3394 441.0391L470.8438 441.0391z" stroke="none" fill="#000000" fill-rule="nonzero" /><path id="184" transform="matrix(1 0 0 -1 0 842)" d="M544.6919 501.5059L545.1875 501.5059L545.1875 441.0391L544.6919 441.0391z" stroke="none" fill="#000000" fill-rule="nonzero" /><path id="185" transform="matrix(1 0 0 -1 0 842)" d="M148.6875 475.7324L223.5269 475.7324L223.5269 475.2373L148.6875 475.2373z" stroke="none" fill="#000000" fill-rule="nonzero" /><path id="186" transform="matrix(1 0 0 -1 0 842)" d="M148.6875 441.5352L223.5269 441.5352L223.5269 441.0391L148.6875 441.0391z" stroke="none" fill="#000000" fill-rule="nonzero" /><path id="187" transform="matrix(1 0 0 -1 0 842)" d="M148.6875 475.7324L149.1831 475.7324L149.1831 441.0391L148.6875 441.0391z" stroke="none" fill="#000000" fill-rule="nonzero" /><path id="188" transform="matrix(1 0 0 -1 0 842)" d="M223.0313 475.7324L223.5269 475.7324L223.5269 441.0391L223.0313 441.0391z" stroke="none" fill="#000000" fill-rule="nonzero" /><path id="189" transform="matrix(1 0 0 -1 0 842)" d="M223.0313 475.7324L273.0894 475.7324L273.0894 475.2373L223.0313 475.2373z" stroke="none" fill="#000000" fill-rule="nonzero" /><path id="190" transform="matrix(1 0 0 -1 0 842)" d="M223.0313 441.5352L273.0894 441.5352L273.0894 441.0391L223.0313 441.0391z" stroke="none" fill="#000000" fill-rule="nonzero" /><path id="191" transform="matrix(1 0 0 -1 0 842)" d="M223.0313 475.7324L223.5269 475.7324L223.5269 441.0391L223.0313 441.0391z" stroke="none" fill="#000000" fill-rule="nonzero" /><path id="192" transform="matrix(1 0 0 -1 0 842)" d="M272.5938 475.7324L273.0894 475.7324L273.0894 441.0391L272.5938 441.0391z" stroke="none" fill="#000000" fill-rule="nonzero" /><path id="193" transform="matrix(1 0 0 -1 0 842)" d="M272.5938 475.7324L421.7769 475.7324L421.7769 475.2373L272.5938 475.2373z" stroke="none" fill="#000000" fill-rule="nonzero" /><path id="194" transform="matrix(1 0 0 -1 0 842)" d="M272.5938 441.5352L421.7769 441.5352L421.7769 441.0391L272.5938 441.0391z" stroke="none" fill="#000000" fill-rule="nonzero" /><path id="195" transform="matrix(1 0 0 -1 0 842)" d="M272.5938 475.7324L273.0894 475.7324L273.0894 441.0391L272.5938 441.0391z" stroke="none" fill="#000000" fill-rule="nonzero" /><path id="196" transform="matrix(1 0 0 -1 0 842)" d="M421.2813 475.7324L421.7769 475.7324L421.7769 441.0391L421.2813 441.0391z" stroke="none" fill="#000000" fill-rule="nonzero" /><path id="197" transform="matrix(1 0 0 -1 0 842)" d="M421.2813 475.7324L471.3394 475.7324L471.3394 475.2373L421.2813 475.2373z" stroke="none" fill="#000000" fill-rule="nonzero" /><path id="198" transform="matrix(1 0 0 -1 0 842)" d="M421.2813 441.5352L471.3394 441.5352L471.3394 441.0391L421.2813 441.0391z" stroke="none" fill="#000000" fill-rule="nonzero" /><path id="199" transform="matrix(1 0 0 -1 0 842)" d="M421.2813 475.7324L421.7769 475.7324L421.7769 441.0391L421.2813 441.0391z" stroke="none" fill="#000000" fill-rule="nonzero" /><path id="200" transform="matrix(1 0 0 -1 0 842)" d="M470.8438 475.7324L471.3394 475.7324L471.3394 441.0391L470.8438 441.0391z" stroke="none" fill="#000000" fill-rule="nonzero" /><path id="201" transform="matrix(1 0 0 -1 0 842)" d="M49.5625 441.5352L74.83938 441.5352L74.83938 441.0391L49.5625 441.0391z" stroke="none" fill="#000000" fill-rule="nonzero" /><path id="202" transform="matrix(1 0 0 -1 0 842)" d="M49.5625 381.5645L74.83938 381.5645L74.83938 381.0684L49.5625 381.0684z" stroke="none" fill="#000000" fill-rule="nonzero" /><path id="203" transform="matrix(1 0 0 -1 0 842)" d="M49.5625 441.5352L50.05813 441.5352L50.05813 381.0684L49.5625 381.0684z" stroke="none" fill="#000000" fill-rule="nonzero" /><path id="204" transform="matrix(1 0 0 -1 0 842)" d="M74.34375 441.5352L74.83938 441.5352L74.83938 381.0684L74.34375 381.0684z" stroke="none" fill="#000000" fill-rule="nonzero" /><path id="205" transform="matrix(1 0 0 -1 0 842)" d="M74.34375 441.5352L149.1831 441.5352L149.1831 441.0391L74.34375 441.0391z" stroke="none" fill="#000000" fill-rule="nonzero" /><path id="206" transform="matrix(1 0 0 -1 0 842)" d="M74.34375 381.5645L149.1831 381.5645L149.1831 381.0684L74.34375 381.0684z" stroke="none" fill="#000000" fill-rule="nonzero" /><path id="207" transform="matrix(1 0 0 -1 0 842)" d="M74.34375 441.5352L74.83938 441.5352L74.83938 381.0684L74.34375 381.0684z" stroke="none" fill="#000000" fill-rule="nonzero" /><path id="208" transform="matrix(1 0 0 -1 0 842)" d="M148.6875 441.5352L149.1831 441.5352L149.1831 381.0684L148.6875 381.0684z" stroke="none" fill="#000000" fill-rule="nonzero" /><path id="209" transform="matrix(1 0 0 -1 0 842)" d="M148.6875 441.5352L223.5269 441.5352L223.5269 441.0391L148.6875 441.0391z" stroke="none" fill="#000000" fill-rule="nonzero" /><path id="210" transform="matrix(1 0 0 -1 0 842)" d="M148.6875 415.7627L223.5269 415.7627L223.5269 415.2666L148.6875 415.2666z" stroke="none" fill="#000000" fill-rule="nonzero" /><path id="211" transform="matrix(1 0 0 -1 0 842)" d="M148.6875 441.5352L149.1831 441.5352L149.1831 415.2666L148.6875 415.2666z" stroke="none" fill="#000000" fill-rule="nonzero" /><path id="212" transform="matrix(1 0 0 -1 0 842)" d="M223.0313 441.5352L223.5269 441.5352L223.5269 415.2666L223.0313 415.2666z" stroke="none" fill="#000000" fill-rule="nonzero" /><path id="213" transform="matrix(1 0 0 -1 0 842)" d="M223.0313 441.5352L273.0894 441.5352L273.0894 441.0391L223.0313 441.0391z" stroke="none" fill="#000000" fill-rule="nonzero" /><path id="214" transform="matrix(1 0 0 -1 0 842)" d="M223.0313 415.7627L273.0894 415.7627L273.0894 415.2666L223.0313 415.2666z" stroke="none" fill="#000000" fill-rule="nonzero" /><path id="215" transform="matrix(1 0 0 -1 0 842)" d="M223.0313 441.5352L223.5269 441.5352L223.5269 415.2666L223.0313 415.2666z" stroke="none" fill="#000000" fill-rule="nonzero" /><path id="216" transform="matrix(1 0 0 -1 0 842)" d="M272.5938 441.5352L273.0894 441.5352L273.0894 415.2666L272.5938 415.2666z" stroke="none" fill="#000000" fill-rule="nonzero" /><path id="217" transform="matrix(1 0 0 -1 0 842)" d="M272.5938 441.5352L421.7769 441.5352L421.7769 441.0391L272.5938 441.0391z" stroke="none" fill="#000000" fill-rule="nonzero" /><path id="218" transform="matrix(1 0 0 -1 0 842)" d="M272.5938 415.7627L421.7769 415.7627L421.7769 415.2666L272.5938 415.2666z" stroke="none" fill="#000000" fill-rule="nonzero" /><path id="219" transform="matrix(1 0 0 -1 0 842)" d="M272.5938 441.5352L273.0894 441.5352L273.0894 415.2666L272.5938 415.2666z" stroke="none" fill="#000000" fill-rule="nonzero" /><path id="220" transform="matrix(1 0 0 -1 0 842)" d="M421.2813 441.5352L421.7769 441.5352L421.7769 415.2666L421.2813 415.2666z" stroke="none" fill="#000000" fill-rule="nonzero" /><path id="221" transform="matrix(1 0 0 -1 0 842)" d="M421.2813 441.5352L471.3394 441.5352L471.3394 441.0391L421.2813 441.0391z" stroke="none" fill="#000000" fill-rule="nonzero" /><path id="222" transform="matrix(1 0 0 -1 0 842)" d="M421.2813 415.7627L471.3394 415.7627L471.3394 415.2666L421.2813 415.2666z" stroke="none" fill="#000000" fill-rule="nonzero" /><path id="223" transform="matrix(1 0 0 -1 0 842)" d="M421.2813 441.5352L421.7769 441.5352L421.7769 415.2666L421.2813 415.2666z" stroke="none" fill="#000000" fill-rule="nonzero" /><path id="224" transform="matrix(1 0 0 -1 0 842)" d="M470.8438 441.5352L471.3394 441.5352L471.3394 415.2666L470.8438 415.2666z" stroke="none" fill="#000000" fill-rule="nonzero" /><path id="225" transform="matrix(1 0 0 -1 0 842)" d="M470.8438 441.5352L545.1875 441.5352L545.1875 441.0391L470.8438 441.0391z" stroke="none" fill="#000000" fill-rule="nonzero" /><path id="226" transform="matrix(1 0 0 -1 0 842)" d="M470.8438 381.5645L545.1875 381.5645L545.1875 381.0684L470.8438 381.0684z" stroke="none" fill="#000000" fill-rule="nonzero" /><path id="227" transform="matrix(1 0 0 -1 0 842)" d="M470.8438 441.5352L471.3394 441.5352L471.3394 381.0684L470.8438 381.0684z" stroke="none" fill="#000000" fill-rule="nonzero" /><path id="228" transform="matrix(1 0 0 -1 0 842)" d="M544.6919 441.5352L545.1875 441.5352L545.1875 381.0684L544.6919 381.0684z" stroke="none" fill="#000000" fill-rule="nonzero" /><path id="229" transform="matrix(1 0 0 -1 0 842)" d="M148.6875 415.7627L223.5269 415.7627L223.5269 415.2666L148.6875 415.2666z" stroke="none" fill="#000000" fill-rule="nonzero" /><path id="230" transform="matrix(1 0 0 -1 0 842)" d="M148.6875 381.5645L223.5269 381.5645L223.5269 381.0684L148.6875 381.0684z" stroke="none" fill="#000000" fill-rule="nonzero" /><path id="231" transform="matrix(1 0 0 -1 0 842)" d="M148.6875 415.7627L149.1831 415.7627L149.1831 381.0684L148.6875 381.0684z" stroke="none" fill="#000000" fill-rule="nonzero" /><path id="232" transform="matrix(1 0 0 -1 0 842)" d="M223.0313 415.7627L223.5269 415.7627L223.5269 381.0684L223.0313 381.0684z" stroke="none" fill="#000000" fill-rule="nonzero" /><path id="233" transform="matrix(1 0 0 -1 0 842)" d="M223.0313 415.7627L273.0894 415.7627L273.0894 415.2666L223.0313 415.2666z" stroke="none" fill="#000000" fill-rule="nonzero" /><path id="234" transform="matrix(1 0 0 -1 0 842)" d="M223.0313 381.5645L273.0894 381.5645L273.0894 381.0684L223.0313 381.0684z" stroke="none" fill="#000000" fill-rule="nonzero" /><path id="235" transform="matrix(1 0 0 -1 0 842)" d="M223.0313 415.7627L223.5269 415.7627L223.5269 381.0684L223.0313 381.0684z" stroke="none" fill="#000000" fill-rule="nonzero" /><path id="236" transform="matrix(1 0 0 -1 0 842)" d="M272.5938 415.7627L273.0894 415.7627L273.0894 381.0684L272.5938 381.0684z" stroke="none" fill="#000000" fill-rule="nonzero" /><path id="237" transform="matrix(1 0 0 -1 0 842)" d="M272.5938 415.7627L421.7769 415.7627L421.7769 415.2666L272.5938 415.2666z" stroke="none" fill="#000000" fill-rule="nonzero" /><path id="238" transform="matrix(1 0 0 -1 0 842)" d="M272.5938 381.5645L421.7769 381.5645L421.7769 381.0684L272.5938 381.0684z" stroke="none" fill="#000000" fill-rule="nonzero" /><path id="239" transform="matrix(1 0 0 -1 0 842)" d="M272.5938 415.7627L273.0894 415.7627L273.0894 381.0684L272.5938 381.0684z" stroke="none" fill="#000000" fill-rule="nonzero" /><path id="240" transform="matrix(1 0 0 -1 0 842)" d="M421.2813 415.7627L421.7769 415.7627L421.7769 381.0684L421.2813 381.0684z" stroke="none" fill="#000000" fill-rule="nonzero" /><path id="241" transform="matrix(1 0 0 -1 0 842)" d="M421.2813 415.7627L471.3394 415.7627L471.3394 415.2666L421.2813 415.2666z" stroke="none" fill="#000000" fill-rule="nonzero" /><path id="242" transform="matrix(1 0 0 -1 0 842)" d="M421.2813 381.5645L471.3394 381.5645L471.3394 381.0684L421.2813 381.0684z" stroke="none" fill="#000000" fill-rule="nonzero" /><path id="243" transform="matrix(1 0 0 -1 0 842)" d="M421.2813 415.7627L421.7769 415.7627L421.7769 381.0684L421.2813 381.0684z" stroke="none" fill="#000000" fill-rule="nonzero" /><path id="244" transform="matrix(1 0 0 -1 0 842)" d="M470.8438 415.7627L471.3394 415.7627L471.3394 381.0684L470.8438 381.0684z" stroke="none" fill="#000000" fill-rule="nonzero" /><path id="245" transform="matrix(1 0 0 -1 0 842)" d="M49.5625 381.5645L74.83938 381.5645L74.83938 381.0684L49.5625 381.0684z" stroke="none" fill="#000000" fill-rule="nonzero" /><path id="246" transform="matrix(1 0 0 -1 0 842)" d="M49.5625 321.5938L74.83938 321.5938L74.83938 321.0977L49.5625 321.0977z" stroke="none" fill="#000000" fill-rule="nonzero" /><path id="247" transform="matrix(1 0 0 -1 0 842)" d="M49.5625 381.5645L50.05813 381.5645L50.05813 321.0977L49.5625 321.0977z" stroke="none" fill="#000000" fill-rule="nonzero" /><path id="248" transform="matrix(1 0 0 -1 0 842)" d="M74.34375 381.5645L74.83938 381.5645L74.83938 321.0977L74.34375 321.0977z" stroke="none" fill="#000000" fill-rule="nonzero" /><path id="249" transform="matrix(1 0 0 -1 0 842)" d="M74.34375 381.5645L149.1831 381.5645L149.1831 381.0684L74.34375 381.0684z" stroke="none" fill="#000000" fill-rule="nonzero" /><path id="250" transform="matrix(1 0 0 -1 0 842)" d="M74.34375 321.5938L149.1831 321.5938L149.1831 321.0977L74.34375 321.0977z" stroke="none" fill="#000000" fill-rule="nonzero" /><path id="251" transform="matrix(1 0 0 -1 0 842)" d="M74.34375 381.5645L74.83938 381.5645L74.83938 321.0977L74.34375 321.0977z" stroke="none" fill="#000000" fill-rule="nonzero" /><path id="252" transform="matrix(1 0 0 -1 0 842)" d="M148.6875 381.5645L149.1831 381.5645L149.1831 321.0977L148.6875 321.0977z" stroke="none" fill="#000000" fill-rule="nonzero" /><path id="253" transform="matrix(1 0 0 -1 0 842)" d="M148.6875 381.5645L223.5269 381.5645L223.5269 381.0684L148.6875 381.0684z" stroke="none" fill="#000000" fill-rule="nonzero" /><path id="254" transform="matrix(1 0 0 -1 0 842)" d="M148.6875 355.792L223.5269 355.792L223.5269 355.2959L148.6875 355.2959z" stroke="none" fill="#000000" fill-rule="nonzero" /><path id="255" transform="matrix(1 0 0 -1 0 842)" d="M148.6875 381.5645L149.1831 381.5645L149.1831 355.2959L148.6875 355.2959z" stroke="none" fill="#000000" fill-rule="nonzero" /><path id="256" transform="matrix(1 0 0 -1 0 842)" d="M223.0313 381.5645L223.5269 381.5645L223.5269 355.2959L223.0313 355.2959z" stroke="none" fill="#000000" fill-rule="nonzero" /><path id="257" transform="matrix(1 0 0 -1 0 842)" d="M223.0313 381.5645L273.0894 381.5645L273.0894 381.0684L223.0313 381.0684z" stroke="none" fill="#000000" fill-rule="nonzero" /><path id="258" transform="matrix(1 0 0 -1 0 842)" d="M223.0313 355.792L273.0894 355.792L273.0894 355.2959L223.0313 355.2959z" stroke="none" fill="#000000" fill-rule="nonzero" /><path id="259" transform="matrix(1 0 0 -1 0 842)" d="M223.0313 381.5645L223.5269 381.5645L223.5269 355.2959L223.0313 355.2959z" stroke="none" fill="#000000" fill-rule="nonzero" /><path id="260" transform="matrix(1 0 0 -1 0 842)" d="M272.5938 381.5645L273.0894 381.5645L273.0894 355.2959L272.5938 355.2959z" stroke="none" fill="#000000" fill-rule="nonzero" /><path id="261" transform="matrix(1 0 0 -1 0 842)" d="M272.5938 381.5645L421.7769 381.5645L421.7769 381.0684L272.5938 381.0684z" stroke="none" fill="#000000" fill-rule="nonzero" /><path id="262" transform="matrix(1 0 0 -1 0 842)" d="M272.5938 355.792L421.7769 355.792L421.7769 355.2959L272.5938 355.2959z" stroke="none" fill="#000000" fill-rule="nonzero" /><path id="263" transform="matrix(1 0 0 -1 0 842)" d="M272.5938 381.5645L273.0894 381.5645L273.0894 355.2959L272.5938 355.2959z" stroke="none" fill="#000000" fill-rule="nonzero" /><path id="264" transform="matrix(1 0 0 -1 0 842)" d="M421.2813 381.5645L421.7769 381.5645L421.7769 355.2959L421.2813 355.2959z" stroke="none" fill="#000000" fill-rule="nonzero" /><path id="265" transform="matrix(1 0 0 -1 0 842)" d="M421.2813 381.5645L471.3394 381.5645L471.3394 381.0684L421.2813 381.0684z" stroke="none" fill="#000000" fill-rule="nonzero" /><path id="266" transform="matrix(1 0 0 -1 0 842)" d="M421.2813 355.792L471.3394 355.792L471.3394 355.2959L421.2813 355.2959z" stroke="none" fill="#000000" fill-rule="nonzero" /><path id="267" transform="matrix(1 0 0 -1 0 842)" d="M421.2813 381.5645L421.7769 381.5645L421.7769 355.2959L421.2813 355.2959z" stroke="none" fill="#000000" fill-rule="nonzero" /><path id="268" transform="matrix(1 0 0 -1 0 842)" d="M470.8438 381.5645L471.3394 381.5645L471.3394 355.2959L470.8438 355.2959z" stroke="none" fill="#000000" fill-rule="nonzero" /><path id="269" transform="matrix(1 0 0 -1 0 842)" d="M470.8438 381.5645L545.1875 381.5645L545.1875 381.0684L470.8438 381.0684z" stroke="none" fill="#000000" fill-rule="nonzero" /><path id="270" transform="matrix(1 0 0 -1 0 842)" d="M470.8438 321.5938L545.1875 321.5938L545.1875 321.0977L470.8438 321.0977z" stroke="none" fill="#000000" fill-rule="nonzero" /><path id="271" transform="matrix(1 0 0 -1 0 842)" d="M470.8438 381.5645L471.3394 381.5645L471.3394 321.0977L470.8438 321.0977z" stroke="none" fill="#000000" fill-rule="nonzero" /><path id="272" transform="matrix(1 0 0 -1 0 842)" d="M544.6919 381.5645L545.1875 381.5645L545.1875 321.0977L544.6919 321.0977z" stroke="none" fill="#000000" fill-rule="nonzero" /><path id="273" transform="matrix(1 0 0 -1 0 842)" d="M148.6875 355.792L223.5269 355.792L223.5269 355.2959L148.6875 355.2959z" stroke="none" fill="#000000" fill-rule="nonzero" /><path id="274" transform="matrix(1 0 0 -1 0 842)" d="M148.6875 321.5938L223.5269 321.5938L223.5269 321.0977L148.6875 321.0977z" stroke="none" fill="#000000" fill-rule="nonzero" /><path id="275" transform="matrix(1 0 0 -1 0 842)" d="M148.6875 355.792L149.1831 355.792L149.1831 321.0977L148.6875 321.0977z" stroke="none" fill="#000000" fill-rule="nonzero" /><path id="276" transform="matrix(1 0 0 -1 0 842)" d="M223.0313 355.792L223.5269 355.792L223.5269 321.0977L223.0313 321.0977z" stroke="none" fill="#000000" fill-rule="nonzero" /><path id="277" transform="matrix(1 0 0 -1 0 842)" d="M223.0313 355.792L273.0894 355.792L273.0894 355.2959L223.0313 355.2959z" stroke="none" fill="#000000" fill-rule="nonzero" /><path id="278" transform="matrix(1 0 0 -1 0 842)" d="M223.0313 321.5938L273.0894 321.5938L273.0894 321.0977L223.0313 321.0977z" stroke="none" fill="#000000" fill-rule="nonzero" /><path id="279" transform="matrix(1 0 0 -1 0 842)" d="M223.0313 355.792L223.5269 355.792L223.5269 321.0977L223.0313 321.0977z" stroke="none" fill="#000000" fill-rule="nonzero" /><path id="280" transform="matrix(1 0 0 -1 0 842)" d="M272.5938 355.792L273.0894 355.792L273.0894 321.0977L272.5938 321.0977z" stroke="none" fill="#000000" fill-rule="nonzero" /><path id="281" transform="matrix(1 0 0 -1 0 842)" d="M272.5938 355.792L421.7769 355.792L421.7769 355.2959L272.5938 355.2959z" stroke="none" fill="#000000" fill-rule="nonzero" /><path id="282" transform="matrix(1 0 0 -1 0 842)" d="M272.5938 321.5938L421.7769 321.5938L421.7769 321.0977L272.5938 321.0977z" stroke="none" fill="#000000" fill-rule="nonzero" /><path id="283" transform="matrix(1 0 0 -1 0 842)" d="M272.5938 355.792L273.0894 355.792L273.0894 321.0977L272.5938 321.0977z" stroke="none" fill="#000000" fill-rule="nonzero" /><path id="284" transform="matrix(1 0 0 -1 0 842)" d="M421.2813 355.792L421.7769 355.792L421.7769 321.0977L421.2813 321.0977z" stroke="none" fill="#000000" fill-rule="nonzero" /><path id="285" transform="matrix(1 0 0 -1 0 842)" d="M421.2813 355.792L471.3394 355.792L471.3394 355.2959L421.2813 355.2959z" stroke="none" fill="#000000" fill-rule="nonzero" /><path id="286" transform="matrix(1 0 0 -1 0 842)" d="M421.2813 321.5938L471.3394 321.5938L471.3394 321.0977L421.2813 321.0977z" stroke="none" fill="#000000" fill-rule="nonzero" /><path id="287" transform="matrix(1 0 0 -1 0 842)" d="M421.2813 355.792L421.7769 355.792L421.7769 321.0977L421.2813 321.0977z" stroke="none" fill="#000000" fill-rule="nonzero" /><path id="288" transform="matrix(1 0 0 -1 0 842)" d="M470.8438 355.792L471.3394 355.792L471.3394 321.0977L470.8438 321.0977z" stroke="none" fill="#000000" fill-rule="nonzero" /><path id="289" transform="matrix(1 0 0 -1 0 842)" d="M49.5625 321.5938L74.83938 321.5938L74.83938 321.0977L49.5625 321.0977z" stroke="none" fill="#000000" fill-rule="nonzero" /><path id="290" transform="matrix(1 0 0 -1 0 842)" d="M49.5625 261.623L74.83938 261.623L74.83938 261.127L49.5625 261.127z" stroke="none" fill="#000000" fill-rule="nonzero" /><path id="291" transform="matrix(1 0 0 -1 0 842)" d="M49.5625 321.5938L50.05813 321.5938L50.05813 261.127L49.5625 261.127z" stroke="none" fill="#000000" fill-rule="nonzero" /><path id="292" transform="matrix(1 0 0 -1 0 842)" d="M74.34375 321.5938L74.83938 321.5938L74.83938 261.127L74.34375 261.127z" stroke="none" fill="#000000" fill-rule="nonzero" /><path id="293" transform="matrix(1 0 0 -1 0 842)" d="M74.34375 321.5938L149.1831 321.5938L149.1831 321.0977L74.34375 321.0977z" stroke="none" fill="#000000" fill-rule="nonzero" /><path id="294" transform="matrix(1 0 0 -1 0 842)" d="M74.34375 261.623L149.1831 261.623L149.1831 261.127L74.34375 261.127z" stroke="none" fill="#000000" fill-rule="nonzero" /><path id="295" transform="matrix(1 0 0 -1 0 842)" d="M74.34375 321.5938L74.83938 321.5938L74.83938 261.127L74.34375 261.127z" stroke="none" fill="#000000" fill-rule="nonzero" /><path id="296" transform="matrix(1 0 0 -1 0 842)" d="M148.6875 321.5938L149.1831 321.5938L149.1831 261.127L148.6875 261.127z" stroke="none" fill="#000000" fill-rule="nonzero" /><path id="297" transform="matrix(1 0 0 -1 0 842)" d="M148.6875 321.5938L223.5269 321.5938L223.5269 321.0977L148.6875 321.0977z" stroke="none" fill="#000000" fill-rule="nonzero" /><path id="298" transform="matrix(1 0 0 -1 0 842)" d="M148.6875 295.8213L223.5269 295.8213L223.5269 295.3252L148.6875 295.3252z" stroke="none" fill="#000000" fill-rule="nonzero" /><path id="299" transform="matrix(1 0 0 -1 0 842)" d="M148.6875 321.5938L149.1831 321.5938L149.1831 295.3252L148.6875 295.3252z" stroke="none" fill="#000000" fill-rule="nonzero" /><path id="300" transform="matrix(1 0 0 -1 0 842)" d="M223.0313 321.5938L223.5269 321.5938L223.5269 295.3252L223.0313 295.3252z" stroke="none" fill="#000000" fill-rule="nonzero" /><path id="301" transform="matrix(1 0 0 -1 0 842)" d="M223.0313 321.5938L273.0894 321.5938L273.0894 321.0977L223.0313 321.0977z" stroke="none" fill="#000000" fill-rule="nonzero" /><path id="302" transform="matrix(1 0 0 -1 0 842)" d="M223.0313 295.8213L273.0894 295.8213L273.0894 295.3252L223.0313 295.3252z" stroke="none" fill="#000000" fill-rule="nonzero" /><path id="303" transform="matrix(1 0 0 -1 0 842)" d="M223.0313 321.5938L223.5269 321.5938L223.5269 295.3252L223.0313 295.3252z" stroke="none" fill="#000000" fill-rule="nonzero" /><path id="304" transform="matrix(1 0 0 -1 0 842)" d="M272.5938 321.5938L273.0894 321.5938L273.0894 295.3252L272.5938 295.3252z" stroke="none" fill="#000000" fill-rule="nonzero" /><path id="305" transform="matrix(1 0 0 -1 0 842)" d="M272.5938 321.5938L421.7769 321.5938L421.7769 321.0977L272.5938 321.0977z" stroke="none" fill="#000000" fill-rule="nonzero" /><path id="306" transform="matrix(1 0 0 -1 0 842)" d="M272.5938 295.8213L421.7769 295.8213L421.7769 295.3252L272.5938 295.3252z" stroke="none" fill="#000000" fill-rule="nonzero" /><path id="307" transform="matrix(1 0 0 -1 0 842)" d="M272.5938 321.5938L273.0894 321.5938L273.0894 295.3252L272.5938 295.3252z" stroke="none" fill="#000000" fill-rule="nonzero" /><path id="308" transform="matrix(1 0 0 -1 0 842)" d="M421.2813 321.5938L421.7769 321.5938L421.7769 295.3252L421.2813 295.3252z" stroke="none" fill="#000000" fill-rule="nonzero" /><path id="309" transform="matrix(1 0 0 -1 0 842)" d="M421.2813 321.5938L471.3394 321.5938L471.3394 321.0977L421.2813 321.0977z" stroke="none" fill="#000000" fill-rule="nonzero" /><path id="310" transform="matrix(1 0 0 -1 0 842)" d="M421.2813 295.8213L471.3394 295.8213L471.3394 295.3252L421.2813 295.3252z" stroke="none" fill="#000000" fill-rule="nonzero" /><path id="311" transform="matrix(1 0 0 -1 0 842)" d="M421.2813 321.5938L421.7769 321.5938L421.7769 295.3252L421.2813 295.3252z" stroke="none" fill="#000000" fill-rule="nonzero" /><path id="312" transform="matrix(1 0 0 -1 0 842)" d="M470.8438 321.5938L471.3394 321.5938L471.3394 295.3252L470.8438 295.3252z" stroke="none" fill="#000000" fill-rule="nonzero" /><path id="313" transform="matrix(1 0 0 -1 0 842)" d="M470.8438 321.5938L545.1875 321.5938L545.1875 321.0977L470.8438 321.0977z" stroke="none" fill="#000000" fill-rule="nonzero" /><path id="314" transform="matrix(1 0 0 -1 0 842)" d="M470.8438 261.623L545.1875 261.623L545.1875 261.127L470.8438 261.127z" stroke="none" fill="#000000" fill-rule="nonzero" /><path id="315" transform="matrix(1 0 0 -1 0 842)" d="M470.8438 321.5938L471.3394 321.5938L471.3394 261.127L470.8438 261.127z" stroke="none" fill="#000000" fill-rule="nonzero" /><path id="316" transform="matrix(1 0 0 -1 0 842)" d="M544.6919 321.5938L545.1875 321.5938L545.1875 261.127L544.6919 261.127z" stroke="none" fill="#000000" fill-rule="nonzero" /><path id="317" transform="matrix(1 0 0 -1 0 842)" d="M148.6875 295.8213L223.5269 295.8213L223.5269 295.3252L148.6875 295.3252z" stroke="none" fill="#000000" fill-rule="nonzero" /><path id="318" transform="matrix(1 0 0 -1 0 842)" d="M148.6875 261.623L223.5269 261.623L223.5269 261.127L148.6875 261.127z" stroke="none" fill="#000000" fill-rule="nonzero" /><path id="319" transform="matrix(1 0 0 -1 0 842)" d="M148.6875 295.8213L149.1831 295.8213L149.1831 261.127L148.6875 261.127z" stroke="none" fill="#000000" fill-rule="nonzero" /><path id="320" transform="matrix(1 0 0 -1 0 842)" d="M223.0313 295.8213L223.5269 295.8213L223.5269 261.127L223.0313 261.127z" stroke="none" fill="#000000" fill-rule="nonzero" /><path id="321" transform="matrix(1 0 0 -1 0 842)" d="M223.0313 295.8213L273.0894 295.8213L273.0894 295.3252L223.0313 295.3252z" stroke="none" fill="#000000" fill-rule="nonzero" /><path id="322" transform="matrix(1 0 0 -1 0 842)" d="M223.0313 261.623L273.0894 261.623L273.0894 261.127L223.0313 261.127z" stroke="none" fill="#000000" fill-rule="nonzero" /><path id="323" transform="matrix(1 0 0 -1 0 842)" d="M223.0313 295.8213L223.5269 295.8213L223.5269 261.127L223.0313 261.127z" stroke="none" fill="#000000" fill-rule="nonzero" /><path id="324" transform="matrix(1 0 0 -1 0 842)" d="M272.5938 295.8213L273.0894 295.8213L273.0894 261.127L272.5938 261.127z" stroke="none" fill="#000000" fill-rule="nonzero" /><path id="325" transform="matrix(1 0 0 -1 0 842)" d="M272.5938 295.8213L421.7769 295.8213L421.7769 295.3252L272.5938 295.3252z" stroke="none" fill="#000000" fill-rule="nonzero" /><path id="326" transform="matrix(1 0 0 -1 0 842)" d="M272.5938 261.623L421.7769 261.623L421.7769 261.127L272.5938 261.127z" stroke="none" fill="#000000" fill-rule="nonzero" /><path id="327" transform="matrix(1 0 0 -1 0 842)" d="M272.5938 295.8213L273.0894 295.8213L273.0894 261.127L272.5938 261.127z" stroke="none" fill="#000000" fill-rule="nonzero" /><path id="328" transform="matrix(1 0 0 -1 0 842)" d="M421.2813 295.8213L421.7769 295.8213L421.7769 261.127L421.2813 261.127z" stroke="none" fill="#000000" fill-rule="nonzero" /><path id="329" transform="matrix(1 0 0 -1 0 842)" d="M421.2813 295.8213L471.3394 295.8213L471.3394 295.3252L421.2813 295.3252z" stroke="none" fill="#000000" fill-rule="nonzero" /><path id="330" transform="matrix(1 0 0 -1 0 842)" d="M421.2813 261.623L471.3394 261.623L471.3394 261.127L421.2813 261.127z" stroke="none" fill="#000000" fill-rule="nonzero" /><path id="331" transform="matrix(1 0 0 -1 0 842)" d="M421.2813 295.8213L421.7769 295.8213L421.7769 261.127L421.2813 261.127z" stroke="none" fill="#000000" fill-rule="nonzero" /><path id="332" transform="matrix(1 0 0 -1 0 842)" d="M470.8438 295.8213L471.3394 295.8213L471.3394 261.127L470.8438 261.127z" stroke="none" fill="#000000" fill-rule="nonzero" /><path id="333" transform="matrix(1 0 0 -1 0 842)" d="M49.5625 261.623L74.83938 261.623L74.83938 261.127L49.5625 261.127z" stroke="none" fill="#000000" fill-rule="nonzero" /><path id="334" transform="matrix(1 0 0 -1 0 842)" d="M49.5625 227.4248L74.83938 227.4248L74.83938 226.9287L49.5625 226.9287z" stroke="none" fill="#000000" fill-rule="nonzero" /><path id="335" transform="matrix(1 0 0 -1 0 842)" d="M49.5625 261.623L50.05813 261.623L50.05813 226.9287L49.5625 226.9287z" stroke="none" fill="#000000" fill-rule="nonzero" /><path id="336" transform="matrix(1 0 0 -1 0 842)" d="M74.34375 261.623L74.83938 261.623L74.83938 226.9287L74.34375 226.9287z" stroke="none" fill="#000000" fill-rule="nonzero" /><path id="337" transform="matrix(1 0 0 -1 0 842)" d="M74.34375 261.623L149.1831 261.623L149.1831 261.127L74.34375 261.127z" stroke="none" fill="#000000" fill-rule="nonzero" /><path id="338" transform="matrix(1 0 0 -1 0 842)" d="M74.34375 227.4248L149.1831 227.4248L149.1831 226.9287L74.34375 226.9287z" stroke="none" fill="#000000" fill-rule="nonzero" /><path id="339" transform="matrix(1 0 0 -1 0 842)" d="M74.34375 261.623L74.83938 261.623L74.83938 226.9287L74.34375 226.9287z" stroke="none" fill="#000000" fill-rule="nonzero" /><path id="340" transform="matrix(1 0 0 -1 0 842)" d="M148.6875 261.623L149.1831 261.623L149.1831 226.9287L148.6875 226.9287z" stroke="none" fill="#000000" fill-rule="nonzero" /><path id="341" transform="matrix(1 0 0 -1 0 842)" d="M148.6875 261.623L223.5269 261.623L223.5269 261.127L148.6875 261.127z" stroke="none" fill="#000000" fill-rule="nonzero" /><path id="342" transform="matrix(1 0 0 -1 0 842)" d="M148.6875 227.4248L223.5269 227.4248L223.5269 226.9287L148.6875 226.9287z" stroke="none" fill="#000000" fill-rule="nonzero" /><path id="343" transform="matrix(1 0 0 -1 0 842)" d="M148.6875 261.623L149.1831 261.623L149.1831 226.9287L148.6875 226.9287z" stroke="none" fill="#000000" fill-rule="nonzero" /><path id="344" transform="matrix(1 0 0 -1 0 842)" d="M223.0313 261.623L223.5269 261.623L223.5269 226.9287L223.0313 226.9287z" stroke="none" fill="#000000" fill-rule="nonzero" /><path id="345" transform="matrix(1 0 0 -1 0 842)" d="M223.0313 261.623L273.0894 261.623L273.0894 261.127L223.0313 261.127z" stroke="none" fill="#000000" fill-rule="nonzero" /><path id="346" transform="matrix(1 0 0 -1 0 842)" d="M223.0313 227.4248L273.0894 227.4248L273.0894 226.9287L223.0313 226.9287z" stroke="none" fill="#000000" fill-rule="nonzero" /><path id="347" transform="matrix(1 0 0 -1 0 842)" d="M223.0313 261.623L223.5269 261.623L223.5269 226.9287L223.0313 226.9287z" stroke="none" fill="#000000" fill-rule="nonzero" /><path id="348" transform="matrix(1 0 0 -1 0 842)" d="M272.5938 261.623L273.0894 261.623L273.0894 226.9287L272.5938 226.9287z" stroke="none" fill="#000000" fill-rule="nonzero" /><path id="349" transform="matrix(1 0 0 -1 0 842)" d="M272.5938 261.623L421.7769 261.623L421.7769 261.127L272.5938 261.127z" stroke="none" fill="#000000" fill-rule="nonzero" /><path id="350" transform="matrix(1 0 0 -1 0 842)" d="M272.5938 227.4248L421.7769 227.4248L421.7769 226.9287L272.5938 226.9287z" stroke="none" fill="#000000" fill-rule="nonzero" /><path id="351" transform="matrix(1 0 0 -1 0 842)" d="M272.5938 261.623L273.0894 261.623L273.0894 226.9287L272.5938 226.9287z" stroke="none" fill="#000000" fill-rule="nonzero" /><path id="352" transform="matrix(1 0 0 -1 0 842)" d="M421.2813 261.623L421.7769 261.623L421.7769 226.9287L421.2813 226.9287z" stroke="none" fill="#000000" fill-rule="nonzero" /><path id="353" transform="matrix(1 0 0 -1 0 842)" d="M421.2813 261.623L471.3394 261.623L471.3394 261.127L421.2813 261.127z" stroke="none" fill="#000000" fill-rule="nonzero" /><path id="354" transform="matrix(1 0 0 -1 0 842)" d="M421.2813 227.4248L471.3394 227.4248L471.3394 226.9287L421.2813 226.9287z" stroke="none" fill="#000000" fill-rule="nonzero" /><path id="355" transform="matrix(1 0 0 -1 0 842)" d="M421.2813 261.623L421.7769 261.623L421.7769 226.9287L421.2813 226.9287z" stroke="none" fill="#000000" fill-rule="nonzero" /><path id="356" transform="matrix(1 0 0 -1 0 842)" d="M470.8438 261.623L471.3394 261.623L471.3394 226.9287L470.8438 226.9287z" stroke="none" fill="#000000" fill-rule="nonzero" /><path id="357" transform="matrix(1 0 0 -1 0 842)" d="M470.8438 261.623L545.1875 261.623L545.1875 261.127L470.8438 261.127z" stroke="none" fill="#000000" fill-rule="nonzero" /><path id="358" transform="matrix(1 0 0 -1 0 842)" d="M470.8438 227.4248L545.1875 227.4248L545.1875 226.9287L470.8438 226.9287z" stroke="none" fill="#000000" fill-rule="nonzero" /><path id="359" transform="matrix(1 0 0 -1 0 842)" d="M470.8438 261.623L471.3394 261.623L471.3394 226.9287L470.8438 226.9287z" stroke="none" fill="#000000" fill-rule="nonzero" /><path id="360" transform="matrix(1 0 0 -1 0 842)" d="M544.6919 261.623L545.1875 261.623L545.1875 226.9287L544.6919 226.9287z" stroke="none" fill="#000000" fill-rule="nonzero" /><path id="361" transform="matrix(1 0 0 -1 0 842)" d="M49.5625 227.4248L74.83938 227.4248L74.83938 226.9287L49.5625 226.9287z" stroke="none" fill="#000000" fill-rule="nonzero" /><path id="362" transform="matrix(1 0 0 -1 0 842)" d="M49.5625 193.2266L74.83938 193.2266L74.83938 192.7314L49.5625 192.7314z" stroke="none" fill="#000000" fill-rule="nonzero" /><path id="363" transform="matrix(1 0 0 -1 0 842)" d="M49.5625 227.4248L50.05813 227.4248L50.05813 192.7314L49.5625 192.7314z" stroke="none" fill="#000000" fill-rule="nonzero" /><path id="364" transform="matrix(1 0 0 -1 0 842)" d="M74.34375 227.4248L74.83938 227.4248L74.83938 192.7314L74.34375 192.7314z" stroke="none" fill="#000000" fill-rule="nonzero" /><path id="365" transform="matrix(1 0 0 -1 0 842)" d="M74.34375 227.4248L149.1831 227.4248L149.1831 226.9287L74.34375 226.9287z" stroke="none" fill="#000000" fill-rule="nonzero" /><path id="366" transform="matrix(1 0 0 -1 0 842)" d="M74.34375 193.2266L149.1831 193.2266L149.1831 192.7314L74.34375 192.7314z" stroke="none" fill="#000000" fill-rule="nonzero" /><path id="367" transform="matrix(1 0 0 -1 0 842)" d="M74.34375 227.4248L74.83938 227.4248L74.83938 192.7314L74.34375 192.7314z" stroke="none" fill="#000000" fill-rule="nonzero" /><path id="368" transform="matrix(1 0 0 -1 0 842)" d="M148.6875 227.4248L149.1831 227.4248L149.1831 192.7314L148.6875 192.7314z" stroke="none" fill="#000000" fill-rule="nonzero" /><path id="369" transform="matrix(1 0 0 -1 0 842)" d="M148.6875 227.4248L223.5269 227.4248L223.5269 226.9287L148.6875 226.9287z" stroke="none" fill="#000000" fill-rule="nonzero" /><path id="370" transform="matrix(1 0 0 -1 0 842)" d="M148.6875 193.2266L223.5269 193.2266L223.5269 192.7314L148.6875 192.7314z" stroke="none" fill="#000000" fill-rule="nonzero" /><path id="371" transform="matrix(1 0 0 -1 0 842)" d="M148.6875 227.4248L149.1831 227.4248L149.1831 192.7314L148.6875 192.7314z" stroke="none" fill="#000000" fill-rule="nonzero" /><path id="372" transform="matrix(1 0 0 -1 0 842)" d="M223.0313 227.4248L223.5269 227.4248L223.5269 192.7314L223.0313 192.7314z" stroke="none" fill="#000000" fill-rule="nonzero" /><path id="373" transform="matrix(1 0 0 -1 0 842)" d="M223.0313 227.4248L273.0894 227.4248L273.0894 226.9287L223.0313 226.9287z" stroke="none" fill="#000000" fill-rule="nonzero" /><path id="374" transform="matrix(1 0 0 -1 0 842)" d="M223.0313 193.2266L273.0894 193.2266L273.0894 192.7314L223.0313 192.7314z" stroke="none" fill="#000000" fill-rule="nonzero" /><path id="375" transform="matrix(1 0 0 -1 0 842)" d="M223.0313 227.4248L223.5269 227.4248L223.5269 192.7314L223.0313 192.7314z" stroke="none" fill="#000000" fill-rule="nonzero" /><path id="376" transform="matrix(1 0 0 -1 0 842)" d="M272.5938 227.4248L273.0894 227.4248L273.0894 192.7314L272.5938 192.7314z" stroke="none" fill="#000000" fill-rule="nonzero" /><path id="377" transform="matrix(1 0 0 -1 0 842)" d="M272.5938 227.4248L421.7769 227.4248L421.7769 226.9287L272.5938 226.9287z" stroke="none" fill="#000000" fill-rule="nonzero" /><path id="378" transform="matrix(1 0 0 -1 0 842)" d="M272.5938 193.2266L421.7769 193.2266L421.7769 192.7314L272.5938 192.7314z" stroke="none" fill="#000000" fill-rule="nonzero" /><path id="379" transform="matrix(1 0 0 -1 0 842)" d="M272.5938 227.4248L273.0894 227.4248L273.0894 192.7314L272.5938 192.7314z" stroke="none" fill="#000000" fill-rule="nonzero" /><path id="380" transform="matrix(1 0 0 -1 0 842)" d="M421.2813 227.4248L421.7769 227.4248L421.7769 192.7314L421.2813 192.7314z" stroke="none" fill="#000000" fill-rule="nonzero" /><path id="381" transform="matrix(1 0 0 -1 0 842)" d="M421.2813 227.4248L471.3394 227.4248L471.3394 226.9287L421.2813 226.9287z" stroke="none" fill="#000000" fill-rule="nonzero" /><path id="382" transform="matrix(1 0 0 -1 0 842)" d="M421.2813 193.2266L471.3394 193.2266L471.3394 192.7314L421.2813 192.7314z" stroke="none" fill="#000000" fill-rule="nonzero" /><path id="383" transform="matrix(1 0 0 -1 0 842)" d="M421.2813 227.4248L421.7769 227.4248L421.7769 192.7314L421.2813 192.7314z" stroke="none" fill="#000000" fill-rule="nonzero" /><path id="384" transform="matrix(1 0 0 -1 0 842)" d="M470.8438 227.4248L471.3394 227.4248L471.3394 192.7314L470.8438 192.7314z" stroke="none" fill="#000000" fill-rule="nonzero" /><path id="385" transform="matrix(1 0 0 -1 0 842)" d="M470.8438 227.4248L545.1875 227.4248L545.1875 226.9287L470.8438 226.9287z" stroke="none" fill="#000000" fill-rule="nonzero" /><path id="386" transform="matrix(1 0 0 -1 0 842)" d="M470.8438 193.2266L545.1875 193.2266L545.1875 192.7314L470.8438 192.7314z" stroke="none" fill="#000000" fill-rule="nonzero" /><path id="387" transform="matrix(1 0 0 -1 0 842)" d="M470.8438 227.4248L471.3394 227.4248L471.3394 192.7314L470.8438 192.7314z" stroke="none" fill="#000000" fill-rule="nonzero" /><path id="388" transform="matrix(1 0 0 -1 0 842)" d="M544.6919 227.4248L545.1875 227.4248L545.1875 192.7314L544.6919 192.7314z" stroke="none" fill="#000000" fill-rule="nonzero" /></g></g></g></svg>