<svg xmlns="http://www.w3.org/2000/svg" xmlns:xlink="http://www.w3.org/1999/xlink" id="body_6" preserveAspectRatio="xMinYMin meet" viewBox="0 0 793 1123"><defs><clipPath id="1"><path id="" clip-rule="evenodd" transform="matrix(1 0 0 1 0 0)" d="M0 842L0 0L0 0L595 0L595 0L595 842L595 842L0 842z" /></clipPath><clipPath id="2"><path id="" clip-rule="evenodd" transform="matrix(1 0 0 1 0 0)" d="M0 0L594.75 0L594.75 0L594.75 842.0669L594.75 842.0669L0 842.0669L0 842.0669L0 0z" /></clipPath></defs><g transform="matrix(1.333333 0 0 1.333333 0 0)"><g clip-path="url(#1)"><g clip-path="url(#2)"><path id="1" transform="matrix(1 0 0 -1 0 842)" d="M0 842L594.75 842L594.75 -0.06689453L0 -0.06689453z" stroke="none" fill="#FFFFFF" fill-rule="nonzero" /><path id="2" transform="matrix(1 0 0 -1 0 842)" d="M49.5625 765.6738L223.0313 765.6738L223.0313 745.8486L49.5625 745.8486z" stroke="none" fill="#9CC9F0" fill-rule="nonzero" /><path id="3" transform="matrix(1 0 0 -1 0 842)" d="M223.0313 765.6738L396.5 765.6738L396.5 745.8486L223.0313 745.8486z" stroke="none" fill="#9CC9F0" fill-rule="nonzero" /><path id="4" transform="matrix(1 0 0 -1 0 842)" d="M396.5 765.6738L544.6919 765.6738L544.6919 745.8486L396.5 745.8486z" stroke="none" fill="#9CC9F0" fill-rule="nonzero" /><path id="5" transform="matrix(1 0 0 -1 0 842)" d="M49.5625 765.6738L223.5269 765.6738L223.5269 765.1782L49.5625 765.1782z" stroke="none" fill="#000000" fill-rule="nonzero" /><path id="6" transform="matrix(1 0 0 -1 0 842)" d="M49.5625 745.8486L223.5269 745.8486L223.5269 745.353L49.5625 745.353z" stroke="none" fill="#000000" fill-rule="nonzero" /><path id="7" transform="matrix(1 0 0 -1 0 842)" d="M49.5625 765.6738L50.05813 765.6738L50.05813 745.353L49.5625 745.353z" stroke="none" fill="#000000" fill-rule="nonzero" /><path id="8" transform="matrix(1 0 0 -1 0 842)" d="M223.0313 765.6738L223.5269 765.6738L223.5269 745.353L223.0313 745.353z" stroke="none" fill="#000000" fill-rule="nonzero" /><path id="9" transform="matrix(1 0 0 -1 0 842)" d="M223.0313 765.6738L396.9956 765.6738L396.9956 765.1782L223.0313 765.1782z" stroke="none" fill="#000000" fill-rule="nonzero" /><path id="10" transform="matrix(1 0 0 -1 0 842)" d="M223.0313 745.8486L396.9956 745.8486L396.9956 745.353L223.0313 745.353z" stroke="none" fill="#000000" fill-rule="nonzero" /><path id="11" transform="matrix(1 0 0 -1 0 842)" d="M223.0313 765.6738L223.5269 765.6738L223.5269 745.353L223.0313 745.353z" stroke="none" fill="#000000" fill-rule="nonzero" /><path id="12" transform="matrix(1 0 0 -1 0 842)" d="M396.5 765.6738L396.9956 765.6738L396.9956 745.353L396.5 745.353z" stroke="none" fill="#000000" fill-rule="nonzero" /><path id="13" transform="matrix(1 0 0 -1 0 842)" d="M396.5 765.6738L545.1875 765.6738L545.1875 765.1782L396.5 765.1782z" stroke="none" fill="#000000" fill-rule="nonzero" /><path id="14" transform="matrix(1 0 0 -1 0 842)" d="M396.5 745.8486L545.1875 745.8486L545.1875 745.353L396.5 745.353z" stroke="none" fill="#000000" fill-rule="nonzero" /><path id="15" transform="matrix(1 0 0 -1 0 842)" d="M396.5 765.6738L396.9956 765.6738L396.9956 745.353L396.5 745.353z" stroke="none" fill="#000000" fill-rule="nonzero" /><path id="16" transform="matrix(1 0 0 -1 0 842)" d="M544.6919 765.6738L545.1875 765.6738L545.1875 745.353L544.6919 745.353z" stroke="none" fill="#000000" fill-rule="nonzero" /><path id="17" transform="matrix(1 0 0 -1 0 842)" d="M49.5625 745.8486L136.7925 745.8486L136.7925 745.353L49.5625 745.353z" stroke="none" fill="#000000" fill-rule="nonzero" /><path id="18" transform="matrix(1 0 0 -1 0 842)" d="M49.5625 626.8984L136.7925 626.8984L136.7925 626.4028L49.5625 626.4028z" stroke="none" fill="#000000" fill-rule="nonzero" /><path id="19" transform="matrix(1 0 0 -1 0 842)" d="M49.5625 745.8486L50.05813 745.8486L50.05813 626.4028L49.5625 626.4028z" stroke="none" fill="#000000" fill-rule="nonzero" /><path id="20" transform="matrix(1 0 0 -1 0 842)" d="M136.2969 745.8486L136.7925 745.8486L136.7925 626.4028L136.2969 626.4028z" stroke="none" fill="#000000" fill-rule="nonzero" /><path id="21" transform="matrix(1 0 0 -1 0 842)" d="M136.2969 745.8486L223.5269 745.8486L223.5269 745.353L136.2969 745.353z" stroke="none" fill="#000000" fill-rule="nonzero" /><path id="22" transform="matrix(1 0 0 -1 0 842)" d="M136.2969 626.8984L223.5269 626.8984L223.5269 626.4028L136.2969 626.4028z" stroke="none" fill="#000000" fill-rule="nonzero" /><path id="23" transform="matrix(1 0 0 -1 0 842)" d="M136.2969 745.8486L136.7925 745.8486L136.7925 626.4028L136.2969 626.4028z" stroke="none" fill="#000000" fill-rule="nonzero" /><path id="24" transform="matrix(1 0 0 -1 0 842)" d="M223.0313 745.8486L223.5269 745.8486L223.5269 626.4028L223.0313 626.4028z" stroke="none" fill="#000000" fill-rule="nonzero" /><path id="25" transform="matrix(1 0 0 -1 0 842)" d="M223.0313 745.8486L396.9956 745.8486L396.9956 745.353L223.0313 745.353z" stroke="none" fill="#000000" fill-rule="nonzero" /><path id="26" transform="matrix(1 0 0 -1 0 842)" d="M223.0313 726.0234L396.9956 726.0234L396.9956 725.5278L223.0313 725.5278z" stroke="none" fill="#000000" fill-rule="nonzero" /><path id="27" transform="matrix(1 0 0 -1 0 842)" d="M223.0313 745.8486L223.5269 745.8486L223.5269 725.5278L223.0313 725.5278z" stroke="none" fill="#000000" fill-rule="nonzero" /><path id="28" transform="matrix(1 0 0 -1 0 842)" d="M396.5 745.8486L396.9956 745.8486L396.9956 725.5278L396.5 725.5278z" stroke="none" fill="#000000" fill-rule="nonzero" /><path id="29" transform="matrix(1 0 0 -1 0 842)" d="M396.5 745.8486L545.1875 745.8486L545.1875 745.353L396.5 745.353z" stroke="none" fill="#000000" fill-rule="nonzero" /><path id="30" transform="matrix(1 0 0 -1 0 842)" d="M396.5 726.0234L545.1875 726.0234L545.1875 725.5278L396.5 725.5278z" stroke="none" fill="#000000" fill-rule="nonzero" /><path id="31" transform="matrix(1 0 0 -1 0 842)" d="M396.5 745.8486L396.9956 745.8486L396.9956 725.5278L396.5 725.5278z" stroke="none" fill="#000000" fill-rule="nonzero" /><path id="32" transform="matrix(1 0 0 -1 0 842)" d="M544.6919 745.8486L545.1875 745.8486L545.1875 725.5278L544.6919 725.5278z" stroke="none" fill="#000000" fill-rule="nonzero" /><path id="33" transform="matrix(1 0 0 -1 0 842)" d="M223.0313 726.0234L396.9956 726.0234L396.9956 725.5278L223.0313 725.5278z" stroke="none" fill="#000000" fill-rule="nonzero" /><path id="34" transform="matrix(1 0 0 -1 0 842)" d="M223.0313 706.1987L396.9956 706.1987L396.9956 705.7031L223.0313 705.7031z" stroke="none" fill="#000000" fill-rule="nonzero" /><path id="35" transform="matrix(1 0 0 -1 0 842)" d="M223.0313 726.0234L223.5269 726.0234L223.5269 705.7031L223.0313 705.7031z" stroke="none" fill="#000000" fill-rule="nonzero" /><path id="36" transform="matrix(1 0 0 -1 0 842)" d="M396.5 726.0234L396.9956 726.0234L396.9956 705.7031L396.5 705.7031z" stroke="none" fill="#000000" fill-rule="nonzero" /><path id="37" transform="matrix(1 0 0 -1 0 842)" d="M396.5 726.0234L545.1875 726.0234L545.1875 725.5278L396.5 725.5278z" stroke="none" fill="#000000" fill-rule="nonzero" /><path id="38" transform="matrix(1 0 0 -1 0 842)" d="M396.5 706.1987L545.1875 706.1987L545.1875 705.7031L396.5 705.7031z" stroke="none" fill="#000000" fill-rule="nonzero" /><path id="39" transform="matrix(1 0 0 -1 0 842)" d="M396.5 726.0234L396.9956 726.0234L396.9956 705.7031L396.5 705.7031z" stroke="none" fill="#000000" fill-rule="nonzero" /><path id="40" transform="matrix(1 0 0 -1 0 842)" d="M544.6919 726.0234L545.1875 726.0234L545.1875 705.7031L544.6919 705.7031z" stroke="none" fill="#000000" fill-rule="nonzero" /><path id="41" transform="matrix(1 0 0 -1 0 842)" d="M223.0313 706.1987L396.9956 706.1987L396.9956 705.7031L223.0313 705.7031z" stroke="none" fill="#000000" fill-rule="nonzero" /><path id="42" transform="matrix(1 0 0 -1 0 842)" d="M223.0313 686.3735L396.9956 686.3735L396.9956 685.8779L223.0313 685.8779z" stroke="none" fill="#000000" fill-rule="nonzero" /><path id="43" transform="matrix(1 0 0 -1 0 842)" d="M223.0313 706.1987L223.5269 706.1987L223.5269 685.8779L223.0313 685.8779z" stroke="none" fill="#000000" fill-rule="nonzero" /><path id="44" transform="matrix(1 0 0 -1 0 842)" d="M396.5 706.1987L396.9956 706.1987L396.9956 685.8779L396.5 685.8779z" stroke="none" fill="#000000" fill-rule="nonzero" /><path id="45" transform="matrix(1 0 0 -1 0 842)" d="M396.5 706.1987L545.1875 706.1987L545.1875 705.7031L396.5 705.7031z" stroke="none" fill="#000000" fill-rule="nonzero" /><path id="46" transform="matrix(1 0 0 -1 0 842)" d="M396.5 686.3735L545.1875 686.3735L545.1875 685.8779L396.5 685.8779z" stroke="none" fill="#000000" fill-rule="nonzero" /><path id="47" transform="matrix(1 0 0 -1 0 842)" d="M396.5 706.1987L396.9956 706.1987L396.9956 685.8779L396.5 685.8779z" stroke="none" fill="#000000" fill-rule="nonzero" /><path id="48" transform="matrix(1 0 0 -1 0 842)" d="M544.6919 706.1987L545.1875 706.1987L545.1875 685.8779L544.6919 685.8779z" stroke="none" fill="#000000" fill-rule="nonzero" /><path id="49" transform="matrix(1 0 0 -1 0 842)" d="M223.0313 686.3735L396.9956 686.3735L396.9956 685.8779L223.0313 685.8779z" stroke="none" fill="#000000" fill-rule="nonzero" /><path id="50" transform="matrix(1 0 0 -1 0 842)" d="M223.0313 666.5488L396.9956 666.5488L396.9956 666.0532L223.0313 666.0532z" stroke="none" fill="#000000" fill-rule="nonzero" /><path id="51" transform="matrix(1 0 0 -1 0 842)" d="M223.0313 686.3735L223.5269 686.3735L223.5269 666.0532L223.0313 666.0532z" stroke="none" fill="#000000" fill-rule="nonzero" /><path id="52" transform="matrix(1 0 0 -1 0 842)" d="M396.5 686.3735L396.9956 686.3735L396.9956 666.0532L396.5 666.0532z" stroke="none" fill="#000000" fill-rule="nonzero" /><path id="53" transform="matrix(1 0 0 -1 0 842)" d="M396.5 686.3735L545.1875 686.3735L545.1875 685.8779L396.5 685.8779z" stroke="none" fill="#000000" fill-rule="nonzero" /><path id="54" transform="matrix(1 0 0 -1 0 842)" d="M396.5 666.5488L545.1875 666.5488L545.1875 666.0532L396.5 666.0532z" stroke="none" fill="#000000" fill-rule="nonzero" /><path id="55" transform="matrix(1 0 0 -1 0 842)" d="M396.5 686.3735L396.9956 686.3735L396.9956 666.0532L396.5 666.0532z" stroke="none" fill="#000000" fill-rule="nonzero" /><path id="56" transform="matrix(1 0 0 -1 0 842)" d="M544.6919 686.3735L545.1875 686.3735L545.1875 666.0532L544.6919 666.0532z" stroke="none" fill="#000000" fill-rule="nonzero" /><path id="57" transform="matrix(1 0 0 -1 0 842)" d="M223.0313 666.5488L396.9956 666.5488L396.9956 666.0532L223.0313 666.0532z" stroke="none" fill="#000000" fill-rule="nonzero" /><path id="58" transform="matrix(1 0 0 -1 0 842)" d="M223.0313 646.7236L396.9956 646.7236L396.9956 646.228L223.0313 646.228z" stroke="none" fill="#000000" fill-rule="nonzero" /><path id="59" transform="matrix(1 0 0 -1 0 842)" d="M223.0313 666.5488L223.5269 666.5488L223.5269 646.228L223.0313 646.228z" stroke="none" fill="#000000" fill-rule="nonzero" /><path id="60" transform="matrix(1 0 0 -1 0 842)" d="M396.5 666.5488L396.9956 666.5488L396.9956 646.228L396.5 646.228z" stroke="none" fill="#000000" fill-rule="nonzero" /><path id="61" transform="matrix(1 0 0 -1 0 842)" d="M396.5 666.5488L545.1875 666.5488L545.1875 666.0532L396.5 666.0532z" stroke="none" fill="#000000" fill-rule="nonzero" /><path id="62" transform="matrix(1 0 0 -1 0 842)" d="M396.5 646.7236L545.1875 646.7236L545.1875 646.228L396.5 646.228z" stroke="none" fill="#000000" fill-rule="nonzero" /><path id="63" transform="matrix(1 0 0 -1 0 842)" d="M396.5 666.5488L396.9956 666.5488L396.9956 646.228L396.5 646.228z" stroke="none" fill="#000000" fill-rule="nonzero" /><path id="64" transform="matrix(1 0 0 -1 0 842)" d="M544.6919 666.5488L545.1875 666.5488L545.1875 646.228L544.6919 646.228z" stroke="none" fill="#000000" fill-rule="nonzero" /><path id="65" transform="matrix(1 0 0 -1 0 842)" d="M223.0313 646.7236L396.9956 646.7236L396.9956 646.228L223.0313 646.228z" stroke="none" fill="#000000" fill-rule="nonzero" /><path id="66" transform="matrix(1 0 0 -1 0 842)" d="M223.0313 626.8984L396.9956 626.8984L396.9956 626.4028L223.0313 626.4028z" stroke="none" fill="#000000" fill-rule="nonzero" /><path id="67" transform="matrix(1 0 0 -1 0 842)" d="M223.0313 646.7236L223.5269 646.7236L223.5269 626.4028L223.0313 626.4028z" stroke="none" fill="#000000" fill-rule="nonzero" /><path id="68" transform="matrix(1 0 0 -1 0 842)" d="M396.5 646.7236L396.9956 646.7236L396.9956 626.4028L396.5 626.4028z" stroke="none" fill="#000000" fill-rule="nonzero" /><path id="69" transform="matrix(1 0 0 -1 0 842)" d="M396.5 646.7236L545.1875 646.7236L545.1875 646.228L396.5 646.228z" stroke="none" fill="#000000" fill-rule="nonzero" /><path id="70" transform="matrix(1 0 0 -1 0 842)" d="M396.5 626.8984L545.1875 626.8984L545.1875 626.4028L396.5 626.4028z" stroke="none" fill="#000000" fill-rule="nonzero" /><path id="71" transform="matrix(1 0 0 -1 0 842)" d="M396.5 646.7236L396.9956 646.7236L396.9956 626.4028L396.5 626.4028z" stroke="none" fill="#000000" fill-rule="nonzero" /><path id="72" transform="matrix(1 0 0 -1 0 842)" d="M544.6919 646.7236L545.1875 646.7236L545.1875 626.4028L544.6919 626.4028z" stroke="none" fill="#000000" fill-rule="nonzero" /><path id="73" transform="matrix(1 0 0 -1 0 842)" d="M49.5625 626.8984L136.7925 626.8984L136.7925 626.4028L49.5625 626.4028z" stroke="none" fill="#000000" fill-rule="nonzero" /><path id="74" transform="matrix(1 0 0 -1 0 842)" d="M49.5625 488.1235L136.7925 488.1235L136.7925 487.6279L49.5625 487.6279z" stroke="none" fill="#000000" fill-rule="nonzero" /><path id="75" transform="matrix(1 0 0 -1 0 842)" d="M49.5625 626.8984L50.05813 626.8984L50.05813 487.6279L49.5625 487.6279z" stroke="none" fill="#000000" fill-rule="nonzero" /><path id="76" transform="matrix(1 0 0 -1 0 842)" d="M136.2969 626.8984L136.7925 626.8984L136.7925 487.6279L136.2969 487.6279z" stroke="none" fill="#000000" fill-rule="nonzero" /><path id="77" transform="matrix(1 0 0 -1 0 842)" d="M136.2969 626.8984L223.5269 626.8984L223.5269 626.4028L136.2969 626.4028z" stroke="none" fill="#000000" fill-rule="nonzero" /><path id="78" transform="matrix(1 0 0 -1 0 842)" d="M136.2969 527.7734L223.5269 527.7734L223.5269 527.2778L136.2969 527.2778z" stroke="none" fill="#000000" fill-rule="nonzero" /><path id="79" transform="matrix(1 0 0 -1 0 842)" d="M136.2969 626.8984L136.7925 626.8984L136.7925 527.2778L136.2969 527.2778z" stroke="none" fill="#000000" fill-rule="nonzero" /><path id="80" transform="matrix(1 0 0 -1 0 842)" d="M223.0313 626.8984L223.5269 626.8984L223.5269 527.2778L223.0313 527.2778z" stroke="none" fill="#000000" fill-rule="nonzero" /><path id="81" transform="matrix(1 0 0 -1 0 842)" d="M223.0313 626.8984L396.9956 626.8984L396.9956 626.4028L223.0313 626.4028z" stroke="none" fill="#000000" fill-rule="nonzero" /><path id="82" transform="matrix(1 0 0 -1 0 842)" d="M223.0313 607.0737L396.9956 607.0737L396.9956 606.5781L223.0313 606.5781z" stroke="none" fill="#000000" fill-rule="nonzero" /><path id="83" transform="matrix(1 0 0 -1 0 842)" d="M223.0313 626.8984L223.5269 626.8984L223.5269 606.5781L223.0313 606.5781z" stroke="none" fill="#000000" fill-rule="nonzero" /><path id="84" transform="matrix(1 0 0 -1 0 842)" d="M396.5 626.8984L396.9956 626.8984L396.9956 606.5781L396.5 606.5781z" stroke="none" fill="#000000" fill-rule="nonzero" /><path id="85" transform="matrix(1 0 0 -1 0 842)" d="M396.5 626.8984L545.1875 626.8984L545.1875 626.4028L396.5 626.4028z" stroke="none" fill="#000000" fill-rule="nonzero" /><path id="86" transform="matrix(1 0 0 -1 0 842)" d="M396.5 607.0737L545.1875 607.0737L545.1875 606.5781L396.5 606.5781z" stroke="none" fill="#000000" fill-rule="nonzero" /><path id="87" transform="matrix(1 0 0 -1 0 842)" d="M396.5 626.8984L396.9956 626.8984L396.9956 606.5781L396.5 606.5781z" stroke="none" fill="#000000" fill-rule="nonzero" /><path id="88" transform="matrix(1 0 0 -1 0 842)" d="M544.6919 626.8984L545.1875 626.8984L545.1875 606.5781L544.6919 606.5781z" stroke="none" fill="#000000" fill-rule="nonzero" /><path id="89" transform="matrix(1 0 0 -1 0 842)" d="M223.0313 607.0737L396.9956 607.0737L396.9956 606.5781L223.0313 606.5781z" stroke="none" fill="#000000" fill-rule="nonzero" /><path id="90" transform="matrix(1 0 0 -1 0 842)" d="M223.0313 587.2485L396.9956 587.2485L396.9956 586.7529L223.0313 586.7529z" stroke="none" fill="#000000" fill-rule="nonzero" /><path id="91" transform="matrix(1 0 0 -1 0 842)" d="M223.0313 607.0737L223.5269 607.0737L223.5269 586.7529L223.0313 586.7529z" stroke="none" fill="#000000" fill-rule="nonzero" /><path id="92" transform="matrix(1 0 0 -1 0 842)" d="M396.5 607.0737L396.9956 607.0737L396.9956 586.7529L396.5 586.7529z" stroke="none" fill="#000000" fill-rule="nonzero" /><path id="93" transform="matrix(1 0 0 -1 0 842)" d="M396.5 607.0737L545.1875 607.0737L545.1875 606.5781L396.5 606.5781z" stroke="none" fill="#000000" fill-rule="nonzero" /><path id="94" transform="matrix(1 0 0 -1 0 842)" d="M396.5 587.2485L545.1875 587.2485L545.1875 586.7529L396.5 586.7529z" stroke="none" fill="#000000" fill-rule="nonzero" /><path id="95" transform="matrix(1 0 0 -1 0 842)" d="M396.5 607.0737L396.9956 607.0737L396.9956 586.7529L396.5 586.7529z" stroke="none" fill="#000000" fill-rule="nonzero" /><path id="96" transform="matrix(1 0 0 -1 0 842)" d="M544.6919 607.0737L545.1875 607.0737L545.1875 586.7529L544.6919 586.7529z" stroke="none" fill="#000000" fill-rule="nonzero" /><path id="97" transform="matrix(1 0 0 -1 0 842)" d="M223.0313 587.2485L396.9956 587.2485L396.9956 586.7529L223.0313 586.7529z" stroke="none" fill="#000000" fill-rule="nonzero" /><path id="98" transform="matrix(1 0 0 -1 0 842)" d="M223.0313 567.4238L396.9956 567.4238L396.9956 566.9282L223.0313 566.9282z" stroke="none" fill="#000000" fill-rule="nonzero" /><path id="99" transform="matrix(1 0 0 -1 0 842)" d="M223.0313 587.2485L223.5269 587.2485L223.5269 566.9282L223.0313 566.9282z" stroke="none" fill="#000000" fill-rule="nonzero" /><path id="100" transform="matrix(1 0 0 -1 0 842)" d="M396.5 587.2485L396.9956 587.2485L396.9956 566.9282L396.5 566.9282z" stroke="none" fill="#000000" fill-rule="nonzero" /><path id="101" transform="matrix(1 0 0 -1 0 842)" d="M396.5 587.2485L545.1875 587.2485L545.1875 586.7529L396.5 586.7529z" stroke="none" fill="#000000" fill-rule="nonzero" /><path id="102" transform="matrix(1 0 0 -1 0 842)" d="M396.5 567.4238L545.1875 567.4238L545.1875 566.9282L396.5 566.9282z" stroke="none" fill="#000000" fill-rule="nonzero" /><path id="103" transform="matrix(1 0 0 -1 0 842)" d="M396.5 587.2485L396.9956 587.2485L396.9956 566.9282L396.5 566.9282z" stroke="none" fill="#000000" fill-rule="nonzero" /><path id="104" transform="matrix(1 0 0 -1 0 842)" d="M544.6919 587.2485L545.1875 587.2485L545.1875 566.9282L544.6919 566.9282z" stroke="none" fill="#000000" fill-rule="nonzero" /><path id="105" transform="matrix(1 0 0 -1 0 842)" d="M223.0313 567.4238L396.9956 567.4238L396.9956 566.9282L223.0313 566.9282z" stroke="none" fill="#000000" fill-rule="nonzero" /><path id="106" transform="matrix(1 0 0 -1 0 842)" d="M223.0313 547.5986L396.9956 547.5986L396.9956 547.103L223.0313 547.103z" stroke="none" fill="#000000" fill-rule="nonzero" /><path id="107" transform="matrix(1 0 0 -1 0 842)" d="M223.0313 567.4238L223.5269 567.4238L223.5269 547.103L223.0313 547.103z" stroke="none" fill="#000000" fill-rule="nonzero" /><path id="108" transform="matrix(1 0 0 -1 0 842)" d="M396.5 567.4238L396.9956 567.4238L396.9956 547.103L396.5 547.103z" stroke="none" fill="#000000" fill-rule="nonzero" /><path id="109" transform="matrix(1 0 0 -1 0 842)" d="M396.5 567.4238L545.1875 567.4238L545.1875 566.9282L396.5 566.9282z" stroke="none" fill="#000000" fill-rule="nonzero" /><path id="110" transform="matrix(1 0 0 -1 0 842)" d="M396.5 547.5986L545.1875 547.5986L545.1875 547.103L396.5 547.103z" stroke="none" fill="#000000" fill-rule="nonzero" /><path id="111" transform="matrix(1 0 0 -1 0 842)" d="M396.5 567.4238L396.9956 567.4238L396.9956 547.103L396.5 547.103z" stroke="none" fill="#000000" fill-rule="nonzero" /><path id="112" transform="matrix(1 0 0 -1 0 842)" d="M544.6919 567.4238L545.1875 567.4238L545.1875 547.103L544.6919 547.103z" stroke="none" fill="#000000" fill-rule="nonzero" /><path id="113" transform="matrix(1 0 0 -1 0 842)" d="M223.0313 547.5986L396.9956 547.5986L396.9956 547.103L223.0313 547.103z" stroke="none" fill="#000000" fill-rule="nonzero" /><path id="114" transform="matrix(1 0 0 -1 0 842)" d="M223.0313 527.7734L396.9956 527.7734L396.9956 527.2778L223.0313 527.2778z" stroke="none" fill="#000000" fill-rule="nonzero" /><path id="115" transform="matrix(1 0 0 -1 0 842)" d="M223.0313 547.5986L223.5269 547.5986L223.5269 527.2778L223.0313 527.2778z" stroke="none" fill="#000000" fill-rule="nonzero" /><path id="116" transform="matrix(1 0 0 -1 0 842)" d="M396.5 547.5986L396.9956 547.5986L396.9956 527.2778L396.5 527.2778z" stroke="none" fill="#000000" fill-rule="nonzero" /><path id="117" transform="matrix(1 0 0 -1 0 842)" d="M396.5 547.5986L545.1875 547.5986L545.1875 547.103L396.5 547.103z" stroke="none" fill="#000000" fill-rule="nonzero" /><path id="118" transform="matrix(1 0 0 -1 0 842)" d="M396.5 527.7734L545.1875 527.7734L545.1875 527.2778L396.5 527.2778z" stroke="none" fill="#000000" fill-rule="nonzero" /><path id="119" transform="matrix(1 0 0 -1 0 842)" d="M396.5 547.5986L396.9956 547.5986L396.9956 527.2778L396.5 527.2778z" stroke="none" fill="#000000" fill-rule="nonzero" /><path id="120" transform="matrix(1 0 0 -1 0 842)" d="M544.6919 547.5986L545.1875 547.5986L545.1875 527.2778L544.6919 527.2778z" stroke="none" fill="#000000" fill-rule="nonzero" /><path id="121" transform="matrix(1 0 0 -1 0 842)" d="M136.2969 527.7734L223.5269 527.7734L223.5269 527.2778L136.2969 527.2778z" stroke="none" fill="#000000" fill-rule="nonzero" /><path id="122" transform="matrix(1 0 0 -1 0 842)" d="M136.2969 488.1235L223.5269 488.1235L223.5269 487.6279L136.2969 487.6279z" stroke="none" fill="#000000" fill-rule="nonzero" /><path id="123" transform="matrix(1 0 0 -1 0 842)" d="M136.2969 527.7734L136.7925 527.7734L136.7925 487.6279L136.2969 487.6279z" stroke="none" fill="#000000" fill-rule="nonzero" /><path id="124" transform="matrix(1 0 0 -1 0 842)" d="M223.0313 527.7734L223.5269 527.7734L223.5269 487.6279L223.0313 487.6279z" stroke="none" fill="#000000" fill-rule="nonzero" /><path id="125" transform="matrix(1 0 0 -1 0 842)" d="M223.0313 527.7734L396.9956 527.7734L396.9956 527.2778L223.0313 527.2778z" stroke="none" fill="#000000" fill-rule="nonzero" /><path id="126" transform="matrix(1 0 0 -1 0 842)" d="M223.0313 507.9487L396.9956 507.9487L396.9956 507.4531L223.0313 507.4531z" stroke="none" fill="#000000" fill-rule="nonzero" /><path id="127" transform="matrix(1 0 0 -1 0 842)" d="M223.0313 527.7734L223.5269 527.7734L223.5269 507.4531L223.0313 507.4531z" stroke="none" fill="#000000" fill-rule="nonzero" /><path id="128" transform="matrix(1 0 0 -1 0 842)" d="M396.5 527.7734L396.9956 527.7734L396.9956 507.4531L396.5 507.4531z" stroke="none" fill="#000000" fill-rule="nonzero" /><path id="129" transform="matrix(1 0 0 -1 0 842)" d="M396.5 527.7734L545.1875 527.7734L545.1875 527.2778L396.5 527.2778z" stroke="none" fill="#000000" fill-rule="nonzero" /><path id="130" transform="matrix(1 0 0 -1 0 842)" d="M396.5 507.9487L545.1875 507.9487L545.1875 507.4531L396.5 507.4531z" stroke="none" fill="#000000" fill-rule="nonzero" /><path id="131" transform="matrix(1 0 0 -1 0 842)" d="M396.5 527.7734L396.9956 527.7734L396.9956 507.4531L396.5 507.4531z" stroke="none" fill="#000000" fill-rule="nonzero" /><path id="132" transform="matrix(1 0 0 -1 0 842)" d="M544.6919 527.7734L545.1875 527.7734L545.1875 507.4531L544.6919 507.4531z" stroke="none" fill="#000000" fill-rule="nonzero" /><path id="133" transform="matrix(1 0 0 -1 0 842)" d="M223.0313 507.9487L396.9956 507.9487L396.9956 507.4531L223.0313 507.4531z" stroke="none" fill="#000000" fill-rule="nonzero" /><path id="134" transform="matrix(1 0 0 -1 0 842)" d="M223.0313 488.1235L396.9956 488.1235L396.9956 487.6279L223.0313 487.6279z" stroke="none" fill="#000000" fill-rule="nonzero" /><path id="135" transform="matrix(1 0 0 -1 0 842)" d="M223.0313 507.9487L223.5269 507.9487L223.5269 487.6279L223.0313 487.6279z" stroke="none" fill="#000000" fill-rule="nonzero" /><path id="136" transform="matrix(1 0 0 -1 0 842)" d="M396.5 507.9487L396.9956 507.9487L396.9956 487.6279L396.5 487.6279z" stroke="none" fill="#000000" fill-rule="nonzero" /><path id="137" transform="matrix(1 0 0 -1 0 842)" d="M396.5 507.9487L545.1875 507.9487L545.1875 507.4531L396.5 507.4531z" stroke="none" fill="#000000" fill-rule="nonzero" /><path id="138" transform="matrix(1 0 0 -1 0 842)" d="M396.5 488.1235L545.1875 488.1235L545.1875 487.6279L396.5 487.6279z" stroke="none" fill="#000000" fill-rule="nonzero" /><path id="139" transform="matrix(1 0 0 -1 0 842)" d="M396.5 507.9487L396.9956 507.9487L396.9956 487.6279L396.5 487.6279z" stroke="none" fill="#000000" fill-rule="nonzero" /><path id="140" transform="matrix(1 0 0 -1 0 842)" d="M544.6919 507.9487L545.1875 507.9487L545.1875 487.6279L544.6919 487.6279z" stroke="none" fill="#000000" fill-rule="nonzero" /><path id="141" transform="matrix(1 0 0 -1 0 842)" d="M49.5625 488.1235L223.5269 488.1235L223.5269 487.6279L49.5625 487.6279z" stroke="none" fill="#000000" fill-rule="nonzero" /><path id="142" transform="matrix(1 0 0 -1 0 842)" d="M49.5625 408.8237L223.5269 408.8237L223.5269 408.3281L49.5625 408.3281z" stroke="none" fill="#000000" fill-rule="nonzero" /><path id="143" transform="matrix(1 0 0 -1 0 842)" d="M49.5625 488.1235L50.05813 488.1235L50.05813 408.3281L49.5625 408.3281z" stroke="none" fill="#000000" fill-rule="nonzero" /><path id="144" transform="matrix(1 0 0 -1 0 842)" d="M223.0313 488.1235L223.5269 488.1235L223.5269 408.3281L223.0313 408.3281z" stroke="none" fill="#000000" fill-rule="nonzero" /><path id="145" transform="matrix(1 0 0 -1 0 842)" d="M223.0313 488.1235L396.9956 488.1235L396.9956 487.6279L223.0313 487.6279z" stroke="none" fill="#000000" fill-rule="nonzero" /><path id="146" transform="matrix(1 0 0 -1 0 842)" d="M223.0313 468.2988L396.9956 468.2988L396.9956 467.8032L223.0313 467.8032z" stroke="none" fill="#000000" fill-rule="nonzero" /><path id="147" transform="matrix(1 0 0 -1 0 842)" d="M223.0313 488.1235L223.5269 488.1235L223.5269 467.8032L223.0313 467.8032z" stroke="none" fill="#000000" fill-rule="nonzero" /><path id="148" transform="matrix(1 0 0 -1 0 842)" d="M396.5 488.1235L396.9956 488.1235L396.9956 467.8032L396.5 467.8032z" stroke="none" fill="#000000" fill-rule="nonzero" /><path id="149" transform="matrix(1 0 0 -1 0 842)" d="M396.5 488.1235L545.1875 488.1235L545.1875 487.6279L396.5 487.6279z" stroke="none" fill="#000000" fill-rule="nonzero" /><path id="150" transform="matrix(1 0 0 -1 0 842)" d="M396.5 468.2988L545.1875 468.2988L545.1875 467.8032L396.5 467.8032z" stroke="none" fill="#000000" fill-rule="nonzero" /><path id="151" transform="matrix(1 0 0 -1 0 842)" d="M396.5 488.1235L396.9956 488.1235L396.9956 467.8032L396.5 467.8032z" stroke="none" fill="#000000" fill-rule="nonzero" /><path id="152" transform="matrix(1 0 0 -1 0 842)" d="M544.6919 488.1235L545.1875 488.1235L545.1875 467.8032L544.6919 467.8032z" stroke="none" fill="#000000" fill-rule="nonzero" /><path id="153" transform="matrix(1 0 0 -1 0 842)" d="M223.0313 468.2988L396.9956 468.2988L396.9956 467.8032L223.0313 467.8032z" stroke="none" fill="#000000" fill-rule="nonzero" /><path id="154" transform="matrix(1 0 0 -1 0 842)" d="M223.0313 448.4736L396.9956 448.4736L396.9956 447.978L223.0313 447.978z" stroke="none" fill="#000000" fill-rule="nonzero" /><path id="155" transform="matrix(1 0 0 -1 0 842)" d="M223.0313 468.2988L223.5269 468.2988L223.5269 447.978L223.0313 447.978z" stroke="none" fill="#000000" fill-rule="nonzero" /><path id="156" transform="matrix(1 0 0 -1 0 842)" d="M396.5 468.2988L396.9956 468.2988L396.9956 447.978L396.5 447.978z" stroke="none" fill="#000000" fill-rule="nonzero" /><path id="157" transform="matrix(1 0 0 -1 0 842)" d="M396.5 468.2988L545.1875 468.2988L545.1875 467.8032L396.5 467.8032z" stroke="none" fill="#000000" fill-rule="nonzero" /><path id="158" transform="matrix(1 0 0 -1 0 842)" d="M396.5 448.4736L545.1875 448.4736L545.1875 447.978L396.5 447.978z" stroke="none" fill="#000000" fill-rule="nonzero" /><path id="159" transform="matrix(1 0 0 -1 0 842)" d="M396.5 468.2988L396.9956 468.2988L396.9956 447.978L396.5 447.978z" stroke="none" fill="#000000" fill-rule="nonzero" /><path id="160" transform="matrix(1 0 0 -1 0 842)" d="M544.6919 468.2988L545.1875 468.2988L545.1875 447.978L544.6919 447.978z" stroke="none" fill="#000000" fill-rule="nonzero" /><path id="161" transform="matrix(1 0 0 -1 0 842)" d="M223.0313 448.4736L396.9956 448.4736L396.9956 447.978L223.0313 447.978z" stroke="none" fill="#000000" fill-rule="nonzero" /><path id="162" transform="matrix(1 0 0 -1 0 842)" d="M223.0313 428.6484L396.9956 428.6484L396.9956 428.1528L223.0313 428.1528z" stroke="none" fill="#000000" fill-rule="nonzero" /><path id="163" transform="matrix(1 0 0 -1 0 842)" d="M223.0313 448.4736L223.5269 448.4736L223.5269 428.1528L223.0313 428.1528z" stroke="none" fill="#000000" fill-rule="nonzero" /><path id="164" transform="matrix(1 0 0 -1 0 842)" d="M396.5 448.4736L396.9956 448.4736L396.9956 428.1528L396.5 428.1528z" stroke="none" fill="#000000" fill-rule="nonzero" /><path id="165" transform="matrix(1 0 0 -1 0 842)" d="M396.5 448.4736L545.1875 448.4736L545.1875 447.978L396.5 447.978z" stroke="none" fill="#000000" fill-rule="nonzero" /><path id="166" transform="matrix(1 0 0 -1 0 842)" d="M396.5 428.6484L545.1875 428.6484L545.1875 428.1528L396.5 428.1528z" stroke="none" fill="#000000" fill-rule="nonzero" /><path id="167" transform="matrix(1 0 0 -1 0 842)" d="M396.5 448.4736L396.9956 448.4736L396.9956 428.1528L396.5 428.1528z" stroke="none" fill="#000000" fill-rule="nonzero" /><path id="168" transform="matrix(1 0 0 -1 0 842)" d="M544.6919 448.4736L545.1875 448.4736L545.1875 428.1528L544.6919 428.1528z" stroke="none" fill="#000000" fill-rule="nonzero" /><path id="169" transform="matrix(1 0 0 -1 0 842)" d="M223.0313 428.6484L396.9956 428.6484L396.9956 428.1528L223.0313 428.1528z" stroke="none" fill="#000000" fill-rule="nonzero" /><path id="170" transform="matrix(1 0 0 -1 0 842)" d="M223.0313 408.8237L396.9956 408.8237L396.9956 408.3281L223.0313 408.3281z" stroke="none" fill="#000000" fill-rule="nonzero" /><path id="171" transform="matrix(1 0 0 -1 0 842)" d="M223.0313 428.6484L223.5269 428.6484L223.5269 408.3281L223.0313 408.3281z" stroke="none" fill="#000000" fill-rule="nonzero" /><path id="172" transform="matrix(1 0 0 -1 0 842)" d="M396.5 428.6484L396.9956 428.6484L396.9956 408.3281L396.5 408.3281z" stroke="none" fill="#000000" fill-rule="nonzero" /><path id="173" transform="matrix(1 0 0 -1 0 842)" d="M396.5 428.6484L545.1875 428.6484L545.1875 428.1528L396.5 428.1528z" stroke="none" fill="#000000" fill-rule="nonzero" /><path id="174" transform="matrix(1 0 0 -1 0 842)" d="M396.5 408.8237L545.1875 408.8237L545.1875 408.3281L396.5 408.3281z" stroke="none" fill="#000000" fill-rule="nonzero" /><path id="175" transform="matrix(1 0 0 -1 0 842)" d="M396.5 428.6484L396.9956 428.6484L396.9956 408.3281L396.5 408.3281z" stroke="none" fill="#000000" fill-rule="nonzero" /><path id="176" transform="matrix(1 0 0 -1 0 842)" d="M544.6919 428.6484L545.1875 428.6484L545.1875 408.3281L544.6919 408.3281z" stroke="none" fill="#000000" fill-rule="nonzero" /><path id="177" transform="matrix(1 0 0 -1 0 842)" d="M49.5625 408.8237L223.5269 408.8237L223.5269 408.3281L49.5625 408.3281z" stroke="none" fill="#000000" fill-rule="nonzero" /><path id="178" transform="matrix(1 0 0 -1 0 842)" d="M49.5625 309.6987L223.5269 309.6987L223.5269 309.2031L49.5625 309.2031z" stroke="none" fill="#000000" fill-rule="nonzero" /><path id="179" transform="matrix(1 0 0 -1 0 842)" d="M49.5625 408.8237L50.05813 408.8237L50.05813 309.2031L49.5625 309.2031z" stroke="none" fill="#000000" fill-rule="nonzero" /><path id="180" transform="matrix(1 0 0 -1 0 842)" d="M223.0313 408.8237L223.5269 408.8237L223.5269 309.2031L223.0313 309.2031z" stroke="none" fill="#000000" fill-rule="nonzero" /><path id="181" transform="matrix(1 0 0 -1 0 842)" d="M223.0313 408.8237L396.9956 408.8237L396.9956 408.3281L223.0313 408.3281z" stroke="none" fill="#000000" fill-rule="nonzero" /><path id="182" transform="matrix(1 0 0 -1 0 842)" d="M223.0313 388.9985L396.9956 388.9985L396.9956 388.5029L223.0313 388.5029z" stroke="none" fill="#000000" fill-rule="nonzero" /><path id="183" transform="matrix(1 0 0 -1 0 842)" d="M223.0313 408.8237L223.5269 408.8237L223.5269 388.5029L223.0313 388.5029z" stroke="none" fill="#000000" fill-rule="nonzero" /><path id="184" transform="matrix(1 0 0 -1 0 842)" d="M396.5 408.8237L396.9956 408.8237L396.9956 388.5029L396.5 388.5029z" stroke="none" fill="#000000" fill-rule="nonzero" /><path id="185" transform="matrix(1 0 0 -1 0 842)" d="M396.5 408.8237L545.1875 408.8237L545.1875 408.3281L396.5 408.3281z" stroke="none" fill="#000000" fill-rule="nonzero" /><path id="186" transform="matrix(1 0 0 -1 0 842)" d="M396.5 388.9985L545.1875 388.9985L545.1875 388.5029L396.5 388.5029z" stroke="none" fill="#000000" fill-rule="nonzero" /><path id="187" transform="matrix(1 0 0 -1 0 842)" d="M396.5 408.8237L396.9956 408.8237L396.9956 388.5029L396.5 388.5029z" stroke="none" fill="#000000" fill-rule="nonzero" /><path id="188" transform="matrix(1 0 0 -1 0 842)" d="M544.6919 408.8237L545.1875 408.8237L545.1875 388.5029L544.6919 388.5029z" stroke="none" fill="#000000" fill-rule="nonzero" /><path id="189" transform="matrix(1 0 0 -1 0 842)" d="M223.0313 388.9985L396.9956 388.9985L396.9956 388.5029L223.0313 388.5029z" stroke="none" fill="#000000" fill-rule="nonzero" /><path id="190" transform="matrix(1 0 0 -1 0 842)" d="M223.0313 369.1738L396.9956 369.1738L396.9956 368.6782L223.0313 368.6782z" stroke="none" fill="#000000" fill-rule="nonzero" /><path id="191" transform="matrix(1 0 0 -1 0 842)" d="M223.0313 388.9985L223.5269 388.9985L223.5269 368.6782L223.0313 368.6782z" stroke="none" fill="#000000" fill-rule="nonzero" /><path id="192" transform="matrix(1 0 0 -1 0 842)" d="M396.5 388.9985L396.9956 388.9985L396.9956 368.6782L396.5 368.6782z" stroke="none" fill="#000000" fill-rule="nonzero" /><path id="193" transform="matrix(1 0 0 -1 0 842)" d="M396.5 388.9985L545.1875 388.9985L545.1875 388.5029L396.5 388.5029z" stroke="none" fill="#000000" fill-rule="nonzero" /><path id="194" transform="matrix(1 0 0 -1 0 842)" d="M396.5 369.1738L545.1875 369.1738L545.1875 368.6782L396.5 368.6782z" stroke="none" fill="#000000" fill-rule="nonzero" /><path id="195" transform="matrix(1 0 0 -1 0 842)" d="M396.5 388.9985L396.9956 388.9985L396.9956 368.6782L396.5 368.6782z" stroke="none" fill="#000000" fill-rule="nonzero" /><path id="196" transform="matrix(1 0 0 -1 0 842)" d="M544.6919 388.9985L545.1875 388.9985L545.1875 368.6782L544.6919 368.6782z" stroke="none" fill="#000000" fill-rule="nonzero" /><path id="197" transform="matrix(1 0 0 -1 0 842)" d="M223.0313 369.1738L396.9956 369.1738L396.9956 368.6782L223.0313 368.6782z" stroke="none" fill="#000000" fill-rule="nonzero" /><path id="198" transform="matrix(1 0 0 -1 0 842)" d="M223.0313 349.3486L396.9956 349.3486L396.9956 348.853L223.0313 348.853z" stroke="none" fill="#000000" fill-rule="nonzero" /><path id="199" transform="matrix(1 0 0 -1 0 842)" d="M223.0313 369.1738L223.5269 369.1738L223.5269 348.853L223.0313 348.853z" stroke="none" fill="#000000" fill-rule="nonzero" /><path id="200" transform="matrix(1 0 0 -1 0 842)" d="M396.5 369.1738L396.9956 369.1738L396.9956 348.853L396.5 348.853z" stroke="none" fill="#000000" fill-rule="nonzero" /><path id="201" transform="matrix(1 0 0 -1 0 842)" d="M396.5 369.1738L545.1875 369.1738L545.1875 368.6782L396.5 368.6782z" stroke="none" fill="#000000" fill-rule="nonzero" /><path id="202" transform="matrix(1 0 0 -1 0 842)" d="M396.5 349.3486L545.1875 349.3486L545.1875 348.853L396.5 348.853z" stroke="none" fill="#000000" fill-rule="nonzero" /><path id="203" transform="matrix(1 0 0 -1 0 842)" d="M396.5 369.1738L396.9956 369.1738L396.9956 348.853L396.5 348.853z" stroke="none" fill="#000000" fill-rule="nonzero" /><path id="204" transform="matrix(1 0 0 -1 0 842)" d="M544.6919 369.1738L545.1875 369.1738L545.1875 348.853L544.6919 348.853z" stroke="none" fill="#000000" fill-rule="nonzero" /><path id="205" transform="matrix(1 0 0 -1 0 842)" d="M223.0313 349.3486L396.9956 349.3486L396.9956 348.853L223.0313 348.853z" stroke="none" fill="#000000" fill-rule="nonzero" /><path id="206" transform="matrix(1 0 0 -1 0 842)" d="M223.0313 329.5234L396.9956 329.5234L396.9956 329.0278L223.0313 329.0278z" stroke="none" fill="#000000" fill-rule="nonzero" /><path id="207" transform="matrix(1 0 0 -1 0 842)" d="M223.0313 349.3486L223.5269 349.3486L223.5269 329.0278L223.0313 329.0278z" stroke="none" fill="#000000" fill-rule="nonzero" /><path id="208" transform="matrix(1 0 0 -1 0 842)" d="M396.5 349.3486L396.9956 349.3486L396.9956 329.0278L396.5 329.0278z" stroke="none" fill="#000000" fill-rule="nonzero" /><path id="209" transform="matrix(1 0 0 -1 0 842)" d="M396.5 349.3486L545.1875 349.3486L545.1875 348.853L396.5 348.853z" stroke="none" fill="#000000" fill-rule="nonzero" /><path id="210" transform="matrix(1 0 0 -1 0 842)" d="M396.5 329.5234L545.1875 329.5234L545.1875 329.0278L396.5 329.0278z" stroke="none" fill="#000000" fill-rule="nonzero" /><path id="211" transform="matrix(1 0 0 -1 0 842)" d="M396.5 349.3486L396.9956 349.3486L396.9956 329.0278L396.5 329.0278z" stroke="none" fill="#000000" fill-rule="nonzero" /><path id="212" transform="matrix(1 0 0 -1 0 842)" d="M544.6919 349.3486L545.1875 349.3486L545.1875 329.0278L544.6919 329.0278z" stroke="none" fill="#000000" fill-rule="nonzero" /><path id="213" transform="matrix(1 0 0 -1 0 842)" d="M223.0313 329.5234L396.9956 329.5234L396.9956 329.0278L223.0313 329.0278z" stroke="none" fill="#000000" fill-rule="nonzero" /><path id="214" transform="matrix(1 0 0 -1 0 842)" d="M223.0313 309.6987L396.9956 309.6987L396.9956 309.2031L223.0313 309.2031z" stroke="none" fill="#000000" fill-rule="nonzero" /><path id="215" transform="matrix(1 0 0 -1 0 842)" d="M223.0313 329.5234L223.5269 329.5234L223.5269 309.2031L223.0313 309.2031z" stroke="none" fill="#000000" fill-rule="nonzero" /><path id="216" transform="matrix(1 0 0 -1 0 842)" d="M396.5 329.5234L396.9956 329.5234L396.9956 309.2031L396.5 309.2031z" stroke="none" fill="#000000" fill-rule="nonzero" /><path id="217" transform="matrix(1 0 0 -1 0 842)" d="M396.5 329.5234L545.1875 329.5234L545.1875 329.0278L396.5 329.0278z" stroke="none" fill="#000000" fill-rule="nonzero" /><path id="218" transform="matrix(1 0 0 -1 0 842)" d="M396.5 309.6987L545.1875 309.6987L545.1875 309.2031L396.5 309.2031z" stroke="none" fill="#000000" fill-rule="nonzero" /><path id="219" transform="matrix(1 0 0 -1 0 842)" d="M396.5 329.5234L396.9956 329.5234L396.9956 309.2031L396.5 309.2031z" stroke="none" fill="#000000" fill-rule="nonzero" /><path id="220" transform="matrix(1 0 0 -1 0 842)" d="M544.6919 329.5234L545.1875 329.5234L545.1875 309.2031L544.6919 309.2031z" stroke="none" fill="#000000" fill-rule="nonzero" /><path id="221" transform="matrix(1 0 0 -1 0 842)" d="M49.5625 309.6987L223.5269 309.6987L223.5269 309.2031L49.5625 309.2031z" stroke="none" fill="#000000" fill-rule="nonzero" /><path id="222" transform="matrix(1 0 0 -1 0 842)" d="M49.5625 131.2734L223.5269 131.2734L223.5269 130.7778L49.5625 130.7778z" stroke="none" fill="#000000" fill-rule="nonzero" /><path id="223" transform="matrix(1 0 0 -1 0 842)" d="M49.5625 309.6987L50.05813 309.6987L50.05813 130.7778L49.5625 130.7778z" stroke="none" fill="#000000" fill-rule="nonzero" /><path id="224" transform="matrix(1 0 0 -1 0 842)" d="M223.0313 309.6987L223.5269 309.6987L223.5269 130.7778L223.0313 130.7778z" stroke="none" fill="#000000" fill-rule="nonzero" /><path id="225" transform="matrix(1 0 0 -1 0 842)" d="M223.0313 309.6987L396.9956 309.6987L396.9956 309.2031L223.0313 309.2031z" stroke="none" fill="#000000" fill-rule="nonzero" /><path id="226" transform="matrix(1 0 0 -1 0 842)" d="M223.0313 289.8735L396.9956 289.8735L396.9956 289.3779L223.0313 289.3779z" stroke="none" fill="#000000" fill-rule="nonzero" /><path id="227" transform="matrix(1 0 0 -1 0 842)" d="M223.0313 309.6987L223.5269 309.6987L223.5269 289.3779L223.0313 289.3779z" stroke="none" fill="#000000" fill-rule="nonzero" /><path id="228" transform="matrix(1 0 0 -1 0 842)" d="M396.5 309.6987L396.9956 309.6987L396.9956 289.3779L396.5 289.3779z" stroke="none" fill="#000000" fill-rule="nonzero" /><path id="229" transform="matrix(1 0 0 -1 0 842)" d="M396.5 309.6987L545.1875 309.6987L545.1875 309.2031L396.5 309.2031z" stroke="none" fill="#000000" fill-rule="nonzero" /><path id="230" transform="matrix(1 0 0 -1 0 842)" d="M396.5 289.8735L545.1875 289.8735L545.1875 289.3779L396.5 289.3779z" stroke="none" fill="#000000" fill-rule="nonzero" /><path id="231" transform="matrix(1 0 0 -1 0 842)" d="M396.5 309.6987L396.9956 309.6987L396.9956 289.3779L396.5 289.3779z" stroke="none" fill="#000000" fill-rule="nonzero" /><path id="232" transform="matrix(1 0 0 -1 0 842)" d="M544.6919 309.6987L545.1875 309.6987L545.1875 289.3779L544.6919 289.3779z" stroke="none" fill="#000000" fill-rule="nonzero" /><path id="233" transform="matrix(1 0 0 -1 0 842)" d="M223.0313 289.8735L396.9956 289.8735L396.9956 289.3779L223.0313 289.3779z" stroke="none" fill="#000000" fill-rule="nonzero" /><path id="234" transform="matrix(1 0 0 -1 0 842)" d="M223.0313 270.0488L396.9956 270.0488L396.9956 269.5532L223.0313 269.5532z" stroke="none" fill="#000000" fill-rule="nonzero" /><path id="235" transform="matrix(1 0 0 -1 0 842)" d="M223.0313 289.8735L223.5269 289.8735L223.5269 269.5532L223.0313 269.5532z" stroke="none" fill="#000000" fill-rule="nonzero" /><path id="236" transform="matrix(1 0 0 -1 0 842)" d="M396.5 289.8735L396.9956 289.8735L396.9956 269.5532L396.5 269.5532z" stroke="none" fill="#000000" fill-rule="nonzero" /><path id="237" transform="matrix(1 0 0 -1 0 842)" d="M396.5 289.8735L545.1875 289.8735L545.1875 289.3779L396.5 289.3779z" stroke="none" fill="#000000" fill-rule="nonzero" /><path id="238" transform="matrix(1 0 0 -1 0 842)" d="M396.5 270.0488L545.1875 270.0488L545.1875 269.5532L396.5 269.5532z" stroke="none" fill="#000000" fill-rule="nonzero" /><path id="239" transform="matrix(1 0 0 -1 0 842)" d="M396.5 289.8735L396.9956 289.8735L396.9956 269.5532L396.5 269.5532z" stroke="none" fill="#000000" fill-rule="nonzero" /><path id="240" transform="matrix(1 0 0 -1 0 842)" d="M544.6919 289.8735L545.1875 289.8735L545.1875 269.5532L544.6919 269.5532z" stroke="none" fill="#000000" fill-rule="nonzero" /><path id="241" transform="matrix(1 0 0 -1 0 842)" d="M223.0313 270.0488L396.9956 270.0488L396.9956 269.5532L223.0313 269.5532z" stroke="none" fill="#000000" fill-rule="nonzero" /><path id="242" transform="matrix(1 0 0 -1 0 842)" d="M223.0313 250.2236L396.9956 250.2236L396.9956 249.728L223.0313 249.728z" stroke="none" fill="#000000" fill-rule="nonzero" /><path id="243" transform="matrix(1 0 0 -1 0 842)" d="M223.0313 270.0488L223.5269 270.0488L223.5269 249.728L223.0313 249.728z" stroke="none" fill="#000000" fill-rule="nonzero" /><path id="244" transform="matrix(1 0 0 -1 0 842)" d="M396.5 270.0488L396.9956 270.0488L396.9956 249.728L396.5 249.728z" stroke="none" fill="#000000" fill-rule="nonzero" /><path id="245" transform="matrix(1 0 0 -1 0 842)" d="M396.5 270.0488L545.1875 270.0488L545.1875 269.5532L396.5 269.5532z" stroke="none" fill="#000000" fill-rule="nonzero" /><path id="246" transform="matrix(1 0 0 -1 0 842)" d="M396.5 250.2236L545.1875 250.2236L545.1875 249.728L396.5 249.728z" stroke="none" fill="#000000" fill-rule="nonzero" /><path id="247" transform="matrix(1 0 0 -1 0 842)" d="M396.5 270.0488L396.9956 270.0488L396.9956 249.728L396.5 249.728z" stroke="none" fill="#000000" fill-rule="nonzero" /><path id="248" transform="matrix(1 0 0 -1 0 842)" d="M544.6919 270.0488L545.1875 270.0488L545.1875 249.728L544.6919 249.728z" stroke="none" fill="#000000" fill-rule="nonzero" /><path id="249" transform="matrix(1 0 0 -1 0 842)" d="M223.0313 250.2236L396.9956 250.2236L396.9956 249.728L223.0313 249.728z" stroke="none" fill="#000000" fill-rule="nonzero" /><path id="250" transform="matrix(1 0 0 -1 0 842)" d="M223.0313 230.3984L396.9956 230.3984L396.9956 229.9028L223.0313 229.9028z" stroke="none" fill="#000000" fill-rule="nonzero" /><path id="251" transform="matrix(1 0 0 -1 0 842)" d="M223.0313 250.2236L223.5269 250.2236L223.5269 229.9028L223.0313 229.9028z" stroke="none" fill="#000000" fill-rule="nonzero" /><path id="252" transform="matrix(1 0 0 -1 0 842)" d="M396.5 250.2236L396.9956 250.2236L396.9956 229.9028L396.5 229.9028z" stroke="none" fill="#000000" fill-rule="nonzero" /><path id="253" transform="matrix(1 0 0 -1 0 842)" d="M396.5 250.2236L545.1875 250.2236L545.1875 249.728L396.5 249.728z" stroke="none" fill="#000000" fill-rule="nonzero" /><path id="254" transform="matrix(1 0 0 -1 0 842)" d="M396.5 230.3984L545.1875 230.3984L545.1875 229.9028L396.5 229.9028z" stroke="none" fill="#000000" fill-rule="nonzero" /><path id="255" transform="matrix(1 0 0 -1 0 842)" d="M396.5 250.2236L396.9956 250.2236L396.9956 229.9028L396.5 229.9028z" stroke="none" fill="#000000" fill-rule="nonzero" /><path id="256" transform="matrix(1 0 0 -1 0 842)" d="M544.6919 250.2236L545.1875 250.2236L545.1875 229.9028L544.6919 229.9028z" stroke="none" fill="#000000" fill-rule="nonzero" /><path id="257" transform="matrix(1 0 0 -1 0 842)" d="M223.0313 230.3984L396.9956 230.3984L396.9956 229.9028L223.0313 229.9028z" stroke="none" fill="#000000" fill-rule="nonzero" /><path id="258" transform="matrix(1 0 0 -1 0 842)" d="M223.0313 210.5737L396.9956 210.5737L396.9956 210.0781L223.0313 210.0781z" stroke="none" fill="#000000" fill-rule="nonzero" /><path id="259" transform="matrix(1 0 0 -1 0 842)" d="M223.0313 230.3984L223.5269 230.3984L223.5269 210.0781L223.0313 210.0781z" stroke="none" fill="#000000" fill-rule="nonzero" /><path id="260" transform="matrix(1 0 0 -1 0 842)" d="M396.5 230.3984L396.9956 230.3984L396.9956 210.0781L396.5 210.0781z" stroke="none" fill="#000000" fill-rule="nonzero" /><path id="261" transform="matrix(1 0 0 -1 0 842)" d="M396.5 230.3984L545.1875 230.3984L545.1875 229.9028L396.5 229.9028z" stroke="none" fill="#000000" fill-rule="nonzero" /><path id="262" transform="matrix(1 0 0 -1 0 842)" d="M396.5 210.5737L545.1875 210.5737L545.1875 210.0781L396.5 210.0781z" stroke="none" fill="#000000" fill-rule="nonzero" /><path id="263" transform="matrix(1 0 0 -1 0 842)" d="M396.5 230.3984L396.9956 230.3984L396.9956 210.0781L396.5 210.0781z" stroke="none" fill="#000000" fill-rule="nonzero" /><path id="264" transform="matrix(1 0 0 -1 0 842)" d="M544.6919 230.3984L545.1875 230.3984L545.1875 210.0781L544.6919 210.0781z" stroke="none" fill="#000000" fill-rule="nonzero" /><path id="265" transform="matrix(1 0 0 -1 0 842)" d="M223.0313 210.5737L396.9956 210.5737L396.9956 210.0781L223.0313 210.0781z" stroke="none" fill="#000000" fill-rule="nonzero" /><path id="266" transform="matrix(1 0 0 -1 0 842)" d="M223.0313 190.7485L396.9956 190.7485L396.9956 190.2529L223.0313 190.2529z" stroke="none" fill="#000000" fill-rule="nonzero" /><path id="267" transform="matrix(1 0 0 -1 0 842)" d="M223.0313 210.5737L223.5269 210.5737L223.5269 190.2529L223.0313 190.2529z" stroke="none" fill="#000000" fill-rule="nonzero" /><path id="268" transform="matrix(1 0 0 -1 0 842)" d="M396.5 210.5737L396.9956 210.5737L396.9956 190.2529L396.5 190.2529z" stroke="none" fill="#000000" fill-rule="nonzero" /><path id="269" transform="matrix(1 0 0 -1 0 842)" d="M396.5 210.5737L545.1875 210.5737L545.1875 210.0781L396.5 210.0781z" stroke="none" fill="#000000" fill-rule="nonzero" /><path id="270" transform="matrix(1 0 0 -1 0 842)" d="M396.5 190.7485L545.1875 190.7485L545.1875 190.2529L396.5 190.2529z" stroke="none" fill="#000000" fill-rule="nonzero" /><path id="271" transform="matrix(1 0 0 -1 0 842)" d="M396.5 210.5737L396.9956 210.5737L396.9956 190.2529L396.5 190.2529z" stroke="none" fill="#000000" fill-rule="nonzero" /><path id="272" transform="matrix(1 0 0 -1 0 842)" d="M544.6919 210.5737L545.1875 210.5737L545.1875 190.2529L544.6919 190.2529z" stroke="none" fill="#000000" fill-rule="nonzero" /><path id="273" transform="matrix(1 0 0 -1 0 842)" d="M223.0313 190.7485L396.9956 190.7485L396.9956 190.2529L223.0313 190.2529z" stroke="none" fill="#000000" fill-rule="nonzero" /><path id="274" transform="matrix(1 0 0 -1 0 842)" d="M223.0313 170.9238L396.9956 170.9238L396.9956 170.4282L223.0313 170.4282z" stroke="none" fill="#000000" fill-rule="nonzero" /><path id="275" transform="matrix(1 0 0 -1 0 842)" d="M223.0313 190.7485L223.5269 190.7485L223.5269 170.4282L223.0313 170.4282z" stroke="none" fill="#000000" fill-rule="nonzero" /><path id="276" transform="matrix(1 0 0 -1 0 842)" d="M396.5 190.7485L396.9956 190.7485L396.9956 170.4282L396.5 170.4282z" stroke="none" fill="#000000" fill-rule="nonzero" /><path id="277" transform="matrix(1 0 0 -1 0 842)" d="M396.5 190.7485L545.1875 190.7485L545.1875 190.2529L396.5 190.2529z" stroke="none" fill="#000000" fill-rule="nonzero" /><path id="278" transform="matrix(1 0 0 -1 0 842)" d="M396.5 170.9238L545.1875 170.9238L545.1875 170.4282L396.5 170.4282z" stroke="none" fill="#000000" fill-rule="nonzero" /><path id="279" transform="matrix(1 0 0 -1 0 842)" d="M396.5 190.7485L396.9956 190.7485L396.9956 170.4282L396.5 170.4282z" stroke="none" fill="#000000" fill-rule="nonzero" /><path id="280" transform="matrix(1 0 0 -1 0 842)" d="M544.6919 190.7485L545.1875 190.7485L545.1875 170.4282L544.6919 170.4282z" stroke="none" fill="#000000" fill-rule="nonzero" /><path id="281" transform="matrix(1 0 0 -1 0 842)" d="M223.0313 170.9238L396.9956 170.9238L396.9956 170.4282L223.0313 170.4282z" stroke="none" fill="#000000" fill-rule="nonzero" /><path id="282" transform="matrix(1 0 0 -1 0 842)" d="M223.0313 151.0986L396.9956 151.0986L396.9956 150.603L223.0313 150.603z" stroke="none" fill="#000000" fill-rule="nonzero" /><path id="283" transform="matrix(1 0 0 -1 0 842)" d="M223.0313 170.9238L223.5269 170.9238L223.5269 150.603L223.0313 150.603z" stroke="none" fill="#000000" fill-rule="nonzero" /><path id="284" transform="matrix(1 0 0 -1 0 842)" d="M396.5 170.9238L396.9956 170.9238L396.9956 150.603L396.5 150.603z" stroke="none" fill="#000000" fill-rule="nonzero" /><path id="285" transform="matrix(1 0 0 -1 0 842)" d="M396.5 170.9238L545.1875 170.9238L545.1875 170.4282L396.5 170.4282z" stroke="none" fill="#000000" fill-rule="nonzero" /><path id="286" transform="matrix(1 0 0 -1 0 842)" d="M396.5 151.0986L545.1875 151.0986L545.1875 150.603L396.5 150.603z" stroke="none" fill="#000000" fill-rule="nonzero" /><path id="287" transform="matrix(1 0 0 -1 0 842)" d="M396.5 170.9238L396.9956 170.9238L396.9956 150.603L396.5 150.603z" stroke="none" fill="#000000" fill-rule="nonzero" /><path id="288" transform="matrix(1 0 0 -1 0 842)" d="M544.6919 170.9238L545.1875 170.9238L545.1875 150.603L544.6919 150.603z" stroke="none" fill="#000000" fill-rule="nonzero" /><path id="289" transform="matrix(1 0 0 -1 0 842)" d="M223.0313 151.0986L396.9956 151.0986L396.9956 150.603L223.0313 150.603z" stroke="none" fill="#000000" fill-rule="nonzero" /><path id="290" transform="matrix(1 0 0 -1 0 842)" d="M223.0313 131.2734L396.9956 131.2734L396.9956 130.7778L223.0313 130.7778z" stroke="none" fill="#000000" fill-rule="nonzero" /><path id="291" transform="matrix(1 0 0 -1 0 842)" d="M223.0313 151.0986L223.5269 151.0986L223.5269 130.7778L223.0313 130.7778z" stroke="none" fill="#000000" fill-rule="nonzero" /><path id="292" transform="matrix(1 0 0 -1 0 842)" d="M396.5 151.0986L396.9956 151.0986L396.9956 130.7778L396.5 130.7778z" stroke="none" fill="#000000" fill-rule="nonzero" /><path id="293" transform="matrix(1 0 0 -1 0 842)" d="M396.5 151.0986L545.1875 151.0986L545.1875 150.603L396.5 150.603z" stroke="none" fill="#000000" fill-rule="nonzero" /><path id="294" transform="matrix(1 0 0 -1 0 842)" d="M396.5 131.2734L545.1875 131.2734L545.1875 130.7778L396.5 130.7778z" stroke="none" fill="#000000" fill-rule="nonzero" /><path id="295" transform="matrix(1 0 0 -1 0 842)" d="M396.5 151.0986L396.9956 151.0986L396.9956 130.7778L396.5 130.7778z" stroke="none" fill="#000000" fill-rule="nonzero" /><path id="296" transform="matrix(1 0 0 -1 0 842)" d="M544.6919 151.0986L545.1875 151.0986L545.1875 130.7778L544.6919 130.7778z" stroke="none" fill="#000000" fill-rule="nonzero" /><path id="297" transform="matrix(1 0 0 -1 0 842)" d="M49.5625 131.2734L223.5269 131.2734L223.5269 130.7778L49.5625 130.7778z" stroke="none" fill="#000000" fill-rule="nonzero" /><path id="298" transform="matrix(1 0 0 -1 0 842)" d="M49.5625 91.62354L223.5269 91.62354L223.5269 91.12793L49.5625 91.12793z" stroke="none" fill="#000000" fill-rule="nonzero" /><path id="299" transform="matrix(1 0 0 -1 0 842)" d="M49.5625 131.2734L50.05813 131.2734L50.05813 91.12793L49.5625 91.12793z" stroke="none" fill="#000000" fill-rule="nonzero" /><path id="300" transform="matrix(1 0 0 -1 0 842)" d="M223.0313 131.2734L223.5269 131.2734L223.5269 91.12793L223.0313 91.12793z" stroke="none" fill="#000000" fill-rule="nonzero" /><path id="301" transform="matrix(1 0 0 -1 0 842)" d="M223.0313 131.2734L396.9956 131.2734L396.9956 130.7778L223.0313 130.7778z" stroke="none" fill="#000000" fill-rule="nonzero" /><path id="302" transform="matrix(1 0 0 -1 0 842)" d="M223.0313 111.4487L396.9956 111.4487L396.9956 110.9531L223.0313 110.9531z" stroke="none" fill="#000000" fill-rule="nonzero" /><path id="303" transform="matrix(1 0 0 -1 0 842)" d="M223.0313 131.2734L223.5269 131.2734L223.5269 110.9531L223.0313 110.9531z" stroke="none" fill="#000000" fill-rule="nonzero" /><path id="304" transform="matrix(1 0 0 -1 0 842)" d="M396.5 131.2734L396.9956 131.2734L396.9956 110.9531L396.5 110.9531z" stroke="none" fill="#000000" fill-rule="nonzero" /><path id="305" transform="matrix(1 0 0 -1 0 842)" d="M396.5 131.2734L545.1875 131.2734L545.1875 130.7778L396.5 130.7778z" stroke="none" fill="#000000" fill-rule="nonzero" /><path id="306" transform="matrix(1 0 0 -1 0 842)" d="M396.5 111.4487L545.1875 111.4487L545.1875 110.9531L396.5 110.9531z" stroke="none" fill="#000000" fill-rule="nonzero" /><path id="307" transform="matrix(1 0 0 -1 0 842)" d="M396.5 131.2734L396.9956 131.2734L396.9956 110.9531L396.5 110.9531z" stroke="none" fill="#000000" fill-rule="nonzero" /><path id="308" transform="matrix(1 0 0 -1 0 842)" d="M544.6919 131.2734L545.1875 131.2734L545.1875 110.9531L544.6919 110.9531z" stroke="none" fill="#000000" fill-rule="nonzero" /><path id="309" transform="matrix(1 0 0 -1 0 842)" d="M223.0313 111.4487L396.9956 111.4487L396.9956 110.9531L223.0313 110.9531z" stroke="none" fill="#000000" fill-rule="nonzero" /><path id="310" transform="matrix(1 0 0 -1 0 842)" d="M223.0313 91.62354L396.9956 91.62354L396.9956 91.12793L223.0313 91.12793z" stroke="none" fill="#000000" fill-rule="nonzero" /><path id="311" transform="matrix(1 0 0 -1 0 842)" d="M223.0313 111.4487L223.5269 111.4487L223.5269 91.12793L223.0313 91.12793z" stroke="none" fill="#000000" fill-rule="nonzero" /><path id="312" transform="matrix(1 0 0 -1 0 842)" d="M396.5 111.4487L396.9956 111.4487L396.9956 91.12793L396.5 91.12793z" stroke="none" fill="#000000" fill-rule="nonzero" /><path id="313" transform="matrix(1 0 0 -1 0 842)" d="M396.5 111.4487L545.1875 111.4487L545.1875 110.9531L396.5 110.9531z" stroke="none" fill="#000000" fill-rule="nonzero" /><path id="314" transform="matrix(1 0 0 -1 0 842)" d="M396.5 91.62354L545.1875 91.62354L545.1875 91.12793L396.5 91.12793z" stroke="none" fill="#000000" fill-rule="nonzero" /><path id="315" transform="matrix(1 0 0 -1 0 842)" d="M396.5 111.4487L396.9956 111.4487L396.9956 91.12793L396.5 91.12793z" stroke="none" fill="#000000" fill-rule="nonzero" /><path id="316" transform="matrix(1 0 0 -1 0 842)" d="M544.6919 111.4487L545.1875 111.4487L545.1875 91.12793L544.6919 91.12793z" stroke="none" fill="#000000" fill-rule="nonzero" /></g></g></g></svg>