<svg xmlns="http://www.w3.org/2000/svg" xmlns:xlink="http://www.w3.org/1999/xlink" id="body_12" preserveAspectRatio="xMinYMin meet" viewBox="0 0 793 1123"><defs><clipPath id="1"><path id="" clip-rule="evenodd" transform="matrix(1 0 0 1 0 0)" d="M0 842L0 0L0 0L595 0L595 0L595 842L595 842L0 842z" /></clipPath><clipPath id="2"><path id="" clip-rule="evenodd" transform="matrix(1 0 0 1 0 0)" d="M0 0L594.75 0L594.75 0L594.75 842.0669L594.75 842.0669L0 842.0669L0 842.0669L0 0z" /></clipPath></defs><g transform="matrix(1.333333 0 0 1.333333 0 0)"><g clip-path="url(#1)"><g clip-path="url(#2)"><path id="1" transform="matrix(1 0 0 -1 0 842)" d="M0 841.999L594.75 841.999L594.75 -0.06738281L0 -0.06738281z" stroke="none" fill="#FFFFFF" fill-rule="nonzero" /><path id="2" transform="matrix(1 0 0 -1 0 842)" d="M49.5625 743.3701L74.34375 743.3701L74.34375 717.5977L49.5625 717.5977z" stroke="none" fill="#9CC9F0" fill-rule="nonzero" /><path id="3" transform="matrix(1 0 0 -1 0 842)" d="M74.34375 743.3701L148.6875 743.3701L148.6875 717.5977L74.34375 717.5977z" stroke="none" fill="#9CC9F0" fill-rule="nonzero" /><path id="4" transform="matrix(1 0 0 -1 0 842)" d="M148.6875 743.3701L223.0313 743.3701L223.0313 717.5977L148.6875 717.5977z" stroke="none" fill="#9CC9F0" fill-rule="nonzero" /><path id="5" transform="matrix(1 0 0 -1 0 842)" d="M223.0313 743.3701L272.5938 743.3701L272.5938 717.5977L223.0313 717.5977z" stroke="none" fill="#9CC9F0" fill-rule="nonzero" /><path id="6" transform="matrix(1 0 0 -1 0 842)" d="M272.5938 743.3701L421.2813 743.3701L421.2813 717.5977L272.5938 717.5977z" stroke="none" fill="#9CC9F0" fill-rule="nonzero" /><path id="7" transform="matrix(1 0 0 -1 0 842)" d="M421.2813 743.3701L470.8438 743.3701L470.8438 717.5977L421.2813 717.5977z" stroke="none" fill="#9CC9F0" fill-rule="nonzero" /><path id="8" transform="matrix(1 0 0 -1 0 842)" d="M470.8438 743.3701L544.6919 743.3701L544.6919 717.5977L470.8438 717.5977z" stroke="none" fill="#9CC9F0" fill-rule="nonzero" /><path id="9" transform="matrix(1 0 0 -1 0 842)" d="M49.5625 743.3701L74.83938 743.3701L74.83938 742.874L49.5625 742.874z" stroke="none" fill="#000000" fill-rule="nonzero" /><path id="10" transform="matrix(1 0 0 -1 0 842)" d="M49.5625 717.5977L74.83938 717.5977L74.83938 717.1016L49.5625 717.1016z" stroke="none" fill="#000000" fill-rule="nonzero" /><path id="11" transform="matrix(1 0 0 -1 0 842)" d="M49.5625 743.3701L50.05813 743.3701L50.05813 717.1016L49.5625 717.1016z" stroke="none" fill="#000000" fill-rule="nonzero" /><path id="12" transform="matrix(1 0 0 -1 0 842)" d="M74.34375 743.3701L74.83938 743.3701L74.83938 717.1016L74.34375 717.1016z" stroke="none" fill="#000000" fill-rule="nonzero" /><path id="13" transform="matrix(1 0 0 -1 0 842)" d="M74.34375 743.3701L149.1831 743.3701L149.1831 742.874L74.34375 742.874z" stroke="none" fill="#000000" fill-rule="nonzero" /><path id="14" transform="matrix(1 0 0 -1 0 842)" d="M74.34375 717.5977L149.1831 717.5977L149.1831 717.1016L74.34375 717.1016z" stroke="none" fill="#000000" fill-rule="nonzero" /><path id="15" transform="matrix(1 0 0 -1 0 842)" d="M74.34375 743.3701L74.83938 743.3701L74.83938 717.1016L74.34375 717.1016z" stroke="none" fill="#000000" fill-rule="nonzero" /><path id="16" transform="matrix(1 0 0 -1 0 842)" d="M148.6875 743.3701L149.1831 743.3701L149.1831 717.1016L148.6875 717.1016z" stroke="none" fill="#000000" fill-rule="nonzero" /><path id="17" transform="matrix(1 0 0 -1 0 842)" d="M148.6875 743.3701L223.5269 743.3701L223.5269 742.874L148.6875 742.874z" stroke="none" fill="#000000" fill-rule="nonzero" /><path id="18" transform="matrix(1 0 0 -1 0 842)" d="M148.6875 717.5977L223.5269 717.5977L223.5269 717.1016L148.6875 717.1016z" stroke="none" fill="#000000" fill-rule="nonzero" /><path id="19" transform="matrix(1 0 0 -1 0 842)" d="M148.6875 743.3701L149.1831 743.3701L149.1831 717.1016L148.6875 717.1016z" stroke="none" fill="#000000" fill-rule="nonzero" /><path id="20" transform="matrix(1 0 0 -1 0 842)" d="M223.0313 743.3701L223.5269 743.3701L223.5269 717.1016L223.0313 717.1016z" stroke="none" fill="#000000" fill-rule="nonzero" /><path id="21" transform="matrix(1 0 0 -1 0 842)" d="M223.0313 743.3701L273.0894 743.3701L273.0894 742.874L223.0313 742.874z" stroke="none" fill="#000000" fill-rule="nonzero" /><path id="22" transform="matrix(1 0 0 -1 0 842)" d="M223.0313 717.5977L273.0894 717.5977L273.0894 717.1016L223.0313 717.1016z" stroke="none" fill="#000000" fill-rule="nonzero" /><path id="23" transform="matrix(1 0 0 -1 0 842)" d="M223.0313 743.3701L223.5269 743.3701L223.5269 717.1016L223.0313 717.1016z" stroke="none" fill="#000000" fill-rule="nonzero" /><path id="24" transform="matrix(1 0 0 -1 0 842)" d="M272.5938 743.3701L273.0894 743.3701L273.0894 717.1016L272.5938 717.1016z" stroke="none" fill="#000000" fill-rule="nonzero" /><path id="25" transform="matrix(1 0 0 -1 0 842)" d="M272.5938 743.3701L421.7769 743.3701L421.7769 742.874L272.5938 742.874z" stroke="none" fill="#000000" fill-rule="nonzero" /><path id="26" transform="matrix(1 0 0 -1 0 842)" d="M272.5938 717.5977L421.7769 717.5977L421.7769 717.1016L272.5938 717.1016z" stroke="none" fill="#000000" fill-rule="nonzero" /><path id="27" transform="matrix(1 0 0 -1 0 842)" d="M272.5938 743.3701L273.0894 743.3701L273.0894 717.1016L272.5938 717.1016z" stroke="none" fill="#000000" fill-rule="nonzero" /><path id="28" transform="matrix(1 0 0 -1 0 842)" d="M421.2813 743.3701L421.7769 743.3701L421.7769 717.1016L421.2813 717.1016z" stroke="none" fill="#000000" fill-rule="nonzero" /><path id="29" transform="matrix(1 0 0 -1 0 842)" d="M421.2813 743.3701L471.3394 743.3701L471.3394 742.874L421.2813 742.874z" stroke="none" fill="#000000" fill-rule="nonzero" /><path id="30" transform="matrix(1 0 0 -1 0 842)" d="M421.2813 717.5977L471.3394 717.5977L471.3394 717.1016L421.2813 717.1016z" stroke="none" fill="#000000" fill-rule="nonzero" /><path id="31" transform="matrix(1 0 0 -1 0 842)" d="M421.2813 743.3701L421.7769 743.3701L421.7769 717.1016L421.2813 717.1016z" stroke="none" fill="#000000" fill-rule="nonzero" /><path id="32" transform="matrix(1 0 0 -1 0 842)" d="M470.8438 743.3701L471.3394 743.3701L471.3394 717.1016L470.8438 717.1016z" stroke="none" fill="#000000" fill-rule="nonzero" /><path id="33" transform="matrix(1 0 0 -1 0 842)" d="M470.8438 743.3701L545.1875 743.3701L545.1875 742.874L470.8438 742.874z" stroke="none" fill="#000000" fill-rule="nonzero" /><path id="34" transform="matrix(1 0 0 -1 0 842)" d="M470.8438 717.5977L545.1875 717.5977L545.1875 717.1016L470.8438 717.1016z" stroke="none" fill="#000000" fill-rule="nonzero" /><path id="35" transform="matrix(1 0 0 -1 0 842)" d="M470.8438 743.3701L471.3394 743.3701L471.3394 717.1016L470.8438 717.1016z" stroke="none" fill="#000000" fill-rule="nonzero" /><path id="36" transform="matrix(1 0 0 -1 0 842)" d="M544.6919 743.3701L545.1875 743.3701L545.1875 717.1016L544.6919 717.1016z" stroke="none" fill="#000000" fill-rule="nonzero" /><path id="37" transform="matrix(1 0 0 -1 0 842)" d="M49.5625 717.5977L74.83938 717.5977L74.83938 717.1016L49.5625 717.1016z" stroke="none" fill="#000000" fill-rule="nonzero" /><path id="38" transform="matrix(1 0 0 -1 0 842)" d="M49.5625 649.2012L74.83938 649.2012L74.83938 648.7061L49.5625 648.7061z" stroke="none" fill="#000000" fill-rule="nonzero" /><path id="39" transform="matrix(1 0 0 -1 0 842)" d="M49.5625 717.5977L50.05813 717.5977L50.05813 648.7061L49.5625 648.7061z" stroke="none" fill="#000000" fill-rule="nonzero" /><path id="40" transform="matrix(1 0 0 -1 0 842)" d="M74.34375 717.5977L74.83938 717.5977L74.83938 648.7061L74.34375 648.7061z" stroke="none" fill="#000000" fill-rule="nonzero" /><path id="41" transform="matrix(1 0 0 -1 0 842)" d="M74.34375 717.5977L149.1831 717.5977L149.1831 717.1016L74.34375 717.1016z" stroke="none" fill="#000000" fill-rule="nonzero" /><path id="42" transform="matrix(1 0 0 -1 0 842)" d="M74.34375 649.2012L149.1831 649.2012L149.1831 648.7061L74.34375 648.7061z" stroke="none" fill="#000000" fill-rule="nonzero" /><path id="43" transform="matrix(1 0 0 -1 0 842)" d="M74.34375 717.5977L74.83938 717.5977L74.83938 648.7061L74.34375 648.7061z" stroke="none" fill="#000000" fill-rule="nonzero" /><path id="44" transform="matrix(1 0 0 -1 0 842)" d="M148.6875 717.5977L149.1831 717.5977L149.1831 648.7061L148.6875 648.7061z" stroke="none" fill="#000000" fill-rule="nonzero" /><path id="45" transform="matrix(1 0 0 -1 0 842)" d="M148.6875 717.5977L223.5269 717.5977L223.5269 717.1016L148.6875 717.1016z" stroke="none" fill="#000000" fill-rule="nonzero" /><path id="46" transform="matrix(1 0 0 -1 0 842)" d="M148.6875 683.3994L223.5269 683.3994L223.5269 682.9033L148.6875 682.9033z" stroke="none" fill="#000000" fill-rule="nonzero" /><path id="47" transform="matrix(1 0 0 -1 0 842)" d="M148.6875 717.5977L149.1831 717.5977L149.1831 682.9033L148.6875 682.9033z" stroke="none" fill="#000000" fill-rule="nonzero" /><path id="48" transform="matrix(1 0 0 -1 0 842)" d="M223.0313 717.5977L223.5269 717.5977L223.5269 682.9033L223.0313 682.9033z" stroke="none" fill="#000000" fill-rule="nonzero" /><path id="49" transform="matrix(1 0 0 -1 0 842)" d="M223.0313 717.5977L273.0894 717.5977L273.0894 717.1016L223.0313 717.1016z" stroke="none" fill="#000000" fill-rule="nonzero" /><path id="50" transform="matrix(1 0 0 -1 0 842)" d="M223.0313 683.3994L273.0894 683.3994L273.0894 682.9033L223.0313 682.9033z" stroke="none" fill="#000000" fill-rule="nonzero" /><path id="51" transform="matrix(1 0 0 -1 0 842)" d="M223.0313 717.5977L223.5269 717.5977L223.5269 682.9033L223.0313 682.9033z" stroke="none" fill="#000000" fill-rule="nonzero" /><path id="52" transform="matrix(1 0 0 -1 0 842)" d="M272.5938 717.5977L273.0894 717.5977L273.0894 682.9033L272.5938 682.9033z" stroke="none" fill="#000000" fill-rule="nonzero" /><path id="53" transform="matrix(1 0 0 -1 0 842)" d="M272.5938 717.5977L421.7769 717.5977L421.7769 717.1016L272.5938 717.1016z" stroke="none" fill="#000000" fill-rule="nonzero" /><path id="54" transform="matrix(1 0 0 -1 0 842)" d="M272.5938 683.3994L421.7769 683.3994L421.7769 682.9033L272.5938 682.9033z" stroke="none" fill="#000000" fill-rule="nonzero" /><path id="55" transform="matrix(1 0 0 -1 0 842)" d="M272.5938 717.5977L273.0894 717.5977L273.0894 682.9033L272.5938 682.9033z" stroke="none" fill="#000000" fill-rule="nonzero" /><path id="56" transform="matrix(1 0 0 -1 0 842)" d="M421.2813 717.5977L421.7769 717.5977L421.7769 682.9033L421.2813 682.9033z" stroke="none" fill="#000000" fill-rule="nonzero" /><path id="57" transform="matrix(1 0 0 -1 0 842)" d="M421.2813 717.5977L471.3394 717.5977L471.3394 717.1016L421.2813 717.1016z" stroke="none" fill="#000000" fill-rule="nonzero" /><path id="58" transform="matrix(1 0 0 -1 0 842)" d="M421.2813 683.3994L471.3394 683.3994L471.3394 682.9033L421.2813 682.9033z" stroke="none" fill="#000000" fill-rule="nonzero" /><path id="59" transform="matrix(1 0 0 -1 0 842)" d="M421.2813 717.5977L421.7769 717.5977L421.7769 682.9033L421.2813 682.9033z" stroke="none" fill="#000000" fill-rule="nonzero" /><path id="60" transform="matrix(1 0 0 -1 0 842)" d="M470.8438 717.5977L471.3394 717.5977L471.3394 682.9033L470.8438 682.9033z" stroke="none" fill="#000000" fill-rule="nonzero" /><path id="61" transform="matrix(1 0 0 -1 0 842)" d="M470.8438 717.5977L545.1875 717.5977L545.1875 717.1016L470.8438 717.1016z" stroke="none" fill="#000000" fill-rule="nonzero" /><path id="62" transform="matrix(1 0 0 -1 0 842)" d="M470.8438 649.2012L545.1875 649.2012L545.1875 648.7061L470.8438 648.7061z" stroke="none" fill="#000000" fill-rule="nonzero" /><path id="63" transform="matrix(1 0 0 -1 0 842)" d="M470.8438 717.5977L471.3394 717.5977L471.3394 648.7061L470.8438 648.7061z" stroke="none" fill="#000000" fill-rule="nonzero" /><path id="64" transform="matrix(1 0 0 -1 0 842)" d="M544.6919 717.5977L545.1875 717.5977L545.1875 648.7061L544.6919 648.7061z" stroke="none" fill="#000000" fill-rule="nonzero" /><path id="65" transform="matrix(1 0 0 -1 0 842)" d="M148.6875 683.3994L223.5269 683.3994L223.5269 682.9033L148.6875 682.9033z" stroke="none" fill="#000000" fill-rule="nonzero" /><path id="66" transform="matrix(1 0 0 -1 0 842)" d="M148.6875 649.2012L223.5269 649.2012L223.5269 648.7061L148.6875 648.7061z" stroke="none" fill="#000000" fill-rule="nonzero" /><path id="67" transform="matrix(1 0 0 -1 0 842)" d="M148.6875 683.3994L149.1831 683.3994L149.1831 648.7061L148.6875 648.7061z" stroke="none" fill="#000000" fill-rule="nonzero" /><path id="68" transform="matrix(1 0 0 -1 0 842)" d="M223.0313 683.3994L223.5269 683.3994L223.5269 648.7061L223.0313 648.7061z" stroke="none" fill="#000000" fill-rule="nonzero" /><path id="69" transform="matrix(1 0 0 -1 0 842)" d="M223.0313 683.3994L273.0894 683.3994L273.0894 682.9033L223.0313 682.9033z" stroke="none" fill="#000000" fill-rule="nonzero" /><path id="70" transform="matrix(1 0 0 -1 0 842)" d="M223.0313 649.2012L273.0894 649.2012L273.0894 648.7061L223.0313 648.7061z" stroke="none" fill="#000000" fill-rule="nonzero" /><path id="71" transform="matrix(1 0 0 -1 0 842)" d="M223.0313 683.3994L223.5269 683.3994L223.5269 648.7061L223.0313 648.7061z" stroke="none" fill="#000000" fill-rule="nonzero" /><path id="72" transform="matrix(1 0 0 -1 0 842)" d="M272.5938 683.3994L273.0894 683.3994L273.0894 648.7061L272.5938 648.7061z" stroke="none" fill="#000000" fill-rule="nonzero" /><path id="73" transform="matrix(1 0 0 -1 0 842)" d="M272.5938 683.3994L421.7769 683.3994L421.7769 682.9033L272.5938 682.9033z" stroke="none" fill="#000000" fill-rule="nonzero" /><path id="74" transform="matrix(1 0 0 -1 0 842)" d="M272.5938 649.2012L421.7769 649.2012L421.7769 648.7061L272.5938 648.7061z" stroke="none" fill="#000000" fill-rule="nonzero" /><path id="75" transform="matrix(1 0 0 -1 0 842)" d="M272.5938 683.3994L273.0894 683.3994L273.0894 648.7061L272.5938 648.7061z" stroke="none" fill="#000000" fill-rule="nonzero" /><path id="76" transform="matrix(1 0 0 -1 0 842)" d="M421.2813 683.3994L421.7769 683.3994L421.7769 648.7061L421.2813 648.7061z" stroke="none" fill="#000000" fill-rule="nonzero" /><path id="77" transform="matrix(1 0 0 -1 0 842)" d="M421.2813 683.3994L471.3394 683.3994L471.3394 682.9033L421.2813 682.9033z" stroke="none" fill="#000000" fill-rule="nonzero" /><path id="78" transform="matrix(1 0 0 -1 0 842)" d="M421.2813 649.2012L471.3394 649.2012L471.3394 648.7061L421.2813 648.7061z" stroke="none" fill="#000000" fill-rule="nonzero" /><path id="79" transform="matrix(1 0 0 -1 0 842)" d="M421.2813 683.3994L421.7769 683.3994L421.7769 648.7061L421.2813 648.7061z" stroke="none" fill="#000000" fill-rule="nonzero" /><path id="80" transform="matrix(1 0 0 -1 0 842)" d="M470.8438 683.3994L471.3394 683.3994L471.3394 648.7061L470.8438 648.7061z" stroke="none" fill="#000000" fill-rule="nonzero" /><path id="81" transform="matrix(1 0 0 -1 0 842)" d="M49.5625 649.2012L74.83938 649.2012L74.83938 648.7061L49.5625 648.7061z" stroke="none" fill="#000000" fill-rule="nonzero" /><path id="82" transform="matrix(1 0 0 -1 0 842)" d="M49.5625 458.8809L74.83938 458.8809L74.83938 458.3857L49.5625 458.3857z" stroke="none" fill="#000000" fill-rule="nonzero" /><path id="83" transform="matrix(1 0 0 -1 0 842)" d="M49.5625 649.2012L50.05813 649.2012L50.05813 458.3857L49.5625 458.3857z" stroke="none" fill="#000000" fill-rule="nonzero" /><path id="84" transform="matrix(1 0 0 -1 0 842)" d="M74.34375 649.2012L74.83938 649.2012L74.83938 458.3857L74.34375 458.3857z" stroke="none" fill="#000000" fill-rule="nonzero" /><path id="85" transform="matrix(1 0 0 -1 0 842)" d="M74.34375 649.2012L149.1831 649.2012L149.1831 648.7061L74.34375 648.7061z" stroke="none" fill="#000000" fill-rule="nonzero" /><path id="86" transform="matrix(1 0 0 -1 0 842)" d="M74.34375 458.8809L149.1831 458.8809L149.1831 458.3857L74.34375 458.3857z" stroke="none" fill="#000000" fill-rule="nonzero" /><path id="87" transform="matrix(1 0 0 -1 0 842)" d="M74.34375 649.2012L74.83938 649.2012L74.83938 458.3857L74.34375 458.3857z" stroke="none" fill="#000000" fill-rule="nonzero" /><path id="88" transform="matrix(1 0 0 -1 0 842)" d="M148.6875 649.2012L149.1831 649.2012L149.1831 458.3857L148.6875 458.3857z" stroke="none" fill="#000000" fill-rule="nonzero" /><path id="89" transform="matrix(1 0 0 -1 0 842)" d="M148.6875 649.2012L223.5269 649.2012L223.5269 648.7061L148.6875 648.7061z" stroke="none" fill="#000000" fill-rule="nonzero" /><path id="90" transform="matrix(1 0 0 -1 0 842)" d="M148.6875 601.6211L223.5269 601.6211L223.5269 601.126L148.6875 601.126z" stroke="none" fill="#000000" fill-rule="nonzero" /><path id="91" transform="matrix(1 0 0 -1 0 842)" d="M148.6875 649.2012L149.1831 649.2012L149.1831 601.126L148.6875 601.126z" stroke="none" fill="#000000" fill-rule="nonzero" /><path id="92" transform="matrix(1 0 0 -1 0 842)" d="M223.0313 649.2012L223.5269 649.2012L223.5269 601.126L223.0313 601.126z" stroke="none" fill="#000000" fill-rule="nonzero" /><path id="93" transform="matrix(1 0 0 -1 0 842)" d="M223.0313 649.2012L273.0894 649.2012L273.0894 648.7061L223.0313 648.7061z" stroke="none" fill="#000000" fill-rule="nonzero" /><path id="94" transform="matrix(1 0 0 -1 0 842)" d="M223.0313 601.6211L273.0894 601.6211L273.0894 601.126L223.0313 601.126z" stroke="none" fill="#000000" fill-rule="nonzero" /><path id="95" transform="matrix(1 0 0 -1 0 842)" d="M223.0313 649.2012L223.5269 649.2012L223.5269 601.126L223.0313 601.126z" stroke="none" fill="#000000" fill-rule="nonzero" /><path id="96" transform="matrix(1 0 0 -1 0 842)" d="M272.5938 649.2012L273.0894 649.2012L273.0894 601.126L272.5938 601.126z" stroke="none" fill="#000000" fill-rule="nonzero" /><path id="97" transform="matrix(1 0 0 -1 0 842)" d="M272.5938 649.2012L421.7769 649.2012L421.7769 648.7061L272.5938 648.7061z" stroke="none" fill="#000000" fill-rule="nonzero" /><path id="98" transform="matrix(1 0 0 -1 0 842)" d="M272.5938 601.6211L421.7769 601.6211L421.7769 601.126L272.5938 601.126z" stroke="none" fill="#000000" fill-rule="nonzero" /><path id="99" transform="matrix(1 0 0 -1 0 842)" d="M272.5938 649.2012L273.0894 649.2012L273.0894 601.126L272.5938 601.126z" stroke="none" fill="#000000" fill-rule="nonzero" /><path id="100" transform="matrix(1 0 0 -1 0 842)" d="M421.2813 649.2012L421.7769 649.2012L421.7769 601.126L421.2813 601.126z" stroke="none" fill="#000000" fill-rule="nonzero" /><path id="101" transform="matrix(1 0 0 -1 0 842)" d="M421.2813 649.2012L471.3394 649.2012L471.3394 648.7061L421.2813 648.7061z" stroke="none" fill="#000000" fill-rule="nonzero" /><path id="102" transform="matrix(1 0 0 -1 0 842)" d="M421.2813 601.6211L471.3394 601.6211L471.3394 601.126L421.2813 601.126z" stroke="none" fill="#000000" fill-rule="nonzero" /><path id="103" transform="matrix(1 0 0 -1 0 842)" d="M421.2813 649.2012L421.7769 649.2012L421.7769 601.126L421.2813 601.126z" stroke="none" fill="#000000" fill-rule="nonzero" /><path id="104" transform="matrix(1 0 0 -1 0 842)" d="M470.8438 649.2012L471.3394 649.2012L471.3394 601.126L470.8438 601.126z" stroke="none" fill="#000000" fill-rule="nonzero" /><path id="105" transform="matrix(1 0 0 -1 0 842)" d="M470.8438 649.2012L545.1875 649.2012L545.1875 648.7061L470.8438 648.7061z" stroke="none" fill="#000000" fill-rule="nonzero" /><path id="106" transform="matrix(1 0 0 -1 0 842)" d="M470.8438 458.8809L545.1875 458.8809L545.1875 458.3857L470.8438 458.3857z" stroke="none" fill="#000000" fill-rule="nonzero" /><path id="107" transform="matrix(1 0 0 -1 0 842)" d="M470.8438 649.2012L471.3394 649.2012L471.3394 458.3857L470.8438 458.3857z" stroke="none" fill="#000000" fill-rule="nonzero" /><path id="108" transform="matrix(1 0 0 -1 0 842)" d="M544.6919 649.2012L545.1875 649.2012L545.1875 458.3857L544.6919 458.3857z" stroke="none" fill="#000000" fill-rule="nonzero" /><path id="109" transform="matrix(1 0 0 -1 0 842)" d="M148.6875 601.6211L223.5269 601.6211L223.5269 601.126L148.6875 601.126z" stroke="none" fill="#000000" fill-rule="nonzero" /><path id="110" transform="matrix(1 0 0 -1 0 842)" d="M148.6875 554.041L223.5269 554.041L223.5269 553.5459L148.6875 553.5459z" stroke="none" fill="#000000" fill-rule="nonzero" /><path id="111" transform="matrix(1 0 0 -1 0 842)" d="M148.6875 601.6211L149.1831 601.6211L149.1831 553.5459L148.6875 553.5459z" stroke="none" fill="#000000" fill-rule="nonzero" /><path id="112" transform="matrix(1 0 0 -1 0 842)" d="M223.0313 601.6211L223.5269 601.6211L223.5269 553.5459L223.0313 553.5459z" stroke="none" fill="#000000" fill-rule="nonzero" /><path id="113" transform="matrix(1 0 0 -1 0 842)" d="M223.0313 601.6211L273.0894 601.6211L273.0894 601.126L223.0313 601.126z" stroke="none" fill="#000000" fill-rule="nonzero" /><path id="114" transform="matrix(1 0 0 -1 0 842)" d="M223.0313 554.041L273.0894 554.041L273.0894 553.5459L223.0313 553.5459z" stroke="none" fill="#000000" fill-rule="nonzero" /><path id="115" transform="matrix(1 0 0 -1 0 842)" d="M223.0313 601.6211L223.5269 601.6211L223.5269 553.5459L223.0313 553.5459z" stroke="none" fill="#000000" fill-rule="nonzero" /><path id="116" transform="matrix(1 0 0 -1 0 842)" d="M272.5938 601.6211L273.0894 601.6211L273.0894 553.5459L272.5938 553.5459z" stroke="none" fill="#000000" fill-rule="nonzero" /><path id="117" transform="matrix(1 0 0 -1 0 842)" d="M272.5938 601.6211L421.7769 601.6211L421.7769 601.126L272.5938 601.126z" stroke="none" fill="#000000" fill-rule="nonzero" /><path id="118" transform="matrix(1 0 0 -1 0 842)" d="M272.5938 554.041L421.7769 554.041L421.7769 553.5459L272.5938 553.5459z" stroke="none" fill="#000000" fill-rule="nonzero" /><path id="119" transform="matrix(1 0 0 -1 0 842)" d="M272.5938 601.6211L273.0894 601.6211L273.0894 553.5459L272.5938 553.5459z" stroke="none" fill="#000000" fill-rule="nonzero" /><path id="120" transform="matrix(1 0 0 -1 0 842)" d="M421.2813 601.6211L421.7769 601.6211L421.7769 553.5459L421.2813 553.5459z" stroke="none" fill="#000000" fill-rule="nonzero" /><path id="121" transform="matrix(1 0 0 -1 0 842)" d="M421.2813 601.6211L471.3394 601.6211L471.3394 601.126L421.2813 601.126z" stroke="none" fill="#000000" fill-rule="nonzero" /><path id="122" transform="matrix(1 0 0 -1 0 842)" d="M421.2813 554.041L471.3394 554.041L471.3394 553.5459L421.2813 553.5459z" stroke="none" fill="#000000" fill-rule="nonzero" /><path id="123" transform="matrix(1 0 0 -1 0 842)" d="M421.2813 601.6211L421.7769 601.6211L421.7769 553.5459L421.2813 553.5459z" stroke="none" fill="#000000" fill-rule="nonzero" /><path id="124" transform="matrix(1 0 0 -1 0 842)" d="M470.8438 601.6211L471.3394 601.6211L471.3394 553.5459L470.8438 553.5459z" stroke="none" fill="#000000" fill-rule="nonzero" /><path id="125" transform="matrix(1 0 0 -1 0 842)" d="M148.6875 554.041L223.5269 554.041L223.5269 553.5459L148.6875 553.5459z" stroke="none" fill="#000000" fill-rule="nonzero" /><path id="126" transform="matrix(1 0 0 -1 0 842)" d="M148.6875 506.4609L223.5269 506.4609L223.5269 505.9658L148.6875 505.9658z" stroke="none" fill="#000000" fill-rule="nonzero" /><path id="127" transform="matrix(1 0 0 -1 0 842)" d="M148.6875 554.041L149.1831 554.041L149.1831 505.9658L148.6875 505.9658z" stroke="none" fill="#000000" fill-rule="nonzero" /><path id="128" transform="matrix(1 0 0 -1 0 842)" d="M223.0313 554.041L223.5269 554.041L223.5269 505.9658L223.0313 505.9658z" stroke="none" fill="#000000" fill-rule="nonzero" /><path id="129" transform="matrix(1 0 0 -1 0 842)" d="M223.0313 554.041L273.0894 554.041L273.0894 553.5459L223.0313 553.5459z" stroke="none" fill="#000000" fill-rule="nonzero" /><path id="130" transform="matrix(1 0 0 -1 0 842)" d="M223.0313 506.4609L273.0894 506.4609L273.0894 505.9658L223.0313 505.9658z" stroke="none" fill="#000000" fill-rule="nonzero" /><path id="131" transform="matrix(1 0 0 -1 0 842)" d="M223.0313 554.041L223.5269 554.041L223.5269 505.9658L223.0313 505.9658z" stroke="none" fill="#000000" fill-rule="nonzero" /><path id="132" transform="matrix(1 0 0 -1 0 842)" d="M272.5938 554.041L273.0894 554.041L273.0894 505.9658L272.5938 505.9658z" stroke="none" fill="#000000" fill-rule="nonzero" /><path id="133" transform="matrix(1 0 0 -1 0 842)" d="M272.5938 554.041L421.7769 554.041L421.7769 553.5459L272.5938 553.5459z" stroke="none" fill="#000000" fill-rule="nonzero" /><path id="134" transform="matrix(1 0 0 -1 0 842)" d="M272.5938 506.4609L421.7769 506.4609L421.7769 505.9658L272.5938 505.9658z" stroke="none" fill="#000000" fill-rule="nonzero" /><path id="135" transform="matrix(1 0 0 -1 0 842)" d="M272.5938 554.041L273.0894 554.041L273.0894 505.9658L272.5938 505.9658z" stroke="none" fill="#000000" fill-rule="nonzero" /><path id="136" transform="matrix(1 0 0 -1 0 842)" d="M421.2813 554.041L421.7769 554.041L421.7769 505.9658L421.2813 505.9658z" stroke="none" fill="#000000" fill-rule="nonzero" /><path id="137" transform="matrix(1 0 0 -1 0 842)" d="M421.2813 554.041L471.3394 554.041L471.3394 553.5459L421.2813 553.5459z" stroke="none" fill="#000000" fill-rule="nonzero" /><path id="138" transform="matrix(1 0 0 -1 0 842)" d="M421.2813 506.4609L471.3394 506.4609L471.3394 505.9658L421.2813 505.9658z" stroke="none" fill="#000000" fill-rule="nonzero" /><path id="139" transform="matrix(1 0 0 -1 0 842)" d="M421.2813 554.041L421.7769 554.041L421.7769 505.9658L421.2813 505.9658z" stroke="none" fill="#000000" fill-rule="nonzero" /><path id="140" transform="matrix(1 0 0 -1 0 842)" d="M470.8438 554.041L471.3394 554.041L471.3394 505.9658L470.8438 505.9658z" stroke="none" fill="#000000" fill-rule="nonzero" /><path id="141" transform="matrix(1 0 0 -1 0 842)" d="M148.6875 506.4609L223.5269 506.4609L223.5269 505.9658L148.6875 505.9658z" stroke="none" fill="#000000" fill-rule="nonzero" /><path id="142" transform="matrix(1 0 0 -1 0 842)" d="M148.6875 458.8809L223.5269 458.8809L223.5269 458.3857L148.6875 458.3857z" stroke="none" fill="#000000" fill-rule="nonzero" /><path id="143" transform="matrix(1 0 0 -1 0 842)" d="M148.6875 506.4609L149.1831 506.4609L149.1831 458.3857L148.6875 458.3857z" stroke="none" fill="#000000" fill-rule="nonzero" /><path id="144" transform="matrix(1 0 0 -1 0 842)" d="M223.0313 506.4609L223.5269 506.4609L223.5269 458.3857L223.0313 458.3857z" stroke="none" fill="#000000" fill-rule="nonzero" /><path id="145" transform="matrix(1 0 0 -1 0 842)" d="M223.0313 506.4609L273.0894 506.4609L273.0894 505.9658L223.0313 505.9658z" stroke="none" fill="#000000" fill-rule="nonzero" /><path id="146" transform="matrix(1 0 0 -1 0 842)" d="M223.0313 458.8809L273.0894 458.8809L273.0894 458.3857L223.0313 458.3857z" stroke="none" fill="#000000" fill-rule="nonzero" /><path id="147" transform="matrix(1 0 0 -1 0 842)" d="M223.0313 506.4609L223.5269 506.4609L223.5269 458.3857L223.0313 458.3857z" stroke="none" fill="#000000" fill-rule="nonzero" /><path id="148" transform="matrix(1 0 0 -1 0 842)" d="M272.5938 506.4609L273.0894 506.4609L273.0894 458.3857L272.5938 458.3857z" stroke="none" fill="#000000" fill-rule="nonzero" /><path id="149" transform="matrix(1 0 0 -1 0 842)" d="M272.5938 506.4609L421.7769 506.4609L421.7769 505.9658L272.5938 505.9658z" stroke="none" fill="#000000" fill-rule="nonzero" /><path id="150" transform="matrix(1 0 0 -1 0 842)" d="M272.5938 458.8809L421.7769 458.8809L421.7769 458.3857L272.5938 458.3857z" stroke="none" fill="#000000" fill-rule="nonzero" /><path id="151" transform="matrix(1 0 0 -1 0 842)" d="M272.5938 506.4609L273.0894 506.4609L273.0894 458.3857L272.5938 458.3857z" stroke="none" fill="#000000" fill-rule="nonzero" /><path id="152" transform="matrix(1 0 0 -1 0 842)" d="M421.2813 506.4609L421.7769 506.4609L421.7769 458.3857L421.2813 458.3857z" stroke="none" fill="#000000" fill-rule="nonzero" /><path id="153" transform="matrix(1 0 0 -1 0 842)" d="M421.2813 506.4609L471.3394 506.4609L471.3394 505.9658L421.2813 505.9658z" stroke="none" fill="#000000" fill-rule="nonzero" /><path id="154" transform="matrix(1 0 0 -1 0 842)" d="M421.2813 458.8809L471.3394 458.8809L471.3394 458.3857L421.2813 458.3857z" stroke="none" fill="#000000" fill-rule="nonzero" /><path id="155" transform="matrix(1 0 0 -1 0 842)" d="M421.2813 506.4609L421.7769 506.4609L421.7769 458.3857L421.2813 458.3857z" stroke="none" fill="#000000" fill-rule="nonzero" /><path id="156" transform="matrix(1 0 0 -1 0 842)" d="M470.8438 506.4609L471.3394 506.4609L471.3394 458.3857L470.8438 458.3857z" stroke="none" fill="#000000" fill-rule="nonzero" /><path id="157" transform="matrix(1 0 0 -1 0 842)" d="M49.5625 458.8809L74.83938 458.8809L74.83938 458.3857L49.5625 458.3857z" stroke="none" fill="#000000" fill-rule="nonzero" /><path id="158" transform="matrix(1 0 0 -1 0 842)" d="M49.5625 363.7217L74.83938 363.7217L74.83938 363.2256L49.5625 363.2256z" stroke="none" fill="#000000" fill-rule="nonzero" /><path id="159" transform="matrix(1 0 0 -1 0 842)" d="M49.5625 458.8809L50.05813 458.8809L50.05813 363.2256L49.5625 363.2256z" stroke="none" fill="#000000" fill-rule="nonzero" /><path id="160" transform="matrix(1 0 0 -1 0 842)" d="M74.34375 458.8809L74.83938 458.8809L74.83938 363.2256L74.34375 363.2256z" stroke="none" fill="#000000" fill-rule="nonzero" /><path id="161" transform="matrix(1 0 0 -1 0 842)" d="M74.34375 458.8809L149.1831 458.8809L149.1831 458.3857L74.34375 458.3857z" stroke="none" fill="#000000" fill-rule="nonzero" /><path id="162" transform="matrix(1 0 0 -1 0 842)" d="M74.34375 363.7217L149.1831 363.7217L149.1831 363.2256L74.34375 363.2256z" stroke="none" fill="#000000" fill-rule="nonzero" /><path id="163" transform="matrix(1 0 0 -1 0 842)" d="M74.34375 458.8809L74.83938 458.8809L74.83938 363.2256L74.34375 363.2256z" stroke="none" fill="#000000" fill-rule="nonzero" /><path id="164" transform="matrix(1 0 0 -1 0 842)" d="M148.6875 458.8809L149.1831 458.8809L149.1831 363.2256L148.6875 363.2256z" stroke="none" fill="#000000" fill-rule="nonzero" /><path id="165" transform="matrix(1 0 0 -1 0 842)" d="M148.6875 458.8809L223.5269 458.8809L223.5269 458.3857L148.6875 458.3857z" stroke="none" fill="#000000" fill-rule="nonzero" /><path id="166" transform="matrix(1 0 0 -1 0 842)" d="M148.6875 411.3008L223.5269 411.3008L223.5269 410.8057L148.6875 410.8057z" stroke="none" fill="#000000" fill-rule="nonzero" /><path id="167" transform="matrix(1 0 0 -1 0 842)" d="M148.6875 458.8809L149.1831 458.8809L149.1831 410.8057L148.6875 410.8057z" stroke="none" fill="#000000" fill-rule="nonzero" /><path id="168" transform="matrix(1 0 0 -1 0 842)" d="M223.0313 458.8809L223.5269 458.8809L223.5269 410.8057L223.0313 410.8057z" stroke="none" fill="#000000" fill-rule="nonzero" /><path id="169" transform="matrix(1 0 0 -1 0 842)" d="M223.0313 458.8809L273.0894 458.8809L273.0894 458.3857L223.0313 458.3857z" stroke="none" fill="#000000" fill-rule="nonzero" /><path id="170" transform="matrix(1 0 0 -1 0 842)" d="M223.0313 411.3008L273.0894 411.3008L273.0894 410.8057L223.0313 410.8057z" stroke="none" fill="#000000" fill-rule="nonzero" /><path id="171" transform="matrix(1 0 0 -1 0 842)" d="M223.0313 458.8809L223.5269 458.8809L223.5269 410.8057L223.0313 410.8057z" stroke="none" fill="#000000" fill-rule="nonzero" /><path id="172" transform="matrix(1 0 0 -1 0 842)" d="M272.5938 458.8809L273.0894 458.8809L273.0894 410.8057L272.5938 410.8057z" stroke="none" fill="#000000" fill-rule="nonzero" /><path id="173" transform="matrix(1 0 0 -1 0 842)" d="M272.5938 458.8809L421.7769 458.8809L421.7769 458.3857L272.5938 458.3857z" stroke="none" fill="#000000" fill-rule="nonzero" /><path id="174" transform="matrix(1 0 0 -1 0 842)" d="M272.5938 411.3008L421.7769 411.3008L421.7769 410.8057L272.5938 410.8057z" stroke="none" fill="#000000" fill-rule="nonzero" /><path id="175" transform="matrix(1 0 0 -1 0 842)" d="M272.5938 458.8809L273.0894 458.8809L273.0894 410.8057L272.5938 410.8057z" stroke="none" fill="#000000" fill-rule="nonzero" /><path id="176" transform="matrix(1 0 0 -1 0 842)" d="M421.2813 458.8809L421.7769 458.8809L421.7769 410.8057L421.2813 410.8057z" stroke="none" fill="#000000" fill-rule="nonzero" /><path id="177" transform="matrix(1 0 0 -1 0 842)" d="M421.2813 458.8809L471.3394 458.8809L471.3394 458.3857L421.2813 458.3857z" stroke="none" fill="#000000" fill-rule="nonzero" /><path id="178" transform="matrix(1 0 0 -1 0 842)" d="M421.2813 411.3008L471.3394 411.3008L471.3394 410.8057L421.2813 410.8057z" stroke="none" fill="#000000" fill-rule="nonzero" /><path id="179" transform="matrix(1 0 0 -1 0 842)" d="M421.2813 458.8809L421.7769 458.8809L421.7769 410.8057L421.2813 410.8057z" stroke="none" fill="#000000" fill-rule="nonzero" /><path id="180" transform="matrix(1 0 0 -1 0 842)" d="M470.8438 458.8809L471.3394 458.8809L471.3394 410.8057L470.8438 410.8057z" stroke="none" fill="#000000" fill-rule="nonzero" /><path id="181" transform="matrix(1 0 0 -1 0 842)" d="M470.8438 458.8809L545.1875 458.8809L545.1875 458.3857L470.8438 458.3857z" stroke="none" fill="#000000" fill-rule="nonzero" /><path id="182" transform="matrix(1 0 0 -1 0 842)" d="M470.8438 363.7217L545.1875 363.7217L545.1875 363.2256L470.8438 363.2256z" stroke="none" fill="#000000" fill-rule="nonzero" /><path id="183" transform="matrix(1 0 0 -1 0 842)" d="M470.8438 458.8809L471.3394 458.8809L471.3394 363.2256L470.8438 363.2256z" stroke="none" fill="#000000" fill-rule="nonzero" /><path id="184" transform="matrix(1 0 0 -1 0 842)" d="M544.6919 458.8809L545.1875 458.8809L545.1875 363.2256L544.6919 363.2256z" stroke="none" fill="#000000" fill-rule="nonzero" /><path id="185" transform="matrix(1 0 0 -1 0 842)" d="M148.6875 411.3008L223.5269 411.3008L223.5269 410.8057L148.6875 410.8057z" stroke="none" fill="#000000" fill-rule="nonzero" /><path id="186" transform="matrix(1 0 0 -1 0 842)" d="M148.6875 363.7217L223.5269 363.7217L223.5269 363.2256L148.6875 363.2256z" stroke="none" fill="#000000" fill-rule="nonzero" /><path id="187" transform="matrix(1 0 0 -1 0 842)" d="M148.6875 411.3008L149.1831 411.3008L149.1831 363.2256L148.6875 363.2256z" stroke="none" fill="#000000" fill-rule="nonzero" /><path id="188" transform="matrix(1 0 0 -1 0 842)" d="M223.0313 411.3008L223.5269 411.3008L223.5269 363.2256L223.0313 363.2256z" stroke="none" fill="#000000" fill-rule="nonzero" /><path id="189" transform="matrix(1 0 0 -1 0 842)" d="M223.0313 411.3008L273.0894 411.3008L273.0894 410.8057L223.0313 410.8057z" stroke="none" fill="#000000" fill-rule="nonzero" /><path id="190" transform="matrix(1 0 0 -1 0 842)" d="M223.0313 363.7217L273.0894 363.7217L273.0894 363.2256L223.0313 363.2256z" stroke="none" fill="#000000" fill-rule="nonzero" /><path id="191" transform="matrix(1 0 0 -1 0 842)" d="M223.0313 411.3008L223.5269 411.3008L223.5269 363.2256L223.0313 363.2256z" stroke="none" fill="#000000" fill-rule="nonzero" /><path id="192" transform="matrix(1 0 0 -1 0 842)" d="M272.5938 411.3008L273.0894 411.3008L273.0894 363.2256L272.5938 363.2256z" stroke="none" fill="#000000" fill-rule="nonzero" /><path id="193" transform="matrix(1 0 0 -1 0 842)" d="M272.5938 411.3008L421.7769 411.3008L421.7769 410.8057L272.5938 410.8057z" stroke="none" fill="#000000" fill-rule="nonzero" /><path id="194" transform="matrix(1 0 0 -1 0 842)" d="M272.5938 363.7217L421.7769 363.7217L421.7769 363.2256L272.5938 363.2256z" stroke="none" fill="#000000" fill-rule="nonzero" /><path id="195" transform="matrix(1 0 0 -1 0 842)" d="M272.5938 411.3008L273.0894 411.3008L273.0894 363.2256L272.5938 363.2256z" stroke="none" fill="#000000" fill-rule="nonzero" /><path id="196" transform="matrix(1 0 0 -1 0 842)" d="M421.2813 411.3008L421.7769 411.3008L421.7769 363.2256L421.2813 363.2256z" stroke="none" fill="#000000" fill-rule="nonzero" /><path id="197" transform="matrix(1 0 0 -1 0 842)" d="M421.2813 411.3008L471.3394 411.3008L471.3394 410.8057L421.2813 410.8057z" stroke="none" fill="#000000" fill-rule="nonzero" /><path id="198" transform="matrix(1 0 0 -1 0 842)" d="M421.2813 363.7217L471.3394 363.7217L471.3394 363.2256L421.2813 363.2256z" stroke="none" fill="#000000" fill-rule="nonzero" /><path id="199" transform="matrix(1 0 0 -1 0 842)" d="M421.2813 411.3008L421.7769 411.3008L421.7769 363.2256L421.2813 363.2256z" stroke="none" fill="#000000" fill-rule="nonzero" /><path id="200" transform="matrix(1 0 0 -1 0 842)" d="M470.8438 411.3008L471.3394 411.3008L471.3394 363.2256L470.8438 363.2256z" stroke="none" fill="#000000" fill-rule="nonzero" /><path id="201" transform="matrix(1 0 0 -1 0 842)" d="M49.5625 363.7217L74.83938 363.7217L74.83938 363.2256L49.5625 363.2256z" stroke="none" fill="#000000" fill-rule="nonzero" /><path id="202" transform="matrix(1 0 0 -1 0 842)" d="M49.5625 173.4014L74.83938 173.4014L74.83938 172.9053L49.5625 172.9053z" stroke="none" fill="#000000" fill-rule="nonzero" /><path id="203" transform="matrix(1 0 0 -1 0 842)" d="M49.5625 363.7217L50.05813 363.7217L50.05813 172.9053L49.5625 172.9053z" stroke="none" fill="#000000" fill-rule="nonzero" /><path id="204" transform="matrix(1 0 0 -1 0 842)" d="M74.34375 363.7217L74.83938 363.7217L74.83938 172.9053L74.34375 172.9053z" stroke="none" fill="#000000" fill-rule="nonzero" /><path id="205" transform="matrix(1 0 0 -1 0 842)" d="M74.34375 363.7217L149.1831 363.7217L149.1831 363.2256L74.34375 363.2256z" stroke="none" fill="#000000" fill-rule="nonzero" /><path id="206" transform="matrix(1 0 0 -1 0 842)" d="M74.34375 173.4014L149.1831 173.4014L149.1831 172.9053L74.34375 172.9053z" stroke="none" fill="#000000" fill-rule="nonzero" /><path id="207" transform="matrix(1 0 0 -1 0 842)" d="M74.34375 363.7217L74.83938 363.7217L74.83938 172.9053L74.34375 172.9053z" stroke="none" fill="#000000" fill-rule="nonzero" /><path id="208" transform="matrix(1 0 0 -1 0 842)" d="M148.6875 363.7217L149.1831 363.7217L149.1831 172.9053L148.6875 172.9053z" stroke="none" fill="#000000" fill-rule="nonzero" /><path id="209" transform="matrix(1 0 0 -1 0 842)" d="M148.6875 363.7217L223.5269 363.7217L223.5269 363.2256L148.6875 363.2256z" stroke="none" fill="#000000" fill-rule="nonzero" /><path id="210" transform="matrix(1 0 0 -1 0 842)" d="M148.6875 316.1416L223.5269 316.1416L223.5269 315.6455L148.6875 315.6455z" stroke="none" fill="#000000" fill-rule="nonzero" /><path id="211" transform="matrix(1 0 0 -1 0 842)" d="M148.6875 363.7217L149.1831 363.7217L149.1831 315.6455L148.6875 315.6455z" stroke="none" fill="#000000" fill-rule="nonzero" /><path id="212" transform="matrix(1 0 0 -1 0 842)" d="M223.0313 363.7217L223.5269 363.7217L223.5269 315.6455L223.0313 315.6455z" stroke="none" fill="#000000" fill-rule="nonzero" /><path id="213" transform="matrix(1 0 0 -1 0 842)" d="M223.0313 363.7217L273.0894 363.7217L273.0894 363.2256L223.0313 363.2256z" stroke="none" fill="#000000" fill-rule="nonzero" /><path id="214" transform="matrix(1 0 0 -1 0 842)" d="M223.0313 316.1416L273.0894 316.1416L273.0894 315.6455L223.0313 315.6455z" stroke="none" fill="#000000" fill-rule="nonzero" /><path id="215" transform="matrix(1 0 0 -1 0 842)" d="M223.0313 363.7217L223.5269 363.7217L223.5269 315.6455L223.0313 315.6455z" stroke="none" fill="#000000" fill-rule="nonzero" /><path id="216" transform="matrix(1 0 0 -1 0 842)" d="M272.5938 363.7217L273.0894 363.7217L273.0894 315.6455L272.5938 315.6455z" stroke="none" fill="#000000" fill-rule="nonzero" /><path id="217" transform="matrix(1 0 0 -1 0 842)" d="M272.5938 363.7217L421.7769 363.7217L421.7769 363.2256L272.5938 363.2256z" stroke="none" fill="#000000" fill-rule="nonzero" /><path id="218" transform="matrix(1 0 0 -1 0 842)" d="M272.5938 316.1416L421.7769 316.1416L421.7769 315.6455L272.5938 315.6455z" stroke="none" fill="#000000" fill-rule="nonzero" /><path id="219" transform="matrix(1 0 0 -1 0 842)" d="M272.5938 363.7217L273.0894 363.7217L273.0894 315.6455L272.5938 315.6455z" stroke="none" fill="#000000" fill-rule="nonzero" /><path id="220" transform="matrix(1 0 0 -1 0 842)" d="M421.2813 363.7217L421.7769 363.7217L421.7769 315.6455L421.2813 315.6455z" stroke="none" fill="#000000" fill-rule="nonzero" /><path id="221" transform="matrix(1 0 0 -1 0 842)" d="M421.2813 363.7217L471.3394 363.7217L471.3394 363.2256L421.2813 363.2256z" stroke="none" fill="#000000" fill-rule="nonzero" /><path id="222" transform="matrix(1 0 0 -1 0 842)" d="M421.2813 316.1416L471.3394 316.1416L471.3394 315.6455L421.2813 315.6455z" stroke="none" fill="#000000" fill-rule="nonzero" /><path id="223" transform="matrix(1 0 0 -1 0 842)" d="M421.2813 363.7217L421.7769 363.7217L421.7769 315.6455L421.2813 315.6455z" stroke="none" fill="#000000" fill-rule="nonzero" /><path id="224" transform="matrix(1 0 0 -1 0 842)" d="M470.8438 363.7217L471.3394 363.7217L471.3394 315.6455L470.8438 315.6455z" stroke="none" fill="#000000" fill-rule="nonzero" /><path id="225" transform="matrix(1 0 0 -1 0 842)" d="M470.8438 363.7217L545.1875 363.7217L545.1875 363.2256L470.8438 363.2256z" stroke="none" fill="#000000" fill-rule="nonzero" /><path id="226" transform="matrix(1 0 0 -1 0 842)" d="M470.8438 173.4014L545.1875 173.4014L545.1875 172.9053L470.8438 172.9053z" stroke="none" fill="#000000" fill-rule="nonzero" /><path id="227" transform="matrix(1 0 0 -1 0 842)" d="M470.8438 363.7217L471.3394 363.7217L471.3394 172.9053L470.8438 172.9053z" stroke="none" fill="#000000" fill-rule="nonzero" /><path id="228" transform="matrix(1 0 0 -1 0 842)" d="M544.6919 363.7217L545.1875 363.7217L545.1875 172.9053L544.6919 172.9053z" stroke="none" fill="#000000" fill-rule="nonzero" /><path id="229" transform="matrix(1 0 0 -1 0 842)" d="M148.6875 316.1416L223.5269 316.1416L223.5269 315.6455L148.6875 315.6455z" stroke="none" fill="#000000" fill-rule="nonzero" /><path id="230" transform="matrix(1 0 0 -1 0 842)" d="M148.6875 268.5615L223.5269 268.5615L223.5269 268.0654L148.6875 268.0654z" stroke="none" fill="#000000" fill-rule="nonzero" /><path id="231" transform="matrix(1 0 0 -1 0 842)" d="M148.6875 316.1416L149.1831 316.1416L149.1831 268.0654L148.6875 268.0654z" stroke="none" fill="#000000" fill-rule="nonzero" /><path id="232" transform="matrix(1 0 0 -1 0 842)" d="M223.0313 316.1416L223.5269 316.1416L223.5269 268.0654L223.0313 268.0654z" stroke="none" fill="#000000" fill-rule="nonzero" /><path id="233" transform="matrix(1 0 0 -1 0 842)" d="M223.0313 316.1416L273.0894 316.1416L273.0894 315.6455L223.0313 315.6455z" stroke="none" fill="#000000" fill-rule="nonzero" /><path id="234" transform="matrix(1 0 0 -1 0 842)" d="M223.0313 268.5615L273.0894 268.5615L273.0894 268.0654L223.0313 268.0654z" stroke="none" fill="#000000" fill-rule="nonzero" /><path id="235" transform="matrix(1 0 0 -1 0 842)" d="M223.0313 316.1416L223.5269 316.1416L223.5269 268.0654L223.0313 268.0654z" stroke="none" fill="#000000" fill-rule="nonzero" /><path id="236" transform="matrix(1 0 0 -1 0 842)" d="M272.5938 316.1416L273.0894 316.1416L273.0894 268.0654L272.5938 268.0654z" stroke="none" fill="#000000" fill-rule="nonzero" /><path id="237" transform="matrix(1 0 0 -1 0 842)" d="M272.5938 316.1416L421.7769 316.1416L421.7769 315.6455L272.5938 315.6455z" stroke="none" fill="#000000" fill-rule="nonzero" /><path id="238" transform="matrix(1 0 0 -1 0 842)" d="M272.5938 268.5615L421.7769 268.5615L421.7769 268.0654L272.5938 268.0654z" stroke="none" fill="#000000" fill-rule="nonzero" /><path id="239" transform="matrix(1 0 0 -1 0 842)" d="M272.5938 316.1416L273.0894 316.1416L273.0894 268.0654L272.5938 268.0654z" stroke="none" fill="#000000" fill-rule="nonzero" /><path id="240" transform="matrix(1 0 0 -1 0 842)" d="M421.2813 316.1416L421.7769 316.1416L421.7769 268.0654L421.2813 268.0654z" stroke="none" fill="#000000" fill-rule="nonzero" /><path id="241" transform="matrix(1 0 0 -1 0 842)" d="M421.2813 316.1416L471.3394 316.1416L471.3394 315.6455L421.2813 315.6455z" stroke="none" fill="#000000" fill-rule="nonzero" /><path id="242" transform="matrix(1 0 0 -1 0 842)" d="M421.2813 268.5615L471.3394 268.5615L471.3394 268.0654L421.2813 268.0654z" stroke="none" fill="#000000" fill-rule="nonzero" /><path id="243" transform="matrix(1 0 0 -1 0 842)" d="M421.2813 316.1416L421.7769 316.1416L421.7769 268.0654L421.2813 268.0654z" stroke="none" fill="#000000" fill-rule="nonzero" /><path id="244" transform="matrix(1 0 0 -1 0 842)" d="M470.8438 316.1416L471.3394 316.1416L471.3394 268.0654L470.8438 268.0654z" stroke="none" fill="#000000" fill-rule="nonzero" /><path id="245" transform="matrix(1 0 0 -1 0 842)" d="M148.6875 268.5615L223.5269 268.5615L223.5269 268.0654L148.6875 268.0654z" stroke="none" fill="#000000" fill-rule="nonzero" /><path id="246" transform="matrix(1 0 0 -1 0 842)" d="M148.6875 220.9814L223.5269 220.9814L223.5269 220.4854L148.6875 220.4854z" stroke="none" fill="#000000" fill-rule="nonzero" /><path id="247" transform="matrix(1 0 0 -1 0 842)" d="M148.6875 268.5615L149.1831 268.5615L149.1831 220.4854L148.6875 220.4854z" stroke="none" fill="#000000" fill-rule="nonzero" /><path id="248" transform="matrix(1 0 0 -1 0 842)" d="M223.0313 268.5615L223.5269 268.5615L223.5269 220.4854L223.0313 220.4854z" stroke="none" fill="#000000" fill-rule="nonzero" /><path id="249" transform="matrix(1 0 0 -1 0 842)" d="M223.0313 268.5615L273.0894 268.5615L273.0894 268.0654L223.0313 268.0654z" stroke="none" fill="#000000" fill-rule="nonzero" /><path id="250" transform="matrix(1 0 0 -1 0 842)" d="M223.0313 220.9814L273.0894 220.9814L273.0894 220.4854L223.0313 220.4854z" stroke="none" fill="#000000" fill-rule="nonzero" /><path id="251" transform="matrix(1 0 0 -1 0 842)" d="M223.0313 268.5615L223.5269 268.5615L223.5269 220.4854L223.0313 220.4854z" stroke="none" fill="#000000" fill-rule="nonzero" /><path id="252" transform="matrix(1 0 0 -1 0 842)" d="M272.5938 268.5615L273.0894 268.5615L273.0894 220.4854L272.5938 220.4854z" stroke="none" fill="#000000" fill-rule="nonzero" /><path id="253" transform="matrix(1 0 0 -1 0 842)" d="M272.5938 268.5615L421.7769 268.5615L421.7769 268.0654L272.5938 268.0654z" stroke="none" fill="#000000" fill-rule="nonzero" /><path id="254" transform="matrix(1 0 0 -1 0 842)" d="M272.5938 220.9814L421.7769 220.9814L421.7769 220.4854L272.5938 220.4854z" stroke="none" fill="#000000" fill-rule="nonzero" /><path id="255" transform="matrix(1 0 0 -1 0 842)" d="M272.5938 268.5615L273.0894 268.5615L273.0894 220.4854L272.5938 220.4854z" stroke="none" fill="#000000" fill-rule="nonzero" /><path id="256" transform="matrix(1 0 0 -1 0 842)" d="M421.2813 268.5615L421.7769 268.5615L421.7769 220.4854L421.2813 220.4854z" stroke="none" fill="#000000" fill-rule="nonzero" /><path id="257" transform="matrix(1 0 0 -1 0 842)" d="M421.2813 268.5615L471.3394 268.5615L471.3394 268.0654L421.2813 268.0654z" stroke="none" fill="#000000" fill-rule="nonzero" /><path id="258" transform="matrix(1 0 0 -1 0 842)" d="M421.2813 220.9814L471.3394 220.9814L471.3394 220.4854L421.2813 220.4854z" stroke="none" fill="#000000" fill-rule="nonzero" /><path id="259" transform="matrix(1 0 0 -1 0 842)" d="M421.2813 268.5615L421.7769 268.5615L421.7769 220.4854L421.2813 220.4854z" stroke="none" fill="#000000" fill-rule="nonzero" /><path id="260" transform="matrix(1 0 0 -1 0 842)" d="M470.8438 268.5615L471.3394 268.5615L471.3394 220.4854L470.8438 220.4854z" stroke="none" fill="#000000" fill-rule="nonzero" /><path id="261" transform="matrix(1 0 0 -1 0 842)" d="M148.6875 220.9814L223.5269 220.9814L223.5269 220.4854L148.6875 220.4854z" stroke="none" fill="#000000" fill-rule="nonzero" /><path id="262" transform="matrix(1 0 0 -1 0 842)" d="M148.6875 173.4014L223.5269 173.4014L223.5269 172.9053L148.6875 172.9053z" stroke="none" fill="#000000" fill-rule="nonzero" /><path id="263" transform="matrix(1 0 0 -1 0 842)" d="M148.6875 220.9814L149.1831 220.9814L149.1831 172.9053L148.6875 172.9053z" stroke="none" fill="#000000" fill-rule="nonzero" /><path id="264" transform="matrix(1 0 0 -1 0 842)" d="M223.0313 220.9814L223.5269 220.9814L223.5269 172.9053L223.0313 172.9053z" stroke="none" fill="#000000" fill-rule="nonzero" /><path id="265" transform="matrix(1 0 0 -1 0 842)" d="M223.0313 220.9814L273.0894 220.9814L273.0894 220.4854L223.0313 220.4854z" stroke="none" fill="#000000" fill-rule="nonzero" /><path id="266" transform="matrix(1 0 0 -1 0 842)" d="M223.0313 173.4014L273.0894 173.4014L273.0894 172.9053L223.0313 172.9053z" stroke="none" fill="#000000" fill-rule="nonzero" /><path id="267" transform="matrix(1 0 0 -1 0 842)" d="M223.0313 220.9814L223.5269 220.9814L223.5269 172.9053L223.0313 172.9053z" stroke="none" fill="#000000" fill-rule="nonzero" /><path id="268" transform="matrix(1 0 0 -1 0 842)" d="M272.5938 220.9814L273.0894 220.9814L273.0894 172.9053L272.5938 172.9053z" stroke="none" fill="#000000" fill-rule="nonzero" /><path id="269" transform="matrix(1 0 0 -1 0 842)" d="M272.5938 220.9814L421.7769 220.9814L421.7769 220.4854L272.5938 220.4854z" stroke="none" fill="#000000" fill-rule="nonzero" /><path id="270" transform="matrix(1 0 0 -1 0 842)" d="M272.5938 173.4014L421.7769 173.4014L421.7769 172.9053L272.5938 172.9053z" stroke="none" fill="#000000" fill-rule="nonzero" /><path id="271" transform="matrix(1 0 0 -1 0 842)" d="M272.5938 220.9814L273.0894 220.9814L273.0894 172.9053L272.5938 172.9053z" stroke="none" fill="#000000" fill-rule="nonzero" /><path id="272" transform="matrix(1 0 0 -1 0 842)" d="M421.2813 220.9814L421.7769 220.9814L421.7769 172.9053L421.2813 172.9053z" stroke="none" fill="#000000" fill-rule="nonzero" /><path id="273" transform="matrix(1 0 0 -1 0 842)" d="M421.2813 220.9814L471.3394 220.9814L471.3394 220.4854L421.2813 220.4854z" stroke="none" fill="#000000" fill-rule="nonzero" /><path id="274" transform="matrix(1 0 0 -1 0 842)" d="M421.2813 173.4014L471.3394 173.4014L471.3394 172.9053L421.2813 172.9053z" stroke="none" fill="#000000" fill-rule="nonzero" /><path id="275" transform="matrix(1 0 0 -1 0 842)" d="M421.2813 220.9814L421.7769 220.9814L421.7769 172.9053L421.2813 172.9053z" stroke="none" fill="#000000" fill-rule="nonzero" /><path id="276" transform="matrix(1 0 0 -1 0 842)" d="M470.8438 220.9814L471.3394 220.9814L471.3394 172.9053L470.8438 172.9053z" stroke="none" fill="#000000" fill-rule="nonzero" /><path id="277" transform="matrix(1 0 0 -1 0 842)" d="M49.5625 135.7334L74.34375 135.7334L74.34375 109.9609L49.5625 109.9609z" stroke="none" fill="#9CC9F0" fill-rule="nonzero" /><path id="278" transform="matrix(1 0 0 -1 0 842)" d="M74.34375 135.7334L148.6875 135.7334L148.6875 109.9609L74.34375 109.9609z" stroke="none" fill="#9CC9F0" fill-rule="nonzero" /><path id="279" transform="matrix(1 0 0 -1 0 842)" d="M148.6875 135.7334L223.0313 135.7334L223.0313 109.9609L148.6875 109.9609z" stroke="none" fill="#9CC9F0" fill-rule="nonzero" /><path id="280" transform="matrix(1 0 0 -1 0 842)" d="M223.0313 135.7334L272.5938 135.7334L272.5938 109.9609L223.0313 109.9609z" stroke="none" fill="#9CC9F0" fill-rule="nonzero" /><path id="281" transform="matrix(1 0 0 -1 0 842)" d="M272.5938 135.7334L421.2813 135.7334L421.2813 109.9609L272.5938 109.9609z" stroke="none" fill="#9CC9F0" fill-rule="nonzero" /><path id="282" transform="matrix(1 0 0 -1 0 842)" d="M421.2813 135.7334L470.8438 135.7334L470.8438 109.9609L421.2813 109.9609z" stroke="none" fill="#9CC9F0" fill-rule="nonzero" /><path id="283" transform="matrix(1 0 0 -1 0 842)" d="M470.8438 135.7334L544.6919 135.7334L544.6919 109.9609L470.8438 109.9609z" stroke="none" fill="#9CC9F0" fill-rule="nonzero" /><path id="284" transform="matrix(1 0 0 -1 0 842)" d="M49.5625 135.7334L74.83938 135.7334L74.83938 135.2383L49.5625 135.2383z" stroke="none" fill="#000000" fill-rule="nonzero" /><path id="285" transform="matrix(1 0 0 -1 0 842)" d="M49.5625 109.9609L74.83938 109.9609L74.83938 109.4658L49.5625 109.4658z" stroke="none" fill="#000000" fill-rule="nonzero" /><path id="286" transform="matrix(1 0 0 -1 0 842)" d="M49.5625 135.7334L50.05813 135.7334L50.05813 109.4658L49.5625 109.4658z" stroke="none" fill="#000000" fill-rule="nonzero" /><path id="287" transform="matrix(1 0 0 -1 0 842)" d="M74.34375 135.7334L74.83938 135.7334L74.83938 109.4658L74.34375 109.4658z" stroke="none" fill="#000000" fill-rule="nonzero" /><path id="288" transform="matrix(1 0 0 -1 0 842)" d="M74.34375 135.7334L149.1831 135.7334L149.1831 135.2383L74.34375 135.2383z" stroke="none" fill="#000000" fill-rule="nonzero" /><path id="289" transform="matrix(1 0 0 -1 0 842)" d="M74.34375 109.9609L149.1831 109.9609L149.1831 109.4658L74.34375 109.4658z" stroke="none" fill="#000000" fill-rule="nonzero" /><path id="290" transform="matrix(1 0 0 -1 0 842)" d="M74.34375 135.7334L74.83938 135.7334L74.83938 109.4658L74.34375 109.4658z" stroke="none" fill="#000000" fill-rule="nonzero" /><path id="291" transform="matrix(1 0 0 -1 0 842)" d="M148.6875 135.7334L149.1831 135.7334L149.1831 109.4658L148.6875 109.4658z" stroke="none" fill="#000000" fill-rule="nonzero" /><path id="292" transform="matrix(1 0 0 -1 0 842)" d="M148.6875 135.7334L223.5269 135.7334L223.5269 135.2383L148.6875 135.2383z" stroke="none" fill="#000000" fill-rule="nonzero" /><path id="293" transform="matrix(1 0 0 -1 0 842)" d="M148.6875 109.9609L223.5269 109.9609L223.5269 109.4658L148.6875 109.4658z" stroke="none" fill="#000000" fill-rule="nonzero" /><path id="294" transform="matrix(1 0 0 -1 0 842)" d="M148.6875 135.7334L149.1831 135.7334L149.1831 109.4658L148.6875 109.4658z" stroke="none" fill="#000000" fill-rule="nonzero" /><path id="295" transform="matrix(1 0 0 -1 0 842)" d="M223.0313 135.7334L223.5269 135.7334L223.5269 109.4658L223.0313 109.4658z" stroke="none" fill="#000000" fill-rule="nonzero" /><path id="296" transform="matrix(1 0 0 -1 0 842)" d="M223.0313 135.7334L273.0894 135.7334L273.0894 135.2383L223.0313 135.2383z" stroke="none" fill="#000000" fill-rule="nonzero" /><path id="297" transform="matrix(1 0 0 -1 0 842)" d="M223.0313 109.9609L273.0894 109.9609L273.0894 109.4658L223.0313 109.4658z" stroke="none" fill="#000000" fill-rule="nonzero" /><path id="298" transform="matrix(1 0 0 -1 0 842)" d="M223.0313 135.7334L223.5269 135.7334L223.5269 109.4658L223.0313 109.4658z" stroke="none" fill="#000000" fill-rule="nonzero" /><path id="299" transform="matrix(1 0 0 -1 0 842)" d="M272.5938 135.7334L273.0894 135.7334L273.0894 109.4658L272.5938 109.4658z" stroke="none" fill="#000000" fill-rule="nonzero" /><path id="300" transform="matrix(1 0 0 -1 0 842)" d="M272.5938 135.7334L421.7769 135.7334L421.7769 135.2383L272.5938 135.2383z" stroke="none" fill="#000000" fill-rule="nonzero" /><path id="301" transform="matrix(1 0 0 -1 0 842)" d="M272.5938 109.9609L421.7769 109.9609L421.7769 109.4658L272.5938 109.4658z" stroke="none" fill="#000000" fill-rule="nonzero" /><path id="302" transform="matrix(1 0 0 -1 0 842)" d="M272.5938 135.7334L273.0894 135.7334L273.0894 109.4658L272.5938 109.4658z" stroke="none" fill="#000000" fill-rule="nonzero" /><path id="303" transform="matrix(1 0 0 -1 0 842)" d="M421.2813 135.7334L421.7769 135.7334L421.7769 109.4658L421.2813 109.4658z" stroke="none" fill="#000000" fill-rule="nonzero" /><path id="304" transform="matrix(1 0 0 -1 0 842)" d="M421.2813 135.7334L471.3394 135.7334L471.3394 135.2383L421.2813 135.2383z" stroke="none" fill="#000000" fill-rule="nonzero" /><path id="305" transform="matrix(1 0 0 -1 0 842)" d="M421.2813 109.9609L471.3394 109.9609L471.3394 109.4658L421.2813 109.4658z" stroke="none" fill="#000000" fill-rule="nonzero" /><path id="306" transform="matrix(1 0 0 -1 0 842)" d="M421.2813 135.7334L421.7769 135.7334L421.7769 109.4658L421.2813 109.4658z" stroke="none" fill="#000000" fill-rule="nonzero" /><path id="307" transform="matrix(1 0 0 -1 0 842)" d="M470.8438 135.7334L471.3394 135.7334L471.3394 109.4658L470.8438 109.4658z" stroke="none" fill="#000000" fill-rule="nonzero" /><path id="308" transform="matrix(1 0 0 -1 0 842)" d="M470.8438 135.7334L545.1875 135.7334L545.1875 135.2383L470.8438 135.2383z" stroke="none" fill="#000000" fill-rule="nonzero" /><path id="309" transform="matrix(1 0 0 -1 0 842)" d="M470.8438 109.9609L545.1875 109.9609L545.1875 109.4658L470.8438 109.4658z" stroke="none" fill="#000000" fill-rule="nonzero" /><path id="310" transform="matrix(1 0 0 -1 0 842)" d="M470.8438 135.7334L471.3394 135.7334L471.3394 109.4658L470.8438 109.4658z" stroke="none" fill="#000000" fill-rule="nonzero" /><path id="311" transform="matrix(1 0 0 -1 0 842)" d="M544.6919 135.7334L545.1875 135.7334L545.1875 109.4658L544.6919 109.4658z" stroke="none" fill="#000000" fill-rule="nonzero" /><path id="312" transform="matrix(1 0 0 -1 0 842)" d="M49.5625 109.9609L74.83938 109.9609L74.83938 109.4658L49.5625 109.4658z" stroke="none" fill="#000000" fill-rule="nonzero" /><path id="313" transform="matrix(1 0 0 -1 0 842)" d="M49.5625 62.38086L74.83938 62.38086L74.83938 61.88574L49.5625 61.88574z" stroke="none" fill="#000000" fill-rule="nonzero" /><path id="314" transform="matrix(1 0 0 -1 0 842)" d="M49.5625 109.9609L50.05813 109.9609L50.05813 61.88574L49.5625 61.88574z" stroke="none" fill="#000000" fill-rule="nonzero" /><path id="315" transform="matrix(1 0 0 -1 0 842)" d="M74.34375 109.9609L74.83938 109.9609L74.83938 61.88574L74.34375 61.88574z" stroke="none" fill="#000000" fill-rule="nonzero" /><path id="316" transform="matrix(1 0 0 -1 0 842)" d="M74.34375 109.9609L149.1831 109.9609L149.1831 109.4658L74.34375 109.4658z" stroke="none" fill="#000000" fill-rule="nonzero" /><path id="317" transform="matrix(1 0 0 -1 0 842)" d="M74.34375 62.38086L149.1831 62.38086L149.1831 61.88574L74.34375 61.88574z" stroke="none" fill="#000000" fill-rule="nonzero" /><path id="318" transform="matrix(1 0 0 -1 0 842)" d="M74.34375 109.9609L74.83938 109.9609L74.83938 61.88574L74.34375 61.88574z" stroke="none" fill="#000000" fill-rule="nonzero" /><path id="319" transform="matrix(1 0 0 -1 0 842)" d="M148.6875 109.9609L149.1831 109.9609L149.1831 61.88574L148.6875 61.88574z" stroke="none" fill="#000000" fill-rule="nonzero" /><path id="320" transform="matrix(1 0 0 -1 0 842)" d="M148.6875 109.9609L223.5269 109.9609L223.5269 109.4658L148.6875 109.4658z" stroke="none" fill="#000000" fill-rule="nonzero" /><path id="321" transform="matrix(1 0 0 -1 0 842)" d="M148.6875 62.38086L223.5269 62.38086L223.5269 61.88574L148.6875 61.88574z" stroke="none" fill="#000000" fill-rule="nonzero" /><path id="322" transform="matrix(1 0 0 -1 0 842)" d="M148.6875 109.9609L149.1831 109.9609L149.1831 61.88574L148.6875 61.88574z" stroke="none" fill="#000000" fill-rule="nonzero" /><path id="323" transform="matrix(1 0 0 -1 0 842)" d="M223.0313 109.9609L223.5269 109.9609L223.5269 61.88574L223.0313 61.88574z" stroke="none" fill="#000000" fill-rule="nonzero" /><path id="324" transform="matrix(1 0 0 -1 0 842)" d="M223.0313 109.9609L273.0894 109.9609L273.0894 109.4658L223.0313 109.4658z" stroke="none" fill="#000000" fill-rule="nonzero" /><path id="325" transform="matrix(1 0 0 -1 0 842)" d="M223.0313 62.38086L273.0894 62.38086L273.0894 61.88574L223.0313 61.88574z" stroke="none" fill="#000000" fill-rule="nonzero" /><path id="326" transform="matrix(1 0 0 -1 0 842)" d="M223.0313 109.9609L223.5269 109.9609L223.5269 61.88574L223.0313 61.88574z" stroke="none" fill="#000000" fill-rule="nonzero" /><path id="327" transform="matrix(1 0 0 -1 0 842)" d="M272.5938 109.9609L273.0894 109.9609L273.0894 61.88574L272.5938 61.88574z" stroke="none" fill="#000000" fill-rule="nonzero" /><path id="328" transform="matrix(1 0 0 -1 0 842)" d="M272.5938 109.9609L421.7769 109.9609L421.7769 109.4658L272.5938 109.4658z" stroke="none" fill="#000000" fill-rule="nonzero" /><path id="329" transform="matrix(1 0 0 -1 0 842)" d="M272.5938 62.38086L421.7769 62.38086L421.7769 61.88574L272.5938 61.88574z" stroke="none" fill="#000000" fill-rule="nonzero" /><path id="330" transform="matrix(1 0 0 -1 0 842)" d="M272.5938 109.9609L273.0894 109.9609L273.0894 61.88574L272.5938 61.88574z" stroke="none" fill="#000000" fill-rule="nonzero" /><path id="331" transform="matrix(1 0 0 -1 0 842)" d="M421.2813 109.9609L421.7769 109.9609L421.7769 61.88574L421.2813 61.88574z" stroke="none" fill="#000000" fill-rule="nonzero" /><path id="332" transform="matrix(1 0 0 -1 0 842)" d="M421.2813 109.9609L471.3394 109.9609L471.3394 109.4658L421.2813 109.4658z" stroke="none" fill="#000000" fill-rule="nonzero" /><path id="333" transform="matrix(1 0 0 -1 0 842)" d="M421.2813 62.38086L471.3394 62.38086L471.3394 61.88574L421.2813 61.88574z" stroke="none" fill="#000000" fill-rule="nonzero" /><path id="334" transform="matrix(1 0 0 -1 0 842)" d="M421.2813 109.9609L421.7769 109.9609L421.7769 61.88574L421.2813 61.88574z" stroke="none" fill="#000000" fill-rule="nonzero" /><path id="335" transform="matrix(1 0 0 -1 0 842)" d="M470.8438 109.9609L471.3394 109.9609L471.3394 61.88574L470.8438 61.88574z" stroke="none" fill="#000000" fill-rule="nonzero" /><path id="336" transform="matrix(1 0 0 -1 0 842)" d="M470.8438 109.9609L545.1875 109.9609L545.1875 109.4658L470.8438 109.4658z" stroke="none" fill="#000000" fill-rule="nonzero" /><path id="337" transform="matrix(1 0 0 -1 0 842)" d="M470.8438 62.38086L545.1875 62.38086L545.1875 61.88574L470.8438 61.88574z" stroke="none" fill="#000000" fill-rule="nonzero" /><path id="338" transform="matrix(1 0 0 -1 0 842)" d="M470.8438 109.9609L471.3394 109.9609L471.3394 61.88574L470.8438 61.88574z" stroke="none" fill="#000000" fill-rule="nonzero" /><path id="339" transform="matrix(1 0 0 -1 0 842)" d="M544.6919 109.9609L545.1875 109.9609L545.1875 61.88574L544.6919 61.88574z" stroke="none" fill="#000000" fill-rule="nonzero" /></g></g></g></svg>