<svg xmlns="http://www.w3.org/2000/svg" xmlns:xlink="http://www.w3.org/1999/xlink" id="body_15" preserveAspectRatio="xMinYMin meet" viewBox="0 0 793 1123"><defs><clipPath id="1"><path id="" clip-rule="evenodd" transform="matrix(1 0 0 1 0 0)" d="M0 842L0 0L0 0L595 0L595 0L595 842L595 842L0 842z" /></clipPath><clipPath id="2"><path id="" clip-rule="evenodd" transform="matrix(1 0 0 1 0 0)" d="M0 0L594.75 0L594.75 0L594.75 842.0669L594.75 842.0669L0 842.0669L0 842.0669L0 0z" /></clipPath></defs><g transform="matrix(1.333333 0 0 1.333333 0 0)"><g clip-path="url(#1)"><g clip-path="url(#2)"><path id="1" transform="matrix(1 0 0 -1 0 842)" d="M0 842L594.75 842L594.75 -0.06738281L0 -0.06738281z" stroke="none" fill="#FFFFFF" fill-rule="nonzero" /><path id="2" transform="matrix(1 0 0 -1 0 842)" d="M49.5625 676.4609L74.34375 676.4609L74.34375 650.6885L49.5625 650.6885z" stroke="none" fill="#9CC9F0" fill-rule="nonzero" /><path id="3" transform="matrix(1 0 0 -1 0 842)" d="M74.34375 676.4609L148.6875 676.4609L148.6875 650.6885L74.34375 650.6885z" stroke="none" fill="#9CC9F0" fill-rule="nonzero" /><path id="4" transform="matrix(1 0 0 -1 0 842)" d="M148.6875 676.4609L223.0313 676.4609L223.0313 650.6885L148.6875 650.6885z" stroke="none" fill="#9CC9F0" fill-rule="nonzero" /><path id="5" transform="matrix(1 0 0 -1 0 842)" d="M223.0313 676.4609L272.5938 676.4609L272.5938 650.6885L223.0313 650.6885z" stroke="none" fill="#9CC9F0" fill-rule="nonzero" /><path id="6" transform="matrix(1 0 0 -1 0 842)" d="M272.5938 676.4609L421.2813 676.4609L421.2813 650.6885L272.5938 650.6885z" stroke="none" fill="#9CC9F0" fill-rule="nonzero" /><path id="7" transform="matrix(1 0 0 -1 0 842)" d="M421.2813 676.4609L470.8438 676.4609L470.8438 650.6885L421.2813 650.6885z" stroke="none" fill="#9CC9F0" fill-rule="nonzero" /><path id="8" transform="matrix(1 0 0 -1 0 842)" d="M470.8438 676.4609L544.6919 676.4609L544.6919 650.6885L470.8438 650.6885z" stroke="none" fill="#9CC9F0" fill-rule="nonzero" /><path id="9" transform="matrix(1 0 0 -1 0 842)" d="M49.5625 676.4609L74.83938 676.4609L74.83938 675.9658L49.5625 675.9658z" stroke="none" fill="#000000" fill-rule="nonzero" /><path id="10" transform="matrix(1 0 0 -1 0 842)" d="M49.5625 650.6885L74.83938 650.6885L74.83938 650.1934L49.5625 650.1934z" stroke="none" fill="#000000" fill-rule="nonzero" /><path id="11" transform="matrix(1 0 0 -1 0 842)" d="M49.5625 676.4609L50.05813 676.4609L50.05813 650.1934L49.5625 650.1934z" stroke="none" fill="#000000" fill-rule="nonzero" /><path id="12" transform="matrix(1 0 0 -1 0 842)" d="M74.34375 676.4609L74.83938 676.4609L74.83938 650.1934L74.34375 650.1934z" stroke="none" fill="#000000" fill-rule="nonzero" /><path id="13" transform="matrix(1 0 0 -1 0 842)" d="M74.34375 676.4609L149.1831 676.4609L149.1831 675.9658L74.34375 675.9658z" stroke="none" fill="#000000" fill-rule="nonzero" /><path id="14" transform="matrix(1 0 0 -1 0 842)" d="M74.34375 650.6885L149.1831 650.6885L149.1831 650.1934L74.34375 650.1934z" stroke="none" fill="#000000" fill-rule="nonzero" /><path id="15" transform="matrix(1 0 0 -1 0 842)" d="M74.34375 676.4609L74.83938 676.4609L74.83938 650.1934L74.34375 650.1934z" stroke="none" fill="#000000" fill-rule="nonzero" /><path id="16" transform="matrix(1 0 0 -1 0 842)" d="M148.6875 676.4609L149.1831 676.4609L149.1831 650.1934L148.6875 650.1934z" stroke="none" fill="#000000" fill-rule="nonzero" /><path id="17" transform="matrix(1 0 0 -1 0 842)" d="M148.6875 676.4609L223.5269 676.4609L223.5269 675.9658L148.6875 675.9658z" stroke="none" fill="#000000" fill-rule="nonzero" /><path id="18" transform="matrix(1 0 0 -1 0 842)" d="M148.6875 650.6885L223.5269 650.6885L223.5269 650.1934L148.6875 650.1934z" stroke="none" fill="#000000" fill-rule="nonzero" /><path id="19" transform="matrix(1 0 0 -1 0 842)" d="M148.6875 676.4609L149.1831 676.4609L149.1831 650.1934L148.6875 650.1934z" stroke="none" fill="#000000" fill-rule="nonzero" /><path id="20" transform="matrix(1 0 0 -1 0 842)" d="M223.0313 676.4609L223.5269 676.4609L223.5269 650.1934L223.0313 650.1934z" stroke="none" fill="#000000" fill-rule="nonzero" /><path id="21" transform="matrix(1 0 0 -1 0 842)" d="M223.0313 676.4609L273.0894 676.4609L273.0894 675.9658L223.0313 675.9658z" stroke="none" fill="#000000" fill-rule="nonzero" /><path id="22" transform="matrix(1 0 0 -1 0 842)" d="M223.0313 650.6885L273.0894 650.6885L273.0894 650.1934L223.0313 650.1934z" stroke="none" fill="#000000" fill-rule="nonzero" /><path id="23" transform="matrix(1 0 0 -1 0 842)" d="M223.0313 676.4609L223.5269 676.4609L223.5269 650.1934L223.0313 650.1934z" stroke="none" fill="#000000" fill-rule="nonzero" /><path id="24" transform="matrix(1 0 0 -1 0 842)" d="M272.5938 676.4609L273.0894 676.4609L273.0894 650.1934L272.5938 650.1934z" stroke="none" fill="#000000" fill-rule="nonzero" /><path id="25" transform="matrix(1 0 0 -1 0 842)" d="M272.5938 676.4609L421.7769 676.4609L421.7769 675.9658L272.5938 675.9658z" stroke="none" fill="#000000" fill-rule="nonzero" /><path id="26" transform="matrix(1 0 0 -1 0 842)" d="M272.5938 650.6885L421.7769 650.6885L421.7769 650.1934L272.5938 650.1934z" stroke="none" fill="#000000" fill-rule="nonzero" /><path id="27" transform="matrix(1 0 0 -1 0 842)" d="M272.5938 676.4609L273.0894 676.4609L273.0894 650.1934L272.5938 650.1934z" stroke="none" fill="#000000" fill-rule="nonzero" /><path id="28" transform="matrix(1 0 0 -1 0 842)" d="M421.2813 676.4609L421.7769 676.4609L421.7769 650.1934L421.2813 650.1934z" stroke="none" fill="#000000" fill-rule="nonzero" /><path id="29" transform="matrix(1 0 0 -1 0 842)" d="M421.2813 676.4609L471.3394 676.4609L471.3394 675.9658L421.2813 675.9658z" stroke="none" fill="#000000" fill-rule="nonzero" /><path id="30" transform="matrix(1 0 0 -1 0 842)" d="M421.2813 650.6885L471.3394 650.6885L471.3394 650.1934L421.2813 650.1934z" stroke="none" fill="#000000" fill-rule="nonzero" /><path id="31" transform="matrix(1 0 0 -1 0 842)" d="M421.2813 676.4609L421.7769 676.4609L421.7769 650.1934L421.2813 650.1934z" stroke="none" fill="#000000" fill-rule="nonzero" /><path id="32" transform="matrix(1 0 0 -1 0 842)" d="M470.8438 676.4609L471.3394 676.4609L471.3394 650.1934L470.8438 650.1934z" stroke="none" fill="#000000" fill-rule="nonzero" /><path id="33" transform="matrix(1 0 0 -1 0 842)" d="M470.8438 676.4609L545.1875 676.4609L545.1875 675.9658L470.8438 675.9658z" stroke="none" fill="#000000" fill-rule="nonzero" /><path id="34" transform="matrix(1 0 0 -1 0 842)" d="M470.8438 650.6885L545.1875 650.6885L545.1875 650.1934L470.8438 650.1934z" stroke="none" fill="#000000" fill-rule="nonzero" /><path id="35" transform="matrix(1 0 0 -1 0 842)" d="M470.8438 676.4609L471.3394 676.4609L471.3394 650.1934L470.8438 650.1934z" stroke="none" fill="#000000" fill-rule="nonzero" /><path id="36" transform="matrix(1 0 0 -1 0 842)" d="M544.6919 676.4609L545.1875 676.4609L545.1875 650.1934L544.6919 650.1934z" stroke="none" fill="#000000" fill-rule="nonzero" /><path id="37" transform="matrix(1 0 0 -1 0 842)" d="M49.5625 650.6885L74.83938 650.6885L74.83938 650.1934L49.5625 650.1934z" stroke="none" fill="#000000" fill-rule="nonzero" /><path id="38" transform="matrix(1 0 0 -1 0 842)" d="M49.5625 616.4902L74.83938 616.4902L74.83938 615.9951L49.5625 615.9951z" stroke="none" fill="#000000" fill-rule="nonzero" /><path id="39" transform="matrix(1 0 0 -1 0 842)" d="M49.5625 650.6885L50.05813 650.6885L50.05813 615.9951L49.5625 615.9951z" stroke="none" fill="#000000" fill-rule="nonzero" /><path id="40" transform="matrix(1 0 0 -1 0 842)" d="M74.34375 650.6885L74.83938 650.6885L74.83938 615.9951L74.34375 615.9951z" stroke="none" fill="#000000" fill-rule="nonzero" /><path id="41" transform="matrix(1 0 0 -1 0 842)" d="M74.34375 650.6885L149.1831 650.6885L149.1831 650.1934L74.34375 650.1934z" stroke="none" fill="#000000" fill-rule="nonzero" /><path id="42" transform="matrix(1 0 0 -1 0 842)" d="M74.34375 616.4902L149.1831 616.4902L149.1831 615.9951L74.34375 615.9951z" stroke="none" fill="#000000" fill-rule="nonzero" /><path id="43" transform="matrix(1 0 0 -1 0 842)" d="M74.34375 650.6885L74.83938 650.6885L74.83938 615.9951L74.34375 615.9951z" stroke="none" fill="#000000" fill-rule="nonzero" /><path id="44" transform="matrix(1 0 0 -1 0 842)" d="M148.6875 650.6885L149.1831 650.6885L149.1831 615.9951L148.6875 615.9951z" stroke="none" fill="#000000" fill-rule="nonzero" /><path id="45" transform="matrix(1 0 0 -1 0 842)" d="M148.6875 650.6885L223.5269 650.6885L223.5269 650.1934L148.6875 650.1934z" stroke="none" fill="#000000" fill-rule="nonzero" /><path id="46" transform="matrix(1 0 0 -1 0 842)" d="M148.6875 616.4902L223.5269 616.4902L223.5269 615.9951L148.6875 615.9951z" stroke="none" fill="#000000" fill-rule="nonzero" /><path id="47" transform="matrix(1 0 0 -1 0 842)" d="M148.6875 650.6885L149.1831 650.6885L149.1831 615.9951L148.6875 615.9951z" stroke="none" fill="#000000" fill-rule="nonzero" /><path id="48" transform="matrix(1 0 0 -1 0 842)" d="M223.0313 650.6885L223.5269 650.6885L223.5269 615.9951L223.0313 615.9951z" stroke="none" fill="#000000" fill-rule="nonzero" /><path id="49" transform="matrix(1 0 0 -1 0 842)" d="M223.0313 650.6885L273.0894 650.6885L273.0894 650.1934L223.0313 650.1934z" stroke="none" fill="#000000" fill-rule="nonzero" /><path id="50" transform="matrix(1 0 0 -1 0 842)" d="M223.0313 616.4902L273.0894 616.4902L273.0894 615.9951L223.0313 615.9951z" stroke="none" fill="#000000" fill-rule="nonzero" /><path id="51" transform="matrix(1 0 0 -1 0 842)" d="M223.0313 650.6885L223.5269 650.6885L223.5269 615.9951L223.0313 615.9951z" stroke="none" fill="#000000" fill-rule="nonzero" /><path id="52" transform="matrix(1 0 0 -1 0 842)" d="M272.5938 650.6885L273.0894 650.6885L273.0894 615.9951L272.5938 615.9951z" stroke="none" fill="#000000" fill-rule="nonzero" /><path id="53" transform="matrix(1 0 0 -1 0 842)" d="M272.5938 650.6885L421.7769 650.6885L421.7769 650.1934L272.5938 650.1934z" stroke="none" fill="#000000" fill-rule="nonzero" /><path id="54" transform="matrix(1 0 0 -1 0 842)" d="M272.5938 616.4902L421.7769 616.4902L421.7769 615.9951L272.5938 615.9951z" stroke="none" fill="#000000" fill-rule="nonzero" /><path id="55" transform="matrix(1 0 0 -1 0 842)" d="M272.5938 650.6885L273.0894 650.6885L273.0894 615.9951L272.5938 615.9951z" stroke="none" fill="#000000" fill-rule="nonzero" /><path id="56" transform="matrix(1 0 0 -1 0 842)" d="M421.2813 650.6885L421.7769 650.6885L421.7769 615.9951L421.2813 615.9951z" stroke="none" fill="#000000" fill-rule="nonzero" /><path id="57" transform="matrix(1 0 0 -1 0 842)" d="M421.2813 650.6885L471.3394 650.6885L471.3394 650.1934L421.2813 650.1934z" stroke="none" fill="#000000" fill-rule="nonzero" /><path id="58" transform="matrix(1 0 0 -1 0 842)" d="M421.2813 616.4902L471.3394 616.4902L471.3394 615.9951L421.2813 615.9951z" stroke="none" fill="#000000" fill-rule="nonzero" /><path id="59" transform="matrix(1 0 0 -1 0 842)" d="M421.2813 650.6885L421.7769 650.6885L421.7769 615.9951L421.2813 615.9951z" stroke="none" fill="#000000" fill-rule="nonzero" /><path id="60" transform="matrix(1 0 0 -1 0 842)" d="M470.8438 650.6885L471.3394 650.6885L471.3394 615.9951L470.8438 615.9951z" stroke="none" fill="#000000" fill-rule="nonzero" /><path id="61" transform="matrix(1 0 0 -1 0 842)" d="M470.8438 650.6885L545.1875 650.6885L545.1875 650.1934L470.8438 650.1934z" stroke="none" fill="#000000" fill-rule="nonzero" /><path id="62" transform="matrix(1 0 0 -1 0 842)" d="M470.8438 616.4902L545.1875 616.4902L545.1875 615.9951L470.8438 615.9951z" stroke="none" fill="#000000" fill-rule="nonzero" /><path id="63" transform="matrix(1 0 0 -1 0 842)" d="M470.8438 650.6885L471.3394 650.6885L471.3394 615.9951L470.8438 615.9951z" stroke="none" fill="#000000" fill-rule="nonzero" /><path id="64" transform="matrix(1 0 0 -1 0 842)" d="M544.6919 650.6885L545.1875 650.6885L545.1875 615.9951L544.6919 615.9951z" stroke="none" fill="#000000" fill-rule="nonzero" /><path id="65" transform="matrix(1 0 0 -1 0 842)" d="M49.5625 616.4902L74.83938 616.4902L74.83938 615.9951L49.5625 615.9951z" stroke="none" fill="#000000" fill-rule="nonzero" /><path id="66" transform="matrix(1 0 0 -1 0 842)" d="M49.5625 582.292L74.83938 582.292L74.83938 581.7969L49.5625 581.7969z" stroke="none" fill="#000000" fill-rule="nonzero" /><path id="67" transform="matrix(1 0 0 -1 0 842)" d="M49.5625 616.4902L50.05813 616.4902L50.05813 581.7969L49.5625 581.7969z" stroke="none" fill="#000000" fill-rule="nonzero" /><path id="68" transform="matrix(1 0 0 -1 0 842)" d="M74.34375 616.4902L74.83938 616.4902L74.83938 581.7969L74.34375 581.7969z" stroke="none" fill="#000000" fill-rule="nonzero" /><path id="69" transform="matrix(1 0 0 -1 0 842)" d="M74.34375 616.4902L149.1831 616.4902L149.1831 615.9951L74.34375 615.9951z" stroke="none" fill="#000000" fill-rule="nonzero" /><path id="70" transform="matrix(1 0 0 -1 0 842)" d="M74.34375 582.292L149.1831 582.292L149.1831 581.7969L74.34375 581.7969z" stroke="none" fill="#000000" fill-rule="nonzero" /><path id="71" transform="matrix(1 0 0 -1 0 842)" d="M74.34375 616.4902L74.83938 616.4902L74.83938 581.7969L74.34375 581.7969z" stroke="none" fill="#000000" fill-rule="nonzero" /><path id="72" transform="matrix(1 0 0 -1 0 842)" d="M148.6875 616.4902L149.1831 616.4902L149.1831 581.7969L148.6875 581.7969z" stroke="none" fill="#000000" fill-rule="nonzero" /><path id="73" transform="matrix(1 0 0 -1 0 842)" d="M148.6875 616.4902L223.5269 616.4902L223.5269 615.9951L148.6875 615.9951z" stroke="none" fill="#000000" fill-rule="nonzero" /><path id="74" transform="matrix(1 0 0 -1 0 842)" d="M148.6875 582.292L223.5269 582.292L223.5269 581.7969L148.6875 581.7969z" stroke="none" fill="#000000" fill-rule="nonzero" /><path id="75" transform="matrix(1 0 0 -1 0 842)" d="M148.6875 616.4902L149.1831 616.4902L149.1831 581.7969L148.6875 581.7969z" stroke="none" fill="#000000" fill-rule="nonzero" /><path id="76" transform="matrix(1 0 0 -1 0 842)" d="M223.0313 616.4902L223.5269 616.4902L223.5269 581.7969L223.0313 581.7969z" stroke="none" fill="#000000" fill-rule="nonzero" /><path id="77" transform="matrix(1 0 0 -1 0 842)" d="M223.0313 616.4902L273.0894 616.4902L273.0894 615.9951L223.0313 615.9951z" stroke="none" fill="#000000" fill-rule="nonzero" /><path id="78" transform="matrix(1 0 0 -1 0 842)" d="M223.0313 582.292L273.0894 582.292L273.0894 581.7969L223.0313 581.7969z" stroke="none" fill="#000000" fill-rule="nonzero" /><path id="79" transform="matrix(1 0 0 -1 0 842)" d="M223.0313 616.4902L223.5269 616.4902L223.5269 581.7969L223.0313 581.7969z" stroke="none" fill="#000000" fill-rule="nonzero" /><path id="80" transform="matrix(1 0 0 -1 0 842)" d="M272.5938 616.4902L273.0894 616.4902L273.0894 581.7969L272.5938 581.7969z" stroke="none" fill="#000000" fill-rule="nonzero" /><path id="81" transform="matrix(1 0 0 -1 0 842)" d="M272.5938 616.4902L421.7769 616.4902L421.7769 615.9951L272.5938 615.9951z" stroke="none" fill="#000000" fill-rule="nonzero" /><path id="82" transform="matrix(1 0 0 -1 0 842)" d="M272.5938 582.292L421.7769 582.292L421.7769 581.7969L272.5938 581.7969z" stroke="none" fill="#000000" fill-rule="nonzero" /><path id="83" transform="matrix(1 0 0 -1 0 842)" d="M272.5938 616.4902L273.0894 616.4902L273.0894 581.7969L272.5938 581.7969z" stroke="none" fill="#000000" fill-rule="nonzero" /><path id="84" transform="matrix(1 0 0 -1 0 842)" d="M421.2813 616.4902L421.7769 616.4902L421.7769 581.7969L421.2813 581.7969z" stroke="none" fill="#000000" fill-rule="nonzero" /><path id="85" transform="matrix(1 0 0 -1 0 842)" d="M421.2813 616.4902L471.3394 616.4902L471.3394 615.9951L421.2813 615.9951z" stroke="none" fill="#000000" fill-rule="nonzero" /><path id="86" transform="matrix(1 0 0 -1 0 842)" d="M421.2813 582.292L471.3394 582.292L471.3394 581.7969L421.2813 581.7969z" stroke="none" fill="#000000" fill-rule="nonzero" /><path id="87" transform="matrix(1 0 0 -1 0 842)" d="M421.2813 616.4902L421.7769 616.4902L421.7769 581.7969L421.2813 581.7969z" stroke="none" fill="#000000" fill-rule="nonzero" /><path id="88" transform="matrix(1 0 0 -1 0 842)" d="M470.8438 616.4902L471.3394 616.4902L471.3394 581.7969L470.8438 581.7969z" stroke="none" fill="#000000" fill-rule="nonzero" /><path id="89" transform="matrix(1 0 0 -1 0 842)" d="M470.8438 616.4902L545.1875 616.4902L545.1875 615.9951L470.8438 615.9951z" stroke="none" fill="#000000" fill-rule="nonzero" /><path id="90" transform="matrix(1 0 0 -1 0 842)" d="M470.8438 582.292L545.1875 582.292L545.1875 581.7969L470.8438 581.7969z" stroke="none" fill="#000000" fill-rule="nonzero" /><path id="91" transform="matrix(1 0 0 -1 0 842)" d="M470.8438 616.4902L471.3394 616.4902L471.3394 581.7969L470.8438 581.7969z" stroke="none" fill="#000000" fill-rule="nonzero" /><path id="92" transform="matrix(1 0 0 -1 0 842)" d="M544.6919 616.4902L545.1875 616.4902L545.1875 581.7969L544.6919 581.7969z" stroke="none" fill="#000000" fill-rule="nonzero" /><path id="93" transform="matrix(1 0 0 -1 0 842)" d="M49.5625 582.292L74.83938 582.292L74.83938 581.7969L49.5625 581.7969z" stroke="none" fill="#000000" fill-rule="nonzero" /><path id="94" transform="matrix(1 0 0 -1 0 842)" d="M49.5625 548.0938L74.83938 548.0938L74.83938 547.5986L49.5625 547.5986z" stroke="none" fill="#000000" fill-rule="nonzero" /><path id="95" transform="matrix(1 0 0 -1 0 842)" d="M49.5625 582.292L50.05813 582.292L50.05813 547.5986L49.5625 547.5986z" stroke="none" fill="#000000" fill-rule="nonzero" /><path id="96" transform="matrix(1 0 0 -1 0 842)" d="M74.34375 582.292L74.83938 582.292L74.83938 547.5986L74.34375 547.5986z" stroke="none" fill="#000000" fill-rule="nonzero" /><path id="97" transform="matrix(1 0 0 -1 0 842)" d="M74.34375 582.292L149.1831 582.292L149.1831 581.7969L74.34375 581.7969z" stroke="none" fill="#000000" fill-rule="nonzero" /><path id="98" transform="matrix(1 0 0 -1 0 842)" d="M74.34375 548.0938L149.1831 548.0938L149.1831 547.5986L74.34375 547.5986z" stroke="none" fill="#000000" fill-rule="nonzero" /><path id="99" transform="matrix(1 0 0 -1 0 842)" d="M74.34375 582.292L74.83938 582.292L74.83938 547.5986L74.34375 547.5986z" stroke="none" fill="#000000" fill-rule="nonzero" /><path id="100" transform="matrix(1 0 0 -1 0 842)" d="M148.6875 582.292L149.1831 582.292L149.1831 547.5986L148.6875 547.5986z" stroke="none" fill="#000000" fill-rule="nonzero" /><path id="101" transform="matrix(1 0 0 -1 0 842)" d="M148.6875 582.292L223.5269 582.292L223.5269 581.7969L148.6875 581.7969z" stroke="none" fill="#000000" fill-rule="nonzero" /><path id="102" transform="matrix(1 0 0 -1 0 842)" d="M148.6875 548.0938L223.5269 548.0938L223.5269 547.5986L148.6875 547.5986z" stroke="none" fill="#000000" fill-rule="nonzero" /><path id="103" transform="matrix(1 0 0 -1 0 842)" d="M148.6875 582.292L149.1831 582.292L149.1831 547.5986L148.6875 547.5986z" stroke="none" fill="#000000" fill-rule="nonzero" /><path id="104" transform="matrix(1 0 0 -1 0 842)" d="M223.0313 582.292L223.5269 582.292L223.5269 547.5986L223.0313 547.5986z" stroke="none" fill="#000000" fill-rule="nonzero" /><path id="105" transform="matrix(1 0 0 -1 0 842)" d="M223.0313 582.292L273.0894 582.292L273.0894 581.7969L223.0313 581.7969z" stroke="none" fill="#000000" fill-rule="nonzero" /><path id="106" transform="matrix(1 0 0 -1 0 842)" d="M223.0313 548.0938L273.0894 548.0938L273.0894 547.5986L223.0313 547.5986z" stroke="none" fill="#000000" fill-rule="nonzero" /><path id="107" transform="matrix(1 0 0 -1 0 842)" d="M223.0313 582.292L223.5269 582.292L223.5269 547.5986L223.0313 547.5986z" stroke="none" fill="#000000" fill-rule="nonzero" /><path id="108" transform="matrix(1 0 0 -1 0 842)" d="M272.5938 582.292L273.0894 582.292L273.0894 547.5986L272.5938 547.5986z" stroke="none" fill="#000000" fill-rule="nonzero" /><path id="109" transform="matrix(1 0 0 -1 0 842)" d="M272.5938 582.292L421.7769 582.292L421.7769 581.7969L272.5938 581.7969z" stroke="none" fill="#000000" fill-rule="nonzero" /><path id="110" transform="matrix(1 0 0 -1 0 842)" d="M272.5938 548.0938L421.7769 548.0938L421.7769 547.5986L272.5938 547.5986z" stroke="none" fill="#000000" fill-rule="nonzero" /><path id="111" transform="matrix(1 0 0 -1 0 842)" d="M272.5938 582.292L273.0894 582.292L273.0894 547.5986L272.5938 547.5986z" stroke="none" fill="#000000" fill-rule="nonzero" /><path id="112" transform="matrix(1 0 0 -1 0 842)" d="M421.2813 582.292L421.7769 582.292L421.7769 547.5986L421.2813 547.5986z" stroke="none" fill="#000000" fill-rule="nonzero" /><path id="113" transform="matrix(1 0 0 -1 0 842)" d="M421.2813 582.292L471.3394 582.292L471.3394 581.7969L421.2813 581.7969z" stroke="none" fill="#000000" fill-rule="nonzero" /><path id="114" transform="matrix(1 0 0 -1 0 842)" d="M421.2813 548.0938L471.3394 548.0938L471.3394 547.5986L421.2813 547.5986z" stroke="none" fill="#000000" fill-rule="nonzero" /><path id="115" transform="matrix(1 0 0 -1 0 842)" d="M421.2813 582.292L421.7769 582.292L421.7769 547.5986L421.2813 547.5986z" stroke="none" fill="#000000" fill-rule="nonzero" /><path id="116" transform="matrix(1 0 0 -1 0 842)" d="M470.8438 582.292L471.3394 582.292L471.3394 547.5986L470.8438 547.5986z" stroke="none" fill="#000000" fill-rule="nonzero" /><path id="117" transform="matrix(1 0 0 -1 0 842)" d="M470.8438 582.292L545.1875 582.292L545.1875 581.7969L470.8438 581.7969z" stroke="none" fill="#000000" fill-rule="nonzero" /><path id="118" transform="matrix(1 0 0 -1 0 842)" d="M470.8438 548.0938L545.1875 548.0938L545.1875 547.5986L470.8438 547.5986z" stroke="none" fill="#000000" fill-rule="nonzero" /><path id="119" transform="matrix(1 0 0 -1 0 842)" d="M470.8438 582.292L471.3394 582.292L471.3394 547.5986L470.8438 547.5986z" stroke="none" fill="#000000" fill-rule="nonzero" /><path id="120" transform="matrix(1 0 0 -1 0 842)" d="M544.6919 582.292L545.1875 582.292L545.1875 547.5986L544.6919 547.5986z" stroke="none" fill="#000000" fill-rule="nonzero" /><path id="121" transform="matrix(1 0 0 -1 0 842)" d="M49.5625 548.0938L74.83938 548.0938L74.83938 547.5986L49.5625 547.5986z" stroke="none" fill="#000000" fill-rule="nonzero" /><path id="122" transform="matrix(1 0 0 -1 0 842)" d="M49.5625 513.8965L74.83938 513.8965L74.83938 513.4004L49.5625 513.4004z" stroke="none" fill="#000000" fill-rule="nonzero" /><path id="123" transform="matrix(1 0 0 -1 0 842)" d="M49.5625 548.0938L50.05813 548.0938L50.05813 513.4004L49.5625 513.4004z" stroke="none" fill="#000000" fill-rule="nonzero" /><path id="124" transform="matrix(1 0 0 -1 0 842)" d="M74.34375 548.0938L74.83938 548.0938L74.83938 513.4004L74.34375 513.4004z" stroke="none" fill="#000000" fill-rule="nonzero" /><path id="125" transform="matrix(1 0 0 -1 0 842)" d="M74.34375 548.0938L149.1831 548.0938L149.1831 547.5986L74.34375 547.5986z" stroke="none" fill="#000000" fill-rule="nonzero" /><path id="126" transform="matrix(1 0 0 -1 0 842)" d="M74.34375 513.8965L149.1831 513.8965L149.1831 513.4004L74.34375 513.4004z" stroke="none" fill="#000000" fill-rule="nonzero" /><path id="127" transform="matrix(1 0 0 -1 0 842)" d="M74.34375 548.0938L74.83938 548.0938L74.83938 513.4004L74.34375 513.4004z" stroke="none" fill="#000000" fill-rule="nonzero" /><path id="128" transform="matrix(1 0 0 -1 0 842)" d="M148.6875 548.0938L149.1831 548.0938L149.1831 513.4004L148.6875 513.4004z" stroke="none" fill="#000000" fill-rule="nonzero" /><path id="129" transform="matrix(1 0 0 -1 0 842)" d="M148.6875 548.0938L223.5269 548.0938L223.5269 547.5986L148.6875 547.5986z" stroke="none" fill="#000000" fill-rule="nonzero" /><path id="130" transform="matrix(1 0 0 -1 0 842)" d="M148.6875 513.8965L223.5269 513.8965L223.5269 513.4004L148.6875 513.4004z" stroke="none" fill="#000000" fill-rule="nonzero" /><path id="131" transform="matrix(1 0 0 -1 0 842)" d="M148.6875 548.0938L149.1831 548.0938L149.1831 513.4004L148.6875 513.4004z" stroke="none" fill="#000000" fill-rule="nonzero" /><path id="132" transform="matrix(1 0 0 -1 0 842)" d="M223.0313 548.0938L223.5269 548.0938L223.5269 513.4004L223.0313 513.4004z" stroke="none" fill="#000000" fill-rule="nonzero" /><path id="133" transform="matrix(1 0 0 -1 0 842)" d="M223.0313 548.0938L273.0894 548.0938L273.0894 547.5986L223.0313 547.5986z" stroke="none" fill="#000000" fill-rule="nonzero" /><path id="134" transform="matrix(1 0 0 -1 0 842)" d="M223.0313 513.8965L273.0894 513.8965L273.0894 513.4004L223.0313 513.4004z" stroke="none" fill="#000000" fill-rule="nonzero" /><path id="135" transform="matrix(1 0 0 -1 0 842)" d="M223.0313 548.0938L223.5269 548.0938L223.5269 513.4004L223.0313 513.4004z" stroke="none" fill="#000000" fill-rule="nonzero" /><path id="136" transform="matrix(1 0 0 -1 0 842)" d="M272.5938 548.0938L273.0894 548.0938L273.0894 513.4004L272.5938 513.4004z" stroke="none" fill="#000000" fill-rule="nonzero" /><path id="137" transform="matrix(1 0 0 -1 0 842)" d="M272.5938 548.0938L421.7769 548.0938L421.7769 547.5986L272.5938 547.5986z" stroke="none" fill="#000000" fill-rule="nonzero" /><path id="138" transform="matrix(1 0 0 -1 0 842)" d="M272.5938 513.8965L421.7769 513.8965L421.7769 513.4004L272.5938 513.4004z" stroke="none" fill="#000000" fill-rule="nonzero" /><path id="139" transform="matrix(1 0 0 -1 0 842)" d="M272.5938 548.0938L273.0894 548.0938L273.0894 513.4004L272.5938 513.4004z" stroke="none" fill="#000000" fill-rule="nonzero" /><path id="140" transform="matrix(1 0 0 -1 0 842)" d="M421.2813 548.0938L421.7769 548.0938L421.7769 513.4004L421.2813 513.4004z" stroke="none" fill="#000000" fill-rule="nonzero" /><path id="141" transform="matrix(1 0 0 -1 0 842)" d="M421.2813 548.0938L471.3394 548.0938L471.3394 547.5986L421.2813 547.5986z" stroke="none" fill="#000000" fill-rule="nonzero" /><path id="142" transform="matrix(1 0 0 -1 0 842)" d="M421.2813 513.8965L471.3394 513.8965L471.3394 513.4004L421.2813 513.4004z" stroke="none" fill="#000000" fill-rule="nonzero" /><path id="143" transform="matrix(1 0 0 -1 0 842)" d="M421.2813 548.0938L421.7769 548.0938L421.7769 513.4004L421.2813 513.4004z" stroke="none" fill="#000000" fill-rule="nonzero" /><path id="144" transform="matrix(1 0 0 -1 0 842)" d="M470.8438 548.0938L471.3394 548.0938L471.3394 513.4004L470.8438 513.4004z" stroke="none" fill="#000000" fill-rule="nonzero" /><path id="145" transform="matrix(1 0 0 -1 0 842)" d="M470.8438 548.0938L545.1875 548.0938L545.1875 547.5986L470.8438 547.5986z" stroke="none" fill="#000000" fill-rule="nonzero" /><path id="146" transform="matrix(1 0 0 -1 0 842)" d="M470.8438 513.8965L545.1875 513.8965L545.1875 513.4004L470.8438 513.4004z" stroke="none" fill="#000000" fill-rule="nonzero" /><path id="147" transform="matrix(1 0 0 -1 0 842)" d="M470.8438 548.0938L471.3394 548.0938L471.3394 513.4004L470.8438 513.4004z" stroke="none" fill="#000000" fill-rule="nonzero" /><path id="148" transform="matrix(1 0 0 -1 0 842)" d="M544.6919 548.0938L545.1875 548.0938L545.1875 513.4004L544.6919 513.4004z" stroke="none" fill="#000000" fill-rule="nonzero" /><path id="149" transform="matrix(1 0 0 -1 0 842)" d="M49.5625 513.8965L74.83938 513.8965L74.83938 513.4004L49.5625 513.4004z" stroke="none" fill="#000000" fill-rule="nonzero" /><path id="150" transform="matrix(1 0 0 -1 0 842)" d="M49.5625 419.7275L74.83938 419.7275L74.83938 419.2314L49.5625 419.2314z" stroke="none" fill="#000000" fill-rule="nonzero" /><path id="151" transform="matrix(1 0 0 -1 0 842)" d="M49.5625 513.8965L50.05813 513.8965L50.05813 419.2314L49.5625 419.2314z" stroke="none" fill="#000000" fill-rule="nonzero" /><path id="152" transform="matrix(1 0 0 -1 0 842)" d="M74.34375 513.8965L74.83938 513.8965L74.83938 419.2314L74.34375 419.2314z" stroke="none" fill="#000000" fill-rule="nonzero" /><path id="153" transform="matrix(1 0 0 -1 0 842)" d="M74.34375 513.8965L149.1831 513.8965L149.1831 513.4004L74.34375 513.4004z" stroke="none" fill="#000000" fill-rule="nonzero" /><path id="154" transform="matrix(1 0 0 -1 0 842)" d="M74.34375 419.7275L149.1831 419.7275L149.1831 419.2314L74.34375 419.2314z" stroke="none" fill="#000000" fill-rule="nonzero" /><path id="155" transform="matrix(1 0 0 -1 0 842)" d="M74.34375 513.8965L74.83938 513.8965L74.83938 419.2314L74.34375 419.2314z" stroke="none" fill="#000000" fill-rule="nonzero" /><path id="156" transform="matrix(1 0 0 -1 0 842)" d="M148.6875 513.8965L149.1831 513.8965L149.1831 419.2314L148.6875 419.2314z" stroke="none" fill="#000000" fill-rule="nonzero" /><path id="157" transform="matrix(1 0 0 -1 0 842)" d="M148.6875 513.8965L223.5269 513.8965L223.5269 513.4004L148.6875 513.4004z" stroke="none" fill="#000000" fill-rule="nonzero" /><path id="158" transform="matrix(1 0 0 -1 0 842)" d="M148.6875 488.124L223.5269 488.124L223.5269 487.6279L148.6875 487.6279z" stroke="none" fill="#000000" fill-rule="nonzero" /><path id="159" transform="matrix(1 0 0 -1 0 842)" d="M148.6875 513.8965L149.1831 513.8965L149.1831 487.6279L148.6875 487.6279z" stroke="none" fill="#000000" fill-rule="nonzero" /><path id="160" transform="matrix(1 0 0 -1 0 842)" d="M223.0313 513.8965L223.5269 513.8965L223.5269 487.6279L223.0313 487.6279z" stroke="none" fill="#000000" fill-rule="nonzero" /><path id="161" transform="matrix(1 0 0 -1 0 842)" d="M223.0313 513.8965L273.0894 513.8965L273.0894 513.4004L223.0313 513.4004z" stroke="none" fill="#000000" fill-rule="nonzero" /><path id="162" transform="matrix(1 0 0 -1 0 842)" d="M223.0313 488.124L273.0894 488.124L273.0894 487.6279L223.0313 487.6279z" stroke="none" fill="#000000" fill-rule="nonzero" /><path id="163" transform="matrix(1 0 0 -1 0 842)" d="M223.0313 513.8965L223.5269 513.8965L223.5269 487.6279L223.0313 487.6279z" stroke="none" fill="#000000" fill-rule="nonzero" /><path id="164" transform="matrix(1 0 0 -1 0 842)" d="M272.5938 513.8965L273.0894 513.8965L273.0894 487.6279L272.5938 487.6279z" stroke="none" fill="#000000" fill-rule="nonzero" /><path id="165" transform="matrix(1 0 0 -1 0 842)" d="M272.5938 513.8965L421.7769 513.8965L421.7769 513.4004L272.5938 513.4004z" stroke="none" fill="#000000" fill-rule="nonzero" /><path id="166" transform="matrix(1 0 0 -1 0 842)" d="M272.5938 488.124L421.7769 488.124L421.7769 487.6279L272.5938 487.6279z" stroke="none" fill="#000000" fill-rule="nonzero" /><path id="167" transform="matrix(1 0 0 -1 0 842)" d="M272.5938 513.8965L273.0894 513.8965L273.0894 487.6279L272.5938 487.6279z" stroke="none" fill="#000000" fill-rule="nonzero" /><path id="168" transform="matrix(1 0 0 -1 0 842)" d="M421.2813 513.8965L421.7769 513.8965L421.7769 487.6279L421.2813 487.6279z" stroke="none" fill="#000000" fill-rule="nonzero" /><path id="169" transform="matrix(1 0 0 -1 0 842)" d="M421.2813 513.8965L471.3394 513.8965L471.3394 513.4004L421.2813 513.4004z" stroke="none" fill="#000000" fill-rule="nonzero" /><path id="170" transform="matrix(1 0 0 -1 0 842)" d="M421.2813 488.124L471.3394 488.124L471.3394 487.6279L421.2813 487.6279z" stroke="none" fill="#000000" fill-rule="nonzero" /><path id="171" transform="matrix(1 0 0 -1 0 842)" d="M421.2813 513.8965L421.7769 513.8965L421.7769 487.6279L421.2813 487.6279z" stroke="none" fill="#000000" fill-rule="nonzero" /><path id="172" transform="matrix(1 0 0 -1 0 842)" d="M470.8438 513.8965L471.3394 513.8965L471.3394 487.6279L470.8438 487.6279z" stroke="none" fill="#000000" fill-rule="nonzero" /><path id="173" transform="matrix(1 0 0 -1 0 842)" d="M470.8438 513.8965L545.1875 513.8965L545.1875 513.4004L470.8438 513.4004z" stroke="none" fill="#000000" fill-rule="nonzero" /><path id="174" transform="matrix(1 0 0 -1 0 842)" d="M470.8438 419.7275L545.1875 419.7275L545.1875 419.2314L470.8438 419.2314z" stroke="none" fill="#000000" fill-rule="nonzero" /><path id="175" transform="matrix(1 0 0 -1 0 842)" d="M470.8438 513.8965L471.3394 513.8965L471.3394 419.2314L470.8438 419.2314z" stroke="none" fill="#000000" fill-rule="nonzero" /><path id="176" transform="matrix(1 0 0 -1 0 842)" d="M544.6919 513.8965L545.1875 513.8965L545.1875 419.2314L544.6919 419.2314z" stroke="none" fill="#000000" fill-rule="nonzero" /><path id="177" transform="matrix(1 0 0 -1 0 842)" d="M148.6875 488.124L223.5269 488.124L223.5269 487.6279L148.6875 487.6279z" stroke="none" fill="#000000" fill-rule="nonzero" /><path id="178" transform="matrix(1 0 0 -1 0 842)" d="M148.6875 453.9258L223.5269 453.9258L223.5269 453.4297L148.6875 453.4297z" stroke="none" fill="#000000" fill-rule="nonzero" /><path id="179" transform="matrix(1 0 0 -1 0 842)" d="M148.6875 488.124L149.1831 488.124L149.1831 453.4297L148.6875 453.4297z" stroke="none" fill="#000000" fill-rule="nonzero" /><path id="180" transform="matrix(1 0 0 -1 0 842)" d="M223.0313 488.124L223.5269 488.124L223.5269 453.4297L223.0313 453.4297z" stroke="none" fill="#000000" fill-rule="nonzero" /><path id="181" transform="matrix(1 0 0 -1 0 842)" d="M223.0313 488.124L273.0894 488.124L273.0894 487.6279L223.0313 487.6279z" stroke="none" fill="#000000" fill-rule="nonzero" /><path id="182" transform="matrix(1 0 0 -1 0 842)" d="M223.0313 453.9258L273.0894 453.9258L273.0894 453.4297L223.0313 453.4297z" stroke="none" fill="#000000" fill-rule="nonzero" /><path id="183" transform="matrix(1 0 0 -1 0 842)" d="M223.0313 488.124L223.5269 488.124L223.5269 453.4297L223.0313 453.4297z" stroke="none" fill="#000000" fill-rule="nonzero" /><path id="184" transform="matrix(1 0 0 -1 0 842)" d="M272.5938 488.124L273.0894 488.124L273.0894 453.4297L272.5938 453.4297z" stroke="none" fill="#000000" fill-rule="nonzero" /><path id="185" transform="matrix(1 0 0 -1 0 842)" d="M272.5938 488.124L421.7769 488.124L421.7769 487.6279L272.5938 487.6279z" stroke="none" fill="#000000" fill-rule="nonzero" /><path id="186" transform="matrix(1 0 0 -1 0 842)" d="M272.5938 453.9258L421.7769 453.9258L421.7769 453.4297L272.5938 453.4297z" stroke="none" fill="#000000" fill-rule="nonzero" /><path id="187" transform="matrix(1 0 0 -1 0 842)" d="M272.5938 488.124L273.0894 488.124L273.0894 453.4297L272.5938 453.4297z" stroke="none" fill="#000000" fill-rule="nonzero" /><path id="188" transform="matrix(1 0 0 -1 0 842)" d="M421.2813 488.124L421.7769 488.124L421.7769 453.4297L421.2813 453.4297z" stroke="none" fill="#000000" fill-rule="nonzero" /><path id="189" transform="matrix(1 0 0 -1 0 842)" d="M421.2813 488.124L471.3394 488.124L471.3394 487.6279L421.2813 487.6279z" stroke="none" fill="#000000" fill-rule="nonzero" /><path id="190" transform="matrix(1 0 0 -1 0 842)" d="M421.2813 453.9258L471.3394 453.9258L471.3394 453.4297L421.2813 453.4297z" stroke="none" fill="#000000" fill-rule="nonzero" /><path id="191" transform="matrix(1 0 0 -1 0 842)" d="M421.2813 488.124L421.7769 488.124L421.7769 453.4297L421.2813 453.4297z" stroke="none" fill="#000000" fill-rule="nonzero" /><path id="192" transform="matrix(1 0 0 -1 0 842)" d="M470.8438 488.124L471.3394 488.124L471.3394 453.4297L470.8438 453.4297z" stroke="none" fill="#000000" fill-rule="nonzero" /><path id="193" transform="matrix(1 0 0 -1 0 842)" d="M148.6875 453.9258L223.5269 453.9258L223.5269 453.4297L148.6875 453.4297z" stroke="none" fill="#000000" fill-rule="nonzero" /><path id="194" transform="matrix(1 0 0 -1 0 842)" d="M148.6875 419.7275L223.5269 419.7275L223.5269 419.2314L148.6875 419.2314z" stroke="none" fill="#000000" fill-rule="nonzero" /><path id="195" transform="matrix(1 0 0 -1 0 842)" d="M148.6875 453.9258L149.1831 453.9258L149.1831 419.2314L148.6875 419.2314z" stroke="none" fill="#000000" fill-rule="nonzero" /><path id="196" transform="matrix(1 0 0 -1 0 842)" d="M223.0313 453.9258L223.5269 453.9258L223.5269 419.2314L223.0313 419.2314z" stroke="none" fill="#000000" fill-rule="nonzero" /><path id="197" transform="matrix(1 0 0 -1 0 842)" d="M223.0313 453.9258L273.0894 453.9258L273.0894 453.4297L223.0313 453.4297z" stroke="none" fill="#000000" fill-rule="nonzero" /><path id="198" transform="matrix(1 0 0 -1 0 842)" d="M223.0313 419.7275L273.0894 419.7275L273.0894 419.2314L223.0313 419.2314z" stroke="none" fill="#000000" fill-rule="nonzero" /><path id="199" transform="matrix(1 0 0 -1 0 842)" d="M223.0313 453.9258L223.5269 453.9258L223.5269 419.2314L223.0313 419.2314z" stroke="none" fill="#000000" fill-rule="nonzero" /><path id="200" transform="matrix(1 0 0 -1 0 842)" d="M272.5938 453.9258L273.0894 453.9258L273.0894 419.2314L272.5938 419.2314z" stroke="none" fill="#000000" fill-rule="nonzero" /><path id="201" transform="matrix(1 0 0 -1 0 842)" d="M272.5938 453.9258L421.7769 453.9258L421.7769 453.4297L272.5938 453.4297z" stroke="none" fill="#000000" fill-rule="nonzero" /><path id="202" transform="matrix(1 0 0 -1 0 842)" d="M272.5938 419.7275L421.7769 419.7275L421.7769 419.2314L272.5938 419.2314z" stroke="none" fill="#000000" fill-rule="nonzero" /><path id="203" transform="matrix(1 0 0 -1 0 842)" d="M272.5938 453.9258L273.0894 453.9258L273.0894 419.2314L272.5938 419.2314z" stroke="none" fill="#000000" fill-rule="nonzero" /><path id="204" transform="matrix(1 0 0 -1 0 842)" d="M421.2813 453.9258L421.7769 453.9258L421.7769 419.2314L421.2813 419.2314z" stroke="none" fill="#000000" fill-rule="nonzero" /><path id="205" transform="matrix(1 0 0 -1 0 842)" d="M421.2813 453.9258L471.3394 453.9258L471.3394 453.4297L421.2813 453.4297z" stroke="none" fill="#000000" fill-rule="nonzero" /><path id="206" transform="matrix(1 0 0 -1 0 842)" d="M421.2813 419.7275L471.3394 419.7275L471.3394 419.2314L421.2813 419.2314z" stroke="none" fill="#000000" fill-rule="nonzero" /><path id="207" transform="matrix(1 0 0 -1 0 842)" d="M421.2813 453.9258L421.7769 453.9258L421.7769 419.2314L421.2813 419.2314z" stroke="none" fill="#000000" fill-rule="nonzero" /><path id="208" transform="matrix(1 0 0 -1 0 842)" d="M470.8438 453.9258L471.3394 453.9258L471.3394 419.2314L470.8438 419.2314z" stroke="none" fill="#000000" fill-rule="nonzero" /><path id="209" transform="matrix(1 0 0 -1 0 842)" d="M49.5625 374.625L74.34375 374.625L74.34375 348.8525L49.5625 348.8525z" stroke="none" fill="#9CC9F0" fill-rule="nonzero" /><path id="210" transform="matrix(1 0 0 -1 0 842)" d="M74.34375 374.625L148.6875 374.625L148.6875 348.8525L74.34375 348.8525z" stroke="none" fill="#9CC9F0" fill-rule="nonzero" /><path id="211" transform="matrix(1 0 0 -1 0 842)" d="M148.6875 374.625L223.0313 374.625L223.0313 348.8525L148.6875 348.8525z" stroke="none" fill="#9CC9F0" fill-rule="nonzero" /><path id="212" transform="matrix(1 0 0 -1 0 842)" d="M223.0313 374.625L272.5938 374.625L272.5938 348.8525L223.0313 348.8525z" stroke="none" fill="#9CC9F0" fill-rule="nonzero" /><path id="213" transform="matrix(1 0 0 -1 0 842)" d="M272.5938 374.625L421.2813 374.625L421.2813 348.8525L272.5938 348.8525z" stroke="none" fill="#9CC9F0" fill-rule="nonzero" /><path id="214" transform="matrix(1 0 0 -1 0 842)" d="M421.2813 374.625L470.8438 374.625L470.8438 348.8525L421.2813 348.8525z" stroke="none" fill="#9CC9F0" fill-rule="nonzero" /><path id="215" transform="matrix(1 0 0 -1 0 842)" d="M470.8438 374.625L544.6919 374.625L544.6919 348.8525L470.8438 348.8525z" stroke="none" fill="#9CC9F0" fill-rule="nonzero" /><path id="216" transform="matrix(1 0 0 -1 0 842)" d="M49.5625 374.625L74.83938 374.625L74.83938 374.1299L49.5625 374.1299z" stroke="none" fill="#000000" fill-rule="nonzero" /><path id="217" transform="matrix(1 0 0 -1 0 842)" d="M49.5625 348.8525L74.83938 348.8525L74.83938 348.3574L49.5625 348.3574z" stroke="none" fill="#000000" fill-rule="nonzero" /><path id="218" transform="matrix(1 0 0 -1 0 842)" d="M49.5625 374.625L50.05813 374.625L50.05813 348.3574L49.5625 348.3574z" stroke="none" fill="#000000" fill-rule="nonzero" /><path id="219" transform="matrix(1 0 0 -1 0 842)" d="M74.34375 374.625L74.83938 374.625L74.83938 348.3574L74.34375 348.3574z" stroke="none" fill="#000000" fill-rule="nonzero" /><path id="220" transform="matrix(1 0 0 -1 0 842)" d="M74.34375 374.625L149.1831 374.625L149.1831 374.1299L74.34375 374.1299z" stroke="none" fill="#000000" fill-rule="nonzero" /><path id="221" transform="matrix(1 0 0 -1 0 842)" d="M74.34375 348.8525L149.1831 348.8525L149.1831 348.3574L74.34375 348.3574z" stroke="none" fill="#000000" fill-rule="nonzero" /><path id="222" transform="matrix(1 0 0 -1 0 842)" d="M74.34375 374.625L74.83938 374.625L74.83938 348.3574L74.34375 348.3574z" stroke="none" fill="#000000" fill-rule="nonzero" /><path id="223" transform="matrix(1 0 0 -1 0 842)" d="M148.6875 374.625L149.1831 374.625L149.1831 348.3574L148.6875 348.3574z" stroke="none" fill="#000000" fill-rule="nonzero" /><path id="224" transform="matrix(1 0 0 -1 0 842)" d="M148.6875 374.625L223.5269 374.625L223.5269 374.1299L148.6875 374.1299z" stroke="none" fill="#000000" fill-rule="nonzero" /><path id="225" transform="matrix(1 0 0 -1 0 842)" d="M148.6875 348.8525L223.5269 348.8525L223.5269 348.3574L148.6875 348.3574z" stroke="none" fill="#000000" fill-rule="nonzero" /><path id="226" transform="matrix(1 0 0 -1 0 842)" d="M148.6875 374.625L149.1831 374.625L149.1831 348.3574L148.6875 348.3574z" stroke="none" fill="#000000" fill-rule="nonzero" /><path id="227" transform="matrix(1 0 0 -1 0 842)" d="M223.0313 374.625L223.5269 374.625L223.5269 348.3574L223.0313 348.3574z" stroke="none" fill="#000000" fill-rule="nonzero" /><path id="228" transform="matrix(1 0 0 -1 0 842)" d="M223.0313 374.625L273.0894 374.625L273.0894 374.1299L223.0313 374.1299z" stroke="none" fill="#000000" fill-rule="nonzero" /><path id="229" transform="matrix(1 0 0 -1 0 842)" d="M223.0313 348.8525L273.0894 348.8525L273.0894 348.3574L223.0313 348.3574z" stroke="none" fill="#000000" fill-rule="nonzero" /><path id="230" transform="matrix(1 0 0 -1 0 842)" d="M223.0313 374.625L223.5269 374.625L223.5269 348.3574L223.0313 348.3574z" stroke="none" fill="#000000" fill-rule="nonzero" /><path id="231" transform="matrix(1 0 0 -1 0 842)" d="M272.5938 374.625L273.0894 374.625L273.0894 348.3574L272.5938 348.3574z" stroke="none" fill="#000000" fill-rule="nonzero" /><path id="232" transform="matrix(1 0 0 -1 0 842)" d="M272.5938 374.625L421.7769 374.625L421.7769 374.1299L272.5938 374.1299z" stroke="none" fill="#000000" fill-rule="nonzero" /><path id="233" transform="matrix(1 0 0 -1 0 842)" d="M272.5938 348.8525L421.7769 348.8525L421.7769 348.3574L272.5938 348.3574z" stroke="none" fill="#000000" fill-rule="nonzero" /><path id="234" transform="matrix(1 0 0 -1 0 842)" d="M272.5938 374.625L273.0894 374.625L273.0894 348.3574L272.5938 348.3574z" stroke="none" fill="#000000" fill-rule="nonzero" /><path id="235" transform="matrix(1 0 0 -1 0 842)" d="M421.2813 374.625L421.7769 374.625L421.7769 348.3574L421.2813 348.3574z" stroke="none" fill="#000000" fill-rule="nonzero" /><path id="236" transform="matrix(1 0 0 -1 0 842)" d="M421.2813 374.625L471.3394 374.625L471.3394 374.1299L421.2813 374.1299z" stroke="none" fill="#000000" fill-rule="nonzero" /><path id="237" transform="matrix(1 0 0 -1 0 842)" d="M421.2813 348.8525L471.3394 348.8525L471.3394 348.3574L421.2813 348.3574z" stroke="none" fill="#000000" fill-rule="nonzero" /><path id="238" transform="matrix(1 0 0 -1 0 842)" d="M421.2813 374.625L421.7769 374.625L421.7769 348.3574L421.2813 348.3574z" stroke="none" fill="#000000" fill-rule="nonzero" /><path id="239" transform="matrix(1 0 0 -1 0 842)" d="M470.8438 374.625L471.3394 374.625L471.3394 348.3574L470.8438 348.3574z" stroke="none" fill="#000000" fill-rule="nonzero" /><path id="240" transform="matrix(1 0 0 -1 0 842)" d="M470.8438 374.625L545.1875 374.625L545.1875 374.1299L470.8438 374.1299z" stroke="none" fill="#000000" fill-rule="nonzero" /><path id="241" transform="matrix(1 0 0 -1 0 842)" d="M470.8438 348.8525L545.1875 348.8525L545.1875 348.3574L470.8438 348.3574z" stroke="none" fill="#000000" fill-rule="nonzero" /><path id="242" transform="matrix(1 0 0 -1 0 842)" d="M470.8438 374.625L471.3394 374.625L471.3394 348.3574L470.8438 348.3574z" stroke="none" fill="#000000" fill-rule="nonzero" /><path id="243" transform="matrix(1 0 0 -1 0 842)" d="M544.6919 374.625L545.1875 374.625L545.1875 348.3574L544.6919 348.3574z" stroke="none" fill="#000000" fill-rule="nonzero" /><path id="244" transform="matrix(1 0 0 -1 0 842)" d="M49.5625 348.8525L74.83938 348.8525L74.83938 348.3574L49.5625 348.3574z" stroke="none" fill="#000000" fill-rule="nonzero" /><path id="245" transform="matrix(1 0 0 -1 0 842)" d="M49.5625 314.6553L74.83938 314.6553L74.83938 314.1592L49.5625 314.1592z" stroke="none" fill="#000000" fill-rule="nonzero" /><path id="246" transform="matrix(1 0 0 -1 0 842)" d="M49.5625 348.8525L50.05813 348.8525L50.05813 314.1592L49.5625 314.1592z" stroke="none" fill="#000000" fill-rule="nonzero" /><path id="247" transform="matrix(1 0 0 -1 0 842)" d="M74.34375 348.8525L74.83938 348.8525L74.83938 314.1592L74.34375 314.1592z" stroke="none" fill="#000000" fill-rule="nonzero" /><path id="248" transform="matrix(1 0 0 -1 0 842)" d="M74.34375 348.8525L149.1831 348.8525L149.1831 348.3574L74.34375 348.3574z" stroke="none" fill="#000000" fill-rule="nonzero" /><path id="249" transform="matrix(1 0 0 -1 0 842)" d="M74.34375 314.6553L149.1831 314.6553L149.1831 314.1592L74.34375 314.1592z" stroke="none" fill="#000000" fill-rule="nonzero" /><path id="250" transform="matrix(1 0 0 -1 0 842)" d="M74.34375 348.8525L74.83938 348.8525L74.83938 314.1592L74.34375 314.1592z" stroke="none" fill="#000000" fill-rule="nonzero" /><path id="251" transform="matrix(1 0 0 -1 0 842)" d="M148.6875 348.8525L149.1831 348.8525L149.1831 314.1592L148.6875 314.1592z" stroke="none" fill="#000000" fill-rule="nonzero" /><path id="252" transform="matrix(1 0 0 -1 0 842)" d="M148.6875 348.8525L223.5269 348.8525L223.5269 348.3574L148.6875 348.3574z" stroke="none" fill="#000000" fill-rule="nonzero" /><path id="253" transform="matrix(1 0 0 -1 0 842)" d="M148.6875 314.6553L223.5269 314.6553L223.5269 314.1592L148.6875 314.1592z" stroke="none" fill="#000000" fill-rule="nonzero" /><path id="254" transform="matrix(1 0 0 -1 0 842)" d="M148.6875 348.8525L149.1831 348.8525L149.1831 314.1592L148.6875 314.1592z" stroke="none" fill="#000000" fill-rule="nonzero" /><path id="255" transform="matrix(1 0 0 -1 0 842)" d="M223.0313 348.8525L223.5269 348.8525L223.5269 314.1592L223.0313 314.1592z" stroke="none" fill="#000000" fill-rule="nonzero" /><path id="256" transform="matrix(1 0 0 -1 0 842)" d="M223.0313 348.8525L273.0894 348.8525L273.0894 348.3574L223.0313 348.3574z" stroke="none" fill="#000000" fill-rule="nonzero" /><path id="257" transform="matrix(1 0 0 -1 0 842)" d="M223.0313 314.6553L273.0894 314.6553L273.0894 314.1592L223.0313 314.1592z" stroke="none" fill="#000000" fill-rule="nonzero" /><path id="258" transform="matrix(1 0 0 -1 0 842)" d="M223.0313 348.8525L223.5269 348.8525L223.5269 314.1592L223.0313 314.1592z" stroke="none" fill="#000000" fill-rule="nonzero" /><path id="259" transform="matrix(1 0 0 -1 0 842)" d="M272.5938 348.8525L273.0894 348.8525L273.0894 314.1592L272.5938 314.1592z" stroke="none" fill="#000000" fill-rule="nonzero" /><path id="260" transform="matrix(1 0 0 -1 0 842)" d="M272.5938 348.8525L421.7769 348.8525L421.7769 348.3574L272.5938 348.3574z" stroke="none" fill="#000000" fill-rule="nonzero" /><path id="261" transform="matrix(1 0 0 -1 0 842)" d="M272.5938 314.6553L421.7769 314.6553L421.7769 314.1592L272.5938 314.1592z" stroke="none" fill="#000000" fill-rule="nonzero" /><path id="262" transform="matrix(1 0 0 -1 0 842)" d="M272.5938 348.8525L273.0894 348.8525L273.0894 314.1592L272.5938 314.1592z" stroke="none" fill="#000000" fill-rule="nonzero" /><path id="263" transform="matrix(1 0 0 -1 0 842)" d="M421.2813 348.8525L421.7769 348.8525L421.7769 314.1592L421.2813 314.1592z" stroke="none" fill="#000000" fill-rule="nonzero" /><path id="264" transform="matrix(1 0 0 -1 0 842)" d="M421.2813 348.8525L471.3394 348.8525L471.3394 348.3574L421.2813 348.3574z" stroke="none" fill="#000000" fill-rule="nonzero" /><path id="265" transform="matrix(1 0 0 -1 0 842)" d="M421.2813 314.6553L471.3394 314.6553L471.3394 314.1592L421.2813 314.1592z" stroke="none" fill="#000000" fill-rule="nonzero" /><path id="266" transform="matrix(1 0 0 -1 0 842)" d="M421.2813 348.8525L421.7769 348.8525L421.7769 314.1592L421.2813 314.1592z" stroke="none" fill="#000000" fill-rule="nonzero" /><path id="267" transform="matrix(1 0 0 -1 0 842)" d="M470.8438 348.8525L471.3394 348.8525L471.3394 314.1592L470.8438 314.1592z" stroke="none" fill="#000000" fill-rule="nonzero" /><path id="268" transform="matrix(1 0 0 -1 0 842)" d="M470.8438 348.8525L545.1875 348.8525L545.1875 348.3574L470.8438 348.3574z" stroke="none" fill="#000000" fill-rule="nonzero" /><path id="269" transform="matrix(1 0 0 -1 0 842)" d="M470.8438 314.6553L545.1875 314.6553L545.1875 314.1592L470.8438 314.1592z" stroke="none" fill="#000000" fill-rule="nonzero" /><path id="270" transform="matrix(1 0 0 -1 0 842)" d="M470.8438 348.8525L471.3394 348.8525L471.3394 314.1592L470.8438 314.1592z" stroke="none" fill="#000000" fill-rule="nonzero" /><path id="271" transform="matrix(1 0 0 -1 0 842)" d="M544.6919 348.8525L545.1875 348.8525L545.1875 314.1592L544.6919 314.1592z" stroke="none" fill="#000000" fill-rule="nonzero" /><path id="272" transform="matrix(1 0 0 -1 0 842)" d="M49.5625 314.6553L74.83938 314.6553L74.83938 314.1592L49.5625 314.1592z" stroke="none" fill="#000000" fill-rule="nonzero" /><path id="273" transform="matrix(1 0 0 -1 0 842)" d="M49.5625 280.457L74.83938 280.457L74.83938 279.9609L49.5625 279.9609z" stroke="none" fill="#000000" fill-rule="nonzero" /><path id="274" transform="matrix(1 0 0 -1 0 842)" d="M49.5625 314.6553L50.05813 314.6553L50.05813 279.9609L49.5625 279.9609z" stroke="none" fill="#000000" fill-rule="nonzero" /><path id="275" transform="matrix(1 0 0 -1 0 842)" d="M74.34375 314.6553L74.83938 314.6553L74.83938 279.9609L74.34375 279.9609z" stroke="none" fill="#000000" fill-rule="nonzero" /><path id="276" transform="matrix(1 0 0 -1 0 842)" d="M74.34375 314.6553L149.1831 314.6553L149.1831 314.1592L74.34375 314.1592z" stroke="none" fill="#000000" fill-rule="nonzero" /><path id="277" transform="matrix(1 0 0 -1 0 842)" d="M74.34375 280.457L149.1831 280.457L149.1831 279.9609L74.34375 279.9609z" stroke="none" fill="#000000" fill-rule="nonzero" /><path id="278" transform="matrix(1 0 0 -1 0 842)" d="M74.34375 314.6553L74.83938 314.6553L74.83938 279.9609L74.34375 279.9609z" stroke="none" fill="#000000" fill-rule="nonzero" /><path id="279" transform="matrix(1 0 0 -1 0 842)" d="M148.6875 314.6553L149.1831 314.6553L149.1831 279.9609L148.6875 279.9609z" stroke="none" fill="#000000" fill-rule="nonzero" /><path id="280" transform="matrix(1 0 0 -1 0 842)" d="M148.6875 314.6553L223.5269 314.6553L223.5269 314.1592L148.6875 314.1592z" stroke="none" fill="#000000" fill-rule="nonzero" /><path id="281" transform="matrix(1 0 0 -1 0 842)" d="M148.6875 280.457L223.5269 280.457L223.5269 279.9609L148.6875 279.9609z" stroke="none" fill="#000000" fill-rule="nonzero" /><path id="282" transform="matrix(1 0 0 -1 0 842)" d="M148.6875 314.6553L149.1831 314.6553L149.1831 279.9609L148.6875 279.9609z" stroke="none" fill="#000000" fill-rule="nonzero" /><path id="283" transform="matrix(1 0 0 -1 0 842)" d="M223.0313 314.6553L223.5269 314.6553L223.5269 279.9609L223.0313 279.9609z" stroke="none" fill="#000000" fill-rule="nonzero" /><path id="284" transform="matrix(1 0 0 -1 0 842)" d="M223.0313 314.6553L273.0894 314.6553L273.0894 314.1592L223.0313 314.1592z" stroke="none" fill="#000000" fill-rule="nonzero" /><path id="285" transform="matrix(1 0 0 -1 0 842)" d="M223.0313 280.457L273.0894 280.457L273.0894 279.9609L223.0313 279.9609z" stroke="none" fill="#000000" fill-rule="nonzero" /><path id="286" transform="matrix(1 0 0 -1 0 842)" d="M223.0313 314.6553L223.5269 314.6553L223.5269 279.9609L223.0313 279.9609z" stroke="none" fill="#000000" fill-rule="nonzero" /><path id="287" transform="matrix(1 0 0 -1 0 842)" d="M272.5938 314.6553L273.0894 314.6553L273.0894 279.9609L272.5938 279.9609z" stroke="none" fill="#000000" fill-rule="nonzero" /><path id="288" transform="matrix(1 0 0 -1 0 842)" d="M272.5938 314.6553L421.7769 314.6553L421.7769 314.1592L272.5938 314.1592z" stroke="none" fill="#000000" fill-rule="nonzero" /><path id="289" transform="matrix(1 0 0 -1 0 842)" d="M272.5938 280.457L421.7769 280.457L421.7769 279.9609L272.5938 279.9609z" stroke="none" fill="#000000" fill-rule="nonzero" /><path id="290" transform="matrix(1 0 0 -1 0 842)" d="M272.5938 314.6553L273.0894 314.6553L273.0894 279.9609L272.5938 279.9609z" stroke="none" fill="#000000" fill-rule="nonzero" /><path id="291" transform="matrix(1 0 0 -1 0 842)" d="M421.2813 314.6553L421.7769 314.6553L421.7769 279.9609L421.2813 279.9609z" stroke="none" fill="#000000" fill-rule="nonzero" /><path id="292" transform="matrix(1 0 0 -1 0 842)" d="M421.2813 314.6553L471.3394 314.6553L471.3394 314.1592L421.2813 314.1592z" stroke="none" fill="#000000" fill-rule="nonzero" /><path id="293" transform="matrix(1 0 0 -1 0 842)" d="M421.2813 280.457L471.3394 280.457L471.3394 279.9609L421.2813 279.9609z" stroke="none" fill="#000000" fill-rule="nonzero" /><path id="294" transform="matrix(1 0 0 -1 0 842)" d="M421.2813 314.6553L421.7769 314.6553L421.7769 279.9609L421.2813 279.9609z" stroke="none" fill="#000000" fill-rule="nonzero" /><path id="295" transform="matrix(1 0 0 -1 0 842)" d="M470.8438 314.6553L471.3394 314.6553L471.3394 279.9609L470.8438 279.9609z" stroke="none" fill="#000000" fill-rule="nonzero" /><path id="296" transform="matrix(1 0 0 -1 0 842)" d="M470.8438 314.6553L545.1875 314.6553L545.1875 314.1592L470.8438 314.1592z" stroke="none" fill="#000000" fill-rule="nonzero" /><path id="297" transform="matrix(1 0 0 -1 0 842)" d="M470.8438 280.457L545.1875 280.457L545.1875 279.9609L470.8438 279.9609z" stroke="none" fill="#000000" fill-rule="nonzero" /><path id="298" transform="matrix(1 0 0 -1 0 842)" d="M470.8438 314.6553L471.3394 314.6553L471.3394 279.9609L470.8438 279.9609z" stroke="none" fill="#000000" fill-rule="nonzero" /><path id="299" transform="matrix(1 0 0 -1 0 842)" d="M544.6919 314.6553L545.1875 314.6553L545.1875 279.9609L544.6919 279.9609z" stroke="none" fill="#000000" fill-rule="nonzero" /></g></g></g></svg>