<svg xmlns="http://www.w3.org/2000/svg" xmlns:xlink="http://www.w3.org/1999/xlink" id="body_13" preserveAspectRatio="xMinYMin meet" viewBox="0 0 793 1123"><defs><clipPath id="1"><path id="" clip-rule="evenodd" transform="matrix(1 0 0 1 0 0)" d="M0 842L0 0L0 0L595 0L595 0L595 842L595 842L0 842z" /></clipPath><clipPath id="2"><path id="" clip-rule="evenodd" transform="matrix(1 0 0 1 0 0)" d="M0 0L594.75 0L594.75 0L594.75 842.0669L594.75 842.0669L0 842.0669L0 842.0669L0 0z" /></clipPath></defs><g transform="matrix(1.333333 0 0 1.333333 0 0)"><g clip-path="url(#1)"><g clip-path="url(#2)"><path id="1" transform="matrix(1 0 0 -1 0 842)" d="M0 842L594.75 842L594.75 -0.06738281L0 -0.06738281z" stroke="none" fill="#FFFFFF" fill-rule="nonzero" /><path id="2" transform="matrix(1 0 0 -1 0 842)" d="M49.5625 795.4111L74.34375 795.4111L74.34375 769.6387L49.5625 769.6387z" stroke="none" fill="#9CC9F0" fill-rule="nonzero" /><path id="3" transform="matrix(1 0 0 -1 0 842)" d="M74.34375 795.4111L148.6875 795.4111L148.6875 769.6387L74.34375 769.6387z" stroke="none" fill="#9CC9F0" fill-rule="nonzero" /><path id="4" transform="matrix(1 0 0 -1 0 842)" d="M148.6875 795.4111L198.25 795.4111L198.25 769.6387L148.6875 769.6387z" stroke="none" fill="#9CC9F0" fill-rule="nonzero" /><path id="5" transform="matrix(1 0 0 -1 0 842)" d="M198.25 795.4111L247.8125 795.4111L247.8125 769.6387L198.25 769.6387z" stroke="none" fill="#9CC9F0" fill-rule="nonzero" /><path id="6" transform="matrix(1 0 0 -1 0 842)" d="M247.8125 795.4111L421.2813 795.4111L421.2813 769.6387L247.8125 769.6387z" stroke="none" fill="#9CC9F0" fill-rule="nonzero" /><path id="7" transform="matrix(1 0 0 -1 0 842)" d="M421.2813 795.4111L470.8438 795.4111L470.8438 769.6387L421.2813 769.6387z" stroke="none" fill="#9CC9F0" fill-rule="nonzero" /><path id="8" transform="matrix(1 0 0 -1 0 842)" d="M470.8438 795.4111L544.6919 795.4111L544.6919 769.6387L470.8438 769.6387z" stroke="none" fill="#9CC9F0" fill-rule="nonzero" /><path id="9" transform="matrix(1 0 0 -1 0 842)" d="M49.5625 795.4111L74.83938 795.4111L74.83938 794.915L49.5625 794.915z" stroke="none" fill="#000000" fill-rule="nonzero" /><path id="10" transform="matrix(1 0 0 -1 0 842)" d="M49.5625 769.6387L74.83938 769.6387L74.83938 769.1426L49.5625 769.1426z" stroke="none" fill="#000000" fill-rule="nonzero" /><path id="11" transform="matrix(1 0 0 -1 0 842)" d="M49.5625 795.4111L50.05813 795.4111L50.05813 769.1426L49.5625 769.1426z" stroke="none" fill="#000000" fill-rule="nonzero" /><path id="12" transform="matrix(1 0 0 -1 0 842)" d="M74.34375 795.4111L74.83938 795.4111L74.83938 769.1426L74.34375 769.1426z" stroke="none" fill="#000000" fill-rule="nonzero" /><path id="13" transform="matrix(1 0 0 -1 0 842)" d="M74.34375 795.4111L149.1831 795.4111L149.1831 794.915L74.34375 794.915z" stroke="none" fill="#000000" fill-rule="nonzero" /><path id="14" transform="matrix(1 0 0 -1 0 842)" d="M74.34375 769.6387L149.1831 769.6387L149.1831 769.1426L74.34375 769.1426z" stroke="none" fill="#000000" fill-rule="nonzero" /><path id="15" transform="matrix(1 0 0 -1 0 842)" d="M74.34375 795.4111L74.83938 795.4111L74.83938 769.1426L74.34375 769.1426z" stroke="none" fill="#000000" fill-rule="nonzero" /><path id="16" transform="matrix(1 0 0 -1 0 842)" d="M148.6875 795.4111L149.1831 795.4111L149.1831 769.1426L148.6875 769.1426z" stroke="none" fill="#000000" fill-rule="nonzero" /><path id="17" transform="matrix(1 0 0 -1 0 842)" d="M148.6875 795.4111L198.7456 795.4111L198.7456 794.915L148.6875 794.915z" stroke="none" fill="#000000" fill-rule="nonzero" /><path id="18" transform="matrix(1 0 0 -1 0 842)" d="M148.6875 769.6387L198.7456 769.6387L198.7456 769.1426L148.6875 769.1426z" stroke="none" fill="#000000" fill-rule="nonzero" /><path id="19" transform="matrix(1 0 0 -1 0 842)" d="M148.6875 795.4111L149.1831 795.4111L149.1831 769.1426L148.6875 769.1426z" stroke="none" fill="#000000" fill-rule="nonzero" /><path id="20" transform="matrix(1 0 0 -1 0 842)" d="M198.25 795.4111L198.7456 795.4111L198.7456 769.1426L198.25 769.1426z" stroke="none" fill="#000000" fill-rule="nonzero" /><path id="21" transform="matrix(1 0 0 -1 0 842)" d="M198.25 795.4111L248.3081 795.4111L248.3081 794.915L198.25 794.915z" stroke="none" fill="#000000" fill-rule="nonzero" /><path id="22" transform="matrix(1 0 0 -1 0 842)" d="M198.25 769.6387L248.3081 769.6387L248.3081 769.1426L198.25 769.1426z" stroke="none" fill="#000000" fill-rule="nonzero" /><path id="23" transform="matrix(1 0 0 -1 0 842)" d="M198.25 795.4111L198.7456 795.4111L198.7456 769.1426L198.25 769.1426z" stroke="none" fill="#000000" fill-rule="nonzero" /><path id="24" transform="matrix(1 0 0 -1 0 842)" d="M247.8125 795.4111L248.3081 795.4111L248.3081 769.1426L247.8125 769.1426z" stroke="none" fill="#000000" fill-rule="nonzero" /><path id="25" transform="matrix(1 0 0 -1 0 842)" d="M247.8125 795.4111L421.7769 795.4111L421.7769 794.915L247.8125 794.915z" stroke="none" fill="#000000" fill-rule="nonzero" /><path id="26" transform="matrix(1 0 0 -1 0 842)" d="M247.8125 769.6387L421.7769 769.6387L421.7769 769.1426L247.8125 769.1426z" stroke="none" fill="#000000" fill-rule="nonzero" /><path id="27" transform="matrix(1 0 0 -1 0 842)" d="M247.8125 795.4111L248.3081 795.4111L248.3081 769.1426L247.8125 769.1426z" stroke="none" fill="#000000" fill-rule="nonzero" /><path id="28" transform="matrix(1 0 0 -1 0 842)" d="M421.2813 795.4111L421.7769 795.4111L421.7769 769.1426L421.2813 769.1426z" stroke="none" fill="#000000" fill-rule="nonzero" /><path id="29" transform="matrix(1 0 0 -1 0 842)" d="M421.2813 795.4111L471.3394 795.4111L471.3394 794.915L421.2813 794.915z" stroke="none" fill="#000000" fill-rule="nonzero" /><path id="30" transform="matrix(1 0 0 -1 0 842)" d="M421.2813 769.6387L471.3394 769.6387L471.3394 769.1426L421.2813 769.1426z" stroke="none" fill="#000000" fill-rule="nonzero" /><path id="31" transform="matrix(1 0 0 -1 0 842)" d="M421.2813 795.4111L421.7769 795.4111L421.7769 769.1426L421.2813 769.1426z" stroke="none" fill="#000000" fill-rule="nonzero" /><path id="32" transform="matrix(1 0 0 -1 0 842)" d="M470.8438 795.4111L471.3394 795.4111L471.3394 769.1426L470.8438 769.1426z" stroke="none" fill="#000000" fill-rule="nonzero" /><path id="33" transform="matrix(1 0 0 -1 0 842)" d="M470.8438 795.4111L545.1875 795.4111L545.1875 794.915L470.8438 794.915z" stroke="none" fill="#000000" fill-rule="nonzero" /><path id="34" transform="matrix(1 0 0 -1 0 842)" d="M470.8438 769.6387L545.1875 769.6387L545.1875 769.1426L470.8438 769.1426z" stroke="none" fill="#000000" fill-rule="nonzero" /><path id="35" transform="matrix(1 0 0 -1 0 842)" d="M470.8438 795.4111L471.3394 795.4111L471.3394 769.1426L470.8438 769.1426z" stroke="none" fill="#000000" fill-rule="nonzero" /><path id="36" transform="matrix(1 0 0 -1 0 842)" d="M544.6919 795.4111L545.1875 795.4111L545.1875 769.1426L544.6919 769.1426z" stroke="none" fill="#000000" fill-rule="nonzero" /><path id="37" transform="matrix(1 0 0 -1 0 842)" d="M49.5625 769.6387L74.83938 769.6387L74.83938 769.1426L49.5625 769.1426z" stroke="none" fill="#000000" fill-rule="nonzero" /><path id="38" transform="matrix(1 0 0 -1 0 842)" d="M49.5625 722.0586L74.83938 722.0586L74.83938 721.5625L49.5625 721.5625z" stroke="none" fill="#000000" fill-rule="nonzero" /><path id="39" transform="matrix(1 0 0 -1 0 842)" d="M49.5625 769.6387L50.05813 769.6387L50.05813 721.5625L49.5625 721.5625z" stroke="none" fill="#000000" fill-rule="nonzero" /><path id="40" transform="matrix(1 0 0 -1 0 842)" d="M74.34375 769.6387L74.83938 769.6387L74.83938 721.5625L74.34375 721.5625z" stroke="none" fill="#000000" fill-rule="nonzero" /><path id="41" transform="matrix(1 0 0 -1 0 842)" d="M74.34375 769.6387L149.1831 769.6387L149.1831 769.1426L74.34375 769.1426z" stroke="none" fill="#000000" fill-rule="nonzero" /><path id="42" transform="matrix(1 0 0 -1 0 842)" d="M74.34375 722.0586L149.1831 722.0586L149.1831 721.5625L74.34375 721.5625z" stroke="none" fill="#000000" fill-rule="nonzero" /><path id="43" transform="matrix(1 0 0 -1 0 842)" d="M74.34375 769.6387L74.83938 769.6387L74.83938 721.5625L74.34375 721.5625z" stroke="none" fill="#000000" fill-rule="nonzero" /><path id="44" transform="matrix(1 0 0 -1 0 842)" d="M148.6875 769.6387L149.1831 769.6387L149.1831 721.5625L148.6875 721.5625z" stroke="none" fill="#000000" fill-rule="nonzero" /><path id="45" transform="matrix(1 0 0 -1 0 842)" d="M148.6875 769.6387L198.7456 769.6387L198.7456 769.1426L148.6875 769.1426z" stroke="none" fill="#000000" fill-rule="nonzero" /><path id="46" transform="matrix(1 0 0 -1 0 842)" d="M148.6875 722.0586L198.7456 722.0586L198.7456 721.5625L148.6875 721.5625z" stroke="none" fill="#000000" fill-rule="nonzero" /><path id="47" transform="matrix(1 0 0 -1 0 842)" d="M148.6875 769.6387L149.1831 769.6387L149.1831 721.5625L148.6875 721.5625z" stroke="none" fill="#000000" fill-rule="nonzero" /><path id="48" transform="matrix(1 0 0 -1 0 842)" d="M198.25 769.6387L198.7456 769.6387L198.7456 721.5625L198.25 721.5625z" stroke="none" fill="#000000" fill-rule="nonzero" /><path id="49" transform="matrix(1 0 0 -1 0 842)" d="M198.25 769.6387L248.3081 769.6387L248.3081 769.1426L198.25 769.1426z" stroke="none" fill="#000000" fill-rule="nonzero" /><path id="50" transform="matrix(1 0 0 -1 0 842)" d="M198.25 722.0586L248.3081 722.0586L248.3081 721.5625L198.25 721.5625z" stroke="none" fill="#000000" fill-rule="nonzero" /><path id="51" transform="matrix(1 0 0 -1 0 842)" d="M198.25 769.6387L198.7456 769.6387L198.7456 721.5625L198.25 721.5625z" stroke="none" fill="#000000" fill-rule="nonzero" /><path id="52" transform="matrix(1 0 0 -1 0 842)" d="M247.8125 769.6387L248.3081 769.6387L248.3081 721.5625L247.8125 721.5625z" stroke="none" fill="#000000" fill-rule="nonzero" /><path id="53" transform="matrix(1 0 0 -1 0 842)" d="M247.8125 769.6387L421.7769 769.6387L421.7769 769.1426L247.8125 769.1426z" stroke="none" fill="#000000" fill-rule="nonzero" /><path id="54" transform="matrix(1 0 0 -1 0 842)" d="M247.8125 722.0586L421.7769 722.0586L421.7769 721.5625L247.8125 721.5625z" stroke="none" fill="#000000" fill-rule="nonzero" /><path id="55" transform="matrix(1 0 0 -1 0 842)" d="M247.8125 769.6387L248.3081 769.6387L248.3081 721.5625L247.8125 721.5625z" stroke="none" fill="#000000" fill-rule="nonzero" /><path id="56" transform="matrix(1 0 0 -1 0 842)" d="M421.2813 769.6387L421.7769 769.6387L421.7769 721.5625L421.2813 721.5625z" stroke="none" fill="#000000" fill-rule="nonzero" /><path id="57" transform="matrix(1 0 0 -1 0 842)" d="M421.2813 769.6387L471.3394 769.6387L471.3394 769.1426L421.2813 769.1426z" stroke="none" fill="#000000" fill-rule="nonzero" /><path id="58" transform="matrix(1 0 0 -1 0 842)" d="M421.2813 722.0586L471.3394 722.0586L471.3394 721.5625L421.2813 721.5625z" stroke="none" fill="#000000" fill-rule="nonzero" /><path id="59" transform="matrix(1 0 0 -1 0 842)" d="M421.2813 769.6387L421.7769 769.6387L421.7769 721.5625L421.2813 721.5625z" stroke="none" fill="#000000" fill-rule="nonzero" /><path id="60" transform="matrix(1 0 0 -1 0 842)" d="M470.8438 769.6387L471.3394 769.6387L471.3394 721.5625L470.8438 721.5625z" stroke="none" fill="#000000" fill-rule="nonzero" /><path id="61" transform="matrix(1 0 0 -1 0 842)" d="M470.8438 769.6387L545.1875 769.6387L545.1875 769.1426L470.8438 769.1426z" stroke="none" fill="#000000" fill-rule="nonzero" /><path id="62" transform="matrix(1 0 0 -1 0 842)" d="M470.8438 722.0586L545.1875 722.0586L545.1875 721.5625L470.8438 721.5625z" stroke="none" fill="#000000" fill-rule="nonzero" /><path id="63" transform="matrix(1 0 0 -1 0 842)" d="M470.8438 769.6387L471.3394 769.6387L471.3394 721.5625L470.8438 721.5625z" stroke="none" fill="#000000" fill-rule="nonzero" /><path id="64" transform="matrix(1 0 0 -1 0 842)" d="M544.6919 769.6387L545.1875 769.6387L545.1875 721.5625L544.6919 721.5625z" stroke="none" fill="#000000" fill-rule="nonzero" /><path id="65" transform="matrix(1 0 0 -1 0 842)" d="M49.5625 722.0586L74.83938 722.0586L74.83938 721.5625L49.5625 721.5625z" stroke="none" fill="#000000" fill-rule="nonzero" /><path id="66" transform="matrix(1 0 0 -1 0 842)" d="M49.5625 687.8604L74.83938 687.8604L74.83938 687.3652L49.5625 687.3652z" stroke="none" fill="#000000" fill-rule="nonzero" /><path id="67" transform="matrix(1 0 0 -1 0 842)" d="M49.5625 722.0586L50.05813 722.0586L50.05813 687.3652L49.5625 687.3652z" stroke="none" fill="#000000" fill-rule="nonzero" /><path id="68" transform="matrix(1 0 0 -1 0 842)" d="M74.34375 722.0586L74.83938 722.0586L74.83938 687.3652L74.34375 687.3652z" stroke="none" fill="#000000" fill-rule="nonzero" /><path id="69" transform="matrix(1 0 0 -1 0 842)" d="M74.34375 722.0586L149.1831 722.0586L149.1831 721.5625L74.34375 721.5625z" stroke="none" fill="#000000" fill-rule="nonzero" /><path id="70" transform="matrix(1 0 0 -1 0 842)" d="M74.34375 687.8604L149.1831 687.8604L149.1831 687.3652L74.34375 687.3652z" stroke="none" fill="#000000" fill-rule="nonzero" /><path id="71" transform="matrix(1 0 0 -1 0 842)" d="M74.34375 722.0586L74.83938 722.0586L74.83938 687.3652L74.34375 687.3652z" stroke="none" fill="#000000" fill-rule="nonzero" /><path id="72" transform="matrix(1 0 0 -1 0 842)" d="M148.6875 722.0586L149.1831 722.0586L149.1831 687.3652L148.6875 687.3652z" stroke="none" fill="#000000" fill-rule="nonzero" /><path id="73" transform="matrix(1 0 0 -1 0 842)" d="M148.6875 722.0586L198.7456 722.0586L198.7456 721.5625L148.6875 721.5625z" stroke="none" fill="#000000" fill-rule="nonzero" /><path id="74" transform="matrix(1 0 0 -1 0 842)" d="M148.6875 687.8604L198.7456 687.8604L198.7456 687.3652L148.6875 687.3652z" stroke="none" fill="#000000" fill-rule="nonzero" /><path id="75" transform="matrix(1 0 0 -1 0 842)" d="M148.6875 722.0586L149.1831 722.0586L149.1831 687.3652L148.6875 687.3652z" stroke="none" fill="#000000" fill-rule="nonzero" /><path id="76" transform="matrix(1 0 0 -1 0 842)" d="M198.25 722.0586L198.7456 722.0586L198.7456 687.3652L198.25 687.3652z" stroke="none" fill="#000000" fill-rule="nonzero" /><path id="77" transform="matrix(1 0 0 -1 0 842)" d="M198.25 722.0586L248.3081 722.0586L248.3081 721.5625L198.25 721.5625z" stroke="none" fill="#000000" fill-rule="nonzero" /><path id="78" transform="matrix(1 0 0 -1 0 842)" d="M198.25 687.8604L248.3081 687.8604L248.3081 687.3652L198.25 687.3652z" stroke="none" fill="#000000" fill-rule="nonzero" /><path id="79" transform="matrix(1 0 0 -1 0 842)" d="M198.25 722.0586L198.7456 722.0586L198.7456 687.3652L198.25 687.3652z" stroke="none" fill="#000000" fill-rule="nonzero" /><path id="80" transform="matrix(1 0 0 -1 0 842)" d="M247.8125 722.0586L248.3081 722.0586L248.3081 687.3652L247.8125 687.3652z" stroke="none" fill="#000000" fill-rule="nonzero" /><path id="81" transform="matrix(1 0 0 -1 0 842)" d="M247.8125 722.0586L421.7769 722.0586L421.7769 721.5625L247.8125 721.5625z" stroke="none" fill="#000000" fill-rule="nonzero" /><path id="82" transform="matrix(1 0 0 -1 0 842)" d="M247.8125 687.8604L421.7769 687.8604L421.7769 687.3652L247.8125 687.3652z" stroke="none" fill="#000000" fill-rule="nonzero" /><path id="83" transform="matrix(1 0 0 -1 0 842)" d="M247.8125 722.0586L248.3081 722.0586L248.3081 687.3652L247.8125 687.3652z" stroke="none" fill="#000000" fill-rule="nonzero" /><path id="84" transform="matrix(1 0 0 -1 0 842)" d="M421.2813 722.0586L421.7769 722.0586L421.7769 687.3652L421.2813 687.3652z" stroke="none" fill="#000000" fill-rule="nonzero" /><path id="85" transform="matrix(1 0 0 -1 0 842)" d="M421.2813 722.0586L471.3394 722.0586L471.3394 721.5625L421.2813 721.5625z" stroke="none" fill="#000000" fill-rule="nonzero" /><path id="86" transform="matrix(1 0 0 -1 0 842)" d="M421.2813 687.8604L471.3394 687.8604L471.3394 687.3652L421.2813 687.3652z" stroke="none" fill="#000000" fill-rule="nonzero" /><path id="87" transform="matrix(1 0 0 -1 0 842)" d="M421.2813 722.0586L421.7769 722.0586L421.7769 687.3652L421.2813 687.3652z" stroke="none" fill="#000000" fill-rule="nonzero" /><path id="88" transform="matrix(1 0 0 -1 0 842)" d="M470.8438 722.0586L471.3394 722.0586L471.3394 687.3652L470.8438 687.3652z" stroke="none" fill="#000000" fill-rule="nonzero" /><path id="89" transform="matrix(1 0 0 -1 0 842)" d="M470.8438 722.0586L545.1875 722.0586L545.1875 721.5625L470.8438 721.5625z" stroke="none" fill="#000000" fill-rule="nonzero" /><path id="90" transform="matrix(1 0 0 -1 0 842)" d="M470.8438 687.8604L545.1875 687.8604L545.1875 687.3652L470.8438 687.3652z" stroke="none" fill="#000000" fill-rule="nonzero" /><path id="91" transform="matrix(1 0 0 -1 0 842)" d="M470.8438 722.0586L471.3394 722.0586L471.3394 687.3652L470.8438 687.3652z" stroke="none" fill="#000000" fill-rule="nonzero" /><path id="92" transform="matrix(1 0 0 -1 0 842)" d="M544.6919 722.0586L545.1875 722.0586L545.1875 687.3652L544.6919 687.3652z" stroke="none" fill="#000000" fill-rule="nonzero" /><path id="93" transform="matrix(1 0 0 -1 0 842)" d="M49.5625 687.8604L74.83938 687.8604L74.83938 687.3652L49.5625 687.3652z" stroke="none" fill="#000000" fill-rule="nonzero" /><path id="94" transform="matrix(1 0 0 -1 0 842)" d="M49.5625 653.6621L74.83938 653.6621L74.83938 653.167L49.5625 653.167z" stroke="none" fill="#000000" fill-rule="nonzero" /><path id="95" transform="matrix(1 0 0 -1 0 842)" d="M49.5625 687.8604L50.05813 687.8604L50.05813 653.167L49.5625 653.167z" stroke="none" fill="#000000" fill-rule="nonzero" /><path id="96" transform="matrix(1 0 0 -1 0 842)" d="M74.34375 687.8604L74.83938 687.8604L74.83938 653.167L74.34375 653.167z" stroke="none" fill="#000000" fill-rule="nonzero" /><path id="97" transform="matrix(1 0 0 -1 0 842)" d="M74.34375 687.8604L149.1831 687.8604L149.1831 687.3652L74.34375 687.3652z" stroke="none" fill="#000000" fill-rule="nonzero" /><path id="98" transform="matrix(1 0 0 -1 0 842)" d="M74.34375 653.6621L149.1831 653.6621L149.1831 653.167L74.34375 653.167z" stroke="none" fill="#000000" fill-rule="nonzero" /><path id="99" transform="matrix(1 0 0 -1 0 842)" d="M74.34375 687.8604L74.83938 687.8604L74.83938 653.167L74.34375 653.167z" stroke="none" fill="#000000" fill-rule="nonzero" /><path id="100" transform="matrix(1 0 0 -1 0 842)" d="M148.6875 687.8604L149.1831 687.8604L149.1831 653.167L148.6875 653.167z" stroke="none" fill="#000000" fill-rule="nonzero" /><path id="101" transform="matrix(1 0 0 -1 0 842)" d="M148.6875 687.8604L198.7456 687.8604L198.7456 687.3652L148.6875 687.3652z" stroke="none" fill="#000000" fill-rule="nonzero" /><path id="102" transform="matrix(1 0 0 -1 0 842)" d="M148.6875 653.6621L198.7456 653.6621L198.7456 653.167L148.6875 653.167z" stroke="none" fill="#000000" fill-rule="nonzero" /><path id="103" transform="matrix(1 0 0 -1 0 842)" d="M148.6875 687.8604L149.1831 687.8604L149.1831 653.167L148.6875 653.167z" stroke="none" fill="#000000" fill-rule="nonzero" /><path id="104" transform="matrix(1 0 0 -1 0 842)" d="M198.25 687.8604L198.7456 687.8604L198.7456 653.167L198.25 653.167z" stroke="none" fill="#000000" fill-rule="nonzero" /><path id="105" transform="matrix(1 0 0 -1 0 842)" d="M198.25 687.8604L248.3081 687.8604L248.3081 687.3652L198.25 687.3652z" stroke="none" fill="#000000" fill-rule="nonzero" /><path id="106" transform="matrix(1 0 0 -1 0 842)" d="M198.25 653.6621L248.3081 653.6621L248.3081 653.167L198.25 653.167z" stroke="none" fill="#000000" fill-rule="nonzero" /><path id="107" transform="matrix(1 0 0 -1 0 842)" d="M198.25 687.8604L198.7456 687.8604L198.7456 653.167L198.25 653.167z" stroke="none" fill="#000000" fill-rule="nonzero" /><path id="108" transform="matrix(1 0 0 -1 0 842)" d="M247.8125 687.8604L248.3081 687.8604L248.3081 653.167L247.8125 653.167z" stroke="none" fill="#000000" fill-rule="nonzero" /><path id="109" transform="matrix(1 0 0 -1 0 842)" d="M247.8125 687.8604L421.7769 687.8604L421.7769 687.3652L247.8125 687.3652z" stroke="none" fill="#000000" fill-rule="nonzero" /><path id="110" transform="matrix(1 0 0 -1 0 842)" d="M247.8125 653.6621L421.7769 653.6621L421.7769 653.167L247.8125 653.167z" stroke="none" fill="#000000" fill-rule="nonzero" /><path id="111" transform="matrix(1 0 0 -1 0 842)" d="M247.8125 687.8604L248.3081 687.8604L248.3081 653.167L247.8125 653.167z" stroke="none" fill="#000000" fill-rule="nonzero" /><path id="112" transform="matrix(1 0 0 -1 0 842)" d="M421.2813 687.8604L421.7769 687.8604L421.7769 653.167L421.2813 653.167z" stroke="none" fill="#000000" fill-rule="nonzero" /><path id="113" transform="matrix(1 0 0 -1 0 842)" d="M421.2813 687.8604L471.3394 687.8604L471.3394 687.3652L421.2813 687.3652z" stroke="none" fill="#000000" fill-rule="nonzero" /><path id="114" transform="matrix(1 0 0 -1 0 842)" d="M421.2813 653.6621L471.3394 653.6621L471.3394 653.167L421.2813 653.167z" stroke="none" fill="#000000" fill-rule="nonzero" /><path id="115" transform="matrix(1 0 0 -1 0 842)" d="M421.2813 687.8604L421.7769 687.8604L421.7769 653.167L421.2813 653.167z" stroke="none" fill="#000000" fill-rule="nonzero" /><path id="116" transform="matrix(1 0 0 -1 0 842)" d="M470.8438 687.8604L471.3394 687.8604L471.3394 653.167L470.8438 653.167z" stroke="none" fill="#000000" fill-rule="nonzero" /><path id="117" transform="matrix(1 0 0 -1 0 842)" d="M470.8438 687.8604L545.1875 687.8604L545.1875 687.3652L470.8438 687.3652z" stroke="none" fill="#000000" fill-rule="nonzero" /><path id="118" transform="matrix(1 0 0 -1 0 842)" d="M470.8438 653.6621L545.1875 653.6621L545.1875 653.167L470.8438 653.167z" stroke="none" fill="#000000" fill-rule="nonzero" /><path id="119" transform="matrix(1 0 0 -1 0 842)" d="M470.8438 687.8604L471.3394 687.8604L471.3394 653.167L470.8438 653.167z" stroke="none" fill="#000000" fill-rule="nonzero" /><path id="120" transform="matrix(1 0 0 -1 0 842)" d="M544.6919 687.8604L545.1875 687.8604L545.1875 653.167L544.6919 653.167z" stroke="none" fill="#000000" fill-rule="nonzero" /><path id="121" transform="matrix(1 0 0 -1 0 842)" d="M49.5625 624.4209L74.34375 624.4209L74.34375 598.6484L49.5625 598.6484z" stroke="none" fill="#9CC9F0" fill-rule="nonzero" /><path id="122" transform="matrix(1 0 0 -1 0 842)" d="M74.34375 624.4209L148.6875 624.4209L148.6875 598.6484L74.34375 598.6484z" stroke="none" fill="#9CC9F0" fill-rule="nonzero" /><path id="123" transform="matrix(1 0 0 -1 0 842)" d="M148.6875 624.4209L198.25 624.4209L198.25 598.6484L148.6875 598.6484z" stroke="none" fill="#9CC9F0" fill-rule="nonzero" /><path id="124" transform="matrix(1 0 0 -1 0 842)" d="M198.25 624.4209L247.8125 624.4209L247.8125 598.6484L198.25 598.6484z" stroke="none" fill="#9CC9F0" fill-rule="nonzero" /><path id="125" transform="matrix(1 0 0 -1 0 842)" d="M247.8125 624.4209L421.2813 624.4209L421.2813 598.6484L247.8125 598.6484z" stroke="none" fill="#9CC9F0" fill-rule="nonzero" /><path id="126" transform="matrix(1 0 0 -1 0 842)" d="M421.2813 624.4209L470.8438 624.4209L470.8438 598.6484L421.2813 598.6484z" stroke="none" fill="#9CC9F0" fill-rule="nonzero" /><path id="127" transform="matrix(1 0 0 -1 0 842)" d="M470.8438 624.4209L544.6919 624.4209L544.6919 598.6484L470.8438 598.6484z" stroke="none" fill="#9CC9F0" fill-rule="nonzero" /><path id="128" transform="matrix(1 0 0 -1 0 842)" d="M49.5625 624.4209L74.83938 624.4209L74.83938 623.9248L49.5625 623.9248z" stroke="none" fill="#000000" fill-rule="nonzero" /><path id="129" transform="matrix(1 0 0 -1 0 842)" d="M49.5625 598.6484L74.83938 598.6484L74.83938 598.1523L49.5625 598.1523z" stroke="none" fill="#000000" fill-rule="nonzero" /><path id="130" transform="matrix(1 0 0 -1 0 842)" d="M49.5625 624.4209L50.05813 624.4209L50.05813 598.1523L49.5625 598.1523z" stroke="none" fill="#000000" fill-rule="nonzero" /><path id="131" transform="matrix(1 0 0 -1 0 842)" d="M74.34375 624.4209L74.83938 624.4209L74.83938 598.1523L74.34375 598.1523z" stroke="none" fill="#000000" fill-rule="nonzero" /><path id="132" transform="matrix(1 0 0 -1 0 842)" d="M74.34375 624.4209L149.1831 624.4209L149.1831 623.9248L74.34375 623.9248z" stroke="none" fill="#000000" fill-rule="nonzero" /><path id="133" transform="matrix(1 0 0 -1 0 842)" d="M74.34375 598.6484L149.1831 598.6484L149.1831 598.1523L74.34375 598.1523z" stroke="none" fill="#000000" fill-rule="nonzero" /><path id="134" transform="matrix(1 0 0 -1 0 842)" d="M74.34375 624.4209L74.83938 624.4209L74.83938 598.1523L74.34375 598.1523z" stroke="none" fill="#000000" fill-rule="nonzero" /><path id="135" transform="matrix(1 0 0 -1 0 842)" d="M148.6875 624.4209L149.1831 624.4209L149.1831 598.1523L148.6875 598.1523z" stroke="none" fill="#000000" fill-rule="nonzero" /><path id="136" transform="matrix(1 0 0 -1 0 842)" d="M148.6875 624.4209L198.7456 624.4209L198.7456 623.9248L148.6875 623.9248z" stroke="none" fill="#000000" fill-rule="nonzero" /><path id="137" transform="matrix(1 0 0 -1 0 842)" d="M148.6875 598.6484L198.7456 598.6484L198.7456 598.1523L148.6875 598.1523z" stroke="none" fill="#000000" fill-rule="nonzero" /><path id="138" transform="matrix(1 0 0 -1 0 842)" d="M148.6875 624.4209L149.1831 624.4209L149.1831 598.1523L148.6875 598.1523z" stroke="none" fill="#000000" fill-rule="nonzero" /><path id="139" transform="matrix(1 0 0 -1 0 842)" d="M198.25 624.4209L198.7456 624.4209L198.7456 598.1523L198.25 598.1523z" stroke="none" fill="#000000" fill-rule="nonzero" /><path id="140" transform="matrix(1 0 0 -1 0 842)" d="M198.25 624.4209L248.3081 624.4209L248.3081 623.9248L198.25 623.9248z" stroke="none" fill="#000000" fill-rule="nonzero" /><path id="141" transform="matrix(1 0 0 -1 0 842)" d="M198.25 598.6484L248.3081 598.6484L248.3081 598.1523L198.25 598.1523z" stroke="none" fill="#000000" fill-rule="nonzero" /><path id="142" transform="matrix(1 0 0 -1 0 842)" d="M198.25 624.4209L198.7456 624.4209L198.7456 598.1523L198.25 598.1523z" stroke="none" fill="#000000" fill-rule="nonzero" /><path id="143" transform="matrix(1 0 0 -1 0 842)" d="M247.8125 624.4209L248.3081 624.4209L248.3081 598.1523L247.8125 598.1523z" stroke="none" fill="#000000" fill-rule="nonzero" /><path id="144" transform="matrix(1 0 0 -1 0 842)" d="M247.8125 624.4209L421.7769 624.4209L421.7769 623.9248L247.8125 623.9248z" stroke="none" fill="#000000" fill-rule="nonzero" /><path id="145" transform="matrix(1 0 0 -1 0 842)" d="M247.8125 598.6484L421.7769 598.6484L421.7769 598.1523L247.8125 598.1523z" stroke="none" fill="#000000" fill-rule="nonzero" /><path id="146" transform="matrix(1 0 0 -1 0 842)" d="M247.8125 624.4209L248.3081 624.4209L248.3081 598.1523L247.8125 598.1523z" stroke="none" fill="#000000" fill-rule="nonzero" /><path id="147" transform="matrix(1 0 0 -1 0 842)" d="M421.2813 624.4209L421.7769 624.4209L421.7769 598.1523L421.2813 598.1523z" stroke="none" fill="#000000" fill-rule="nonzero" /><path id="148" transform="matrix(1 0 0 -1 0 842)" d="M421.2813 624.4209L471.3394 624.4209L471.3394 623.9248L421.2813 623.9248z" stroke="none" fill="#000000" fill-rule="nonzero" /><path id="149" transform="matrix(1 0 0 -1 0 842)" d="M421.2813 598.6484L471.3394 598.6484L471.3394 598.1523L421.2813 598.1523z" stroke="none" fill="#000000" fill-rule="nonzero" /><path id="150" transform="matrix(1 0 0 -1 0 842)" d="M421.2813 624.4209L421.7769 624.4209L421.7769 598.1523L421.2813 598.1523z" stroke="none" fill="#000000" fill-rule="nonzero" /><path id="151" transform="matrix(1 0 0 -1 0 842)" d="M470.8438 624.4209L471.3394 624.4209L471.3394 598.1523L470.8438 598.1523z" stroke="none" fill="#000000" fill-rule="nonzero" /><path id="152" transform="matrix(1 0 0 -1 0 842)" d="M470.8438 624.4209L545.1875 624.4209L545.1875 623.9248L470.8438 623.9248z" stroke="none" fill="#000000" fill-rule="nonzero" /><path id="153" transform="matrix(1 0 0 -1 0 842)" d="M470.8438 598.6484L545.1875 598.6484L545.1875 598.1523L470.8438 598.1523z" stroke="none" fill="#000000" fill-rule="nonzero" /><path id="154" transform="matrix(1 0 0 -1 0 842)" d="M470.8438 624.4209L471.3394 624.4209L471.3394 598.1523L470.8438 598.1523z" stroke="none" fill="#000000" fill-rule="nonzero" /><path id="155" transform="matrix(1 0 0 -1 0 842)" d="M544.6919 624.4209L545.1875 624.4209L545.1875 598.1523L544.6919 598.1523z" stroke="none" fill="#000000" fill-rule="nonzero" /><path id="156" transform="matrix(1 0 0 -1 0 842)" d="M49.5625 598.6484L74.83938 598.6484L74.83938 598.1523L49.5625 598.1523z" stroke="none" fill="#000000" fill-rule="nonzero" /><path id="157" transform="matrix(1 0 0 -1 0 842)" d="M49.5625 564.4502L74.83938 564.4502L74.83938 563.9541L49.5625 563.9541z" stroke="none" fill="#000000" fill-rule="nonzero" /><path id="158" transform="matrix(1 0 0 -1 0 842)" d="M49.5625 598.6484L50.05813 598.6484L50.05813 563.9541L49.5625 563.9541z" stroke="none" fill="#000000" fill-rule="nonzero" /><path id="159" transform="matrix(1 0 0 -1 0 842)" d="M74.34375 598.6484L74.83938 598.6484L74.83938 563.9541L74.34375 563.9541z" stroke="none" fill="#000000" fill-rule="nonzero" /><path id="160" transform="matrix(1 0 0 -1 0 842)" d="M74.34375 598.6484L149.1831 598.6484L149.1831 598.1523L74.34375 598.1523z" stroke="none" fill="#000000" fill-rule="nonzero" /><path id="161" transform="matrix(1 0 0 -1 0 842)" d="M74.34375 564.4502L149.1831 564.4502L149.1831 563.9541L74.34375 563.9541z" stroke="none" fill="#000000" fill-rule="nonzero" /><path id="162" transform="matrix(1 0 0 -1 0 842)" d="M74.34375 598.6484L74.83938 598.6484L74.83938 563.9541L74.34375 563.9541z" stroke="none" fill="#000000" fill-rule="nonzero" /><path id="163" transform="matrix(1 0 0 -1 0 842)" d="M148.6875 598.6484L149.1831 598.6484L149.1831 563.9541L148.6875 563.9541z" stroke="none" fill="#000000" fill-rule="nonzero" /><path id="164" transform="matrix(1 0 0 -1 0 842)" d="M148.6875 598.6484L198.7456 598.6484L198.7456 598.1523L148.6875 598.1523z" stroke="none" fill="#000000" fill-rule="nonzero" /><path id="165" transform="matrix(1 0 0 -1 0 842)" d="M148.6875 564.4502L198.7456 564.4502L198.7456 563.9541L148.6875 563.9541z" stroke="none" fill="#000000" fill-rule="nonzero" /><path id="166" transform="matrix(1 0 0 -1 0 842)" d="M148.6875 598.6484L149.1831 598.6484L149.1831 563.9541L148.6875 563.9541z" stroke="none" fill="#000000" fill-rule="nonzero" /><path id="167" transform="matrix(1 0 0 -1 0 842)" d="M198.25 598.6484L198.7456 598.6484L198.7456 563.9541L198.25 563.9541z" stroke="none" fill="#000000" fill-rule="nonzero" /><path id="168" transform="matrix(1 0 0 -1 0 842)" d="M198.25 598.6484L248.3081 598.6484L248.3081 598.1523L198.25 598.1523z" stroke="none" fill="#000000" fill-rule="nonzero" /><path id="169" transform="matrix(1 0 0 -1 0 842)" d="M198.25 564.4502L248.3081 564.4502L248.3081 563.9541L198.25 563.9541z" stroke="none" fill="#000000" fill-rule="nonzero" /><path id="170" transform="matrix(1 0 0 -1 0 842)" d="M198.25 598.6484L198.7456 598.6484L198.7456 563.9541L198.25 563.9541z" stroke="none" fill="#000000" fill-rule="nonzero" /><path id="171" transform="matrix(1 0 0 -1 0 842)" d="M247.8125 598.6484L248.3081 598.6484L248.3081 563.9541L247.8125 563.9541z" stroke="none" fill="#000000" fill-rule="nonzero" /><path id="172" transform="matrix(1 0 0 -1 0 842)" d="M247.8125 598.6484L421.7769 598.6484L421.7769 598.1523L247.8125 598.1523z" stroke="none" fill="#000000" fill-rule="nonzero" /><path id="173" transform="matrix(1 0 0 -1 0 842)" d="M247.8125 564.4502L421.7769 564.4502L421.7769 563.9541L247.8125 563.9541z" stroke="none" fill="#000000" fill-rule="nonzero" /><path id="174" transform="matrix(1 0 0 -1 0 842)" d="M247.8125 598.6484L248.3081 598.6484L248.3081 563.9541L247.8125 563.9541z" stroke="none" fill="#000000" fill-rule="nonzero" /><path id="175" transform="matrix(1 0 0 -1 0 842)" d="M421.2813 598.6484L421.7769 598.6484L421.7769 563.9541L421.2813 563.9541z" stroke="none" fill="#000000" fill-rule="nonzero" /><path id="176" transform="matrix(1 0 0 -1 0 842)" d="M421.2813 598.6484L471.3394 598.6484L471.3394 598.1523L421.2813 598.1523z" stroke="none" fill="#000000" fill-rule="nonzero" /><path id="177" transform="matrix(1 0 0 -1 0 842)" d="M421.2813 564.4502L471.3394 564.4502L471.3394 563.9541L421.2813 563.9541z" stroke="none" fill="#000000" fill-rule="nonzero" /><path id="178" transform="matrix(1 0 0 -1 0 842)" d="M421.2813 598.6484L421.7769 598.6484L421.7769 563.9541L421.2813 563.9541z" stroke="none" fill="#000000" fill-rule="nonzero" /><path id="179" transform="matrix(1 0 0 -1 0 842)" d="M470.8438 598.6484L471.3394 598.6484L471.3394 563.9541L470.8438 563.9541z" stroke="none" fill="#000000" fill-rule="nonzero" /><path id="180" transform="matrix(1 0 0 -1 0 842)" d="M470.8438 598.6484L545.1875 598.6484L545.1875 598.1523L470.8438 598.1523z" stroke="none" fill="#000000" fill-rule="nonzero" /><path id="181" transform="matrix(1 0 0 -1 0 842)" d="M470.8438 564.4502L545.1875 564.4502L545.1875 563.9541L470.8438 563.9541z" stroke="none" fill="#000000" fill-rule="nonzero" /><path id="182" transform="matrix(1 0 0 -1 0 842)" d="M470.8438 598.6484L471.3394 598.6484L471.3394 563.9541L470.8438 563.9541z" stroke="none" fill="#000000" fill-rule="nonzero" /><path id="183" transform="matrix(1 0 0 -1 0 842)" d="M544.6919 598.6484L545.1875 598.6484L545.1875 563.9541L544.6919 563.9541z" stroke="none" fill="#000000" fill-rule="nonzero" /><path id="184" transform="matrix(1 0 0 -1 0 842)" d="M49.5625 535.208L74.34375 535.208L74.34375 509.4355L49.5625 509.4355z" stroke="none" fill="#9CC9F0" fill-rule="nonzero" /><path id="185" transform="matrix(1 0 0 -1 0 842)" d="M74.34375 535.208L148.6875 535.208L148.6875 509.4355L74.34375 509.4355z" stroke="none" fill="#9CC9F0" fill-rule="nonzero" /><path id="186" transform="matrix(1 0 0 -1 0 842)" d="M148.6875 535.208L198.25 535.208L198.25 509.4355L148.6875 509.4355z" stroke="none" fill="#9CC9F0" fill-rule="nonzero" /><path id="187" transform="matrix(1 0 0 -1 0 842)" d="M198.25 535.208L247.8125 535.208L247.8125 509.4355L198.25 509.4355z" stroke="none" fill="#9CC9F0" fill-rule="nonzero" /><path id="188" transform="matrix(1 0 0 -1 0 842)" d="M247.8125 535.208L421.2813 535.208L421.2813 509.4355L247.8125 509.4355z" stroke="none" fill="#9CC9F0" fill-rule="nonzero" /><path id="189" transform="matrix(1 0 0 -1 0 842)" d="M421.2813 535.208L470.8438 535.208L470.8438 509.4355L421.2813 509.4355z" stroke="none" fill="#9CC9F0" fill-rule="nonzero" /><path id="190" transform="matrix(1 0 0 -1 0 842)" d="M470.8438 535.208L544.6919 535.208L544.6919 509.4355L470.8438 509.4355z" stroke="none" fill="#9CC9F0" fill-rule="nonzero" /><path id="191" transform="matrix(1 0 0 -1 0 842)" d="M49.5625 535.208L74.83938 535.208L74.83938 534.7119L49.5625 534.7119z" stroke="none" fill="#000000" fill-rule="nonzero" /><path id="192" transform="matrix(1 0 0 -1 0 842)" d="M49.5625 509.4355L74.83938 509.4355L74.83938 508.9395L49.5625 508.9395z" stroke="none" fill="#000000" fill-rule="nonzero" /><path id="193" transform="matrix(1 0 0 -1 0 842)" d="M49.5625 535.208L50.05813 535.208L50.05813 508.9395L49.5625 508.9395z" stroke="none" fill="#000000" fill-rule="nonzero" /><path id="194" transform="matrix(1 0 0 -1 0 842)" d="M74.34375 535.208L74.83938 535.208L74.83938 508.9395L74.34375 508.9395z" stroke="none" fill="#000000" fill-rule="nonzero" /><path id="195" transform="matrix(1 0 0 -1 0 842)" d="M74.34375 535.208L149.1831 535.208L149.1831 534.7119L74.34375 534.7119z" stroke="none" fill="#000000" fill-rule="nonzero" /><path id="196" transform="matrix(1 0 0 -1 0 842)" d="M74.34375 509.4355L149.1831 509.4355L149.1831 508.9395L74.34375 508.9395z" stroke="none" fill="#000000" fill-rule="nonzero" /><path id="197" transform="matrix(1 0 0 -1 0 842)" d="M74.34375 535.208L74.83938 535.208L74.83938 508.9395L74.34375 508.9395z" stroke="none" fill="#000000" fill-rule="nonzero" /><path id="198" transform="matrix(1 0 0 -1 0 842)" d="M148.6875 535.208L149.1831 535.208L149.1831 508.9395L148.6875 508.9395z" stroke="none" fill="#000000" fill-rule="nonzero" /><path id="199" transform="matrix(1 0 0 -1 0 842)" d="M148.6875 535.208L198.7456 535.208L198.7456 534.7119L148.6875 534.7119z" stroke="none" fill="#000000" fill-rule="nonzero" /><path id="200" transform="matrix(1 0 0 -1 0 842)" d="M148.6875 509.4355L198.7456 509.4355L198.7456 508.9395L148.6875 508.9395z" stroke="none" fill="#000000" fill-rule="nonzero" /><path id="201" transform="matrix(1 0 0 -1 0 842)" d="M148.6875 535.208L149.1831 535.208L149.1831 508.9395L148.6875 508.9395z" stroke="none" fill="#000000" fill-rule="nonzero" /><path id="202" transform="matrix(1 0 0 -1 0 842)" d="M198.25 535.208L198.7456 535.208L198.7456 508.9395L198.25 508.9395z" stroke="none" fill="#000000" fill-rule="nonzero" /><path id="203" transform="matrix(1 0 0 -1 0 842)" d="M198.25 535.208L248.3081 535.208L248.3081 534.7119L198.25 534.7119z" stroke="none" fill="#000000" fill-rule="nonzero" /><path id="204" transform="matrix(1 0 0 -1 0 842)" d="M198.25 509.4355L248.3081 509.4355L248.3081 508.9395L198.25 508.9395z" stroke="none" fill="#000000" fill-rule="nonzero" /><path id="205" transform="matrix(1 0 0 -1 0 842)" d="M198.25 535.208L198.7456 535.208L198.7456 508.9395L198.25 508.9395z" stroke="none" fill="#000000" fill-rule="nonzero" /><path id="206" transform="matrix(1 0 0 -1 0 842)" d="M247.8125 535.208L248.3081 535.208L248.3081 508.9395L247.8125 508.9395z" stroke="none" fill="#000000" fill-rule="nonzero" /><path id="207" transform="matrix(1 0 0 -1 0 842)" d="M247.8125 535.208L421.7769 535.208L421.7769 534.7119L247.8125 534.7119z" stroke="none" fill="#000000" fill-rule="nonzero" /><path id="208" transform="matrix(1 0 0 -1 0 842)" d="M247.8125 509.4355L421.7769 509.4355L421.7769 508.9395L247.8125 508.9395z" stroke="none" fill="#000000" fill-rule="nonzero" /><path id="209" transform="matrix(1 0 0 -1 0 842)" d="M247.8125 535.208L248.3081 535.208L248.3081 508.9395L247.8125 508.9395z" stroke="none" fill="#000000" fill-rule="nonzero" /><path id="210" transform="matrix(1 0 0 -1 0 842)" d="M421.2813 535.208L421.7769 535.208L421.7769 508.9395L421.2813 508.9395z" stroke="none" fill="#000000" fill-rule="nonzero" /><path id="211" transform="matrix(1 0 0 -1 0 842)" d="M421.2813 535.208L471.3394 535.208L471.3394 534.7119L421.2813 534.7119z" stroke="none" fill="#000000" fill-rule="nonzero" /><path id="212" transform="matrix(1 0 0 -1 0 842)" d="M421.2813 509.4355L471.3394 509.4355L471.3394 508.9395L421.2813 508.9395z" stroke="none" fill="#000000" fill-rule="nonzero" /><path id="213" transform="matrix(1 0 0 -1 0 842)" d="M421.2813 535.208L421.7769 535.208L421.7769 508.9395L421.2813 508.9395z" stroke="none" fill="#000000" fill-rule="nonzero" /><path id="214" transform="matrix(1 0 0 -1 0 842)" d="M470.8438 535.208L471.3394 535.208L471.3394 508.9395L470.8438 508.9395z" stroke="none" fill="#000000" fill-rule="nonzero" /><path id="215" transform="matrix(1 0 0 -1 0 842)" d="M470.8438 535.208L545.1875 535.208L545.1875 534.7119L470.8438 534.7119z" stroke="none" fill="#000000" fill-rule="nonzero" /><path id="216" transform="matrix(1 0 0 -1 0 842)" d="M470.8438 509.4355L545.1875 509.4355L545.1875 508.9395L470.8438 508.9395z" stroke="none" fill="#000000" fill-rule="nonzero" /><path id="217" transform="matrix(1 0 0 -1 0 842)" d="M470.8438 535.208L471.3394 535.208L471.3394 508.9395L470.8438 508.9395z" stroke="none" fill="#000000" fill-rule="nonzero" /><path id="218" transform="matrix(1 0 0 -1 0 842)" d="M544.6919 535.208L545.1875 535.208L545.1875 508.9395L544.6919 508.9395z" stroke="none" fill="#000000" fill-rule="nonzero" /><path id="219" transform="matrix(1 0 0 -1 0 842)" d="M49.5625 509.4355L74.83938 509.4355L74.83938 508.9395L49.5625 508.9395z" stroke="none" fill="#000000" fill-rule="nonzero" /><path id="220" transform="matrix(1 0 0 -1 0 842)" d="M49.5625 475.2373L74.83938 475.2373L74.83938 474.7422L49.5625 474.7422z" stroke="none" fill="#000000" fill-rule="nonzero" /><path id="221" transform="matrix(1 0 0 -1 0 842)" d="M49.5625 509.4355L50.05813 509.4355L50.05813 474.7422L49.5625 474.7422z" stroke="none" fill="#000000" fill-rule="nonzero" /><path id="222" transform="matrix(1 0 0 -1 0 842)" d="M74.34375 509.4355L74.83938 509.4355L74.83938 474.7422L74.34375 474.7422z" stroke="none" fill="#000000" fill-rule="nonzero" /><path id="223" transform="matrix(1 0 0 -1 0 842)" d="M74.34375 509.4355L149.1831 509.4355L149.1831 508.9395L74.34375 508.9395z" stroke="none" fill="#000000" fill-rule="nonzero" /><path id="224" transform="matrix(1 0 0 -1 0 842)" d="M74.34375 475.2373L149.1831 475.2373L149.1831 474.7422L74.34375 474.7422z" stroke="none" fill="#000000" fill-rule="nonzero" /><path id="225" transform="matrix(1 0 0 -1 0 842)" d="M74.34375 509.4355L74.83938 509.4355L74.83938 474.7422L74.34375 474.7422z" stroke="none" fill="#000000" fill-rule="nonzero" /><path id="226" transform="matrix(1 0 0 -1 0 842)" d="M148.6875 509.4355L149.1831 509.4355L149.1831 474.7422L148.6875 474.7422z" stroke="none" fill="#000000" fill-rule="nonzero" /><path id="227" transform="matrix(1 0 0 -1 0 842)" d="M148.6875 509.4355L198.7456 509.4355L198.7456 508.9395L148.6875 508.9395z" stroke="none" fill="#000000" fill-rule="nonzero" /><path id="228" transform="matrix(1 0 0 -1 0 842)" d="M148.6875 475.2373L198.7456 475.2373L198.7456 474.7422L148.6875 474.7422z" stroke="none" fill="#000000" fill-rule="nonzero" /><path id="229" transform="matrix(1 0 0 -1 0 842)" d="M148.6875 509.4355L149.1831 509.4355L149.1831 474.7422L148.6875 474.7422z" stroke="none" fill="#000000" fill-rule="nonzero" /><path id="230" transform="matrix(1 0 0 -1 0 842)" d="M198.25 509.4355L198.7456 509.4355L198.7456 474.7422L198.25 474.7422z" stroke="none" fill="#000000" fill-rule="nonzero" /><path id="231" transform="matrix(1 0 0 -1 0 842)" d="M198.25 509.4355L248.3081 509.4355L248.3081 508.9395L198.25 508.9395z" stroke="none" fill="#000000" fill-rule="nonzero" /><path id="232" transform="matrix(1 0 0 -1 0 842)" d="M198.25 475.2373L248.3081 475.2373L248.3081 474.7422L198.25 474.7422z" stroke="none" fill="#000000" fill-rule="nonzero" /><path id="233" transform="matrix(1 0 0 -1 0 842)" d="M198.25 509.4355L198.7456 509.4355L198.7456 474.7422L198.25 474.7422z" stroke="none" fill="#000000" fill-rule="nonzero" /><path id="234" transform="matrix(1 0 0 -1 0 842)" d="M247.8125 509.4355L248.3081 509.4355L248.3081 474.7422L247.8125 474.7422z" stroke="none" fill="#000000" fill-rule="nonzero" /><path id="235" transform="matrix(1 0 0 -1 0 842)" d="M247.8125 509.4355L421.7769 509.4355L421.7769 508.9395L247.8125 508.9395z" stroke="none" fill="#000000" fill-rule="nonzero" /><path id="236" transform="matrix(1 0 0 -1 0 842)" d="M247.8125 475.2373L421.7769 475.2373L421.7769 474.7422L247.8125 474.7422z" stroke="none" fill="#000000" fill-rule="nonzero" /><path id="237" transform="matrix(1 0 0 -1 0 842)" d="M247.8125 509.4355L248.3081 509.4355L248.3081 474.7422L247.8125 474.7422z" stroke="none" fill="#000000" fill-rule="nonzero" /><path id="238" transform="matrix(1 0 0 -1 0 842)" d="M421.2813 509.4355L421.7769 509.4355L421.7769 474.7422L421.2813 474.7422z" stroke="none" fill="#000000" fill-rule="nonzero" /><path id="239" transform="matrix(1 0 0 -1 0 842)" d="M421.2813 509.4355L471.3394 509.4355L471.3394 508.9395L421.2813 508.9395z" stroke="none" fill="#000000" fill-rule="nonzero" /><path id="240" transform="matrix(1 0 0 -1 0 842)" d="M421.2813 475.2373L471.3394 475.2373L471.3394 474.7422L421.2813 474.7422z" stroke="none" fill="#000000" fill-rule="nonzero" /><path id="241" transform="matrix(1 0 0 -1 0 842)" d="M421.2813 509.4355L421.7769 509.4355L421.7769 474.7422L421.2813 474.7422z" stroke="none" fill="#000000" fill-rule="nonzero" /><path id="242" transform="matrix(1 0 0 -1 0 842)" d="M470.8438 509.4355L471.3394 509.4355L471.3394 474.7422L470.8438 474.7422z" stroke="none" fill="#000000" fill-rule="nonzero" /><path id="243" transform="matrix(1 0 0 -1 0 842)" d="M470.8438 509.4355L545.1875 509.4355L545.1875 508.9395L470.8438 508.9395z" stroke="none" fill="#000000" fill-rule="nonzero" /><path id="244" transform="matrix(1 0 0 -1 0 842)" d="M470.8438 475.2373L545.1875 475.2373L545.1875 474.7422L470.8438 474.7422z" stroke="none" fill="#000000" fill-rule="nonzero" /><path id="245" transform="matrix(1 0 0 -1 0 842)" d="M470.8438 509.4355L471.3394 509.4355L471.3394 474.7422L470.8438 474.7422z" stroke="none" fill="#000000" fill-rule="nonzero" /><path id="246" transform="matrix(1 0 0 -1 0 842)" d="M544.6919 509.4355L545.1875 509.4355L545.1875 474.7422L544.6919 474.7422z" stroke="none" fill="#000000" fill-rule="nonzero" /><path id="247" transform="matrix(1 0 0 -1 0 842)" d="M49.5625 475.2373L74.83938 475.2373L74.83938 474.7422L49.5625 474.7422z" stroke="none" fill="#000000" fill-rule="nonzero" /><path id="248" transform="matrix(1 0 0 -1 0 842)" d="M49.5625 441.0391L74.83938 441.0391L74.83938 440.5439L49.5625 440.5439z" stroke="none" fill="#000000" fill-rule="nonzero" /><path id="249" transform="matrix(1 0 0 -1 0 842)" d="M49.5625 475.2373L50.05813 475.2373L50.05813 440.5439L49.5625 440.5439z" stroke="none" fill="#000000" fill-rule="nonzero" /><path id="250" transform="matrix(1 0 0 -1 0 842)" d="M74.34375 475.2373L74.83938 475.2373L74.83938 440.5439L74.34375 440.5439z" stroke="none" fill="#000000" fill-rule="nonzero" /><path id="251" transform="matrix(1 0 0 -1 0 842)" d="M74.34375 475.2373L149.1831 475.2373L149.1831 474.7422L74.34375 474.7422z" stroke="none" fill="#000000" fill-rule="nonzero" /><path id="252" transform="matrix(1 0 0 -1 0 842)" d="M74.34375 441.0391L149.1831 441.0391L149.1831 440.5439L74.34375 440.5439z" stroke="none" fill="#000000" fill-rule="nonzero" /><path id="253" transform="matrix(1 0 0 -1 0 842)" d="M74.34375 475.2373L74.83938 475.2373L74.83938 440.5439L74.34375 440.5439z" stroke="none" fill="#000000" fill-rule="nonzero" /><path id="254" transform="matrix(1 0 0 -1 0 842)" d="M148.6875 475.2373L149.1831 475.2373L149.1831 440.5439L148.6875 440.5439z" stroke="none" fill="#000000" fill-rule="nonzero" /><path id="255" transform="matrix(1 0 0 -1 0 842)" d="M148.6875 475.2373L198.7456 475.2373L198.7456 474.7422L148.6875 474.7422z" stroke="none" fill="#000000" fill-rule="nonzero" /><path id="256" transform="matrix(1 0 0 -1 0 842)" d="M148.6875 441.0391L198.7456 441.0391L198.7456 440.5439L148.6875 440.5439z" stroke="none" fill="#000000" fill-rule="nonzero" /><path id="257" transform="matrix(1 0 0 -1 0 842)" d="M148.6875 475.2373L149.1831 475.2373L149.1831 440.5439L148.6875 440.5439z" stroke="none" fill="#000000" fill-rule="nonzero" /><path id="258" transform="matrix(1 0 0 -1 0 842)" d="M198.25 475.2373L198.7456 475.2373L198.7456 440.5439L198.25 440.5439z" stroke="none" fill="#000000" fill-rule="nonzero" /><path id="259" transform="matrix(1 0 0 -1 0 842)" d="M198.25 475.2373L248.3081 475.2373L248.3081 474.7422L198.25 474.7422z" stroke="none" fill="#000000" fill-rule="nonzero" /><path id="260" transform="matrix(1 0 0 -1 0 842)" d="M198.25 441.0391L248.3081 441.0391L248.3081 440.5439L198.25 440.5439z" stroke="none" fill="#000000" fill-rule="nonzero" /><path id="261" transform="matrix(1 0 0 -1 0 842)" d="M198.25 475.2373L198.7456 475.2373L198.7456 440.5439L198.25 440.5439z" stroke="none" fill="#000000" fill-rule="nonzero" /><path id="262" transform="matrix(1 0 0 -1 0 842)" d="M247.8125 475.2373L248.3081 475.2373L248.3081 440.5439L247.8125 440.5439z" stroke="none" fill="#000000" fill-rule="nonzero" /><path id="263" transform="matrix(1 0 0 -1 0 842)" d="M247.8125 475.2373L421.7769 475.2373L421.7769 474.7422L247.8125 474.7422z" stroke="none" fill="#000000" fill-rule="nonzero" /><path id="264" transform="matrix(1 0 0 -1 0 842)" d="M247.8125 441.0391L421.7769 441.0391L421.7769 440.5439L247.8125 440.5439z" stroke="none" fill="#000000" fill-rule="nonzero" /><path id="265" transform="matrix(1 0 0 -1 0 842)" d="M247.8125 475.2373L248.3081 475.2373L248.3081 440.5439L247.8125 440.5439z" stroke="none" fill="#000000" fill-rule="nonzero" /><path id="266" transform="matrix(1 0 0 -1 0 842)" d="M421.2813 475.2373L421.7769 475.2373L421.7769 440.5439L421.2813 440.5439z" stroke="none" fill="#000000" fill-rule="nonzero" /><path id="267" transform="matrix(1 0 0 -1 0 842)" d="M421.2813 475.2373L471.3394 475.2373L471.3394 474.7422L421.2813 474.7422z" stroke="none" fill="#000000" fill-rule="nonzero" /><path id="268" transform="matrix(1 0 0 -1 0 842)" d="M421.2813 441.0391L471.3394 441.0391L471.3394 440.5439L421.2813 440.5439z" stroke="none" fill="#000000" fill-rule="nonzero" /><path id="269" transform="matrix(1 0 0 -1 0 842)" d="M421.2813 475.2373L421.7769 475.2373L421.7769 440.5439L421.2813 440.5439z" stroke="none" fill="#000000" fill-rule="nonzero" /><path id="270" transform="matrix(1 0 0 -1 0 842)" d="M470.8438 475.2373L471.3394 475.2373L471.3394 440.5439L470.8438 440.5439z" stroke="none" fill="#000000" fill-rule="nonzero" /><path id="271" transform="matrix(1 0 0 -1 0 842)" d="M470.8438 475.2373L545.1875 475.2373L545.1875 474.7422L470.8438 474.7422z" stroke="none" fill="#000000" fill-rule="nonzero" /><path id="272" transform="matrix(1 0 0 -1 0 842)" d="M470.8438 441.0391L545.1875 441.0391L545.1875 440.5439L470.8438 440.5439z" stroke="none" fill="#000000" fill-rule="nonzero" /><path id="273" transform="matrix(1 0 0 -1 0 842)" d="M470.8438 475.2373L471.3394 475.2373L471.3394 440.5439L470.8438 440.5439z" stroke="none" fill="#000000" fill-rule="nonzero" /><path id="274" transform="matrix(1 0 0 -1 0 842)" d="M544.6919 475.2373L545.1875 475.2373L545.1875 440.5439L544.6919 440.5439z" stroke="none" fill="#000000" fill-rule="nonzero" /><path id="275" transform="matrix(1 0 0 -1 0 842)" d="M49.5625 411.7969L74.34375 411.7969L74.34375 386.0244L49.5625 386.0244z" stroke="none" fill="#9CC9F0" fill-rule="nonzero" /><path id="276" transform="matrix(1 0 0 -1 0 842)" d="M74.34375 411.7969L148.6875 411.7969L148.6875 386.0244L74.34375 386.0244z" stroke="none" fill="#9CC9F0" fill-rule="nonzero" /><path id="277" transform="matrix(1 0 0 -1 0 842)" d="M148.6875 411.7969L199.2413 411.7969L199.2413 386.0244L148.6875 386.0244z" stroke="none" fill="#9CC9F0" fill-rule="nonzero" /><path id="278" transform="matrix(1 0 0 -1 0 842)" d="M199.2413 411.7969L248.8038 411.7969L248.8038 386.0244L199.2413 386.0244z" stroke="none" fill="#9CC9F0" fill-rule="nonzero" /><path id="279" transform="matrix(1 0 0 -1 0 842)" d="M248.8038 411.7969L421.7769 411.7969L421.7769 386.0244L248.8038 386.0244z" stroke="none" fill="#9CC9F0" fill-rule="nonzero" /><path id="280" transform="matrix(1 0 0 -1 0 842)" d="M421.7769 411.7969L470.8438 411.7969L470.8438 386.0244L421.7769 386.0244z" stroke="none" fill="#9CC9F0" fill-rule="nonzero" /><path id="281" transform="matrix(1 0 0 -1 0 842)" d="M470.8438 411.7969L544.6919 411.7969L544.6919 386.0244L470.8438 386.0244z" stroke="none" fill="#9CC9F0" fill-rule="nonzero" /><path id="282" transform="matrix(1 0 0 -1 0 842)" d="M49.5625 411.7969L74.83938 411.7969L74.83938 411.3018L49.5625 411.3018z" stroke="none" fill="#000000" fill-rule="nonzero" /><path id="283" transform="matrix(1 0 0 -1 0 842)" d="M49.5625 386.0244L74.83938 386.0244L74.83938 385.5293L49.5625 385.5293z" stroke="none" fill="#000000" fill-rule="nonzero" /><path id="284" transform="matrix(1 0 0 -1 0 842)" d="M49.5625 411.7969L50.05813 411.7969L50.05813 385.5293L49.5625 385.5293z" stroke="none" fill="#000000" fill-rule="nonzero" /><path id="285" transform="matrix(1 0 0 -1 0 842)" d="M74.34375 411.7969L74.83938 411.7969L74.83938 385.5293L74.34375 385.5293z" stroke="none" fill="#000000" fill-rule="nonzero" /><path id="286" transform="matrix(1 0 0 -1 0 842)" d="M74.34375 411.7969L149.1831 411.7969L149.1831 411.3018L74.34375 411.3018z" stroke="none" fill="#000000" fill-rule="nonzero" /><path id="287" transform="matrix(1 0 0 -1 0 842)" d="M74.34375 386.0244L149.1831 386.0244L149.1831 385.5293L74.34375 385.5293z" stroke="none" fill="#000000" fill-rule="nonzero" /><path id="288" transform="matrix(1 0 0 -1 0 842)" d="M74.34375 411.7969L74.83938 411.7969L74.83938 385.5293L74.34375 385.5293z" stroke="none" fill="#000000" fill-rule="nonzero" /><path id="289" transform="matrix(1 0 0 -1 0 842)" d="M148.6875 411.7969L149.1831 411.7969L149.1831 385.5293L148.6875 385.5293z" stroke="none" fill="#000000" fill-rule="nonzero" /><path id="290" transform="matrix(1 0 0 -1 0 842)" d="M148.6875 411.7969L199.7369 411.7969L199.7369 411.3018L148.6875 411.3018z" stroke="none" fill="#000000" fill-rule="nonzero" /><path id="291" transform="matrix(1 0 0 -1 0 842)" d="M148.6875 386.0244L199.7369 386.0244L199.7369 385.5293L148.6875 385.5293z" stroke="none" fill="#000000" fill-rule="nonzero" /><path id="292" transform="matrix(1 0 0 -1 0 842)" d="M148.6875 411.7969L149.1831 411.7969L149.1831 385.5293L148.6875 385.5293z" stroke="none" fill="#000000" fill-rule="nonzero" /><path id="293" transform="matrix(1 0 0 -1 0 842)" d="M199.2413 411.7969L199.7369 411.7969L199.7369 385.5293L199.2413 385.5293z" stroke="none" fill="#000000" fill-rule="nonzero" /><path id="294" transform="matrix(1 0 0 -1 0 842)" d="M199.2413 411.7969L249.2994 411.7969L249.2994 411.3018L199.2413 411.3018z" stroke="none" fill="#000000" fill-rule="nonzero" /><path id="295" transform="matrix(1 0 0 -1 0 842)" d="M199.2413 386.0244L249.2994 386.0244L249.2994 385.5293L199.2413 385.5293z" stroke="none" fill="#000000" fill-rule="nonzero" /><path id="296" transform="matrix(1 0 0 -1 0 842)" d="M199.2413 411.7969L199.7369 411.7969L199.7369 385.5293L199.2413 385.5293z" stroke="none" fill="#000000" fill-rule="nonzero" /><path id="297" transform="matrix(1 0 0 -1 0 842)" d="M248.8038 411.7969L249.2994 411.7969L249.2994 385.5293L248.8038 385.5293z" stroke="none" fill="#000000" fill-rule="nonzero" /><path id="298" transform="matrix(1 0 0 -1 0 842)" d="M248.8038 411.7969L422.2725 411.7969L422.2725 411.3018L248.8038 411.3018z" stroke="none" fill="#000000" fill-rule="nonzero" /><path id="299" transform="matrix(1 0 0 -1 0 842)" d="M248.8038 386.0244L422.2725 386.0244L422.2725 385.5293L248.8038 385.5293z" stroke="none" fill="#000000" fill-rule="nonzero" /><path id="300" transform="matrix(1 0 0 -1 0 842)" d="M248.8038 411.7969L249.2994 411.7969L249.2994 385.5293L248.8038 385.5293z" stroke="none" fill="#000000" fill-rule="nonzero" /><path id="301" transform="matrix(1 0 0 -1 0 842)" d="M421.7769 411.7969L422.2725 411.7969L422.2725 385.5293L421.7769 385.5293z" stroke="none" fill="#000000" fill-rule="nonzero" /><path id="302" transform="matrix(1 0 0 -1 0 842)" d="M421.7769 411.7969L471.3394 411.7969L471.3394 411.3018L421.7769 411.3018z" stroke="none" fill="#000000" fill-rule="nonzero" /><path id="303" transform="matrix(1 0 0 -1 0 842)" d="M421.7769 386.0244L471.3394 386.0244L471.3394 385.5293L421.7769 385.5293z" stroke="none" fill="#000000" fill-rule="nonzero" /><path id="304" transform="matrix(1 0 0 -1 0 842)" d="M421.7769 411.7969L422.2725 411.7969L422.2725 385.5293L421.7769 385.5293z" stroke="none" fill="#000000" fill-rule="nonzero" /><path id="305" transform="matrix(1 0 0 -1 0 842)" d="M470.8438 411.7969L471.3394 411.7969L471.3394 385.5293L470.8438 385.5293z" stroke="none" fill="#000000" fill-rule="nonzero" /><path id="306" transform="matrix(1 0 0 -1 0 842)" d="M470.8438 411.7969L545.1875 411.7969L545.1875 411.3018L470.8438 411.3018z" stroke="none" fill="#000000" fill-rule="nonzero" /><path id="307" transform="matrix(1 0 0 -1 0 842)" d="M470.8438 386.0244L545.1875 386.0244L545.1875 385.5293L470.8438 385.5293z" stroke="none" fill="#000000" fill-rule="nonzero" /><path id="308" transform="matrix(1 0 0 -1 0 842)" d="M470.8438 411.7969L471.3394 411.7969L471.3394 385.5293L470.8438 385.5293z" stroke="none" fill="#000000" fill-rule="nonzero" /><path id="309" transform="matrix(1 0 0 -1 0 842)" d="M544.6919 411.7969L545.1875 411.7969L545.1875 385.5293L544.6919 385.5293z" stroke="none" fill="#000000" fill-rule="nonzero" /><path id="310" transform="matrix(1 0 0 -1 0 842)" d="M49.5625 386.0244L74.83938 386.0244L74.83938 385.5293L49.5625 385.5293z" stroke="none" fill="#000000" fill-rule="nonzero" /><path id="311" transform="matrix(1 0 0 -1 0 842)" d="M49.5625 317.6289L74.83938 317.6289L74.83938 317.1328L49.5625 317.1328z" stroke="none" fill="#000000" fill-rule="nonzero" /><path id="312" transform="matrix(1 0 0 -1 0 842)" d="M49.5625 386.0244L50.05813 386.0244L50.05813 317.1328L49.5625 317.1328z" stroke="none" fill="#000000" fill-rule="nonzero" /><path id="313" transform="matrix(1 0 0 -1 0 842)" d="M74.34375 386.0244L74.83938 386.0244L74.83938 317.1328L74.34375 317.1328z" stroke="none" fill="#000000" fill-rule="nonzero" /><path id="314" transform="matrix(1 0 0 -1 0 842)" d="M74.34375 386.0244L149.1831 386.0244L149.1831 385.5293L74.34375 385.5293z" stroke="none" fill="#000000" fill-rule="nonzero" /><path id="315" transform="matrix(1 0 0 -1 0 842)" d="M74.34375 317.6289L149.1831 317.6289L149.1831 317.1328L74.34375 317.1328z" stroke="none" fill="#000000" fill-rule="nonzero" /><path id="316" transform="matrix(1 0 0 -1 0 842)" d="M74.34375 386.0244L74.83938 386.0244L74.83938 317.1328L74.34375 317.1328z" stroke="none" fill="#000000" fill-rule="nonzero" /><path id="317" transform="matrix(1 0 0 -1 0 842)" d="M148.6875 386.0244L149.1831 386.0244L149.1831 317.1328L148.6875 317.1328z" stroke="none" fill="#000000" fill-rule="nonzero" /><path id="318" transform="matrix(1 0 0 -1 0 842)" d="M148.6875 386.0244L199.7369 386.0244L199.7369 385.5293L148.6875 385.5293z" stroke="none" fill="#000000" fill-rule="nonzero" /><path id="319" transform="matrix(1 0 0 -1 0 842)" d="M148.6875 351.8271L199.7369 351.8271L199.7369 351.3311L148.6875 351.3311z" stroke="none" fill="#000000" fill-rule="nonzero" /><path id="320" transform="matrix(1 0 0 -1 0 842)" d="M148.6875 386.0244L149.1831 386.0244L149.1831 351.3311L148.6875 351.3311z" stroke="none" fill="#000000" fill-rule="nonzero" /><path id="321" transform="matrix(1 0 0 -1 0 842)" d="M199.2413 386.0244L199.7369 386.0244L199.7369 351.3311L199.2413 351.3311z" stroke="none" fill="#000000" fill-rule="nonzero" /><path id="322" transform="matrix(1 0 0 -1 0 842)" d="M199.2413 386.0244L249.2994 386.0244L249.2994 385.5293L199.2413 385.5293z" stroke="none" fill="#000000" fill-rule="nonzero" /><path id="323" transform="matrix(1 0 0 -1 0 842)" d="M199.2413 351.8271L249.2994 351.8271L249.2994 351.3311L199.2413 351.3311z" stroke="none" fill="#000000" fill-rule="nonzero" /><path id="324" transform="matrix(1 0 0 -1 0 842)" d="M199.2413 386.0244L199.7369 386.0244L199.7369 351.3311L199.2413 351.3311z" stroke="none" fill="#000000" fill-rule="nonzero" /><path id="325" transform="matrix(1 0 0 -1 0 842)" d="M248.8038 386.0244L249.2994 386.0244L249.2994 351.3311L248.8038 351.3311z" stroke="none" fill="#000000" fill-rule="nonzero" /><path id="326" transform="matrix(1 0 0 -1 0 842)" d="M248.8038 386.0244L422.2725 386.0244L422.2725 385.5293L248.8038 385.5293z" stroke="none" fill="#000000" fill-rule="nonzero" /><path id="327" transform="matrix(1 0 0 -1 0 842)" d="M248.8038 351.8271L422.2725 351.8271L422.2725 351.3311L248.8038 351.3311z" stroke="none" fill="#000000" fill-rule="nonzero" /><path id="328" transform="matrix(1 0 0 -1 0 842)" d="M248.8038 386.0244L249.2994 386.0244L249.2994 351.3311L248.8038 351.3311z" stroke="none" fill="#000000" fill-rule="nonzero" /><path id="329" transform="matrix(1 0 0 -1 0 842)" d="M421.7769 386.0244L422.2725 386.0244L422.2725 351.3311L421.7769 351.3311z" stroke="none" fill="#000000" fill-rule="nonzero" /><path id="330" transform="matrix(1 0 0 -1 0 842)" d="M421.7769 386.0244L471.3394 386.0244L471.3394 385.5293L421.7769 385.5293z" stroke="none" fill="#000000" fill-rule="nonzero" /><path id="331" transform="matrix(1 0 0 -1 0 842)" d="M421.7769 351.8271L471.3394 351.8271L471.3394 351.3311L421.7769 351.3311z" stroke="none" fill="#000000" fill-rule="nonzero" /><path id="332" transform="matrix(1 0 0 -1 0 842)" d="M421.7769 386.0244L422.2725 386.0244L422.2725 351.3311L421.7769 351.3311z" stroke="none" fill="#000000" fill-rule="nonzero" /><path id="333" transform="matrix(1 0 0 -1 0 842)" d="M470.8438 386.0244L471.3394 386.0244L471.3394 351.3311L470.8438 351.3311z" stroke="none" fill="#000000" fill-rule="nonzero" /><path id="334" transform="matrix(1 0 0 -1 0 842)" d="M470.8438 386.0244L545.1875 386.0244L545.1875 385.5293L470.8438 385.5293z" stroke="none" fill="#000000" fill-rule="nonzero" /><path id="335" transform="matrix(1 0 0 -1 0 842)" d="M470.8438 317.6289L545.1875 317.6289L545.1875 317.1328L470.8438 317.1328z" stroke="none" fill="#000000" fill-rule="nonzero" /><path id="336" transform="matrix(1 0 0 -1 0 842)" d="M470.8438 386.0244L471.3394 386.0244L471.3394 317.1328L470.8438 317.1328z" stroke="none" fill="#000000" fill-rule="nonzero" /><path id="337" transform="matrix(1 0 0 -1 0 842)" d="M544.6919 386.0244L545.1875 386.0244L545.1875 317.1328L544.6919 317.1328z" stroke="none" fill="#000000" fill-rule="nonzero" /><path id="338" transform="matrix(1 0 0 -1 0 842)" d="M148.6875 351.8271L199.7369 351.8271L199.7369 351.3311L148.6875 351.3311z" stroke="none" fill="#000000" fill-rule="nonzero" /><path id="339" transform="matrix(1 0 0 -1 0 842)" d="M148.6875 317.6289L199.7369 317.6289L199.7369 317.1328L148.6875 317.1328z" stroke="none" fill="#000000" fill-rule="nonzero" /><path id="340" transform="matrix(1 0 0 -1 0 842)" d="M148.6875 351.8271L149.1831 351.8271L149.1831 317.1328L148.6875 317.1328z" stroke="none" fill="#000000" fill-rule="nonzero" /><path id="341" transform="matrix(1 0 0 -1 0 842)" d="M199.2413 351.8271L199.7369 351.8271L199.7369 317.1328L199.2413 317.1328z" stroke="none" fill="#000000" fill-rule="nonzero" /><path id="342" transform="matrix(1 0 0 -1 0 842)" d="M199.2413 351.8271L249.2994 351.8271L249.2994 351.3311L199.2413 351.3311z" stroke="none" fill="#000000" fill-rule="nonzero" /><path id="343" transform="matrix(1 0 0 -1 0 842)" d="M199.2413 317.6289L249.2994 317.6289L249.2994 317.1328L199.2413 317.1328z" stroke="none" fill="#000000" fill-rule="nonzero" /><path id="344" transform="matrix(1 0 0 -1 0 842)" d="M199.2413 351.8271L199.7369 351.8271L199.7369 317.1328L199.2413 317.1328z" stroke="none" fill="#000000" fill-rule="nonzero" /><path id="345" transform="matrix(1 0 0 -1 0 842)" d="M248.8038 351.8271L249.2994 351.8271L249.2994 317.1328L248.8038 317.1328z" stroke="none" fill="#000000" fill-rule="nonzero" /><path id="346" transform="matrix(1 0 0 -1 0 842)" d="M248.8038 351.8271L422.2725 351.8271L422.2725 351.3311L248.8038 351.3311z" stroke="none" fill="#000000" fill-rule="nonzero" /><path id="347" transform="matrix(1 0 0 -1 0 842)" d="M248.8038 317.6289L422.2725 317.6289L422.2725 317.1328L248.8038 317.1328z" stroke="none" fill="#000000" fill-rule="nonzero" /><path id="348" transform="matrix(1 0 0 -1 0 842)" d="M248.8038 351.8271L249.2994 351.8271L249.2994 317.1328L248.8038 317.1328z" stroke="none" fill="#000000" fill-rule="nonzero" /><path id="349" transform="matrix(1 0 0 -1 0 842)" d="M421.7769 351.8271L422.2725 351.8271L422.2725 317.1328L421.7769 317.1328z" stroke="none" fill="#000000" fill-rule="nonzero" /><path id="350" transform="matrix(1 0 0 -1 0 842)" d="M421.7769 351.8271L471.3394 351.8271L471.3394 351.3311L421.7769 351.3311z" stroke="none" fill="#000000" fill-rule="nonzero" /><path id="351" transform="matrix(1 0 0 -1 0 842)" d="M421.7769 317.6289L471.3394 317.6289L471.3394 317.1328L421.7769 317.1328z" stroke="none" fill="#000000" fill-rule="nonzero" /><path id="352" transform="matrix(1 0 0 -1 0 842)" d="M421.7769 351.8271L422.2725 351.8271L422.2725 317.1328L421.7769 317.1328z" stroke="none" fill="#000000" fill-rule="nonzero" /><path id="353" transform="matrix(1 0 0 -1 0 842)" d="M470.8438 351.8271L471.3394 351.8271L471.3394 317.1328L470.8438 317.1328z" stroke="none" fill="#000000" fill-rule="nonzero" /><path id="354" transform="matrix(1 0 0 -1 0 842)" d="M49.5625 317.6289L74.83938 317.6289L74.83938 317.1328L49.5625 317.1328z" stroke="none" fill="#000000" fill-rule="nonzero" /><path id="355" transform="matrix(1 0 0 -1 0 842)" d="M49.5625 283.4307L74.83938 283.4307L74.83938 282.9346L49.5625 282.9346z" stroke="none" fill="#000000" fill-rule="nonzero" /><path id="356" transform="matrix(1 0 0 -1 0 842)" d="M49.5625 317.6289L50.05813 317.6289L50.05813 282.9346L49.5625 282.9346z" stroke="none" fill="#000000" fill-rule="nonzero" /><path id="357" transform="matrix(1 0 0 -1 0 842)" d="M74.34375 317.6289L74.83938 317.6289L74.83938 282.9346L74.34375 282.9346z" stroke="none" fill="#000000" fill-rule="nonzero" /><path id="358" transform="matrix(1 0 0 -1 0 842)" d="M74.34375 317.6289L149.1831 317.6289L149.1831 317.1328L74.34375 317.1328z" stroke="none" fill="#000000" fill-rule="nonzero" /><path id="359" transform="matrix(1 0 0 -1 0 842)" d="M74.34375 283.4307L149.1831 283.4307L149.1831 282.9346L74.34375 282.9346z" stroke="none" fill="#000000" fill-rule="nonzero" /><path id="360" transform="matrix(1 0 0 -1 0 842)" d="M74.34375 317.6289L74.83938 317.6289L74.83938 282.9346L74.34375 282.9346z" stroke="none" fill="#000000" fill-rule="nonzero" /><path id="361" transform="matrix(1 0 0 -1 0 842)" d="M148.6875 317.6289L149.1831 317.6289L149.1831 282.9346L148.6875 282.9346z" stroke="none" fill="#000000" fill-rule="nonzero" /><path id="362" transform="matrix(1 0 0 -1 0 842)" d="M148.6875 317.6289L199.7369 317.6289L199.7369 317.1328L148.6875 317.1328z" stroke="none" fill="#000000" fill-rule="nonzero" /><path id="363" transform="matrix(1 0 0 -1 0 842)" d="M148.6875 283.4307L199.7369 283.4307L199.7369 282.9346L148.6875 282.9346z" stroke="none" fill="#000000" fill-rule="nonzero" /><path id="364" transform="matrix(1 0 0 -1 0 842)" d="M148.6875 317.6289L149.1831 317.6289L149.1831 282.9346L148.6875 282.9346z" stroke="none" fill="#000000" fill-rule="nonzero" /><path id="365" transform="matrix(1 0 0 -1 0 842)" d="M199.2413 317.6289L199.7369 317.6289L199.7369 282.9346L199.2413 282.9346z" stroke="none" fill="#000000" fill-rule="nonzero" /><path id="366" transform="matrix(1 0 0 -1 0 842)" d="M199.2413 317.6289L249.2994 317.6289L249.2994 317.1328L199.2413 317.1328z" stroke="none" fill="#000000" fill-rule="nonzero" /><path id="367" transform="matrix(1 0 0 -1 0 842)" d="M199.2413 283.4307L249.2994 283.4307L249.2994 282.9346L199.2413 282.9346z" stroke="none" fill="#000000" fill-rule="nonzero" /><path id="368" transform="matrix(1 0 0 -1 0 842)" d="M199.2413 317.6289L199.7369 317.6289L199.7369 282.9346L199.2413 282.9346z" stroke="none" fill="#000000" fill-rule="nonzero" /><path id="369" transform="matrix(1 0 0 -1 0 842)" d="M248.8038 317.6289L249.2994 317.6289L249.2994 282.9346L248.8038 282.9346z" stroke="none" fill="#000000" fill-rule="nonzero" /><path id="370" transform="matrix(1 0 0 -1 0 842)" d="M248.8038 317.6289L422.2725 317.6289L422.2725 317.1328L248.8038 317.1328z" stroke="none" fill="#000000" fill-rule="nonzero" /><path id="371" transform="matrix(1 0 0 -1 0 842)" d="M248.8038 283.4307L422.2725 283.4307L422.2725 282.9346L248.8038 282.9346z" stroke="none" fill="#000000" fill-rule="nonzero" /><path id="372" transform="matrix(1 0 0 -1 0 842)" d="M248.8038 317.6289L249.2994 317.6289L249.2994 282.9346L248.8038 282.9346z" stroke="none" fill="#000000" fill-rule="nonzero" /><path id="373" transform="matrix(1 0 0 -1 0 842)" d="M421.7769 317.6289L422.2725 317.6289L422.2725 282.9346L421.7769 282.9346z" stroke="none" fill="#000000" fill-rule="nonzero" /><path id="374" transform="matrix(1 0 0 -1 0 842)" d="M421.7769 317.6289L471.3394 317.6289L471.3394 317.1328L421.7769 317.1328z" stroke="none" fill="#000000" fill-rule="nonzero" /><path id="375" transform="matrix(1 0 0 -1 0 842)" d="M421.7769 283.4307L471.3394 283.4307L471.3394 282.9346L421.7769 282.9346z" stroke="none" fill="#000000" fill-rule="nonzero" /><path id="376" transform="matrix(1 0 0 -1 0 842)" d="M421.7769 317.6289L422.2725 317.6289L422.2725 282.9346L421.7769 282.9346z" stroke="none" fill="#000000" fill-rule="nonzero" /><path id="377" transform="matrix(1 0 0 -1 0 842)" d="M470.8438 317.6289L471.3394 317.6289L471.3394 282.9346L470.8438 282.9346z" stroke="none" fill="#000000" fill-rule="nonzero" /><path id="378" transform="matrix(1 0 0 -1 0 842)" d="M470.8438 317.6289L545.1875 317.6289L545.1875 317.1328L470.8438 317.1328z" stroke="none" fill="#000000" fill-rule="nonzero" /><path id="379" transform="matrix(1 0 0 -1 0 842)" d="M470.8438 283.4307L545.1875 283.4307L545.1875 282.9346L470.8438 282.9346z" stroke="none" fill="#000000" fill-rule="nonzero" /><path id="380" transform="matrix(1 0 0 -1 0 842)" d="M470.8438 317.6289L471.3394 317.6289L471.3394 282.9346L470.8438 282.9346z" stroke="none" fill="#000000" fill-rule="nonzero" /><path id="381" transform="matrix(1 0 0 -1 0 842)" d="M544.6919 317.6289L545.1875 317.6289L545.1875 282.9346L544.6919 282.9346z" stroke="none" fill="#000000" fill-rule="nonzero" /><path id="382" transform="matrix(1 0 0 -1 0 842)" d="M49.5625 283.4307L74.83938 283.4307L74.83938 282.9346L49.5625 282.9346z" stroke="none" fill="#000000" fill-rule="nonzero" /><path id="383" transform="matrix(1 0 0 -1 0 842)" d="M49.5625 249.2324L74.83938 249.2324L74.83938 248.7363L49.5625 248.7363z" stroke="none" fill="#000000" fill-rule="nonzero" /><path id="384" transform="matrix(1 0 0 -1 0 842)" d="M49.5625 283.4307L50.05813 283.4307L50.05813 248.7363L49.5625 248.7363z" stroke="none" fill="#000000" fill-rule="nonzero" /><path id="385" transform="matrix(1 0 0 -1 0 842)" d="M74.34375 283.4307L74.83938 283.4307L74.83938 248.7363L74.34375 248.7363z" stroke="none" fill="#000000" fill-rule="nonzero" /><path id="386" transform="matrix(1 0 0 -1 0 842)" d="M74.34375 283.4307L149.1831 283.4307L149.1831 282.9346L74.34375 282.9346z" stroke="none" fill="#000000" fill-rule="nonzero" /><path id="387" transform="matrix(1 0 0 -1 0 842)" d="M74.34375 249.2324L149.1831 249.2324L149.1831 248.7363L74.34375 248.7363z" stroke="none" fill="#000000" fill-rule="nonzero" /><path id="388" transform="matrix(1 0 0 -1 0 842)" d="M74.34375 283.4307L74.83938 283.4307L74.83938 248.7363L74.34375 248.7363z" stroke="none" fill="#000000" fill-rule="nonzero" /><path id="389" transform="matrix(1 0 0 -1 0 842)" d="M148.6875 283.4307L149.1831 283.4307L149.1831 248.7363L148.6875 248.7363z" stroke="none" fill="#000000" fill-rule="nonzero" /><path id="390" transform="matrix(1 0 0 -1 0 842)" d="M148.6875 283.4307L199.7369 283.4307L199.7369 282.9346L148.6875 282.9346z" stroke="none" fill="#000000" fill-rule="nonzero" /><path id="391" transform="matrix(1 0 0 -1 0 842)" d="M148.6875 249.2324L199.7369 249.2324L199.7369 248.7363L148.6875 248.7363z" stroke="none" fill="#000000" fill-rule="nonzero" /><path id="392" transform="matrix(1 0 0 -1 0 842)" d="M148.6875 283.4307L149.1831 283.4307L149.1831 248.7363L148.6875 248.7363z" stroke="none" fill="#000000" fill-rule="nonzero" /><path id="393" transform="matrix(1 0 0 -1 0 842)" d="M199.2413 283.4307L199.7369 283.4307L199.7369 248.7363L199.2413 248.7363z" stroke="none" fill="#000000" fill-rule="nonzero" /><path id="394" transform="matrix(1 0 0 -1 0 842)" d="M199.2413 283.4307L249.2994 283.4307L249.2994 282.9346L199.2413 282.9346z" stroke="none" fill="#000000" fill-rule="nonzero" /><path id="395" transform="matrix(1 0 0 -1 0 842)" d="M199.2413 249.2324L249.2994 249.2324L249.2994 248.7363L199.2413 248.7363z" stroke="none" fill="#000000" fill-rule="nonzero" /><path id="396" transform="matrix(1 0 0 -1 0 842)" d="M199.2413 283.4307L199.7369 283.4307L199.7369 248.7363L199.2413 248.7363z" stroke="none" fill="#000000" fill-rule="nonzero" /><path id="397" transform="matrix(1 0 0 -1 0 842)" d="M248.8038 283.4307L249.2994 283.4307L249.2994 248.7363L248.8038 248.7363z" stroke="none" fill="#000000" fill-rule="nonzero" /><path id="398" transform="matrix(1 0 0 -1 0 842)" d="M248.8038 283.4307L422.2725 283.4307L422.2725 282.9346L248.8038 282.9346z" stroke="none" fill="#000000" fill-rule="nonzero" /><path id="399" transform="matrix(1 0 0 -1 0 842)" d="M248.8038 249.2324L422.2725 249.2324L422.2725 248.7363L248.8038 248.7363z" stroke="none" fill="#000000" fill-rule="nonzero" /><path id="400" transform="matrix(1 0 0 -1 0 842)" d="M248.8038 283.4307L249.2994 283.4307L249.2994 248.7363L248.8038 248.7363z" stroke="none" fill="#000000" fill-rule="nonzero" /><path id="401" transform="matrix(1 0 0 -1 0 842)" d="M421.7769 283.4307L422.2725 283.4307L422.2725 248.7363L421.7769 248.7363z" stroke="none" fill="#000000" fill-rule="nonzero" /><path id="402" transform="matrix(1 0 0 -1 0 842)" d="M421.7769 283.4307L471.3394 283.4307L471.3394 282.9346L421.7769 282.9346z" stroke="none" fill="#000000" fill-rule="nonzero" /><path id="403" transform="matrix(1 0 0 -1 0 842)" d="M421.7769 249.2324L471.3394 249.2324L471.3394 248.7363L421.7769 248.7363z" stroke="none" fill="#000000" fill-rule="nonzero" /><path id="404" transform="matrix(1 0 0 -1 0 842)" d="M421.7769 283.4307L422.2725 283.4307L422.2725 248.7363L421.7769 248.7363z" stroke="none" fill="#000000" fill-rule="nonzero" /><path id="405" transform="matrix(1 0 0 -1 0 842)" d="M470.8438 283.4307L471.3394 283.4307L471.3394 248.7363L470.8438 248.7363z" stroke="none" fill="#000000" fill-rule="nonzero" /><path id="406" transform="matrix(1 0 0 -1 0 842)" d="M470.8438 283.4307L545.1875 283.4307L545.1875 282.9346L470.8438 282.9346z" stroke="none" fill="#000000" fill-rule="nonzero" /><path id="407" transform="matrix(1 0 0 -1 0 842)" d="M470.8438 249.2324L545.1875 249.2324L545.1875 248.7363L470.8438 248.7363z" stroke="none" fill="#000000" fill-rule="nonzero" /><path id="408" transform="matrix(1 0 0 -1 0 842)" d="M470.8438 283.4307L471.3394 283.4307L471.3394 248.7363L470.8438 248.7363z" stroke="none" fill="#000000" fill-rule="nonzero" /><path id="409" transform="matrix(1 0 0 -1 0 842)" d="M544.6919 283.4307L545.1875 283.4307L545.1875 248.7363L544.6919 248.7363z" stroke="none" fill="#000000" fill-rule="nonzero" /><path id="410" transform="matrix(1 0 0 -1 0 842)" d="M49.5625 249.2324L74.83938 249.2324L74.83938 248.7363L49.5625 248.7363z" stroke="none" fill="#000000" fill-rule="nonzero" /><path id="411" transform="matrix(1 0 0 -1 0 842)" d="M49.5625 215.0342L74.83938 215.0342L74.83938 214.5381L49.5625 214.5381z" stroke="none" fill="#000000" fill-rule="nonzero" /><path id="412" transform="matrix(1 0 0 -1 0 842)" d="M49.5625 249.2324L50.05813 249.2324L50.05813 214.5381L49.5625 214.5381z" stroke="none" fill="#000000" fill-rule="nonzero" /><path id="413" transform="matrix(1 0 0 -1 0 842)" d="M74.34375 249.2324L74.83938 249.2324L74.83938 214.5381L74.34375 214.5381z" stroke="none" fill="#000000" fill-rule="nonzero" /><path id="414" transform="matrix(1 0 0 -1 0 842)" d="M74.34375 249.2324L149.1831 249.2324L149.1831 248.7363L74.34375 248.7363z" stroke="none" fill="#000000" fill-rule="nonzero" /><path id="415" transform="matrix(1 0 0 -1 0 842)" d="M74.34375 215.0342L149.1831 215.0342L149.1831 214.5381L74.34375 214.5381z" stroke="none" fill="#000000" fill-rule="nonzero" /><path id="416" transform="matrix(1 0 0 -1 0 842)" d="M74.34375 249.2324L74.83938 249.2324L74.83938 214.5381L74.34375 214.5381z" stroke="none" fill="#000000" fill-rule="nonzero" /><path id="417" transform="matrix(1 0 0 -1 0 842)" d="M148.6875 249.2324L149.1831 249.2324L149.1831 214.5381L148.6875 214.5381z" stroke="none" fill="#000000" fill-rule="nonzero" /><path id="418" transform="matrix(1 0 0 -1 0 842)" d="M148.6875 249.2324L199.7369 249.2324L199.7369 248.7363L148.6875 248.7363z" stroke="none" fill="#000000" fill-rule="nonzero" /><path id="419" transform="matrix(1 0 0 -1 0 842)" d="M148.6875 215.0342L199.7369 215.0342L199.7369 214.5381L148.6875 214.5381z" stroke="none" fill="#000000" fill-rule="nonzero" /><path id="420" transform="matrix(1 0 0 -1 0 842)" d="M148.6875 249.2324L149.1831 249.2324L149.1831 214.5381L148.6875 214.5381z" stroke="none" fill="#000000" fill-rule="nonzero" /><path id="421" transform="matrix(1 0 0 -1 0 842)" d="M199.2413 249.2324L199.7369 249.2324L199.7369 214.5381L199.2413 214.5381z" stroke="none" fill="#000000" fill-rule="nonzero" /><path id="422" transform="matrix(1 0 0 -1 0 842)" d="M199.2413 249.2324L249.2994 249.2324L249.2994 248.7363L199.2413 248.7363z" stroke="none" fill="#000000" fill-rule="nonzero" /><path id="423" transform="matrix(1 0 0 -1 0 842)" d="M199.2413 215.0342L249.2994 215.0342L249.2994 214.5381L199.2413 214.5381z" stroke="none" fill="#000000" fill-rule="nonzero" /><path id="424" transform="matrix(1 0 0 -1 0 842)" d="M199.2413 249.2324L199.7369 249.2324L199.7369 214.5381L199.2413 214.5381z" stroke="none" fill="#000000" fill-rule="nonzero" /><path id="425" transform="matrix(1 0 0 -1 0 842)" d="M248.8038 249.2324L249.2994 249.2324L249.2994 214.5381L248.8038 214.5381z" stroke="none" fill="#000000" fill-rule="nonzero" /><path id="426" transform="matrix(1 0 0 -1 0 842)" d="M248.8038 249.2324L422.2725 249.2324L422.2725 248.7363L248.8038 248.7363z" stroke="none" fill="#000000" fill-rule="nonzero" /><path id="427" transform="matrix(1 0 0 -1 0 842)" d="M248.8038 215.0342L422.2725 215.0342L422.2725 214.5381L248.8038 214.5381z" stroke="none" fill="#000000" fill-rule="nonzero" /><path id="428" transform="matrix(1 0 0 -1 0 842)" d="M248.8038 249.2324L249.2994 249.2324L249.2994 214.5381L248.8038 214.5381z" stroke="none" fill="#000000" fill-rule="nonzero" /><path id="429" transform="matrix(1 0 0 -1 0 842)" d="M421.7769 249.2324L422.2725 249.2324L422.2725 214.5381L421.7769 214.5381z" stroke="none" fill="#000000" fill-rule="nonzero" /><path id="430" transform="matrix(1 0 0 -1 0 842)" d="M421.7769 249.2324L471.3394 249.2324L471.3394 248.7363L421.7769 248.7363z" stroke="none" fill="#000000" fill-rule="nonzero" /><path id="431" transform="matrix(1 0 0 -1 0 842)" d="M421.7769 215.0342L471.3394 215.0342L471.3394 214.5381L421.7769 214.5381z" stroke="none" fill="#000000" fill-rule="nonzero" /><path id="432" transform="matrix(1 0 0 -1 0 842)" d="M421.7769 249.2324L422.2725 249.2324L422.2725 214.5381L421.7769 214.5381z" stroke="none" fill="#000000" fill-rule="nonzero" /><path id="433" transform="matrix(1 0 0 -1 0 842)" d="M470.8438 249.2324L471.3394 249.2324L471.3394 214.5381L470.8438 214.5381z" stroke="none" fill="#000000" fill-rule="nonzero" /><path id="434" transform="matrix(1 0 0 -1 0 842)" d="M470.8438 249.2324L545.1875 249.2324L545.1875 248.7363L470.8438 248.7363z" stroke="none" fill="#000000" fill-rule="nonzero" /><path id="435" transform="matrix(1 0 0 -1 0 842)" d="M470.8438 215.0342L545.1875 215.0342L545.1875 214.5381L470.8438 214.5381z" stroke="none" fill="#000000" fill-rule="nonzero" /><path id="436" transform="matrix(1 0 0 -1 0 842)" d="M470.8438 249.2324L471.3394 249.2324L471.3394 214.5381L470.8438 214.5381z" stroke="none" fill="#000000" fill-rule="nonzero" /><path id="437" transform="matrix(1 0 0 -1 0 842)" d="M544.6919 249.2324L545.1875 249.2324L545.1875 214.5381L544.6919 214.5381z" stroke="none" fill="#000000" fill-rule="nonzero" /><path id="438" transform="matrix(1 0 0 -1 0 842)" d="M49.5625 185.792L74.34375 185.792L74.34375 160.0195L49.5625 160.0195z" stroke="none" fill="#9CC9F0" fill-rule="nonzero" /><path id="439" transform="matrix(1 0 0 -1 0 842)" d="M74.34375 185.792L148.6875 185.792L148.6875 160.0195L74.34375 160.0195z" stroke="none" fill="#9CC9F0" fill-rule="nonzero" /><path id="440" transform="matrix(1 0 0 -1 0 842)" d="M148.6875 185.792L198.25 185.792L198.25 160.0195L148.6875 160.0195z" stroke="none" fill="#9CC9F0" fill-rule="nonzero" /><path id="441" transform="matrix(1 0 0 -1 0 842)" d="M198.25 185.792L247.8125 185.792L247.8125 160.0195L198.25 160.0195z" stroke="none" fill="#9CC9F0" fill-rule="nonzero" /><path id="442" transform="matrix(1 0 0 -1 0 842)" d="M247.8125 185.792L421.2813 185.792L421.2813 160.0195L247.8125 160.0195z" stroke="none" fill="#9CC9F0" fill-rule="nonzero" /><path id="443" transform="matrix(1 0 0 -1 0 842)" d="M421.2813 185.792L470.8438 185.792L470.8438 160.0195L421.2813 160.0195z" stroke="none" fill="#9CC9F0" fill-rule="nonzero" /><path id="444" transform="matrix(1 0 0 -1 0 842)" d="M470.8438 185.792L544.6919 185.792L544.6919 160.0195L470.8438 160.0195z" stroke="none" fill="#9CC9F0" fill-rule="nonzero" /><path id="445" transform="matrix(1 0 0 -1 0 842)" d="M49.5625 185.792L74.83938 185.792L74.83938 185.2969L49.5625 185.2969z" stroke="none" fill="#000000" fill-rule="nonzero" /><path id="446" transform="matrix(1 0 0 -1 0 842)" d="M49.5625 160.0195L74.83938 160.0195L74.83938 159.5244L49.5625 159.5244z" stroke="none" fill="#000000" fill-rule="nonzero" /><path id="447" transform="matrix(1 0 0 -1 0 842)" d="M49.5625 185.792L50.05813 185.792L50.05813 159.5244L49.5625 159.5244z" stroke="none" fill="#000000" fill-rule="nonzero" /><path id="448" transform="matrix(1 0 0 -1 0 842)" d="M74.34375 185.792L74.83938 185.792L74.83938 159.5244L74.34375 159.5244z" stroke="none" fill="#000000" fill-rule="nonzero" /><path id="449" transform="matrix(1 0 0 -1 0 842)" d="M74.34375 185.792L149.1831 185.792L149.1831 185.2969L74.34375 185.2969z" stroke="none" fill="#000000" fill-rule="nonzero" /><path id="450" transform="matrix(1 0 0 -1 0 842)" d="M74.34375 160.0195L149.1831 160.0195L149.1831 159.5244L74.34375 159.5244z" stroke="none" fill="#000000" fill-rule="nonzero" /><path id="451" transform="matrix(1 0 0 -1 0 842)" d="M74.34375 185.792L74.83938 185.792L74.83938 159.5244L74.34375 159.5244z" stroke="none" fill="#000000" fill-rule="nonzero" /><path id="452" transform="matrix(1 0 0 -1 0 842)" d="M148.6875 185.792L149.1831 185.792L149.1831 159.5244L148.6875 159.5244z" stroke="none" fill="#000000" fill-rule="nonzero" /><path id="453" transform="matrix(1 0 0 -1 0 842)" d="M148.6875 185.792L198.7456 185.792L198.7456 185.2969L148.6875 185.2969z" stroke="none" fill="#000000" fill-rule="nonzero" /><path id="454" transform="matrix(1 0 0 -1 0 842)" d="M148.6875 160.0195L198.7456 160.0195L198.7456 159.5244L148.6875 159.5244z" stroke="none" fill="#000000" fill-rule="nonzero" /><path id="455" transform="matrix(1 0 0 -1 0 842)" d="M148.6875 185.792L149.1831 185.792L149.1831 159.5244L148.6875 159.5244z" stroke="none" fill="#000000" fill-rule="nonzero" /><path id="456" transform="matrix(1 0 0 -1 0 842)" d="M198.25 185.792L198.7456 185.792L198.7456 159.5244L198.25 159.5244z" stroke="none" fill="#000000" fill-rule="nonzero" /><path id="457" transform="matrix(1 0 0 -1 0 842)" d="M198.25 185.792L248.3081 185.792L248.3081 185.2969L198.25 185.2969z" stroke="none" fill="#000000" fill-rule="nonzero" /><path id="458" transform="matrix(1 0 0 -1 0 842)" d="M198.25 160.0195L248.3081 160.0195L248.3081 159.5244L198.25 159.5244z" stroke="none" fill="#000000" fill-rule="nonzero" /><path id="459" transform="matrix(1 0 0 -1 0 842)" d="M198.25 185.792L198.7456 185.792L198.7456 159.5244L198.25 159.5244z" stroke="none" fill="#000000" fill-rule="nonzero" /><path id="460" transform="matrix(1 0 0 -1 0 842)" d="M247.8125 185.792L248.3081 185.792L248.3081 159.5244L247.8125 159.5244z" stroke="none" fill="#000000" fill-rule="nonzero" /><path id="461" transform="matrix(1 0 0 -1 0 842)" d="M247.8125 185.792L421.7769 185.792L421.7769 185.2969L247.8125 185.2969z" stroke="none" fill="#000000" fill-rule="nonzero" /><path id="462" transform="matrix(1 0 0 -1 0 842)" d="M247.8125 160.0195L421.7769 160.0195L421.7769 159.5244L247.8125 159.5244z" stroke="none" fill="#000000" fill-rule="nonzero" /><path id="463" transform="matrix(1 0 0 -1 0 842)" d="M247.8125 185.792L248.3081 185.792L248.3081 159.5244L247.8125 159.5244z" stroke="none" fill="#000000" fill-rule="nonzero" /><path id="464" transform="matrix(1 0 0 -1 0 842)" d="M421.2813 185.792L421.7769 185.792L421.7769 159.5244L421.2813 159.5244z" stroke="none" fill="#000000" fill-rule="nonzero" /><path id="465" transform="matrix(1 0 0 -1 0 842)" d="M421.2813 185.792L471.3394 185.792L471.3394 185.2969L421.2813 185.2969z" stroke="none" fill="#000000" fill-rule="nonzero" /><path id="466" transform="matrix(1 0 0 -1 0 842)" d="M421.2813 160.0195L471.3394 160.0195L471.3394 159.5244L421.2813 159.5244z" stroke="none" fill="#000000" fill-rule="nonzero" /><path id="467" transform="matrix(1 0 0 -1 0 842)" d="M421.2813 185.792L421.7769 185.792L421.7769 159.5244L421.2813 159.5244z" stroke="none" fill="#000000" fill-rule="nonzero" /><path id="468" transform="matrix(1 0 0 -1 0 842)" d="M470.8438 185.792L471.3394 185.792L471.3394 159.5244L470.8438 159.5244z" stroke="none" fill="#000000" fill-rule="nonzero" /><path id="469" transform="matrix(1 0 0 -1 0 842)" d="M470.8438 185.792L545.1875 185.792L545.1875 185.2969L470.8438 185.2969z" stroke="none" fill="#000000" fill-rule="nonzero" /><path id="470" transform="matrix(1 0 0 -1 0 842)" d="M470.8438 160.0195L545.1875 160.0195L545.1875 159.5244L470.8438 159.5244z" stroke="none" fill="#000000" fill-rule="nonzero" /><path id="471" transform="matrix(1 0 0 -1 0 842)" d="M470.8438 185.792L471.3394 185.792L471.3394 159.5244L470.8438 159.5244z" stroke="none" fill="#000000" fill-rule="nonzero" /><path id="472" transform="matrix(1 0 0 -1 0 842)" d="M544.6919 185.792L545.1875 185.792L545.1875 159.5244L544.6919 159.5244z" stroke="none" fill="#000000" fill-rule="nonzero" /><path id="473" transform="matrix(1 0 0 -1 0 842)" d="M49.5625 160.0195L74.83938 160.0195L74.83938 159.5244L49.5625 159.5244z" stroke="none" fill="#000000" fill-rule="nonzero" /><path id="474" transform="matrix(1 0 0 -1 0 842)" d="M49.5625 105.0059L74.83938 105.0059L74.83938 104.5098L49.5625 104.5098z" stroke="none" fill="#000000" fill-rule="nonzero" /><path id="475" transform="matrix(1 0 0 -1 0 842)" d="M49.5625 160.0195L50.05813 160.0195L50.05813 104.5098L49.5625 104.5098z" stroke="none" fill="#000000" fill-rule="nonzero" /><path id="476" transform="matrix(1 0 0 -1 0 842)" d="M74.34375 160.0195L74.83938 160.0195L74.83938 104.5098L74.34375 104.5098z" stroke="none" fill="#000000" fill-rule="nonzero" /><path id="477" transform="matrix(1 0 0 -1 0 842)" d="M74.34375 160.0195L149.1831 160.0195L149.1831 159.5244L74.34375 159.5244z" stroke="none" fill="#000000" fill-rule="nonzero" /><path id="478" transform="matrix(1 0 0 -1 0 842)" d="M74.34375 105.0059L149.1831 105.0059L149.1831 104.5098L74.34375 104.5098z" stroke="none" fill="#000000" fill-rule="nonzero" /><path id="479" transform="matrix(1 0 0 -1 0 842)" d="M74.34375 160.0195L74.83938 160.0195L74.83938 104.5098L74.34375 104.5098z" stroke="none" fill="#000000" fill-rule="nonzero" /><path id="480" transform="matrix(1 0 0 -1 0 842)" d="M148.6875 160.0195L149.1831 160.0195L149.1831 104.5098L148.6875 104.5098z" stroke="none" fill="#000000" fill-rule="nonzero" /><path id="481" transform="matrix(1 0 0 -1 0 842)" d="M148.6875 160.0195L198.7456 160.0195L198.7456 159.5244L148.6875 159.5244z" stroke="none" fill="#000000" fill-rule="nonzero" /><path id="482" transform="matrix(1 0 0 -1 0 842)" d="M148.6875 105.0059L198.7456 105.0059L198.7456 104.5098L148.6875 104.5098z" stroke="none" fill="#000000" fill-rule="nonzero" /><path id="483" transform="matrix(1 0 0 -1 0 842)" d="M148.6875 160.0195L149.1831 160.0195L149.1831 104.5098L148.6875 104.5098z" stroke="none" fill="#000000" fill-rule="nonzero" /><path id="484" transform="matrix(1 0 0 -1 0 842)" d="M198.25 160.0195L198.7456 160.0195L198.7456 104.5098L198.25 104.5098z" stroke="none" fill="#000000" fill-rule="nonzero" /><path id="485" transform="matrix(1 0 0 -1 0 842)" d="M198.25 160.0195L248.3081 160.0195L248.3081 159.5244L198.25 159.5244z" stroke="none" fill="#000000" fill-rule="nonzero" /><path id="486" transform="matrix(1 0 0 -1 0 842)" d="M198.25 105.0059L248.3081 105.0059L248.3081 104.5098L198.25 104.5098z" stroke="none" fill="#000000" fill-rule="nonzero" /><path id="487" transform="matrix(1 0 0 -1 0 842)" d="M198.25 160.0195L198.7456 160.0195L198.7456 104.5098L198.25 104.5098z" stroke="none" fill="#000000" fill-rule="nonzero" /><path id="488" transform="matrix(1 0 0 -1 0 842)" d="M247.8125 160.0195L248.3081 160.0195L248.3081 104.5098L247.8125 104.5098z" stroke="none" fill="#000000" fill-rule="nonzero" /><path id="489" transform="matrix(1 0 0 -1 0 842)" d="M247.8125 160.0195L421.7769 160.0195L421.7769 159.5244L247.8125 159.5244z" stroke="none" fill="#000000" fill-rule="nonzero" /><path id="490" transform="matrix(1 0 0 -1 0 842)" d="M247.8125 105.0059L421.7769 105.0059L421.7769 104.5098L247.8125 104.5098z" stroke="none" fill="#000000" fill-rule="nonzero" /><path id="491" transform="matrix(1 0 0 -1 0 842)" d="M247.8125 160.0195L248.3081 160.0195L248.3081 104.5098L247.8125 104.5098z" stroke="none" fill="#000000" fill-rule="nonzero" /><path id="492" transform="matrix(1 0 0 -1 0 842)" d="M421.2813 160.0195L421.7769 160.0195L421.7769 104.5098L421.2813 104.5098z" stroke="none" fill="#000000" fill-rule="nonzero" /><path id="493" transform="matrix(1 0 0 -1 0 842)" d="M421.2813 160.0195L471.3394 160.0195L471.3394 159.5244L421.2813 159.5244z" stroke="none" fill="#000000" fill-rule="nonzero" /><path id="494" transform="matrix(1 0 0 -1 0 842)" d="M421.2813 105.0059L471.3394 105.0059L471.3394 104.5098L421.2813 104.5098z" stroke="none" fill="#000000" fill-rule="nonzero" /><path id="495" transform="matrix(1 0 0 -1 0 842)" d="M421.2813 160.0195L421.7769 160.0195L421.7769 104.5098L421.2813 104.5098z" stroke="none" fill="#000000" fill-rule="nonzero" /><path id="496" transform="matrix(1 0 0 -1 0 842)" d="M470.8438 160.0195L471.3394 160.0195L471.3394 104.5098L470.8438 104.5098z" stroke="none" fill="#000000" fill-rule="nonzero" /><path id="497" transform="matrix(1 0 0 -1 0 842)" d="M470.8438 160.0195L545.1875 160.0195L545.1875 159.5244L470.8438 159.5244z" stroke="none" fill="#000000" fill-rule="nonzero" /><path id="498" transform="matrix(1 0 0 -1 0 842)" d="M470.8438 105.0059L545.1875 105.0059L545.1875 104.5098L470.8438 104.5098z" stroke="none" fill="#000000" fill-rule="nonzero" /><path id="499" transform="matrix(1 0 0 -1 0 842)" d="M470.8438 160.0195L471.3394 160.0195L471.3394 104.5098L470.8438 104.5098z" stroke="none" fill="#000000" fill-rule="nonzero" /><path id="500" transform="matrix(1 0 0 -1 0 842)" d="M544.6919 160.0195L545.1875 160.0195L545.1875 104.5098L544.6919 104.5098z" stroke="none" fill="#000000" fill-rule="nonzero" /></g></g></g></svg>