<svg xmlns="http://www.w3.org/2000/svg" xmlns:xlink="http://www.w3.org/1999/xlink" id="body_17" preserveAspectRatio="xMinYMin meet" viewBox="0 0 793 1123"><defs><clipPath id="1"><path id="" clip-rule="evenodd" transform="matrix(1 0 0 1 0 0)" d="M0 842L0 0L0 0L595 0L595 0L595 842L595 842L0 842z" /></clipPath><clipPath id="2"><path id="" clip-rule="evenodd" transform="matrix(1 0 0 1 0 0)" d="M0 0L594.75 0L594.75 0L594.75 842.0669L594.75 842.0669L0 842.0669L0 842.0669L0 0z" /></clipPath></defs><g transform="matrix(1.333333 0 0 1.333333 0 0)"><g clip-path="url(#1)"><g clip-path="url(#2)"><path id="1" transform="matrix(1 0 0 -1 0 842)" d="M0 842L594.75 842L594.75 -0.06738281L0 -0.06738281z" stroke="none" fill="#FFFFFF" fill-rule="nonzero" /><path id="2" transform="matrix(1 0 0 -1 0 842)" d="M49.5625 724.041L74.34375 724.041L74.34375 698.2686L49.5625 698.2686z" stroke="none" fill="#9CC9F0" fill-rule="nonzero" /><path id="3" transform="matrix(1 0 0 -1 0 842)" d="M74.34375 724.041L148.6875 724.041L148.6875 698.2686L74.34375 698.2686z" stroke="none" fill="#9CC9F0" fill-rule="nonzero" /><path id="4" transform="matrix(1 0 0 -1 0 842)" d="M148.6875 724.041L223.0313 724.041L223.0313 698.2686L148.6875 698.2686z" stroke="none" fill="#9CC9F0" fill-rule="nonzero" /><path id="5" transform="matrix(1 0 0 -1 0 842)" d="M223.0313 724.041L272.5938 724.041L272.5938 698.2686L223.0313 698.2686z" stroke="none" fill="#9CC9F0" fill-rule="nonzero" /><path id="6" transform="matrix(1 0 0 -1 0 842)" d="M272.5938 724.041L421.2813 724.041L421.2813 698.2686L272.5938 698.2686z" stroke="none" fill="#9CC9F0" fill-rule="nonzero" /><path id="7" transform="matrix(1 0 0 -1 0 842)" d="M421.2813 724.041L470.8438 724.041L470.8438 698.2686L421.2813 698.2686z" stroke="none" fill="#9CC9F0" fill-rule="nonzero" /><path id="8" transform="matrix(1 0 0 -1 0 842)" d="M470.8438 724.041L544.6919 724.041L544.6919 698.2686L470.8438 698.2686z" stroke="none" fill="#9CC9F0" fill-rule="nonzero" /><path id="9" transform="matrix(1 0 0 -1 0 842)" d="M49.5625 724.041L74.83938 724.041L74.83938 723.5459L49.5625 723.5459z" stroke="none" fill="#000000" fill-rule="nonzero" /><path id="10" transform="matrix(1 0 0 -1 0 842)" d="M49.5625 698.2686L74.83938 698.2686L74.83938 697.7725L49.5625 697.7725z" stroke="none" fill="#000000" fill-rule="nonzero" /><path id="11" transform="matrix(1 0 0 -1 0 842)" d="M49.5625 724.041L50.05813 724.041L50.05813 697.7725L49.5625 697.7725z" stroke="none" fill="#000000" fill-rule="nonzero" /><path id="12" transform="matrix(1 0 0 -1 0 842)" d="M74.34375 724.041L74.83938 724.041L74.83938 697.7725L74.34375 697.7725z" stroke="none" fill="#000000" fill-rule="nonzero" /><path id="13" transform="matrix(1 0 0 -1 0 842)" d="M74.34375 724.041L149.1831 724.041L149.1831 723.5459L74.34375 723.5459z" stroke="none" fill="#000000" fill-rule="nonzero" /><path id="14" transform="matrix(1 0 0 -1 0 842)" d="M74.34375 698.2686L149.1831 698.2686L149.1831 697.7725L74.34375 697.7725z" stroke="none" fill="#000000" fill-rule="nonzero" /><path id="15" transform="matrix(1 0 0 -1 0 842)" d="M74.34375 724.041L74.83938 724.041L74.83938 697.7725L74.34375 697.7725z" stroke="none" fill="#000000" fill-rule="nonzero" /><path id="16" transform="matrix(1 0 0 -1 0 842)" d="M148.6875 724.041L149.1831 724.041L149.1831 697.7725L148.6875 697.7725z" stroke="none" fill="#000000" fill-rule="nonzero" /><path id="17" transform="matrix(1 0 0 -1 0 842)" d="M148.6875 724.041L223.5269 724.041L223.5269 723.5459L148.6875 723.5459z" stroke="none" fill="#000000" fill-rule="nonzero" /><path id="18" transform="matrix(1 0 0 -1 0 842)" d="M148.6875 698.2686L223.5269 698.2686L223.5269 697.7725L148.6875 697.7725z" stroke="none" fill="#000000" fill-rule="nonzero" /><path id="19" transform="matrix(1 0 0 -1 0 842)" d="M148.6875 724.041L149.1831 724.041L149.1831 697.7725L148.6875 697.7725z" stroke="none" fill="#000000" fill-rule="nonzero" /><path id="20" transform="matrix(1 0 0 -1 0 842)" d="M223.0313 724.041L223.5269 724.041L223.5269 697.7725L223.0313 697.7725z" stroke="none" fill="#000000" fill-rule="nonzero" /><path id="21" transform="matrix(1 0 0 -1 0 842)" d="M223.0313 724.041L273.0894 724.041L273.0894 723.5459L223.0313 723.5459z" stroke="none" fill="#000000" fill-rule="nonzero" /><path id="22" transform="matrix(1 0 0 -1 0 842)" d="M223.0313 698.2686L273.0894 698.2686L273.0894 697.7725L223.0313 697.7725z" stroke="none" fill="#000000" fill-rule="nonzero" /><path id="23" transform="matrix(1 0 0 -1 0 842)" d="M223.0313 724.041L223.5269 724.041L223.5269 697.7725L223.0313 697.7725z" stroke="none" fill="#000000" fill-rule="nonzero" /><path id="24" transform="matrix(1 0 0 -1 0 842)" d="M272.5938 724.041L273.0894 724.041L273.0894 697.7725L272.5938 697.7725z" stroke="none" fill="#000000" fill-rule="nonzero" /><path id="25" transform="matrix(1 0 0 -1 0 842)" d="M272.5938 724.041L421.7769 724.041L421.7769 723.5459L272.5938 723.5459z" stroke="none" fill="#000000" fill-rule="nonzero" /><path id="26" transform="matrix(1 0 0 -1 0 842)" d="M272.5938 698.2686L421.7769 698.2686L421.7769 697.7725L272.5938 697.7725z" stroke="none" fill="#000000" fill-rule="nonzero" /><path id="27" transform="matrix(1 0 0 -1 0 842)" d="M272.5938 724.041L273.0894 724.041L273.0894 697.7725L272.5938 697.7725z" stroke="none" fill="#000000" fill-rule="nonzero" /><path id="28" transform="matrix(1 0 0 -1 0 842)" d="M421.2813 724.041L421.7769 724.041L421.7769 697.7725L421.2813 697.7725z" stroke="none" fill="#000000" fill-rule="nonzero" /><path id="29" transform="matrix(1 0 0 -1 0 842)" d="M421.2813 724.041L471.3394 724.041L471.3394 723.5459L421.2813 723.5459z" stroke="none" fill="#000000" fill-rule="nonzero" /><path id="30" transform="matrix(1 0 0 -1 0 842)" d="M421.2813 698.2686L471.3394 698.2686L471.3394 697.7725L421.2813 697.7725z" stroke="none" fill="#000000" fill-rule="nonzero" /><path id="31" transform="matrix(1 0 0 -1 0 842)" d="M421.2813 724.041L421.7769 724.041L421.7769 697.7725L421.2813 697.7725z" stroke="none" fill="#000000" fill-rule="nonzero" /><path id="32" transform="matrix(1 0 0 -1 0 842)" d="M470.8438 724.041L471.3394 724.041L471.3394 697.7725L470.8438 697.7725z" stroke="none" fill="#000000" fill-rule="nonzero" /><path id="33" transform="matrix(1 0 0 -1 0 842)" d="M470.8438 724.041L545.1875 724.041L545.1875 723.5459L470.8438 723.5459z" stroke="none" fill="#000000" fill-rule="nonzero" /><path id="34" transform="matrix(1 0 0 -1 0 842)" d="M470.8438 698.2686L545.1875 698.2686L545.1875 697.7725L470.8438 697.7725z" stroke="none" fill="#000000" fill-rule="nonzero" /><path id="35" transform="matrix(1 0 0 -1 0 842)" d="M470.8438 724.041L471.3394 724.041L471.3394 697.7725L470.8438 697.7725z" stroke="none" fill="#000000" fill-rule="nonzero" /><path id="36" transform="matrix(1 0 0 -1 0 842)" d="M544.6919 724.041L545.1875 724.041L545.1875 697.7725L544.6919 697.7725z" stroke="none" fill="#000000" fill-rule="nonzero" /><path id="37" transform="matrix(1 0 0 -1 0 842)" d="M49.5625 698.2686L74.83938 698.2686L74.83938 697.7725L49.5625 697.7725z" stroke="none" fill="#000000" fill-rule="nonzero" /><path id="38" transform="matrix(1 0 0 -1 0 842)" d="M49.5625 650.6885L74.83938 650.6885L74.83938 650.1934L49.5625 650.1934z" stroke="none" fill="#000000" fill-rule="nonzero" /><path id="39" transform="matrix(1 0 0 -1 0 842)" d="M49.5625 698.2686L50.05813 698.2686L50.05813 650.1934L49.5625 650.1934z" stroke="none" fill="#000000" fill-rule="nonzero" /><path id="40" transform="matrix(1 0 0 -1 0 842)" d="M74.34375 698.2686L74.83938 698.2686L74.83938 650.1934L74.34375 650.1934z" stroke="none" fill="#000000" fill-rule="nonzero" /><path id="41" transform="matrix(1 0 0 -1 0 842)" d="M74.34375 698.2686L149.1831 698.2686L149.1831 697.7725L74.34375 697.7725z" stroke="none" fill="#000000" fill-rule="nonzero" /><path id="42" transform="matrix(1 0 0 -1 0 842)" d="M74.34375 650.6885L149.1831 650.6885L149.1831 650.1934L74.34375 650.1934z" stroke="none" fill="#000000" fill-rule="nonzero" /><path id="43" transform="matrix(1 0 0 -1 0 842)" d="M74.34375 698.2686L74.83938 698.2686L74.83938 650.1934L74.34375 650.1934z" stroke="none" fill="#000000" fill-rule="nonzero" /><path id="44" transform="matrix(1 0 0 -1 0 842)" d="M148.6875 698.2686L149.1831 698.2686L149.1831 650.1934L148.6875 650.1934z" stroke="none" fill="#000000" fill-rule="nonzero" /><path id="45" transform="matrix(1 0 0 -1 0 842)" d="M148.6875 698.2686L223.5269 698.2686L223.5269 697.7725L148.6875 697.7725z" stroke="none" fill="#000000" fill-rule="nonzero" /><path id="46" transform="matrix(1 0 0 -1 0 842)" d="M148.6875 650.6885L223.5269 650.6885L223.5269 650.1934L148.6875 650.1934z" stroke="none" fill="#000000" fill-rule="nonzero" /><path id="47" transform="matrix(1 0 0 -1 0 842)" d="M148.6875 698.2686L149.1831 698.2686L149.1831 650.1934L148.6875 650.1934z" stroke="none" fill="#000000" fill-rule="nonzero" /><path id="48" transform="matrix(1 0 0 -1 0 842)" d="M223.0313 698.2686L223.5269 698.2686L223.5269 650.1934L223.0313 650.1934z" stroke="none" fill="#000000" fill-rule="nonzero" /><path id="49" transform="matrix(1 0 0 -1 0 842)" d="M223.0313 698.2686L273.0894 698.2686L273.0894 697.7725L223.0313 697.7725z" stroke="none" fill="#000000" fill-rule="nonzero" /><path id="50" transform="matrix(1 0 0 -1 0 842)" d="M223.0313 650.6885L273.0894 650.6885L273.0894 650.1934L223.0313 650.1934z" stroke="none" fill="#000000" fill-rule="nonzero" /><path id="51" transform="matrix(1 0 0 -1 0 842)" d="M223.0313 698.2686L223.5269 698.2686L223.5269 650.1934L223.0313 650.1934z" stroke="none" fill="#000000" fill-rule="nonzero" /><path id="52" transform="matrix(1 0 0 -1 0 842)" d="M272.5938 698.2686L273.0894 698.2686L273.0894 650.1934L272.5938 650.1934z" stroke="none" fill="#000000" fill-rule="nonzero" /><path id="53" transform="matrix(1 0 0 -1 0 842)" d="M272.5938 698.2686L421.7769 698.2686L421.7769 697.7725L272.5938 697.7725z" stroke="none" fill="#000000" fill-rule="nonzero" /><path id="54" transform="matrix(1 0 0 -1 0 842)" d="M272.5938 650.6885L421.7769 650.6885L421.7769 650.1934L272.5938 650.1934z" stroke="none" fill="#000000" fill-rule="nonzero" /><path id="55" transform="matrix(1 0 0 -1 0 842)" d="M272.5938 698.2686L273.0894 698.2686L273.0894 650.1934L272.5938 650.1934z" stroke="none" fill="#000000" fill-rule="nonzero" /><path id="56" transform="matrix(1 0 0 -1 0 842)" d="M421.2813 698.2686L421.7769 698.2686L421.7769 650.1934L421.2813 650.1934z" stroke="none" fill="#000000" fill-rule="nonzero" /><path id="57" transform="matrix(1 0 0 -1 0 842)" d="M421.2813 698.2686L471.3394 698.2686L471.3394 697.7725L421.2813 697.7725z" stroke="none" fill="#000000" fill-rule="nonzero" /><path id="58" transform="matrix(1 0 0 -1 0 842)" d="M421.2813 650.6885L471.3394 650.6885L471.3394 650.1934L421.2813 650.1934z" stroke="none" fill="#000000" fill-rule="nonzero" /><path id="59" transform="matrix(1 0 0 -1 0 842)" d="M421.2813 698.2686L421.7769 698.2686L421.7769 650.1934L421.2813 650.1934z" stroke="none" fill="#000000" fill-rule="nonzero" /><path id="60" transform="matrix(1 0 0 -1 0 842)" d="M470.8438 698.2686L471.3394 698.2686L471.3394 650.1934L470.8438 650.1934z" stroke="none" fill="#000000" fill-rule="nonzero" /><path id="61" transform="matrix(1 0 0 -1 0 842)" d="M470.8438 698.2686L545.1875 698.2686L545.1875 697.7725L470.8438 697.7725z" stroke="none" fill="#000000" fill-rule="nonzero" /><path id="62" transform="matrix(1 0 0 -1 0 842)" d="M470.8438 650.6885L545.1875 650.6885L545.1875 650.1934L470.8438 650.1934z" stroke="none" fill="#000000" fill-rule="nonzero" /><path id="63" transform="matrix(1 0 0 -1 0 842)" d="M470.8438 698.2686L471.3394 698.2686L471.3394 650.1934L470.8438 650.1934z" stroke="none" fill="#000000" fill-rule="nonzero" /><path id="64" transform="matrix(1 0 0 -1 0 842)" d="M544.6919 698.2686L545.1875 698.2686L545.1875 650.1934L544.6919 650.1934z" stroke="none" fill="#000000" fill-rule="nonzero" /><path id="65" transform="matrix(1 0 0 -1 0 842)" d="M49.5625 650.6885L74.83938 650.6885L74.83938 650.1934L49.5625 650.1934z" stroke="none" fill="#000000" fill-rule="nonzero" /><path id="66" transform="matrix(1 0 0 -1 0 842)" d="M49.5625 616.4902L74.83938 616.4902L74.83938 615.9951L49.5625 615.9951z" stroke="none" fill="#000000" fill-rule="nonzero" /><path id="67" transform="matrix(1 0 0 -1 0 842)" d="M49.5625 650.6885L50.05813 650.6885L50.05813 615.9951L49.5625 615.9951z" stroke="none" fill="#000000" fill-rule="nonzero" /><path id="68" transform="matrix(1 0 0 -1 0 842)" d="M74.34375 650.6885L74.83938 650.6885L74.83938 615.9951L74.34375 615.9951z" stroke="none" fill="#000000" fill-rule="nonzero" /><path id="69" transform="matrix(1 0 0 -1 0 842)" d="M74.34375 650.6885L149.1831 650.6885L149.1831 650.1934L74.34375 650.1934z" stroke="none" fill="#000000" fill-rule="nonzero" /><path id="70" transform="matrix(1 0 0 -1 0 842)" d="M74.34375 616.4902L149.1831 616.4902L149.1831 615.9951L74.34375 615.9951z" stroke="none" fill="#000000" fill-rule="nonzero" /><path id="71" transform="matrix(1 0 0 -1 0 842)" d="M74.34375 650.6885L74.83938 650.6885L74.83938 615.9951L74.34375 615.9951z" stroke="none" fill="#000000" fill-rule="nonzero" /><path id="72" transform="matrix(1 0 0 -1 0 842)" d="M148.6875 650.6885L149.1831 650.6885L149.1831 615.9951L148.6875 615.9951z" stroke="none" fill="#000000" fill-rule="nonzero" /><path id="73" transform="matrix(1 0 0 -1 0 842)" d="M148.6875 650.6885L223.5269 650.6885L223.5269 650.1934L148.6875 650.1934z" stroke="none" fill="#000000" fill-rule="nonzero" /><path id="74" transform="matrix(1 0 0 -1 0 842)" d="M148.6875 616.4902L223.5269 616.4902L223.5269 615.9951L148.6875 615.9951z" stroke="none" fill="#000000" fill-rule="nonzero" /><path id="75" transform="matrix(1 0 0 -1 0 842)" d="M148.6875 650.6885L149.1831 650.6885L149.1831 615.9951L148.6875 615.9951z" stroke="none" fill="#000000" fill-rule="nonzero" /><path id="76" transform="matrix(1 0 0 -1 0 842)" d="M223.0313 650.6885L223.5269 650.6885L223.5269 615.9951L223.0313 615.9951z" stroke="none" fill="#000000" fill-rule="nonzero" /><path id="77" transform="matrix(1 0 0 -1 0 842)" d="M223.0313 650.6885L273.0894 650.6885L273.0894 650.1934L223.0313 650.1934z" stroke="none" fill="#000000" fill-rule="nonzero" /><path id="78" transform="matrix(1 0 0 -1 0 842)" d="M223.0313 616.4902L273.0894 616.4902L273.0894 615.9951L223.0313 615.9951z" stroke="none" fill="#000000" fill-rule="nonzero" /><path id="79" transform="matrix(1 0 0 -1 0 842)" d="M223.0313 650.6885L223.5269 650.6885L223.5269 615.9951L223.0313 615.9951z" stroke="none" fill="#000000" fill-rule="nonzero" /><path id="80" transform="matrix(1 0 0 -1 0 842)" d="M272.5938 650.6885L273.0894 650.6885L273.0894 615.9951L272.5938 615.9951z" stroke="none" fill="#000000" fill-rule="nonzero" /><path id="81" transform="matrix(1 0 0 -1 0 842)" d="M272.5938 650.6885L421.7769 650.6885L421.7769 650.1934L272.5938 650.1934z" stroke="none" fill="#000000" fill-rule="nonzero" /><path id="82" transform="matrix(1 0 0 -1 0 842)" d="M272.5938 616.4902L421.7769 616.4902L421.7769 615.9951L272.5938 615.9951z" stroke="none" fill="#000000" fill-rule="nonzero" /><path id="83" transform="matrix(1 0 0 -1 0 842)" d="M272.5938 650.6885L273.0894 650.6885L273.0894 615.9951L272.5938 615.9951z" stroke="none" fill="#000000" fill-rule="nonzero" /><path id="84" transform="matrix(1 0 0 -1 0 842)" d="M421.2813 650.6885L421.7769 650.6885L421.7769 615.9951L421.2813 615.9951z" stroke="none" fill="#000000" fill-rule="nonzero" /><path id="85" transform="matrix(1 0 0 -1 0 842)" d="M421.2813 650.6885L471.3394 650.6885L471.3394 650.1934L421.2813 650.1934z" stroke="none" fill="#000000" fill-rule="nonzero" /><path id="86" transform="matrix(1 0 0 -1 0 842)" d="M421.2813 616.4902L471.3394 616.4902L471.3394 615.9951L421.2813 615.9951z" stroke="none" fill="#000000" fill-rule="nonzero" /><path id="87" transform="matrix(1 0 0 -1 0 842)" d="M421.2813 650.6885L421.7769 650.6885L421.7769 615.9951L421.2813 615.9951z" stroke="none" fill="#000000" fill-rule="nonzero" /><path id="88" transform="matrix(1 0 0 -1 0 842)" d="M470.8438 650.6885L471.3394 650.6885L471.3394 615.9951L470.8438 615.9951z" stroke="none" fill="#000000" fill-rule="nonzero" /><path id="89" transform="matrix(1 0 0 -1 0 842)" d="M470.8438 650.6885L545.1875 650.6885L545.1875 650.1934L470.8438 650.1934z" stroke="none" fill="#000000" fill-rule="nonzero" /><path id="90" transform="matrix(1 0 0 -1 0 842)" d="M470.8438 616.4902L545.1875 616.4902L545.1875 615.9951L470.8438 615.9951z" stroke="none" fill="#000000" fill-rule="nonzero" /><path id="91" transform="matrix(1 0 0 -1 0 842)" d="M470.8438 650.6885L471.3394 650.6885L471.3394 615.9951L470.8438 615.9951z" stroke="none" fill="#000000" fill-rule="nonzero" /><path id="92" transform="matrix(1 0 0 -1 0 842)" d="M544.6919 650.6885L545.1875 650.6885L545.1875 615.9951L544.6919 615.9951z" stroke="none" fill="#000000" fill-rule="nonzero" /><path id="93" transform="matrix(1 0 0 -1 0 842)" d="M49.5625 616.4902L74.83938 616.4902L74.83938 615.9951L49.5625 615.9951z" stroke="none" fill="#000000" fill-rule="nonzero" /><path id="94" transform="matrix(1 0 0 -1 0 842)" d="M49.5625 582.292L74.83938 582.292L74.83938 581.7969L49.5625 581.7969z" stroke="none" fill="#000000" fill-rule="nonzero" /><path id="95" transform="matrix(1 0 0 -1 0 842)" d="M49.5625 616.4902L50.05813 616.4902L50.05813 581.7969L49.5625 581.7969z" stroke="none" fill="#000000" fill-rule="nonzero" /><path id="96" transform="matrix(1 0 0 -1 0 842)" d="M74.34375 616.4902L74.83938 616.4902L74.83938 581.7969L74.34375 581.7969z" stroke="none" fill="#000000" fill-rule="nonzero" /><path id="97" transform="matrix(1 0 0 -1 0 842)" d="M74.34375 616.4902L149.1831 616.4902L149.1831 615.9951L74.34375 615.9951z" stroke="none" fill="#000000" fill-rule="nonzero" /><path id="98" transform="matrix(1 0 0 -1 0 842)" d="M74.34375 582.292L149.1831 582.292L149.1831 581.7969L74.34375 581.7969z" stroke="none" fill="#000000" fill-rule="nonzero" /><path id="99" transform="matrix(1 0 0 -1 0 842)" d="M74.34375 616.4902L74.83938 616.4902L74.83938 581.7969L74.34375 581.7969z" stroke="none" fill="#000000" fill-rule="nonzero" /><path id="100" transform="matrix(1 0 0 -1 0 842)" d="M148.6875 616.4902L149.1831 616.4902L149.1831 581.7969L148.6875 581.7969z" stroke="none" fill="#000000" fill-rule="nonzero" /><path id="101" transform="matrix(1 0 0 -1 0 842)" d="M148.6875 616.4902L223.5269 616.4902L223.5269 615.9951L148.6875 615.9951z" stroke="none" fill="#000000" fill-rule="nonzero" /><path id="102" transform="matrix(1 0 0 -1 0 842)" d="M148.6875 582.292L223.5269 582.292L223.5269 581.7969L148.6875 581.7969z" stroke="none" fill="#000000" fill-rule="nonzero" /><path id="103" transform="matrix(1 0 0 -1 0 842)" d="M148.6875 616.4902L149.1831 616.4902L149.1831 581.7969L148.6875 581.7969z" stroke="none" fill="#000000" fill-rule="nonzero" /><path id="104" transform="matrix(1 0 0 -1 0 842)" d="M223.0313 616.4902L223.5269 616.4902L223.5269 581.7969L223.0313 581.7969z" stroke="none" fill="#000000" fill-rule="nonzero" /><path id="105" transform="matrix(1 0 0 -1 0 842)" d="M223.0313 616.4902L273.0894 616.4902L273.0894 615.9951L223.0313 615.9951z" stroke="none" fill="#000000" fill-rule="nonzero" /><path id="106" transform="matrix(1 0 0 -1 0 842)" d="M223.0313 582.292L273.0894 582.292L273.0894 581.7969L223.0313 581.7969z" stroke="none" fill="#000000" fill-rule="nonzero" /><path id="107" transform="matrix(1 0 0 -1 0 842)" d="M223.0313 616.4902L223.5269 616.4902L223.5269 581.7969L223.0313 581.7969z" stroke="none" fill="#000000" fill-rule="nonzero" /><path id="108" transform="matrix(1 0 0 -1 0 842)" d="M272.5938 616.4902L273.0894 616.4902L273.0894 581.7969L272.5938 581.7969z" stroke="none" fill="#000000" fill-rule="nonzero" /><path id="109" transform="matrix(1 0 0 -1 0 842)" d="M272.5938 616.4902L421.7769 616.4902L421.7769 615.9951L272.5938 615.9951z" stroke="none" fill="#000000" fill-rule="nonzero" /><path id="110" transform="matrix(1 0 0 -1 0 842)" d="M272.5938 582.292L421.7769 582.292L421.7769 581.7969L272.5938 581.7969z" stroke="none" fill="#000000" fill-rule="nonzero" /><path id="111" transform="matrix(1 0 0 -1 0 842)" d="M272.5938 616.4902L273.0894 616.4902L273.0894 581.7969L272.5938 581.7969z" stroke="none" fill="#000000" fill-rule="nonzero" /><path id="112" transform="matrix(1 0 0 -1 0 842)" d="M421.2813 616.4902L421.7769 616.4902L421.7769 581.7969L421.2813 581.7969z" stroke="none" fill="#000000" fill-rule="nonzero" /><path id="113" transform="matrix(1 0 0 -1 0 842)" d="M421.2813 616.4902L471.3394 616.4902L471.3394 615.9951L421.2813 615.9951z" stroke="none" fill="#000000" fill-rule="nonzero" /><path id="114" transform="matrix(1 0 0 -1 0 842)" d="M421.2813 582.292L471.3394 582.292L471.3394 581.7969L421.2813 581.7969z" stroke="none" fill="#000000" fill-rule="nonzero" /><path id="115" transform="matrix(1 0 0 -1 0 842)" d="M421.2813 616.4902L421.7769 616.4902L421.7769 581.7969L421.2813 581.7969z" stroke="none" fill="#000000" fill-rule="nonzero" /><path id="116" transform="matrix(1 0 0 -1 0 842)" d="M470.8438 616.4902L471.3394 616.4902L471.3394 581.7969L470.8438 581.7969z" stroke="none" fill="#000000" fill-rule="nonzero" /><path id="117" transform="matrix(1 0 0 -1 0 842)" d="M470.8438 616.4902L545.1875 616.4902L545.1875 615.9951L470.8438 615.9951z" stroke="none" fill="#000000" fill-rule="nonzero" /><path id="118" transform="matrix(1 0 0 -1 0 842)" d="M470.8438 582.292L545.1875 582.292L545.1875 581.7969L470.8438 581.7969z" stroke="none" fill="#000000" fill-rule="nonzero" /><path id="119" transform="matrix(1 0 0 -1 0 842)" d="M470.8438 616.4902L471.3394 616.4902L471.3394 581.7969L470.8438 581.7969z" stroke="none" fill="#000000" fill-rule="nonzero" /><path id="120" transform="matrix(1 0 0 -1 0 842)" d="M544.6919 616.4902L545.1875 616.4902L545.1875 581.7969L544.6919 581.7969z" stroke="none" fill="#000000" fill-rule="nonzero" /><path id="121" transform="matrix(1 0 0 -1 0 842)" d="M49.5625 582.292L74.83938 582.292L74.83938 581.7969L49.5625 581.7969z" stroke="none" fill="#000000" fill-rule="nonzero" /><path id="122" transform="matrix(1 0 0 -1 0 842)" d="M49.5625 548.0938L74.83938 548.0938L74.83938 547.5986L49.5625 547.5986z" stroke="none" fill="#000000" fill-rule="nonzero" /><path id="123" transform="matrix(1 0 0 -1 0 842)" d="M49.5625 582.292L50.05813 582.292L50.05813 547.5986L49.5625 547.5986z" stroke="none" fill="#000000" fill-rule="nonzero" /><path id="124" transform="matrix(1 0 0 -1 0 842)" d="M74.34375 582.292L74.83938 582.292L74.83938 547.5986L74.34375 547.5986z" stroke="none" fill="#000000" fill-rule="nonzero" /><path id="125" transform="matrix(1 0 0 -1 0 842)" d="M74.34375 582.292L149.1831 582.292L149.1831 581.7969L74.34375 581.7969z" stroke="none" fill="#000000" fill-rule="nonzero" /><path id="126" transform="matrix(1 0 0 -1 0 842)" d="M74.34375 548.0938L149.1831 548.0938L149.1831 547.5986L74.34375 547.5986z" stroke="none" fill="#000000" fill-rule="nonzero" /><path id="127" transform="matrix(1 0 0 -1 0 842)" d="M74.34375 582.292L74.83938 582.292L74.83938 547.5986L74.34375 547.5986z" stroke="none" fill="#000000" fill-rule="nonzero" /><path id="128" transform="matrix(1 0 0 -1 0 842)" d="M148.6875 582.292L149.1831 582.292L149.1831 547.5986L148.6875 547.5986z" stroke="none" fill="#000000" fill-rule="nonzero" /><path id="129" transform="matrix(1 0 0 -1 0 842)" d="M148.6875 582.292L223.5269 582.292L223.5269 581.7969L148.6875 581.7969z" stroke="none" fill="#000000" fill-rule="nonzero" /><path id="130" transform="matrix(1 0 0 -1 0 842)" d="M148.6875 548.0938L223.5269 548.0938L223.5269 547.5986L148.6875 547.5986z" stroke="none" fill="#000000" fill-rule="nonzero" /><path id="131" transform="matrix(1 0 0 -1 0 842)" d="M148.6875 582.292L149.1831 582.292L149.1831 547.5986L148.6875 547.5986z" stroke="none" fill="#000000" fill-rule="nonzero" /><path id="132" transform="matrix(1 0 0 -1 0 842)" d="M223.0313 582.292L223.5269 582.292L223.5269 547.5986L223.0313 547.5986z" stroke="none" fill="#000000" fill-rule="nonzero" /><path id="133" transform="matrix(1 0 0 -1 0 842)" d="M223.0313 582.292L273.0894 582.292L273.0894 581.7969L223.0313 581.7969z" stroke="none" fill="#000000" fill-rule="nonzero" /><path id="134" transform="matrix(1 0 0 -1 0 842)" d="M223.0313 548.0938L273.0894 548.0938L273.0894 547.5986L223.0313 547.5986z" stroke="none" fill="#000000" fill-rule="nonzero" /><path id="135" transform="matrix(1 0 0 -1 0 842)" d="M223.0313 582.292L223.5269 582.292L223.5269 547.5986L223.0313 547.5986z" stroke="none" fill="#000000" fill-rule="nonzero" /><path id="136" transform="matrix(1 0 0 -1 0 842)" d="M272.5938 582.292L273.0894 582.292L273.0894 547.5986L272.5938 547.5986z" stroke="none" fill="#000000" fill-rule="nonzero" /><path id="137" transform="matrix(1 0 0 -1 0 842)" d="M272.5938 582.292L421.7769 582.292L421.7769 581.7969L272.5938 581.7969z" stroke="none" fill="#000000" fill-rule="nonzero" /><path id="138" transform="matrix(1 0 0 -1 0 842)" d="M272.5938 548.0938L421.7769 548.0938L421.7769 547.5986L272.5938 547.5986z" stroke="none" fill="#000000" fill-rule="nonzero" /><path id="139" transform="matrix(1 0 0 -1 0 842)" d="M272.5938 582.292L273.0894 582.292L273.0894 547.5986L272.5938 547.5986z" stroke="none" fill="#000000" fill-rule="nonzero" /><path id="140" transform="matrix(1 0 0 -1 0 842)" d="M421.2813 582.292L421.7769 582.292L421.7769 547.5986L421.2813 547.5986z" stroke="none" fill="#000000" fill-rule="nonzero" /><path id="141" transform="matrix(1 0 0 -1 0 842)" d="M421.2813 582.292L471.3394 582.292L471.3394 581.7969L421.2813 581.7969z" stroke="none" fill="#000000" fill-rule="nonzero" /><path id="142" transform="matrix(1 0 0 -1 0 842)" d="M421.2813 548.0938L471.3394 548.0938L471.3394 547.5986L421.2813 547.5986z" stroke="none" fill="#000000" fill-rule="nonzero" /><path id="143" transform="matrix(1 0 0 -1 0 842)" d="M421.2813 582.292L421.7769 582.292L421.7769 547.5986L421.2813 547.5986z" stroke="none" fill="#000000" fill-rule="nonzero" /><path id="144" transform="matrix(1 0 0 -1 0 842)" d="M470.8438 582.292L471.3394 582.292L471.3394 547.5986L470.8438 547.5986z" stroke="none" fill="#000000" fill-rule="nonzero" /><path id="145" transform="matrix(1 0 0 -1 0 842)" d="M470.8438 582.292L545.1875 582.292L545.1875 581.7969L470.8438 581.7969z" stroke="none" fill="#000000" fill-rule="nonzero" /><path id="146" transform="matrix(1 0 0 -1 0 842)" d="M470.8438 548.0938L545.1875 548.0938L545.1875 547.5986L470.8438 547.5986z" stroke="none" fill="#000000" fill-rule="nonzero" /><path id="147" transform="matrix(1 0 0 -1 0 842)" d="M470.8438 582.292L471.3394 582.292L471.3394 547.5986L470.8438 547.5986z" stroke="none" fill="#000000" fill-rule="nonzero" /><path id="148" transform="matrix(1 0 0 -1 0 842)" d="M544.6919 582.292L545.1875 582.292L545.1875 547.5986L544.6919 547.5986z" stroke="none" fill="#000000" fill-rule="nonzero" /><path id="149" transform="matrix(1 0 0 -1 0 842)" d="M49.5625 548.0938L74.83938 548.0938L74.83938 547.5986L49.5625 547.5986z" stroke="none" fill="#000000" fill-rule="nonzero" /><path id="150" transform="matrix(1 0 0 -1 0 842)" d="M49.5625 513.8965L74.83938 513.8965L74.83938 513.4004L49.5625 513.4004z" stroke="none" fill="#000000" fill-rule="nonzero" /><path id="151" transform="matrix(1 0 0 -1 0 842)" d="M49.5625 548.0938L50.05813 548.0938L50.05813 513.4004L49.5625 513.4004z" stroke="none" fill="#000000" fill-rule="nonzero" /><path id="152" transform="matrix(1 0 0 -1 0 842)" d="M74.34375 548.0938L74.83938 548.0938L74.83938 513.4004L74.34375 513.4004z" stroke="none" fill="#000000" fill-rule="nonzero" /><path id="153" transform="matrix(1 0 0 -1 0 842)" d="M74.34375 548.0938L149.1831 548.0938L149.1831 547.5986L74.34375 547.5986z" stroke="none" fill="#000000" fill-rule="nonzero" /><path id="154" transform="matrix(1 0 0 -1 0 842)" d="M74.34375 513.8965L149.1831 513.8965L149.1831 513.4004L74.34375 513.4004z" stroke="none" fill="#000000" fill-rule="nonzero" /><path id="155" transform="matrix(1 0 0 -1 0 842)" d="M74.34375 548.0938L74.83938 548.0938L74.83938 513.4004L74.34375 513.4004z" stroke="none" fill="#000000" fill-rule="nonzero" /><path id="156" transform="matrix(1 0 0 -1 0 842)" d="M148.6875 548.0938L149.1831 548.0938L149.1831 513.4004L148.6875 513.4004z" stroke="none" fill="#000000" fill-rule="nonzero" /><path id="157" transform="matrix(1 0 0 -1 0 842)" d="M148.6875 548.0938L223.5269 548.0938L223.5269 547.5986L148.6875 547.5986z" stroke="none" fill="#000000" fill-rule="nonzero" /><path id="158" transform="matrix(1 0 0 -1 0 842)" d="M148.6875 513.8965L223.5269 513.8965L223.5269 513.4004L148.6875 513.4004z" stroke="none" fill="#000000" fill-rule="nonzero" /><path id="159" transform="matrix(1 0 0 -1 0 842)" d="M148.6875 548.0938L149.1831 548.0938L149.1831 513.4004L148.6875 513.4004z" stroke="none" fill="#000000" fill-rule="nonzero" /><path id="160" transform="matrix(1 0 0 -1 0 842)" d="M223.0313 548.0938L223.5269 548.0938L223.5269 513.4004L223.0313 513.4004z" stroke="none" fill="#000000" fill-rule="nonzero" /><path id="161" transform="matrix(1 0 0 -1 0 842)" d="M223.0313 548.0938L273.0894 548.0938L273.0894 547.5986L223.0313 547.5986z" stroke="none" fill="#000000" fill-rule="nonzero" /><path id="162" transform="matrix(1 0 0 -1 0 842)" d="M223.0313 513.8965L273.0894 513.8965L273.0894 513.4004L223.0313 513.4004z" stroke="none" fill="#000000" fill-rule="nonzero" /><path id="163" transform="matrix(1 0 0 -1 0 842)" d="M223.0313 548.0938L223.5269 548.0938L223.5269 513.4004L223.0313 513.4004z" stroke="none" fill="#000000" fill-rule="nonzero" /><path id="164" transform="matrix(1 0 0 -1 0 842)" d="M272.5938 548.0938L273.0894 548.0938L273.0894 513.4004L272.5938 513.4004z" stroke="none" fill="#000000" fill-rule="nonzero" /><path id="165" transform="matrix(1 0 0 -1 0 842)" d="M272.5938 548.0938L421.7769 548.0938L421.7769 547.5986L272.5938 547.5986z" stroke="none" fill="#000000" fill-rule="nonzero" /><path id="166" transform="matrix(1 0 0 -1 0 842)" d="M272.5938 513.8965L421.7769 513.8965L421.7769 513.4004L272.5938 513.4004z" stroke="none" fill="#000000" fill-rule="nonzero" /><path id="167" transform="matrix(1 0 0 -1 0 842)" d="M272.5938 548.0938L273.0894 548.0938L273.0894 513.4004L272.5938 513.4004z" stroke="none" fill="#000000" fill-rule="nonzero" /><path id="168" transform="matrix(1 0 0 -1 0 842)" d="M421.2813 548.0938L421.7769 548.0938L421.7769 513.4004L421.2813 513.4004z" stroke="none" fill="#000000" fill-rule="nonzero" /><path id="169" transform="matrix(1 0 0 -1 0 842)" d="M421.2813 548.0938L471.3394 548.0938L471.3394 547.5986L421.2813 547.5986z" stroke="none" fill="#000000" fill-rule="nonzero" /><path id="170" transform="matrix(1 0 0 -1 0 842)" d="M421.2813 513.8965L471.3394 513.8965L471.3394 513.4004L421.2813 513.4004z" stroke="none" fill="#000000" fill-rule="nonzero" /><path id="171" transform="matrix(1 0 0 -1 0 842)" d="M421.2813 548.0938L421.7769 548.0938L421.7769 513.4004L421.2813 513.4004z" stroke="none" fill="#000000" fill-rule="nonzero" /><path id="172" transform="matrix(1 0 0 -1 0 842)" d="M470.8438 548.0938L471.3394 548.0938L471.3394 513.4004L470.8438 513.4004z" stroke="none" fill="#000000" fill-rule="nonzero" /><path id="173" transform="matrix(1 0 0 -1 0 842)" d="M470.8438 548.0938L545.1875 548.0938L545.1875 547.5986L470.8438 547.5986z" stroke="none" fill="#000000" fill-rule="nonzero" /><path id="174" transform="matrix(1 0 0 -1 0 842)" d="M470.8438 513.8965L545.1875 513.8965L545.1875 513.4004L470.8438 513.4004z" stroke="none" fill="#000000" fill-rule="nonzero" /><path id="175" transform="matrix(1 0 0 -1 0 842)" d="M470.8438 548.0938L471.3394 548.0938L471.3394 513.4004L470.8438 513.4004z" stroke="none" fill="#000000" fill-rule="nonzero" /><path id="176" transform="matrix(1 0 0 -1 0 842)" d="M544.6919 548.0938L545.1875 548.0938L545.1875 513.4004L544.6919 513.4004z" stroke="none" fill="#000000" fill-rule="nonzero" /></g></g></g></svg>