<svg xmlns="http://www.w3.org/2000/svg" xmlns:xlink="http://www.w3.org/1999/xlink" id="body_14" preserveAspectRatio="xMinYMin meet" viewBox="0 0 793 1123"><defs><clipPath id="1"><path id="" clip-rule="evenodd" transform="matrix(1 0 0 1 0 0)" d="M0 842L0 0L0 0L595 0L595 0L595 842L595 842L0 842z" /></clipPath><clipPath id="2"><path id="" clip-rule="evenodd" transform="matrix(1 0 0 1 0 0)" d="M0 0L594.75 0L594.75 0L594.75 842.0669L594.75 842.0669L0 842.0669L0 842.0669L0 0z" /></clipPath></defs><g transform="matrix(1.333333 0 0 1.333333 0 0)"><g clip-path="url(#1)"><g clip-path="url(#2)"><path id="1" transform="matrix(1 0 0 -1 0 842)" d="M0 841.999L594.75 841.999L594.75 -0.06738281L0 -0.06738281z" stroke="none" fill="#FFFFFF" fill-rule="nonzero" /><path id="2" transform="matrix(1 0 0 -1 0 842)" d="M49.5625 732.9619L74.34375 732.9619L74.34375 707.1895L49.5625 707.1895z" stroke="none" fill="#9CC9F0" fill-rule="nonzero" /><path id="3" transform="matrix(1 0 0 -1 0 842)" d="M74.34375 732.9619L148.6875 732.9619L148.6875 707.1895L74.34375 707.1895z" stroke="none" fill="#9CC9F0" fill-rule="nonzero" /><path id="4" transform="matrix(1 0 0 -1 0 842)" d="M148.6875 732.9619L223.0313 732.9619L223.0313 707.1895L148.6875 707.1895z" stroke="none" fill="#9CC9F0" fill-rule="nonzero" /><path id="5" transform="matrix(1 0 0 -1 0 842)" d="M223.0313 732.9619L272.5938 732.9619L272.5938 707.1895L223.0313 707.1895z" stroke="none" fill="#9CC9F0" fill-rule="nonzero" /><path id="6" transform="matrix(1 0 0 -1 0 842)" d="M272.5938 732.9619L421.2813 732.9619L421.2813 707.1895L272.5938 707.1895z" stroke="none" fill="#9CC9F0" fill-rule="nonzero" /><path id="7" transform="matrix(1 0 0 -1 0 842)" d="M421.2813 732.9619L470.8438 732.9619L470.8438 707.1895L421.2813 707.1895z" stroke="none" fill="#9CC9F0" fill-rule="nonzero" /><path id="8" transform="matrix(1 0 0 -1 0 842)" d="M470.8438 732.9619L544.6919 732.9619L544.6919 707.1895L470.8438 707.1895z" stroke="none" fill="#9CC9F0" fill-rule="nonzero" /><path id="9" transform="matrix(1 0 0 -1 0 842)" d="M49.5625 732.9619L74.83938 732.9619L74.83938 732.4658L49.5625 732.4658z" stroke="none" fill="#000000" fill-rule="nonzero" /><path id="10" transform="matrix(1 0 0 -1 0 842)" d="M49.5625 707.1895L74.83938 707.1895L74.83938 706.6934L49.5625 706.6934z" stroke="none" fill="#000000" fill-rule="nonzero" /><path id="11" transform="matrix(1 0 0 -1 0 842)" d="M49.5625 732.9619L50.05813 732.9619L50.05813 706.6934L49.5625 706.6934z" stroke="none" fill="#000000" fill-rule="nonzero" /><path id="12" transform="matrix(1 0 0 -1 0 842)" d="M74.34375 732.9619L74.83938 732.9619L74.83938 706.6934L74.34375 706.6934z" stroke="none" fill="#000000" fill-rule="nonzero" /><path id="13" transform="matrix(1 0 0 -1 0 842)" d="M74.34375 732.9619L149.1831 732.9619L149.1831 732.4658L74.34375 732.4658z" stroke="none" fill="#000000" fill-rule="nonzero" /><path id="14" transform="matrix(1 0 0 -1 0 842)" d="M74.34375 707.1895L149.1831 707.1895L149.1831 706.6934L74.34375 706.6934z" stroke="none" fill="#000000" fill-rule="nonzero" /><path id="15" transform="matrix(1 0 0 -1 0 842)" d="M74.34375 732.9619L74.83938 732.9619L74.83938 706.6934L74.34375 706.6934z" stroke="none" fill="#000000" fill-rule="nonzero" /><path id="16" transform="matrix(1 0 0 -1 0 842)" d="M148.6875 732.9619L149.1831 732.9619L149.1831 706.6934L148.6875 706.6934z" stroke="none" fill="#000000" fill-rule="nonzero" /><path id="17" transform="matrix(1 0 0 -1 0 842)" d="M148.6875 732.9619L223.5269 732.9619L223.5269 732.4658L148.6875 732.4658z" stroke="none" fill="#000000" fill-rule="nonzero" /><path id="18" transform="matrix(1 0 0 -1 0 842)" d="M148.6875 707.1895L223.5269 707.1895L223.5269 706.6934L148.6875 706.6934z" stroke="none" fill="#000000" fill-rule="nonzero" /><path id="19" transform="matrix(1 0 0 -1 0 842)" d="M148.6875 732.9619L149.1831 732.9619L149.1831 706.6934L148.6875 706.6934z" stroke="none" fill="#000000" fill-rule="nonzero" /><path id="20" transform="matrix(1 0 0 -1 0 842)" d="M223.0313 732.9619L223.5269 732.9619L223.5269 706.6934L223.0313 706.6934z" stroke="none" fill="#000000" fill-rule="nonzero" /><path id="21" transform="matrix(1 0 0 -1 0 842)" d="M223.0313 732.9619L273.0894 732.9619L273.0894 732.4658L223.0313 732.4658z" stroke="none" fill="#000000" fill-rule="nonzero" /><path id="22" transform="matrix(1 0 0 -1 0 842)" d="M223.0313 707.1895L273.0894 707.1895L273.0894 706.6934L223.0313 706.6934z" stroke="none" fill="#000000" fill-rule="nonzero" /><path id="23" transform="matrix(1 0 0 -1 0 842)" d="M223.0313 732.9619L223.5269 732.9619L223.5269 706.6934L223.0313 706.6934z" stroke="none" fill="#000000" fill-rule="nonzero" /><path id="24" transform="matrix(1 0 0 -1 0 842)" d="M272.5938 732.9619L273.0894 732.9619L273.0894 706.6934L272.5938 706.6934z" stroke="none" fill="#000000" fill-rule="nonzero" /><path id="25" transform="matrix(1 0 0 -1 0 842)" d="M272.5938 732.9619L421.7769 732.9619L421.7769 732.4658L272.5938 732.4658z" stroke="none" fill="#000000" fill-rule="nonzero" /><path id="26" transform="matrix(1 0 0 -1 0 842)" d="M272.5938 707.1895L421.7769 707.1895L421.7769 706.6934L272.5938 706.6934z" stroke="none" fill="#000000" fill-rule="nonzero" /><path id="27" transform="matrix(1 0 0 -1 0 842)" d="M272.5938 732.9619L273.0894 732.9619L273.0894 706.6934L272.5938 706.6934z" stroke="none" fill="#000000" fill-rule="nonzero" /><path id="28" transform="matrix(1 0 0 -1 0 842)" d="M421.2813 732.9619L421.7769 732.9619L421.7769 706.6934L421.2813 706.6934z" stroke="none" fill="#000000" fill-rule="nonzero" /><path id="29" transform="matrix(1 0 0 -1 0 842)" d="M421.2813 732.9619L471.3394 732.9619L471.3394 732.4658L421.2813 732.4658z" stroke="none" fill="#000000" fill-rule="nonzero" /><path id="30" transform="matrix(1 0 0 -1 0 842)" d="M421.2813 707.1895L471.3394 707.1895L471.3394 706.6934L421.2813 706.6934z" stroke="none" fill="#000000" fill-rule="nonzero" /><path id="31" transform="matrix(1 0 0 -1 0 842)" d="M421.2813 732.9619L421.7769 732.9619L421.7769 706.6934L421.2813 706.6934z" stroke="none" fill="#000000" fill-rule="nonzero" /><path id="32" transform="matrix(1 0 0 -1 0 842)" d="M470.8438 732.9619L471.3394 732.9619L471.3394 706.6934L470.8438 706.6934z" stroke="none" fill="#000000" fill-rule="nonzero" /><path id="33" transform="matrix(1 0 0 -1 0 842)" d="M470.8438 732.9619L545.1875 732.9619L545.1875 732.4658L470.8438 732.4658z" stroke="none" fill="#000000" fill-rule="nonzero" /><path id="34" transform="matrix(1 0 0 -1 0 842)" d="M470.8438 707.1895L545.1875 707.1895L545.1875 706.6934L470.8438 706.6934z" stroke="none" fill="#000000" fill-rule="nonzero" /><path id="35" transform="matrix(1 0 0 -1 0 842)" d="M470.8438 732.9619L471.3394 732.9619L471.3394 706.6934L470.8438 706.6934z" stroke="none" fill="#000000" fill-rule="nonzero" /><path id="36" transform="matrix(1 0 0 -1 0 842)" d="M544.6919 732.9619L545.1875 732.9619L545.1875 706.6934L544.6919 706.6934z" stroke="none" fill="#000000" fill-rule="nonzero" /><path id="37" transform="matrix(1 0 0 -1 0 842)" d="M49.5625 707.1895L74.83938 707.1895L74.83938 706.6934L49.5625 706.6934z" stroke="none" fill="#000000" fill-rule="nonzero" /><path id="38" transform="matrix(1 0 0 -1 0 842)" d="M49.5625 638.793L74.83938 638.793L74.83938 638.2979L49.5625 638.2979z" stroke="none" fill="#000000" fill-rule="nonzero" /><path id="39" transform="matrix(1 0 0 -1 0 842)" d="M49.5625 707.1895L50.05813 707.1895L50.05813 638.2979L49.5625 638.2979z" stroke="none" fill="#000000" fill-rule="nonzero" /><path id="40" transform="matrix(1 0 0 -1 0 842)" d="M74.34375 707.1895L74.83938 707.1895L74.83938 638.2979L74.34375 638.2979z" stroke="none" fill="#000000" fill-rule="nonzero" /><path id="41" transform="matrix(1 0 0 -1 0 842)" d="M74.34375 707.1895L149.1831 707.1895L149.1831 706.6934L74.34375 706.6934z" stroke="none" fill="#000000" fill-rule="nonzero" /><path id="42" transform="matrix(1 0 0 -1 0 842)" d="M74.34375 638.793L149.1831 638.793L149.1831 638.2979L74.34375 638.2979z" stroke="none" fill="#000000" fill-rule="nonzero" /><path id="43" transform="matrix(1 0 0 -1 0 842)" d="M74.34375 707.1895L74.83938 707.1895L74.83938 638.2979L74.34375 638.2979z" stroke="none" fill="#000000" fill-rule="nonzero" /><path id="44" transform="matrix(1 0 0 -1 0 842)" d="M148.6875 707.1895L149.1831 707.1895L149.1831 638.2979L148.6875 638.2979z" stroke="none" fill="#000000" fill-rule="nonzero" /><path id="45" transform="matrix(1 0 0 -1 0 842)" d="M148.6875 707.1895L223.5269 707.1895L223.5269 706.6934L148.6875 706.6934z" stroke="none" fill="#000000" fill-rule="nonzero" /><path id="46" transform="matrix(1 0 0 -1 0 842)" d="M148.6875 672.9912L223.5269 672.9912L223.5269 672.4951L148.6875 672.4951z" stroke="none" fill="#000000" fill-rule="nonzero" /><path id="47" transform="matrix(1 0 0 -1 0 842)" d="M148.6875 707.1895L149.1831 707.1895L149.1831 672.4951L148.6875 672.4951z" stroke="none" fill="#000000" fill-rule="nonzero" /><path id="48" transform="matrix(1 0 0 -1 0 842)" d="M223.0313 707.1895L223.5269 707.1895L223.5269 672.4951L223.0313 672.4951z" stroke="none" fill="#000000" fill-rule="nonzero" /><path id="49" transform="matrix(1 0 0 -1 0 842)" d="M223.0313 707.1895L273.0894 707.1895L273.0894 706.6934L223.0313 706.6934z" stroke="none" fill="#000000" fill-rule="nonzero" /><path id="50" transform="matrix(1 0 0 -1 0 842)" d="M223.0313 672.9912L273.0894 672.9912L273.0894 672.4951L223.0313 672.4951z" stroke="none" fill="#000000" fill-rule="nonzero" /><path id="51" transform="matrix(1 0 0 -1 0 842)" d="M223.0313 707.1895L223.5269 707.1895L223.5269 672.4951L223.0313 672.4951z" stroke="none" fill="#000000" fill-rule="nonzero" /><path id="52" transform="matrix(1 0 0 -1 0 842)" d="M272.5938 707.1895L273.0894 707.1895L273.0894 672.4951L272.5938 672.4951z" stroke="none" fill="#000000" fill-rule="nonzero" /><path id="53" transform="matrix(1 0 0 -1 0 842)" d="M272.5938 707.1895L421.7769 707.1895L421.7769 706.6934L272.5938 706.6934z" stroke="none" fill="#000000" fill-rule="nonzero" /><path id="54" transform="matrix(1 0 0 -1 0 842)" d="M272.5938 672.9912L421.7769 672.9912L421.7769 672.4951L272.5938 672.4951z" stroke="none" fill="#000000" fill-rule="nonzero" /><path id="55" transform="matrix(1 0 0 -1 0 842)" d="M272.5938 707.1895L273.0894 707.1895L273.0894 672.4951L272.5938 672.4951z" stroke="none" fill="#000000" fill-rule="nonzero" /><path id="56" transform="matrix(1 0 0 -1 0 842)" d="M421.2813 707.1895L421.7769 707.1895L421.7769 672.4951L421.2813 672.4951z" stroke="none" fill="#000000" fill-rule="nonzero" /><path id="57" transform="matrix(1 0 0 -1 0 842)" d="M421.2813 707.1895L471.3394 707.1895L471.3394 706.6934L421.2813 706.6934z" stroke="none" fill="#000000" fill-rule="nonzero" /><path id="58" transform="matrix(1 0 0 -1 0 842)" d="M421.2813 672.9912L471.3394 672.9912L471.3394 672.4951L421.2813 672.4951z" stroke="none" fill="#000000" fill-rule="nonzero" /><path id="59" transform="matrix(1 0 0 -1 0 842)" d="M421.2813 707.1895L421.7769 707.1895L421.7769 672.4951L421.2813 672.4951z" stroke="none" fill="#000000" fill-rule="nonzero" /><path id="60" transform="matrix(1 0 0 -1 0 842)" d="M470.8438 707.1895L471.3394 707.1895L471.3394 672.4951L470.8438 672.4951z" stroke="none" fill="#000000" fill-rule="nonzero" /><path id="61" transform="matrix(1 0 0 -1 0 842)" d="M470.8438 707.1895L545.1875 707.1895L545.1875 706.6934L470.8438 706.6934z" stroke="none" fill="#000000" fill-rule="nonzero" /><path id="62" transform="matrix(1 0 0 -1 0 842)" d="M470.8438 638.793L545.1875 638.793L545.1875 638.2979L470.8438 638.2979z" stroke="none" fill="#000000" fill-rule="nonzero" /><path id="63" transform="matrix(1 0 0 -1 0 842)" d="M470.8438 707.1895L471.3394 707.1895L471.3394 638.2979L470.8438 638.2979z" stroke="none" fill="#000000" fill-rule="nonzero" /><path id="64" transform="matrix(1 0 0 -1 0 842)" d="M544.6919 707.1895L545.1875 707.1895L545.1875 638.2979L544.6919 638.2979z" stroke="none" fill="#000000" fill-rule="nonzero" /><path id="65" transform="matrix(1 0 0 -1 0 842)" d="M148.6875 672.9912L223.5269 672.9912L223.5269 672.4951L148.6875 672.4951z" stroke="none" fill="#000000" fill-rule="nonzero" /><path id="66" transform="matrix(1 0 0 -1 0 842)" d="M148.6875 638.793L223.5269 638.793L223.5269 638.2979L148.6875 638.2979z" stroke="none" fill="#000000" fill-rule="nonzero" /><path id="67" transform="matrix(1 0 0 -1 0 842)" d="M148.6875 672.9912L149.1831 672.9912L149.1831 638.2979L148.6875 638.2979z" stroke="none" fill="#000000" fill-rule="nonzero" /><path id="68" transform="matrix(1 0 0 -1 0 842)" d="M223.0313 672.9912L223.5269 672.9912L223.5269 638.2979L223.0313 638.2979z" stroke="none" fill="#000000" fill-rule="nonzero" /><path id="69" transform="matrix(1 0 0 -1 0 842)" d="M223.0313 672.9912L273.0894 672.9912L273.0894 672.4951L223.0313 672.4951z" stroke="none" fill="#000000" fill-rule="nonzero" /><path id="70" transform="matrix(1 0 0 -1 0 842)" d="M223.0313 638.793L273.0894 638.793L273.0894 638.2979L223.0313 638.2979z" stroke="none" fill="#000000" fill-rule="nonzero" /><path id="71" transform="matrix(1 0 0 -1 0 842)" d="M223.0313 672.9912L223.5269 672.9912L223.5269 638.2979L223.0313 638.2979z" stroke="none" fill="#000000" fill-rule="nonzero" /><path id="72" transform="matrix(1 0 0 -1 0 842)" d="M272.5938 672.9912L273.0894 672.9912L273.0894 638.2979L272.5938 638.2979z" stroke="none" fill="#000000" fill-rule="nonzero" /><path id="73" transform="matrix(1 0 0 -1 0 842)" d="M272.5938 672.9912L421.7769 672.9912L421.7769 672.4951L272.5938 672.4951z" stroke="none" fill="#000000" fill-rule="nonzero" /><path id="74" transform="matrix(1 0 0 -1 0 842)" d="M272.5938 638.793L421.7769 638.793L421.7769 638.2979L272.5938 638.2979z" stroke="none" fill="#000000" fill-rule="nonzero" /><path id="75" transform="matrix(1 0 0 -1 0 842)" d="M272.5938 672.9912L273.0894 672.9912L273.0894 638.2979L272.5938 638.2979z" stroke="none" fill="#000000" fill-rule="nonzero" /><path id="76" transform="matrix(1 0 0 -1 0 842)" d="M421.2813 672.9912L421.7769 672.9912L421.7769 638.2979L421.2813 638.2979z" stroke="none" fill="#000000" fill-rule="nonzero" /><path id="77" transform="matrix(1 0 0 -1 0 842)" d="M421.2813 672.9912L471.3394 672.9912L471.3394 672.4951L421.2813 672.4951z" stroke="none" fill="#000000" fill-rule="nonzero" /><path id="78" transform="matrix(1 0 0 -1 0 842)" d="M421.2813 638.793L471.3394 638.793L471.3394 638.2979L421.2813 638.2979z" stroke="none" fill="#000000" fill-rule="nonzero" /><path id="79" transform="matrix(1 0 0 -1 0 842)" d="M421.2813 672.9912L421.7769 672.9912L421.7769 638.2979L421.2813 638.2979z" stroke="none" fill="#000000" fill-rule="nonzero" /><path id="80" transform="matrix(1 0 0 -1 0 842)" d="M470.8438 672.9912L471.3394 672.9912L471.3394 638.2979L470.8438 638.2979z" stroke="none" fill="#000000" fill-rule="nonzero" /><path id="81" transform="matrix(1 0 0 -1 0 842)" d="M49.5625 638.793L74.83938 638.793L74.83938 638.2979L49.5625 638.2979z" stroke="none" fill="#000000" fill-rule="nonzero" /><path id="82" transform="matrix(1 0 0 -1 0 842)" d="M49.5625 570.3965L74.83938 570.3965L74.83938 569.9014L49.5625 569.9014z" stroke="none" fill="#000000" fill-rule="nonzero" /><path id="83" transform="matrix(1 0 0 -1 0 842)" d="M49.5625 638.793L50.05813 638.793L50.05813 569.9014L49.5625 569.9014z" stroke="none" fill="#000000" fill-rule="nonzero" /><path id="84" transform="matrix(1 0 0 -1 0 842)" d="M74.34375 638.793L74.83938 638.793L74.83938 569.9014L74.34375 569.9014z" stroke="none" fill="#000000" fill-rule="nonzero" /><path id="85" transform="matrix(1 0 0 -1 0 842)" d="M74.34375 638.793L149.1831 638.793L149.1831 638.2979L74.34375 638.2979z" stroke="none" fill="#000000" fill-rule="nonzero" /><path id="86" transform="matrix(1 0 0 -1 0 842)" d="M74.34375 570.3965L149.1831 570.3965L149.1831 569.9014L74.34375 569.9014z" stroke="none" fill="#000000" fill-rule="nonzero" /><path id="87" transform="matrix(1 0 0 -1 0 842)" d="M74.34375 638.793L74.83938 638.793L74.83938 569.9014L74.34375 569.9014z" stroke="none" fill="#000000" fill-rule="nonzero" /><path id="88" transform="matrix(1 0 0 -1 0 842)" d="M148.6875 638.793L149.1831 638.793L149.1831 569.9014L148.6875 569.9014z" stroke="none" fill="#000000" fill-rule="nonzero" /><path id="89" transform="matrix(1 0 0 -1 0 842)" d="M148.6875 638.793L223.5269 638.793L223.5269 638.2979L148.6875 638.2979z" stroke="none" fill="#000000" fill-rule="nonzero" /><path id="90" transform="matrix(1 0 0 -1 0 842)" d="M148.6875 604.5947L223.5269 604.5947L223.5269 604.0996L148.6875 604.0996z" stroke="none" fill="#000000" fill-rule="nonzero" /><path id="91" transform="matrix(1 0 0 -1 0 842)" d="M148.6875 638.793L149.1831 638.793L149.1831 604.0996L148.6875 604.0996z" stroke="none" fill="#000000" fill-rule="nonzero" /><path id="92" transform="matrix(1 0 0 -1 0 842)" d="M223.0313 638.793L223.5269 638.793L223.5269 604.0996L223.0313 604.0996z" stroke="none" fill="#000000" fill-rule="nonzero" /><path id="93" transform="matrix(1 0 0 -1 0 842)" d="M223.0313 638.793L273.0894 638.793L273.0894 638.2979L223.0313 638.2979z" stroke="none" fill="#000000" fill-rule="nonzero" /><path id="94" transform="matrix(1 0 0 -1 0 842)" d="M223.0313 604.5947L273.0894 604.5947L273.0894 604.0996L223.0313 604.0996z" stroke="none" fill="#000000" fill-rule="nonzero" /><path id="95" transform="matrix(1 0 0 -1 0 842)" d="M223.0313 638.793L223.5269 638.793L223.5269 604.0996L223.0313 604.0996z" stroke="none" fill="#000000" fill-rule="nonzero" /><path id="96" transform="matrix(1 0 0 -1 0 842)" d="M272.5938 638.793L273.0894 638.793L273.0894 604.0996L272.5938 604.0996z" stroke="none" fill="#000000" fill-rule="nonzero" /><path id="97" transform="matrix(1 0 0 -1 0 842)" d="M272.5938 638.793L421.7769 638.793L421.7769 638.2979L272.5938 638.2979z" stroke="none" fill="#000000" fill-rule="nonzero" /><path id="98" transform="matrix(1 0 0 -1 0 842)" d="M272.5938 604.5947L421.7769 604.5947L421.7769 604.0996L272.5938 604.0996z" stroke="none" fill="#000000" fill-rule="nonzero" /><path id="99" transform="matrix(1 0 0 -1 0 842)" d="M272.5938 638.793L273.0894 638.793L273.0894 604.0996L272.5938 604.0996z" stroke="none" fill="#000000" fill-rule="nonzero" /><path id="100" transform="matrix(1 0 0 -1 0 842)" d="M421.2813 638.793L421.7769 638.793L421.7769 604.0996L421.2813 604.0996z" stroke="none" fill="#000000" fill-rule="nonzero" /><path id="101" transform="matrix(1 0 0 -1 0 842)" d="M421.2813 638.793L471.3394 638.793L471.3394 638.2979L421.2813 638.2979z" stroke="none" fill="#000000" fill-rule="nonzero" /><path id="102" transform="matrix(1 0 0 -1 0 842)" d="M421.2813 604.5947L471.3394 604.5947L471.3394 604.0996L421.2813 604.0996z" stroke="none" fill="#000000" fill-rule="nonzero" /><path id="103" transform="matrix(1 0 0 -1 0 842)" d="M421.2813 638.793L421.7769 638.793L421.7769 604.0996L421.2813 604.0996z" stroke="none" fill="#000000" fill-rule="nonzero" /><path id="104" transform="matrix(1 0 0 -1 0 842)" d="M470.8438 638.793L471.3394 638.793L471.3394 604.0996L470.8438 604.0996z" stroke="none" fill="#000000" fill-rule="nonzero" /><path id="105" transform="matrix(1 0 0 -1 0 842)" d="M470.8438 638.793L545.1875 638.793L545.1875 638.2979L470.8438 638.2979z" stroke="none" fill="#000000" fill-rule="nonzero" /><path id="106" transform="matrix(1 0 0 -1 0 842)" d="M470.8438 570.3965L545.1875 570.3965L545.1875 569.9014L470.8438 569.9014z" stroke="none" fill="#000000" fill-rule="nonzero" /><path id="107" transform="matrix(1 0 0 -1 0 842)" d="M470.8438 638.793L471.3394 638.793L471.3394 569.9014L470.8438 569.9014z" stroke="none" fill="#000000" fill-rule="nonzero" /><path id="108" transform="matrix(1 0 0 -1 0 842)" d="M544.6919 638.793L545.1875 638.793L545.1875 569.9014L544.6919 569.9014z" stroke="none" fill="#000000" fill-rule="nonzero" /><path id="109" transform="matrix(1 0 0 -1 0 842)" d="M148.6875 604.5947L223.5269 604.5947L223.5269 604.0996L148.6875 604.0996z" stroke="none" fill="#000000" fill-rule="nonzero" /><path id="110" transform="matrix(1 0 0 -1 0 842)" d="M148.6875 570.3965L223.5269 570.3965L223.5269 569.9014L148.6875 569.9014z" stroke="none" fill="#000000" fill-rule="nonzero" /><path id="111" transform="matrix(1 0 0 -1 0 842)" d="M148.6875 604.5947L149.1831 604.5947L149.1831 569.9014L148.6875 569.9014z" stroke="none" fill="#000000" fill-rule="nonzero" /><path id="112" transform="matrix(1 0 0 -1 0 842)" d="M223.0313 604.5947L223.5269 604.5947L223.5269 569.9014L223.0313 569.9014z" stroke="none" fill="#000000" fill-rule="nonzero" /><path id="113" transform="matrix(1 0 0 -1 0 842)" d="M223.0313 604.5947L273.0894 604.5947L273.0894 604.0996L223.0313 604.0996z" stroke="none" fill="#000000" fill-rule="nonzero" /><path id="114" transform="matrix(1 0 0 -1 0 842)" d="M223.0313 570.3965L273.0894 570.3965L273.0894 569.9014L223.0313 569.9014z" stroke="none" fill="#000000" fill-rule="nonzero" /><path id="115" transform="matrix(1 0 0 -1 0 842)" d="M223.0313 604.5947L223.5269 604.5947L223.5269 569.9014L223.0313 569.9014z" stroke="none" fill="#000000" fill-rule="nonzero" /><path id="116" transform="matrix(1 0 0 -1 0 842)" d="M272.5938 604.5947L273.0894 604.5947L273.0894 569.9014L272.5938 569.9014z" stroke="none" fill="#000000" fill-rule="nonzero" /><path id="117" transform="matrix(1 0 0 -1 0 842)" d="M272.5938 604.5947L421.7769 604.5947L421.7769 604.0996L272.5938 604.0996z" stroke="none" fill="#000000" fill-rule="nonzero" /><path id="118" transform="matrix(1 0 0 -1 0 842)" d="M272.5938 570.3965L421.7769 570.3965L421.7769 569.9014L272.5938 569.9014z" stroke="none" fill="#000000" fill-rule="nonzero" /><path id="119" transform="matrix(1 0 0 -1 0 842)" d="M272.5938 604.5947L273.0894 604.5947L273.0894 569.9014L272.5938 569.9014z" stroke="none" fill="#000000" fill-rule="nonzero" /><path id="120" transform="matrix(1 0 0 -1 0 842)" d="M421.2813 604.5947L421.7769 604.5947L421.7769 569.9014L421.2813 569.9014z" stroke="none" fill="#000000" fill-rule="nonzero" /><path id="121" transform="matrix(1 0 0 -1 0 842)" d="M421.2813 604.5947L471.3394 604.5947L471.3394 604.0996L421.2813 604.0996z" stroke="none" fill="#000000" fill-rule="nonzero" /><path id="122" transform="matrix(1 0 0 -1 0 842)" d="M421.2813 570.3965L471.3394 570.3965L471.3394 569.9014L421.2813 569.9014z" stroke="none" fill="#000000" fill-rule="nonzero" /><path id="123" transform="matrix(1 0 0 -1 0 842)" d="M421.2813 604.5947L421.7769 604.5947L421.7769 569.9014L421.2813 569.9014z" stroke="none" fill="#000000" fill-rule="nonzero" /><path id="124" transform="matrix(1 0 0 -1 0 842)" d="M470.8438 604.5947L471.3394 604.5947L471.3394 569.9014L470.8438 569.9014z" stroke="none" fill="#000000" fill-rule="nonzero" /><path id="125" transform="matrix(1 0 0 -1 0 842)" d="M49.5625 570.3965L74.83938 570.3965L74.83938 569.9014L49.5625 569.9014z" stroke="none" fill="#000000" fill-rule="nonzero" /><path id="126" transform="matrix(1 0 0 -1 0 842)" d="M49.5625 502.001L74.83938 502.001L74.83938 501.5049L49.5625 501.5049z" stroke="none" fill="#000000" fill-rule="nonzero" /><path id="127" transform="matrix(1 0 0 -1 0 842)" d="M49.5625 570.3965L50.05813 570.3965L50.05813 501.5049L49.5625 501.5049z" stroke="none" fill="#000000" fill-rule="nonzero" /><path id="128" transform="matrix(1 0 0 -1 0 842)" d="M74.34375 570.3965L74.83938 570.3965L74.83938 501.5049L74.34375 501.5049z" stroke="none" fill="#000000" fill-rule="nonzero" /><path id="129" transform="matrix(1 0 0 -1 0 842)" d="M74.34375 570.3965L149.1831 570.3965L149.1831 569.9014L74.34375 569.9014z" stroke="none" fill="#000000" fill-rule="nonzero" /><path id="130" transform="matrix(1 0 0 -1 0 842)" d="M74.34375 502.001L149.1831 502.001L149.1831 501.5049L74.34375 501.5049z" stroke="none" fill="#000000" fill-rule="nonzero" /><path id="131" transform="matrix(1 0 0 -1 0 842)" d="M74.34375 570.3965L74.83938 570.3965L74.83938 501.5049L74.34375 501.5049z" stroke="none" fill="#000000" fill-rule="nonzero" /><path id="132" transform="matrix(1 0 0 -1 0 842)" d="M148.6875 570.3965L149.1831 570.3965L149.1831 501.5049L148.6875 501.5049z" stroke="none" fill="#000000" fill-rule="nonzero" /><path id="133" transform="matrix(1 0 0 -1 0 842)" d="M148.6875 570.3965L223.5269 570.3965L223.5269 569.9014L148.6875 569.9014z" stroke="none" fill="#000000" fill-rule="nonzero" /><path id="134" transform="matrix(1 0 0 -1 0 842)" d="M148.6875 536.1982L223.5269 536.1982L223.5269 535.7031L148.6875 535.7031z" stroke="none" fill="#000000" fill-rule="nonzero" /><path id="135" transform="matrix(1 0 0 -1 0 842)" d="M148.6875 570.3965L149.1831 570.3965L149.1831 535.7031L148.6875 535.7031z" stroke="none" fill="#000000" fill-rule="nonzero" /><path id="136" transform="matrix(1 0 0 -1 0 842)" d="M223.0313 570.3965L223.5269 570.3965L223.5269 535.7031L223.0313 535.7031z" stroke="none" fill="#000000" fill-rule="nonzero" /><path id="137" transform="matrix(1 0 0 -1 0 842)" d="M223.0313 570.3965L273.0894 570.3965L273.0894 569.9014L223.0313 569.9014z" stroke="none" fill="#000000" fill-rule="nonzero" /><path id="138" transform="matrix(1 0 0 -1 0 842)" d="M223.0313 536.1982L273.0894 536.1982L273.0894 535.7031L223.0313 535.7031z" stroke="none" fill="#000000" fill-rule="nonzero" /><path id="139" transform="matrix(1 0 0 -1 0 842)" d="M223.0313 570.3965L223.5269 570.3965L223.5269 535.7031L223.0313 535.7031z" stroke="none" fill="#000000" fill-rule="nonzero" /><path id="140" transform="matrix(1 0 0 -1 0 842)" d="M272.5938 570.3965L273.0894 570.3965L273.0894 535.7031L272.5938 535.7031z" stroke="none" fill="#000000" fill-rule="nonzero" /><path id="141" transform="matrix(1 0 0 -1 0 842)" d="M272.5938 570.3965L421.7769 570.3965L421.7769 569.9014L272.5938 569.9014z" stroke="none" fill="#000000" fill-rule="nonzero" /><path id="142" transform="matrix(1 0 0 -1 0 842)" d="M272.5938 536.1982L421.7769 536.1982L421.7769 535.7031L272.5938 535.7031z" stroke="none" fill="#000000" fill-rule="nonzero" /><path id="143" transform="matrix(1 0 0 -1 0 842)" d="M272.5938 570.3965L273.0894 570.3965L273.0894 535.7031L272.5938 535.7031z" stroke="none" fill="#000000" fill-rule="nonzero" /><path id="144" transform="matrix(1 0 0 -1 0 842)" d="M421.2813 570.3965L421.7769 570.3965L421.7769 535.7031L421.2813 535.7031z" stroke="none" fill="#000000" fill-rule="nonzero" /><path id="145" transform="matrix(1 0 0 -1 0 842)" d="M421.2813 570.3965L471.3394 570.3965L471.3394 569.9014L421.2813 569.9014z" stroke="none" fill="#000000" fill-rule="nonzero" /><path id="146" transform="matrix(1 0 0 -1 0 842)" d="M421.2813 536.1982L471.3394 536.1982L471.3394 535.7031L421.2813 535.7031z" stroke="none" fill="#000000" fill-rule="nonzero" /><path id="147" transform="matrix(1 0 0 -1 0 842)" d="M421.2813 570.3965L421.7769 570.3965L421.7769 535.7031L421.2813 535.7031z" stroke="none" fill="#000000" fill-rule="nonzero" /><path id="148" transform="matrix(1 0 0 -1 0 842)" d="M470.8438 570.3965L471.3394 570.3965L471.3394 535.7031L470.8438 535.7031z" stroke="none" fill="#000000" fill-rule="nonzero" /><path id="149" transform="matrix(1 0 0 -1 0 842)" d="M470.8438 570.3965L545.1875 570.3965L545.1875 569.9014L470.8438 569.9014z" stroke="none" fill="#000000" fill-rule="nonzero" /><path id="150" transform="matrix(1 0 0 -1 0 842)" d="M470.8438 502.001L545.1875 502.001L545.1875 501.5049L470.8438 501.5049z" stroke="none" fill="#000000" fill-rule="nonzero" /><path id="151" transform="matrix(1 0 0 -1 0 842)" d="M470.8438 570.3965L471.3394 570.3965L471.3394 501.5049L470.8438 501.5049z" stroke="none" fill="#000000" fill-rule="nonzero" /><path id="152" transform="matrix(1 0 0 -1 0 842)" d="M544.6919 570.3965L545.1875 570.3965L545.1875 501.5049L544.6919 501.5049z" stroke="none" fill="#000000" fill-rule="nonzero" /><path id="153" transform="matrix(1 0 0 -1 0 842)" d="M148.6875 536.1982L223.5269 536.1982L223.5269 535.7031L148.6875 535.7031z" stroke="none" fill="#000000" fill-rule="nonzero" /><path id="154" transform="matrix(1 0 0 -1 0 842)" d="M148.6875 502.001L223.5269 502.001L223.5269 501.5049L148.6875 501.5049z" stroke="none" fill="#000000" fill-rule="nonzero" /><path id="155" transform="matrix(1 0 0 -1 0 842)" d="M148.6875 536.1982L149.1831 536.1982L149.1831 501.5049L148.6875 501.5049z" stroke="none" fill="#000000" fill-rule="nonzero" /><path id="156" transform="matrix(1 0 0 -1 0 842)" d="M223.0313 536.1982L223.5269 536.1982L223.5269 501.5049L223.0313 501.5049z" stroke="none" fill="#000000" fill-rule="nonzero" /><path id="157" transform="matrix(1 0 0 -1 0 842)" d="M223.0313 536.1982L273.0894 536.1982L273.0894 535.7031L223.0313 535.7031z" stroke="none" fill="#000000" fill-rule="nonzero" /><path id="158" transform="matrix(1 0 0 -1 0 842)" d="M223.0313 502.001L273.0894 502.001L273.0894 501.5049L223.0313 501.5049z" stroke="none" fill="#000000" fill-rule="nonzero" /><path id="159" transform="matrix(1 0 0 -1 0 842)" d="M223.0313 536.1982L223.5269 536.1982L223.5269 501.5049L223.0313 501.5049z" stroke="none" fill="#000000" fill-rule="nonzero" /><path id="160" transform="matrix(1 0 0 -1 0 842)" d="M272.5938 536.1982L273.0894 536.1982L273.0894 501.5049L272.5938 501.5049z" stroke="none" fill="#000000" fill-rule="nonzero" /><path id="161" transform="matrix(1 0 0 -1 0 842)" d="M272.5938 536.1982L421.7769 536.1982L421.7769 535.7031L272.5938 535.7031z" stroke="none" fill="#000000" fill-rule="nonzero" /><path id="162" transform="matrix(1 0 0 -1 0 842)" d="M272.5938 502.001L421.7769 502.001L421.7769 501.5049L272.5938 501.5049z" stroke="none" fill="#000000" fill-rule="nonzero" /><path id="163" transform="matrix(1 0 0 -1 0 842)" d="M272.5938 536.1982L273.0894 536.1982L273.0894 501.5049L272.5938 501.5049z" stroke="none" fill="#000000" fill-rule="nonzero" /><path id="164" transform="matrix(1 0 0 -1 0 842)" d="M421.2813 536.1982L421.7769 536.1982L421.7769 501.5049L421.2813 501.5049z" stroke="none" fill="#000000" fill-rule="nonzero" /><path id="165" transform="matrix(1 0 0 -1 0 842)" d="M421.2813 536.1982L471.3394 536.1982L471.3394 535.7031L421.2813 535.7031z" stroke="none" fill="#000000" fill-rule="nonzero" /><path id="166" transform="matrix(1 0 0 -1 0 842)" d="M421.2813 502.001L471.3394 502.001L471.3394 501.5049L421.2813 501.5049z" stroke="none" fill="#000000" fill-rule="nonzero" /><path id="167" transform="matrix(1 0 0 -1 0 842)" d="M421.2813 536.1982L421.7769 536.1982L421.7769 501.5049L421.2813 501.5049z" stroke="none" fill="#000000" fill-rule="nonzero" /><path id="168" transform="matrix(1 0 0 -1 0 842)" d="M470.8438 536.1982L471.3394 536.1982L471.3394 501.5049L470.8438 501.5049z" stroke="none" fill="#000000" fill-rule="nonzero" /><path id="169" transform="matrix(1 0 0 -1 0 842)" d="M49.5625 502.001L74.83938 502.001L74.83938 501.5049L49.5625 501.5049z" stroke="none" fill="#000000" fill-rule="nonzero" /><path id="170" transform="matrix(1 0 0 -1 0 842)" d="M49.5625 433.6045L74.83938 433.6045L74.83938 433.1084L49.5625 433.1084z" stroke="none" fill="#000000" fill-rule="nonzero" /><path id="171" transform="matrix(1 0 0 -1 0 842)" d="M49.5625 502.001L50.05813 502.001L50.05813 433.1084L49.5625 433.1084z" stroke="none" fill="#000000" fill-rule="nonzero" /><path id="172" transform="matrix(1 0 0 -1 0 842)" d="M74.34375 502.001L74.83938 502.001L74.83938 433.1084L74.34375 433.1084z" stroke="none" fill="#000000" fill-rule="nonzero" /><path id="173" transform="matrix(1 0 0 -1 0 842)" d="M74.34375 502.001L149.1831 502.001L149.1831 501.5049L74.34375 501.5049z" stroke="none" fill="#000000" fill-rule="nonzero" /><path id="174" transform="matrix(1 0 0 -1 0 842)" d="M74.34375 433.6045L149.1831 433.6045L149.1831 433.1084L74.34375 433.1084z" stroke="none" fill="#000000" fill-rule="nonzero" /><path id="175" transform="matrix(1 0 0 -1 0 842)" d="M74.34375 502.001L74.83938 502.001L74.83938 433.1084L74.34375 433.1084z" stroke="none" fill="#000000" fill-rule="nonzero" /><path id="176" transform="matrix(1 0 0 -1 0 842)" d="M148.6875 502.001L149.1831 502.001L149.1831 433.1084L148.6875 433.1084z" stroke="none" fill="#000000" fill-rule="nonzero" /><path id="177" transform="matrix(1 0 0 -1 0 842)" d="M148.6875 502.001L223.5269 502.001L223.5269 501.5049L148.6875 501.5049z" stroke="none" fill="#000000" fill-rule="nonzero" /><path id="178" transform="matrix(1 0 0 -1 0 842)" d="M148.6875 467.8027L223.5269 467.8027L223.5269 467.3066L148.6875 467.3066z" stroke="none" fill="#000000" fill-rule="nonzero" /><path id="179" transform="matrix(1 0 0 -1 0 842)" d="M148.6875 502.001L149.1831 502.001L149.1831 467.3066L148.6875 467.3066z" stroke="none" fill="#000000" fill-rule="nonzero" /><path id="180" transform="matrix(1 0 0 -1 0 842)" d="M223.0313 502.001L223.5269 502.001L223.5269 467.3066L223.0313 467.3066z" stroke="none" fill="#000000" fill-rule="nonzero" /><path id="181" transform="matrix(1 0 0 -1 0 842)" d="M223.0313 502.001L273.0894 502.001L273.0894 501.5049L223.0313 501.5049z" stroke="none" fill="#000000" fill-rule="nonzero" /><path id="182" transform="matrix(1 0 0 -1 0 842)" d="M223.0313 467.8027L273.0894 467.8027L273.0894 467.3066L223.0313 467.3066z" stroke="none" fill="#000000" fill-rule="nonzero" /><path id="183" transform="matrix(1 0 0 -1 0 842)" d="M223.0313 502.001L223.5269 502.001L223.5269 467.3066L223.0313 467.3066z" stroke="none" fill="#000000" fill-rule="nonzero" /><path id="184" transform="matrix(1 0 0 -1 0 842)" d="M272.5938 502.001L273.0894 502.001L273.0894 467.3066L272.5938 467.3066z" stroke="none" fill="#000000" fill-rule="nonzero" /><path id="185" transform="matrix(1 0 0 -1 0 842)" d="M272.5938 502.001L421.7769 502.001L421.7769 501.5049L272.5938 501.5049z" stroke="none" fill="#000000" fill-rule="nonzero" /><path id="186" transform="matrix(1 0 0 -1 0 842)" d="M272.5938 467.8027L421.7769 467.8027L421.7769 467.3066L272.5938 467.3066z" stroke="none" fill="#000000" fill-rule="nonzero" /><path id="187" transform="matrix(1 0 0 -1 0 842)" d="M272.5938 502.001L273.0894 502.001L273.0894 467.3066L272.5938 467.3066z" stroke="none" fill="#000000" fill-rule="nonzero" /><path id="188" transform="matrix(1 0 0 -1 0 842)" d="M421.2813 502.001L421.7769 502.001L421.7769 467.3066L421.2813 467.3066z" stroke="none" fill="#000000" fill-rule="nonzero" /><path id="189" transform="matrix(1 0 0 -1 0 842)" d="M421.2813 502.001L471.3394 502.001L471.3394 501.5049L421.2813 501.5049z" stroke="none" fill="#000000" fill-rule="nonzero" /><path id="190" transform="matrix(1 0 0 -1 0 842)" d="M421.2813 467.8027L471.3394 467.8027L471.3394 467.3066L421.2813 467.3066z" stroke="none" fill="#000000" fill-rule="nonzero" /><path id="191" transform="matrix(1 0 0 -1 0 842)" d="M421.2813 502.001L421.7769 502.001L421.7769 467.3066L421.2813 467.3066z" stroke="none" fill="#000000" fill-rule="nonzero" /><path id="192" transform="matrix(1 0 0 -1 0 842)" d="M470.8438 502.001L471.3394 502.001L471.3394 467.3066L470.8438 467.3066z" stroke="none" fill="#000000" fill-rule="nonzero" /><path id="193" transform="matrix(1 0 0 -1 0 842)" d="M470.8438 502.001L545.1875 502.001L545.1875 501.5049L470.8438 501.5049z" stroke="none" fill="#000000" fill-rule="nonzero" /><path id="194" transform="matrix(1 0 0 -1 0 842)" d="M470.8438 433.6045L545.1875 433.6045L545.1875 433.1084L470.8438 433.1084z" stroke="none" fill="#000000" fill-rule="nonzero" /><path id="195" transform="matrix(1 0 0 -1 0 842)" d="M470.8438 502.001L471.3394 502.001L471.3394 433.1084L470.8438 433.1084z" stroke="none" fill="#000000" fill-rule="nonzero" /><path id="196" transform="matrix(1 0 0 -1 0 842)" d="M544.6919 502.001L545.1875 502.001L545.1875 433.1084L544.6919 433.1084z" stroke="none" fill="#000000" fill-rule="nonzero" /><path id="197" transform="matrix(1 0 0 -1 0 842)" d="M148.6875 467.8027L223.5269 467.8027L223.5269 467.3066L148.6875 467.3066z" stroke="none" fill="#000000" fill-rule="nonzero" /><path id="198" transform="matrix(1 0 0 -1 0 842)" d="M148.6875 433.6045L223.5269 433.6045L223.5269 433.1084L148.6875 433.1084z" stroke="none" fill="#000000" fill-rule="nonzero" /><path id="199" transform="matrix(1 0 0 -1 0 842)" d="M148.6875 467.8027L149.1831 467.8027L149.1831 433.1084L148.6875 433.1084z" stroke="none" fill="#000000" fill-rule="nonzero" /><path id="200" transform="matrix(1 0 0 -1 0 842)" d="M223.0313 467.8027L223.5269 467.8027L223.5269 433.1084L223.0313 433.1084z" stroke="none" fill="#000000" fill-rule="nonzero" /><path id="201" transform="matrix(1 0 0 -1 0 842)" d="M223.0313 467.8027L273.0894 467.8027L273.0894 467.3066L223.0313 467.3066z" stroke="none" fill="#000000" fill-rule="nonzero" /><path id="202" transform="matrix(1 0 0 -1 0 842)" d="M223.0313 433.6045L273.0894 433.6045L273.0894 433.1084L223.0313 433.1084z" stroke="none" fill="#000000" fill-rule="nonzero" /><path id="203" transform="matrix(1 0 0 -1 0 842)" d="M223.0313 467.8027L223.5269 467.8027L223.5269 433.1084L223.0313 433.1084z" stroke="none" fill="#000000" fill-rule="nonzero" /><path id="204" transform="matrix(1 0 0 -1 0 842)" d="M272.5938 467.8027L273.0894 467.8027L273.0894 433.1084L272.5938 433.1084z" stroke="none" fill="#000000" fill-rule="nonzero" /><path id="205" transform="matrix(1 0 0 -1 0 842)" d="M272.5938 467.8027L421.7769 467.8027L421.7769 467.3066L272.5938 467.3066z" stroke="none" fill="#000000" fill-rule="nonzero" /><path id="206" transform="matrix(1 0 0 -1 0 842)" d="M272.5938 433.6045L421.7769 433.6045L421.7769 433.1084L272.5938 433.1084z" stroke="none" fill="#000000" fill-rule="nonzero" /><path id="207" transform="matrix(1 0 0 -1 0 842)" d="M272.5938 467.8027L273.0894 467.8027L273.0894 433.1084L272.5938 433.1084z" stroke="none" fill="#000000" fill-rule="nonzero" /><path id="208" transform="matrix(1 0 0 -1 0 842)" d="M421.2813 467.8027L421.7769 467.8027L421.7769 433.1084L421.2813 433.1084z" stroke="none" fill="#000000" fill-rule="nonzero" /><path id="209" transform="matrix(1 0 0 -1 0 842)" d="M421.2813 467.8027L471.3394 467.8027L471.3394 467.3066L421.2813 467.3066z" stroke="none" fill="#000000" fill-rule="nonzero" /><path id="210" transform="matrix(1 0 0 -1 0 842)" d="M421.2813 433.6045L471.3394 433.6045L471.3394 433.1084L421.2813 433.1084z" stroke="none" fill="#000000" fill-rule="nonzero" /><path id="211" transform="matrix(1 0 0 -1 0 842)" d="M421.2813 467.8027L421.7769 467.8027L421.7769 433.1084L421.2813 433.1084z" stroke="none" fill="#000000" fill-rule="nonzero" /><path id="212" transform="matrix(1 0 0 -1 0 842)" d="M470.8438 467.8027L471.3394 467.8027L471.3394 433.1084L470.8438 433.1084z" stroke="none" fill="#000000" fill-rule="nonzero" /><path id="213" transform="matrix(1 0 0 -1 0 842)" d="M49.5625 433.6045L74.83938 433.6045L74.83938 433.1084L49.5625 433.1084z" stroke="none" fill="#000000" fill-rule="nonzero" /><path id="214" transform="matrix(1 0 0 -1 0 842)" d="M49.5625 365.208L74.83938 365.208L74.83938 364.7129L49.5625 364.7129z" stroke="none" fill="#000000" fill-rule="nonzero" /><path id="215" transform="matrix(1 0 0 -1 0 842)" d="M49.5625 433.6045L50.05813 433.6045L50.05813 364.7129L49.5625 364.7129z" stroke="none" fill="#000000" fill-rule="nonzero" /><path id="216" transform="matrix(1 0 0 -1 0 842)" d="M74.34375 433.6045L74.83938 433.6045L74.83938 364.7129L74.34375 364.7129z" stroke="none" fill="#000000" fill-rule="nonzero" /><path id="217" transform="matrix(1 0 0 -1 0 842)" d="M74.34375 433.6045L149.1831 433.6045L149.1831 433.1084L74.34375 433.1084z" stroke="none" fill="#000000" fill-rule="nonzero" /><path id="218" transform="matrix(1 0 0 -1 0 842)" d="M74.34375 365.208L149.1831 365.208L149.1831 364.7129L74.34375 364.7129z" stroke="none" fill="#000000" fill-rule="nonzero" /><path id="219" transform="matrix(1 0 0 -1 0 842)" d="M74.34375 433.6045L74.83938 433.6045L74.83938 364.7129L74.34375 364.7129z" stroke="none" fill="#000000" fill-rule="nonzero" /><path id="220" transform="matrix(1 0 0 -1 0 842)" d="M148.6875 433.6045L149.1831 433.6045L149.1831 364.7129L148.6875 364.7129z" stroke="none" fill="#000000" fill-rule="nonzero" /><path id="221" transform="matrix(1 0 0 -1 0 842)" d="M148.6875 433.6045L223.5269 433.6045L223.5269 433.1084L148.6875 433.1084z" stroke="none" fill="#000000" fill-rule="nonzero" /><path id="222" transform="matrix(1 0 0 -1 0 842)" d="M148.6875 399.4063L223.5269 399.4063L223.5269 398.9102L148.6875 398.9102z" stroke="none" fill="#000000" fill-rule="nonzero" /><path id="223" transform="matrix(1 0 0 -1 0 842)" d="M148.6875 433.6045L149.1831 433.6045L149.1831 398.9102L148.6875 398.9102z" stroke="none" fill="#000000" fill-rule="nonzero" /><path id="224" transform="matrix(1 0 0 -1 0 842)" d="M223.0313 433.6045L223.5269 433.6045L223.5269 398.9102L223.0313 398.9102z" stroke="none" fill="#000000" fill-rule="nonzero" /><path id="225" transform="matrix(1 0 0 -1 0 842)" d="M223.0313 433.6045L273.0894 433.6045L273.0894 433.1084L223.0313 433.1084z" stroke="none" fill="#000000" fill-rule="nonzero" /><path id="226" transform="matrix(1 0 0 -1 0 842)" d="M223.0313 399.4063L273.0894 399.4063L273.0894 398.9102L223.0313 398.9102z" stroke="none" fill="#000000" fill-rule="nonzero" /><path id="227" transform="matrix(1 0 0 -1 0 842)" d="M223.0313 433.6045L223.5269 433.6045L223.5269 398.9102L223.0313 398.9102z" stroke="none" fill="#000000" fill-rule="nonzero" /><path id="228" transform="matrix(1 0 0 -1 0 842)" d="M272.5938 433.6045L273.0894 433.6045L273.0894 398.9102L272.5938 398.9102z" stroke="none" fill="#000000" fill-rule="nonzero" /><path id="229" transform="matrix(1 0 0 -1 0 842)" d="M272.5938 433.6045L421.7769 433.6045L421.7769 433.1084L272.5938 433.1084z" stroke="none" fill="#000000" fill-rule="nonzero" /><path id="230" transform="matrix(1 0 0 -1 0 842)" d="M272.5938 399.4063L421.7769 399.4063L421.7769 398.9102L272.5938 398.9102z" stroke="none" fill="#000000" fill-rule="nonzero" /><path id="231" transform="matrix(1 0 0 -1 0 842)" d="M272.5938 433.6045L273.0894 433.6045L273.0894 398.9102L272.5938 398.9102z" stroke="none" fill="#000000" fill-rule="nonzero" /><path id="232" transform="matrix(1 0 0 -1 0 842)" d="M421.2813 433.6045L421.7769 433.6045L421.7769 398.9102L421.2813 398.9102z" stroke="none" fill="#000000" fill-rule="nonzero" /><path id="233" transform="matrix(1 0 0 -1 0 842)" d="M421.2813 433.6045L471.3394 433.6045L471.3394 433.1084L421.2813 433.1084z" stroke="none" fill="#000000" fill-rule="nonzero" /><path id="234" transform="matrix(1 0 0 -1 0 842)" d="M421.2813 399.4063L471.3394 399.4063L471.3394 398.9102L421.2813 398.9102z" stroke="none" fill="#000000" fill-rule="nonzero" /><path id="235" transform="matrix(1 0 0 -1 0 842)" d="M421.2813 433.6045L421.7769 433.6045L421.7769 398.9102L421.2813 398.9102z" stroke="none" fill="#000000" fill-rule="nonzero" /><path id="236" transform="matrix(1 0 0 -1 0 842)" d="M470.8438 433.6045L471.3394 433.6045L471.3394 398.9102L470.8438 398.9102z" stroke="none" fill="#000000" fill-rule="nonzero" /><path id="237" transform="matrix(1 0 0 -1 0 842)" d="M470.8438 433.6045L545.1875 433.6045L545.1875 433.1084L470.8438 433.1084z" stroke="none" fill="#000000" fill-rule="nonzero" /><path id="238" transform="matrix(1 0 0 -1 0 842)" d="M470.8438 365.208L545.1875 365.208L545.1875 364.7129L470.8438 364.7129z" stroke="none" fill="#000000" fill-rule="nonzero" /><path id="239" transform="matrix(1 0 0 -1 0 842)" d="M470.8438 433.6045L471.3394 433.6045L471.3394 364.7129L470.8438 364.7129z" stroke="none" fill="#000000" fill-rule="nonzero" /><path id="240" transform="matrix(1 0 0 -1 0 842)" d="M544.6919 433.6045L545.1875 433.6045L545.1875 364.7129L544.6919 364.7129z" stroke="none" fill="#000000" fill-rule="nonzero" /><path id="241" transform="matrix(1 0 0 -1 0 842)" d="M148.6875 399.4063L223.5269 399.4063L223.5269 398.9102L148.6875 398.9102z" stroke="none" fill="#000000" fill-rule="nonzero" /><path id="242" transform="matrix(1 0 0 -1 0 842)" d="M148.6875 365.208L223.5269 365.208L223.5269 364.7129L148.6875 364.7129z" stroke="none" fill="#000000" fill-rule="nonzero" /><path id="243" transform="matrix(1 0 0 -1 0 842)" d="M148.6875 399.4063L149.1831 399.4063L149.1831 364.7129L148.6875 364.7129z" stroke="none" fill="#000000" fill-rule="nonzero" /><path id="244" transform="matrix(1 0 0 -1 0 842)" d="M223.0313 399.4063L223.5269 399.4063L223.5269 364.7129L223.0313 364.7129z" stroke="none" fill="#000000" fill-rule="nonzero" /><path id="245" transform="matrix(1 0 0 -1 0 842)" d="M223.0313 399.4063L273.0894 399.4063L273.0894 398.9102L223.0313 398.9102z" stroke="none" fill="#000000" fill-rule="nonzero" /><path id="246" transform="matrix(1 0 0 -1 0 842)" d="M223.0313 365.208L273.0894 365.208L273.0894 364.7129L223.0313 364.7129z" stroke="none" fill="#000000" fill-rule="nonzero" /><path id="247" transform="matrix(1 0 0 -1 0 842)" d="M223.0313 399.4063L223.5269 399.4063L223.5269 364.7129L223.0313 364.7129z" stroke="none" fill="#000000" fill-rule="nonzero" /><path id="248" transform="matrix(1 0 0 -1 0 842)" d="M272.5938 399.4063L273.0894 399.4063L273.0894 364.7129L272.5938 364.7129z" stroke="none" fill="#000000" fill-rule="nonzero" /><path id="249" transform="matrix(1 0 0 -1 0 842)" d="M272.5938 399.4063L421.7769 399.4063L421.7769 398.9102L272.5938 398.9102z" stroke="none" fill="#000000" fill-rule="nonzero" /><path id="250" transform="matrix(1 0 0 -1 0 842)" d="M272.5938 365.208L421.7769 365.208L421.7769 364.7129L272.5938 364.7129z" stroke="none" fill="#000000" fill-rule="nonzero" /><path id="251" transform="matrix(1 0 0 -1 0 842)" d="M272.5938 399.4063L273.0894 399.4063L273.0894 364.7129L272.5938 364.7129z" stroke="none" fill="#000000" fill-rule="nonzero" /><path id="252" transform="matrix(1 0 0 -1 0 842)" d="M421.2813 399.4063L421.7769 399.4063L421.7769 364.7129L421.2813 364.7129z" stroke="none" fill="#000000" fill-rule="nonzero" /><path id="253" transform="matrix(1 0 0 -1 0 842)" d="M421.2813 399.4063L471.3394 399.4063L471.3394 398.9102L421.2813 398.9102z" stroke="none" fill="#000000" fill-rule="nonzero" /><path id="254" transform="matrix(1 0 0 -1 0 842)" d="M421.2813 365.208L471.3394 365.208L471.3394 364.7129L421.2813 364.7129z" stroke="none" fill="#000000" fill-rule="nonzero" /><path id="255" transform="matrix(1 0 0 -1 0 842)" d="M421.2813 399.4063L421.7769 399.4063L421.7769 364.7129L421.2813 364.7129z" stroke="none" fill="#000000" fill-rule="nonzero" /><path id="256" transform="matrix(1 0 0 -1 0 842)" d="M470.8438 399.4063L471.3394 399.4063L471.3394 364.7129L470.8438 364.7129z" stroke="none" fill="#000000" fill-rule="nonzero" /><path id="257" transform="matrix(1 0 0 -1 0 842)" d="M49.5625 365.208L74.83938 365.208L74.83938 364.7129L49.5625 364.7129z" stroke="none" fill="#000000" fill-rule="nonzero" /><path id="258" transform="matrix(1 0 0 -1 0 842)" d="M49.5625 296.8115L74.83938 296.8115L74.83938 296.3164L49.5625 296.3164z" stroke="none" fill="#000000" fill-rule="nonzero" /><path id="259" transform="matrix(1 0 0 -1 0 842)" d="M49.5625 365.208L50.05813 365.208L50.05813 296.3164L49.5625 296.3164z" stroke="none" fill="#000000" fill-rule="nonzero" /><path id="260" transform="matrix(1 0 0 -1 0 842)" d="M74.34375 365.208L74.83938 365.208L74.83938 296.3164L74.34375 296.3164z" stroke="none" fill="#000000" fill-rule="nonzero" /><path id="261" transform="matrix(1 0 0 -1 0 842)" d="M74.34375 365.208L149.1831 365.208L149.1831 364.7129L74.34375 364.7129z" stroke="none" fill="#000000" fill-rule="nonzero" /><path id="262" transform="matrix(1 0 0 -1 0 842)" d="M74.34375 296.8115L149.1831 296.8115L149.1831 296.3164L74.34375 296.3164z" stroke="none" fill="#000000" fill-rule="nonzero" /><path id="263" transform="matrix(1 0 0 -1 0 842)" d="M74.34375 365.208L74.83938 365.208L74.83938 296.3164L74.34375 296.3164z" stroke="none" fill="#000000" fill-rule="nonzero" /><path id="264" transform="matrix(1 0 0 -1 0 842)" d="M148.6875 365.208L149.1831 365.208L149.1831 296.3164L148.6875 296.3164z" stroke="none" fill="#000000" fill-rule="nonzero" /><path id="265" transform="matrix(1 0 0 -1 0 842)" d="M148.6875 365.208L223.5269 365.208L223.5269 364.7129L148.6875 364.7129z" stroke="none" fill="#000000" fill-rule="nonzero" /><path id="266" transform="matrix(1 0 0 -1 0 842)" d="M148.6875 331.0098L223.5269 331.0098L223.5269 330.5146L148.6875 330.5146z" stroke="none" fill="#000000" fill-rule="nonzero" /><path id="267" transform="matrix(1 0 0 -1 0 842)" d="M148.6875 365.208L149.1831 365.208L149.1831 330.5146L148.6875 330.5146z" stroke="none" fill="#000000" fill-rule="nonzero" /><path id="268" transform="matrix(1 0 0 -1 0 842)" d="M223.0313 365.208L223.5269 365.208L223.5269 330.5146L223.0313 330.5146z" stroke="none" fill="#000000" fill-rule="nonzero" /><path id="269" transform="matrix(1 0 0 -1 0 842)" d="M223.0313 365.208L273.0894 365.208L273.0894 364.7129L223.0313 364.7129z" stroke="none" fill="#000000" fill-rule="nonzero" /><path id="270" transform="matrix(1 0 0 -1 0 842)" d="M223.0313 331.0098L273.0894 331.0098L273.0894 330.5146L223.0313 330.5146z" stroke="none" fill="#000000" fill-rule="nonzero" /><path id="271" transform="matrix(1 0 0 -1 0 842)" d="M223.0313 365.208L223.5269 365.208L223.5269 330.5146L223.0313 330.5146z" stroke="none" fill="#000000" fill-rule="nonzero" /><path id="272" transform="matrix(1 0 0 -1 0 842)" d="M272.5938 365.208L273.0894 365.208L273.0894 330.5146L272.5938 330.5146z" stroke="none" fill="#000000" fill-rule="nonzero" /><path id="273" transform="matrix(1 0 0 -1 0 842)" d="M272.5938 365.208L421.7769 365.208L421.7769 364.7129L272.5938 364.7129z" stroke="none" fill="#000000" fill-rule="nonzero" /><path id="274" transform="matrix(1 0 0 -1 0 842)" d="M272.5938 331.0098L421.7769 331.0098L421.7769 330.5146L272.5938 330.5146z" stroke="none" fill="#000000" fill-rule="nonzero" /><path id="275" transform="matrix(1 0 0 -1 0 842)" d="M272.5938 365.208L273.0894 365.208L273.0894 330.5146L272.5938 330.5146z" stroke="none" fill="#000000" fill-rule="nonzero" /><path id="276" transform="matrix(1 0 0 -1 0 842)" d="M421.2813 365.208L421.7769 365.208L421.7769 330.5146L421.2813 330.5146z" stroke="none" fill="#000000" fill-rule="nonzero" /><path id="277" transform="matrix(1 0 0 -1 0 842)" d="M421.2813 365.208L471.3394 365.208L471.3394 364.7129L421.2813 364.7129z" stroke="none" fill="#000000" fill-rule="nonzero" /><path id="278" transform="matrix(1 0 0 -1 0 842)" d="M421.2813 331.0098L471.3394 331.0098L471.3394 330.5146L421.2813 330.5146z" stroke="none" fill="#000000" fill-rule="nonzero" /><path id="279" transform="matrix(1 0 0 -1 0 842)" d="M421.2813 365.208L421.7769 365.208L421.7769 330.5146L421.2813 330.5146z" stroke="none" fill="#000000" fill-rule="nonzero" /><path id="280" transform="matrix(1 0 0 -1 0 842)" d="M470.8438 365.208L471.3394 365.208L471.3394 330.5146L470.8438 330.5146z" stroke="none" fill="#000000" fill-rule="nonzero" /><path id="281" transform="matrix(1 0 0 -1 0 842)" d="M470.8438 365.208L545.1875 365.208L545.1875 364.7129L470.8438 364.7129z" stroke="none" fill="#000000" fill-rule="nonzero" /><path id="282" transform="matrix(1 0 0 -1 0 842)" d="M470.8438 296.8115L545.1875 296.8115L545.1875 296.3164L470.8438 296.3164z" stroke="none" fill="#000000" fill-rule="nonzero" /><path id="283" transform="matrix(1 0 0 -1 0 842)" d="M470.8438 365.208L471.3394 365.208L471.3394 296.3164L470.8438 296.3164z" stroke="none" fill="#000000" fill-rule="nonzero" /><path id="284" transform="matrix(1 0 0 -1 0 842)" d="M544.6919 365.208L545.1875 365.208L545.1875 296.3164L544.6919 296.3164z" stroke="none" fill="#000000" fill-rule="nonzero" /><path id="285" transform="matrix(1 0 0 -1 0 842)" d="M148.6875 331.0098L223.5269 331.0098L223.5269 330.5146L148.6875 330.5146z" stroke="none" fill="#000000" fill-rule="nonzero" /><path id="286" transform="matrix(1 0 0 -1 0 842)" d="M148.6875 296.8115L223.5269 296.8115L223.5269 296.3164L148.6875 296.3164z" stroke="none" fill="#000000" fill-rule="nonzero" /><path id="287" transform="matrix(1 0 0 -1 0 842)" d="M148.6875 331.0098L149.1831 331.0098L149.1831 296.3164L148.6875 296.3164z" stroke="none" fill="#000000" fill-rule="nonzero" /><path id="288" transform="matrix(1 0 0 -1 0 842)" d="M223.0313 331.0098L223.5269 331.0098L223.5269 296.3164L223.0313 296.3164z" stroke="none" fill="#000000" fill-rule="nonzero" /><path id="289" transform="matrix(1 0 0 -1 0 842)" d="M223.0313 331.0098L273.0894 331.0098L273.0894 330.5146L223.0313 330.5146z" stroke="none" fill="#000000" fill-rule="nonzero" /><path id="290" transform="matrix(1 0 0 -1 0 842)" d="M223.0313 296.8115L273.0894 296.8115L273.0894 296.3164L223.0313 296.3164z" stroke="none" fill="#000000" fill-rule="nonzero" /><path id="291" transform="matrix(1 0 0 -1 0 842)" d="M223.0313 331.0098L223.5269 331.0098L223.5269 296.3164L223.0313 296.3164z" stroke="none" fill="#000000" fill-rule="nonzero" /><path id="292" transform="matrix(1 0 0 -1 0 842)" d="M272.5938 331.0098L273.0894 331.0098L273.0894 296.3164L272.5938 296.3164z" stroke="none" fill="#000000" fill-rule="nonzero" /><path id="293" transform="matrix(1 0 0 -1 0 842)" d="M272.5938 331.0098L421.7769 331.0098L421.7769 330.5146L272.5938 330.5146z" stroke="none" fill="#000000" fill-rule="nonzero" /><path id="294" transform="matrix(1 0 0 -1 0 842)" d="M272.5938 296.8115L421.7769 296.8115L421.7769 296.3164L272.5938 296.3164z" stroke="none" fill="#000000" fill-rule="nonzero" /><path id="295" transform="matrix(1 0 0 -1 0 842)" d="M272.5938 331.0098L273.0894 331.0098L273.0894 296.3164L272.5938 296.3164z" stroke="none" fill="#000000" fill-rule="nonzero" /><path id="296" transform="matrix(1 0 0 -1 0 842)" d="M421.2813 331.0098L421.7769 331.0098L421.7769 296.3164L421.2813 296.3164z" stroke="none" fill="#000000" fill-rule="nonzero" /><path id="297" transform="matrix(1 0 0 -1 0 842)" d="M421.2813 331.0098L471.3394 331.0098L471.3394 330.5146L421.2813 330.5146z" stroke="none" fill="#000000" fill-rule="nonzero" /><path id="298" transform="matrix(1 0 0 -1 0 842)" d="M421.2813 296.8115L471.3394 296.8115L471.3394 296.3164L421.2813 296.3164z" stroke="none" fill="#000000" fill-rule="nonzero" /><path id="299" transform="matrix(1 0 0 -1 0 842)" d="M421.2813 331.0098L421.7769 331.0098L421.7769 296.3164L421.2813 296.3164z" stroke="none" fill="#000000" fill-rule="nonzero" /><path id="300" transform="matrix(1 0 0 -1 0 842)" d="M470.8438 331.0098L471.3394 331.0098L471.3394 296.3164L470.8438 296.3164z" stroke="none" fill="#000000" fill-rule="nonzero" /><path id="301" transform="matrix(1 0 0 -1 0 842)" d="M49.5625 296.8115L74.83938 296.8115L74.83938 296.3164L49.5625 296.3164z" stroke="none" fill="#000000" fill-rule="nonzero" /><path id="302" transform="matrix(1 0 0 -1 0 842)" d="M49.5625 228.416L74.83938 228.416L74.83938 227.9199L49.5625 227.9199z" stroke="none" fill="#000000" fill-rule="nonzero" /><path id="303" transform="matrix(1 0 0 -1 0 842)" d="M49.5625 296.8115L50.05813 296.8115L50.05813 227.9199L49.5625 227.9199z" stroke="none" fill="#000000" fill-rule="nonzero" /><path id="304" transform="matrix(1 0 0 -1 0 842)" d="M74.34375 296.8115L74.83938 296.8115L74.83938 227.9199L74.34375 227.9199z" stroke="none" fill="#000000" fill-rule="nonzero" /><path id="305" transform="matrix(1 0 0 -1 0 842)" d="M74.34375 296.8115L149.1831 296.8115L149.1831 296.3164L74.34375 296.3164z" stroke="none" fill="#000000" fill-rule="nonzero" /><path id="306" transform="matrix(1 0 0 -1 0 842)" d="M74.34375 228.416L149.1831 228.416L149.1831 227.9199L74.34375 227.9199z" stroke="none" fill="#000000" fill-rule="nonzero" /><path id="307" transform="matrix(1 0 0 -1 0 842)" d="M74.34375 296.8115L74.83938 296.8115L74.83938 227.9199L74.34375 227.9199z" stroke="none" fill="#000000" fill-rule="nonzero" /><path id="308" transform="matrix(1 0 0 -1 0 842)" d="M148.6875 296.8115L149.1831 296.8115L149.1831 227.9199L148.6875 227.9199z" stroke="none" fill="#000000" fill-rule="nonzero" /><path id="309" transform="matrix(1 0 0 -1 0 842)" d="M148.6875 296.8115L223.5269 296.8115L223.5269 296.3164L148.6875 296.3164z" stroke="none" fill="#000000" fill-rule="nonzero" /><path id="310" transform="matrix(1 0 0 -1 0 842)" d="M148.6875 262.6133L223.5269 262.6133L223.5269 262.1182L148.6875 262.1182z" stroke="none" fill="#000000" fill-rule="nonzero" /><path id="311" transform="matrix(1 0 0 -1 0 842)" d="M148.6875 296.8115L149.1831 296.8115L149.1831 262.1182L148.6875 262.1182z" stroke="none" fill="#000000" fill-rule="nonzero" /><path id="312" transform="matrix(1 0 0 -1 0 842)" d="M223.0313 296.8115L223.5269 296.8115L223.5269 262.1182L223.0313 262.1182z" stroke="none" fill="#000000" fill-rule="nonzero" /><path id="313" transform="matrix(1 0 0 -1 0 842)" d="M223.0313 296.8115L273.0894 296.8115L273.0894 296.3164L223.0313 296.3164z" stroke="none" fill="#000000" fill-rule="nonzero" /><path id="314" transform="matrix(1 0 0 -1 0 842)" d="M223.0313 262.6133L273.0894 262.6133L273.0894 262.1182L223.0313 262.1182z" stroke="none" fill="#000000" fill-rule="nonzero" /><path id="315" transform="matrix(1 0 0 -1 0 842)" d="M223.0313 296.8115L223.5269 296.8115L223.5269 262.1182L223.0313 262.1182z" stroke="none" fill="#000000" fill-rule="nonzero" /><path id="316" transform="matrix(1 0 0 -1 0 842)" d="M272.5938 296.8115L273.0894 296.8115L273.0894 262.1182L272.5938 262.1182z" stroke="none" fill="#000000" fill-rule="nonzero" /><path id="317" transform="matrix(1 0 0 -1 0 842)" d="M272.5938 296.8115L421.7769 296.8115L421.7769 296.3164L272.5938 296.3164z" stroke="none" fill="#000000" fill-rule="nonzero" /><path id="318" transform="matrix(1 0 0 -1 0 842)" d="M272.5938 262.6133L421.7769 262.6133L421.7769 262.1182L272.5938 262.1182z" stroke="none" fill="#000000" fill-rule="nonzero" /><path id="319" transform="matrix(1 0 0 -1 0 842)" d="M272.5938 296.8115L273.0894 296.8115L273.0894 262.1182L272.5938 262.1182z" stroke="none" fill="#000000" fill-rule="nonzero" /><path id="320" transform="matrix(1 0 0 -1 0 842)" d="M421.2813 296.8115L421.7769 296.8115L421.7769 262.1182L421.2813 262.1182z" stroke="none" fill="#000000" fill-rule="nonzero" /><path id="321" transform="matrix(1 0 0 -1 0 842)" d="M421.2813 296.8115L471.3394 296.8115L471.3394 296.3164L421.2813 296.3164z" stroke="none" fill="#000000" fill-rule="nonzero" /><path id="322" transform="matrix(1 0 0 -1 0 842)" d="M421.2813 262.6133L471.3394 262.6133L471.3394 262.1182L421.2813 262.1182z" stroke="none" fill="#000000" fill-rule="nonzero" /><path id="323" transform="matrix(1 0 0 -1 0 842)" d="M421.2813 296.8115L421.7769 296.8115L421.7769 262.1182L421.2813 262.1182z" stroke="none" fill="#000000" fill-rule="nonzero" /><path id="324" transform="matrix(1 0 0 -1 0 842)" d="M470.8438 296.8115L471.3394 296.8115L471.3394 262.1182L470.8438 262.1182z" stroke="none" fill="#000000" fill-rule="nonzero" /><path id="325" transform="matrix(1 0 0 -1 0 842)" d="M470.8438 296.8115L545.1875 296.8115L545.1875 296.3164L470.8438 296.3164z" stroke="none" fill="#000000" fill-rule="nonzero" /><path id="326" transform="matrix(1 0 0 -1 0 842)" d="M470.8438 228.416L545.1875 228.416L545.1875 227.9199L470.8438 227.9199z" stroke="none" fill="#000000" fill-rule="nonzero" /><path id="327" transform="matrix(1 0 0 -1 0 842)" d="M470.8438 296.8115L471.3394 296.8115L471.3394 227.9199L470.8438 227.9199z" stroke="none" fill="#000000" fill-rule="nonzero" /><path id="328" transform="matrix(1 0 0 -1 0 842)" d="M544.6919 296.8115L545.1875 296.8115L545.1875 227.9199L544.6919 227.9199z" stroke="none" fill="#000000" fill-rule="nonzero" /><path id="329" transform="matrix(1 0 0 -1 0 842)" d="M148.6875 262.6133L223.5269 262.6133L223.5269 262.1182L148.6875 262.1182z" stroke="none" fill="#000000" fill-rule="nonzero" /><path id="330" transform="matrix(1 0 0 -1 0 842)" d="M148.6875 228.416L223.5269 228.416L223.5269 227.9199L148.6875 227.9199z" stroke="none" fill="#000000" fill-rule="nonzero" /><path id="331" transform="matrix(1 0 0 -1 0 842)" d="M148.6875 262.6133L149.1831 262.6133L149.1831 227.9199L148.6875 227.9199z" stroke="none" fill="#000000" fill-rule="nonzero" /><path id="332" transform="matrix(1 0 0 -1 0 842)" d="M223.0313 262.6133L223.5269 262.6133L223.5269 227.9199L223.0313 227.9199z" stroke="none" fill="#000000" fill-rule="nonzero" /><path id="333" transform="matrix(1 0 0 -1 0 842)" d="M223.0313 262.6133L273.0894 262.6133L273.0894 262.1182L223.0313 262.1182z" stroke="none" fill="#000000" fill-rule="nonzero" /><path id="334" transform="matrix(1 0 0 -1 0 842)" d="M223.0313 228.416L273.0894 228.416L273.0894 227.9199L223.0313 227.9199z" stroke="none" fill="#000000" fill-rule="nonzero" /><path id="335" transform="matrix(1 0 0 -1 0 842)" d="M223.0313 262.6133L223.5269 262.6133L223.5269 227.9199L223.0313 227.9199z" stroke="none" fill="#000000" fill-rule="nonzero" /><path id="336" transform="matrix(1 0 0 -1 0 842)" d="M272.5938 262.6133L273.0894 262.6133L273.0894 227.9199L272.5938 227.9199z" stroke="none" fill="#000000" fill-rule="nonzero" /><path id="337" transform="matrix(1 0 0 -1 0 842)" d="M272.5938 262.6133L421.7769 262.6133L421.7769 262.1182L272.5938 262.1182z" stroke="none" fill="#000000" fill-rule="nonzero" /><path id="338" transform="matrix(1 0 0 -1 0 842)" d="M272.5938 228.416L421.7769 228.416L421.7769 227.9199L272.5938 227.9199z" stroke="none" fill="#000000" fill-rule="nonzero" /><path id="339" transform="matrix(1 0 0 -1 0 842)" d="M272.5938 262.6133L273.0894 262.6133L273.0894 227.9199L272.5938 227.9199z" stroke="none" fill="#000000" fill-rule="nonzero" /><path id="340" transform="matrix(1 0 0 -1 0 842)" d="M421.2813 262.6133L421.7769 262.6133L421.7769 227.9199L421.2813 227.9199z" stroke="none" fill="#000000" fill-rule="nonzero" /><path id="341" transform="matrix(1 0 0 -1 0 842)" d="M421.2813 262.6133L471.3394 262.6133L471.3394 262.1182L421.2813 262.1182z" stroke="none" fill="#000000" fill-rule="nonzero" /><path id="342" transform="matrix(1 0 0 -1 0 842)" d="M421.2813 228.416L471.3394 228.416L471.3394 227.9199L421.2813 227.9199z" stroke="none" fill="#000000" fill-rule="nonzero" /><path id="343" transform="matrix(1 0 0 -1 0 842)" d="M421.2813 262.6133L421.7769 262.6133L421.7769 227.9199L421.2813 227.9199z" stroke="none" fill="#000000" fill-rule="nonzero" /><path id="344" transform="matrix(1 0 0 -1 0 842)" d="M470.8438 262.6133L471.3394 262.6133L471.3394 227.9199L470.8438 227.9199z" stroke="none" fill="#000000" fill-rule="nonzero" /><path id="345" transform="matrix(1 0 0 -1 0 842)" d="M49.5625 228.416L74.83938 228.416L74.83938 227.9199L49.5625 227.9199z" stroke="none" fill="#000000" fill-rule="nonzero" /><path id="346" transform="matrix(1 0 0 -1 0 842)" d="M49.5625 160.0195L74.83938 160.0195L74.83938 159.5234L49.5625 159.5234z" stroke="none" fill="#000000" fill-rule="nonzero" /><path id="347" transform="matrix(1 0 0 -1 0 842)" d="M49.5625 228.416L50.05813 228.416L50.05813 159.5234L49.5625 159.5234z" stroke="none" fill="#000000" fill-rule="nonzero" /><path id="348" transform="matrix(1 0 0 -1 0 842)" d="M74.34375 228.416L74.83938 228.416L74.83938 159.5234L74.34375 159.5234z" stroke="none" fill="#000000" fill-rule="nonzero" /><path id="349" transform="matrix(1 0 0 -1 0 842)" d="M74.34375 228.416L149.1831 228.416L149.1831 227.9199L74.34375 227.9199z" stroke="none" fill="#000000" fill-rule="nonzero" /><path id="350" transform="matrix(1 0 0 -1 0 842)" d="M74.34375 160.0195L149.1831 160.0195L149.1831 159.5234L74.34375 159.5234z" stroke="none" fill="#000000" fill-rule="nonzero" /><path id="351" transform="matrix(1 0 0 -1 0 842)" d="M74.34375 228.416L74.83938 228.416L74.83938 159.5234L74.34375 159.5234z" stroke="none" fill="#000000" fill-rule="nonzero" /><path id="352" transform="matrix(1 0 0 -1 0 842)" d="M148.6875 228.416L149.1831 228.416L149.1831 159.5234L148.6875 159.5234z" stroke="none" fill="#000000" fill-rule="nonzero" /><path id="353" transform="matrix(1 0 0 -1 0 842)" d="M148.6875 228.416L223.5269 228.416L223.5269 227.9199L148.6875 227.9199z" stroke="none" fill="#000000" fill-rule="nonzero" /><path id="354" transform="matrix(1 0 0 -1 0 842)" d="M148.6875 194.2178L223.5269 194.2178L223.5269 193.7217L148.6875 193.7217z" stroke="none" fill="#000000" fill-rule="nonzero" /><path id="355" transform="matrix(1 0 0 -1 0 842)" d="M148.6875 228.416L149.1831 228.416L149.1831 193.7217L148.6875 193.7217z" stroke="none" fill="#000000" fill-rule="nonzero" /><path id="356" transform="matrix(1 0 0 -1 0 842)" d="M223.0313 228.416L223.5269 228.416L223.5269 193.7217L223.0313 193.7217z" stroke="none" fill="#000000" fill-rule="nonzero" /><path id="357" transform="matrix(1 0 0 -1 0 842)" d="M223.0313 228.416L273.0894 228.416L273.0894 227.9199L223.0313 227.9199z" stroke="none" fill="#000000" fill-rule="nonzero" /><path id="358" transform="matrix(1 0 0 -1 0 842)" d="M223.0313 194.2178L273.0894 194.2178L273.0894 193.7217L223.0313 193.7217z" stroke="none" fill="#000000" fill-rule="nonzero" /><path id="359" transform="matrix(1 0 0 -1 0 842)" d="M223.0313 228.416L223.5269 228.416L223.5269 193.7217L223.0313 193.7217z" stroke="none" fill="#000000" fill-rule="nonzero" /><path id="360" transform="matrix(1 0 0 -1 0 842)" d="M272.5938 228.416L273.0894 228.416L273.0894 193.7217L272.5938 193.7217z" stroke="none" fill="#000000" fill-rule="nonzero" /><path id="361" transform="matrix(1 0 0 -1 0 842)" d="M272.5938 228.416L421.7769 228.416L421.7769 227.9199L272.5938 227.9199z" stroke="none" fill="#000000" fill-rule="nonzero" /><path id="362" transform="matrix(1 0 0 -1 0 842)" d="M272.5938 194.2178L421.7769 194.2178L421.7769 193.7217L272.5938 193.7217z" stroke="none" fill="#000000" fill-rule="nonzero" /><path id="363" transform="matrix(1 0 0 -1 0 842)" d="M272.5938 228.416L273.0894 228.416L273.0894 193.7217L272.5938 193.7217z" stroke="none" fill="#000000" fill-rule="nonzero" /><path id="364" transform="matrix(1 0 0 -1 0 842)" d="M421.2813 228.416L421.7769 228.416L421.7769 193.7217L421.2813 193.7217z" stroke="none" fill="#000000" fill-rule="nonzero" /><path id="365" transform="matrix(1 0 0 -1 0 842)" d="M421.2813 228.416L471.3394 228.416L471.3394 227.9199L421.2813 227.9199z" stroke="none" fill="#000000" fill-rule="nonzero" /><path id="366" transform="matrix(1 0 0 -1 0 842)" d="M421.2813 194.2178L471.3394 194.2178L471.3394 193.7217L421.2813 193.7217z" stroke="none" fill="#000000" fill-rule="nonzero" /><path id="367" transform="matrix(1 0 0 -1 0 842)" d="M421.2813 228.416L421.7769 228.416L421.7769 193.7217L421.2813 193.7217z" stroke="none" fill="#000000" fill-rule="nonzero" /><path id="368" transform="matrix(1 0 0 -1 0 842)" d="M470.8438 228.416L471.3394 228.416L471.3394 193.7217L470.8438 193.7217z" stroke="none" fill="#000000" fill-rule="nonzero" /><path id="369" transform="matrix(1 0 0 -1 0 842)" d="M470.8438 228.416L545.1875 228.416L545.1875 227.9199L470.8438 227.9199z" stroke="none" fill="#000000" fill-rule="nonzero" /><path id="370" transform="matrix(1 0 0 -1 0 842)" d="M470.8438 160.0195L545.1875 160.0195L545.1875 159.5234L470.8438 159.5234z" stroke="none" fill="#000000" fill-rule="nonzero" /><path id="371" transform="matrix(1 0 0 -1 0 842)" d="M470.8438 228.416L471.3394 228.416L471.3394 159.5234L470.8438 159.5234z" stroke="none" fill="#000000" fill-rule="nonzero" /><path id="372" transform="matrix(1 0 0 -1 0 842)" d="M544.6919 228.416L545.1875 228.416L545.1875 159.5234L544.6919 159.5234z" stroke="none" fill="#000000" fill-rule="nonzero" /><path id="373" transform="matrix(1 0 0 -1 0 842)" d="M148.6875 194.2178L223.5269 194.2178L223.5269 193.7217L148.6875 193.7217z" stroke="none" fill="#000000" fill-rule="nonzero" /><path id="374" transform="matrix(1 0 0 -1 0 842)" d="M148.6875 160.0195L223.5269 160.0195L223.5269 159.5234L148.6875 159.5234z" stroke="none" fill="#000000" fill-rule="nonzero" /><path id="375" transform="matrix(1 0 0 -1 0 842)" d="M148.6875 194.2178L149.1831 194.2178L149.1831 159.5234L148.6875 159.5234z" stroke="none" fill="#000000" fill-rule="nonzero" /><path id="376" transform="matrix(1 0 0 -1 0 842)" d="M223.0313 194.2178L223.5269 194.2178L223.5269 159.5234L223.0313 159.5234z" stroke="none" fill="#000000" fill-rule="nonzero" /><path id="377" transform="matrix(1 0 0 -1 0 842)" d="M223.0313 194.2178L273.0894 194.2178L273.0894 193.7217L223.0313 193.7217z" stroke="none" fill="#000000" fill-rule="nonzero" /><path id="378" transform="matrix(1 0 0 -1 0 842)" d="M223.0313 160.0195L273.0894 160.0195L273.0894 159.5234L223.0313 159.5234z" stroke="none" fill="#000000" fill-rule="nonzero" /><path id="379" transform="matrix(1 0 0 -1 0 842)" d="M223.0313 194.2178L223.5269 194.2178L223.5269 159.5234L223.0313 159.5234z" stroke="none" fill="#000000" fill-rule="nonzero" /><path id="380" transform="matrix(1 0 0 -1 0 842)" d="M272.5938 194.2178L273.0894 194.2178L273.0894 159.5234L272.5938 159.5234z" stroke="none" fill="#000000" fill-rule="nonzero" /><path id="381" transform="matrix(1 0 0 -1 0 842)" d="M272.5938 194.2178L421.7769 194.2178L421.7769 193.7217L272.5938 193.7217z" stroke="none" fill="#000000" fill-rule="nonzero" /><path id="382" transform="matrix(1 0 0 -1 0 842)" d="M272.5938 160.0195L421.7769 160.0195L421.7769 159.5234L272.5938 159.5234z" stroke="none" fill="#000000" fill-rule="nonzero" /><path id="383" transform="matrix(1 0 0 -1 0 842)" d="M272.5938 194.2178L273.0894 194.2178L273.0894 159.5234L272.5938 159.5234z" stroke="none" fill="#000000" fill-rule="nonzero" /><path id="384" transform="matrix(1 0 0 -1 0 842)" d="M421.2813 194.2178L421.7769 194.2178L421.7769 159.5234L421.2813 159.5234z" stroke="none" fill="#000000" fill-rule="nonzero" /><path id="385" transform="matrix(1 0 0 -1 0 842)" d="M421.2813 194.2178L471.3394 194.2178L471.3394 193.7217L421.2813 193.7217z" stroke="none" fill="#000000" fill-rule="nonzero" /><path id="386" transform="matrix(1 0 0 -1 0 842)" d="M421.2813 160.0195L471.3394 160.0195L471.3394 159.5234L421.2813 159.5234z" stroke="none" fill="#000000" fill-rule="nonzero" /><path id="387" transform="matrix(1 0 0 -1 0 842)" d="M421.2813 194.2178L421.7769 194.2178L421.7769 159.5234L421.2813 159.5234z" stroke="none" fill="#000000" fill-rule="nonzero" /><path id="388" transform="matrix(1 0 0 -1 0 842)" d="M470.8438 194.2178L471.3394 194.2178L471.3394 159.5234L470.8438 159.5234z" stroke="none" fill="#000000" fill-rule="nonzero" /><path id="389" transform="matrix(1 0 0 -1 0 842)" d="M49.5625 160.0195L74.83938 160.0195L74.83938 159.5234L49.5625 159.5234z" stroke="none" fill="#000000" fill-rule="nonzero" /><path id="390" transform="matrix(1 0 0 -1 0 842)" d="M49.5625 84.18848L74.83938 84.18848L74.83938 83.69336L49.5625 83.69336z" stroke="none" fill="#000000" fill-rule="nonzero" /><path id="391" transform="matrix(1 0 0 -1 0 842)" d="M49.5625 160.0195L50.05813 160.0195L50.05813 83.69336L49.5625 83.69336z" stroke="none" fill="#000000" fill-rule="nonzero" /><path id="392" transform="matrix(1 0 0 -1 0 842)" d="M74.34375 160.0195L74.83938 160.0195L74.83938 83.69336L74.34375 83.69336z" stroke="none" fill="#000000" fill-rule="nonzero" /><path id="393" transform="matrix(1 0 0 -1 0 842)" d="M74.34375 160.0195L149.1831 160.0195L149.1831 159.5234L74.34375 159.5234z" stroke="none" fill="#000000" fill-rule="nonzero" /><path id="394" transform="matrix(1 0 0 -1 0 842)" d="M74.34375 84.18848L149.1831 84.18848L149.1831 83.69336L74.34375 83.69336z" stroke="none" fill="#000000" fill-rule="nonzero" /><path id="395" transform="matrix(1 0 0 -1 0 842)" d="M74.34375 160.0195L74.83938 160.0195L74.83938 83.69336L74.34375 83.69336z" stroke="none" fill="#000000" fill-rule="nonzero" /><path id="396" transform="matrix(1 0 0 -1 0 842)" d="M148.6875 160.0195L149.1831 160.0195L149.1831 83.69336L148.6875 83.69336z" stroke="none" fill="#000000" fill-rule="nonzero" /><path id="397" transform="matrix(1 0 0 -1 0 842)" d="M148.6875 160.0195L223.5269 160.0195L223.5269 159.5234L148.6875 159.5234z" stroke="none" fill="#000000" fill-rule="nonzero" /><path id="398" transform="matrix(1 0 0 -1 0 842)" d="M148.6875 118.3867L223.5269 118.3867L223.5269 117.8916L148.6875 117.8916z" stroke="none" fill="#000000" fill-rule="nonzero" /><path id="399" transform="matrix(1 0 0 -1 0 842)" d="M148.6875 160.0195L149.1831 160.0195L149.1831 117.8916L148.6875 117.8916z" stroke="none" fill="#000000" fill-rule="nonzero" /><path id="400" transform="matrix(1 0 0 -1 0 842)" d="M223.0313 160.0195L223.5269 160.0195L223.5269 117.8916L223.0313 117.8916z" stroke="none" fill="#000000" fill-rule="nonzero" /><path id="401" transform="matrix(1 0 0 -1 0 842)" d="M223.0313 160.0195L273.0894 160.0195L273.0894 159.5234L223.0313 159.5234z" stroke="none" fill="#000000" fill-rule="nonzero" /><path id="402" transform="matrix(1 0 0 -1 0 842)" d="M223.0313 118.3867L273.0894 118.3867L273.0894 117.8916L223.0313 117.8916z" stroke="none" fill="#000000" fill-rule="nonzero" /><path id="403" transform="matrix(1 0 0 -1 0 842)" d="M223.0313 160.0195L223.5269 160.0195L223.5269 117.8916L223.0313 117.8916z" stroke="none" fill="#000000" fill-rule="nonzero" /><path id="404" transform="matrix(1 0 0 -1 0 842)" d="M272.5938 160.0195L273.0894 160.0195L273.0894 117.8916L272.5938 117.8916z" stroke="none" fill="#000000" fill-rule="nonzero" /><path id="405" transform="matrix(1 0 0 -1 0 842)" d="M272.5938 160.0195L421.7769 160.0195L421.7769 159.5234L272.5938 159.5234z" stroke="none" fill="#000000" fill-rule="nonzero" /><path id="406" transform="matrix(1 0 0 -1 0 842)" d="M272.5938 118.3867L421.7769 118.3867L421.7769 117.8916L272.5938 117.8916z" stroke="none" fill="#000000" fill-rule="nonzero" /><path id="407" transform="matrix(1 0 0 -1 0 842)" d="M272.5938 160.0195L273.0894 160.0195L273.0894 117.8916L272.5938 117.8916z" stroke="none" fill="#000000" fill-rule="nonzero" /><path id="408" transform="matrix(1 0 0 -1 0 842)" d="M421.2813 160.0195L421.7769 160.0195L421.7769 117.8916L421.2813 117.8916z" stroke="none" fill="#000000" fill-rule="nonzero" /><path id="409" transform="matrix(1 0 0 -1 0 842)" d="M421.2813 160.0195L471.3394 160.0195L471.3394 159.5234L421.2813 159.5234z" stroke="none" fill="#000000" fill-rule="nonzero" /><path id="410" transform="matrix(1 0 0 -1 0 842)" d="M421.2813 118.3867L471.3394 118.3867L471.3394 117.8916L421.2813 117.8916z" stroke="none" fill="#000000" fill-rule="nonzero" /><path id="411" transform="matrix(1 0 0 -1 0 842)" d="M421.2813 160.0195L421.7769 160.0195L421.7769 117.8916L421.2813 117.8916z" stroke="none" fill="#000000" fill-rule="nonzero" /><path id="412" transform="matrix(1 0 0 -1 0 842)" d="M470.8438 160.0195L471.3394 160.0195L471.3394 117.8916L470.8438 117.8916z" stroke="none" fill="#000000" fill-rule="nonzero" /><path id="413" transform="matrix(1 0 0 -1 0 842)" d="M470.8438 160.0195L545.1875 160.0195L545.1875 159.5234L470.8438 159.5234z" stroke="none" fill="#000000" fill-rule="nonzero" /><path id="414" transform="matrix(1 0 0 -1 0 842)" d="M470.8438 84.18848L545.1875 84.18848L545.1875 83.69336L470.8438 83.69336z" stroke="none" fill="#000000" fill-rule="nonzero" /><path id="415" transform="matrix(1 0 0 -1 0 842)" d="M470.8438 160.0195L471.3394 160.0195L471.3394 83.69336L470.8438 83.69336z" stroke="none" fill="#000000" fill-rule="nonzero" /><path id="416" transform="matrix(1 0 0 -1 0 842)" d="M544.6919 160.0195L545.1875 160.0195L545.1875 83.69336L544.6919 83.69336z" stroke="none" fill="#000000" fill-rule="nonzero" /><path id="417" transform="matrix(1 0 0 -1 0 842)" d="M148.6875 118.3867L223.5269 118.3867L223.5269 117.8916L148.6875 117.8916z" stroke="none" fill="#000000" fill-rule="nonzero" /><path id="418" transform="matrix(1 0 0 -1 0 842)" d="M148.6875 84.18848L223.5269 84.18848L223.5269 83.69336L148.6875 83.69336z" stroke="none" fill="#000000" fill-rule="nonzero" /><path id="419" transform="matrix(1 0 0 -1 0 842)" d="M148.6875 118.3867L149.1831 118.3867L149.1831 83.69336L148.6875 83.69336z" stroke="none" fill="#000000" fill-rule="nonzero" /><path id="420" transform="matrix(1 0 0 -1 0 842)" d="M223.0313 118.3867L223.5269 118.3867L223.5269 83.69336L223.0313 83.69336z" stroke="none" fill="#000000" fill-rule="nonzero" /><path id="421" transform="matrix(1 0 0 -1 0 842)" d="M223.0313 118.3867L273.0894 118.3867L273.0894 117.8916L223.0313 117.8916z" stroke="none" fill="#000000" fill-rule="nonzero" /><path id="422" transform="matrix(1 0 0 -1 0 842)" d="M223.0313 84.18848L273.0894 84.18848L273.0894 83.69336L223.0313 83.69336z" stroke="none" fill="#000000" fill-rule="nonzero" /><path id="423" transform="matrix(1 0 0 -1 0 842)" d="M223.0313 118.3867L223.5269 118.3867L223.5269 83.69336L223.0313 83.69336z" stroke="none" fill="#000000" fill-rule="nonzero" /><path id="424" transform="matrix(1 0 0 -1 0 842)" d="M272.5938 118.3867L273.0894 118.3867L273.0894 83.69336L272.5938 83.69336z" stroke="none" fill="#000000" fill-rule="nonzero" /><path id="425" transform="matrix(1 0 0 -1 0 842)" d="M272.5938 118.3867L421.7769 118.3867L421.7769 117.8916L272.5938 117.8916z" stroke="none" fill="#000000" fill-rule="nonzero" /><path id="426" transform="matrix(1 0 0 -1 0 842)" d="M272.5938 84.18848L421.7769 84.18848L421.7769 83.69336L272.5938 83.69336z" stroke="none" fill="#000000" fill-rule="nonzero" /><path id="427" transform="matrix(1 0 0 -1 0 842)" d="M272.5938 118.3867L273.0894 118.3867L273.0894 83.69336L272.5938 83.69336z" stroke="none" fill="#000000" fill-rule="nonzero" /><path id="428" transform="matrix(1 0 0 -1 0 842)" d="M421.2813 118.3867L421.7769 118.3867L421.7769 83.69336L421.2813 83.69336z" stroke="none" fill="#000000" fill-rule="nonzero" /><path id="429" transform="matrix(1 0 0 -1 0 842)" d="M421.2813 118.3867L471.3394 118.3867L471.3394 117.8916L421.2813 117.8916z" stroke="none" fill="#000000" fill-rule="nonzero" /><path id="430" transform="matrix(1 0 0 -1 0 842)" d="M421.2813 84.18848L471.3394 84.18848L471.3394 83.69336L421.2813 83.69336z" stroke="none" fill="#000000" fill-rule="nonzero" /><path id="431" transform="matrix(1 0 0 -1 0 842)" d="M421.2813 118.3867L421.7769 118.3867L421.7769 83.69336L421.2813 83.69336z" stroke="none" fill="#000000" fill-rule="nonzero" /><path id="432" transform="matrix(1 0 0 -1 0 842)" d="M470.8438 118.3867L471.3394 118.3867L471.3394 83.69336L470.8438 83.69336z" stroke="none" fill="#000000" fill-rule="nonzero" /></g></g></g></svg>